<?xml version="1.0" encoding="utf-8" standalone="no"?>
<!DOCTYPE svg PUBLIC "-//W3C//DTD SVG 1.1//EN"
  "http://www.w3.org/Graphics/SVG/1.1/DTD/svg11.dtd">
<svg xmlns:xlink="http://www.w3.org/1999/xlink" width="324pt" height="216pt" viewBox="0 0 324 216" xmlns="http://www.w3.org/2000/svg" version="1.1">
 <metadata>
  <rdf:RDF xmlns:dc="http://purl.org/dc/elements/1.1/" xmlns:cc="http://creativecommons.org/ns#" xmlns:rdf="http://www.w3.org/1999/02/22-rdf-syntax-ns#">
   <cc:Work>
    <dc:type rdf:resource="http://purl.org/dc/dcmitype/StillImage"/>
    <dc:date>2025-06-02T12:35:28.035103</dc:date>
    <dc:format>image/svg+xml</dc:format>
    <dc:creator>
     <cc:Agent>
      <dc:title>Matplotlib v3.9.2, https://matplotlib.org/</dc:title>
     </cc:Agent>
    </dc:creator>
   </cc:Work>
  </rdf:RDF>
 </metadata>
 <defs>
  <style type="text/css">*{stroke-linejoin: round; stroke-linecap: butt}</style>
 </defs>
 <g id="figure_1">
  <g id="patch_1">
   <path d="M 0 216 
L 324 216 
L 324 0 
L 0 0 
z
" style="fill: #ffffff"/>
  </g>
  <g id="axes_1">
   <g id="patch_2">
    <path d="M 63.83 174.04 
L 313.2 174.04 
L 313.2 25.44 
L 63.83 25.44 
z
" style="fill: #ffffff"/>
   </g>
   <g id="patch_3">
    <path d="M 75.165 56.265672 
L 90.534492 56.265672 
L 90.534492 32.51619 
L 75.165 32.51619 
z
" clip-path="url(#pe79c19753d)" style="fill: #fde725"/>
   </g>
   <g id="patch_4">
    <path d="M 94.376864 78.378357 
L 109.746356 78.378357 
L 109.746356 55.900064 
L 94.376864 55.900064 
z
" clip-path="url(#pe79c19753d)" style="fill: #fde725"/>
   </g>
   <g id="patch_5">
    <path d="M 113.588729 95.376288 
L 128.95822 95.376288 
L 128.95822 72.789251 
L 113.588729 72.789251 
z
" clip-path="url(#pe79c19753d)" style="fill: #fde725"/>
   </g>
   <g id="patch_6">
    <path d="M 132.800593 109.543106 
L 148.170085 109.543106 
L 148.170085 88.229132 
L 132.800593 88.229132 
z
" clip-path="url(#pe79c19753d)" style="fill: #fde725"/>
   </g>
   <g id="patch_7">
    <path d="M 152.012458 124.598631 
L 167.381949 124.598631 
L 167.381949 104.173365 
L 152.012458 104.173365 
z
" clip-path="url(#pe79c19753d)" style="fill: #fde725"/>
   </g>
   <g id="patch_8">
    <path d="M 171.224322 137.554257 
L 186.593814 137.554257 
L 186.593814 118.555797 
L 171.224322 118.555797 
z
" clip-path="url(#pe79c19753d)" style="fill: #fde725"/>
   </g>
   <g id="patch_9">
    <path d="M 190.436186 148.139997 
L 205.805678 148.139997 
L 205.805678 129.734009 
L 190.436186 129.734009 
z
" clip-path="url(#pe79c19753d)" style="fill: #fde725"/>
   </g>
   <g id="patch_10">
    <path d="M 209.648051 153.854722 
L 225.017542 153.854722 
L 225.017542 136.575554 
L 209.648051 136.575554 
z
" clip-path="url(#pe79c19753d)" style="fill: #fde725"/>
   </g>
   <g id="patch_11">
    <path d="M 228.859915 158.969476 
L 244.229407 158.969476 
L 244.229407 143.064617 
L 228.859915 143.064617 
z
" clip-path="url(#pe79c19753d)" style="fill: #fde725"/>
   </g>
   <g id="patch_12">
    <path d="M 248.07178 163.139275 
L 263.441271 163.139275 
L 263.441271 147.187543 
L 248.07178 147.187543 
z
" clip-path="url(#pe79c19753d)" style="fill: #fde725"/>
   </g>
   <g id="patch_13">
    <path d="M 267.283644 166.442866 
L 282.653136 166.442866 
L 282.653136 151.331094 
L 267.283644 151.331094 
z
" clip-path="url(#pe79c19753d)" style="fill: #fde725"/>
   </g>
   <g id="patch_14">
    <path d="M 286.495508 174.0325 
L 301.865 174.0325 
L 301.865 174.010001 
L 286.495508 174.010001 
z
" clip-path="url(#pe79c19753d)" style="fill: #fde725"/>
   </g>
   <g id="patch_15">
    <path d="M 75.165 155.266529 
L 90.534492 155.266529 
L 90.534492 56.265672 
L 75.165 56.265672 
z
" clip-path="url(#pe79c19753d)" style="fill: #d3d3d3"/>
   </g>
   <g id="patch_16">
    <path d="M 94.376864 160.838761 
L 109.746356 160.838761 
L 109.746356 78.378357 
L 94.376864 78.378357 
z
" clip-path="url(#pe79c19753d)" style="fill: #d3d3d3"/>
   </g>
   <g id="patch_17">
    <path d="M 113.588729 164.191099 
L 128.95822 164.191099 
L 128.95822 95.376288 
L 113.588729 95.376288 
z
" clip-path="url(#pe79c19753d)" style="fill: #d3d3d3"/>
   </g>
   <g id="patch_18">
    <path d="M 132.800593 166.988465 
L 148.170085 166.988465 
L 148.170085 109.543106 
L 132.800593 109.543106 
z
" clip-path="url(#pe79c19753d)" style="fill: #d3d3d3"/>
   </g>
   <g id="patch_19">
    <path d="M 152.012458 169.264605 
L 167.381949 169.264605 
L 167.381949 124.598631 
L 152.012458 124.598631 
z
" clip-path="url(#pe79c19753d)" style="fill: #d3d3d3"/>
   </g>
   <g id="patch_20">
    <path d="M 171.224322 170.770157 
L 186.593814 170.770157 
L 186.593814 137.554257 
L 171.224322 137.554257 
z
" clip-path="url(#pe79c19753d)" style="fill: #d3d3d3"/>
   </g>
   <g id="patch_21">
    <path d="M 190.436186 171.981349 
L 205.805678 171.981349 
L 205.805678 148.139997 
L 190.436186 148.139997 
z
" clip-path="url(#pe79c19753d)" style="fill: #d3d3d3"/>
   </g>
   <g id="patch_22">
    <path d="M 209.648051 172.532573 
L 225.017542 172.532573 
L 225.017542 153.854722 
L 209.648051 153.854722 
z
" clip-path="url(#pe79c19753d)" style="fill: #d3d3d3"/>
   </g>
   <g id="patch_23">
    <path d="M 228.859915 172.828808 
L 244.229407 172.828808 
L 244.229407 158.969476 
L 228.859915 158.969476 
z
" clip-path="url(#pe79c19753d)" style="fill: #d3d3d3"/>
   </g>
   <g id="patch_24">
    <path d="M 248.07178 173.237539 
L 263.441271 173.237539 
L 263.441271 163.139275 
L 248.07178 163.139275 
z
" clip-path="url(#pe79c19753d)" style="fill: #d3d3d3"/>
   </g>
   <g id="patch_25">
    <path d="M 267.283644 173.471902 
L 282.653136 173.471902 
L 282.653136 166.442866 
L 267.283644 166.442866 
z
" clip-path="url(#pe79c19753d)" style="fill: #d3d3d3"/>
   </g>
   <g id="patch_26">
    <path d="M 286.495508 174.04 
L 301.865 174.04 
L 301.865 174.0325 
L 286.495508 174.0325 
z
" clip-path="url(#pe79c19753d)" style="fill: #d3d3d3"/>
   </g>
   <g id="patch_27">
    <path d="M 75.165 174.04 
L 90.534492 174.04 
L 90.534492 155.266529 
L 75.165 155.266529 
z
" clip-path="url(#pe79c19753d)" style="fill: #440154"/>
   </g>
   <g id="patch_28">
    <path d="M 94.376864 174.04 
L 109.746356 174.04 
L 109.746356 160.838761 
L 94.376864 160.838761 
z
" clip-path="url(#pe79c19753d)" style="fill: #440154"/>
   </g>
   <g id="patch_29">
    <path d="M 113.588729 174.04 
L 128.95822 174.04 
L 128.95822 164.191099 
L 113.588729 164.191099 
z
" clip-path="url(#pe79c19753d)" style="fill: #440154"/>
   </g>
   <g id="patch_30">
    <path d="M 132.800593 174.04 
L 148.170085 174.04 
L 148.170085 166.988465 
L 132.800593 166.988465 
z
" clip-path="url(#pe79c19753d)" style="fill: #440154"/>
   </g>
   <g id="patch_31">
    <path d="M 152.012458 174.04 
L 167.381949 174.04 
L 167.381949 169.264605 
L 152.012458 169.264605 
z
" clip-path="url(#pe79c19753d)" style="fill: #440154"/>
   </g>
   <g id="patch_32">
    <path d="M 171.224322 174.04 
L 186.593814 174.04 
L 186.593814 170.770157 
L 171.224322 170.770157 
z
" clip-path="url(#pe79c19753d)" style="fill: #440154"/>
   </g>
   <g id="patch_33">
    <path d="M 190.436186 174.04 
L 205.805678 174.04 
L 205.805678 171.981349 
L 190.436186 171.981349 
z
" clip-path="url(#pe79c19753d)" style="fill: #440154"/>
   </g>
   <g id="patch_34">
    <path d="M 209.648051 174.04 
L 225.017542 174.04 
L 225.017542 172.532573 
L 209.648051 172.532573 
z
" clip-path="url(#pe79c19753d)" style="fill: #440154"/>
   </g>
   <g id="patch_35">
    <path d="M 228.859915 174.04 
L 244.229407 174.04 
L 244.229407 172.828808 
L 228.859915 172.828808 
z
" clip-path="url(#pe79c19753d)" style="fill: #440154"/>
   </g>
   <g id="patch_36">
    <path d="M 248.07178 174.04 
L 263.441271 174.04 
L 263.441271 173.237539 
L 248.07178 173.237539 
z
" clip-path="url(#pe79c19753d)" style="fill: #440154"/>
   </g>
   <g id="patch_37">
    <path d="M 267.283644 174.04 
L 282.653136 174.04 
L 282.653136 173.471902 
L 267.283644 173.471902 
z
" clip-path="url(#pe79c19753d)" style="fill: #440154"/>
   </g>
   <g id="patch_38">
    <path d="M 286.495508 174.04 
L 301.865 174.04 
L 301.865 174.04 
L 286.495508 174.04 
z
" clip-path="url(#pe79c19753d)" style="fill: #440154"/>
   </g>
   <g id="matplotlib.axis_1">
    <g id="xtick_1">
     <g id="line2d_1">
      <defs>
       <path id="mb18c3183d2" d="M 0 0 
L 0 3.5 
" style="stroke: #000000; stroke-width: 0.8"/>
      </defs>
      <g>
       <use xlink:href="#mb18c3183d2" x="102.06161" y="174.04" style="stroke: #000000; stroke-width: 0.8"/>
      </g>
     </g>
     <g id="text_1">
      <!-- 0.56 -->
      <g transform="translate(90.928798 188.638438) scale(0.1 -0.1)">
       <defs>
        <path id="DejaVuSans-30" d="M 2034 4250 
Q 1547 4250 1301 3770 
Q 1056 3291 1056 2328 
Q 1056 1369 1301 889 
Q 1547 409 2034 409 
Q 2525 409 2770 889 
Q 3016 1369 3016 2328 
Q 3016 3291 2770 3770 
Q 2525 4250 2034 4250 
z
M 2034 4750 
Q 2819 4750 3233 4129 
Q 3647 3509 3647 2328 
Q 3647 1150 3233 529 
Q 2819 -91 2034 -91 
Q 1250 -91 836 529 
Q 422 1150 422 2328 
Q 422 3509 836 4129 
Q 1250 4750 2034 4750 
z
" transform="scale(0.015625)"/>
        <path id="DejaVuSans-2e" d="M 684 794 
L 1344 794 
L 1344 0 
L 684 0 
L 684 794 
z
" transform="scale(0.015625)"/>
        <path id="DejaVuSans-35" d="M 691 4666 
L 3169 4666 
L 3169 4134 
L 1269 4134 
L 1269 2991 
Q 1406 3038 1543 3061 
Q 1681 3084 1819 3084 
Q 2600 3084 3056 2656 
Q 3513 2228 3513 1497 
Q 3513 744 3044 326 
Q 2575 -91 1722 -91 
Q 1428 -91 1123 -41 
Q 819 9 494 109 
L 494 744 
Q 775 591 1075 516 
Q 1375 441 1709 441 
Q 2250 441 2565 725 
Q 2881 1009 2881 1497 
Q 2881 1984 2565 2268 
Q 2250 2553 1709 2553 
Q 1456 2553 1204 2497 
Q 953 2441 691 2322 
L 691 4666 
z
" transform="scale(0.015625)"/>
        <path id="DejaVuSans-36" d="M 2113 2584 
Q 1688 2584 1439 2293 
Q 1191 2003 1191 1497 
Q 1191 994 1439 701 
Q 1688 409 2113 409 
Q 2538 409 2786 701 
Q 3034 994 3034 1497 
Q 3034 2003 2786 2293 
Q 2538 2584 2113 2584 
z
M 3366 4563 
L 3366 3988 
Q 3128 4100 2886 4159 
Q 2644 4219 2406 4219 
Q 1781 4219 1451 3797 
Q 1122 3375 1075 2522 
Q 1259 2794 1537 2939 
Q 1816 3084 2150 3084 
Q 2853 3084 3261 2657 
Q 3669 2231 3669 1497 
Q 3669 778 3244 343 
Q 2819 -91 2113 -91 
Q 1303 -91 875 529 
Q 447 1150 447 2328 
Q 447 3434 972 4092 
Q 1497 4750 2381 4750 
Q 2619 4750 2861 4703 
Q 3103 4656 3366 4563 
z
" transform="scale(0.015625)"/>
       </defs>
       <use xlink:href="#DejaVuSans-30"/>
       <use xlink:href="#DejaVuSans-2e" x="63.623047"/>
       <use xlink:href="#DejaVuSans-35" x="95.410156"/>
       <use xlink:href="#DejaVuSans-36" x="159.033203"/>
      </g>
     </g>
    </g>
    <g id="xtick_2">
     <g id="line2d_2">
      <g>
       <use xlink:href="#mb18c3183d2" x="140.485339" y="174.04" style="stroke: #000000; stroke-width: 0.8"/>
      </g>
     </g>
     <g id="text_2">
      <!-- 0.58 -->
      <g transform="translate(129.352526 188.638438) scale(0.1 -0.1)">
       <defs>
        <path id="DejaVuSans-38" d="M 2034 2216 
Q 1584 2216 1326 1975 
Q 1069 1734 1069 1313 
Q 1069 891 1326 650 
Q 1584 409 2034 409 
Q 2484 409 2743 651 
Q 3003 894 3003 1313 
Q 3003 1734 2745 1975 
Q 2488 2216 2034 2216 
z
M 1403 2484 
Q 997 2584 770 2862 
Q 544 3141 544 3541 
Q 544 4100 942 4425 
Q 1341 4750 2034 4750 
Q 2731 4750 3128 4425 
Q 3525 4100 3525 3541 
Q 3525 3141 3298 2862 
Q 3072 2584 2669 2484 
Q 3125 2378 3379 2068 
Q 3634 1759 3634 1313 
Q 3634 634 3220 271 
Q 2806 -91 2034 -91 
Q 1263 -91 848 271 
Q 434 634 434 1313 
Q 434 1759 690 2068 
Q 947 2378 1403 2484 
z
M 1172 3481 
Q 1172 3119 1398 2916 
Q 1625 2713 2034 2713 
Q 2441 2713 2670 2916 
Q 2900 3119 2900 3481 
Q 2900 3844 2670 4047 
Q 2441 4250 2034 4250 
Q 1625 4250 1398 4047 
Q 1172 3844 1172 3481 
z
" transform="scale(0.015625)"/>
       </defs>
       <use xlink:href="#DejaVuSans-30"/>
       <use xlink:href="#DejaVuSans-2e" x="63.623047"/>
       <use xlink:href="#DejaVuSans-35" x="95.410156"/>
       <use xlink:href="#DejaVuSans-38" x="159.033203"/>
      </g>
     </g>
    </g>
    <g id="xtick_3">
     <g id="line2d_3">
      <g>
       <use xlink:href="#mb18c3183d2" x="178.909068" y="174.04" style="stroke: #000000; stroke-width: 0.8"/>
      </g>
     </g>
     <g id="text_3">
      <!-- 0.60 -->
      <g transform="translate(167.776255 188.638438) scale(0.1 -0.1)">
       <use xlink:href="#DejaVuSans-30"/>
       <use xlink:href="#DejaVuSans-2e" x="63.623047"/>
       <use xlink:href="#DejaVuSans-36" x="95.410156"/>
       <use xlink:href="#DejaVuSans-30" x="159.033203"/>
      </g>
     </g>
    </g>
    <g id="xtick_4">
     <g id="line2d_4">
      <g>
       <use xlink:href="#mb18c3183d2" x="217.332797" y="174.04" style="stroke: #000000; stroke-width: 0.8"/>
      </g>
     </g>
     <g id="text_4">
      <!-- 0.62 -->
      <g transform="translate(206.199984 188.638438) scale(0.1 -0.1)">
       <defs>
        <path id="DejaVuSans-32" d="M 1228 531 
L 3431 531 
L 3431 0 
L 469 0 
L 469 531 
Q 828 903 1448 1529 
Q 2069 2156 2228 2338 
Q 2531 2678 2651 2914 
Q 2772 3150 2772 3378 
Q 2772 3750 2511 3984 
Q 2250 4219 1831 4219 
Q 1534 4219 1204 4116 
Q 875 4013 500 3803 
L 500 4441 
Q 881 4594 1212 4672 
Q 1544 4750 1819 4750 
Q 2544 4750 2975 4387 
Q 3406 4025 3406 3419 
Q 3406 3131 3298 2873 
Q 3191 2616 2906 2266 
Q 2828 2175 2409 1742 
Q 1991 1309 1228 531 
z
" transform="scale(0.015625)"/>
       </defs>
       <use xlink:href="#DejaVuSans-30"/>
       <use xlink:href="#DejaVuSans-2e" x="63.623047"/>
       <use xlink:href="#DejaVuSans-36" x="95.410156"/>
       <use xlink:href="#DejaVuSans-32" x="159.033203"/>
      </g>
     </g>
    </g>
    <g id="xtick_5">
     <g id="line2d_5">
      <g>
       <use xlink:href="#mb18c3183d2" x="255.756525" y="174.04" style="stroke: #000000; stroke-width: 0.8"/>
      </g>
     </g>
     <g id="text_5">
      <!-- 0.64 -->
      <g transform="translate(244.623713 188.638438) scale(0.1 -0.1)">
       <defs>
        <path id="DejaVuSans-34" d="M 2419 4116 
L 825 1625 
L 2419 1625 
L 2419 4116 
z
M 2253 4666 
L 3047 4666 
L 3047 1625 
L 3713 1625 
L 3713 1100 
L 3047 1100 
L 3047 0 
L 2419 0 
L 2419 1100 
L 313 1100 
L 313 1709 
L 2253 4666 
z
" transform="scale(0.015625)"/>
       </defs>
       <use xlink:href="#DejaVuSans-30"/>
       <use xlink:href="#DejaVuSans-2e" x="63.623047"/>
       <use xlink:href="#DejaVuSans-36" x="95.410156"/>
       <use xlink:href="#DejaVuSans-34" x="159.033203"/>
      </g>
     </g>
    </g>
    <g id="xtick_6">
     <g id="line2d_6">
      <g>
       <use xlink:href="#mb18c3183d2" x="294.180254" y="174.04" style="stroke: #000000; stroke-width: 0.8"/>
      </g>
     </g>
     <g id="text_6">
      <!-- 0.66 -->
      <g transform="translate(283.047442 188.638438) scale(0.1 -0.1)">
       <use xlink:href="#DejaVuSans-30"/>
       <use xlink:href="#DejaVuSans-2e" x="63.623047"/>
       <use xlink:href="#DejaVuSans-36" x="95.410156"/>
       <use xlink:href="#DejaVuSans-36" x="159.033203"/>
      </g>
     </g>
    </g>
    <g id="text_7">
     <!-- TM score -->
     <g transform="translate(166.125156 202.316563) scale(0.1 -0.1)">
      <defs>
       <path id="DejaVuSans-54" d="M -19 4666 
L 3928 4666 
L 3928 4134 
L 2272 4134 
L 2272 0 
L 1638 0 
L 1638 4134 
L -19 4134 
L -19 4666 
z
" transform="scale(0.015625)"/>
       <path id="DejaVuSans-4d" d="M 628 4666 
L 1569 4666 
L 2759 1491 
L 3956 4666 
L 4897 4666 
L 4897 0 
L 4281 0 
L 4281 4097 
L 3078 897 
L 2444 897 
L 1241 4097 
L 1241 0 
L 628 0 
L 628 4666 
z
" transform="scale(0.015625)"/>
       <path id="DejaVuSans-20" transform="scale(0.015625)"/>
       <path id="DejaVuSans-73" d="M 2834 3397 
L 2834 2853 
Q 2591 2978 2328 3040 
Q 2066 3103 1784 3103 
Q 1356 3103 1142 2972 
Q 928 2841 928 2578 
Q 928 2378 1081 2264 
Q 1234 2150 1697 2047 
L 1894 2003 
Q 2506 1872 2764 1633 
Q 3022 1394 3022 966 
Q 3022 478 2636 193 
Q 2250 -91 1575 -91 
Q 1294 -91 989 -36 
Q 684 19 347 128 
L 347 722 
Q 666 556 975 473 
Q 1284 391 1588 391 
Q 1994 391 2212 530 
Q 2431 669 2431 922 
Q 2431 1156 2273 1281 
Q 2116 1406 1581 1522 
L 1381 1569 
Q 847 1681 609 1914 
Q 372 2147 372 2553 
Q 372 3047 722 3315 
Q 1072 3584 1716 3584 
Q 2034 3584 2315 3537 
Q 2597 3491 2834 3397 
z
" transform="scale(0.015625)"/>
       <path id="DejaVuSans-63" d="M 3122 3366 
L 3122 2828 
Q 2878 2963 2633 3030 
Q 2388 3097 2138 3097 
Q 1578 3097 1268 2742 
Q 959 2388 959 1747 
Q 959 1106 1268 751 
Q 1578 397 2138 397 
Q 2388 397 2633 464 
Q 2878 531 3122 666 
L 3122 134 
Q 2881 22 2623 -34 
Q 2366 -91 2075 -91 
Q 1284 -91 818 406 
Q 353 903 353 1747 
Q 353 2603 823 3093 
Q 1294 3584 2113 3584 
Q 2378 3584 2631 3529 
Q 2884 3475 3122 3366 
z
" transform="scale(0.015625)"/>
       <path id="DejaVuSans-6f" d="M 1959 3097 
Q 1497 3097 1228 2736 
Q 959 2375 959 1747 
Q 959 1119 1226 758 
Q 1494 397 1959 397 
Q 2419 397 2687 759 
Q 2956 1122 2956 1747 
Q 2956 2369 2687 2733 
Q 2419 3097 1959 3097 
z
M 1959 3584 
Q 2709 3584 3137 3096 
Q 3566 2609 3566 1747 
Q 3566 888 3137 398 
Q 2709 -91 1959 -91 
Q 1206 -91 779 398 
Q 353 888 353 1747 
Q 353 2609 779 3096 
Q 1206 3584 1959 3584 
z
" transform="scale(0.015625)"/>
       <path id="DejaVuSans-72" d="M 2631 2963 
Q 2534 3019 2420 3045 
Q 2306 3072 2169 3072 
Q 1681 3072 1420 2755 
Q 1159 2438 1159 1844 
L 1159 0 
L 581 0 
L 581 3500 
L 1159 3500 
L 1159 2956 
Q 1341 3275 1631 3429 
Q 1922 3584 2338 3584 
Q 2397 3584 2469 3576 
Q 2541 3569 2628 3553 
L 2631 2963 
z
" transform="scale(0.015625)"/>
       <path id="DejaVuSans-65" d="M 3597 1894 
L 3597 1613 
L 953 1613 
Q 991 1019 1311 708 
Q 1631 397 2203 397 
Q 2534 397 2845 478 
Q 3156 559 3463 722 
L 3463 178 
Q 3153 47 2828 -22 
Q 2503 -91 2169 -91 
Q 1331 -91 842 396 
Q 353 884 353 1716 
Q 353 2575 817 3079 
Q 1281 3584 2069 3584 
Q 2775 3584 3186 3129 
Q 3597 2675 3597 1894 
z
M 3022 2063 
Q 3016 2534 2758 2815 
Q 2500 3097 2075 3097 
Q 1594 3097 1305 2825 
Q 1016 2553 972 2059 
L 3022 2063 
z
" transform="scale(0.015625)"/>
      </defs>
      <use xlink:href="#DejaVuSans-54"/>
      <use xlink:href="#DejaVuSans-4d" x="61.083984"/>
      <use xlink:href="#DejaVuSans-20" x="147.363281"/>
      <use xlink:href="#DejaVuSans-73" x="179.150391"/>
      <use xlink:href="#DejaVuSans-63" x="231.25"/>
      <use xlink:href="#DejaVuSans-6f" x="286.230469"/>
      <use xlink:href="#DejaVuSans-72" x="347.412109"/>
      <use xlink:href="#DejaVuSans-65" x="386.275391"/>
     </g>
    </g>
   </g>
   <g id="matplotlib.axis_2">
    <g id="ytick_1">
     <g id="line2d_7">
      <defs>
       <path id="mf32638ed1e" d="M 0 0 
L -3.5 0 
" style="stroke: #000000; stroke-width: 0.8"/>
      </defs>
      <g>
       <use xlink:href="#mf32638ed1e" x="63.83" y="174.04" style="stroke: #000000; stroke-width: 0.8"/>
      </g>
     </g>
     <g id="text_8">
      <!-- 0 -->
      <g transform="translate(50.4675 177.839219) scale(0.1 -0.1)">
       <use xlink:href="#DejaVuSans-30"/>
      </g>
     </g>
    </g>
    <g id="ytick_2">
     <g id="line2d_8">
      <g>
       <use xlink:href="#mf32638ed1e" x="63.83" y="136.541806" style="stroke: #000000; stroke-width: 0.8"/>
      </g>
     </g>
     <g id="text_9">
      <!-- 20000 -->
      <g transform="translate(25.0175 140.341025) scale(0.1 -0.1)">
       <use xlink:href="#DejaVuSans-32"/>
       <use xlink:href="#DejaVuSans-30" x="63.623047"/>
       <use xlink:href="#DejaVuSans-30" x="127.246094"/>
       <use xlink:href="#DejaVuSans-30" x="190.869141"/>
       <use xlink:href="#DejaVuSans-30" x="254.492188"/>
      </g>
     </g>
    </g>
    <g id="ytick_3">
     <g id="line2d_9">
      <g>
       <use xlink:href="#mf32638ed1e" x="63.83" y="99.043612" style="stroke: #000000; stroke-width: 0.8"/>
      </g>
     </g>
     <g id="text_10">
      <!-- 40000 -->
      <g transform="translate(25.0175 102.84283) scale(0.1 -0.1)">
       <use xlink:href="#DejaVuSans-34"/>
       <use xlink:href="#DejaVuSans-30" x="63.623047"/>
       <use xlink:href="#DejaVuSans-30" x="127.246094"/>
       <use xlink:href="#DejaVuSans-30" x="190.869141"/>
       <use xlink:href="#DejaVuSans-30" x="254.492188"/>
      </g>
     </g>
    </g>
    <g id="ytick_4">
     <g id="line2d_10">
      <g>
       <use xlink:href="#mf32638ed1e" x="63.83" y="61.545417" style="stroke: #000000; stroke-width: 0.8"/>
      </g>
     </g>
     <g id="text_11">
      <!-- 60000 -->
      <g transform="translate(25.0175 65.344636) scale(0.1 -0.1)">
       <use xlink:href="#DejaVuSans-36"/>
       <use xlink:href="#DejaVuSans-30" x="63.623047"/>
       <use xlink:href="#DejaVuSans-30" x="127.246094"/>
       <use xlink:href="#DejaVuSans-30" x="190.869141"/>
       <use xlink:href="#DejaVuSans-30" x="254.492188"/>
      </g>
     </g>
    </g>
    <g id="text_12">
     <!-- Nr. hits -->
     <g transform="translate(18.937812 117.380625) rotate(-90) scale(0.1 -0.1)">
      <defs>
       <path id="DejaVuSans-4e" d="M 628 4666 
L 1478 4666 
L 3547 763 
L 3547 4666 
L 4159 4666 
L 4159 0 
L 3309 0 
L 1241 3903 
L 1241 0 
L 628 0 
L 628 4666 
z
" transform="scale(0.015625)"/>
       <path id="DejaVuSans-68" d="M 3513 2113 
L 3513 0 
L 2938 0 
L 2938 2094 
Q 2938 2591 2744 2837 
Q 2550 3084 2163 3084 
Q 1697 3084 1428 2787 
Q 1159 2491 1159 1978 
L 1159 0 
L 581 0 
L 581 4863 
L 1159 4863 
L 1159 2956 
Q 1366 3272 1645 3428 
Q 1925 3584 2291 3584 
Q 2894 3584 3203 3211 
Q 3513 2838 3513 2113 
z
" transform="scale(0.015625)"/>
       <path id="DejaVuSans-69" d="M 603 3500 
L 1178 3500 
L 1178 0 
L 603 0 
L 603 3500 
z
M 603 4863 
L 1178 4863 
L 1178 4134 
L 603 4134 
L 603 4863 
z
" transform="scale(0.015625)"/>
       <path id="DejaVuSans-74" d="M 1172 4494 
L 1172 3500 
L 2356 3500 
L 2356 3053 
L 1172 3053 
L 1172 1153 
Q 1172 725 1289 603 
Q 1406 481 1766 481 
L 2356 481 
L 2356 0 
L 1766 0 
Q 1100 0 847 248 
Q 594 497 594 1153 
L 594 3053 
L 172 3053 
L 172 3500 
L 594 3500 
L 594 4494 
L 1172 4494 
z
" transform="scale(0.015625)"/>
      </defs>
      <use xlink:href="#DejaVuSans-4e"/>
      <use xlink:href="#DejaVuSans-72" x="74.804688"/>
      <use xlink:href="#DejaVuSans-2e" x="106.792969"/>
      <use xlink:href="#DejaVuSans-20" x="138.580078"/>
      <use xlink:href="#DejaVuSans-68" x="170.367188"/>
      <use xlink:href="#DejaVuSans-69" x="233.746094"/>
      <use xlink:href="#DejaVuSans-74" x="261.529297"/>
      <use xlink:href="#DejaVuSans-73" x="300.738281"/>
     </g>
    </g>
   </g>
   <g id="patch_39">
    <path d="M 63.83 174.04 
L 63.83 25.44 
" style="fill: none; stroke: #000000; stroke-width: 0.8; stroke-linejoin: miter; stroke-linecap: square"/>
   </g>
   <g id="patch_40">
    <path d="M 313.2 174.04 
L 313.2 25.44 
" style="fill: none; stroke: #000000; stroke-width: 0.8; stroke-linejoin: miter; stroke-linecap: square"/>
   </g>
   <g id="patch_41">
    <path d="M 63.83 174.04 
L 313.2 174.04 
" style="fill: none; stroke: #000000; stroke-width: 0.8; stroke-linejoin: miter; stroke-linecap: square"/>
   </g>
   <g id="patch_42">
    <path d="M 63.83 25.44 
L 313.2 25.44 
" style="fill: none; stroke: #000000; stroke-width: 0.8; stroke-linejoin: miter; stroke-linecap: square"/>
   </g>
   <g id="text_13">
    <!-- TM-align SCOP40 -->
    <g transform="translate(137.005 19.44) scale(0.12 -0.12)">
     <defs>
      <path id="DejaVuSans-2d" d="M 313 2009 
L 1997 2009 
L 1997 1497 
L 313 1497 
L 313 2009 
z
" transform="scale(0.015625)"/>
      <path id="DejaVuSans-61" d="M 2194 1759 
Q 1497 1759 1228 1600 
Q 959 1441 959 1056 
Q 959 750 1161 570 
Q 1363 391 1709 391 
Q 2188 391 2477 730 
Q 2766 1069 2766 1631 
L 2766 1759 
L 2194 1759 
z
M 3341 1997 
L 3341 0 
L 2766 0 
L 2766 531 
Q 2569 213 2275 61 
Q 1981 -91 1556 -91 
Q 1019 -91 701 211 
Q 384 513 384 1019 
Q 384 1609 779 1909 
Q 1175 2209 1959 2209 
L 2766 2209 
L 2766 2266 
Q 2766 2663 2505 2880 
Q 2244 3097 1772 3097 
Q 1472 3097 1187 3025 
Q 903 2953 641 2809 
L 641 3341 
Q 956 3463 1253 3523 
Q 1550 3584 1831 3584 
Q 2591 3584 2966 3190 
Q 3341 2797 3341 1997 
z
" transform="scale(0.015625)"/>
      <path id="DejaVuSans-6c" d="M 603 4863 
L 1178 4863 
L 1178 0 
L 603 0 
L 603 4863 
z
" transform="scale(0.015625)"/>
      <path id="DejaVuSans-67" d="M 2906 1791 
Q 2906 2416 2648 2759 
Q 2391 3103 1925 3103 
Q 1463 3103 1205 2759 
Q 947 2416 947 1791 
Q 947 1169 1205 825 
Q 1463 481 1925 481 
Q 2391 481 2648 825 
Q 2906 1169 2906 1791 
z
M 3481 434 
Q 3481 -459 3084 -895 
Q 2688 -1331 1869 -1331 
Q 1566 -1331 1297 -1286 
Q 1028 -1241 775 -1147 
L 775 -588 
Q 1028 -725 1275 -790 
Q 1522 -856 1778 -856 
Q 2344 -856 2625 -561 
Q 2906 -266 2906 331 
L 2906 616 
Q 2728 306 2450 153 
Q 2172 0 1784 0 
Q 1141 0 747 490 
Q 353 981 353 1791 
Q 353 2603 747 3093 
Q 1141 3584 1784 3584 
Q 2172 3584 2450 3431 
Q 2728 3278 2906 2969 
L 2906 3500 
L 3481 3500 
L 3481 434 
z
" transform="scale(0.015625)"/>
      <path id="DejaVuSans-6e" d="M 3513 2113 
L 3513 0 
L 2938 0 
L 2938 2094 
Q 2938 2591 2744 2837 
Q 2550 3084 2163 3084 
Q 1697 3084 1428 2787 
Q 1159 2491 1159 1978 
L 1159 0 
L 581 0 
L 581 3500 
L 1159 3500 
L 1159 2956 
Q 1366 3272 1645 3428 
Q 1925 3584 2291 3584 
Q 2894 3584 3203 3211 
Q 3513 2838 3513 2113 
z
" transform="scale(0.015625)"/>
      <path id="DejaVuSans-53" d="M 3425 4513 
L 3425 3897 
Q 3066 4069 2747 4153 
Q 2428 4238 2131 4238 
Q 1616 4238 1336 4038 
Q 1056 3838 1056 3469 
Q 1056 3159 1242 3001 
Q 1428 2844 1947 2747 
L 2328 2669 
Q 3034 2534 3370 2195 
Q 3706 1856 3706 1288 
Q 3706 609 3251 259 
Q 2797 -91 1919 -91 
Q 1588 -91 1214 -16 
Q 841 59 441 206 
L 441 856 
Q 825 641 1194 531 
Q 1563 422 1919 422 
Q 2459 422 2753 634 
Q 3047 847 3047 1241 
Q 3047 1584 2836 1778 
Q 2625 1972 2144 2069 
L 1759 2144 
Q 1053 2284 737 2584 
Q 422 2884 422 3419 
Q 422 4038 858 4394 
Q 1294 4750 2059 4750 
Q 2388 4750 2728 4690 
Q 3069 4631 3425 4513 
z
" transform="scale(0.015625)"/>
      <path id="DejaVuSans-43" d="M 4122 4306 
L 4122 3641 
Q 3803 3938 3442 4084 
Q 3081 4231 2675 4231 
Q 1875 4231 1450 3742 
Q 1025 3253 1025 2328 
Q 1025 1406 1450 917 
Q 1875 428 2675 428 
Q 3081 428 3442 575 
Q 3803 722 4122 1019 
L 4122 359 
Q 3791 134 3420 21 
Q 3050 -91 2638 -91 
Q 1578 -91 968 557 
Q 359 1206 359 2328 
Q 359 3453 968 4101 
Q 1578 4750 2638 4750 
Q 3056 4750 3426 4639 
Q 3797 4528 4122 4306 
z
" transform="scale(0.015625)"/>
      <path id="DejaVuSans-4f" d="M 2522 4238 
Q 1834 4238 1429 3725 
Q 1025 3213 1025 2328 
Q 1025 1447 1429 934 
Q 1834 422 2522 422 
Q 3209 422 3611 934 
Q 4013 1447 4013 2328 
Q 4013 3213 3611 3725 
Q 3209 4238 2522 4238 
z
M 2522 4750 
Q 3503 4750 4090 4092 
Q 4678 3434 4678 2328 
Q 4678 1225 4090 567 
Q 3503 -91 2522 -91 
Q 1538 -91 948 565 
Q 359 1222 359 2328 
Q 359 3434 948 4092 
Q 1538 4750 2522 4750 
z
" transform="scale(0.015625)"/>
      <path id="DejaVuSans-50" d="M 1259 4147 
L 1259 2394 
L 2053 2394 
Q 2494 2394 2734 2622 
Q 2975 2850 2975 3272 
Q 2975 3691 2734 3919 
Q 2494 4147 2053 4147 
L 1259 4147 
z
M 628 4666 
L 2053 4666 
Q 2838 4666 3239 4311 
Q 3641 3956 3641 3272 
Q 3641 2581 3239 2228 
Q 2838 1875 2053 1875 
L 1259 1875 
L 1259 0 
L 628 0 
L 628 4666 
z
" transform="scale(0.015625)"/>
     </defs>
     <use xlink:href="#DejaVuSans-54"/>
     <use xlink:href="#DejaVuSans-4d" x="61.083984"/>
     <use xlink:href="#DejaVuSans-2d" x="147.363281"/>
     <use xlink:href="#DejaVuSans-61" x="183.447266"/>
     <use xlink:href="#DejaVuSans-6c" x="244.726562"/>
     <use xlink:href="#DejaVuSans-69" x="272.509766"/>
     <use xlink:href="#DejaVuSans-67" x="300.292969"/>
     <use xlink:href="#DejaVuSans-6e" x="363.769531"/>
     <use xlink:href="#DejaVuSans-20" x="427.148438"/>
     <use xlink:href="#DejaVuSans-53" x="458.935547"/>
     <use xlink:href="#DejaVuSans-43" x="522.412109"/>
     <use xlink:href="#DejaVuSans-4f" x="592.236328"/>
     <use xlink:href="#DejaVuSans-50" x="670.947266"/>
     <use xlink:href="#DejaVuSans-34" x="731.25"/>
     <use xlink:href="#DejaVuSans-30" x="794.873047"/>
    </g>
   </g>
   <g id="legend_1">
    <g id="patch_43">
     <path d="M 230.803125 77.474375 
L 306.2 77.474375 
Q 308.2 77.474375 308.2 75.474375 
L 308.2 32.44 
Q 308.2 30.44 306.2 30.44 
L 230.803125 30.44 
Q 228.803125 30.44 228.803125 32.44 
L 228.803125 75.474375 
Q 228.803125 77.474375 230.803125 77.474375 
z
" style="fill: #ffffff; opacity: 0.8; stroke: #cccccc; stroke-linejoin: miter"/>
    </g>
    <g id="patch_44">
     <path d="M 232.803125 42.038438 
L 252.803125 42.038438 
L 252.803125 35.038438 
L 232.803125 35.038438 
z
" style="fill: #fde725"/>
    </g>
    <g id="text_14">
     <!-- TP (SF) -->
     <g transform="translate(260.803125 42.038438) scale(0.1 -0.1)">
      <defs>
       <path id="DejaVuSans-28" d="M 1984 4856 
Q 1566 4138 1362 3434 
Q 1159 2731 1159 2009 
Q 1159 1288 1364 580 
Q 1569 -128 1984 -844 
L 1484 -844 
Q 1016 -109 783 600 
Q 550 1309 550 2009 
Q 550 2706 781 3412 
Q 1013 4119 1484 4856 
L 1984 4856 
z
" transform="scale(0.015625)"/>
       <path id="DejaVuSans-46" d="M 628 4666 
L 3309 4666 
L 3309 4134 
L 1259 4134 
L 1259 2759 
L 3109 2759 
L 3109 2228 
L 1259 2228 
L 1259 0 
L 628 0 
L 628 4666 
z
" transform="scale(0.015625)"/>
       <path id="DejaVuSans-29" d="M 513 4856 
L 1013 4856 
Q 1481 4119 1714 3412 
Q 1947 2706 1947 2009 
Q 1947 1309 1714 600 
Q 1481 -109 1013 -844 
L 513 -844 
Q 928 -128 1133 580 
Q 1338 1288 1338 2009 
Q 1338 2731 1133 3434 
Q 928 4138 513 4856 
z
" transform="scale(0.015625)"/>
      </defs>
      <use xlink:href="#DejaVuSans-54"/>
      <use xlink:href="#DejaVuSans-50" x="61.083984"/>
      <use xlink:href="#DejaVuSans-20" x="121.386719"/>
      <use xlink:href="#DejaVuSans-28" x="153.173828"/>
      <use xlink:href="#DejaVuSans-53" x="192.1875"/>
      <use xlink:href="#DejaVuSans-46" x="255.664062"/>
      <use xlink:href="#DejaVuSans-29" x="313.183594"/>
     </g>
    </g>
    <g id="patch_45">
     <path d="M 232.803125 56.716563 
L 252.803125 56.716563 
L 252.803125 49.716563 
L 232.803125 49.716563 
z
" style="fill: #d3d3d3"/>
    </g>
    <g id="text_15">
     <!-- FP (SF) -->
     <g transform="translate(260.803125 56.716563) scale(0.1 -0.1)">
      <use xlink:href="#DejaVuSans-46"/>
      <use xlink:href="#DejaVuSans-50" x="57.519531"/>
      <use xlink:href="#DejaVuSans-20" x="117.822266"/>
      <use xlink:href="#DejaVuSans-28" x="149.609375"/>
      <use xlink:href="#DejaVuSans-53" x="188.623047"/>
      <use xlink:href="#DejaVuSans-46" x="252.099609"/>
      <use xlink:href="#DejaVuSans-29" x="309.619141"/>
     </g>
    </g>
    <g id="patch_46">
     <path d="M 232.803125 71.394688 
L 252.803125 71.394688 
L 252.803125 64.394688 
L 232.803125 64.394688 
z
" style="fill: #440154"/>
    </g>
    <g id="text_16">
     <!-- FP (Fold) -->
     <g transform="translate(260.803125 71.394688) scale(0.1 -0.1)">
      <defs>
       <path id="DejaVuSans-64" d="M 2906 2969 
L 2906 4863 
L 3481 4863 
L 3481 0 
L 2906 0 
L 2906 525 
Q 2725 213 2448 61 
Q 2172 -91 1784 -91 
Q 1150 -91 751 415 
Q 353 922 353 1747 
Q 353 2572 751 3078 
Q 1150 3584 1784 3584 
Q 2172 3584 2448 3432 
Q 2725 3281 2906 2969 
z
M 947 1747 
Q 947 1113 1208 752 
Q 1469 391 1925 391 
Q 2381 391 2643 752 
Q 2906 1113 2906 1747 
Q 2906 2381 2643 2742 
Q 2381 3103 1925 3103 
Q 1469 3103 1208 2742 
Q 947 2381 947 1747 
z
" transform="scale(0.015625)"/>
      </defs>
      <use xlink:href="#DejaVuSans-46"/>
      <use xlink:href="#DejaVuSans-50" x="57.519531"/>
      <use xlink:href="#DejaVuSans-20" x="117.822266"/>
      <use xlink:href="#DejaVuSans-28" x="149.609375"/>
      <use xlink:href="#DejaVuSans-46" x="188.623047"/>
      <use xlink:href="#DejaVuSans-6f" x="242.517578"/>
      <use xlink:href="#DejaVuSans-6c" x="303.699219"/>
      <use xlink:href="#DejaVuSans-64" x="331.482422"/>
      <use xlink:href="#DejaVuSans-29" x="394.958984"/>
     </g>
    </g>
   </g>
  </g>
 </g>
 <defs>
  <clipPath id="pe79c19753d">
   <rect x="63.83" y="25.44" width="249.37" height="148.6"/>
  </clipPath>
 </defs>
</svg>
