<?xml version="1.0" encoding="utf-8" standalone="no"?>
<!DOCTYPE svg PUBLIC "-//W3C//DTD SVG 1.1//EN"
  "http://www.w3.org/Graphics/SVG/1.1/DTD/svg11.dtd">
<svg xmlns:xlink="http://www.w3.org/1999/xlink" width="743.225806pt" height="280.519481pt" viewBox="0 0 743.225806 280.519481" xmlns="http://www.w3.org/2000/svg" version="1.1">
 <metadata>
  <rdf:RDF xmlns:dc="http://purl.org/dc/elements/1.1/" xmlns:cc="http://creativecommons.org/ns#" xmlns:rdf="http://www.w3.org/1999/02/22-rdf-syntax-ns#">
   <cc:Work>
    <dc:type rdf:resource="http://purl.org/dc/dcmitype/StillImage"/>
    <dc:date>2025-05-29T12:14:21.588358</dc:date>
    <dc:format>image/svg+xml</dc:format>
    <dc:creator>
     <cc:Agent>
      <dc:title>Matplotlib v3.10.3, https://matplotlib.org/</dc:title>
     </cc:Agent>
    </dc:creator>
   </cc:Work>
  </rdf:RDF>
 </metadata>
 <defs>
  <style type="text/css">*{stroke-linejoin: round; stroke-linecap: butt}</style>
 </defs>
 <g id="figure_1">
  <g id="patch_1">
   <path d="M 0 280.519481 
L 743.225806 280.519481 
L 743.225806 0 
L 0 0 
z
" style="fill: #ffffff"/>
  </g>
  <g id="axes_1">
   <g id="patch_2">
    <path d="M 33.73 252.639481 
L 359.033355 252.639481 
L 359.033355 25.44 
L 33.73 25.44 
z
" style="fill: #ffffff"/>
   </g>
   <g id="matplotlib.axis_1">
    <g id="xtick_1">
     <g id="line2d_1">
      <defs>
       <path id="m98db9e54ab" d="M 0 0 
L 0 3.5 
" style="stroke: #000000; stroke-width: 0.8"/>
      </defs>
      <g>
       <use xlink:href="#m98db9e54ab" x="33.73" y="252.639481" style="stroke: #000000; stroke-width: 0.8"/>
      </g>
     </g>
     <g id="text_1">
      <!-- −2 -->
      <g transform="translate(26.358906 267.237918) scale(0.1 -0.1)">
       <defs>
        <path id="DejaVuSans-2212" d="M 678 2272 
L 4684 2272 
L 4684 1741 
L 678 1741 
L 678 2272 
z
" transform="scale(0.015625)"/>
        <path id="DejaVuSans-32" d="M 1228 531 
L 3431 531 
L 3431 0 
L 469 0 
L 469 531 
Q 828 903 1448 1529 
Q 2069 2156 2228 2338 
Q 2531 2678 2651 2914 
Q 2772 3150 2772 3378 
Q 2772 3750 2511 3984 
Q 2250 4219 1831 4219 
Q 1534 4219 1204 4116 
Q 875 4013 500 3803 
L 500 4441 
Q 881 4594 1212 4672 
Q 1544 4750 1819 4750 
Q 2544 4750 2975 4387 
Q 3406 4025 3406 3419 
Q 3406 3131 3298 2873 
Q 3191 2616 2906 2266 
Q 2828 2175 2409 1742 
Q 1991 1309 1228 531 
z
" transform="scale(0.015625)"/>
       </defs>
       <use xlink:href="#DejaVuSans-2212"/>
       <use xlink:href="#DejaVuSans-32" transform="translate(83.789062 0)"/>
      </g>
     </g>
    </g>
    <g id="xtick_2">
     <g id="line2d_2">
      <g>
       <use xlink:href="#m98db9e54ab" x="87.947226" y="252.639481" style="stroke: #000000; stroke-width: 0.8"/>
      </g>
     </g>
     <g id="text_2">
      <!-- −1 -->
      <g transform="translate(80.576132 267.237918) scale(0.1 -0.1)">
       <defs>
        <path id="DejaVuSans-31" d="M 794 531 
L 1825 531 
L 1825 4091 
L 703 3866 
L 703 4441 
L 1819 4666 
L 2450 4666 
L 2450 531 
L 3481 531 
L 3481 0 
L 794 0 
L 794 531 
z
" transform="scale(0.015625)"/>
       </defs>
       <use xlink:href="#DejaVuSans-2212"/>
       <use xlink:href="#DejaVuSans-31" transform="translate(83.789062 0)"/>
      </g>
     </g>
    </g>
    <g id="xtick_3">
     <g id="line2d_3">
      <g>
       <use xlink:href="#m98db9e54ab" x="142.164452" y="252.639481" style="stroke: #000000; stroke-width: 0.8"/>
      </g>
     </g>
     <g id="text_3">
      <!-- 0 -->
      <g transform="translate(138.983202 267.237918) scale(0.1 -0.1)">
       <defs>
        <path id="DejaVuSans-30" d="M 2034 4250 
Q 1547 4250 1301 3770 
Q 1056 3291 1056 2328 
Q 1056 1369 1301 889 
Q 1547 409 2034 409 
Q 2525 409 2770 889 
Q 3016 1369 3016 2328 
Q 3016 3291 2770 3770 
Q 2525 4250 2034 4250 
z
M 2034 4750 
Q 2819 4750 3233 4129 
Q 3647 3509 3647 2328 
Q 3647 1150 3233 529 
Q 2819 -91 2034 -91 
Q 1250 -91 836 529 
Q 422 1150 422 2328 
Q 422 3509 836 4129 
Q 1250 4750 2034 4750 
z
" transform="scale(0.015625)"/>
       </defs>
       <use xlink:href="#DejaVuSans-30"/>
      </g>
     </g>
    </g>
    <g id="xtick_4">
     <g id="line2d_4">
      <g>
       <use xlink:href="#m98db9e54ab" x="196.381678" y="252.639481" style="stroke: #000000; stroke-width: 0.8"/>
      </g>
     </g>
     <g id="text_4">
      <!-- 1 -->
      <g transform="translate(193.200428 267.237918) scale(0.1 -0.1)">
       <use xlink:href="#DejaVuSans-31"/>
      </g>
     </g>
    </g>
    <g id="xtick_5">
     <g id="line2d_5">
      <g>
       <use xlink:href="#m98db9e54ab" x="250.598903" y="252.639481" style="stroke: #000000; stroke-width: 0.8"/>
      </g>
     </g>
     <g id="text_5">
      <!-- 2 -->
      <g transform="translate(247.417653 267.237918) scale(0.1 -0.1)">
       <use xlink:href="#DejaVuSans-32"/>
      </g>
     </g>
    </g>
    <g id="xtick_6">
     <g id="line2d_6">
      <g>
       <use xlink:href="#m98db9e54ab" x="304.816129" y="252.639481" style="stroke: #000000; stroke-width: 0.8"/>
      </g>
     </g>
     <g id="text_6">
      <!-- 3 -->
      <g transform="translate(301.634879 267.237918) scale(0.1 -0.1)">
       <defs>
        <path id="DejaVuSans-33" d="M 2597 2516 
Q 3050 2419 3304 2112 
Q 3559 1806 3559 1356 
Q 3559 666 3084 287 
Q 2609 -91 1734 -91 
Q 1441 -91 1130 -33 
Q 819 25 488 141 
L 488 750 
Q 750 597 1062 519 
Q 1375 441 1716 441 
Q 2309 441 2620 675 
Q 2931 909 2931 1356 
Q 2931 1769 2642 2001 
Q 2353 2234 1838 2234 
L 1294 2234 
L 1294 2753 
L 1863 2753 
Q 2328 2753 2575 2939 
Q 2822 3125 2822 3475 
Q 2822 3834 2567 4026 
Q 2313 4219 1838 4219 
Q 1578 4219 1281 4162 
Q 984 4106 628 3988 
L 628 4550 
Q 988 4650 1302 4700 
Q 1616 4750 1894 4750 
Q 2613 4750 3031 4423 
Q 3450 4097 3450 3541 
Q 3450 3153 3228 2886 
Q 3006 2619 2597 2516 
z
" transform="scale(0.015625)"/>
       </defs>
       <use xlink:href="#DejaVuSans-33"/>
      </g>
     </g>
    </g>
    <g id="xtick_7">
     <g id="line2d_7">
      <g>
       <use xlink:href="#m98db9e54ab" x="359.033355" y="252.639481" style="stroke: #000000; stroke-width: 0.8"/>
      </g>
     </g>
     <g id="text_7">
      <!-- 4 -->
      <g transform="translate(355.852105 267.237918) scale(0.1 -0.1)">
       <defs>
        <path id="DejaVuSans-34" d="M 2419 4116 
L 825 1625 
L 2419 1625 
L 2419 4116 
z
M 2253 4666 
L 3047 4666 
L 3047 1625 
L 3713 1625 
L 3713 1100 
L 3047 1100 
L 3047 0 
L 2419 0 
L 2419 1100 
L 313 1100 
L 313 1709 
L 2253 4666 
z
" transform="scale(0.015625)"/>
       </defs>
       <use xlink:href="#DejaVuSans-34"/>
      </g>
     </g>
    </g>
   </g>
   <g id="matplotlib.axis_2">
    <g id="ytick_1">
     <g id="line2d_8">
      <defs>
       <path id="m14e8a2ad8e" d="M 0 0 
L -3.5 0 
" style="stroke: #000000; stroke-width: 0.8"/>
      </defs>
      <g>
       <use xlink:href="#m14e8a2ad8e" x="33.73" y="242.312231" style="stroke: #000000; stroke-width: 0.8"/>
      </g>
     </g>
     <g id="text_8">
      <!-- 0.0 -->
      <g transform="translate(10.826875 246.11145) scale(0.1 -0.1)">
       <defs>
        <path id="DejaVuSans-2e" d="M 684 794 
L 1344 794 
L 1344 0 
L 684 0 
L 684 794 
z
" transform="scale(0.015625)"/>
       </defs>
       <use xlink:href="#DejaVuSans-30"/>
       <use xlink:href="#DejaVuSans-2e" transform="translate(63.623047 0)"/>
       <use xlink:href="#DejaVuSans-30" transform="translate(95.410156 0)"/>
      </g>
     </g>
    </g>
    <g id="ytick_2">
     <g id="line2d_9">
      <g>
       <use xlink:href="#m14e8a2ad8e" x="33.73" y="196.892774" style="stroke: #000000; stroke-width: 0.8"/>
      </g>
     </g>
     <g id="text_9">
      <!-- 0.2 -->
      <g transform="translate(10.826875 200.691993) scale(0.1 -0.1)">
       <use xlink:href="#DejaVuSans-30"/>
       <use xlink:href="#DejaVuSans-2e" transform="translate(63.623047 0)"/>
       <use xlink:href="#DejaVuSans-32" transform="translate(95.410156 0)"/>
      </g>
     </g>
    </g>
    <g id="ytick_3">
     <g id="line2d_10">
      <g>
       <use xlink:href="#m14e8a2ad8e" x="33.73" y="151.473317" style="stroke: #000000; stroke-width: 0.8"/>
      </g>
     </g>
     <g id="text_10">
      <!-- 0.4 -->
      <g transform="translate(10.826875 155.272536) scale(0.1 -0.1)">
       <use xlink:href="#DejaVuSans-30"/>
       <use xlink:href="#DejaVuSans-2e" transform="translate(63.623047 0)"/>
       <use xlink:href="#DejaVuSans-34" transform="translate(95.410156 0)"/>
      </g>
     </g>
    </g>
    <g id="ytick_4">
     <g id="line2d_11">
      <g>
       <use xlink:href="#m14e8a2ad8e" x="33.73" y="106.05386" style="stroke: #000000; stroke-width: 0.8"/>
      </g>
     </g>
     <g id="text_11">
      <!-- 0.6 -->
      <g transform="translate(10.826875 109.853079) scale(0.1 -0.1)">
       <defs>
        <path id="DejaVuSans-36" d="M 2113 2584 
Q 1688 2584 1439 2293 
Q 1191 2003 1191 1497 
Q 1191 994 1439 701 
Q 1688 409 2113 409 
Q 2538 409 2786 701 
Q 3034 994 3034 1497 
Q 3034 2003 2786 2293 
Q 2538 2584 2113 2584 
z
M 3366 4563 
L 3366 3988 
Q 3128 4100 2886 4159 
Q 2644 4219 2406 4219 
Q 1781 4219 1451 3797 
Q 1122 3375 1075 2522 
Q 1259 2794 1537 2939 
Q 1816 3084 2150 3084 
Q 2853 3084 3261 2657 
Q 3669 2231 3669 1497 
Q 3669 778 3244 343 
Q 2819 -91 2113 -91 
Q 1303 -91 875 529 
Q 447 1150 447 2328 
Q 447 3434 972 4092 
Q 1497 4750 2381 4750 
Q 2619 4750 2861 4703 
Q 3103 4656 3366 4563 
z
" transform="scale(0.015625)"/>
       </defs>
       <use xlink:href="#DejaVuSans-30"/>
       <use xlink:href="#DejaVuSans-2e" transform="translate(63.623047 0)"/>
       <use xlink:href="#DejaVuSans-36" transform="translate(95.410156 0)"/>
      </g>
     </g>
    </g>
    <g id="ytick_5">
     <g id="line2d_12">
      <g>
       <use xlink:href="#m14e8a2ad8e" x="33.73" y="60.634403" style="stroke: #000000; stroke-width: 0.8"/>
      </g>
     </g>
     <g id="text_12">
      <!-- 0.8 -->
      <g transform="translate(10.826875 64.433621) scale(0.1 -0.1)">
       <defs>
        <path id="DejaVuSans-38" d="M 2034 2216 
Q 1584 2216 1326 1975 
Q 1069 1734 1069 1313 
Q 1069 891 1326 650 
Q 1584 409 2034 409 
Q 2484 409 2743 651 
Q 3003 894 3003 1313 
Q 3003 1734 2745 1975 
Q 2488 2216 2034 2216 
z
M 1403 2484 
Q 997 2584 770 2862 
Q 544 3141 544 3541 
Q 544 4100 942 4425 
Q 1341 4750 2034 4750 
Q 2731 4750 3128 4425 
Q 3525 4100 3525 3541 
Q 3525 3141 3298 2862 
Q 3072 2584 2669 2484 
Q 3125 2378 3379 2068 
Q 3634 1759 3634 1313 
Q 3634 634 3220 271 
Q 2806 -91 2034 -91 
Q 1263 -91 848 271 
Q 434 634 434 1313 
Q 434 1759 690 2068 
Q 947 2378 1403 2484 
z
M 1172 3481 
Q 1172 3119 1398 2916 
Q 1625 2713 2034 2713 
Q 2441 2713 2670 2916 
Q 2900 3119 2900 3481 
Q 2900 3844 2670 4047 
Q 2441 4250 2034 4250 
Q 1625 4250 1398 4047 
Q 1172 3844 1172 3481 
z
" transform="scale(0.015625)"/>
       </defs>
       <use xlink:href="#DejaVuSans-30"/>
       <use xlink:href="#DejaVuSans-2e" transform="translate(63.623047 0)"/>
       <use xlink:href="#DejaVuSans-38" transform="translate(95.410156 0)"/>
      </g>
     </g>
    </g>
   </g>
   <g id="line2d_13">
    <path d="M -1 35.767249 
L 4.181612 35.767249 
L 17.302181 35.767249 
L 30.422749 35.767249 
L 43.597535 35.767249 
L 56.718104 35.767249 
L 69.89289 35.767249 
L 83.013458 35.767249 
L 96.161136 39.082865 
L 109.303391 46.781468 
L 122.451068 55.910778 
L 135.593324 66.425381 
L 148.735579 78.302577 
L 161.877835 91.383372 
L 175.025512 105.508825 
L 188.167768 120.315575 
L 201.315445 135.349413 
L 214.436014 149.5657 
L 227.6108 162.919023 
L 240.731368 174.818919 
L 253.906154 184.992874 
L 267.026723 193.418187 
L 280.147292 200.549041 
L 293.322077 206.453569 
L 306.442646 211.154484 
L 319.617432 215.083266 
L 332.738001 218.444307 
L 345.912786 221.29892 
L 359.033355 223.844679 
L 372.153924 225.986208 
L 385.32871 228.068689 
L 398.449278 229.792358 
L 411.624064 231.329806 
L 424.744633 232.740081 
L 437.919419 233.916445 
L 451.039987 234.890692 
L 464.160556 235.758204 
L 477.335342 236.516709 
L 490.455911 237.225252 
L 503.630697 237.765744 
L 516.751265 238.347113 
L 529.926051 238.780869 
L 543.04662 239.169205 
L 556.167188 239.571167 
L 569.341974 239.898187 
L 582.462543 240.129372 
L 595.637329 240.413925 
L 608.757897 240.704383 
L 621.878466 240.860626 
L 635.053252 241.03163 
L 648.173821 241.212853 
L 661.348607 241.319362 
L 674.469175 241.415197 
L 687.589744 241.529654 
L 700.601878 241.567125 
L 714.156185 241.667729 
L 727.168319 241.736994 
L 740.180453 241.780142 
L 744.225806 241.799064 
" clip-path="url(#p3ca8c72599)" style="fill: none; stroke: #000000; stroke-width: 1.5; stroke-linecap: square"/>
   </g>
   <g id="line2d_14">
    <path d="M -1 37.629445 
L 4.181612 37.629445 
L 17.302181 37.629445 
L 30.422749 37.629445 
L 43.597535 37.629445 
L 56.718104 37.629445 
L 69.89289 37.629445 
L 83.013458 37.629445 
L 96.161136 41.55823 
L 109.303391 51.096315 
L 122.451068 62.837244 
L 135.593324 76.553922 
L 148.735579 91.882987 
L 161.877835 108.438379 
L 175.025512 125.584227 
L 188.167768 142.730074 
L 201.315445 159.489854 
L 214.436014 174.773499 
L 227.6108 188.240366 
L 240.731368 199.935878 
L 253.906154 209.383126 
L 267.026723 216.900045 
L 280.147292 222.949918 
L 293.322077 227.53274 
L 306.442646 231.145858 
L 319.617432 233.832419 
L 332.738001 236.069327 
L 345.912786 237.574982 
L 359.033355 238.842185 
L 372.153924 239.748303 
L 385.32871 240.547913 
L 398.449278 241.036626 
L 411.624064 241.425189 
L 424.744633 241.68408 
L 437.919419 241.855539 
L 451.039987 241.952963 
L 464.160556 242.043348 
L 477.335342 242.122037 
L 490.455911 242.164845 
L 503.630697 242.199092 
L 516.751265 242.237857 
L 529.926051 242.249757 
L 543.04662 242.279439 
L 556.167188 242.277826 
L 569.341974 242.28523 
L 582.462543 242.284003 
L 595.637329 242.292608 
L 608.757897 242.301996 
L 621.878466 242.301553 
L 635.053252 242.301088 
L 648.173821 242.312231 
L 661.348607 242.312231 
L 674.469175 242.312231 
L 687.589744 242.312231 
L 700.601878 242.312231 
L 714.156185 242.312231 
L 727.168319 242.312231 
L 740.180453 242.312231 
L 744.225806 242.312231 
" clip-path="url(#p3ca8c72599)" style="fill: none; stroke: #00ffff; stroke-width: 1.5; stroke-linecap: square"/>
   </g>
   <g id="line2d_15">
    <path d="M -1 52.913097 
L 4.181612 52.913097 
L 17.302181 52.913097 
L 30.422749 52.913097 
L 43.597535 52.913097 
L 56.718104 52.913097 
L 69.89289 52.913097 
L 83.013458 52.913097 
L 96.166557 57.682133 
L 109.308813 68.128609 
L 122.451068 79.483476 
L 135.593324 91.746734 
L 148.735579 104.46418 
L 161.883257 117.862924 
L 175.025512 131.26166 
L 188.167768 144.660397 
L 201.315445 157.832039 
L 214.436014 169.641102 
L 227.6108 180.768867 
L 240.731368 190.306952 
L 253.906154 198.482454 
L 267.026723 205.522471 
L 280.147292 211.199904 
L 293.322077 216.196043 
L 306.442646 220.102116 
L 319.617432 223.25877 
L 332.738001 225.847679 
L 345.912786 228.027812 
L 359.033355 230.048978 
L 372.153924 231.57053 
L 385.32871 233.160211 
L 398.449278 234.295697 
L 411.624064 235.453893 
L 424.744633 236.54396 
L 437.919419 237.338801 
L 451.039987 237.974673 
L 464.160556 238.496997 
L 477.335342 238.996611 
L 490.455911 239.359967 
L 503.630697 239.700613 
L 516.751265 239.95042 
L 529.926051 240.20704 
L 543.04662 240.402343 
L 556.167188 240.693028 
L 569.341974 240.836099 
L 582.462543 240.995067 
L 595.637329 241.172203 
L 608.757897 241.401571 
L 621.932683 241.49241 
L 635.053252 241.592333 
L 648.173821 241.665004 
L 661.348607 241.735404 
L 674.469175 241.769469 
L 687.589744 241.837598 
L 700.601878 241.848953 
L 714.156185 241.917082 
L 727.168319 241.967044 
L 740.180453 241.969315 
L 744.225806 241.974257 
" clip-path="url(#p3ca8c72599)" style="fill: none; stroke-dasharray: 5.55,2.4; stroke-dashoffset: 0; stroke: #000000; stroke-width: 1.5"/>
   </g>
   <g id="line2d_16">
    <path d="M -1 84.479619 
L 4.181612 84.479619 
L 17.302181 84.479619 
L 30.422749 84.479619 
L 43.597535 84.479619 
L 56.718104 84.479619 
L 69.89289 84.479619 
L 83.013458 84.479619 
L 96.166557 93.563516 
L 109.308813 111.731295 
L 122.451068 129.899074 
L 135.593324 146.704273 
L 148.735579 162.146893 
L 161.883257 175.318535 
L 175.025512 186.446297 
L 188.167768 195.757288 
L 201.315445 203.478595 
L 214.436014 209.610224 
L 227.6108 214.606362 
L 240.731368 218.921211 
L 253.906154 222.214121 
L 267.026723 224.939289 
L 280.147292 227.27839 
L 293.322077 229.231428 
L 306.442646 230.843818 
L 319.617432 232.138273 
L 332.738001 233.319179 
L 345.912786 234.454665 
L 359.033355 235.363054 
L 372.153924 236.067056 
L 385.32871 236.861896 
L 398.449278 237.40693 
L 411.624064 237.974673 
L 424.744633 238.633255 
L 437.919419 239.132869 
L 451.039987 239.541645 
L 464.160556 239.92771 
L 477.335342 240.20704 
L 490.455911 240.584021 
L 503.630697 240.747531 
L 516.751265 241.026861 
L 529.926051 241.240332 
L 543.04662 241.424281 
L 556.167188 241.590062 
L 569.341974 241.687714 
L 582.462543 241.787637 
L 595.637329 241.88983 
L 608.757897 241.964773 
L 621.932683 242.010192 
L 635.053252 242.037444 
L 648.173821 242.107844 
L 661.348607 242.143044 
L 674.469175 242.136231 
L 687.589744 242.208221 
L 700.601878 242.203679 
L 714.156185 242.199137 
L 727.168319 242.24819 
L 740.180453 242.245919 
L 744.225806 242.257357 
" clip-path="url(#p3ca8c72599)" style="fill: none; stroke-dasharray: 1.5,2.475; stroke-dashoffset: 0; stroke: #000000; stroke-width: 1.5"/>
   </g>
   <g id="line2d_17">
    <path d="M -1 111.958389 
L 4.181612 111.958389 
L 17.302181 111.958389 
L 30.422749 111.958389 
L 43.597535 111.958389 
L 56.718104 111.958389 
L 69.89289 111.958389 
L 83.013458 111.958389 
L 96.166557 121.723568 
L 109.308813 141.02684 
L 122.451068 158.74043 
L 135.593324 174.183043 
L 148.735579 187.581786 
L 161.883257 198.482454 
L 175.025512 207.33925 
L 188.167768 214.379264 
L 201.315445 220.215665 
L 214.436014 224.666773 
L 227.6108 228.027812 
L 240.731368 230.752979 
L 253.906154 232.910404 
L 267.026723 234.590923 
L 280.147292 235.976217 
L 293.322077 237.066284 
L 306.442646 237.997383 
L 319.617432 238.678675 
L 332.738001 239.359967 
L 345.912786 239.88229 
L 359.033355 240.252459 
L 372.153924 240.618086 
L 385.32871 240.863351 
L 398.449278 241.058654 
L 411.624064 241.228977 
L 424.744633 241.360694 
L 437.919419 241.419739 
L 451.039987 241.433365 
L 464.160556 241.481055 
L 477.335342 241.53783 
L 490.455911 241.617314 
L 503.630697 241.651378 
L 516.751265 241.728591 
L 529.926051 241.844411 
L 543.04662 241.937521 
L 556.167188 242.041986 
L 569.341974 242.121243 
L 582.462543 242.124649 
L 595.637329 242.148721 
L 608.757897 242.202089 
L 621.932683 242.195958 
L 635.053252 242.230249 
L 648.173821 242.268856 
L 661.348607 242.312231 
L 674.469175 242.312231 
L 687.589744 242.312231 
L 700.601878 242.312231 
L 714.156185 242.312231 
L 727.168319 242.312231 
L 740.180453 242.312231 
L 744.225806 242.312231 
" clip-path="url(#p3ca8c72599)" style="fill: none; stroke-dasharray: 1.5,2.475; stroke-dashoffset: 0; stroke: #808080; stroke-width: 1.5"/>
   </g>
   <g id="patch_3">
    <path d="M 33.73 252.639481 
L 33.73 25.44 
" style="fill: none; stroke: #000000; stroke-width: 0.8; stroke-linejoin: miter; stroke-linecap: square"/>
   </g>
   <g id="patch_4">
    <path d="M 359.033355 252.639481 
L 359.033355 25.44 
" style="fill: none; stroke: #000000; stroke-width: 0.8; stroke-linejoin: miter; stroke-linecap: square"/>
   </g>
   <g id="patch_5">
    <path d="M 33.73 252.639481 
L 359.033355 252.639481 
" style="fill: none; stroke: #000000; stroke-width: 0.8; stroke-linejoin: miter; stroke-linecap: square"/>
   </g>
   <g id="patch_6">
    <path d="M 33.73 25.44 
L 359.033355 25.44 
" style="fill: none; stroke: #000000; stroke-width: 0.8; stroke-linejoin: miter; stroke-linecap: square"/>
   </g>
   <g id="text_13">
    <!-- C(F|score) Foldseek E-value -->
    <g transform="translate(113.552615 19.44) scale(0.12 -0.12)">
     <defs>
      <path id="DejaVuSans-43" d="M 4122 4306 
L 4122 3641 
Q 3803 3938 3442 4084 
Q 3081 4231 2675 4231 
Q 1875 4231 1450 3742 
Q 1025 3253 1025 2328 
Q 1025 1406 1450 917 
Q 1875 428 2675 428 
Q 3081 428 3442 575 
Q 3803 722 4122 1019 
L 4122 359 
Q 3791 134 3420 21 
Q 3050 -91 2638 -91 
Q 1578 -91 968 557 
Q 359 1206 359 2328 
Q 359 3453 968 4101 
Q 1578 4750 2638 4750 
Q 3056 4750 3426 4639 
Q 3797 4528 4122 4306 
z
" transform="scale(0.015625)"/>
      <path id="DejaVuSans-28" d="M 1984 4856 
Q 1566 4138 1362 3434 
Q 1159 2731 1159 2009 
Q 1159 1288 1364 580 
Q 1569 -128 1984 -844 
L 1484 -844 
Q 1016 -109 783 600 
Q 550 1309 550 2009 
Q 550 2706 781 3412 
Q 1013 4119 1484 4856 
L 1984 4856 
z
" transform="scale(0.015625)"/>
      <path id="DejaVuSans-46" d="M 628 4666 
L 3309 4666 
L 3309 4134 
L 1259 4134 
L 1259 2759 
L 3109 2759 
L 3109 2228 
L 1259 2228 
L 1259 0 
L 628 0 
L 628 4666 
z
" transform="scale(0.015625)"/>
      <path id="DejaVuSans-7c" d="M 1344 4891 
L 1344 -1509 
L 813 -1509 
L 813 4891 
L 1344 4891 
z
" transform="scale(0.015625)"/>
      <path id="DejaVuSans-73" d="M 2834 3397 
L 2834 2853 
Q 2591 2978 2328 3040 
Q 2066 3103 1784 3103 
Q 1356 3103 1142 2972 
Q 928 2841 928 2578 
Q 928 2378 1081 2264 
Q 1234 2150 1697 2047 
L 1894 2003 
Q 2506 1872 2764 1633 
Q 3022 1394 3022 966 
Q 3022 478 2636 193 
Q 2250 -91 1575 -91 
Q 1294 -91 989 -36 
Q 684 19 347 128 
L 347 722 
Q 666 556 975 473 
Q 1284 391 1588 391 
Q 1994 391 2212 530 
Q 2431 669 2431 922 
Q 2431 1156 2273 1281 
Q 2116 1406 1581 1522 
L 1381 1569 
Q 847 1681 609 1914 
Q 372 2147 372 2553 
Q 372 3047 722 3315 
Q 1072 3584 1716 3584 
Q 2034 3584 2315 3537 
Q 2597 3491 2834 3397 
z
" transform="scale(0.015625)"/>
      <path id="DejaVuSans-63" d="M 3122 3366 
L 3122 2828 
Q 2878 2963 2633 3030 
Q 2388 3097 2138 3097 
Q 1578 3097 1268 2742 
Q 959 2388 959 1747 
Q 959 1106 1268 751 
Q 1578 397 2138 397 
Q 2388 397 2633 464 
Q 2878 531 3122 666 
L 3122 134 
Q 2881 22 2623 -34 
Q 2366 -91 2075 -91 
Q 1284 -91 818 406 
Q 353 903 353 1747 
Q 353 2603 823 3093 
Q 1294 3584 2113 3584 
Q 2378 3584 2631 3529 
Q 2884 3475 3122 3366 
z
" transform="scale(0.015625)"/>
      <path id="DejaVuSans-6f" d="M 1959 3097 
Q 1497 3097 1228 2736 
Q 959 2375 959 1747 
Q 959 1119 1226 758 
Q 1494 397 1959 397 
Q 2419 397 2687 759 
Q 2956 1122 2956 1747 
Q 2956 2369 2687 2733 
Q 2419 3097 1959 3097 
z
M 1959 3584 
Q 2709 3584 3137 3096 
Q 3566 2609 3566 1747 
Q 3566 888 3137 398 
Q 2709 -91 1959 -91 
Q 1206 -91 779 398 
Q 353 888 353 1747 
Q 353 2609 779 3096 
Q 1206 3584 1959 3584 
z
" transform="scale(0.015625)"/>
      <path id="DejaVuSans-72" d="M 2631 2963 
Q 2534 3019 2420 3045 
Q 2306 3072 2169 3072 
Q 1681 3072 1420 2755 
Q 1159 2438 1159 1844 
L 1159 0 
L 581 0 
L 581 3500 
L 1159 3500 
L 1159 2956 
Q 1341 3275 1631 3429 
Q 1922 3584 2338 3584 
Q 2397 3584 2469 3576 
Q 2541 3569 2628 3553 
L 2631 2963 
z
" transform="scale(0.015625)"/>
      <path id="DejaVuSans-65" d="M 3597 1894 
L 3597 1613 
L 953 1613 
Q 991 1019 1311 708 
Q 1631 397 2203 397 
Q 2534 397 2845 478 
Q 3156 559 3463 722 
L 3463 178 
Q 3153 47 2828 -22 
Q 2503 -91 2169 -91 
Q 1331 -91 842 396 
Q 353 884 353 1716 
Q 353 2575 817 3079 
Q 1281 3584 2069 3584 
Q 2775 3584 3186 3129 
Q 3597 2675 3597 1894 
z
M 3022 2063 
Q 3016 2534 2758 2815 
Q 2500 3097 2075 3097 
Q 1594 3097 1305 2825 
Q 1016 2553 972 2059 
L 3022 2063 
z
" transform="scale(0.015625)"/>
      <path id="DejaVuSans-29" d="M 513 4856 
L 1013 4856 
Q 1481 4119 1714 3412 
Q 1947 2706 1947 2009 
Q 1947 1309 1714 600 
Q 1481 -109 1013 -844 
L 513 -844 
Q 928 -128 1133 580 
Q 1338 1288 1338 2009 
Q 1338 2731 1133 3434 
Q 928 4138 513 4856 
z
" transform="scale(0.015625)"/>
      <path id="DejaVuSans-20" transform="scale(0.015625)"/>
      <path id="DejaVuSans-6c" d="M 603 4863 
L 1178 4863 
L 1178 0 
L 603 0 
L 603 4863 
z
" transform="scale(0.015625)"/>
      <path id="DejaVuSans-64" d="M 2906 2969 
L 2906 4863 
L 3481 4863 
L 3481 0 
L 2906 0 
L 2906 525 
Q 2725 213 2448 61 
Q 2172 -91 1784 -91 
Q 1150 -91 751 415 
Q 353 922 353 1747 
Q 353 2572 751 3078 
Q 1150 3584 1784 3584 
Q 2172 3584 2448 3432 
Q 2725 3281 2906 2969 
z
M 947 1747 
Q 947 1113 1208 752 
Q 1469 391 1925 391 
Q 2381 391 2643 752 
Q 2906 1113 2906 1747 
Q 2906 2381 2643 2742 
Q 2381 3103 1925 3103 
Q 1469 3103 1208 2742 
Q 947 2381 947 1747 
z
" transform="scale(0.015625)"/>
      <path id="DejaVuSans-6b" d="M 581 4863 
L 1159 4863 
L 1159 1991 
L 2875 3500 
L 3609 3500 
L 1753 1863 
L 3688 0 
L 2938 0 
L 1159 1709 
L 1159 0 
L 581 0 
L 581 4863 
z
" transform="scale(0.015625)"/>
      <path id="DejaVuSans-45" d="M 628 4666 
L 3578 4666 
L 3578 4134 
L 1259 4134 
L 1259 2753 
L 3481 2753 
L 3481 2222 
L 1259 2222 
L 1259 531 
L 3634 531 
L 3634 0 
L 628 0 
L 628 4666 
z
" transform="scale(0.015625)"/>
      <path id="DejaVuSans-2d" d="M 313 2009 
L 1997 2009 
L 1997 1497 
L 313 1497 
L 313 2009 
z
" transform="scale(0.015625)"/>
      <path id="DejaVuSans-76" d="M 191 3500 
L 800 3500 
L 1894 563 
L 2988 3500 
L 3597 3500 
L 2284 0 
L 1503 0 
L 191 3500 
z
" transform="scale(0.015625)"/>
      <path id="DejaVuSans-61" d="M 2194 1759 
Q 1497 1759 1228 1600 
Q 959 1441 959 1056 
Q 959 750 1161 570 
Q 1363 391 1709 391 
Q 2188 391 2477 730 
Q 2766 1069 2766 1631 
L 2766 1759 
L 2194 1759 
z
M 3341 1997 
L 3341 0 
L 2766 0 
L 2766 531 
Q 2569 213 2275 61 
Q 1981 -91 1556 -91 
Q 1019 -91 701 211 
Q 384 513 384 1019 
Q 384 1609 779 1909 
Q 1175 2209 1959 2209 
L 2766 2209 
L 2766 2266 
Q 2766 2663 2505 2880 
Q 2244 3097 1772 3097 
Q 1472 3097 1187 3025 
Q 903 2953 641 2809 
L 641 3341 
Q 956 3463 1253 3523 
Q 1550 3584 1831 3584 
Q 2591 3584 2966 3190 
Q 3341 2797 3341 1997 
z
" transform="scale(0.015625)"/>
      <path id="DejaVuSans-75" d="M 544 1381 
L 544 3500 
L 1119 3500 
L 1119 1403 
Q 1119 906 1312 657 
Q 1506 409 1894 409 
Q 2359 409 2629 706 
Q 2900 1003 2900 1516 
L 2900 3500 
L 3475 3500 
L 3475 0 
L 2900 0 
L 2900 538 
Q 2691 219 2414 64 
Q 2138 -91 1772 -91 
Q 1169 -91 856 284 
Q 544 659 544 1381 
z
M 1991 3584 
L 1991 3584 
z
" transform="scale(0.015625)"/>
     </defs>
     <use xlink:href="#DejaVuSans-43"/>
     <use xlink:href="#DejaVuSans-28" transform="translate(69.824219 0)"/>
     <use xlink:href="#DejaVuSans-46" transform="translate(108.837891 0)"/>
     <use xlink:href="#DejaVuSans-7c" transform="translate(166.357422 0)"/>
     <use xlink:href="#DejaVuSans-73" transform="translate(200.048828 0)"/>
     <use xlink:href="#DejaVuSans-63" transform="translate(252.148438 0)"/>
     <use xlink:href="#DejaVuSans-6f" transform="translate(307.128906 0)"/>
     <use xlink:href="#DejaVuSans-72" transform="translate(368.310547 0)"/>
     <use xlink:href="#DejaVuSans-65" transform="translate(407.173828 0)"/>
     <use xlink:href="#DejaVuSans-29" transform="translate(468.697266 0)"/>
     <use xlink:href="#DejaVuSans-20" transform="translate(507.710938 0)"/>
     <use xlink:href="#DejaVuSans-46" transform="translate(539.498047 0)"/>
     <use xlink:href="#DejaVuSans-6f" transform="translate(593.392578 0)"/>
     <use xlink:href="#DejaVuSans-6c" transform="translate(654.574219 0)"/>
     <use xlink:href="#DejaVuSans-64" transform="translate(682.357422 0)"/>
     <use xlink:href="#DejaVuSans-73" transform="translate(745.833984 0)"/>
     <use xlink:href="#DejaVuSans-65" transform="translate(797.933594 0)"/>
     <use xlink:href="#DejaVuSans-65" transform="translate(859.457031 0)"/>
     <use xlink:href="#DejaVuSans-6b" transform="translate(920.980469 0)"/>
     <use xlink:href="#DejaVuSans-20" transform="translate(978.890625 0)"/>
     <use xlink:href="#DejaVuSans-45" transform="translate(1010.677734 0)"/>
     <use xlink:href="#DejaVuSans-2d" transform="translate(1073.861328 0)"/>
     <use xlink:href="#DejaVuSans-76" transform="translate(1107.320312 0)"/>
     <use xlink:href="#DejaVuSans-61" transform="translate(1166.5 0)"/>
     <use xlink:href="#DejaVuSans-6c" transform="translate(1227.779297 0)"/>
     <use xlink:href="#DejaVuSans-75" transform="translate(1255.5625 0)"/>
     <use xlink:href="#DejaVuSans-65" transform="translate(1318.941406 0)"/>
    </g>
   </g>
   <g id="legend_1">
    <g id="patch_7">
     <path d="M 258.244293 106.830625 
L 352.033355 106.830625 
Q 354.033355 106.830625 354.033355 104.830625 
L 354.033355 32.44 
Q 354.033355 30.44 352.033355 30.44 
L 258.244293 30.44 
Q 256.244293 30.44 256.244293 32.44 
L 256.244293 104.830625 
Q 256.244293 106.830625 258.244293 106.830625 
z
" style="fill: #ffffff; opacity: 0.8; stroke: #cccccc; stroke-linejoin: miter"/>
    </g>
    <g id="line2d_18">
     <path d="M 260.244293 38.538437 
L 270.244293 38.538437 
L 280.244293 38.538437 
" style="fill: none; stroke: #000000; stroke-width: 1.5; stroke-linecap: square"/>
    </g>
    <g id="text_14">
     <!-- SCOP40 -->
     <g transform="translate(288.244293 42.038437) scale(0.1 -0.1)">
      <defs>
       <path id="DejaVuSans-53" d="M 3425 4513 
L 3425 3897 
Q 3066 4069 2747 4153 
Q 2428 4238 2131 4238 
Q 1616 4238 1336 4038 
Q 1056 3838 1056 3469 
Q 1056 3159 1242 3001 
Q 1428 2844 1947 2747 
L 2328 2669 
Q 3034 2534 3370 2195 
Q 3706 1856 3706 1288 
Q 3706 609 3251 259 
Q 2797 -91 1919 -91 
Q 1588 -91 1214 -16 
Q 841 59 441 206 
L 441 856 
Q 825 641 1194 531 
Q 1563 422 1919 422 
Q 2459 422 2753 634 
Q 3047 847 3047 1241 
Q 3047 1584 2836 1778 
Q 2625 1972 2144 2069 
L 1759 2144 
Q 1053 2284 737 2584 
Q 422 2884 422 3419 
Q 422 4038 858 4394 
Q 1294 4750 2059 4750 
Q 2388 4750 2728 4690 
Q 3069 4631 3425 4513 
z
" transform="scale(0.015625)"/>
       <path id="DejaVuSans-4f" d="M 2522 4238 
Q 1834 4238 1429 3725 
Q 1025 3213 1025 2328 
Q 1025 1447 1429 934 
Q 1834 422 2522 422 
Q 3209 422 3611 934 
Q 4013 1447 4013 2328 
Q 4013 3213 3611 3725 
Q 3209 4238 2522 4238 
z
M 2522 4750 
Q 3503 4750 4090 4092 
Q 4678 3434 4678 2328 
Q 4678 1225 4090 567 
Q 3503 -91 2522 -91 
Q 1538 -91 948 565 
Q 359 1222 359 2328 
Q 359 3434 948 4092 
Q 1538 4750 2522 4750 
z
" transform="scale(0.015625)"/>
       <path id="DejaVuSans-50" d="M 1259 4147 
L 1259 2394 
L 2053 2394 
Q 2494 2394 2734 2622 
Q 2975 2850 2975 3272 
Q 2975 3691 2734 3919 
Q 2494 4147 2053 4147 
L 1259 4147 
z
M 628 4666 
L 2053 4666 
Q 2838 4666 3239 4311 
Q 3641 3956 3641 3272 
Q 3641 2581 3239 2228 
Q 2838 1875 2053 1875 
L 1259 1875 
L 1259 0 
L 628 0 
L 628 4666 
z
" transform="scale(0.015625)"/>
      </defs>
      <use xlink:href="#DejaVuSans-53"/>
      <use xlink:href="#DejaVuSans-43" transform="translate(63.476562 0)"/>
      <use xlink:href="#DejaVuSans-4f" transform="translate(133.300781 0)"/>
      <use xlink:href="#DejaVuSans-50" transform="translate(212.011719 0)"/>
      <use xlink:href="#DejaVuSans-34" transform="translate(272.314453 0)"/>
      <use xlink:href="#DejaVuSans-30" transform="translate(335.9375 0)"/>
     </g>
    </g>
    <g id="line2d_19">
     <path d="M 260.244293 53.216562 
L 270.244293 53.216562 
L 280.244293 53.216562 
" style="fill: none; stroke: #00ffff; stroke-width: 1.5; stroke-linecap: square"/>
    </g>
    <g id="text_15">
     <!-- SCOP40c -->
     <g transform="translate(288.244293 56.716562) scale(0.1 -0.1)">
      <use xlink:href="#DejaVuSans-53"/>
      <use xlink:href="#DejaVuSans-43" transform="translate(63.476562 0)"/>
      <use xlink:href="#DejaVuSans-4f" transform="translate(133.300781 0)"/>
      <use xlink:href="#DejaVuSans-50" transform="translate(212.011719 0)"/>
      <use xlink:href="#DejaVuSans-34" transform="translate(272.314453 0)"/>
      <use xlink:href="#DejaVuSans-30" transform="translate(335.9375 0)"/>
      <use xlink:href="#DejaVuSans-63" transform="translate(399.560547 0)"/>
     </g>
    </g>
    <g id="line2d_20">
     <path d="M 260.244293 67.894687 
L 270.244293 67.894687 
L 280.244293 67.894687 
" style="fill: none; stroke-dasharray: 5.55,2.4; stroke-dashoffset: 0; stroke: #000000; stroke-width: 1.5"/>
    </g>
    <g id="text_16">
     <!-- SCOP40/SF2 -->
     <g transform="translate(288.244293 71.394687) scale(0.1 -0.1)">
      <defs>
       <path id="DejaVuSans-2f" d="M 1625 4666 
L 2156 4666 
L 531 -594 
L 0 -594 
L 1625 4666 
z
" transform="scale(0.015625)"/>
      </defs>
      <use xlink:href="#DejaVuSans-53"/>
      <use xlink:href="#DejaVuSans-43" transform="translate(63.476562 0)"/>
      <use xlink:href="#DejaVuSans-4f" transform="translate(133.300781 0)"/>
      <use xlink:href="#DejaVuSans-50" transform="translate(212.011719 0)"/>
      <use xlink:href="#DejaVuSans-34" transform="translate(272.314453 0)"/>
      <use xlink:href="#DejaVuSans-30" transform="translate(335.9375 0)"/>
      <use xlink:href="#DejaVuSans-2f" transform="translate(399.560547 0)"/>
      <use xlink:href="#DejaVuSans-53" transform="translate(433.251953 0)"/>
      <use xlink:href="#DejaVuSans-46" transform="translate(496.728516 0)"/>
      <use xlink:href="#DejaVuSans-32" transform="translate(554.248047 0)"/>
     </g>
    </g>
    <g id="line2d_21">
     <path d="M 260.244293 82.572812 
L 270.244293 82.572812 
L 280.244293 82.572812 
" style="fill: none; stroke-dasharray: 1.5,2.475; stroke-dashoffset: 0; stroke: #000000; stroke-width: 1.5"/>
    </g>
    <g id="text_17">
     <!-- SCOP40/SF4 -->
     <g transform="translate(288.244293 86.072812) scale(0.1 -0.1)">
      <use xlink:href="#DejaVuSans-53"/>
      <use xlink:href="#DejaVuSans-43" transform="translate(63.476562 0)"/>
      <use xlink:href="#DejaVuSans-4f" transform="translate(133.300781 0)"/>
      <use xlink:href="#DejaVuSans-50" transform="translate(212.011719 0)"/>
      <use xlink:href="#DejaVuSans-34" transform="translate(272.314453 0)"/>
      <use xlink:href="#DejaVuSans-30" transform="translate(335.9375 0)"/>
      <use xlink:href="#DejaVuSans-2f" transform="translate(399.560547 0)"/>
      <use xlink:href="#DejaVuSans-53" transform="translate(433.251953 0)"/>
      <use xlink:href="#DejaVuSans-46" transform="translate(496.728516 0)"/>
      <use xlink:href="#DejaVuSans-34" transform="translate(554.248047 0)"/>
     </g>
    </g>
    <g id="line2d_22">
     <path d="M 260.244293 97.250937 
L 270.244293 97.250937 
L 280.244293 97.250937 
" style="fill: none; stroke-dasharray: 1.5,2.475; stroke-dashoffset: 0; stroke: #808080; stroke-width: 1.5"/>
    </g>
    <g id="text_18">
     <!-- SCOP40/SF8 -->
     <g transform="translate(288.244293 100.750937) scale(0.1 -0.1)">
      <use xlink:href="#DejaVuSans-53"/>
      <use xlink:href="#DejaVuSans-43" transform="translate(63.476562 0)"/>
      <use xlink:href="#DejaVuSans-4f" transform="translate(133.300781 0)"/>
      <use xlink:href="#DejaVuSans-50" transform="translate(212.011719 0)"/>
      <use xlink:href="#DejaVuSans-34" transform="translate(272.314453 0)"/>
      <use xlink:href="#DejaVuSans-30" transform="translate(335.9375 0)"/>
      <use xlink:href="#DejaVuSans-2f" transform="translate(399.560547 0)"/>
      <use xlink:href="#DejaVuSans-53" transform="translate(433.251953 0)"/>
      <use xlink:href="#DejaVuSans-46" transform="translate(496.728516 0)"/>
      <use xlink:href="#DejaVuSans-38" transform="translate(554.248047 0)"/>
     </g>
    </g>
   </g>
  </g>
  <g id="axes_2">
   <g id="patch_8">
    <path d="M 403.927451 252.639481 
L 729.230806 252.639481 
L 729.230806 25.44 
L 403.927451 25.44 
z
" style="fill: #ffffff"/>
   </g>
   <g id="matplotlib.axis_3">
    <g id="xtick_8">
     <g id="line2d_23">
      <g>
       <use xlink:href="#m98db9e54ab" x="403.927451" y="252.639481" style="stroke: #000000; stroke-width: 0.8"/>
      </g>
     </g>
     <g id="text_19">
      <!-- −2 -->
      <g transform="translate(396.556358 267.237918) scale(0.1 -0.1)">
       <use xlink:href="#DejaVuSans-2212"/>
       <use xlink:href="#DejaVuSans-32" transform="translate(83.789062 0)"/>
      </g>
     </g>
    </g>
    <g id="xtick_9">
     <g id="line2d_24">
      <g>
       <use xlink:href="#m98db9e54ab" x="458.144677" y="252.639481" style="stroke: #000000; stroke-width: 0.8"/>
      </g>
     </g>
     <g id="text_20">
      <!-- −1 -->
      <g transform="translate(450.773583 267.237918) scale(0.1 -0.1)">
       <use xlink:href="#DejaVuSans-2212"/>
       <use xlink:href="#DejaVuSans-31" transform="translate(83.789062 0)"/>
      </g>
     </g>
    </g>
    <g id="xtick_10">
     <g id="line2d_25">
      <g>
       <use xlink:href="#m98db9e54ab" x="512.361903" y="252.639481" style="stroke: #000000; stroke-width: 0.8"/>
      </g>
     </g>
     <g id="text_21">
      <!-- 0 -->
      <g transform="translate(509.180653 267.237918) scale(0.1 -0.1)">
       <use xlink:href="#DejaVuSans-30"/>
      </g>
     </g>
    </g>
    <g id="xtick_11">
     <g id="line2d_26">
      <g>
       <use xlink:href="#m98db9e54ab" x="566.579129" y="252.639481" style="stroke: #000000; stroke-width: 0.8"/>
      </g>
     </g>
     <g id="text_22">
      <!-- 1 -->
      <g transform="translate(563.397879 267.237918) scale(0.1 -0.1)">
       <use xlink:href="#DejaVuSans-31"/>
      </g>
     </g>
    </g>
    <g id="xtick_12">
     <g id="line2d_27">
      <g>
       <use xlink:href="#m98db9e54ab" x="620.796355" y="252.639481" style="stroke: #000000; stroke-width: 0.8"/>
      </g>
     </g>
     <g id="text_23">
      <!-- 2 -->
      <g transform="translate(617.615105 267.237918) scale(0.1 -0.1)">
       <use xlink:href="#DejaVuSans-32"/>
      </g>
     </g>
    </g>
    <g id="xtick_13">
     <g id="line2d_28">
      <g>
       <use xlink:href="#m98db9e54ab" x="675.013581" y="252.639481" style="stroke: #000000; stroke-width: 0.8"/>
      </g>
     </g>
     <g id="text_24">
      <!-- 3 -->
      <g transform="translate(671.832331 267.237918) scale(0.1 -0.1)">
       <use xlink:href="#DejaVuSans-33"/>
      </g>
     </g>
    </g>
    <g id="xtick_14">
     <g id="line2d_29">
      <g>
       <use xlink:href="#m98db9e54ab" x="729.230806" y="252.639481" style="stroke: #000000; stroke-width: 0.8"/>
      </g>
     </g>
     <g id="text_25">
      <!-- 4 -->
      <g transform="translate(726.049556 267.237918) scale(0.1 -0.1)">
       <use xlink:href="#DejaVuSans-34"/>
      </g>
     </g>
    </g>
   </g>
   <g id="matplotlib.axis_4">
    <g id="ytick_6">
     <g id="line2d_30">
      <g>
       <use xlink:href="#m14e8a2ad8e" x="403.927451" y="252.639481" style="stroke: #000000; stroke-width: 0.8"/>
      </g>
     </g>
     <g id="text_26">
      <!-- $\mathdefault{10^{-2}}$ -->
      <g transform="translate(373.427451 256.438699) scale(0.1 -0.1)">
       <use xlink:href="#DejaVuSans-31" transform="translate(0 0.765625)"/>
       <use xlink:href="#DejaVuSans-30" transform="translate(63.623047 0.765625)"/>
       <use xlink:href="#DejaVuSans-2212" transform="translate(128.203125 39.046875) scale(0.7)"/>
       <use xlink:href="#DejaVuSans-32" transform="translate(186.855469 39.046875) scale(0.7)"/>
      </g>
     </g>
    </g>
    <g id="ytick_7">
     <g id="line2d_31">
      <g>
       <use xlink:href="#m14e8a2ad8e" x="403.927451" y="139.03974" style="stroke: #000000; stroke-width: 0.8"/>
      </g>
     </g>
     <g id="text_27">
      <!-- $\mathdefault{10^{-1}}$ -->
      <g transform="translate(373.427451 142.838959) scale(0.1 -0.1)">
       <use xlink:href="#DejaVuSans-31" transform="translate(0 0.684375)"/>
       <use xlink:href="#DejaVuSans-30" transform="translate(63.623047 0.684375)"/>
       <use xlink:href="#DejaVuSans-2212" transform="translate(128.203125 38.965625) scale(0.7)"/>
       <use xlink:href="#DejaVuSans-31" transform="translate(186.855469 38.965625) scale(0.7)"/>
      </g>
     </g>
    </g>
    <g id="ytick_8">
     <g id="line2d_32">
      <g>
       <use xlink:href="#m14e8a2ad8e" x="403.927451" y="25.44" style="stroke: #000000; stroke-width: 0.8"/>
      </g>
     </g>
     <g id="text_28">
      <!-- $\mathdefault{10^{0}}$ -->
      <g transform="translate(379.327451 29.239219) scale(0.1 -0.1)">
       <use xlink:href="#DejaVuSans-31" transform="translate(0 0.765625)"/>
       <use xlink:href="#DejaVuSans-30" transform="translate(63.623047 0.765625)"/>
       <use xlink:href="#DejaVuSans-30" transform="translate(128.203125 39.046875) scale(0.7)"/>
      </g>
     </g>
    </g>
    <g id="ytick_9">
     <g id="line2d_33">
      <defs>
       <path id="m77ed5ac2ac" d="M 0 0 
L -2 0 
" style="stroke: #000000; stroke-width: 0.6"/>
      </defs>
      <g>
       <use xlink:href="#m77ed5ac2ac" x="403.927451" y="218.442551" style="stroke: #000000; stroke-width: 0.6"/>
      </g>
     </g>
    </g>
    <g id="ytick_10">
     <g id="line2d_34">
      <g>
       <use xlink:href="#m77ed5ac2ac" x="403.927451" y="198.43863" style="stroke: #000000; stroke-width: 0.6"/>
      </g>
     </g>
    </g>
    <g id="ytick_11">
     <g id="line2d_35">
      <g>
       <use xlink:href="#m77ed5ac2ac" x="403.927451" y="184.245622" style="stroke: #000000; stroke-width: 0.6"/>
      </g>
     </g>
    </g>
    <g id="ytick_12">
     <g id="line2d_36">
      <g>
       <use xlink:href="#m77ed5ac2ac" x="403.927451" y="173.23667" style="stroke: #000000; stroke-width: 0.6"/>
      </g>
     </g>
    </g>
    <g id="ytick_13">
     <g id="line2d_37">
      <g>
       <use xlink:href="#m77ed5ac2ac" x="403.927451" y="164.241701" style="stroke: #000000; stroke-width: 0.6"/>
      </g>
     </g>
    </g>
    <g id="ytick_14">
     <g id="line2d_38">
      <g>
       <use xlink:href="#m77ed5ac2ac" x="403.927451" y="156.636563" style="stroke: #000000; stroke-width: 0.6"/>
      </g>
     </g>
    </g>
    <g id="ytick_15">
     <g id="line2d_39">
      <g>
       <use xlink:href="#m77ed5ac2ac" x="403.927451" y="150.048693" style="stroke: #000000; stroke-width: 0.6"/>
      </g>
     </g>
    </g>
    <g id="ytick_16">
     <g id="line2d_40">
      <g>
       <use xlink:href="#m77ed5ac2ac" x="403.927451" y="144.237779" style="stroke: #000000; stroke-width: 0.6"/>
      </g>
     </g>
    </g>
    <g id="ytick_17">
     <g id="line2d_41">
      <g>
       <use xlink:href="#m77ed5ac2ac" x="403.927451" y="104.842811" style="stroke: #000000; stroke-width: 0.6"/>
      </g>
     </g>
    </g>
    <g id="ytick_18">
     <g id="line2d_42">
      <g>
       <use xlink:href="#m77ed5ac2ac" x="403.927451" y="84.83889" style="stroke: #000000; stroke-width: 0.6"/>
      </g>
     </g>
    </g>
    <g id="ytick_19">
     <g id="line2d_43">
      <g>
       <use xlink:href="#m77ed5ac2ac" x="403.927451" y="70.645882" style="stroke: #000000; stroke-width: 0.6"/>
      </g>
     </g>
    </g>
    <g id="ytick_20">
     <g id="line2d_44">
      <g>
       <use xlink:href="#m77ed5ac2ac" x="403.927451" y="59.636929" style="stroke: #000000; stroke-width: 0.6"/>
      </g>
     </g>
    </g>
    <g id="ytick_21">
     <g id="line2d_45">
      <g>
       <use xlink:href="#m77ed5ac2ac" x="403.927451" y="50.64196" style="stroke: #000000; stroke-width: 0.6"/>
      </g>
     </g>
    </g>
    <g id="ytick_22">
     <g id="line2d_46">
      <g>
       <use xlink:href="#m77ed5ac2ac" x="403.927451" y="43.036822" style="stroke: #000000; stroke-width: 0.6"/>
      </g>
     </g>
    </g>
    <g id="ytick_23">
     <g id="line2d_47">
      <g>
       <use xlink:href="#m77ed5ac2ac" x="403.927451" y="36.448952" style="stroke: #000000; stroke-width: 0.6"/>
      </g>
     </g>
    </g>
    <g id="ytick_24">
     <g id="line2d_48">
      <g>
       <use xlink:href="#m77ed5ac2ac" x="403.927451" y="30.638039" style="stroke: #000000; stroke-width: 0.6"/>
      </g>
     </g>
    </g>
   </g>
   <g id="line2d_49">
    <path d="M 295.493 30.120002 
L 308.613568 30.120002 
L 321.788354 30.120002 
L 334.908923 30.120002 
L 348.083709 30.120002 
L 361.204277 30.120002 
L 374.379063 30.120002 
L 387.499632 30.120002 
L 400.620201 30.120002 
L 413.794986 30.120002 
L 426.915555 30.120002 
L 440.090341 30.120002 
L 453.21091 30.120002 
L 466.358587 30.918402 
L 479.500842 32.823625 
L 492.64852 35.182615 
L 505.790775 38.047137 
L 518.933031 41.496475 
L 532.075286 45.597099 
L 545.222964 50.445011 
L 558.365219 56.096482 
L 571.512896 62.584741 
L 584.633465 69.62056 
L 597.808251 77.290169 
L 610.92882 85.30152 
L 624.103606 93.362492 
L 637.224174 101.206026 
L 650.344743 108.983325 
L 663.519529 116.50358 
L 676.640097 123.43635 
L 689.814883 130.0859 
L 702.935452 136.585678 
L 716.110238 142.870034 
L 729.230806 149.241294 
L 742.351375 155.322166 
L 744.225806 156.279983 
" clip-path="url(#p281a0ca5a0)" style="fill: none; stroke: #000000; stroke-width: 1.5; stroke-linecap: square"/>
   </g>
   <g id="line2d_50">
    <path d="M 295.493 30.566827 
L 308.613568 30.566827 
L 321.788354 30.566827 
L 334.908923 30.566827 
L 348.083709 30.566827 
L 361.204277 30.566827 
L 374.379063 30.566827 
L 387.499632 30.566827 
L 400.620201 30.566827 
L 413.794986 30.566827 
L 426.915555 30.566827 
L 440.090341 30.566827 
L 453.21091 30.566827 
L 466.358587 31.523009 
L 479.500842 33.924527 
L 492.64852 37.050804 
L 505.790775 40.973246 
L 518.933031 45.760684 
L 532.075286 51.512979 
L 545.222964 58.274515 
L 558.365219 66.112162 
L 571.512896 75.203985 
L 584.633465 85.26833 
L 597.808251 96.239969 
L 610.92882 108.264248 
L 624.103606 120.708379 
L 637.224174 133.492654 
L 650.344743 146.907055 
L 663.519529 160.232049 
L 676.640097 174.062518 
L 689.814883 187.640627 
L 702.935452 202.749345 
L 716.110238 216.36546 
L 729.230806 231.723116 
L 742.351375 246.653463 
L 744.225806 249.277071 
" clip-path="url(#p281a0ca5a0)" style="fill: none; stroke: #00ffff; stroke-width: 1.5; stroke-linecap: square"/>
   </g>
   <g id="line2d_51">
    <path d="M 295.493 34.395517 
L 308.613568 34.395517 
L 321.788354 34.395517 
L 334.908923 34.395517 
L 348.083709 34.395517 
L 361.204277 34.395517 
L 374.379063 34.395517 
L 387.499632 34.395517 
L 400.620201 34.395517 
L 413.794986 34.395517 
L 426.915555 34.395517 
L 440.090341 34.395517 
L 453.21091 34.395517 
L 466.364009 35.653689 
L 479.506264 38.527215 
L 492.64852 41.852986 
L 505.790775 45.716018 
L 518.933031 50.069709 
L 532.080708 55.114463 
L 545.222964 60.734434 
L 558.365219 67.077887 
L 571.512896 74.226209 
L 584.633465 81.654835 
L 597.808251 89.854542 
L 610.92882 98.162522 
L 624.103606 106.600503 
L 637.224174 115.238889 
L 650.344743 123.508321 
L 663.519529 132.14448 
L 676.640097 140.137243 
L 689.814883 147.700363 
L 702.935452 154.905308 
L 716.110238 161.912975 
L 729.230806 169.439738 
L 742.351375 175.97543 
L 744.225806 177.099617 
" clip-path="url(#p281a0ca5a0)" style="fill: none; stroke-dasharray: 5.55,2.4; stroke-dashoffset: 0; stroke: #000000; stroke-width: 1.5"/>
   </g>
   <g id="line2d_52">
    <path d="M 295.493 43.390486 
L 308.613568 43.390486 
L 321.788354 43.390486 
L 334.908923 43.390486 
L 348.083709 43.390486 
L 361.204277 43.390486 
L 374.379063 43.390486 
L 387.499632 43.390486 
L 400.620201 43.390486 
L 413.794986 43.390486 
L 426.915555 43.390486 
L 440.090341 43.390486 
L 453.21091 43.390486 
L 466.364009 46.314943 
L 479.506264 52.741671 
L 492.64852 60.13277 
L 505.790775 68.121456 
L 518.933031 76.812678 
L 532.080708 85.668083 
L 545.222964 94.629612 
L 558.365219 103.624583 
L 571.512896 112.571442 
L 584.633465 121.049804 
L 597.808251 129.229285 
L 610.92882 137.581435 
L 624.103606 145.066971 
L 637.224174 152.255772 
L 650.344743 159.390224 
L 663.519529 166.255685 
L 676.640097 172.745761 
L 689.814883 178.654469 
L 702.935452 184.741463 
L 716.110238 191.400575 
L 729.230806 197.461652 
L 742.351375 202.731401 
L 744.225806 203.68694 
" clip-path="url(#p281a0ca5a0)" style="fill: none; stroke-dasharray: 1.5,2.475; stroke-dashoffset: 0; stroke: #000000; stroke-width: 1.5"/>
   </g>
   <g id="line2d_53">
    <path d="M 295.493 52.827546 
L 308.613568 52.827546 
L 321.788354 52.827546 
L 334.908923 52.827546 
L 348.083709 52.827546 
L 361.204277 52.827546 
L 374.379063 52.827546 
L 387.499632 52.827546 
L 400.620201 52.827546 
L 413.794986 52.827546 
L 426.915555 52.827546 
L 440.090341 52.827546 
L 453.21091 52.827546 
L 466.364009 56.669189 
L 479.506264 65.275468 
L 492.64852 74.759575 
L 505.790775 84.838888 
L 518.933031 95.642704 
L 532.080708 106.600503 
L 545.222964 117.737435 
L 558.365219 128.826542 
L 571.512896 140.390118 
L 584.633465 151.487886 
L 597.808251 161.912975 
L 610.92882 172.356523 
L 624.103606 182.548401 
L 637.224174 192.263611 
L 650.344743 202.01896 
L 663.519529 211.333254 
L 676.640097 220.973145 
L 689.814883 229.451501 
L 702.935452 239.695544 
L 716.110238 249.301489 
L 729.230806 257.455283 
L 742.351375 267.096317 
L 744.225806 268.19403 
" clip-path="url(#p281a0ca5a0)" style="fill: none; stroke-dasharray: 1.5,2.475; stroke-dashoffset: 0; stroke: #808080; stroke-width: 1.5"/>
   </g>
   <g id="patch_9">
    <path d="M 403.927451 252.639481 
L 403.927451 25.44 
" style="fill: none; stroke: #000000; stroke-width: 0.8; stroke-linejoin: miter; stroke-linecap: square"/>
   </g>
   <g id="patch_10">
    <path d="M 729.230806 252.639481 
L 729.230806 25.44 
" style="fill: none; stroke: #000000; stroke-width: 0.8; stroke-linejoin: miter; stroke-linecap: square"/>
   </g>
   <g id="patch_11">
    <path d="M 403.927451 252.639481 
L 729.230806 252.639481 
" style="fill: none; stroke: #000000; stroke-width: 0.8; stroke-linejoin: miter; stroke-linecap: square"/>
   </g>
   <g id="patch_12">
    <path d="M 403.927451 25.44 
L 729.230806 25.44 
" style="fill: none; stroke: #000000; stroke-width: 0.8; stroke-linejoin: miter; stroke-linecap: square"/>
   </g>
   <g id="text_29">
    <!-- C(F|score) Foldseek E-value (logscale) -->
    <g transform="translate(452.553816 19.44) scale(0.12 -0.12)">
     <defs>
      <path id="DejaVuSans-67" d="M 2906 1791 
Q 2906 2416 2648 2759 
Q 2391 3103 1925 3103 
Q 1463 3103 1205 2759 
Q 947 2416 947 1791 
Q 947 1169 1205 825 
Q 1463 481 1925 481 
Q 2391 481 2648 825 
Q 2906 1169 2906 1791 
z
M 3481 434 
Q 3481 -459 3084 -895 
Q 2688 -1331 1869 -1331 
Q 1566 -1331 1297 -1286 
Q 1028 -1241 775 -1147 
L 775 -588 
Q 1028 -725 1275 -790 
Q 1522 -856 1778 -856 
Q 2344 -856 2625 -561 
Q 2906 -266 2906 331 
L 2906 616 
Q 2728 306 2450 153 
Q 2172 0 1784 0 
Q 1141 0 747 490 
Q 353 981 353 1791 
Q 353 2603 747 3093 
Q 1141 3584 1784 3584 
Q 2172 3584 2450 3431 
Q 2728 3278 2906 2969 
L 2906 3500 
L 3481 3500 
L 3481 434 
z
" transform="scale(0.015625)"/>
     </defs>
     <use xlink:href="#DejaVuSans-43"/>
     <use xlink:href="#DejaVuSans-28" transform="translate(69.824219 0)"/>
     <use xlink:href="#DejaVuSans-46" transform="translate(108.837891 0)"/>
     <use xlink:href="#DejaVuSans-7c" transform="translate(166.357422 0)"/>
     <use xlink:href="#DejaVuSans-73" transform="translate(200.048828 0)"/>
     <use xlink:href="#DejaVuSans-63" transform="translate(252.148438 0)"/>
     <use xlink:href="#DejaVuSans-6f" transform="translate(307.128906 0)"/>
     <use xlink:href="#DejaVuSans-72" transform="translate(368.310547 0)"/>
     <use xlink:href="#DejaVuSans-65" transform="translate(407.173828 0)"/>
     <use xlink:href="#DejaVuSans-29" transform="translate(468.697266 0)"/>
     <use xlink:href="#DejaVuSans-20" transform="translate(507.710938 0)"/>
     <use xlink:href="#DejaVuSans-46" transform="translate(539.498047 0)"/>
     <use xlink:href="#DejaVuSans-6f" transform="translate(593.392578 0)"/>
     <use xlink:href="#DejaVuSans-6c" transform="translate(654.574219 0)"/>
     <use xlink:href="#DejaVuSans-64" transform="translate(682.357422 0)"/>
     <use xlink:href="#DejaVuSans-73" transform="translate(745.833984 0)"/>
     <use xlink:href="#DejaVuSans-65" transform="translate(797.933594 0)"/>
     <use xlink:href="#DejaVuSans-65" transform="translate(859.457031 0)"/>
     <use xlink:href="#DejaVuSans-6b" transform="translate(920.980469 0)"/>
     <use xlink:href="#DejaVuSans-20" transform="translate(978.890625 0)"/>
     <use xlink:href="#DejaVuSans-45" transform="translate(1010.677734 0)"/>
     <use xlink:href="#DejaVuSans-2d" transform="translate(1073.861328 0)"/>
     <use xlink:href="#DejaVuSans-76" transform="translate(1107.320312 0)"/>
     <use xlink:href="#DejaVuSans-61" transform="translate(1166.5 0)"/>
     <use xlink:href="#DejaVuSans-6c" transform="translate(1227.779297 0)"/>
     <use xlink:href="#DejaVuSans-75" transform="translate(1255.5625 0)"/>
     <use xlink:href="#DejaVuSans-65" transform="translate(1318.941406 0)"/>
     <use xlink:href="#DejaVuSans-20" transform="translate(1380.464844 0)"/>
     <use xlink:href="#DejaVuSans-28" transform="translate(1412.251953 0)"/>
     <use xlink:href="#DejaVuSans-6c" transform="translate(1451.265625 0)"/>
     <use xlink:href="#DejaVuSans-6f" transform="translate(1479.048828 0)"/>
     <use xlink:href="#DejaVuSans-67" transform="translate(1540.230469 0)"/>
     <use xlink:href="#DejaVuSans-73" transform="translate(1603.707031 0)"/>
     <use xlink:href="#DejaVuSans-63" transform="translate(1655.806641 0)"/>
     <use xlink:href="#DejaVuSans-61" transform="translate(1710.787109 0)"/>
     <use xlink:href="#DejaVuSans-6c" transform="translate(1772.066406 0)"/>
     <use xlink:href="#DejaVuSans-65" transform="translate(1799.849609 0)"/>
     <use xlink:href="#DejaVuSans-29" transform="translate(1861.373047 0)"/>
    </g>
   </g>
   <g id="legend_2">
    <g id="patch_13">
     <path d="M 410.927451 247.639481 
L 504.716514 247.639481 
Q 506.716514 247.639481 506.716514 245.639481 
L 506.716514 173.248856 
Q 506.716514 171.248856 504.716514 171.248856 
L 410.927451 171.248856 
Q 408.927451 171.248856 408.927451 173.248856 
L 408.927451 245.639481 
Q 408.927451 247.639481 410.927451 247.639481 
z
" style="fill: #ffffff; opacity: 0.8; stroke: #cccccc; stroke-linejoin: miter"/>
    </g>
    <g id="line2d_54">
     <path d="M 412.927451 179.347293 
L 422.927451 179.347293 
L 432.927451 179.347293 
" style="fill: none; stroke: #000000; stroke-width: 1.5; stroke-linecap: square"/>
    </g>
    <g id="text_30">
     <!-- SCOP40 -->
     <g transform="translate(440.927451 182.847293) scale(0.1 -0.1)">
      <use xlink:href="#DejaVuSans-53"/>
      <use xlink:href="#DejaVuSans-43" transform="translate(63.476562 0)"/>
      <use xlink:href="#DejaVuSans-4f" transform="translate(133.300781 0)"/>
      <use xlink:href="#DejaVuSans-50" transform="translate(212.011719 0)"/>
      <use xlink:href="#DejaVuSans-34" transform="translate(272.314453 0)"/>
      <use xlink:href="#DejaVuSans-30" transform="translate(335.9375 0)"/>
     </g>
    </g>
    <g id="line2d_55">
     <path d="M 412.927451 194.025418 
L 422.927451 194.025418 
L 432.927451 194.025418 
" style="fill: none; stroke: #00ffff; stroke-width: 1.5; stroke-linecap: square"/>
    </g>
    <g id="text_31">
     <!-- SCOP40c -->
     <g transform="translate(440.927451 197.525418) scale(0.1 -0.1)">
      <use xlink:href="#DejaVuSans-53"/>
      <use xlink:href="#DejaVuSans-43" transform="translate(63.476562 0)"/>
      <use xlink:href="#DejaVuSans-4f" transform="translate(133.300781 0)"/>
      <use xlink:href="#DejaVuSans-50" transform="translate(212.011719 0)"/>
      <use xlink:href="#DejaVuSans-34" transform="translate(272.314453 0)"/>
      <use xlink:href="#DejaVuSans-30" transform="translate(335.9375 0)"/>
      <use xlink:href="#DejaVuSans-63" transform="translate(399.560547 0)"/>
     </g>
    </g>
    <g id="line2d_56">
     <path d="M 412.927451 208.703543 
L 422.927451 208.703543 
L 432.927451 208.703543 
" style="fill: none; stroke-dasharray: 5.55,2.4; stroke-dashoffset: 0; stroke: #000000; stroke-width: 1.5"/>
    </g>
    <g id="text_32">
     <!-- SCOP40/SF2 -->
     <g transform="translate(440.927451 212.203543) scale(0.1 -0.1)">
      <use xlink:href="#DejaVuSans-53"/>
      <use xlink:href="#DejaVuSans-43" transform="translate(63.476562 0)"/>
      <use xlink:href="#DejaVuSans-4f" transform="translate(133.300781 0)"/>
      <use xlink:href="#DejaVuSans-50" transform="translate(212.011719 0)"/>
      <use xlink:href="#DejaVuSans-34" transform="translate(272.314453 0)"/>
      <use xlink:href="#DejaVuSans-30" transform="translate(335.9375 0)"/>
      <use xlink:href="#DejaVuSans-2f" transform="translate(399.560547 0)"/>
      <use xlink:href="#DejaVuSans-53" transform="translate(433.251953 0)"/>
      <use xlink:href="#DejaVuSans-46" transform="translate(496.728516 0)"/>
      <use xlink:href="#DejaVuSans-32" transform="translate(554.248047 0)"/>
     </g>
    </g>
    <g id="line2d_57">
     <path d="M 412.927451 223.381668 
L 422.927451 223.381668 
L 432.927451 223.381668 
" style="fill: none; stroke-dasharray: 1.5,2.475; stroke-dashoffset: 0; stroke: #000000; stroke-width: 1.5"/>
    </g>
    <g id="text_33">
     <!-- SCOP40/SF4 -->
     <g transform="translate(440.927451 226.881668) scale(0.1 -0.1)">
      <use xlink:href="#DejaVuSans-53"/>
      <use xlink:href="#DejaVuSans-43" transform="translate(63.476562 0)"/>
      <use xlink:href="#DejaVuSans-4f" transform="translate(133.300781 0)"/>
      <use xlink:href="#DejaVuSans-50" transform="translate(212.011719 0)"/>
      <use xlink:href="#DejaVuSans-34" transform="translate(272.314453 0)"/>
      <use xlink:href="#DejaVuSans-30" transform="translate(335.9375 0)"/>
      <use xlink:href="#DejaVuSans-2f" transform="translate(399.560547 0)"/>
      <use xlink:href="#DejaVuSans-53" transform="translate(433.251953 0)"/>
      <use xlink:href="#DejaVuSans-46" transform="translate(496.728516 0)"/>
      <use xlink:href="#DejaVuSans-34" transform="translate(554.248047 0)"/>
     </g>
    </g>
    <g id="line2d_58">
     <path d="M 412.927451 238.059793 
L 422.927451 238.059793 
L 432.927451 238.059793 
" style="fill: none; stroke-dasharray: 1.5,2.475; stroke-dashoffset: 0; stroke: #808080; stroke-width: 1.5"/>
    </g>
    <g id="text_34">
     <!-- SCOP40/SF8 -->
     <g transform="translate(440.927451 241.559793) scale(0.1 -0.1)">
      <use xlink:href="#DejaVuSans-53"/>
      <use xlink:href="#DejaVuSans-43" transform="translate(63.476562 0)"/>
      <use xlink:href="#DejaVuSans-4f" transform="translate(133.300781 0)"/>
      <use xlink:href="#DejaVuSans-50" transform="translate(212.011719 0)"/>
      <use xlink:href="#DejaVuSans-34" transform="translate(272.314453 0)"/>
      <use xlink:href="#DejaVuSans-30" transform="translate(335.9375 0)"/>
      <use xlink:href="#DejaVuSans-2f" transform="translate(399.560547 0)"/>
      <use xlink:href="#DejaVuSans-53" transform="translate(433.251953 0)"/>
      <use xlink:href="#DejaVuSans-46" transform="translate(496.728516 0)"/>
      <use xlink:href="#DejaVuSans-38" transform="translate(554.248047 0)"/>
     </g>
    </g>
   </g>
  </g>
  <g id="text_35">
   <!-- ../plots/C_F_score.foldseek.svg -->
   <g transform="translate(279.828841 14.728515) scale(0.12 -0.12)">
    <defs>
     <path id="DejaVuSans-70" d="M 1159 525 
L 1159 -1331 
L 581 -1331 
L 581 3500 
L 1159 3500 
L 1159 2969 
Q 1341 3281 1617 3432 
Q 1894 3584 2278 3584 
Q 2916 3584 3314 3078 
Q 3713 2572 3713 1747 
Q 3713 922 3314 415 
Q 2916 -91 2278 -91 
Q 1894 -91 1617 61 
Q 1341 213 1159 525 
z
M 3116 1747 
Q 3116 2381 2855 2742 
Q 2594 3103 2138 3103 
Q 1681 3103 1420 2742 
Q 1159 2381 1159 1747 
Q 1159 1113 1420 752 
Q 1681 391 2138 391 
Q 2594 391 2855 752 
Q 3116 1113 3116 1747 
z
" transform="scale(0.015625)"/>
     <path id="DejaVuSans-74" d="M 1172 4494 
L 1172 3500 
L 2356 3500 
L 2356 3053 
L 1172 3053 
L 1172 1153 
Q 1172 725 1289 603 
Q 1406 481 1766 481 
L 2356 481 
L 2356 0 
L 1766 0 
Q 1100 0 847 248 
Q 594 497 594 1153 
L 594 3053 
L 172 3053 
L 172 3500 
L 594 3500 
L 594 4494 
L 1172 4494 
z
" transform="scale(0.015625)"/>
     <path id="DejaVuSans-5f" d="M 3263 -1063 
L 3263 -1509 
L -63 -1509 
L -63 -1063 
L 3263 -1063 
z
" transform="scale(0.015625)"/>
     <path id="DejaVuSans-66" d="M 2375 4863 
L 2375 4384 
L 1825 4384 
Q 1516 4384 1395 4259 
Q 1275 4134 1275 3809 
L 1275 3500 
L 2222 3500 
L 2222 3053 
L 1275 3053 
L 1275 0 
L 697 0 
L 697 3053 
L 147 3053 
L 147 3500 
L 697 3500 
L 697 3744 
Q 697 4328 969 4595 
Q 1241 4863 1831 4863 
L 2375 4863 
z
" transform="scale(0.015625)"/>
    </defs>
    <use xlink:href="#DejaVuSans-2e"/>
    <use xlink:href="#DejaVuSans-2e" transform="translate(31.787109 0)"/>
    <use xlink:href="#DejaVuSans-2f" transform="translate(63.574219 0)"/>
    <use xlink:href="#DejaVuSans-70" transform="translate(97.265625 0)"/>
    <use xlink:href="#DejaVuSans-6c" transform="translate(160.742188 0)"/>
    <use xlink:href="#DejaVuSans-6f" transform="translate(188.525391 0)"/>
    <use xlink:href="#DejaVuSans-74" transform="translate(249.707031 0)"/>
    <use xlink:href="#DejaVuSans-73" transform="translate(288.916016 0)"/>
    <use xlink:href="#DejaVuSans-2f" transform="translate(341.015625 0)"/>
    <use xlink:href="#DejaVuSans-43" transform="translate(374.707031 0)"/>
    <use xlink:href="#DejaVuSans-5f" transform="translate(444.53125 0)"/>
    <use xlink:href="#DejaVuSans-46" transform="translate(494.53125 0)"/>
    <use xlink:href="#DejaVuSans-5f" transform="translate(552.050781 0)"/>
    <use xlink:href="#DejaVuSans-73" transform="translate(602.050781 0)"/>
    <use xlink:href="#DejaVuSans-63" transform="translate(654.150391 0)"/>
    <use xlink:href="#DejaVuSans-6f" transform="translate(709.130859 0)"/>
    <use xlink:href="#DejaVuSans-72" transform="translate(770.3125 0)"/>
    <use xlink:href="#DejaVuSans-65" transform="translate(809.175781 0)"/>
    <use xlink:href="#DejaVuSans-2e" transform="translate(870.699219 0)"/>
    <use xlink:href="#DejaVuSans-66" transform="translate(902.486328 0)"/>
    <use xlink:href="#DejaVuSans-6f" transform="translate(937.691406 0)"/>
    <use xlink:href="#DejaVuSans-6c" transform="translate(998.873047 0)"/>
    <use xlink:href="#DejaVuSans-64" transform="translate(1026.65625 0)"/>
    <use xlink:href="#DejaVuSans-73" transform="translate(1090.132812 0)"/>
    <use xlink:href="#DejaVuSans-65" transform="translate(1142.232422 0)"/>
    <use xlink:href="#DejaVuSans-65" transform="translate(1203.755859 0)"/>
    <use xlink:href="#DejaVuSans-6b" transform="translate(1265.279297 0)"/>
    <use xlink:href="#DejaVuSans-2e" transform="translate(1323.189453 0)"/>
    <use xlink:href="#DejaVuSans-73" transform="translate(1354.976562 0)"/>
    <use xlink:href="#DejaVuSans-76" transform="translate(1407.076172 0)"/>
    <use xlink:href="#DejaVuSans-67" transform="translate(1466.255859 0)"/>
   </g>
  </g>
 </g>
 <defs>
  <clipPath id="p3ca8c72599">
   <rect x="33.73" y="25.44" width="325.303355" height="227.199481"/>
  </clipPath>
  <clipPath id="p281a0ca5a0">
   <rect x="403.927451" y="25.44" width="325.303355" height="227.199481"/>
  </clipPath>
 </defs>
</svg>
