<?xml version="1.0" encoding="utf-8" standalone="no"?>
<!DOCTYPE svg PUBLIC "-//W3C//DTD SVG 1.1//EN"
  "http://www.w3.org/Graphics/SVG/1.1/DTD/svg11.dtd">
<svg xmlns:xlink="http://www.w3.org/1999/xlink" width="743.225806pt" height="280.519481pt" viewBox="0 0 743.225806 280.519481" xmlns="http://www.w3.org/2000/svg" version="1.1">
 <metadata>
  <rdf:RDF xmlns:dc="http://purl.org/dc/elements/1.1/" xmlns:cc="http://creativecommons.org/ns#" xmlns:rdf="http://www.w3.org/1999/02/22-rdf-syntax-ns#">
   <cc:Work>
    <dc:type rdf:resource="http://purl.org/dc/dcmitype/StillImage"/>
    <dc:date>2025-05-29T12:14:22.549821</dc:date>
    <dc:format>image/svg+xml</dc:format>
    <dc:creator>
     <cc:Agent>
      <dc:title>Matplotlib v3.10.3, https://matplotlib.org/</dc:title>
     </cc:Agent>
    </dc:creator>
   </cc:Work>
  </rdf:RDF>
 </metadata>
 <defs>
  <style type="text/css">*{stroke-linejoin: round; stroke-linecap: butt}</style>
 </defs>
 <g id="figure_1">
  <g id="patch_1">
   <path d="M 0 280.519481 
L 743.225806 280.519481 
L 743.225806 0 
L 0 0 
z
" style="fill: #ffffff"/>
  </g>
  <g id="axes_1">
   <g id="patch_2">
    <path d="M 33.73 252.639481 
L 362.17773 252.639481 
L 362.17773 25.44 
L 33.73 25.44 
z
" style="fill: #ffffff"/>
   </g>
   <g id="matplotlib.axis_1">
    <g id="xtick_1">
     <g id="line2d_1">
      <defs>
       <path id="me3ed463815" d="M 0 0 
L 0 3.5 
" style="stroke: #000000; stroke-width: 0.8"/>
      </defs>
      <g>
       <use xlink:href="#me3ed463815" x="33.73" y="252.639481" style="stroke: #000000; stroke-width: 0.8"/>
      </g>
     </g>
     <g id="text_1">
      <!-- 0 -->
      <g transform="translate(30.54875 267.237918) scale(0.1 -0.1)">
       <defs>
        <path id="DejaVuSans-30" d="M 2034 4250 
Q 1547 4250 1301 3770 
Q 1056 3291 1056 2328 
Q 1056 1369 1301 889 
Q 1547 409 2034 409 
Q 2525 409 2770 889 
Q 3016 1369 3016 2328 
Q 3016 3291 2770 3770 
Q 2525 4250 2034 4250 
z
M 2034 4750 
Q 2819 4750 3233 4129 
Q 3647 3509 3647 2328 
Q 3647 1150 3233 529 
Q 2819 -91 2034 -91 
Q 1250 -91 836 529 
Q 422 1150 422 2328 
Q 422 3509 836 4129 
Q 1250 4750 2034 4750 
z
" transform="scale(0.015625)"/>
       </defs>
       <use xlink:href="#DejaVuSans-30"/>
      </g>
     </g>
    </g>
    <g id="xtick_2">
     <g id="line2d_2">
      <g>
       <use xlink:href="#me3ed463815" x="77.523031" y="252.639481" style="stroke: #000000; stroke-width: 0.8"/>
      </g>
     </g>
     <g id="text_2">
      <!-- 20 -->
      <g transform="translate(71.160531 267.237918) scale(0.1 -0.1)">
       <defs>
        <path id="DejaVuSans-32" d="M 1228 531 
L 3431 531 
L 3431 0 
L 469 0 
L 469 531 
Q 828 903 1448 1529 
Q 2069 2156 2228 2338 
Q 2531 2678 2651 2914 
Q 2772 3150 2772 3378 
Q 2772 3750 2511 3984 
Q 2250 4219 1831 4219 
Q 1534 4219 1204 4116 
Q 875 4013 500 3803 
L 500 4441 
Q 881 4594 1212 4672 
Q 1544 4750 1819 4750 
Q 2544 4750 2975 4387 
Q 3406 4025 3406 3419 
Q 3406 3131 3298 2873 
Q 3191 2616 2906 2266 
Q 2828 2175 2409 1742 
Q 1991 1309 1228 531 
z
" transform="scale(0.015625)"/>
       </defs>
       <use xlink:href="#DejaVuSans-32"/>
       <use xlink:href="#DejaVuSans-30" transform="translate(63.623047 0)"/>
      </g>
     </g>
    </g>
    <g id="xtick_3">
     <g id="line2d_3">
      <g>
       <use xlink:href="#me3ed463815" x="121.316061" y="252.639481" style="stroke: #000000; stroke-width: 0.8"/>
      </g>
     </g>
     <g id="text_3">
      <!-- 40 -->
      <g transform="translate(114.953561 267.237918) scale(0.1 -0.1)">
       <defs>
        <path id="DejaVuSans-34" d="M 2419 4116 
L 825 1625 
L 2419 1625 
L 2419 4116 
z
M 2253 4666 
L 3047 4666 
L 3047 1625 
L 3713 1625 
L 3713 1100 
L 3047 1100 
L 3047 0 
L 2419 0 
L 2419 1100 
L 313 1100 
L 313 1709 
L 2253 4666 
z
" transform="scale(0.015625)"/>
       </defs>
       <use xlink:href="#DejaVuSans-34"/>
       <use xlink:href="#DejaVuSans-30" transform="translate(63.623047 0)"/>
      </g>
     </g>
    </g>
    <g id="xtick_4">
     <g id="line2d_4">
      <g>
       <use xlink:href="#me3ed463815" x="165.109092" y="252.639481" style="stroke: #000000; stroke-width: 0.8"/>
      </g>
     </g>
     <g id="text_4">
      <!-- 60 -->
      <g transform="translate(158.746592 267.237918) scale(0.1 -0.1)">
       <defs>
        <path id="DejaVuSans-36" d="M 2113 2584 
Q 1688 2584 1439 2293 
Q 1191 2003 1191 1497 
Q 1191 994 1439 701 
Q 1688 409 2113 409 
Q 2538 409 2786 701 
Q 3034 994 3034 1497 
Q 3034 2003 2786 2293 
Q 2538 2584 2113 2584 
z
M 3366 4563 
L 3366 3988 
Q 3128 4100 2886 4159 
Q 2644 4219 2406 4219 
Q 1781 4219 1451 3797 
Q 1122 3375 1075 2522 
Q 1259 2794 1537 2939 
Q 1816 3084 2150 3084 
Q 2853 3084 3261 2657 
Q 3669 2231 3669 1497 
Q 3669 778 3244 343 
Q 2819 -91 2113 -91 
Q 1303 -91 875 529 
Q 447 1150 447 2328 
Q 447 3434 972 4092 
Q 1497 4750 2381 4750 
Q 2619 4750 2861 4703 
Q 3103 4656 3366 4563 
z
" transform="scale(0.015625)"/>
       </defs>
       <use xlink:href="#DejaVuSans-36"/>
       <use xlink:href="#DejaVuSans-30" transform="translate(63.623047 0)"/>
      </g>
     </g>
    </g>
    <g id="xtick_5">
     <g id="line2d_5">
      <g>
       <use xlink:href="#me3ed463815" x="208.902123" y="252.639481" style="stroke: #000000; stroke-width: 0.8"/>
      </g>
     </g>
     <g id="text_5">
      <!-- 80 -->
      <g transform="translate(202.539623 267.237918) scale(0.1 -0.1)">
       <defs>
        <path id="DejaVuSans-38" d="M 2034 2216 
Q 1584 2216 1326 1975 
Q 1069 1734 1069 1313 
Q 1069 891 1326 650 
Q 1584 409 2034 409 
Q 2484 409 2743 651 
Q 3003 894 3003 1313 
Q 3003 1734 2745 1975 
Q 2488 2216 2034 2216 
z
M 1403 2484 
Q 997 2584 770 2862 
Q 544 3141 544 3541 
Q 544 4100 942 4425 
Q 1341 4750 2034 4750 
Q 2731 4750 3128 4425 
Q 3525 4100 3525 3541 
Q 3525 3141 3298 2862 
Q 3072 2584 2669 2484 
Q 3125 2378 3379 2068 
Q 3634 1759 3634 1313 
Q 3634 634 3220 271 
Q 2806 -91 2034 -91 
Q 1263 -91 848 271 
Q 434 634 434 1313 
Q 434 1759 690 2068 
Q 947 2378 1403 2484 
z
M 1172 3481 
Q 1172 3119 1398 2916 
Q 1625 2713 2034 2713 
Q 2441 2713 2670 2916 
Q 2900 3119 2900 3481 
Q 2900 3844 2670 4047 
Q 2441 4250 2034 4250 
Q 1625 4250 1398 4047 
Q 1172 3844 1172 3481 
z
" transform="scale(0.015625)"/>
       </defs>
       <use xlink:href="#DejaVuSans-38"/>
       <use xlink:href="#DejaVuSans-30" transform="translate(63.623047 0)"/>
      </g>
     </g>
    </g>
    <g id="xtick_6">
     <g id="line2d_6">
      <g>
       <use xlink:href="#me3ed463815" x="252.695153" y="252.639481" style="stroke: #000000; stroke-width: 0.8"/>
      </g>
     </g>
     <g id="text_6">
      <!-- 100 -->
      <g transform="translate(243.151403 267.237918) scale(0.1 -0.1)">
       <defs>
        <path id="DejaVuSans-31" d="M 794 531 
L 1825 531 
L 1825 4091 
L 703 3866 
L 703 4441 
L 1819 4666 
L 2450 4666 
L 2450 531 
L 3481 531 
L 3481 0 
L 794 0 
L 794 531 
z
" transform="scale(0.015625)"/>
       </defs>
       <use xlink:href="#DejaVuSans-31"/>
       <use xlink:href="#DejaVuSans-30" transform="translate(63.623047 0)"/>
       <use xlink:href="#DejaVuSans-30" transform="translate(127.246094 0)"/>
      </g>
     </g>
    </g>
    <g id="xtick_7">
     <g id="line2d_7">
      <g>
       <use xlink:href="#me3ed463815" x="296.488184" y="252.639481" style="stroke: #000000; stroke-width: 0.8"/>
      </g>
     </g>
     <g id="text_7">
      <!-- 120 -->
      <g transform="translate(286.944434 267.237918) scale(0.1 -0.1)">
       <use xlink:href="#DejaVuSans-31"/>
       <use xlink:href="#DejaVuSans-32" transform="translate(63.623047 0)"/>
       <use xlink:href="#DejaVuSans-30" transform="translate(127.246094 0)"/>
      </g>
     </g>
    </g>
    <g id="xtick_8">
     <g id="line2d_8">
      <g>
       <use xlink:href="#me3ed463815" x="340.281215" y="252.639481" style="stroke: #000000; stroke-width: 0.8"/>
      </g>
     </g>
     <g id="text_8">
      <!-- 140 -->
      <g transform="translate(330.737465 267.237918) scale(0.1 -0.1)">
       <use xlink:href="#DejaVuSans-31"/>
       <use xlink:href="#DejaVuSans-34" transform="translate(63.623047 0)"/>
       <use xlink:href="#DejaVuSans-30" transform="translate(127.246094 0)"/>
      </g>
     </g>
    </g>
   </g>
   <g id="matplotlib.axis_2">
    <g id="ytick_1">
     <g id="line2d_9">
      <defs>
       <path id="ma60935da94" d="M 0 0 
L -3.5 0 
" style="stroke: #000000; stroke-width: 0.8"/>
      </defs>
      <g>
       <use xlink:href="#ma60935da94" x="33.73" y="242.312231" style="stroke: #000000; stroke-width: 0.8"/>
      </g>
     </g>
     <g id="text_9">
      <!-- 0.0 -->
      <g transform="translate(10.826875 246.11145) scale(0.1 -0.1)">
       <defs>
        <path id="DejaVuSans-2e" d="M 684 794 
L 1344 794 
L 1344 0 
L 684 0 
L 684 794 
z
" transform="scale(0.015625)"/>
       </defs>
       <use xlink:href="#DejaVuSans-30"/>
       <use xlink:href="#DejaVuSans-2e" transform="translate(63.623047 0)"/>
       <use xlink:href="#DejaVuSans-30" transform="translate(95.410156 0)"/>
      </g>
     </g>
    </g>
    <g id="ytick_2">
     <g id="line2d_10">
      <g>
       <use xlink:href="#ma60935da94" x="33.73" y="196.892774" style="stroke: #000000; stroke-width: 0.8"/>
      </g>
     </g>
     <g id="text_10">
      <!-- 0.2 -->
      <g transform="translate(10.826875 200.691993) scale(0.1 -0.1)">
       <use xlink:href="#DejaVuSans-30"/>
       <use xlink:href="#DejaVuSans-2e" transform="translate(63.623047 0)"/>
       <use xlink:href="#DejaVuSans-32" transform="translate(95.410156 0)"/>
      </g>
     </g>
    </g>
    <g id="ytick_3">
     <g id="line2d_11">
      <g>
       <use xlink:href="#ma60935da94" x="33.73" y="151.473317" style="stroke: #000000; stroke-width: 0.8"/>
      </g>
     </g>
     <g id="text_11">
      <!-- 0.4 -->
      <g transform="translate(10.826875 155.272536) scale(0.1 -0.1)">
       <use xlink:href="#DejaVuSans-30"/>
       <use xlink:href="#DejaVuSans-2e" transform="translate(63.623047 0)"/>
       <use xlink:href="#DejaVuSans-34" transform="translate(95.410156 0)"/>
      </g>
     </g>
    </g>
    <g id="ytick_4">
     <g id="line2d_12">
      <g>
       <use xlink:href="#ma60935da94" x="33.73" y="106.05386" style="stroke: #000000; stroke-width: 0.8"/>
      </g>
     </g>
     <g id="text_12">
      <!-- 0.6 -->
      <g transform="translate(10.826875 109.853079) scale(0.1 -0.1)">
       <use xlink:href="#DejaVuSans-30"/>
       <use xlink:href="#DejaVuSans-2e" transform="translate(63.623047 0)"/>
       <use xlink:href="#DejaVuSans-36" transform="translate(95.410156 0)"/>
      </g>
     </g>
    </g>
    <g id="ytick_5">
     <g id="line2d_13">
      <g>
       <use xlink:href="#ma60935da94" x="33.73" y="60.634403" style="stroke: #000000; stroke-width: 0.8"/>
      </g>
     </g>
     <g id="text_13">
      <!-- 0.8 -->
      <g transform="translate(10.826875 64.433621) scale(0.1 -0.1)">
       <use xlink:href="#DejaVuSans-30"/>
       <use xlink:href="#DejaVuSans-2e" transform="translate(63.623047 0)"/>
       <use xlink:href="#DejaVuSans-38" transform="translate(95.410156 0)"/>
      </g>
     </g>
    </g>
   </g>
   <g id="line2d_14">
    <path d="M -1 35.767249 
L 1.213675 35.767249 
L 7.519871 35.767249 
L 13.823878 35.767249 
L 20.127885 35.767249 
L 26.431891 35.767249 
L 32.734803 35.767249 
L 39.037715 35.767249 
L 45.341722 35.789963 
L 51.645729 36.471246 
L 57.947546 39.809575 
L 64.253742 46.122885 
L 70.559939 54.525484 
L 76.866135 64.063569 
L 83.172332 70.808355 
L 89.456632 81.209417 
L 95.762828 91.72402 
L 102.069024 102.21591 
L 108.375221 112.548845 
L 114.681417 122.563832 
L 120.987614 132.260885 
L 127.29381 138.460641 
L 133.600006 147.317436 
L 139.884306 155.674615 
L 146.190503 163.305085 
L 152.496699 170.367812 
L 158.802896 176.726535 
L 165.109092 182.812744 
L 171.415288 186.35546 
L 177.721485 191.351601 
L 184.027681 195.779998 
L 190.333878 199.958588 
L 196.618178 203.592145 
L 202.924374 206.771507 
L 209.23057 208.633702 
L 215.536767 211.086354 
L 221.842963 213.425455 
L 228.14916 215.492041 
L 234.455356 217.35424 
L 240.761553 219.102888 
L 247.045852 220.678944 
L 253.352049 221.530559 
L 259.702038 222.811388 
L 266.052028 224.021816 
L 272.183052 225.08009 
L 278.533042 226.172427 
L 284.883031 227.169385 
L 291.23302 228.068689 
L 297.58301 228.697749 
L 303.714034 229.456254 
L 310.064024 230.219301 
L 316.414013 230.898322 
L 322.764003 231.461523 
L 328.895027 232.092853 
L 335.245016 232.463022 
L 341.595006 233.005785 
L 347.944995 233.639386 
L 354.294985 234.182149 
L 360.426009 234.602278 
L 366.775998 235.013324 
L 373.125988 235.417558 
L 379.475977 235.699158 
L 385.825967 235.937611 
L 391.956991 236.314592 
L 398.30698 236.546232 
L 404.65697 236.859625 
L 411.006959 237.054929 
L 417.356949 237.257046 
L 423.487973 237.38422 
L 429.837963 237.584066 
L 436.187952 237.808892 
L 442.537941 237.983757 
L 448.668966 238.149538 
L 455.018955 238.333487 
L 461.368945 238.469745 
L 467.718934 238.633255 
L 474.068924 238.712739 
L 480.199948 238.858082 
L 486.549937 238.969359 
L 492.899927 239.062469 
L 499.249916 239.178289 
L 505.599906 239.230521 
L 511.73093 239.350883 
L 518.080919 239.441722 
L 524.430909 239.575709 
L 530.780898 239.668819 
L 536.911923 239.784639 
L 543.261912 239.861852 
L 549.611901 239.943607 
L 555.961891 240.007194 
L 562.31188 240.101894 
L 568.442905 240.179561 
L 574.792894 240.297878 
L 581.142884 240.374637 
" clip-path="url(#p866f7d9ee5)" style="fill: none; stroke: #000000; stroke-width: 1.5; stroke-linecap: square"/>
   </g>
   <g id="line2d_15">
    <path d="M -1 37.629445 
L 1.213675 37.629445 
L 7.519871 37.629445 
L 13.823878 37.629445 
L 20.127885 37.629445 
L 26.431891 37.629445 
L 32.734803 37.629445 
L 39.037715 37.629445 
L 45.341722 37.629445 
L 51.645729 38.605962 
L 57.947546 43.10249 
L 64.253742 51.368836 
L 70.559939 62.451182 
L 76.866135 74.986948 
L 83.172332 83.707482 
L 89.456632 96.742877 
L 95.762828 109.43761 
L 102.069024 121.519188 
L 108.375221 132.919468 
L 114.681417 143.593038 
L 120.987614 153.630739 
L 127.29381 159.989463 
L 133.600006 168.846258 
L 139.884306 177.158017 
L 146.190503 184.629519 
L 152.496699 191.351601 
L 158.802896 197.483226 
L 165.109092 203.365047 
L 171.415288 206.726087 
L 177.721485 211.404292 
L 184.027681 215.401203 
L 190.333878 219.193727 
L 196.618178 222.357192 
L 202.924374 225.064193 
L 209.23057 226.631164 
L 215.536767 228.684123 
L 221.842963 230.584928 
L 228.14916 232.22457 
L 234.455356 233.60078 
L 240.761553 234.827105 
L 247.045852 235.858127 
L 253.352049 236.387263 
L 259.702038 237.213897 
L 266.052028 237.842957 
L 272.183052 238.360739 
L 278.533042 238.869437 
L 284.883031 239.323631 
L 291.23302 239.71878 
L 297.58301 239.941336 
L 303.714034 240.228614 
L 310.064024 240.489776 
L 316.414013 240.708697 
L 322.764003 240.876749 
L 328.895027 241.042303 
L 335.245016 241.135186 
L 341.595006 241.242149 
L 347.944995 241.37114 
L 354.294985 241.479011 
L 360.426009 241.541236 
L 366.775998 241.641159 
L 373.125988 241.726547 
L 379.475977 241.817386 
L 385.825967 241.855993 
L 391.956991 241.897098 
L 398.30698 241.931843 
L 404.65697 241.959322 
L 411.006959 241.993387 
L 417.356949 242.040169 
L 423.487973 242.071281 
L 429.837963 242.107072 
L 436.187952 242.166503 
L 442.537941 242.179175 
L 448.668966 242.198365 
L 455.018955 242.212944 
L 461.368945 242.229023 
L 467.718934 242.25121 
L 474.068924 242.256002 
L 480.199948 242.267402 
L 486.549937 242.266267 
L 492.899927 242.285298 
L 499.249916 242.284662 
L 505.599906 242.28423 
L 511.73093 242.297897 
L 518.080919 242.304903 
L 524.430909 242.304735 
L 530.780898 242.304556 
L 536.911923 242.312231 
L 543.261912 242.312231 
L 549.611901 242.312231 
L 555.961891 242.312231 
L 562.31188 242.312231 
L 568.442905 242.312231 
L 574.792894 242.312231 
L 581.142884 242.312231 
" clip-path="url(#p866f7d9ee5)" style="fill: none; stroke: #00ffff; stroke-width: 1.5; stroke-linecap: square"/>
   </g>
   <g id="line2d_16">
    <path d="M -1 51.550517 
L 1.213675 51.550517 
L 7.519871 51.550517 
L 13.823878 51.550517 
L 20.127885 51.550517 
L 26.431891 51.550517 
L 32.734803 51.550517 
L 39.037715 51.550517 
L 45.341722 51.550517 
L 51.645729 52.458895 
L 57.947546 57.90924 
L 64.253742 67.447325 
L 70.559939 79.256381 
L 76.866135 92.200922 
L 83.172332 100.830616 
L 89.456632 113.548077 
L 95.762828 125.584227 
L 102.069024 136.939094 
L 108.375221 147.385563 
L 114.681417 156.923655 
L 120.987614 165.780443 
L 127.29381 171.003681 
L 133.600006 178.724991 
L 139.884306 185.53791 
L 146.190503 191.669536 
L 152.496699 197.119871 
L 158.802896 201.888914 
L 165.109092 206.430859 
L 171.415288 208.92893 
L 177.721485 212.562488 
L 184.027681 215.741849 
L 190.333878 218.467017 
L 196.618178 220.965087 
L 202.924374 223.099801 
L 209.23057 224.303416 
L 215.536767 225.802258 
L 221.842963 227.210262 
L 228.14916 228.391168 
L 234.455356 229.413105 
L 240.761553 230.366914 
L 247.045852 231.207174 
L 253.352049 231.638659 
L 259.702038 232.34266 
L 266.052028 232.887694 
L 272.183052 233.296469 
L 278.533042 233.750663 
L 284.883031 234.159439 
L 291.23302 234.522795 
L 297.58301 234.772602 
L 303.714034 235.090537 
L 310.064024 235.385764 
L 316.414013 235.658281 
L 322.764003 235.839959 
L 328.895027 236.067056 
L 335.245016 236.203314 
L 341.595006 236.430412 
L 347.944995 236.748348 
L 354.294985 236.998155 
L 360.426009 237.202542 
L 366.775998 237.40693 
L 373.125988 237.543188 
L 379.475977 237.679447 
L 385.825967 237.724866 
L 391.956991 237.883834 
L 398.30698 237.974673 
L 404.65697 238.065512 
L 411.006959 238.133641 
L 417.356949 238.20177 
L 423.487973 238.22448 
L 429.837963 238.360739 
L 436.187952 238.428868 
L 442.537941 238.542417 
L 448.668966 238.678675 
L 455.018955 238.792224 
L 461.368945 238.883062 
L 467.718934 239.019321 
L 474.068924 239.08745 
L 480.199948 239.178289 
L 486.549937 239.223708 
L 492.899927 239.314547 
L 499.249916 239.405386 
L 505.599906 239.405386 
L 511.73093 239.496225 
L 518.080919 239.587064 
L 524.430909 239.700613 
L 530.780898 239.746032 
L 536.911923 239.836871 
L 543.261912 239.92771 
L 549.611901 239.973129 
L 555.961891 240.041259 
L 562.31188 240.102575 
L 568.442905 240.16162 
L 574.792894 240.225207 
L 581.142884 240.266085 
" clip-path="url(#p866f7d9ee5)" style="fill: none; stroke: #ffa500; stroke-width: 1.5; stroke-linecap: square"/>
   </g>
   <g id="line2d_17">
    <path d="M -1 76.07702 
L 1.213675 76.07702 
L 7.519871 76.07702 
L 13.823878 76.07702 
L 20.127885 76.07702 
L 26.431891 76.07702 
L 32.734803 76.07702 
L 39.037715 76.07702 
L 45.341722 76.07702 
L 51.645729 78.120896 
L 57.947546 86.296401 
L 64.253742 100.830616 
L 70.559939 118.090018 
L 76.866135 135.349413 
L 83.172332 146.704273 
L 89.456632 161.919792 
L 95.762828 175.318535 
L 102.069024 187.127591 
L 108.375221 196.892774 
L 114.681417 205.068275 
L 120.987614 211.881194 
L 127.29381 215.741849 
L 133.600006 220.556312 
L 139.884306 224.644063 
L 146.190503 227.778004 
L 152.496699 230.276075 
L 158.802896 232.206402 
L 165.109092 233.841502 
L 171.415288 234.727182 
L 177.721485 235.862668 
L 184.027681 236.702928 
L 190.333878 237.475059 
L 196.618178 238.065512 
L 202.924374 238.542417 
L 209.23057 238.860353 
L 215.536767 239.223708 
L 221.842963 239.564354 
L 228.14916 239.859581 
L 234.455356 240.088949 
L 240.761553 240.225207 
L 247.045852 240.356924 
L 253.352049 240.409156 
L 259.702038 240.563582 
L 266.052028 240.643066 
L 272.183052 240.706654 
L 278.533042 240.792951 
L 284.883031 240.88606 
L 291.23302 240.956461 
L 297.58301 240.997338 
L 303.714034 241.058654 
L 310.064024 241.138138 
L 316.414013 241.183558 
L 322.764003 241.208539 
L 328.895027 241.28121 
L 335.245016 241.337984 
L 341.595006 241.378862 
L 347.944995 241.412926 
L 354.294985 241.426552 
L 360.426009 241.446991 
L 366.775998 241.465159 
L 373.125988 241.483326 
L 379.475977 241.508307 
L 385.825967 241.499223 
L 391.956991 241.501494 
L 398.30698 241.501494 
L 404.65697 241.540101 
L 411.006959 241.546914 
L 417.356949 241.546914 
L 423.487973 241.565081 
L 429.837963 241.56281 
L 436.187952 241.60823 
L 442.537941 241.615043 
L 448.668966 241.624127 
L 455.018955 241.660462 
L 461.368945 241.669546 
L 467.718934 241.687714 
L 474.068924 241.683172 
L 480.199948 241.696798 
L 486.549937 241.735404 
L 492.899927 241.751301 
L 499.249916 241.785366 
L 505.599906 241.792179 
L 511.73093 241.835327 
L 518.080919 241.862579 
L 524.430909 241.88983 
L 530.780898 241.923895 
L 536.911923 241.953418 
L 543.261912 241.951147 
L 549.611901 241.978398 
L 555.961891 241.969315 
L 562.31188 241.998837 
L 568.442905 242.030631 
L 574.792894 242.046528 
L 581.142884 242.048799 
" clip-path="url(#p866f7d9ee5)" style="fill: none; stroke-dasharray: 5.55,2.4; stroke-dashoffset: 0; stroke: #ffa500; stroke-width: 1.5"/>
   </g>
   <g id="line2d_18">
    <path d="M -1 104.237086 
L 1.213675 104.237086 
L 7.519871 104.237086 
L 13.823878 104.237086 
L 20.127885 104.237086 
L 26.431891 104.237086 
L 32.734803 104.237086 
L 39.037715 104.237086 
L 45.341722 104.237086 
L 51.645729 106.280962 
L 57.947546 115.591939 
L 64.253742 130.580364 
L 70.559939 146.931374 
L 76.866135 161.919792 
L 83.172332 170.322391 
L 89.456632 181.450157 
L 95.762828 190.53405 
L 102.069024 198.028262 
L 108.375221 204.386986 
L 114.681417 209.610224 
L 120.987614 214.152168 
L 127.29381 216.650239 
L 133.600006 220.011278 
L 139.884306 222.918123 
L 146.190503 225.393483 
L 152.496699 227.550908 
L 158.802896 229.481235 
L 165.109092 231.207174 
L 171.415288 232.160983 
L 177.721485 233.364598 
L 184.027681 234.431956 
L 190.333878 235.363054 
L 196.618178 236.157895 
L 202.924374 236.816477 
L 209.23057 237.179833 
L 215.536767 237.588608 
L 221.842963 237.951963 
L 228.14916 238.338029 
L 234.455356 238.610546 
L 240.761553 238.951192 
L 247.045852 239.246418 
L 253.352049 239.428096 
L 259.702038 239.677903 
L 266.052028 239.88229 
L 272.183052 240.057155 
L 278.533042 240.252459 
L 284.883031 240.429595 
L 291.23302 240.58175 
L 297.58301 240.670318 
L 303.714034 240.788409 
L 310.064024 240.917854 
L 316.414013 240.992796 
L 322.764003 241.07228 
L 328.895027 241.199455 
L 335.245016 241.249416 
L 341.595006 241.337984 
L 347.944995 241.419739 
L 354.294985 241.487868 
L 360.426009 241.567352 
L 366.775998 241.621856 
L 373.125988 241.685443 
L 379.475977 241.730862 
L 385.825967 241.767198 
L 391.956991 241.787637 
L 398.30698 241.814888 
L 404.65697 241.835327 
L 411.006959 241.844411 
L 417.356949 241.892101 
L 423.487973 241.921624 
L 429.837963 241.939792 
L 436.187952 241.944334 
L 442.537941 241.969315 
L 448.668966 241.985211 
L 455.018955 241.996566 
L 461.368945 242.023818 
L 467.718934 242.069237 
L 474.068924 242.095808 
L 480.199948 242.089676 
L 486.549937 242.10035 
L 492.899927 242.120107 
L 499.249916 242.134641 
L 505.599906 242.137366 
L 511.73093 242.143271 
L 518.080919 242.141908 
L 524.430909 242.169387 
L 530.780898 242.172112 
L 536.911923 242.178017 
L 543.261912 242.175519 
L 549.611901 242.184149 
L 555.961891 242.195049 
L 562.31188 242.203679 
L 568.442905 242.206631 
L 574.792894 242.217532 
L 581.142884 242.220711 
" clip-path="url(#p866f7d9ee5)" style="fill: none; stroke-dasharray: 1.5,2.475; stroke-dashoffset: 0; stroke: #ffa500; stroke-width: 1.5"/>
   </g>
   <g id="patch_3">
    <path d="M 33.73 252.639481 
L 33.73 25.44 
" style="fill: none; stroke: #000000; stroke-width: 0.8; stroke-linejoin: miter; stroke-linecap: square"/>
   </g>
   <g id="patch_4">
    <path d="M 362.17773 252.639481 
L 362.17773 25.44 
" style="fill: none; stroke: #000000; stroke-width: 0.8; stroke-linejoin: miter; stroke-linecap: square"/>
   </g>
   <g id="patch_5">
    <path d="M 33.73 252.639481 
L 362.17773 252.639481 
" style="fill: none; stroke: #000000; stroke-width: 0.8; stroke-linejoin: miter; stroke-linecap: square"/>
   </g>
   <g id="patch_6">
    <path d="M 33.73 25.44 
L 362.17773 25.44 
" style="fill: none; stroke: #000000; stroke-width: 0.8; stroke-linejoin: miter; stroke-linecap: square"/>
   </g>
   <g id="text_14">
    <!-- Foldseek -->
    <g transform="translate(171.58949 19.44) scale(0.12 -0.12)">
     <defs>
      <path id="DejaVuSans-46" d="M 628 4666 
L 3309 4666 
L 3309 4134 
L 1259 4134 
L 1259 2759 
L 3109 2759 
L 3109 2228 
L 1259 2228 
L 1259 0 
L 628 0 
L 628 4666 
z
" transform="scale(0.015625)"/>
      <path id="DejaVuSans-6f" d="M 1959 3097 
Q 1497 3097 1228 2736 
Q 959 2375 959 1747 
Q 959 1119 1226 758 
Q 1494 397 1959 397 
Q 2419 397 2687 759 
Q 2956 1122 2956 1747 
Q 2956 2369 2687 2733 
Q 2419 3097 1959 3097 
z
M 1959 3584 
Q 2709 3584 3137 3096 
Q 3566 2609 3566 1747 
Q 3566 888 3137 398 
Q 2709 -91 1959 -91 
Q 1206 -91 779 398 
Q 353 888 353 1747 
Q 353 2609 779 3096 
Q 1206 3584 1959 3584 
z
" transform="scale(0.015625)"/>
      <path id="DejaVuSans-6c" d="M 603 4863 
L 1178 4863 
L 1178 0 
L 603 0 
L 603 4863 
z
" transform="scale(0.015625)"/>
      <path id="DejaVuSans-64" d="M 2906 2969 
L 2906 4863 
L 3481 4863 
L 3481 0 
L 2906 0 
L 2906 525 
Q 2725 213 2448 61 
Q 2172 -91 1784 -91 
Q 1150 -91 751 415 
Q 353 922 353 1747 
Q 353 2572 751 3078 
Q 1150 3584 1784 3584 
Q 2172 3584 2448 3432 
Q 2725 3281 2906 2969 
z
M 947 1747 
Q 947 1113 1208 752 
Q 1469 391 1925 391 
Q 2381 391 2643 752 
Q 2906 1113 2906 1747 
Q 2906 2381 2643 2742 
Q 2381 3103 1925 3103 
Q 1469 3103 1208 2742 
Q 947 2381 947 1747 
z
" transform="scale(0.015625)"/>
      <path id="DejaVuSans-73" d="M 2834 3397 
L 2834 2853 
Q 2591 2978 2328 3040 
Q 2066 3103 1784 3103 
Q 1356 3103 1142 2972 
Q 928 2841 928 2578 
Q 928 2378 1081 2264 
Q 1234 2150 1697 2047 
L 1894 2003 
Q 2506 1872 2764 1633 
Q 3022 1394 3022 966 
Q 3022 478 2636 193 
Q 2250 -91 1575 -91 
Q 1294 -91 989 -36 
Q 684 19 347 128 
L 347 722 
Q 666 556 975 473 
Q 1284 391 1588 391 
Q 1994 391 2212 530 
Q 2431 669 2431 922 
Q 2431 1156 2273 1281 
Q 2116 1406 1581 1522 
L 1381 1569 
Q 847 1681 609 1914 
Q 372 2147 372 2553 
Q 372 3047 722 3315 
Q 1072 3584 1716 3584 
Q 2034 3584 2315 3537 
Q 2597 3491 2834 3397 
z
" transform="scale(0.015625)"/>
      <path id="DejaVuSans-65" d="M 3597 1894 
L 3597 1613 
L 953 1613 
Q 991 1019 1311 708 
Q 1631 397 2203 397 
Q 2534 397 2845 478 
Q 3156 559 3463 722 
L 3463 178 
Q 3153 47 2828 -22 
Q 2503 -91 2169 -91 
Q 1331 -91 842 396 
Q 353 884 353 1716 
Q 353 2575 817 3079 
Q 1281 3584 2069 3584 
Q 2775 3584 3186 3129 
Q 3597 2675 3597 1894 
z
M 3022 2063 
Q 3016 2534 2758 2815 
Q 2500 3097 2075 3097 
Q 1594 3097 1305 2825 
Q 1016 2553 972 2059 
L 3022 2063 
z
" transform="scale(0.015625)"/>
      <path id="DejaVuSans-6b" d="M 581 4863 
L 1159 4863 
L 1159 1991 
L 2875 3500 
L 3609 3500 
L 1753 1863 
L 3688 0 
L 2938 0 
L 1159 1709 
L 1159 0 
L 581 0 
L 581 4863 
z
" transform="scale(0.015625)"/>
     </defs>
     <use xlink:href="#DejaVuSans-46"/>
     <use xlink:href="#DejaVuSans-6f" transform="translate(53.894531 0)"/>
     <use xlink:href="#DejaVuSans-6c" transform="translate(115.076172 0)"/>
     <use xlink:href="#DejaVuSans-64" transform="translate(142.859375 0)"/>
     <use xlink:href="#DejaVuSans-73" transform="translate(206.335938 0)"/>
     <use xlink:href="#DejaVuSans-65" transform="translate(258.435547 0)"/>
     <use xlink:href="#DejaVuSans-65" transform="translate(319.958984 0)"/>
     <use xlink:href="#DejaVuSans-6b" transform="translate(381.482422 0)"/>
    </g>
   </g>
   <g id="legend_1">
    <g id="patch_7">
     <path d="M 261.388668 106.830625 
L 355.17773 106.830625 
Q 357.17773 106.830625 357.17773 104.830625 
L 357.17773 32.44 
Q 357.17773 30.44 355.17773 30.44 
L 261.388668 30.44 
Q 259.388668 30.44 259.388668 32.44 
L 259.388668 104.830625 
Q 259.388668 106.830625 261.388668 106.830625 
z
" style="fill: #ffffff; opacity: 0.8; stroke: #cccccc; stroke-linejoin: miter"/>
    </g>
    <g id="line2d_19">
     <path d="M 263.388668 38.538437 
L 273.388668 38.538437 
L 283.388668 38.538437 
" style="fill: none; stroke: #000000; stroke-width: 1.5; stroke-linecap: square"/>
    </g>
    <g id="text_15">
     <!-- SCOP40 -->
     <g transform="translate(291.388668 42.038437) scale(0.1 -0.1)">
      <defs>
       <path id="DejaVuSans-53" d="M 3425 4513 
L 3425 3897 
Q 3066 4069 2747 4153 
Q 2428 4238 2131 4238 
Q 1616 4238 1336 4038 
Q 1056 3838 1056 3469 
Q 1056 3159 1242 3001 
Q 1428 2844 1947 2747 
L 2328 2669 
Q 3034 2534 3370 2195 
Q 3706 1856 3706 1288 
Q 3706 609 3251 259 
Q 2797 -91 1919 -91 
Q 1588 -91 1214 -16 
Q 841 59 441 206 
L 441 856 
Q 825 641 1194 531 
Q 1563 422 1919 422 
Q 2459 422 2753 634 
Q 3047 847 3047 1241 
Q 3047 1584 2836 1778 
Q 2625 1972 2144 2069 
L 1759 2144 
Q 1053 2284 737 2584 
Q 422 2884 422 3419 
Q 422 4038 858 4394 
Q 1294 4750 2059 4750 
Q 2388 4750 2728 4690 
Q 3069 4631 3425 4513 
z
" transform="scale(0.015625)"/>
       <path id="DejaVuSans-43" d="M 4122 4306 
L 4122 3641 
Q 3803 3938 3442 4084 
Q 3081 4231 2675 4231 
Q 1875 4231 1450 3742 
Q 1025 3253 1025 2328 
Q 1025 1406 1450 917 
Q 1875 428 2675 428 
Q 3081 428 3442 575 
Q 3803 722 4122 1019 
L 4122 359 
Q 3791 134 3420 21 
Q 3050 -91 2638 -91 
Q 1578 -91 968 557 
Q 359 1206 359 2328 
Q 359 3453 968 4101 
Q 1578 4750 2638 4750 
Q 3056 4750 3426 4639 
Q 3797 4528 4122 4306 
z
" transform="scale(0.015625)"/>
       <path id="DejaVuSans-4f" d="M 2522 4238 
Q 1834 4238 1429 3725 
Q 1025 3213 1025 2328 
Q 1025 1447 1429 934 
Q 1834 422 2522 422 
Q 3209 422 3611 934 
Q 4013 1447 4013 2328 
Q 4013 3213 3611 3725 
Q 3209 4238 2522 4238 
z
M 2522 4750 
Q 3503 4750 4090 4092 
Q 4678 3434 4678 2328 
Q 4678 1225 4090 567 
Q 3503 -91 2522 -91 
Q 1538 -91 948 565 
Q 359 1222 359 2328 
Q 359 3434 948 4092 
Q 1538 4750 2522 4750 
z
" transform="scale(0.015625)"/>
       <path id="DejaVuSans-50" d="M 1259 4147 
L 1259 2394 
L 2053 2394 
Q 2494 2394 2734 2622 
Q 2975 2850 2975 3272 
Q 2975 3691 2734 3919 
Q 2494 4147 2053 4147 
L 1259 4147 
z
M 628 4666 
L 2053 4666 
Q 2838 4666 3239 4311 
Q 3641 3956 3641 3272 
Q 3641 2581 3239 2228 
Q 2838 1875 2053 1875 
L 1259 1875 
L 1259 0 
L 628 0 
L 628 4666 
z
" transform="scale(0.015625)"/>
      </defs>
      <use xlink:href="#DejaVuSans-53"/>
      <use xlink:href="#DejaVuSans-43" transform="translate(63.476562 0)"/>
      <use xlink:href="#DejaVuSans-4f" transform="translate(133.300781 0)"/>
      <use xlink:href="#DejaVuSans-50" transform="translate(212.011719 0)"/>
      <use xlink:href="#DejaVuSans-34" transform="translate(272.314453 0)"/>
      <use xlink:href="#DejaVuSans-30" transform="translate(335.9375 0)"/>
     </g>
    </g>
    <g id="line2d_20">
     <path d="M 263.388668 53.216562 
L 273.388668 53.216562 
L 283.388668 53.216562 
" style="fill: none; stroke: #00ffff; stroke-width: 1.5; stroke-linecap: square"/>
    </g>
    <g id="text_16">
     <!-- SCOP40c -->
     <g transform="translate(291.388668 56.716562) scale(0.1 -0.1)">
      <defs>
       <path id="DejaVuSans-63" d="M 3122 3366 
L 3122 2828 
Q 2878 2963 2633 3030 
Q 2388 3097 2138 3097 
Q 1578 3097 1268 2742 
Q 959 2388 959 1747 
Q 959 1106 1268 751 
Q 1578 397 2138 397 
Q 2388 397 2633 464 
Q 2878 531 3122 666 
L 3122 134 
Q 2881 22 2623 -34 
Q 2366 -91 2075 -91 
Q 1284 -91 818 406 
Q 353 903 353 1747 
Q 353 2603 823 3093 
Q 1294 3584 2113 3584 
Q 2378 3584 2631 3529 
Q 2884 3475 3122 3366 
z
" transform="scale(0.015625)"/>
      </defs>
      <use xlink:href="#DejaVuSans-53"/>
      <use xlink:href="#DejaVuSans-43" transform="translate(63.476562 0)"/>
      <use xlink:href="#DejaVuSans-4f" transform="translate(133.300781 0)"/>
      <use xlink:href="#DejaVuSans-50" transform="translate(212.011719 0)"/>
      <use xlink:href="#DejaVuSans-34" transform="translate(272.314453 0)"/>
      <use xlink:href="#DejaVuSans-30" transform="translate(335.9375 0)"/>
      <use xlink:href="#DejaVuSans-63" transform="translate(399.560547 0)"/>
     </g>
    </g>
    <g id="line2d_21">
     <path d="M 263.388668 67.894687 
L 273.388668 67.894687 
L 283.388668 67.894687 
" style="fill: none; stroke: #ffa500; stroke-width: 1.5; stroke-linecap: square"/>
    </g>
    <g id="text_17">
     <!-- SCOP40/SF2 -->
     <g transform="translate(291.388668 71.394687) scale(0.1 -0.1)">
      <defs>
       <path id="DejaVuSans-2f" d="M 1625 4666 
L 2156 4666 
L 531 -594 
L 0 -594 
L 1625 4666 
z
" transform="scale(0.015625)"/>
      </defs>
      <use xlink:href="#DejaVuSans-53"/>
      <use xlink:href="#DejaVuSans-43" transform="translate(63.476562 0)"/>
      <use xlink:href="#DejaVuSans-4f" transform="translate(133.300781 0)"/>
      <use xlink:href="#DejaVuSans-50" transform="translate(212.011719 0)"/>
      <use xlink:href="#DejaVuSans-34" transform="translate(272.314453 0)"/>
      <use xlink:href="#DejaVuSans-30" transform="translate(335.9375 0)"/>
      <use xlink:href="#DejaVuSans-2f" transform="translate(399.560547 0)"/>
      <use xlink:href="#DejaVuSans-53" transform="translate(433.251953 0)"/>
      <use xlink:href="#DejaVuSans-46" transform="translate(496.728516 0)"/>
      <use xlink:href="#DejaVuSans-32" transform="translate(554.248047 0)"/>
     </g>
    </g>
    <g id="line2d_22">
     <path d="M 263.388668 82.572812 
L 273.388668 82.572812 
L 283.388668 82.572812 
" style="fill: none; stroke-dasharray: 5.55,2.4; stroke-dashoffset: 0; stroke: #ffa500; stroke-width: 1.5"/>
    </g>
    <g id="text_18">
     <!-- SCOP40/SF4 -->
     <g transform="translate(291.388668 86.072812) scale(0.1 -0.1)">
      <use xlink:href="#DejaVuSans-53"/>
      <use xlink:href="#DejaVuSans-43" transform="translate(63.476562 0)"/>
      <use xlink:href="#DejaVuSans-4f" transform="translate(133.300781 0)"/>
      <use xlink:href="#DejaVuSans-50" transform="translate(212.011719 0)"/>
      <use xlink:href="#DejaVuSans-34" transform="translate(272.314453 0)"/>
      <use xlink:href="#DejaVuSans-30" transform="translate(335.9375 0)"/>
      <use xlink:href="#DejaVuSans-2f" transform="translate(399.560547 0)"/>
      <use xlink:href="#DejaVuSans-53" transform="translate(433.251953 0)"/>
      <use xlink:href="#DejaVuSans-46" transform="translate(496.728516 0)"/>
      <use xlink:href="#DejaVuSans-34" transform="translate(554.248047 0)"/>
     </g>
    </g>
    <g id="line2d_23">
     <path d="M 263.388668 97.250937 
L 273.388668 97.250937 
L 283.388668 97.250937 
" style="fill: none; stroke-dasharray: 1.5,2.475; stroke-dashoffset: 0; stroke: #ffa500; stroke-width: 1.5"/>
    </g>
    <g id="text_19">
     <!-- SCOP40/SF8 -->
     <g transform="translate(291.388668 100.750937) scale(0.1 -0.1)">
      <use xlink:href="#DejaVuSans-53"/>
      <use xlink:href="#DejaVuSans-43" transform="translate(63.476562 0)"/>
      <use xlink:href="#DejaVuSans-4f" transform="translate(133.300781 0)"/>
      <use xlink:href="#DejaVuSans-50" transform="translate(212.011719 0)"/>
      <use xlink:href="#DejaVuSans-34" transform="translate(272.314453 0)"/>
      <use xlink:href="#DejaVuSans-30" transform="translate(335.9375 0)"/>
      <use xlink:href="#DejaVuSans-2f" transform="translate(399.560547 0)"/>
      <use xlink:href="#DejaVuSans-53" transform="translate(433.251953 0)"/>
      <use xlink:href="#DejaVuSans-46" transform="translate(496.728516 0)"/>
      <use xlink:href="#DejaVuSans-38" transform="translate(554.248047 0)"/>
     </g>
    </g>
   </g>
  </g>
  <g id="axes_2">
   <g id="patch_8">
    <path d="M 403.978076 252.639481 
L 732.425806 252.639481 
L 732.425806 25.44 
L 403.978076 25.44 
z
" style="fill: #ffffff"/>
   </g>
   <g id="matplotlib.axis_3">
    <g id="xtick_9">
     <g id="line2d_24">
      <g>
       <use xlink:href="#me3ed463815" x="403.978076" y="252.639481" style="stroke: #000000; stroke-width: 0.8"/>
      </g>
     </g>
     <g id="text_20">
      <!-- 0 -->
      <g transform="translate(400.796826 267.237918) scale(0.1 -0.1)">
       <use xlink:href="#DejaVuSans-30"/>
      </g>
     </g>
    </g>
    <g id="xtick_10">
     <g id="line2d_25">
      <g>
       <use xlink:href="#me3ed463815" x="447.771107" y="252.639481" style="stroke: #000000; stroke-width: 0.8"/>
      </g>
     </g>
     <g id="text_21">
      <!-- 20 -->
      <g transform="translate(441.408607 267.237918) scale(0.1 -0.1)">
       <use xlink:href="#DejaVuSans-32"/>
       <use xlink:href="#DejaVuSans-30" transform="translate(63.623047 0)"/>
      </g>
     </g>
    </g>
    <g id="xtick_11">
     <g id="line2d_26">
      <g>
       <use xlink:href="#me3ed463815" x="491.564138" y="252.639481" style="stroke: #000000; stroke-width: 0.8"/>
      </g>
     </g>
     <g id="text_22">
      <!-- 40 -->
      <g transform="translate(485.201638 267.237918) scale(0.1 -0.1)">
       <use xlink:href="#DejaVuSans-34"/>
       <use xlink:href="#DejaVuSans-30" transform="translate(63.623047 0)"/>
      </g>
     </g>
    </g>
    <g id="xtick_12">
     <g id="line2d_27">
      <g>
       <use xlink:href="#me3ed463815" x="535.357168" y="252.639481" style="stroke: #000000; stroke-width: 0.8"/>
      </g>
     </g>
     <g id="text_23">
      <!-- 60 -->
      <g transform="translate(528.994668 267.237918) scale(0.1 -0.1)">
       <use xlink:href="#DejaVuSans-36"/>
       <use xlink:href="#DejaVuSans-30" transform="translate(63.623047 0)"/>
      </g>
     </g>
    </g>
    <g id="xtick_13">
     <g id="line2d_28">
      <g>
       <use xlink:href="#me3ed463815" x="579.150199" y="252.639481" style="stroke: #000000; stroke-width: 0.8"/>
      </g>
     </g>
     <g id="text_24">
      <!-- 80 -->
      <g transform="translate(572.787699 267.237918) scale(0.1 -0.1)">
       <use xlink:href="#DejaVuSans-38"/>
       <use xlink:href="#DejaVuSans-30" transform="translate(63.623047 0)"/>
      </g>
     </g>
    </g>
    <g id="xtick_14">
     <g id="line2d_29">
      <g>
       <use xlink:href="#me3ed463815" x="622.94323" y="252.639481" style="stroke: #000000; stroke-width: 0.8"/>
      </g>
     </g>
     <g id="text_25">
      <!-- 100 -->
      <g transform="translate(613.39948 267.237918) scale(0.1 -0.1)">
       <use xlink:href="#DejaVuSans-31"/>
       <use xlink:href="#DejaVuSans-30" transform="translate(63.623047 0)"/>
       <use xlink:href="#DejaVuSans-30" transform="translate(127.246094 0)"/>
      </g>
     </g>
    </g>
    <g id="xtick_15">
     <g id="line2d_30">
      <g>
       <use xlink:href="#me3ed463815" x="666.73626" y="252.639481" style="stroke: #000000; stroke-width: 0.8"/>
      </g>
     </g>
     <g id="text_26">
      <!-- 120 -->
      <g transform="translate(657.19251 267.237918) scale(0.1 -0.1)">
       <use xlink:href="#DejaVuSans-31"/>
       <use xlink:href="#DejaVuSans-32" transform="translate(63.623047 0)"/>
       <use xlink:href="#DejaVuSans-30" transform="translate(127.246094 0)"/>
      </g>
     </g>
    </g>
    <g id="xtick_16">
     <g id="line2d_31">
      <g>
       <use xlink:href="#me3ed463815" x="710.529291" y="252.639481" style="stroke: #000000; stroke-width: 0.8"/>
      </g>
     </g>
     <g id="text_27">
      <!-- 140 -->
      <g transform="translate(700.985541 267.237918) scale(0.1 -0.1)">
       <use xlink:href="#DejaVuSans-31"/>
       <use xlink:href="#DejaVuSans-34" transform="translate(63.623047 0)"/>
       <use xlink:href="#DejaVuSans-30" transform="translate(127.246094 0)"/>
      </g>
     </g>
    </g>
   </g>
   <g id="matplotlib.axis_4">
    <g id="ytick_6">
     <g id="line2d_32">
      <g>
       <use xlink:href="#ma60935da94" x="403.978076" y="252.639481" style="stroke: #000000; stroke-width: 0.8"/>
      </g>
     </g>
     <g id="text_28">
      <!-- $\mathdefault{10^{-3}}$ -->
      <g transform="translate(373.478076 256.438699) scale(0.1 -0.1)">
       <defs>
        <path id="DejaVuSans-2212" d="M 678 2272 
L 4684 2272 
L 4684 1741 
L 678 1741 
L 678 2272 
z
" transform="scale(0.015625)"/>
        <path id="DejaVuSans-33" d="M 2597 2516 
Q 3050 2419 3304 2112 
Q 3559 1806 3559 1356 
Q 3559 666 3084 287 
Q 2609 -91 1734 -91 
Q 1441 -91 1130 -33 
Q 819 25 488 141 
L 488 750 
Q 750 597 1062 519 
Q 1375 441 1716 441 
Q 2309 441 2620 675 
Q 2931 909 2931 1356 
Q 2931 1769 2642 2001 
Q 2353 2234 1838 2234 
L 1294 2234 
L 1294 2753 
L 1863 2753 
Q 2328 2753 2575 2939 
Q 2822 3125 2822 3475 
Q 2822 3834 2567 4026 
Q 2313 4219 1838 4219 
Q 1578 4219 1281 4162 
Q 984 4106 628 3988 
L 628 4550 
Q 988 4650 1302 4700 
Q 1616 4750 1894 4750 
Q 2613 4750 3031 4423 
Q 3450 4097 3450 3541 
Q 3450 3153 3228 2886 
Q 3006 2619 2597 2516 
z
" transform="scale(0.015625)"/>
       </defs>
       <use xlink:href="#DejaVuSans-31" transform="translate(0 0.765625)"/>
       <use xlink:href="#DejaVuSans-30" transform="translate(63.623047 0.765625)"/>
       <use xlink:href="#DejaVuSans-2212" transform="translate(128.203125 39.046875) scale(0.7)"/>
       <use xlink:href="#DejaVuSans-33" transform="translate(186.855469 39.046875) scale(0.7)"/>
      </g>
     </g>
    </g>
    <g id="ytick_7">
     <g id="line2d_33">
      <g>
       <use xlink:href="#ma60935da94" x="403.978076" y="183.812635" style="stroke: #000000; stroke-width: 0.8"/>
      </g>
     </g>
     <g id="text_29">
      <!-- $\mathdefault{10^{-2}}$ -->
      <g transform="translate(373.478076 187.611854) scale(0.1 -0.1)">
       <use xlink:href="#DejaVuSans-31" transform="translate(0 0.765625)"/>
       <use xlink:href="#DejaVuSans-30" transform="translate(63.623047 0.765625)"/>
       <use xlink:href="#DejaVuSans-2212" transform="translate(128.203125 39.046875) scale(0.7)"/>
       <use xlink:href="#DejaVuSans-32" transform="translate(186.855469 39.046875) scale(0.7)"/>
      </g>
     </g>
    </g>
    <g id="ytick_8">
     <g id="line2d_34">
      <g>
       <use xlink:href="#ma60935da94" x="403.978076" y="114.98579" style="stroke: #000000; stroke-width: 0.8"/>
      </g>
     </g>
     <g id="text_30">
      <!-- $\mathdefault{10^{-1}}$ -->
      <g transform="translate(373.478076 118.785009) scale(0.1 -0.1)">
       <use xlink:href="#DejaVuSans-31" transform="translate(0 0.684375)"/>
       <use xlink:href="#DejaVuSans-30" transform="translate(63.623047 0.684375)"/>
       <use xlink:href="#DejaVuSans-2212" transform="translate(128.203125 38.965625) scale(0.7)"/>
       <use xlink:href="#DejaVuSans-31" transform="translate(186.855469 38.965625) scale(0.7)"/>
      </g>
     </g>
    </g>
    <g id="ytick_9">
     <g id="line2d_35">
      <g>
       <use xlink:href="#ma60935da94" x="403.978076" y="46.158945" style="stroke: #000000; stroke-width: 0.8"/>
      </g>
     </g>
     <g id="text_31">
      <!-- $\mathdefault{10^{0}}$ -->
      <g transform="translate(379.378076 49.958164) scale(0.1 -0.1)">
       <use xlink:href="#DejaVuSans-31" transform="translate(0 0.765625)"/>
       <use xlink:href="#DejaVuSans-30" transform="translate(63.623047 0.765625)"/>
       <use xlink:href="#DejaVuSans-30" transform="translate(128.203125 39.046875) scale(0.7)"/>
      </g>
     </g>
    </g>
    <g id="ytick_10">
     <g id="line2d_36">
      <defs>
       <path id="m08b519aeb0" d="M 0 0 
L -2 0 
" style="stroke: #000000; stroke-width: 0.6"/>
      </defs>
      <g>
       <use xlink:href="#m08b519aeb0" x="403.978076" y="231.920536" style="stroke: #000000; stroke-width: 0.6"/>
      </g>
     </g>
    </g>
    <g id="ytick_11">
     <g id="line2d_37">
      <g>
       <use xlink:href="#m08b519aeb0" x="403.978076" y="219.80073" style="stroke: #000000; stroke-width: 0.6"/>
      </g>
     </g>
    </g>
    <g id="ytick_12">
     <g id="line2d_38">
      <g>
       <use xlink:href="#m08b519aeb0" x="403.978076" y="211.201591" style="stroke: #000000; stroke-width: 0.6"/>
      </g>
     </g>
    </g>
    <g id="ytick_13">
     <g id="line2d_39">
      <g>
       <use xlink:href="#m08b519aeb0" x="403.978076" y="204.53158" style="stroke: #000000; stroke-width: 0.6"/>
      </g>
     </g>
    </g>
    <g id="ytick_14">
     <g id="line2d_40">
      <g>
       <use xlink:href="#m08b519aeb0" x="403.978076" y="199.081785" style="stroke: #000000; stroke-width: 0.6"/>
      </g>
     </g>
    </g>
    <g id="ytick_15">
     <g id="line2d_41">
      <g>
       <use xlink:href="#m08b519aeb0" x="403.978076" y="194.474049" style="stroke: #000000; stroke-width: 0.6"/>
      </g>
     </g>
    </g>
    <g id="ytick_16">
     <g id="line2d_42">
      <g>
       <use xlink:href="#m08b519aeb0" x="403.978076" y="190.482646" style="stroke: #000000; stroke-width: 0.6"/>
      </g>
     </g>
    </g>
    <g id="ytick_17">
     <g id="line2d_43">
      <g>
       <use xlink:href="#m08b519aeb0" x="403.978076" y="186.961979" style="stroke: #000000; stroke-width: 0.6"/>
      </g>
     </g>
    </g>
    <g id="ytick_18">
     <g id="line2d_44">
      <g>
       <use xlink:href="#m08b519aeb0" x="403.978076" y="163.09369" style="stroke: #000000; stroke-width: 0.6"/>
      </g>
     </g>
    </g>
    <g id="ytick_19">
     <g id="line2d_45">
      <g>
       <use xlink:href="#m08b519aeb0" x="403.978076" y="150.973885" style="stroke: #000000; stroke-width: 0.6"/>
      </g>
     </g>
    </g>
    <g id="ytick_20">
     <g id="line2d_46">
      <g>
       <use xlink:href="#m08b519aeb0" x="403.978076" y="142.374745" style="stroke: #000000; stroke-width: 0.6"/>
      </g>
     </g>
    </g>
    <g id="ytick_21">
     <g id="line2d_47">
      <g>
       <use xlink:href="#m08b519aeb0" x="403.978076" y="135.704735" style="stroke: #000000; stroke-width: 0.6"/>
      </g>
     </g>
    </g>
    <g id="ytick_22">
     <g id="line2d_48">
      <g>
       <use xlink:href="#m08b519aeb0" x="403.978076" y="130.25494" style="stroke: #000000; stroke-width: 0.6"/>
      </g>
     </g>
    </g>
    <g id="ytick_23">
     <g id="line2d_49">
      <g>
       <use xlink:href="#m08b519aeb0" x="403.978076" y="125.647203" style="stroke: #000000; stroke-width: 0.6"/>
      </g>
     </g>
    </g>
    <g id="ytick_24">
     <g id="line2d_50">
      <g>
       <use xlink:href="#m08b519aeb0" x="403.978076" y="121.655801" style="stroke: #000000; stroke-width: 0.6"/>
      </g>
     </g>
    </g>
    <g id="ytick_25">
     <g id="line2d_51">
      <g>
       <use xlink:href="#m08b519aeb0" x="403.978076" y="118.135134" style="stroke: #000000; stroke-width: 0.6"/>
      </g>
     </g>
    </g>
    <g id="ytick_26">
     <g id="line2d_52">
      <g>
       <use xlink:href="#m08b519aeb0" x="403.978076" y="94.266845" style="stroke: #000000; stroke-width: 0.6"/>
      </g>
     </g>
    </g>
    <g id="ytick_27">
     <g id="line2d_53">
      <g>
       <use xlink:href="#m08b519aeb0" x="403.978076" y="82.147039" style="stroke: #000000; stroke-width: 0.6"/>
      </g>
     </g>
    </g>
    <g id="ytick_28">
     <g id="line2d_54">
      <g>
       <use xlink:href="#m08b519aeb0" x="403.978076" y="73.5479" style="stroke: #000000; stroke-width: 0.6"/>
      </g>
     </g>
    </g>
    <g id="ytick_29">
     <g id="line2d_55">
      <g>
       <use xlink:href="#m08b519aeb0" x="403.978076" y="66.87789" style="stroke: #000000; stroke-width: 0.6"/>
      </g>
     </g>
    </g>
    <g id="ytick_30">
     <g id="line2d_56">
      <g>
       <use xlink:href="#m08b519aeb0" x="403.978076" y="61.428094" style="stroke: #000000; stroke-width: 0.6"/>
      </g>
     </g>
    </g>
    <g id="ytick_31">
     <g id="line2d_57">
      <g>
       <use xlink:href="#m08b519aeb0" x="403.978076" y="56.820358" style="stroke: #000000; stroke-width: 0.6"/>
      </g>
     </g>
    </g>
    <g id="ytick_32">
     <g id="line2d_58">
      <g>
       <use xlink:href="#m08b519aeb0" x="403.978076" y="52.828955" style="stroke: #000000; stroke-width: 0.6"/>
      </g>
     </g>
    </g>
    <g id="ytick_33">
     <g id="line2d_59">
      <g>
       <use xlink:href="#m08b519aeb0" x="403.978076" y="49.308289" style="stroke: #000000; stroke-width: 0.6"/>
      </g>
     </g>
    </g>
    <g id="ytick_34">
     <g id="line2d_60">
      <g>
       <use xlink:href="#m08b519aeb0" x="403.978076" y="25.44" style="stroke: #000000; stroke-width: 0.6"/>
      </g>
     </g>
    </g>
   </g>
   <g id="line2d_61">
    <path d="M 327.340273 48.994425 
L 333.646469 48.994425 
L 339.952665 48.994425 
L 346.258862 48.994425 
L 352.565058 48.994425 
L 358.849358 48.994425 
L 365.155555 48.994425 
L 371.461751 48.994425 
L 377.767947 48.994425 
L 384.071954 48.994425 
L 390.375961 48.994425 
L 396.679968 48.994425 
L 402.98288 48.994425 
L 409.285792 48.994425 
L 415.589798 48.997712 
L 421.893805 49.096481 
L 428.195622 49.585229 
L 434.501819 50.531963 
L 440.808015 51.840395 
L 447.114212 53.398542 
L 453.420408 54.551553 
L 459.704708 56.421634 
L 466.010904 58.439097 
L 472.317101 60.597799 
L 478.623297 62.887982 
L 484.929494 65.288832 
L 491.23569 67.813012 
L 497.541886 69.546224 
L 503.848083 72.210741 
L 510.132383 74.963355 
L 516.438579 77.71919 
L 522.744776 80.518327 
L 529.050972 83.284339 
L 535.357168 86.195433 
L 541.663365 88.030396 
L 547.969561 90.825995 
L 554.275758 93.54334 
L 560.581954 96.35582 
L 566.866254 99.036933 
L 573.17245 101.597982 
L 579.478647 103.206683 
L 585.784843 105.466851 
L 592.09104 107.79427 
L 598.397236 110.013057 
L 604.703432 112.164049 
L 611.009629 114.335314 
L 617.293929 116.437308 
L 623.600125 117.637789 
L 629.950115 119.539274 
L 636.300104 121.454713 
L 642.431128 123.236249 
L 648.781118 125.193753 
L 655.131107 127.099619 
L 661.481097 128.929692 
L 667.831086 130.279859 
L 673.96211 131.993375 
L 680.3121 133.822348 
L 686.662089 135.549704 
L 693.012079 137.062266 
L 699.143103 138.854078 
L 705.493093 139.956897 
L 711.843082 141.65124 
L 718.193071 143.758876 
L 724.543061 145.690615 
L 730.674085 147.276607 
L 737.024075 148.914266 
L 743.374064 150.617326 
L 744.225806 150.78452 
" clip-path="url(#paab6730148)" style="fill: none; stroke: #000000; stroke-width: 1.5; stroke-linecap: square"/>
   </g>
   <g id="line2d_62">
    <path d="M 327.340273 49.265143 
L 333.646469 49.265143 
L 339.952665 49.265143 
L 346.258862 49.265143 
L 352.565058 49.265143 
L 358.849358 49.265143 
L 365.155555 49.265143 
L 371.461751 49.265143 
L 377.767947 49.265143 
L 384.071954 49.265143 
L 390.375961 49.265143 
L 396.679968 49.265143 
L 402.98288 49.265143 
L 409.285792 49.265143 
L 415.589798 49.265143 
L 421.893805 49.408092 
L 428.195622 50.075287 
L 434.501819 51.342109 
L 440.808015 53.129371 
L 447.114212 55.288852 
L 453.420408 56.888758 
L 459.704708 59.452299 
L 466.010904 62.179763 
L 472.317101 65.029202 
L 478.623297 67.992427 
L 484.929494 71.06121 
L 491.23569 74.26638 
L 497.541886 76.490383 
L 503.848083 79.892751 
L 510.132383 83.481639 
L 516.438579 87.122362 
L 522.744776 90.825995 
L 529.050972 94.657977 
L 535.357168 98.86213 
L 541.663365 101.559806 
L 547.969561 105.772759 
L 554.275758 109.911988 
L 560.581954 114.452534 
L 566.866254 118.851062 
L 573.17245 123.208688 
L 579.478647 126.055647 
L 585.784843 130.249958 
L 592.09104 134.740042 
L 598.397236 139.241846 
L 604.703432 143.626114 
L 611.009629 148.161209 
L 617.293929 152.591122 
L 623.600125 155.148039 
L 629.950115 159.639522 
L 636.300104 163.575814 
L 642.431128 167.256389 
L 648.781118 171.375679 
L 655.131107 175.60463 
L 661.481097 179.843658 
L 667.831086 182.525538 
L 673.96211 186.386342 
L 680.3121 190.389382 
L 686.662089 194.214697 
L 693.012079 197.523921 
L 699.143103 201.18679 
L 705.493093 203.45711 
L 711.843082 206.304885 
L 718.193071 210.144428 
L 724.543061 213.783443 
L 730.674085 216.103453 
L 737.024075 220.252494 
L 743.374064 224.320582 
L 744.225806 224.996306 
" clip-path="url(#paab6730148)" style="fill: none; stroke: #00ffff; stroke-width: 1.5; stroke-linecap: square"/>
   </g>
   <g id="line2d_63">
    <path d="M 327.340273 51.370564 
L 333.646469 51.370564 
L 339.952665 51.370564 
L 346.258862 51.370564 
L 352.565058 51.370564 
L 358.849358 51.370564 
L 365.155555 51.370564 
L 371.461751 51.370564 
L 377.767947 51.370564 
L 384.071954 51.370564 
L 390.375961 51.370564 
L 396.679968 51.370564 
L 402.98288 51.370564 
L 409.285792 51.370564 
L 415.589798 51.370564 
L 421.893805 51.513241 
L 428.195622 52.383919 
L 434.501819 53.971431 
L 440.808015 56.061446 
L 447.114212 58.533911 
L 453.420408 60.303683 
L 459.704708 63.119047 
L 466.010904 66.052442 
L 472.317101 69.111461 
L 478.623297 72.232185 
L 484.929494 75.397426 
L 491.23569 78.670688 
L 497.541886 80.783689 
L 503.848083 84.209313 
L 510.132383 87.596835 
L 516.438579 91.013065 
L 522.744776 94.416676 
L 529.050972 97.750171 
L 535.357168 101.312848 
L 541.663365 103.469866 
L 547.969561 106.914377 
L 554.275758 110.292773 
L 560.581954 113.527398 
L 566.866254 116.835316 
L 573.17245 119.984658 
L 579.478647 121.918498 
L 585.784843 124.515939 
L 592.09104 127.180417 
L 598.397236 129.614216 
L 604.703432 131.893219 
L 611.009629 134.189461 
L 617.293929 136.369681 
L 623.600125 137.554261 
L 629.950115 139.593828 
L 636.300104 141.274336 
L 642.431128 142.599773 
L 648.781118 144.144878 
L 655.131107 145.607235 
L 661.481097 146.97003 
L 667.831086 147.944346 
L 673.96211 149.23216 
L 680.3121 150.479805 
L 686.662089 151.679609 
L 693.012079 152.507099 
L 699.143103 153.574752 
L 705.493093 154.234141 
L 711.843082 155.366516 
L 718.193071 157.027562 
L 724.543061 158.400673 
L 730.674085 159.573022 
L 737.024075 160.793238 
L 743.374064 161.635298 
L 744.225806 161.75152 
" clip-path="url(#paab6730148)" style="fill: none; stroke: #ffa500; stroke-width: 1.5; stroke-linecap: square"/>
   </g>
   <g id="line2d_64">
    <path d="M 327.340273 55.48422 
L 333.646469 55.48422 
L 339.952665 55.48422 
L 346.258862 55.48422 
L 352.565058 55.48422 
L 358.849358 55.48422 
L 365.155555 55.48422 
L 371.461751 55.48422 
L 377.767947 55.48422 
L 384.071954 55.48422 
L 390.375961 55.48422 
L 396.679968 55.48422 
L 402.98288 55.48422 
L 409.285792 55.48422 
L 415.589798 55.48422 
L 421.893805 55.854012 
L 428.195622 57.380699 
L 434.501819 60.303683 
L 440.808015 64.192451 
L 447.114212 68.663885 
L 453.420408 72.018423 
L 459.704708 77.199627 
L 466.010904 82.649424 
L 472.317101 88.445727 
L 478.623297 94.266845 
L 484.929494 100.198765 
L 491.23569 106.237567 
L 497.541886 110.292773 
L 503.848083 116.268344 
L 510.132383 122.489321 
L 516.438579 128.32581 
L 522.744776 133.963013 
L 529.050972 139.188061 
L 535.357168 144.463719 
L 541.663365 147.764819 
L 547.969561 152.612164 
L 554.275758 156.784542 
L 560.581954 161.211304 
L 566.866254 165.102635 
L 573.17245 168.66329 
L 579.478647 171.296914 
L 585.784843 174.621573 
L 592.09104 178.11478 
L 598.397236 181.512183 
L 604.703432 184.447035 
L 611.009629 186.337514 
L 617.293929 188.286164 
L 623.600125 189.095509 
L 629.950115 191.625121 
L 636.300104 193.015656 
L 642.431128 194.176623 
L 648.781118 195.828004 
L 655.131107 197.718436 
L 661.481097 199.231616 
L 667.831086 200.146722 
L 673.96211 201.574154 
L 680.3121 203.532179 
L 686.662089 204.711466 
L 693.012079 205.380471 
L 699.143103 207.416398 
L 705.493093 209.10944 
L 711.843082 210.390684 
L 718.193071 211.502007 
L 724.543061 211.958369 
L 730.674085 212.656248 
L 737.024075 213.290565 
L 743.374064 213.938636 
L 744.225806 214.061325 
" clip-path="url(#paab6730148)" style="fill: none; stroke-dasharray: 5.55,2.4; stroke-dashoffset: 0; stroke: #ffa500; stroke-width: 1.5"/>
   </g>
   <g id="line2d_65">
    <path d="M 327.340273 61.032181 
L 333.646469 61.032181 
L 339.952665 61.032181 
L 346.258862 61.032181 
L 352.565058 61.032181 
L 358.849358 61.032181 
L 365.155555 61.032181 
L 371.461751 61.032181 
L 377.767947 61.032181 
L 384.071954 61.032181 
L 390.375961 61.032181 
L 396.679968 61.032181 
L 402.98288 61.032181 
L 409.285792 61.032181 
L 415.589798 61.032181 
L 421.893805 61.477956 
L 428.195622 63.597312 
L 434.501819 67.360014 
L 440.808015 72.089509 
L 447.114212 77.199627 
L 453.420408 80.499462 
L 459.704708 85.518622 
L 466.010904 90.350264 
L 472.317101 95.023624 
L 478.623297 99.656919 
L 484.929494 104.086201 
L 491.23569 108.555871 
L 497.541886 111.332569 
L 503.848083 115.528731 
L 510.132383 119.703329 
L 516.438579 123.78487 
L 522.744776 127.862375 
L 529.050972 132.051514 
L 535.357168 136.369681 
L 541.663365 139.05402 
L 547.969561 142.826509 
L 554.275758 146.623463 
L 560.581954 150.381962 
L 566.866254 154.012724 
L 573.17245 157.395835 
L 579.478647 159.440468 
L 585.784843 161.921339 
L 592.09104 164.313904 
L 598.397236 167.085093 
L 604.703432 169.208431 
L 611.009629 172.094059 
L 617.293929 174.842172 
L 623.600125 176.668153 
L 629.950115 179.376196 
L 636.300104 181.790241 
L 642.431128 184.02261 
L 648.781118 186.730393 
L 655.131107 189.418269 
L 661.481097 191.937303 
L 667.831086 193.507701 
L 673.96211 195.738778 
L 680.3121 198.392337 
L 686.662089 200.043648 
L 693.012079 201.900836 
L 699.143103 205.135461 
L 705.493093 206.508574 
L 711.843082 209.10944 
L 718.193071 211.729316 
L 724.543061 214.102874 
L 730.674085 217.133511 
L 737.024075 219.404814 
L 743.374064 222.293099 
L 744.225806 222.594698 
" clip-path="url(#paab6730148)" style="fill: none; stroke-dasharray: 1.5,2.475; stroke-dashoffset: 0; stroke: #ffa500; stroke-width: 1.5"/>
   </g>
   <g id="patch_9">
    <path d="M 403.978076 252.639481 
L 403.978076 25.44 
" style="fill: none; stroke: #000000; stroke-width: 0.8; stroke-linejoin: miter; stroke-linecap: square"/>
   </g>
   <g id="patch_10">
    <path d="M 732.425806 252.639481 
L 732.425806 25.44 
" style="fill: none; stroke: #000000; stroke-width: 0.8; stroke-linejoin: miter; stroke-linecap: square"/>
   </g>
   <g id="patch_11">
    <path d="M 403.978076 252.639481 
L 732.425806 252.639481 
" style="fill: none; stroke: #000000; stroke-width: 0.8; stroke-linejoin: miter; stroke-linecap: square"/>
   </g>
   <g id="patch_12">
    <path d="M 403.978076 25.44 
L 732.425806 25.44 
" style="fill: none; stroke: #000000; stroke-width: 0.8; stroke-linejoin: miter; stroke-linecap: square"/>
   </g>
   <g id="text_32">
    <!-- Foldseek (logscale) -->
    <g transform="translate(510.641316 19.44) scale(0.12 -0.12)">
     <defs>
      <path id="DejaVuSans-20" transform="scale(0.015625)"/>
      <path id="DejaVuSans-28" d="M 1984 4856 
Q 1566 4138 1362 3434 
Q 1159 2731 1159 2009 
Q 1159 1288 1364 580 
Q 1569 -128 1984 -844 
L 1484 -844 
Q 1016 -109 783 600 
Q 550 1309 550 2009 
Q 550 2706 781 3412 
Q 1013 4119 1484 4856 
L 1984 4856 
z
" transform="scale(0.015625)"/>
      <path id="DejaVuSans-67" d="M 2906 1791 
Q 2906 2416 2648 2759 
Q 2391 3103 1925 3103 
Q 1463 3103 1205 2759 
Q 947 2416 947 1791 
Q 947 1169 1205 825 
Q 1463 481 1925 481 
Q 2391 481 2648 825 
Q 2906 1169 2906 1791 
z
M 3481 434 
Q 3481 -459 3084 -895 
Q 2688 -1331 1869 -1331 
Q 1566 -1331 1297 -1286 
Q 1028 -1241 775 -1147 
L 775 -588 
Q 1028 -725 1275 -790 
Q 1522 -856 1778 -856 
Q 2344 -856 2625 -561 
Q 2906 -266 2906 331 
L 2906 616 
Q 2728 306 2450 153 
Q 2172 0 1784 0 
Q 1141 0 747 490 
Q 353 981 353 1791 
Q 353 2603 747 3093 
Q 1141 3584 1784 3584 
Q 2172 3584 2450 3431 
Q 2728 3278 2906 2969 
L 2906 3500 
L 3481 3500 
L 3481 434 
z
" transform="scale(0.015625)"/>
      <path id="DejaVuSans-61" d="M 2194 1759 
Q 1497 1759 1228 1600 
Q 959 1441 959 1056 
Q 959 750 1161 570 
Q 1363 391 1709 391 
Q 2188 391 2477 730 
Q 2766 1069 2766 1631 
L 2766 1759 
L 2194 1759 
z
M 3341 1997 
L 3341 0 
L 2766 0 
L 2766 531 
Q 2569 213 2275 61 
Q 1981 -91 1556 -91 
Q 1019 -91 701 211 
Q 384 513 384 1019 
Q 384 1609 779 1909 
Q 1175 2209 1959 2209 
L 2766 2209 
L 2766 2266 
Q 2766 2663 2505 2880 
Q 2244 3097 1772 3097 
Q 1472 3097 1187 3025 
Q 903 2953 641 2809 
L 641 3341 
Q 956 3463 1253 3523 
Q 1550 3584 1831 3584 
Q 2591 3584 2966 3190 
Q 3341 2797 3341 1997 
z
" transform="scale(0.015625)"/>
      <path id="DejaVuSans-29" d="M 513 4856 
L 1013 4856 
Q 1481 4119 1714 3412 
Q 1947 2706 1947 2009 
Q 1947 1309 1714 600 
Q 1481 -109 1013 -844 
L 513 -844 
Q 928 -128 1133 580 
Q 1338 1288 1338 2009 
Q 1338 2731 1133 3434 
Q 928 4138 513 4856 
z
" transform="scale(0.015625)"/>
     </defs>
     <use xlink:href="#DejaVuSans-46"/>
     <use xlink:href="#DejaVuSans-6f" transform="translate(53.894531 0)"/>
     <use xlink:href="#DejaVuSans-6c" transform="translate(115.076172 0)"/>
     <use xlink:href="#DejaVuSans-64" transform="translate(142.859375 0)"/>
     <use xlink:href="#DejaVuSans-73" transform="translate(206.335938 0)"/>
     <use xlink:href="#DejaVuSans-65" transform="translate(258.435547 0)"/>
     <use xlink:href="#DejaVuSans-65" transform="translate(319.958984 0)"/>
     <use xlink:href="#DejaVuSans-6b" transform="translate(381.482422 0)"/>
     <use xlink:href="#DejaVuSans-20" transform="translate(439.392578 0)"/>
     <use xlink:href="#DejaVuSans-28" transform="translate(471.179688 0)"/>
     <use xlink:href="#DejaVuSans-6c" transform="translate(510.193359 0)"/>
     <use xlink:href="#DejaVuSans-6f" transform="translate(537.976562 0)"/>
     <use xlink:href="#DejaVuSans-67" transform="translate(599.158203 0)"/>
     <use xlink:href="#DejaVuSans-73" transform="translate(662.634766 0)"/>
     <use xlink:href="#DejaVuSans-63" transform="translate(714.734375 0)"/>
     <use xlink:href="#DejaVuSans-61" transform="translate(769.714844 0)"/>
     <use xlink:href="#DejaVuSans-6c" transform="translate(830.994141 0)"/>
     <use xlink:href="#DejaVuSans-65" transform="translate(858.777344 0)"/>
     <use xlink:href="#DejaVuSans-29" transform="translate(920.300781 0)"/>
    </g>
   </g>
   <g id="legend_2">
    <g id="patch_13">
     <path d="M 631.636744 106.830625 
L 725.425806 106.830625 
Q 727.425806 106.830625 727.425806 104.830625 
L 727.425806 32.44 
Q 727.425806 30.44 725.425806 30.44 
L 631.636744 30.44 
Q 629.636744 30.44 629.636744 32.44 
L 629.636744 104.830625 
Q 629.636744 106.830625 631.636744 106.830625 
z
" style="fill: #ffffff; opacity: 0.8; stroke: #cccccc; stroke-linejoin: miter"/>
    </g>
    <g id="line2d_66">
     <path d="M 633.636744 38.538437 
L 643.636744 38.538437 
L 653.636744 38.538437 
" style="fill: none; stroke: #000000; stroke-width: 1.5; stroke-linecap: square"/>
    </g>
    <g id="text_33">
     <!-- SCOP40 -->
     <g transform="translate(661.636744 42.038437) scale(0.1 -0.1)">
      <use xlink:href="#DejaVuSans-53"/>
      <use xlink:href="#DejaVuSans-43" transform="translate(63.476562 0)"/>
      <use xlink:href="#DejaVuSans-4f" transform="translate(133.300781 0)"/>
      <use xlink:href="#DejaVuSans-50" transform="translate(212.011719 0)"/>
      <use xlink:href="#DejaVuSans-34" transform="translate(272.314453 0)"/>
      <use xlink:href="#DejaVuSans-30" transform="translate(335.9375 0)"/>
     </g>
    </g>
    <g id="line2d_67">
     <path d="M 633.636744 53.216562 
L 643.636744 53.216562 
L 653.636744 53.216562 
" style="fill: none; stroke: #00ffff; stroke-width: 1.5; stroke-linecap: square"/>
    </g>
    <g id="text_34">
     <!-- SCOP40c -->
     <g transform="translate(661.636744 56.716562) scale(0.1 -0.1)">
      <use xlink:href="#DejaVuSans-53"/>
      <use xlink:href="#DejaVuSans-43" transform="translate(63.476562 0)"/>
      <use xlink:href="#DejaVuSans-4f" transform="translate(133.300781 0)"/>
      <use xlink:href="#DejaVuSans-50" transform="translate(212.011719 0)"/>
      <use xlink:href="#DejaVuSans-34" transform="translate(272.314453 0)"/>
      <use xlink:href="#DejaVuSans-30" transform="translate(335.9375 0)"/>
      <use xlink:href="#DejaVuSans-63" transform="translate(399.560547 0)"/>
     </g>
    </g>
    <g id="line2d_68">
     <path d="M 633.636744 67.894687 
L 643.636744 67.894687 
L 653.636744 67.894687 
" style="fill: none; stroke: #ffa500; stroke-width: 1.5; stroke-linecap: square"/>
    </g>
    <g id="text_35">
     <!-- SCOP40/SF2 -->
     <g transform="translate(661.636744 71.394687) scale(0.1 -0.1)">
      <use xlink:href="#DejaVuSans-53"/>
      <use xlink:href="#DejaVuSans-43" transform="translate(63.476562 0)"/>
      <use xlink:href="#DejaVuSans-4f" transform="translate(133.300781 0)"/>
      <use xlink:href="#DejaVuSans-50" transform="translate(212.011719 0)"/>
      <use xlink:href="#DejaVuSans-34" transform="translate(272.314453 0)"/>
      <use xlink:href="#DejaVuSans-30" transform="translate(335.9375 0)"/>
      <use xlink:href="#DejaVuSans-2f" transform="translate(399.560547 0)"/>
      <use xlink:href="#DejaVuSans-53" transform="translate(433.251953 0)"/>
      <use xlink:href="#DejaVuSans-46" transform="translate(496.728516 0)"/>
      <use xlink:href="#DejaVuSans-32" transform="translate(554.248047 0)"/>
     </g>
    </g>
    <g id="line2d_69">
     <path d="M 633.636744 82.572812 
L 643.636744 82.572812 
L 653.636744 82.572812 
" style="fill: none; stroke-dasharray: 5.55,2.4; stroke-dashoffset: 0; stroke: #ffa500; stroke-width: 1.5"/>
    </g>
    <g id="text_36">
     <!-- SCOP40/SF4 -->
     <g transform="translate(661.636744 86.072812) scale(0.1 -0.1)">
      <use xlink:href="#DejaVuSans-53"/>
      <use xlink:href="#DejaVuSans-43" transform="translate(63.476562 0)"/>
      <use xlink:href="#DejaVuSans-4f" transform="translate(133.300781 0)"/>
      <use xlink:href="#DejaVuSans-50" transform="translate(212.011719 0)"/>
      <use xlink:href="#DejaVuSans-34" transform="translate(272.314453 0)"/>
      <use xlink:href="#DejaVuSans-30" transform="translate(335.9375 0)"/>
      <use xlink:href="#DejaVuSans-2f" transform="translate(399.560547 0)"/>
      <use xlink:href="#DejaVuSans-53" transform="translate(433.251953 0)"/>
      <use xlink:href="#DejaVuSans-46" transform="translate(496.728516 0)"/>
      <use xlink:href="#DejaVuSans-34" transform="translate(554.248047 0)"/>
     </g>
    </g>
    <g id="line2d_70">
     <path d="M 633.636744 97.250937 
L 643.636744 97.250937 
L 653.636744 97.250937 
" style="fill: none; stroke-dasharray: 1.5,2.475; stroke-dashoffset: 0; stroke: #ffa500; stroke-width: 1.5"/>
    </g>
    <g id="text_37">
     <!-- SCOP40/SF8 -->
     <g transform="translate(661.636744 100.750937) scale(0.1 -0.1)">
      <use xlink:href="#DejaVuSans-53"/>
      <use xlink:href="#DejaVuSans-43" transform="translate(63.476562 0)"/>
      <use xlink:href="#DejaVuSans-4f" transform="translate(133.300781 0)"/>
      <use xlink:href="#DejaVuSans-50" transform="translate(212.011719 0)"/>
      <use xlink:href="#DejaVuSans-34" transform="translate(272.314453 0)"/>
      <use xlink:href="#DejaVuSans-30" transform="translate(335.9375 0)"/>
      <use xlink:href="#DejaVuSans-2f" transform="translate(399.560547 0)"/>
      <use xlink:href="#DejaVuSans-53" transform="translate(433.251953 0)"/>
      <use xlink:href="#DejaVuSans-46" transform="translate(496.728516 0)"/>
      <use xlink:href="#DejaVuSans-38" transform="translate(554.248047 0)"/>
     </g>
    </g>
   </g>
  </g>
  <g id="text_38">
   <!-- ../plots/C_F_score.foldseekb.svg -->
   <g transform="translate(276.019778 14.728515) scale(0.12 -0.12)">
    <defs>
     <path id="DejaVuSans-70" d="M 1159 525 
L 1159 -1331 
L 581 -1331 
L 581 3500 
L 1159 3500 
L 1159 2969 
Q 1341 3281 1617 3432 
Q 1894 3584 2278 3584 
Q 2916 3584 3314 3078 
Q 3713 2572 3713 1747 
Q 3713 922 3314 415 
Q 2916 -91 2278 -91 
Q 1894 -91 1617 61 
Q 1341 213 1159 525 
z
M 3116 1747 
Q 3116 2381 2855 2742 
Q 2594 3103 2138 3103 
Q 1681 3103 1420 2742 
Q 1159 2381 1159 1747 
Q 1159 1113 1420 752 
Q 1681 391 2138 391 
Q 2594 391 2855 752 
Q 3116 1113 3116 1747 
z
" transform="scale(0.015625)"/>
     <path id="DejaVuSans-74" d="M 1172 4494 
L 1172 3500 
L 2356 3500 
L 2356 3053 
L 1172 3053 
L 1172 1153 
Q 1172 725 1289 603 
Q 1406 481 1766 481 
L 2356 481 
L 2356 0 
L 1766 0 
Q 1100 0 847 248 
Q 594 497 594 1153 
L 594 3053 
L 172 3053 
L 172 3500 
L 594 3500 
L 594 4494 
L 1172 4494 
z
" transform="scale(0.015625)"/>
     <path id="DejaVuSans-5f" d="M 3263 -1063 
L 3263 -1509 
L -63 -1509 
L -63 -1063 
L 3263 -1063 
z
" transform="scale(0.015625)"/>
     <path id="DejaVuSans-72" d="M 2631 2963 
Q 2534 3019 2420 3045 
Q 2306 3072 2169 3072 
Q 1681 3072 1420 2755 
Q 1159 2438 1159 1844 
L 1159 0 
L 581 0 
L 581 3500 
L 1159 3500 
L 1159 2956 
Q 1341 3275 1631 3429 
Q 1922 3584 2338 3584 
Q 2397 3584 2469 3576 
Q 2541 3569 2628 3553 
L 2631 2963 
z
" transform="scale(0.015625)"/>
     <path id="DejaVuSans-66" d="M 2375 4863 
L 2375 4384 
L 1825 4384 
Q 1516 4384 1395 4259 
Q 1275 4134 1275 3809 
L 1275 3500 
L 2222 3500 
L 2222 3053 
L 1275 3053 
L 1275 0 
L 697 0 
L 697 3053 
L 147 3053 
L 147 3500 
L 697 3500 
L 697 3744 
Q 697 4328 969 4595 
Q 1241 4863 1831 4863 
L 2375 4863 
z
" transform="scale(0.015625)"/>
     <path id="DejaVuSans-62" d="M 3116 1747 
Q 3116 2381 2855 2742 
Q 2594 3103 2138 3103 
Q 1681 3103 1420 2742 
Q 1159 2381 1159 1747 
Q 1159 1113 1420 752 
Q 1681 391 2138 391 
Q 2594 391 2855 752 
Q 3116 1113 3116 1747 
z
M 1159 2969 
Q 1341 3281 1617 3432 
Q 1894 3584 2278 3584 
Q 2916 3584 3314 3078 
Q 3713 2572 3713 1747 
Q 3713 922 3314 415 
Q 2916 -91 2278 -91 
Q 1894 -91 1617 61 
Q 1341 213 1159 525 
L 1159 0 
L 581 0 
L 581 4863 
L 1159 4863 
L 1159 2969 
z
" transform="scale(0.015625)"/>
     <path id="DejaVuSans-76" d="M 191 3500 
L 800 3500 
L 1894 563 
L 2988 3500 
L 3597 3500 
L 2284 0 
L 1503 0 
L 191 3500 
z
" transform="scale(0.015625)"/>
    </defs>
    <use xlink:href="#DejaVuSans-2e"/>
    <use xlink:href="#DejaVuSans-2e" transform="translate(31.787109 0)"/>
    <use xlink:href="#DejaVuSans-2f" transform="translate(63.574219 0)"/>
    <use xlink:href="#DejaVuSans-70" transform="translate(97.265625 0)"/>
    <use xlink:href="#DejaVuSans-6c" transform="translate(160.742188 0)"/>
    <use xlink:href="#DejaVuSans-6f" transform="translate(188.525391 0)"/>
    <use xlink:href="#DejaVuSans-74" transform="translate(249.707031 0)"/>
    <use xlink:href="#DejaVuSans-73" transform="translate(288.916016 0)"/>
    <use xlink:href="#DejaVuSans-2f" transform="translate(341.015625 0)"/>
    <use xlink:href="#DejaVuSans-43" transform="translate(374.707031 0)"/>
    <use xlink:href="#DejaVuSans-5f" transform="translate(444.53125 0)"/>
    <use xlink:href="#DejaVuSans-46" transform="translate(494.53125 0)"/>
    <use xlink:href="#DejaVuSans-5f" transform="translate(552.050781 0)"/>
    <use xlink:href="#DejaVuSans-73" transform="translate(602.050781 0)"/>
    <use xlink:href="#DejaVuSans-63" transform="translate(654.150391 0)"/>
    <use xlink:href="#DejaVuSans-6f" transform="translate(709.130859 0)"/>
    <use xlink:href="#DejaVuSans-72" transform="translate(770.3125 0)"/>
    <use xlink:href="#DejaVuSans-65" transform="translate(809.175781 0)"/>
    <use xlink:href="#DejaVuSans-2e" transform="translate(870.699219 0)"/>
    <use xlink:href="#DejaVuSans-66" transform="translate(902.486328 0)"/>
    <use xlink:href="#DejaVuSans-6f" transform="translate(937.691406 0)"/>
    <use xlink:href="#DejaVuSans-6c" transform="translate(998.873047 0)"/>
    <use xlink:href="#DejaVuSans-64" transform="translate(1026.65625 0)"/>
    <use xlink:href="#DejaVuSans-73" transform="translate(1090.132812 0)"/>
    <use xlink:href="#DejaVuSans-65" transform="translate(1142.232422 0)"/>
    <use xlink:href="#DejaVuSans-65" transform="translate(1203.755859 0)"/>
    <use xlink:href="#DejaVuSans-6b" transform="translate(1265.279297 0)"/>
    <use xlink:href="#DejaVuSans-62" transform="translate(1323.189453 0)"/>
    <use xlink:href="#DejaVuSans-2e" transform="translate(1386.666016 0)"/>
    <use xlink:href="#DejaVuSans-73" transform="translate(1418.453125 0)"/>
    <use xlink:href="#DejaVuSans-76" transform="translate(1470.552734 0)"/>
    <use xlink:href="#DejaVuSans-67" transform="translate(1529.732422 0)"/>
   </g>
  </g>
 </g>
 <defs>
  <clipPath id="p866f7d9ee5">
   <rect x="33.73" y="25.44" width="328.44773" height="227.199481"/>
  </clipPath>
  <clipPath id="paab6730148">
   <rect x="403.978076" y="25.44" width="328.44773" height="227.199481"/>
  </clipPath>
 </defs>
</svg>
