<?xml version="1.0" encoding="utf-8" standalone="no"?>
<!DOCTYPE svg PUBLIC "-//W3C//DTD SVG 1.1//EN"
  "http://www.w3.org/Graphics/SVG/1.1/DTD/svg11.dtd">
<svg xmlns:xlink="http://www.w3.org/1999/xlink" width="743.225806pt" height="280.519481pt" viewBox="0 0 743.225806 280.519481" xmlns="http://www.w3.org/2000/svg" version="1.1">
 <metadata>
  <rdf:RDF xmlns:dc="http://purl.org/dc/elements/1.1/" xmlns:cc="http://creativecommons.org/ns#" xmlns:rdf="http://www.w3.org/1999/02/22-rdf-syntax-ns#">
   <cc:Work>
    <dc:type rdf:resource="http://purl.org/dc/dcmitype/StillImage"/>
    <dc:date>2025-05-29T12:14:24.418241</dc:date>
    <dc:format>image/svg+xml</dc:format>
    <dc:creator>
     <cc:Agent>
      <dc:title>Matplotlib v3.10.3, https://matplotlib.org/</dc:title>
     </cc:Agent>
    </dc:creator>
   </cc:Work>
  </rdf:RDF>
 </metadata>
 <defs>
  <style type="text/css">*{stroke-linejoin: round; stroke-linecap: butt}</style>
 </defs>
 <g id="figure_1">
  <g id="patch_1">
   <path d="M 0 280.519481 
L 743.225806 280.519481 
L 743.225806 0 
L 0 0 
z
" style="fill: #ffffff"/>
  </g>
  <g id="axes_1">
   <g id="patch_2">
    <path d="M 33.73 252.639481 
L 354.21273 252.639481 
L 354.21273 25.44 
L 33.73 25.44 
z
" style="fill: #ffffff"/>
   </g>
   <g id="matplotlib.axis_1">
    <g id="xtick_1">
     <g id="line2d_1">
      <defs>
       <path id="mc3479c4eb5" d="M 0 0 
L 0 3.5 
" style="stroke: #000000; stroke-width: 0.8"/>
      </defs>
      <g>
       <use xlink:href="#mc3479c4eb5" x="33.73" y="252.639481" style="stroke: #000000; stroke-width: 0.8"/>
      </g>
     </g>
     <g id="text_1">
      <!-- 0.2 -->
      <g transform="translate(25.778438 267.237918) scale(0.1 -0.1)">
       <defs>
        <path id="DejaVuSans-30" d="M 2034 4250 
Q 1547 4250 1301 3770 
Q 1056 3291 1056 2328 
Q 1056 1369 1301 889 
Q 1547 409 2034 409 
Q 2525 409 2770 889 
Q 3016 1369 3016 2328 
Q 3016 3291 2770 3770 
Q 2525 4250 2034 4250 
z
M 2034 4750 
Q 2819 4750 3233 4129 
Q 3647 3509 3647 2328 
Q 3647 1150 3233 529 
Q 2819 -91 2034 -91 
Q 1250 -91 836 529 
Q 422 1150 422 2328 
Q 422 3509 836 4129 
Q 1250 4750 2034 4750 
z
" transform="scale(0.015625)"/>
        <path id="DejaVuSans-2e" d="M 684 794 
L 1344 794 
L 1344 0 
L 684 0 
L 684 794 
z
" transform="scale(0.015625)"/>
        <path id="DejaVuSans-32" d="M 1228 531 
L 3431 531 
L 3431 0 
L 469 0 
L 469 531 
Q 828 903 1448 1529 
Q 2069 2156 2228 2338 
Q 2531 2678 2651 2914 
Q 2772 3150 2772 3378 
Q 2772 3750 2511 3984 
Q 2250 4219 1831 4219 
Q 1534 4219 1204 4116 
Q 875 4013 500 3803 
L 500 4441 
Q 881 4594 1212 4672 
Q 1544 4750 1819 4750 
Q 2544 4750 2975 4387 
Q 3406 4025 3406 3419 
Q 3406 3131 3298 2873 
Q 3191 2616 2906 2266 
Q 2828 2175 2409 1742 
Q 1991 1309 1228 531 
z
" transform="scale(0.015625)"/>
       </defs>
       <use xlink:href="#DejaVuSans-30"/>
       <use xlink:href="#DejaVuSans-2e" transform="translate(63.623047 0)"/>
       <use xlink:href="#DejaVuSans-32" transform="translate(95.410156 0)"/>
      </g>
     </g>
    </g>
    <g id="xtick_2">
     <g id="line2d_2">
      <g>
       <use xlink:href="#mc3479c4eb5" x="97.826546" y="252.639481" style="stroke: #000000; stroke-width: 0.8"/>
      </g>
     </g>
     <g id="text_2">
      <!-- 0.3 -->
      <g transform="translate(89.874984 267.237918) scale(0.1 -0.1)">
       <defs>
        <path id="DejaVuSans-33" d="M 2597 2516 
Q 3050 2419 3304 2112 
Q 3559 1806 3559 1356 
Q 3559 666 3084 287 
Q 2609 -91 1734 -91 
Q 1441 -91 1130 -33 
Q 819 25 488 141 
L 488 750 
Q 750 597 1062 519 
Q 1375 441 1716 441 
Q 2309 441 2620 675 
Q 2931 909 2931 1356 
Q 2931 1769 2642 2001 
Q 2353 2234 1838 2234 
L 1294 2234 
L 1294 2753 
L 1863 2753 
Q 2328 2753 2575 2939 
Q 2822 3125 2822 3475 
Q 2822 3834 2567 4026 
Q 2313 4219 1838 4219 
Q 1578 4219 1281 4162 
Q 984 4106 628 3988 
L 628 4550 
Q 988 4650 1302 4700 
Q 1616 4750 1894 4750 
Q 2613 4750 3031 4423 
Q 3450 4097 3450 3541 
Q 3450 3153 3228 2886 
Q 3006 2619 2597 2516 
z
" transform="scale(0.015625)"/>
       </defs>
       <use xlink:href="#DejaVuSans-30"/>
       <use xlink:href="#DejaVuSans-2e" transform="translate(63.623047 0)"/>
       <use xlink:href="#DejaVuSans-33" transform="translate(95.410156 0)"/>
      </g>
     </g>
    </g>
    <g id="xtick_3">
     <g id="line2d_3">
      <g>
       <use xlink:href="#mc3479c4eb5" x="161.923092" y="252.639481" style="stroke: #000000; stroke-width: 0.8"/>
      </g>
     </g>
     <g id="text_3">
      <!-- 0.4 -->
      <g transform="translate(153.97153 267.237918) scale(0.1 -0.1)">
       <defs>
        <path id="DejaVuSans-34" d="M 2419 4116 
L 825 1625 
L 2419 1625 
L 2419 4116 
z
M 2253 4666 
L 3047 4666 
L 3047 1625 
L 3713 1625 
L 3713 1100 
L 3047 1100 
L 3047 0 
L 2419 0 
L 2419 1100 
L 313 1100 
L 313 1709 
L 2253 4666 
z
" transform="scale(0.015625)"/>
       </defs>
       <use xlink:href="#DejaVuSans-30"/>
       <use xlink:href="#DejaVuSans-2e" transform="translate(63.623047 0)"/>
       <use xlink:href="#DejaVuSans-34" transform="translate(95.410156 0)"/>
      </g>
     </g>
    </g>
    <g id="xtick_4">
     <g id="line2d_4">
      <g>
       <use xlink:href="#mc3479c4eb5" x="226.019638" y="252.639481" style="stroke: #000000; stroke-width: 0.8"/>
      </g>
     </g>
     <g id="text_4">
      <!-- 0.5 -->
      <g transform="translate(218.068076 267.237918) scale(0.1 -0.1)">
       <defs>
        <path id="DejaVuSans-35" d="M 691 4666 
L 3169 4666 
L 3169 4134 
L 1269 4134 
L 1269 2991 
Q 1406 3038 1543 3061 
Q 1681 3084 1819 3084 
Q 2600 3084 3056 2656 
Q 3513 2228 3513 1497 
Q 3513 744 3044 326 
Q 2575 -91 1722 -91 
Q 1428 -91 1123 -41 
Q 819 9 494 109 
L 494 744 
Q 775 591 1075 516 
Q 1375 441 1709 441 
Q 2250 441 2565 725 
Q 2881 1009 2881 1497 
Q 2881 1984 2565 2268 
Q 2250 2553 1709 2553 
Q 1456 2553 1204 2497 
Q 953 2441 691 2322 
L 691 4666 
z
" transform="scale(0.015625)"/>
       </defs>
       <use xlink:href="#DejaVuSans-30"/>
       <use xlink:href="#DejaVuSans-2e" transform="translate(63.623047 0)"/>
       <use xlink:href="#DejaVuSans-35" transform="translate(95.410156 0)"/>
      </g>
     </g>
    </g>
    <g id="xtick_5">
     <g id="line2d_5">
      <g>
       <use xlink:href="#mc3479c4eb5" x="290.116184" y="252.639481" style="stroke: #000000; stroke-width: 0.8"/>
      </g>
     </g>
     <g id="text_5">
      <!-- 0.6 -->
      <g transform="translate(282.164622 267.237918) scale(0.1 -0.1)">
       <defs>
        <path id="DejaVuSans-36" d="M 2113 2584 
Q 1688 2584 1439 2293 
Q 1191 2003 1191 1497 
Q 1191 994 1439 701 
Q 1688 409 2113 409 
Q 2538 409 2786 701 
Q 3034 994 3034 1497 
Q 3034 2003 2786 2293 
Q 2538 2584 2113 2584 
z
M 3366 4563 
L 3366 3988 
Q 3128 4100 2886 4159 
Q 2644 4219 2406 4219 
Q 1781 4219 1451 3797 
Q 1122 3375 1075 2522 
Q 1259 2794 1537 2939 
Q 1816 3084 2150 3084 
Q 2853 3084 3261 2657 
Q 3669 2231 3669 1497 
Q 3669 778 3244 343 
Q 2819 -91 2113 -91 
Q 1303 -91 875 529 
Q 447 1150 447 2328 
Q 447 3434 972 4092 
Q 1497 4750 2381 4750 
Q 2619 4750 2861 4703 
Q 3103 4656 3366 4563 
z
" transform="scale(0.015625)"/>
       </defs>
       <use xlink:href="#DejaVuSans-30"/>
       <use xlink:href="#DejaVuSans-2e" transform="translate(63.623047 0)"/>
       <use xlink:href="#DejaVuSans-36" transform="translate(95.410156 0)"/>
      </g>
     </g>
    </g>
    <g id="xtick_6">
     <g id="line2d_6">
      <g>
       <use xlink:href="#mc3479c4eb5" x="354.21273" y="252.639481" style="stroke: #000000; stroke-width: 0.8"/>
      </g>
     </g>
     <g id="text_6">
      <!-- 0.7 -->
      <g transform="translate(346.261168 267.237918) scale(0.1 -0.1)">
       <defs>
        <path id="DejaVuSans-37" d="M 525 4666 
L 3525 4666 
L 3525 4397 
L 1831 0 
L 1172 0 
L 2766 4134 
L 525 4134 
L 525 4666 
z
" transform="scale(0.015625)"/>
       </defs>
       <use xlink:href="#DejaVuSans-30"/>
       <use xlink:href="#DejaVuSans-2e" transform="translate(63.623047 0)"/>
       <use xlink:href="#DejaVuSans-37" transform="translate(95.410156 0)"/>
      </g>
     </g>
    </g>
   </g>
   <g id="matplotlib.axis_2">
    <g id="ytick_1">
     <g id="line2d_7">
      <defs>
       <path id="m96a940158b" d="M 0 0 
L -3.5 0 
" style="stroke: #000000; stroke-width: 0.8"/>
      </defs>
      <g>
       <use xlink:href="#m96a940158b" x="33.73" y="242.312231" style="stroke: #000000; stroke-width: 0.8"/>
      </g>
     </g>
     <g id="text_7">
      <!-- 0.0 -->
      <g transform="translate(10.826875 246.11145) scale(0.1 -0.1)">
       <use xlink:href="#DejaVuSans-30"/>
       <use xlink:href="#DejaVuSans-2e" transform="translate(63.623047 0)"/>
       <use xlink:href="#DejaVuSans-30" transform="translate(95.410156 0)"/>
      </g>
     </g>
    </g>
    <g id="ytick_2">
     <g id="line2d_8">
      <g>
       <use xlink:href="#m96a940158b" x="33.73" y="200.853985" style="stroke: #000000; stroke-width: 0.8"/>
      </g>
     </g>
     <g id="text_8">
      <!-- 0.2 -->
      <g transform="translate(10.826875 204.653204) scale(0.1 -0.1)">
       <use xlink:href="#DejaVuSans-30"/>
       <use xlink:href="#DejaVuSans-2e" transform="translate(63.623047 0)"/>
       <use xlink:href="#DejaVuSans-32" transform="translate(95.410156 0)"/>
      </g>
     </g>
    </g>
    <g id="ytick_3">
     <g id="line2d_9">
      <g>
       <use xlink:href="#m96a940158b" x="33.73" y="159.395739" style="stroke: #000000; stroke-width: 0.8"/>
      </g>
     </g>
     <g id="text_9">
      <!-- 0.4 -->
      <g transform="translate(10.826875 163.194958) scale(0.1 -0.1)">
       <use xlink:href="#DejaVuSans-30"/>
       <use xlink:href="#DejaVuSans-2e" transform="translate(63.623047 0)"/>
       <use xlink:href="#DejaVuSans-34" transform="translate(95.410156 0)"/>
      </g>
     </g>
    </g>
    <g id="ytick_4">
     <g id="line2d_10">
      <g>
       <use xlink:href="#m96a940158b" x="33.73" y="117.937493" style="stroke: #000000; stroke-width: 0.8"/>
      </g>
     </g>
     <g id="text_10">
      <!-- 0.6 -->
      <g transform="translate(10.826875 121.736712) scale(0.1 -0.1)">
       <use xlink:href="#DejaVuSans-30"/>
       <use xlink:href="#DejaVuSans-2e" transform="translate(63.623047 0)"/>
       <use xlink:href="#DejaVuSans-36" transform="translate(95.410156 0)"/>
      </g>
     </g>
    </g>
    <g id="ytick_5">
     <g id="line2d_11">
      <g>
       <use xlink:href="#m96a940158b" x="33.73" y="76.479247" style="stroke: #000000; stroke-width: 0.8"/>
      </g>
     </g>
     <g id="text_11">
      <!-- 0.8 -->
      <g transform="translate(10.826875 80.278465) scale(0.1 -0.1)">
       <defs>
        <path id="DejaVuSans-38" d="M 2034 2216 
Q 1584 2216 1326 1975 
Q 1069 1734 1069 1313 
Q 1069 891 1326 650 
Q 1584 409 2034 409 
Q 2484 409 2743 651 
Q 3003 894 3003 1313 
Q 3003 1734 2745 1975 
Q 2488 2216 2034 2216 
z
M 1403 2484 
Q 997 2584 770 2862 
Q 544 3141 544 3541 
Q 544 4100 942 4425 
Q 1341 4750 2034 4750 
Q 2731 4750 3128 4425 
Q 3525 4100 3525 3541 
Q 3525 3141 3298 2862 
Q 3072 2584 2669 2484 
Q 3125 2378 3379 2068 
Q 3634 1759 3634 1313 
Q 3634 634 3220 271 
Q 2806 -91 2034 -91 
Q 1263 -91 848 271 
Q 434 634 434 1313 
Q 434 1759 690 2068 
Q 947 2378 1403 2484 
z
M 1172 3481 
Q 1172 3119 1398 2916 
Q 1625 2713 2034 2713 
Q 2441 2713 2670 2916 
Q 2900 3119 2900 3481 
Q 2900 3844 2670 4047 
Q 2441 4250 2034 4250 
Q 1625 4250 1398 4047 
Q 1172 3844 1172 3481 
z
" transform="scale(0.015625)"/>
       </defs>
       <use xlink:href="#DejaVuSans-30"/>
       <use xlink:href="#DejaVuSans-2e" transform="translate(63.623047 0)"/>
       <use xlink:href="#DejaVuSans-38" transform="translate(95.410156 0)"/>
      </g>
     </g>
    </g>
    <g id="ytick_6">
     <g id="line2d_12">
      <g>
       <use xlink:href="#m96a940158b" x="33.73" y="35.021" style="stroke: #000000; stroke-width: 0.8"/>
      </g>
     </g>
     <g id="text_12">
      <!-- 1.0 -->
      <g transform="translate(10.826875 38.820219) scale(0.1 -0.1)">
       <defs>
        <path id="DejaVuSans-31" d="M 794 531 
L 1825 531 
L 1825 4091 
L 703 3866 
L 703 4441 
L 1819 4666 
L 2450 4666 
L 2450 531 
L 3481 531 
L 3481 0 
L 794 0 
L 794 531 
z
" transform="scale(0.015625)"/>
       </defs>
       <use xlink:href="#DejaVuSans-31"/>
       <use xlink:href="#DejaVuSans-2e" transform="translate(63.623047 0)"/>
       <use xlink:href="#DejaVuSans-30" transform="translate(95.410156 0)"/>
      </g>
     </g>
    </g>
   </g>
   <g id="line2d_13">
    <path d="M -1 35.767249 
L 2.643175 35.767249 
L 9.116926 35.767249 
L 15.590677 35.767249 
L 22.064429 35.787982 
L 28.53818 35.787982 
L 35.011931 35.808702 
L 41.485682 35.808702 
L 47.959433 35.850167 
L 54.433184 35.89162 
L 60.906936 35.974538 
L 67.380687 36.078188 
L 73.854438 36.244024 
L 80.328189 36.472045 
L 86.80194 36.803704 
L 93.275691 37.239014 
L 99.749442 37.819427 
L 106.223194 38.565676 
L 112.696945 39.539945 
L 119.170696 40.742236 
L 125.644447 42.234734 
L 132.118198 44.079623 
L 138.591949 46.297649 
L 145.0657 48.950972 
L 151.539452 52.08107 
L 158.013203 55.750128 
L 164.486954 59.875217 
L 170.960705 64.518545 
L 177.434456 69.555717 
L 183.908207 74.924561 
L 190.381958 80.542159 
L 196.85571 86.387766 
L 203.329461 92.461406 
L 209.803212 98.70087 
L 216.276963 105.189087 
L 222.750714 111.739489 
L 229.288562 118.497181 
L 235.762313 125.379242 
L 242.236064 132.551523 
L 248.709815 139.993278 
L 255.183567 147.766704 
L 261.657318 156.037619 
L 268.131069 164.930418 
L 274.60482 173.86467 
L 281.078571 182.798922 
L 287.552322 191.878274 
L 294.026073 200.252839 
L 300.499825 207.590949 
L 306.973576 213.457292 
L 313.447327 218.805406 
L 319.921078 223.396906 
L 326.394829 227.039014 
L 332.86858 229.806351 
L 339.342331 232.038878 
L 345.816083 233.798781 
L 352.289834 235.20007 
L 358.763585 236.454181 
L 365.237336 237.455398 
L 371.711087 238.243105 
L 378.184838 239.070197 
L 384.65859 239.575987 
L 391.132341 240.24077 
L 397.606092 240.62032 
L 404.079843 240.890421 
L 410.553594 241.257534 
L 417.027345 241.480579 
L 423.501096 241.766019 
L 429.974848 241.927292 
L 436.448599 242.007721 
L 442.92235 242.151788 
L 449.396101 242.160619 
L 455.869852 242.220733 
L 462.343603 242.255931 
L 468.817354 242.242271 
L 475.291106 242.312231 
L 481.764857 242.312231 
L 488.238608 242.312231 
L 494.712359 242.312231 
L 501.18611 242.312231 
L 507.659861 242.312231 
L 514.133613 242.312231 
L 520.607364 242.312231 
L 527.081115 242.312231 
L 533.554866 242.312231 
L 540.028617 242.312231 
L 546.502368 242.312231 
" clip-path="url(#p3573392645)" style="fill: none; stroke: #000000; stroke-width: 1.5; stroke-linecap: square"/>
   </g>
   <g id="line2d_14">
    <path d="M -1 35.912352 
L 2.643175 35.912352 
L 9.116926 35.912352 
L 15.590677 35.912352 
L 22.064429 35.912352 
L 28.53818 35.912352 
L 35.011931 35.933085 
L 41.485682 35.933085 
L 47.959433 35.953805 
L 54.433184 36.016003 
L 60.906936 36.078188 
L 67.380687 36.202559 
L 73.854438 36.368395 
L 80.328189 36.637868 
L 86.80194 36.990273 
L 93.275691 37.487768 
L 99.749442 38.192551 
L 106.223194 39.104636 
L 112.696945 40.286194 
L 119.170696 41.820157 
L 125.644447 43.747964 
L 132.118198 46.131813 
L 138.591949 49.054623 
L 145.0657 52.557833 
L 151.539452 56.724398 
L 158.013203 61.575003 
L 164.486954 67.08895 
L 170.960705 73.245508 
L 177.434456 79.920281 
L 183.908207 86.864541 
L 190.381958 93.953903 
L 196.85571 101.063986 
L 203.329461 108.153349 
L 209.803212 115.035411 
L 216.276963 121.793114 
L 222.750714 128.48862 
L 229.288562 135.308497 
L 235.762313 142.397859 
L 242.236064 149.694511 
L 248.709815 157.343554 
L 255.183567 165.324268 
L 261.657318 173.574457 
L 268.131069 182.446524 
L 274.60482 191.546608 
L 281.078571 200.211383 
L 287.552322 208.855426 
L 294.026073 216.380098 
L 300.499825 222.495189 
L 306.973576 227.130222 
L 313.447327 230.931942 
L 319.921078 233.649531 
L 326.394829 235.902786 
L 332.86858 237.453325 
L 339.342331 238.802791 
L 345.816083 239.762549 
L 352.289834 240.381106 
L 358.763585 240.947841 
L 365.237336 241.310186 
L 371.711087 241.553131 
L 378.184838 241.778664 
L 384.65859 241.868214 
L 391.132341 242.005026 
L 397.606092 242.146564 
L 404.079843 242.16578 
L 410.553594 242.312231 
L 417.027345 242.312231 
L 423.501096 242.312231 
L 429.974848 242.312231 
L 436.448599 242.312231 
L 442.92235 242.312231 
L 449.396101 242.312231 
L 455.869852 242.312231 
L 462.343603 242.312231 
L 468.817354 242.312231 
L 475.291106 242.312231 
L 481.764857 242.312231 
L 488.238608 242.312231 
L 494.712359 242.312231 
L 501.18611 242.312231 
L 507.659861 242.312231 
L 514.133613 242.312231 
L 520.607364 242.312231 
L 527.081115 242.312231 
L 533.554866 242.312231 
L 540.028617 242.312231 
L 546.502368 242.312231 
" clip-path="url(#p3573392645)" style="fill: none; stroke: #00ffff; stroke-width: 1.5; stroke-linecap: square"/>
   </g>
   <g id="line2d_15">
    <path d="M -1 36.679334 
L 2.643175 36.679334 
L 9.116926 36.679334 
L 15.590677 36.679334 
L 22.064429 36.679334 
L 28.53818 36.886622 
L 35.011931 36.886622 
L 41.485682 36.886622 
L 47.959433 36.886622 
L 54.433184 37.093911 
L 60.906936 37.301199 
L 67.380687 37.5085 
L 73.854438 37.923077 
L 80.328189 38.337654 
L 86.80194 39.166821 
L 93.275691 40.203276 
L 99.749442 41.447032 
L 106.223194 43.105353 
L 112.696945 45.178276 
L 119.170696 47.665763 
L 125.644447 50.56784 
L 132.118198 54.091795 
L 138.591949 58.237616 
L 145.0657 63.005315 
L 151.539452 68.60218 
L 158.013203 74.820911 
L 164.486954 81.661532 
L 170.960705 89.124007 
L 177.434456 97.208372 
L 183.908207 105.707314 
L 190.381958 114.413545 
L 196.85571 123.741642 
L 203.329461 133.069751 
L 209.803212 142.605148 
L 216.276963 152.34784 
L 222.750714 161.883231 
L 229.288562 171.418629 
L 235.762313 180.332154 
L 242.236064 188.623802 
L 248.709815 195.878994 
L 255.183567 202.097731 
L 261.657318 207.694597 
L 268.131069 212.669584 
L 274.60482 216.608119 
L 281.078571 219.924778 
L 287.552322 223.179251 
L 294.026073 225.998412 
L 300.499825 228.237156 
L 306.973576 230.144236 
L 313.447327 232.113503 
L 319.921078 234.041311 
L 326.394829 235.616725 
L 332.86858 236.819014 
L 339.342331 237.772553 
L 345.816083 238.601718 
L 352.289834 239.223592 
L 358.763585 239.783278 
L 365.237336 240.177132 
L 371.711087 240.54611 
L 378.184838 240.915088 
L 384.65859 241.153473 
L 391.132341 241.422952 
L 397.606092 241.555618 
L 404.079843 241.66341 
L 410.553594 241.81266 
L 417.027345 241.924597 
L 423.501096 242.059336 
L 429.974848 242.126913 
L 436.448599 242.124633 
L 442.92235 242.204025 
L 449.396101 242.216463 
L 455.869852 242.273053 
L 462.343603 242.263518 
L 468.817354 242.251495 
L 475.291106 242.312231 
L 481.764857 242.312231 
L 488.238608 242.312231 
L 494.712359 242.312231 
L 501.18611 242.312231 
L 507.659861 242.312231 
L 514.133613 242.312231 
L 520.607364 242.312231 
L 527.081115 242.312231 
L 533.554866 242.312231 
L 540.028617 242.312231 
L 546.502368 242.312231 
" clip-path="url(#p3573392645)" style="fill: none; stroke: #ffa500; stroke-width: 1.5; stroke-linecap: square"/>
   </g>
   <g id="line2d_16">
    <path d="M -1 37.923077 
L 2.643175 37.923077 
L 9.116926 37.923077 
L 15.590677 37.923077 
L 22.064429 37.923077 
L 28.53818 37.923077 
L 35.011931 37.923077 
L 41.485682 38.130366 
L 47.959433 38.130366 
L 54.433184 38.337654 
L 60.906936 38.752244 
L 67.380687 39.166821 
L 73.854438 39.581411 
L 80.328189 40.617866 
L 86.80194 41.861609 
L 93.275691 43.519943 
L 99.749442 45.592853 
L 106.223194 48.49493 
L 112.696945 52.018885 
L 119.170696 56.371994 
L 125.644447 61.554282 
L 132.118198 67.773013 
L 138.591949 75.028212 
L 145.0657 83.112565 
L 151.539452 92.026084 
L 158.013203 101.768782 
L 164.486954 111.926045 
L 170.960705 122.083321 
L 177.434456 131.826007 
L 183.908207 141.361404 
L 190.381958 150.274924 
L 196.85571 158.359283 
L 203.329461 166.029058 
L 209.803212 172.662379 
L 216.276963 178.881116 
L 222.750714 184.68527 
L 229.288562 189.867552 
L 235.762313 194.842539 
L 242.236064 199.817529 
L 248.709815 204.585228 
L 255.183567 209.145635 
L 261.657318 213.706042 
L 268.131069 218.266449 
L 274.60482 222.391544 
L 281.078571 225.998412 
L 287.552322 229.377259 
L 294.026073 232.40371 
L 300.499825 234.600998 
L 306.973576 236.487348 
L 313.447327 237.938387 
L 319.921078 239.057759 
L 326.394829 239.824737 
L 332.86858 240.41759 
L 339.342331 240.966911 
L 345.816083 241.319306 
L 352.289834 241.605368 
L 358.763585 241.866555 
L 365.237336 242.046899 
L 371.711087 242.057263 
L 378.184838 242.12712 
L 384.65859 242.157799 
L 391.132341 242.18682 
L 397.606092 242.204025 
L 404.079843 242.189515 
L 410.553594 242.195734 
L 417.027345 242.203404 
L 423.501096 242.221852 
L 429.974848 242.240716 
L 436.448599 242.274919 
L 442.92235 242.312231 
L 449.396101 242.312231 
L 455.869852 242.312231 
L 462.343603 242.312231 
L 468.817354 242.312231 
L 475.291106 242.312231 
L 481.764857 242.312231 
L 488.238608 242.312231 
L 494.712359 242.312231 
L 501.18611 242.312231 
L 507.659861 242.312231 
L 514.133613 242.312231 
L 520.607364 242.312231 
L 527.081115 242.312231 
L 533.554866 242.312231 
L 540.028617 242.312231 
L 546.502368 242.312231 
" clip-path="url(#p3573392645)" style="fill: none; stroke-dasharray: 5.55,2.4; stroke-dashoffset: 0; stroke: #ffa500; stroke-width: 1.5"/>
   </g>
   <g id="line2d_17">
    <path d="M -1 39.995988 
L 2.643175 39.995988 
L 9.116926 39.995988 
L 15.590677 39.995988 
L 22.064429 39.995988 
L 28.53818 39.995988 
L 35.011931 39.995988 
L 41.485682 40.203276 
L 47.959433 40.410577 
L 54.433184 40.617866 
L 60.906936 41.032443 
L 67.380687 41.861609 
L 73.854438 42.898065 
L 80.328189 44.349109 
L 86.80194 46.214731 
L 93.275691 48.909507 
L 99.749442 52.640751 
L 106.223194 57.201161 
L 112.696945 63.212603 
L 119.170696 70.467802 
L 125.644447 79.174033 
L 132.118198 89.124007 
L 138.591949 100.317738 
L 145.0657 112.547923 
L 151.539452 125.192686 
L 158.013203 138.044738 
L 164.486954 150.482218 
L 170.960705 161.883231 
L 177.434456 172.247795 
L 183.908207 181.575898 
L 190.381958 189.452968 
L 196.85571 196.086286 
L 203.329461 201.683151 
L 209.803212 206.45085 
L 216.276963 210.803965 
L 222.750714 214.327914 
L 229.288562 217.437284 
L 235.762313 219.924778 
L 242.236064 222.101337 
L 248.709815 223.987687 
L 255.183567 225.666745 
L 261.657318 227.221429 
L 268.131069 228.755386 
L 274.60482 230.123507 
L 281.078571 231.574545 
L 287.552322 233.067043 
L 294.026073 234.497352 
L 300.499825 235.906932 
L 306.973576 237.047034 
L 313.447327 238.124949 
L 319.921078 239.03703 
L 326.394829 239.804008 
L 332.86858 240.427954 
L 339.342331 240.780349 
L 345.816083 241.070557 
L 352.289834 241.28614 
L 358.763585 241.518306 
L 365.237336 241.698649 
L 371.711087 241.82717 
L 378.184838 241.999222 
L 384.65859 242.084211 
L 391.132341 242.16008 
L 397.606092 242.197807 
L 404.079843 242.235534 
L 410.553594 242.259165 
L 417.027345 242.272224 
L 423.501096 242.290051 
L 429.974848 242.28632 
L 436.448599 242.282174 
L 442.92235 242.312231 
L 449.396101 242.312231 
L 455.869852 242.312231 
L 462.343603 242.312231 
L 468.817354 242.312231 
L 475.291106 242.312231 
L 481.764857 242.312231 
L 488.238608 242.312231 
L 494.712359 242.312231 
L 501.18611 242.312231 
L 507.659861 242.312231 
L 514.133613 242.312231 
L 520.607364 242.312231 
L 527.081115 242.312231 
L 533.554866 242.312231 
L 540.028617 242.312231 
L 546.502368 242.312231 
" clip-path="url(#p3573392645)" style="fill: none; stroke-dasharray: 1.5,2.475; stroke-dashoffset: 0; stroke: #ffa500; stroke-width: 1.5"/>
   </g>
   <g id="patch_3">
    <path d="M 33.73 252.639481 
L 33.73 25.44 
" style="fill: none; stroke: #000000; stroke-width: 0.8; stroke-linejoin: miter; stroke-linecap: square"/>
   </g>
   <g id="patch_4">
    <path d="M 354.21273 252.639481 
L 354.21273 25.44 
" style="fill: none; stroke: #000000; stroke-width: 0.8; stroke-linejoin: miter; stroke-linecap: square"/>
   </g>
   <g id="patch_5">
    <path d="M 33.73 252.639481 
L 354.21273 252.639481 
" style="fill: none; stroke: #000000; stroke-width: 0.8; stroke-linejoin: miter; stroke-linecap: square"/>
   </g>
   <g id="patch_6">
    <path d="M 33.73 25.44 
L 354.21273 25.44 
" style="fill: none; stroke: #000000; stroke-width: 0.8; stroke-linejoin: miter; stroke-linecap: square"/>
   </g>
   <g id="text_13">
    <!-- TM-align -->
    <g transform="translate(168.342928 19.44) scale(0.12 -0.12)">
     <defs>
      <path id="DejaVuSans-54" d="M -19 4666 
L 3928 4666 
L 3928 4134 
L 2272 4134 
L 2272 0 
L 1638 0 
L 1638 4134 
L -19 4134 
L -19 4666 
z
" transform="scale(0.015625)"/>
      <path id="DejaVuSans-4d" d="M 628 4666 
L 1569 4666 
L 2759 1491 
L 3956 4666 
L 4897 4666 
L 4897 0 
L 4281 0 
L 4281 4097 
L 3078 897 
L 2444 897 
L 1241 4097 
L 1241 0 
L 628 0 
L 628 4666 
z
" transform="scale(0.015625)"/>
      <path id="DejaVuSans-2d" d="M 313 2009 
L 1997 2009 
L 1997 1497 
L 313 1497 
L 313 2009 
z
" transform="scale(0.015625)"/>
      <path id="DejaVuSans-61" d="M 2194 1759 
Q 1497 1759 1228 1600 
Q 959 1441 959 1056 
Q 959 750 1161 570 
Q 1363 391 1709 391 
Q 2188 391 2477 730 
Q 2766 1069 2766 1631 
L 2766 1759 
L 2194 1759 
z
M 3341 1997 
L 3341 0 
L 2766 0 
L 2766 531 
Q 2569 213 2275 61 
Q 1981 -91 1556 -91 
Q 1019 -91 701 211 
Q 384 513 384 1019 
Q 384 1609 779 1909 
Q 1175 2209 1959 2209 
L 2766 2209 
L 2766 2266 
Q 2766 2663 2505 2880 
Q 2244 3097 1772 3097 
Q 1472 3097 1187 3025 
Q 903 2953 641 2809 
L 641 3341 
Q 956 3463 1253 3523 
Q 1550 3584 1831 3584 
Q 2591 3584 2966 3190 
Q 3341 2797 3341 1997 
z
" transform="scale(0.015625)"/>
      <path id="DejaVuSans-6c" d="M 603 4863 
L 1178 4863 
L 1178 0 
L 603 0 
L 603 4863 
z
" transform="scale(0.015625)"/>
      <path id="DejaVuSans-69" d="M 603 3500 
L 1178 3500 
L 1178 0 
L 603 0 
L 603 3500 
z
M 603 4863 
L 1178 4863 
L 1178 4134 
L 603 4134 
L 603 4863 
z
" transform="scale(0.015625)"/>
      <path id="DejaVuSans-67" d="M 2906 1791 
Q 2906 2416 2648 2759 
Q 2391 3103 1925 3103 
Q 1463 3103 1205 2759 
Q 947 2416 947 1791 
Q 947 1169 1205 825 
Q 1463 481 1925 481 
Q 2391 481 2648 825 
Q 2906 1169 2906 1791 
z
M 3481 434 
Q 3481 -459 3084 -895 
Q 2688 -1331 1869 -1331 
Q 1566 -1331 1297 -1286 
Q 1028 -1241 775 -1147 
L 775 -588 
Q 1028 -725 1275 -790 
Q 1522 -856 1778 -856 
Q 2344 -856 2625 -561 
Q 2906 -266 2906 331 
L 2906 616 
Q 2728 306 2450 153 
Q 2172 0 1784 0 
Q 1141 0 747 490 
Q 353 981 353 1791 
Q 353 2603 747 3093 
Q 1141 3584 1784 3584 
Q 2172 3584 2450 3431 
Q 2728 3278 2906 2969 
L 2906 3500 
L 3481 3500 
L 3481 434 
z
" transform="scale(0.015625)"/>
      <path id="DejaVuSans-6e" d="M 3513 2113 
L 3513 0 
L 2938 0 
L 2938 2094 
Q 2938 2591 2744 2837 
Q 2550 3084 2163 3084 
Q 1697 3084 1428 2787 
Q 1159 2491 1159 1978 
L 1159 0 
L 581 0 
L 581 3500 
L 1159 3500 
L 1159 2956 
Q 1366 3272 1645 3428 
Q 1925 3584 2291 3584 
Q 2894 3584 3203 3211 
Q 3513 2838 3513 2113 
z
" transform="scale(0.015625)"/>
     </defs>
     <use xlink:href="#DejaVuSans-54"/>
     <use xlink:href="#DejaVuSans-4d" transform="translate(61.083984 0)"/>
     <use xlink:href="#DejaVuSans-2d" transform="translate(147.363281 0)"/>
     <use xlink:href="#DejaVuSans-61" transform="translate(183.447266 0)"/>
     <use xlink:href="#DejaVuSans-6c" transform="translate(244.726562 0)"/>
     <use xlink:href="#DejaVuSans-69" transform="translate(272.509766 0)"/>
     <use xlink:href="#DejaVuSans-67" transform="translate(300.292969 0)"/>
     <use xlink:href="#DejaVuSans-6e" transform="translate(363.769531 0)"/>
    </g>
   </g>
   <g id="legend_1">
    <g id="patch_7">
     <path d="M 253.423668 106.830625 
L 347.21273 106.830625 
Q 349.21273 106.830625 349.21273 104.830625 
L 349.21273 32.44 
Q 349.21273 30.44 347.21273 30.44 
L 253.423668 30.44 
Q 251.423668 30.44 251.423668 32.44 
L 251.423668 104.830625 
Q 251.423668 106.830625 253.423668 106.830625 
z
" style="fill: #ffffff; opacity: 0.8; stroke: #cccccc; stroke-linejoin: miter"/>
    </g>
    <g id="line2d_18">
     <path d="M 255.423668 38.538437 
L 265.423668 38.538437 
L 275.423668 38.538437 
" style="fill: none; stroke: #000000; stroke-width: 1.5; stroke-linecap: square"/>
    </g>
    <g id="text_14">
     <!-- SCOP40 -->
     <g transform="translate(283.423668 42.038437) scale(0.1 -0.1)">
      <defs>
       <path id="DejaVuSans-53" d="M 3425 4513 
L 3425 3897 
Q 3066 4069 2747 4153 
Q 2428 4238 2131 4238 
Q 1616 4238 1336 4038 
Q 1056 3838 1056 3469 
Q 1056 3159 1242 3001 
Q 1428 2844 1947 2747 
L 2328 2669 
Q 3034 2534 3370 2195 
Q 3706 1856 3706 1288 
Q 3706 609 3251 259 
Q 2797 -91 1919 -91 
Q 1588 -91 1214 -16 
Q 841 59 441 206 
L 441 856 
Q 825 641 1194 531 
Q 1563 422 1919 422 
Q 2459 422 2753 634 
Q 3047 847 3047 1241 
Q 3047 1584 2836 1778 
Q 2625 1972 2144 2069 
L 1759 2144 
Q 1053 2284 737 2584 
Q 422 2884 422 3419 
Q 422 4038 858 4394 
Q 1294 4750 2059 4750 
Q 2388 4750 2728 4690 
Q 3069 4631 3425 4513 
z
" transform="scale(0.015625)"/>
       <path id="DejaVuSans-43" d="M 4122 4306 
L 4122 3641 
Q 3803 3938 3442 4084 
Q 3081 4231 2675 4231 
Q 1875 4231 1450 3742 
Q 1025 3253 1025 2328 
Q 1025 1406 1450 917 
Q 1875 428 2675 428 
Q 3081 428 3442 575 
Q 3803 722 4122 1019 
L 4122 359 
Q 3791 134 3420 21 
Q 3050 -91 2638 -91 
Q 1578 -91 968 557 
Q 359 1206 359 2328 
Q 359 3453 968 4101 
Q 1578 4750 2638 4750 
Q 3056 4750 3426 4639 
Q 3797 4528 4122 4306 
z
" transform="scale(0.015625)"/>
       <path id="DejaVuSans-4f" d="M 2522 4238 
Q 1834 4238 1429 3725 
Q 1025 3213 1025 2328 
Q 1025 1447 1429 934 
Q 1834 422 2522 422 
Q 3209 422 3611 934 
Q 4013 1447 4013 2328 
Q 4013 3213 3611 3725 
Q 3209 4238 2522 4238 
z
M 2522 4750 
Q 3503 4750 4090 4092 
Q 4678 3434 4678 2328 
Q 4678 1225 4090 567 
Q 3503 -91 2522 -91 
Q 1538 -91 948 565 
Q 359 1222 359 2328 
Q 359 3434 948 4092 
Q 1538 4750 2522 4750 
z
" transform="scale(0.015625)"/>
       <path id="DejaVuSans-50" d="M 1259 4147 
L 1259 2394 
L 2053 2394 
Q 2494 2394 2734 2622 
Q 2975 2850 2975 3272 
Q 2975 3691 2734 3919 
Q 2494 4147 2053 4147 
L 1259 4147 
z
M 628 4666 
L 2053 4666 
Q 2838 4666 3239 4311 
Q 3641 3956 3641 3272 
Q 3641 2581 3239 2228 
Q 2838 1875 2053 1875 
L 1259 1875 
L 1259 0 
L 628 0 
L 628 4666 
z
" transform="scale(0.015625)"/>
      </defs>
      <use xlink:href="#DejaVuSans-53"/>
      <use xlink:href="#DejaVuSans-43" transform="translate(63.476562 0)"/>
      <use xlink:href="#DejaVuSans-4f" transform="translate(133.300781 0)"/>
      <use xlink:href="#DejaVuSans-50" transform="translate(212.011719 0)"/>
      <use xlink:href="#DejaVuSans-34" transform="translate(272.314453 0)"/>
      <use xlink:href="#DejaVuSans-30" transform="translate(335.9375 0)"/>
     </g>
    </g>
    <g id="line2d_19">
     <path d="M 255.423668 53.216562 
L 265.423668 53.216562 
L 275.423668 53.216562 
" style="fill: none; stroke: #00ffff; stroke-width: 1.5; stroke-linecap: square"/>
    </g>
    <g id="text_15">
     <!-- SCOP40c -->
     <g transform="translate(283.423668 56.716562) scale(0.1 -0.1)">
      <defs>
       <path id="DejaVuSans-63" d="M 3122 3366 
L 3122 2828 
Q 2878 2963 2633 3030 
Q 2388 3097 2138 3097 
Q 1578 3097 1268 2742 
Q 959 2388 959 1747 
Q 959 1106 1268 751 
Q 1578 397 2138 397 
Q 2388 397 2633 464 
Q 2878 531 3122 666 
L 3122 134 
Q 2881 22 2623 -34 
Q 2366 -91 2075 -91 
Q 1284 -91 818 406 
Q 353 903 353 1747 
Q 353 2603 823 3093 
Q 1294 3584 2113 3584 
Q 2378 3584 2631 3529 
Q 2884 3475 3122 3366 
z
" transform="scale(0.015625)"/>
      </defs>
      <use xlink:href="#DejaVuSans-53"/>
      <use xlink:href="#DejaVuSans-43" transform="translate(63.476562 0)"/>
      <use xlink:href="#DejaVuSans-4f" transform="translate(133.300781 0)"/>
      <use xlink:href="#DejaVuSans-50" transform="translate(212.011719 0)"/>
      <use xlink:href="#DejaVuSans-34" transform="translate(272.314453 0)"/>
      <use xlink:href="#DejaVuSans-30" transform="translate(335.9375 0)"/>
      <use xlink:href="#DejaVuSans-63" transform="translate(399.560547 0)"/>
     </g>
    </g>
    <g id="line2d_20">
     <path d="M 255.423668 67.894687 
L 265.423668 67.894687 
L 275.423668 67.894687 
" style="fill: none; stroke: #ffa500; stroke-width: 1.5; stroke-linecap: square"/>
    </g>
    <g id="text_16">
     <!-- SCOP40/SF2 -->
     <g transform="translate(283.423668 71.394687) scale(0.1 -0.1)">
      <defs>
       <path id="DejaVuSans-2f" d="M 1625 4666 
L 2156 4666 
L 531 -594 
L 0 -594 
L 1625 4666 
z
" transform="scale(0.015625)"/>
       <path id="DejaVuSans-46" d="M 628 4666 
L 3309 4666 
L 3309 4134 
L 1259 4134 
L 1259 2759 
L 3109 2759 
L 3109 2228 
L 1259 2228 
L 1259 0 
L 628 0 
L 628 4666 
z
" transform="scale(0.015625)"/>
      </defs>
      <use xlink:href="#DejaVuSans-53"/>
      <use xlink:href="#DejaVuSans-43" transform="translate(63.476562 0)"/>
      <use xlink:href="#DejaVuSans-4f" transform="translate(133.300781 0)"/>
      <use xlink:href="#DejaVuSans-50" transform="translate(212.011719 0)"/>
      <use xlink:href="#DejaVuSans-34" transform="translate(272.314453 0)"/>
      <use xlink:href="#DejaVuSans-30" transform="translate(335.9375 0)"/>
      <use xlink:href="#DejaVuSans-2f" transform="translate(399.560547 0)"/>
      <use xlink:href="#DejaVuSans-53" transform="translate(433.251953 0)"/>
      <use xlink:href="#DejaVuSans-46" transform="translate(496.728516 0)"/>
      <use xlink:href="#DejaVuSans-32" transform="translate(554.248047 0)"/>
     </g>
    </g>
    <g id="line2d_21">
     <path d="M 255.423668 82.572812 
L 265.423668 82.572812 
L 275.423668 82.572812 
" style="fill: none; stroke-dasharray: 5.55,2.4; stroke-dashoffset: 0; stroke: #ffa500; stroke-width: 1.5"/>
    </g>
    <g id="text_17">
     <!-- SCOP40/SF4 -->
     <g transform="translate(283.423668 86.072812) scale(0.1 -0.1)">
      <use xlink:href="#DejaVuSans-53"/>
      <use xlink:href="#DejaVuSans-43" transform="translate(63.476562 0)"/>
      <use xlink:href="#DejaVuSans-4f" transform="translate(133.300781 0)"/>
      <use xlink:href="#DejaVuSans-50" transform="translate(212.011719 0)"/>
      <use xlink:href="#DejaVuSans-34" transform="translate(272.314453 0)"/>
      <use xlink:href="#DejaVuSans-30" transform="translate(335.9375 0)"/>
      <use xlink:href="#DejaVuSans-2f" transform="translate(399.560547 0)"/>
      <use xlink:href="#DejaVuSans-53" transform="translate(433.251953 0)"/>
      <use xlink:href="#DejaVuSans-46" transform="translate(496.728516 0)"/>
      <use xlink:href="#DejaVuSans-34" transform="translate(554.248047 0)"/>
     </g>
    </g>
    <g id="line2d_22">
     <path d="M 255.423668 97.250937 
L 265.423668 97.250937 
L 275.423668 97.250937 
" style="fill: none; stroke-dasharray: 1.5,2.475; stroke-dashoffset: 0; stroke: #ffa500; stroke-width: 1.5"/>
    </g>
    <g id="text_18">
     <!-- SCOP40/SF8 -->
     <g transform="translate(283.423668 100.750937) scale(0.1 -0.1)">
      <use xlink:href="#DejaVuSans-53"/>
      <use xlink:href="#DejaVuSans-43" transform="translate(63.476562 0)"/>
      <use xlink:href="#DejaVuSans-4f" transform="translate(133.300781 0)"/>
      <use xlink:href="#DejaVuSans-50" transform="translate(212.011719 0)"/>
      <use xlink:href="#DejaVuSans-34" transform="translate(272.314453 0)"/>
      <use xlink:href="#DejaVuSans-30" transform="translate(335.9375 0)"/>
      <use xlink:href="#DejaVuSans-2f" transform="translate(399.560547 0)"/>
      <use xlink:href="#DejaVuSans-53" transform="translate(433.251953 0)"/>
      <use xlink:href="#DejaVuSans-46" transform="translate(496.728516 0)"/>
      <use xlink:href="#DejaVuSans-38" transform="translate(554.248047 0)"/>
     </g>
    </g>
   </g>
  </g>
  <g id="axes_2">
   <g id="patch_8">
    <path d="M 403.978076 252.639481 
L 724.460806 252.639481 
L 724.460806 25.44 
L 403.978076 25.44 
z
" style="fill: #ffffff"/>
   </g>
   <g id="matplotlib.axis_3">
    <g id="xtick_7">
     <g id="line2d_23">
      <g>
       <use xlink:href="#mc3479c4eb5" x="403.978076" y="252.639481" style="stroke: #000000; stroke-width: 0.8"/>
      </g>
     </g>
     <g id="text_19">
      <!-- 0.2 -->
      <g transform="translate(396.026514 267.237918) scale(0.1 -0.1)">
       <use xlink:href="#DejaVuSans-30"/>
       <use xlink:href="#DejaVuSans-2e" transform="translate(63.623047 0)"/>
       <use xlink:href="#DejaVuSans-32" transform="translate(95.410156 0)"/>
      </g>
     </g>
    </g>
    <g id="xtick_8">
     <g id="line2d_24">
      <g>
       <use xlink:href="#mc3479c4eb5" x="468.074622" y="252.639481" style="stroke: #000000; stroke-width: 0.8"/>
      </g>
     </g>
     <g id="text_20">
      <!-- 0.3 -->
      <g transform="translate(460.12306 267.237918) scale(0.1 -0.1)">
       <use xlink:href="#DejaVuSans-30"/>
       <use xlink:href="#DejaVuSans-2e" transform="translate(63.623047 0)"/>
       <use xlink:href="#DejaVuSans-33" transform="translate(95.410156 0)"/>
      </g>
     </g>
    </g>
    <g id="xtick_9">
     <g id="line2d_25">
      <g>
       <use xlink:href="#mc3479c4eb5" x="532.171168" y="252.639481" style="stroke: #000000; stroke-width: 0.8"/>
      </g>
     </g>
     <g id="text_21">
      <!-- 0.4 -->
      <g transform="translate(524.219606 267.237918) scale(0.1 -0.1)">
       <use xlink:href="#DejaVuSans-30"/>
       <use xlink:href="#DejaVuSans-2e" transform="translate(63.623047 0)"/>
       <use xlink:href="#DejaVuSans-34" transform="translate(95.410156 0)"/>
      </g>
     </g>
    </g>
    <g id="xtick_10">
     <g id="line2d_26">
      <g>
       <use xlink:href="#mc3479c4eb5" x="596.267714" y="252.639481" style="stroke: #000000; stroke-width: 0.8"/>
      </g>
     </g>
     <g id="text_22">
      <!-- 0.5 -->
      <g transform="translate(588.316152 267.237918) scale(0.1 -0.1)">
       <use xlink:href="#DejaVuSans-30"/>
       <use xlink:href="#DejaVuSans-2e" transform="translate(63.623047 0)"/>
       <use xlink:href="#DejaVuSans-35" transform="translate(95.410156 0)"/>
      </g>
     </g>
    </g>
    <g id="xtick_11">
     <g id="line2d_27">
      <g>
       <use xlink:href="#mc3479c4eb5" x="660.36426" y="252.639481" style="stroke: #000000; stroke-width: 0.8"/>
      </g>
     </g>
     <g id="text_23">
      <!-- 0.6 -->
      <g transform="translate(652.412698 267.237918) scale(0.1 -0.1)">
       <use xlink:href="#DejaVuSans-30"/>
       <use xlink:href="#DejaVuSans-2e" transform="translate(63.623047 0)"/>
       <use xlink:href="#DejaVuSans-36" transform="translate(95.410156 0)"/>
      </g>
     </g>
    </g>
    <g id="xtick_12">
     <g id="line2d_28">
      <g>
       <use xlink:href="#mc3479c4eb5" x="724.460806" y="252.639481" style="stroke: #000000; stroke-width: 0.8"/>
      </g>
     </g>
     <g id="text_24">
      <!-- 0.7 -->
      <g transform="translate(716.509244 267.237918) scale(0.1 -0.1)">
       <use xlink:href="#DejaVuSans-30"/>
       <use xlink:href="#DejaVuSans-2e" transform="translate(63.623047 0)"/>
       <use xlink:href="#DejaVuSans-37" transform="translate(95.410156 0)"/>
      </g>
     </g>
    </g>
   </g>
   <g id="matplotlib.axis_4">
    <g id="ytick_7">
     <g id="line2d_29">
      <g>
       <use xlink:href="#m96a940158b" x="403.978076" y="252.639481" style="stroke: #000000; stroke-width: 0.8"/>
      </g>
     </g>
     <g id="text_25">
      <!-- $\mathdefault{10^{-3}}$ -->
      <g transform="translate(373.478076 256.438699) scale(0.1 -0.1)">
       <defs>
        <path id="DejaVuSans-2212" d="M 678 2272 
L 4684 2272 
L 4684 1741 
L 678 1741 
L 678 2272 
z
" transform="scale(0.015625)"/>
       </defs>
       <use xlink:href="#DejaVuSans-31" transform="translate(0 0.765625)"/>
       <use xlink:href="#DejaVuSans-30" transform="translate(63.623047 0.765625)"/>
       <use xlink:href="#DejaVuSans-2212" transform="translate(128.203125 39.046875) scale(0.7)"/>
       <use xlink:href="#DejaVuSans-33" transform="translate(186.855469 39.046875) scale(0.7)"/>
      </g>
     </g>
    </g>
    <g id="ytick_8">
     <g id="line2d_30">
      <g>
       <use xlink:href="#m96a940158b" x="403.978076" y="183.812635" style="stroke: #000000; stroke-width: 0.8"/>
      </g>
     </g>
     <g id="text_26">
      <!-- $\mathdefault{10^{-2}}$ -->
      <g transform="translate(373.478076 187.611854) scale(0.1 -0.1)">
       <use xlink:href="#DejaVuSans-31" transform="translate(0 0.765625)"/>
       <use xlink:href="#DejaVuSans-30" transform="translate(63.623047 0.765625)"/>
       <use xlink:href="#DejaVuSans-2212" transform="translate(128.203125 39.046875) scale(0.7)"/>
       <use xlink:href="#DejaVuSans-32" transform="translate(186.855469 39.046875) scale(0.7)"/>
      </g>
     </g>
    </g>
    <g id="ytick_9">
     <g id="line2d_31">
      <g>
       <use xlink:href="#m96a940158b" x="403.978076" y="114.98579" style="stroke: #000000; stroke-width: 0.8"/>
      </g>
     </g>
     <g id="text_27">
      <!-- $\mathdefault{10^{-1}}$ -->
      <g transform="translate(373.478076 118.785009) scale(0.1 -0.1)">
       <use xlink:href="#DejaVuSans-31" transform="translate(0 0.684375)"/>
       <use xlink:href="#DejaVuSans-30" transform="translate(63.623047 0.684375)"/>
       <use xlink:href="#DejaVuSans-2212" transform="translate(128.203125 38.965625) scale(0.7)"/>
       <use xlink:href="#DejaVuSans-31" transform="translate(186.855469 38.965625) scale(0.7)"/>
      </g>
     </g>
    </g>
    <g id="ytick_10">
     <g id="line2d_32">
      <g>
       <use xlink:href="#m96a940158b" x="403.978076" y="46.158945" style="stroke: #000000; stroke-width: 0.8"/>
      </g>
     </g>
     <g id="text_28">
      <!-- $\mathdefault{10^{0}}$ -->
      <g transform="translate(379.378076 49.958164) scale(0.1 -0.1)">
       <use xlink:href="#DejaVuSans-31" transform="translate(0 0.765625)"/>
       <use xlink:href="#DejaVuSans-30" transform="translate(63.623047 0.765625)"/>
       <use xlink:href="#DejaVuSans-30" transform="translate(128.203125 39.046875) scale(0.7)"/>
      </g>
     </g>
    </g>
    <g id="ytick_11">
     <g id="line2d_33">
      <defs>
       <path id="m184f54d461" d="M 0 0 
L -2 0 
" style="stroke: #000000; stroke-width: 0.6"/>
      </defs>
      <g>
       <use xlink:href="#m184f54d461" x="403.978076" y="231.920536" style="stroke: #000000; stroke-width: 0.6"/>
      </g>
     </g>
    </g>
    <g id="ytick_12">
     <g id="line2d_34">
      <g>
       <use xlink:href="#m184f54d461" x="403.978076" y="219.80073" style="stroke: #000000; stroke-width: 0.6"/>
      </g>
     </g>
    </g>
    <g id="ytick_13">
     <g id="line2d_35">
      <g>
       <use xlink:href="#m184f54d461" x="403.978076" y="211.201591" style="stroke: #000000; stroke-width: 0.6"/>
      </g>
     </g>
    </g>
    <g id="ytick_14">
     <g id="line2d_36">
      <g>
       <use xlink:href="#m184f54d461" x="403.978076" y="204.53158" style="stroke: #000000; stroke-width: 0.6"/>
      </g>
     </g>
    </g>
    <g id="ytick_15">
     <g id="line2d_37">
      <g>
       <use xlink:href="#m184f54d461" x="403.978076" y="199.081785" style="stroke: #000000; stroke-width: 0.6"/>
      </g>
     </g>
    </g>
    <g id="ytick_16">
     <g id="line2d_38">
      <g>
       <use xlink:href="#m184f54d461" x="403.978076" y="194.474049" style="stroke: #000000; stroke-width: 0.6"/>
      </g>
     </g>
    </g>
    <g id="ytick_17">
     <g id="line2d_39">
      <g>
       <use xlink:href="#m184f54d461" x="403.978076" y="190.482646" style="stroke: #000000; stroke-width: 0.6"/>
      </g>
     </g>
    </g>
    <g id="ytick_18">
     <g id="line2d_40">
      <g>
       <use xlink:href="#m184f54d461" x="403.978076" y="186.961979" style="stroke: #000000; stroke-width: 0.6"/>
      </g>
     </g>
    </g>
    <g id="ytick_19">
     <g id="line2d_41">
      <g>
       <use xlink:href="#m184f54d461" x="403.978076" y="163.09369" style="stroke: #000000; stroke-width: 0.6"/>
      </g>
     </g>
    </g>
    <g id="ytick_20">
     <g id="line2d_42">
      <g>
       <use xlink:href="#m184f54d461" x="403.978076" y="150.973885" style="stroke: #000000; stroke-width: 0.6"/>
      </g>
     </g>
    </g>
    <g id="ytick_21">
     <g id="line2d_43">
      <g>
       <use xlink:href="#m184f54d461" x="403.978076" y="142.374745" style="stroke: #000000; stroke-width: 0.6"/>
      </g>
     </g>
    </g>
    <g id="ytick_22">
     <g id="line2d_44">
      <g>
       <use xlink:href="#m184f54d461" x="403.978076" y="135.704735" style="stroke: #000000; stroke-width: 0.6"/>
      </g>
     </g>
    </g>
    <g id="ytick_23">
     <g id="line2d_45">
      <g>
       <use xlink:href="#m184f54d461" x="403.978076" y="130.25494" style="stroke: #000000; stroke-width: 0.6"/>
      </g>
     </g>
    </g>
    <g id="ytick_24">
     <g id="line2d_46">
      <g>
       <use xlink:href="#m184f54d461" x="403.978076" y="125.647203" style="stroke: #000000; stroke-width: 0.6"/>
      </g>
     </g>
    </g>
    <g id="ytick_25">
     <g id="line2d_47">
      <g>
       <use xlink:href="#m184f54d461" x="403.978076" y="121.655801" style="stroke: #000000; stroke-width: 0.6"/>
      </g>
     </g>
    </g>
    <g id="ytick_26">
     <g id="line2d_48">
      <g>
       <use xlink:href="#m184f54d461" x="403.978076" y="118.135134" style="stroke: #000000; stroke-width: 0.6"/>
      </g>
     </g>
    </g>
    <g id="ytick_27">
     <g id="line2d_49">
      <g>
       <use xlink:href="#m184f54d461" x="403.978076" y="94.266845" style="stroke: #000000; stroke-width: 0.6"/>
      </g>
     </g>
    </g>
    <g id="ytick_28">
     <g id="line2d_50">
      <g>
       <use xlink:href="#m184f54d461" x="403.978076" y="82.147039" style="stroke: #000000; stroke-width: 0.6"/>
      </g>
     </g>
    </g>
    <g id="ytick_29">
     <g id="line2d_51">
      <g>
       <use xlink:href="#m184f54d461" x="403.978076" y="73.5479" style="stroke: #000000; stroke-width: 0.6"/>
      </g>
     </g>
    </g>
    <g id="ytick_30">
     <g id="line2d_52">
      <g>
       <use xlink:href="#m184f54d461" x="403.978076" y="66.87789" style="stroke: #000000; stroke-width: 0.6"/>
      </g>
     </g>
    </g>
    <g id="ytick_31">
     <g id="line2d_53">
      <g>
       <use xlink:href="#m184f54d461" x="403.978076" y="61.428094" style="stroke: #000000; stroke-width: 0.6"/>
      </g>
     </g>
    </g>
    <g id="ytick_32">
     <g id="line2d_54">
      <g>
       <use xlink:href="#m184f54d461" x="403.978076" y="56.820358" style="stroke: #000000; stroke-width: 0.6"/>
      </g>
     </g>
    </g>
    <g id="ytick_33">
     <g id="line2d_55">
      <g>
       <use xlink:href="#m184f54d461" x="403.978076" y="52.828955" style="stroke: #000000; stroke-width: 0.6"/>
      </g>
     </g>
    </g>
    <g id="ytick_34">
     <g id="line2d_56">
      <g>
       <use xlink:href="#m184f54d461" x="403.978076" y="49.308289" style="stroke: #000000; stroke-width: 0.6"/>
      </g>
     </g>
    </g>
    <g id="ytick_35">
     <g id="line2d_57">
      <g>
       <use xlink:href="#m184f54d461" x="403.978076" y="25.44" style="stroke: #000000; stroke-width: 0.6"/>
      </g>
     </g>
    </g>
   </g>
   <g id="line2d_58">
    <path d="M 275.784984 46.266747 
L 282.258735 46.266747 
L 288.732487 46.266747 
L 295.206238 46.266747 
L 301.679989 46.266747 
L 308.16015 46.266747 
L 314.633901 46.266747 
L 321.107652 46.266747 
L 327.581403 46.266747 
L 334.055154 46.266747 
L 340.522496 46.266747 
L 346.996247 46.266747 
L 353.469998 46.266747 
L 359.943749 46.266747 
L 366.4175 46.266747 
L 372.891251 46.266747 
L 379.365003 46.266747 
L 385.838754 46.266747 
L 392.312505 46.269748 
L 398.786256 46.269748 
L 405.260007 46.272747 
L 411.733758 46.272747 
L 418.20751 46.278749 
L 424.681261 46.284751 
L 431.155012 46.296761 
L 437.628763 46.31178 
L 444.102514 46.335826 
L 450.576265 46.368919 
L 457.050016 46.41712 
L 463.523768 46.480503 
L 469.997519 46.565223 
L 476.47127 46.674503 
L 482.945021 46.817778 
L 489.418772 46.995538 
L 495.892523 47.217686 
L 502.366274 47.494587 
L 508.840026 47.830924 
L 515.313777 48.238305 
L 521.787528 48.726136 
L 528.261279 49.308289 
L 534.73503 49.976631 
L 541.208781 50.747259 
L 547.682532 51.606349 
L 554.156284 52.550031 
L 560.630035 53.570409 
L 567.103786 54.670531 
L 573.577537 55.858147 
L 580.051288 57.129402 
L 586.525039 58.51131 
L 592.998791 59.974448 
L 599.536638 61.562908 
L 606.010389 63.272319 
L 612.484141 65.164379 
L 618.957892 67.262965 
L 625.431643 69.624765 
L 631.905394 72.361181 
L 638.379145 75.612845 
L 644.852896 79.280002 
L 651.326647 83.460812 
L 657.800399 88.408846 
L 664.27415 93.836535 
L 670.747901 99.567557 
L 677.221652 105.099554 
L 683.695403 111.226947 
L 690.169154 117.722835 
L 696.642905 124.115698 
L 703.116657 130.090989 
L 709.590408 135.968942 
L 716.064159 141.585666 
L 722.53791 146.961318 
L 729.011661 152.759879 
L 735.485412 158.362376 
L 741.959164 163.651855 
L 744.225806 166.029953 
" clip-path="url(#pebd04f52f1)" style="fill: none; stroke: #000000; stroke-width: 1.5; stroke-linecap: square"/>
   </g>
   <g id="line2d_59">
    <path d="M 275.784984 46.287754 
L 282.258735 46.287754 
L 288.732487 46.287754 
L 295.206238 46.287754 
L 301.679989 46.287754 
L 308.16015 46.287754 
L 314.633901 46.287754 
L 321.107652 46.287754 
L 327.581403 46.287754 
L 334.055154 46.287754 
L 340.522496 46.287754 
L 346.996247 46.287754 
L 353.469998 46.287754 
L 359.943749 46.287754 
L 366.4175 46.287754 
L 372.891251 46.287754 
L 379.365003 46.287754 
L 385.838754 46.287754 
L 392.312505 46.287754 
L 398.786256 46.287754 
L 405.260007 46.290756 
L 411.733758 46.290756 
L 418.20751 46.293758 
L 424.681261 46.302768 
L 431.155012 46.31178 
L 437.628763 46.329811 
L 444.102514 46.353872 
L 450.576265 46.393009 
L 457.050016 46.444269 
L 463.523768 46.516783 
L 469.997519 46.619813 
L 476.47127 46.753677 
L 482.945021 46.927988 
L 489.418772 47.155814 
L 495.892523 47.444619 
L 502.366274 47.805646 
L 508.840026 48.254332 
L 515.313777 48.801144 
L 521.787528 49.464797 
L 528.261279 50.256435 
L 534.73503 51.182556 
L 541.208781 52.25169 
L 547.682532 53.455722 
L 554.156284 54.76207 
L 560.630035 56.157352 
L 567.103786 57.625351 
L 573.577537 59.164569 
L 580.051288 60.738647 
L 586.525039 62.369387 
L 592.998791 64.077916 
L 599.536638 65.924776 
L 606.010389 67.973818 
L 612.484141 70.240552 
L 618.957892 72.817101 
L 625.431643 75.76537 
L 631.905394 79.153534 
L 638.379145 83.284339 
L 644.852896 88.212919 
L 651.326647 93.807087 
L 657.800399 100.676445 
L 664.27415 108.291876 
L 670.747901 116.330811 
L 677.221652 124.294737 
L 683.695403 132.910203 
L 690.169154 141.066183 
L 696.642905 150.070997 
L 703.116657 158.349621 
L 709.590408 168.074897 
L 716.064159 177.624751 
L 722.53791 185.930473 
L 729.011661 196.31449 
L 735.485412 205.540813 
L 741.959164 213.840526 
L 744.225806 217.530199 
" clip-path="url(#pebd04f52f1)" style="fill: none; stroke: #00ffff; stroke-width: 1.5; stroke-linecap: square"/>
   </g>
   <g id="line2d_60">
    <path d="M 275.784984 46.399036 
L 282.258735 46.399036 
L 288.732487 46.399036 
L 295.206238 46.399036 
L 301.679989 46.399036 
L 308.16015 46.399036 
L 314.633901 46.399036 
L 321.107652 46.399036 
L 327.581403 46.399036 
L 334.055154 46.399036 
L 340.522496 46.399036 
L 346.996247 46.399036 
L 353.469998 46.399036 
L 359.943749 46.399036 
L 366.4175 46.399036 
L 372.891251 46.399036 
L 379.365003 46.399036 
L 385.838754 46.399036 
L 392.312505 46.399036 
L 398.786256 46.429183 
L 405.260007 46.429183 
L 411.733758 46.429183 
L 418.20751 46.429183 
L 424.681261 46.45936 
L 431.155012 46.489568 
L 437.628763 46.519809 
L 444.102514 46.580377 
L 450.576265 46.641069 
L 457.050016 46.762826 
L 463.523768 46.915722 
L 469.997519 47.100237 
L 476.47127 47.348039 
L 482.945021 47.660712 
L 489.418772 48.040286 
L 495.892523 48.489302 
L 502.366274 49.043764 
L 508.840026 49.709517 
L 515.313777 50.493927 
L 521.787528 51.441817 
L 528.261279 52.531528 
L 534.73503 53.77796 
L 541.208781 55.199733 
L 547.682532 56.820359 
L 554.156284 58.624491 
L 560.630035 60.592956 
L 567.103786 62.856609 
L 573.577537 65.305842 
L 580.051288 68.035896 
L 586.525039 71.109384 
L 592.998791 74.458359 
L 599.536638 78.230457 
L 606.010389 82.246843 
L 612.484141 86.539671 
L 618.957892 90.879323 
L 625.431643 95.177304 
L 631.905394 99.656919 
L 638.379145 104.294499 
L 644.852896 108.555871 
L 651.326647 112.685338 
L 657.800399 117.380848 
L 664.27415 122.145522 
L 670.747901 126.557662 
L 677.221652 130.9097 
L 683.695403 136.186861 
L 690.169154 142.449566 
L 696.642905 148.765833 
L 703.116657 154.681957 
L 709.590408 160.380941 
L 716.064159 166.40956 
L 722.53791 171.892771 
L 729.011661 177.868761 
L 735.485412 182.929089 
L 741.959164 188.60026 
L 744.225806 191.052969 
" clip-path="url(#pebd04f52f1)" style="fill: none; stroke: #ffa500; stroke-width: 1.5; stroke-linecap: square"/>
   </g>
   <g id="line2d_61">
    <path d="M 275.784984 46.580377 
L 282.258735 46.580377 
L 288.732487 46.580377 
L 295.206238 46.580377 
L 301.679989 46.580377 
L 308.16015 46.580377 
L 314.633901 46.580377 
L 321.107652 46.580377 
L 327.581403 46.580377 
L 334.055154 46.580377 
L 340.522496 46.580377 
L 346.996247 46.580377 
L 353.469998 46.580377 
L 359.943749 46.580377 
L 366.4175 46.580377 
L 372.891251 46.580377 
L 379.365003 46.580377 
L 385.838754 46.580377 
L 392.312505 46.580377 
L 398.786256 46.580377 
L 405.260007 46.580377 
L 411.733758 46.610708 
L 418.20751 46.610708 
L 424.681261 46.641069 
L 431.155012 46.701887 
L 437.628763 46.762826 
L 444.102514 46.823892 
L 450.576265 46.977101 
L 457.050016 47.161994 
L 463.523768 47.410313 
L 469.997519 47.72364 
L 476.47127 48.16789 
L 482.945021 48.716367 
L 489.418772 49.408092 
L 495.892523 50.253008 
L 502.366274 51.299478 
L 508.840026 52.568546 
L 515.313777 54.04917 
L 521.787528 55.771438 
L 528.261279 57.774874 
L 534.73503 60.017185 
L 541.208781 62.441451 
L 547.682532 64.967449 
L 554.156284 67.665341 
L 560.630035 70.428462 
L 567.103786 73.176577 
L 573.577537 76.04027 
L 580.051288 78.759519 
L 586.525039 81.555117 
L 592.998791 84.423588 
L 599.536638 87.240277 
L 606.010389 90.219449 
L 612.484141 93.528756 
L 618.957892 97.085898 
L 625.431643 100.936856 
L 631.905394 105.358355 
L 638.379145 110.549351 
L 644.852896 116.174884 
L 651.326647 122.145522 
L 657.800399 129.082589 
L 664.27415 137.049756 
L 670.747901 144.543965 
L 677.221652 152.929594 
L 683.695403 161.493298 
L 690.169154 170.329481 
L 696.642905 178.36284 
L 703.116657 186.500586 
L 709.590408 196.73524 
L 716.064159 205.814133 
L 722.53791 215.971678 
L 729.011661 229.758789 
L 735.485412 245.260557 
L 741.959164 246.451594 
L 744.225806 249.80254 
" clip-path="url(#pebd04f52f1)" style="fill: none; stroke-dasharray: 5.55,2.4; stroke-dashoffset: 0; stroke: #ffa500; stroke-width: 1.5"/>
   </g>
   <g id="line2d_62">
    <path d="M 275.784984 46.85447 
L 282.258735 46.85447 
L 288.732487 46.85447 
L 295.206238 46.85447 
L 301.679989 46.85447 
L 308.16015 46.85447 
L 314.633901 46.85447 
L 321.107652 46.85447 
L 327.581403 46.85447 
L 334.055154 46.85447 
L 340.522496 46.85447 
L 346.996247 46.85447 
L 353.469998 46.85447 
L 359.943749 46.85447 
L 366.4175 46.88508 
L 372.891251 46.88508 
L 379.365003 46.88508 
L 385.838754 46.88508 
L 392.312505 46.88508 
L 398.786256 46.88508 
L 405.260007 46.88508 
L 411.733758 46.915722 
L 418.20751 46.946397 
L 424.681261 46.977101 
L 431.155012 47.038605 
L 437.628763 47.161994 
L 444.102514 47.316951 
L 450.576265 47.53525 
L 457.050016 47.818283 
L 463.523768 48.231895 
L 469.997519 48.814209 
L 476.47127 49.541684 
L 482.945021 50.528503 
L 489.418772 51.76458 
L 495.892523 53.318676 
L 502.366274 55.199733 
L 508.840026 57.467844 
L 515.313777 60.160092 
L 521.787528 63.224668 
L 528.261279 66.699078 
L 534.73503 70.495862 
L 541.208781 74.458359 
L 547.682532 78.582122 
L 554.156284 82.852763 
L 560.630035 87.004913 
L 567.103786 91.013065 
L 573.577537 94.870728 
L 580.051288 98.601829 
L 586.525039 102.470071 
L 592.998791 106.015327 
L 599.536638 109.535995 
L 606.010389 112.685338 
L 612.484141 115.742569 
L 618.957892 118.671312 
L 625.431643 121.543917 
L 631.905394 124.474851 
L 638.379145 127.678993 
L 644.852896 130.858821 
L 651.326647 134.647571 
L 657.800399 139.120966 
L 664.27415 144.144878 
L 670.747901 150.090339 
L 677.221652 155.949208 
L 683.695403 162.796265 
L 690.169154 170.139696 
L 696.642905 178.11478 
L 703.116657 186.664553 
L 709.590408 192.853425 
L 716.064159 199.131645 
L 722.53791 204.831996 
L 729.011661 212.499748 
L 735.485412 220.201959 
L 741.959164 227.227519 
L 744.225806 231.811938 
" clip-path="url(#pebd04f52f1)" style="fill: none; stroke-dasharray: 1.5,2.475; stroke-dashoffset: 0; stroke: #ffa500; stroke-width: 1.5"/>
   </g>
   <g id="patch_9">
    <path d="M 403.978076 252.639481 
L 403.978076 25.44 
" style="fill: none; stroke: #000000; stroke-width: 0.8; stroke-linejoin: miter; stroke-linecap: square"/>
   </g>
   <g id="patch_10">
    <path d="M 724.460806 252.639481 
L 724.460806 25.44 
" style="fill: none; stroke: #000000; stroke-width: 0.8; stroke-linejoin: miter; stroke-linecap: square"/>
   </g>
   <g id="patch_11">
    <path d="M 403.978076 252.639481 
L 724.460806 252.639481 
" style="fill: none; stroke: #000000; stroke-width: 0.8; stroke-linejoin: miter; stroke-linecap: square"/>
   </g>
   <g id="patch_12">
    <path d="M 403.978076 25.44 
L 724.460806 25.44 
" style="fill: none; stroke: #000000; stroke-width: 0.8; stroke-linejoin: miter; stroke-linecap: square"/>
   </g>
   <g id="text_29">
    <!-- TM-align (logscale) -->
    <g transform="translate(507.394754 19.44) scale(0.12 -0.12)">
     <defs>
      <path id="DejaVuSans-20" transform="scale(0.015625)"/>
      <path id="DejaVuSans-28" d="M 1984 4856 
Q 1566 4138 1362 3434 
Q 1159 2731 1159 2009 
Q 1159 1288 1364 580 
Q 1569 -128 1984 -844 
L 1484 -844 
Q 1016 -109 783 600 
Q 550 1309 550 2009 
Q 550 2706 781 3412 
Q 1013 4119 1484 4856 
L 1984 4856 
z
" transform="scale(0.015625)"/>
      <path id="DejaVuSans-6f" d="M 1959 3097 
Q 1497 3097 1228 2736 
Q 959 2375 959 1747 
Q 959 1119 1226 758 
Q 1494 397 1959 397 
Q 2419 397 2687 759 
Q 2956 1122 2956 1747 
Q 2956 2369 2687 2733 
Q 2419 3097 1959 3097 
z
M 1959 3584 
Q 2709 3584 3137 3096 
Q 3566 2609 3566 1747 
Q 3566 888 3137 398 
Q 2709 -91 1959 -91 
Q 1206 -91 779 398 
Q 353 888 353 1747 
Q 353 2609 779 3096 
Q 1206 3584 1959 3584 
z
" transform="scale(0.015625)"/>
      <path id="DejaVuSans-73" d="M 2834 3397 
L 2834 2853 
Q 2591 2978 2328 3040 
Q 2066 3103 1784 3103 
Q 1356 3103 1142 2972 
Q 928 2841 928 2578 
Q 928 2378 1081 2264 
Q 1234 2150 1697 2047 
L 1894 2003 
Q 2506 1872 2764 1633 
Q 3022 1394 3022 966 
Q 3022 478 2636 193 
Q 2250 -91 1575 -91 
Q 1294 -91 989 -36 
Q 684 19 347 128 
L 347 722 
Q 666 556 975 473 
Q 1284 391 1588 391 
Q 1994 391 2212 530 
Q 2431 669 2431 922 
Q 2431 1156 2273 1281 
Q 2116 1406 1581 1522 
L 1381 1569 
Q 847 1681 609 1914 
Q 372 2147 372 2553 
Q 372 3047 722 3315 
Q 1072 3584 1716 3584 
Q 2034 3584 2315 3537 
Q 2597 3491 2834 3397 
z
" transform="scale(0.015625)"/>
      <path id="DejaVuSans-65" d="M 3597 1894 
L 3597 1613 
L 953 1613 
Q 991 1019 1311 708 
Q 1631 397 2203 397 
Q 2534 397 2845 478 
Q 3156 559 3463 722 
L 3463 178 
Q 3153 47 2828 -22 
Q 2503 -91 2169 -91 
Q 1331 -91 842 396 
Q 353 884 353 1716 
Q 353 2575 817 3079 
Q 1281 3584 2069 3584 
Q 2775 3584 3186 3129 
Q 3597 2675 3597 1894 
z
M 3022 2063 
Q 3016 2534 2758 2815 
Q 2500 3097 2075 3097 
Q 1594 3097 1305 2825 
Q 1016 2553 972 2059 
L 3022 2063 
z
" transform="scale(0.015625)"/>
      <path id="DejaVuSans-29" d="M 513 4856 
L 1013 4856 
Q 1481 4119 1714 3412 
Q 1947 2706 1947 2009 
Q 1947 1309 1714 600 
Q 1481 -109 1013 -844 
L 513 -844 
Q 928 -128 1133 580 
Q 1338 1288 1338 2009 
Q 1338 2731 1133 3434 
Q 928 4138 513 4856 
z
" transform="scale(0.015625)"/>
     </defs>
     <use xlink:href="#DejaVuSans-54"/>
     <use xlink:href="#DejaVuSans-4d" transform="translate(61.083984 0)"/>
     <use xlink:href="#DejaVuSans-2d" transform="translate(147.363281 0)"/>
     <use xlink:href="#DejaVuSans-61" transform="translate(183.447266 0)"/>
     <use xlink:href="#DejaVuSans-6c" transform="translate(244.726562 0)"/>
     <use xlink:href="#DejaVuSans-69" transform="translate(272.509766 0)"/>
     <use xlink:href="#DejaVuSans-67" transform="translate(300.292969 0)"/>
     <use xlink:href="#DejaVuSans-6e" transform="translate(363.769531 0)"/>
     <use xlink:href="#DejaVuSans-20" transform="translate(427.148438 0)"/>
     <use xlink:href="#DejaVuSans-28" transform="translate(458.935547 0)"/>
     <use xlink:href="#DejaVuSans-6c" transform="translate(497.949219 0)"/>
     <use xlink:href="#DejaVuSans-6f" transform="translate(525.732422 0)"/>
     <use xlink:href="#DejaVuSans-67" transform="translate(586.914062 0)"/>
     <use xlink:href="#DejaVuSans-73" transform="translate(650.390625 0)"/>
     <use xlink:href="#DejaVuSans-63" transform="translate(702.490234 0)"/>
     <use xlink:href="#DejaVuSans-61" transform="translate(757.470703 0)"/>
     <use xlink:href="#DejaVuSans-6c" transform="translate(818.75 0)"/>
     <use xlink:href="#DejaVuSans-65" transform="translate(846.533203 0)"/>
     <use xlink:href="#DejaVuSans-29" transform="translate(908.056641 0)"/>
    </g>
   </g>
   <g id="legend_2">
    <g id="patch_13">
     <path d="M 410.978076 247.639481 
L 504.767139 247.639481 
Q 506.767139 247.639481 506.767139 245.639481 
L 506.767139 173.248856 
Q 506.767139 171.248856 504.767139 171.248856 
L 410.978076 171.248856 
Q 408.978076 171.248856 408.978076 173.248856 
L 408.978076 245.639481 
Q 408.978076 247.639481 410.978076 247.639481 
z
" style="fill: #ffffff; opacity: 0.8; stroke: #cccccc; stroke-linejoin: miter"/>
    </g>
    <g id="line2d_63">
     <path d="M 412.978076 179.347293 
L 422.978076 179.347293 
L 432.978076 179.347293 
" style="fill: none; stroke: #000000; stroke-width: 1.5; stroke-linecap: square"/>
    </g>
    <g id="text_30">
     <!-- SCOP40 -->
     <g transform="translate(440.978076 182.847293) scale(0.1 -0.1)">
      <use xlink:href="#DejaVuSans-53"/>
      <use xlink:href="#DejaVuSans-43" transform="translate(63.476562 0)"/>
      <use xlink:href="#DejaVuSans-4f" transform="translate(133.300781 0)"/>
      <use xlink:href="#DejaVuSans-50" transform="translate(212.011719 0)"/>
      <use xlink:href="#DejaVuSans-34" transform="translate(272.314453 0)"/>
      <use xlink:href="#DejaVuSans-30" transform="translate(335.9375 0)"/>
     </g>
    </g>
    <g id="line2d_64">
     <path d="M 412.978076 194.025418 
L 422.978076 194.025418 
L 432.978076 194.025418 
" style="fill: none; stroke: #00ffff; stroke-width: 1.5; stroke-linecap: square"/>
    </g>
    <g id="text_31">
     <!-- SCOP40c -->
     <g transform="translate(440.978076 197.525418) scale(0.1 -0.1)">
      <use xlink:href="#DejaVuSans-53"/>
      <use xlink:href="#DejaVuSans-43" transform="translate(63.476562 0)"/>
      <use xlink:href="#DejaVuSans-4f" transform="translate(133.300781 0)"/>
      <use xlink:href="#DejaVuSans-50" transform="translate(212.011719 0)"/>
      <use xlink:href="#DejaVuSans-34" transform="translate(272.314453 0)"/>
      <use xlink:href="#DejaVuSans-30" transform="translate(335.9375 0)"/>
      <use xlink:href="#DejaVuSans-63" transform="translate(399.560547 0)"/>
     </g>
    </g>
    <g id="line2d_65">
     <path d="M 412.978076 208.703543 
L 422.978076 208.703543 
L 432.978076 208.703543 
" style="fill: none; stroke: #ffa500; stroke-width: 1.5; stroke-linecap: square"/>
    </g>
    <g id="text_32">
     <!-- SCOP40/SF2 -->
     <g transform="translate(440.978076 212.203543) scale(0.1 -0.1)">
      <use xlink:href="#DejaVuSans-53"/>
      <use xlink:href="#DejaVuSans-43" transform="translate(63.476562 0)"/>
      <use xlink:href="#DejaVuSans-4f" transform="translate(133.300781 0)"/>
      <use xlink:href="#DejaVuSans-50" transform="translate(212.011719 0)"/>
      <use xlink:href="#DejaVuSans-34" transform="translate(272.314453 0)"/>
      <use xlink:href="#DejaVuSans-30" transform="translate(335.9375 0)"/>
      <use xlink:href="#DejaVuSans-2f" transform="translate(399.560547 0)"/>
      <use xlink:href="#DejaVuSans-53" transform="translate(433.251953 0)"/>
      <use xlink:href="#DejaVuSans-46" transform="translate(496.728516 0)"/>
      <use xlink:href="#DejaVuSans-32" transform="translate(554.248047 0)"/>
     </g>
    </g>
    <g id="line2d_66">
     <path d="M 412.978076 223.381668 
L 422.978076 223.381668 
L 432.978076 223.381668 
" style="fill: none; stroke-dasharray: 5.55,2.4; stroke-dashoffset: 0; stroke: #ffa500; stroke-width: 1.5"/>
    </g>
    <g id="text_33">
     <!-- SCOP40/SF4 -->
     <g transform="translate(440.978076 226.881668) scale(0.1 -0.1)">
      <use xlink:href="#DejaVuSans-53"/>
      <use xlink:href="#DejaVuSans-43" transform="translate(63.476562 0)"/>
      <use xlink:href="#DejaVuSans-4f" transform="translate(133.300781 0)"/>
      <use xlink:href="#DejaVuSans-50" transform="translate(212.011719 0)"/>
      <use xlink:href="#DejaVuSans-34" transform="translate(272.314453 0)"/>
      <use xlink:href="#DejaVuSans-30" transform="translate(335.9375 0)"/>
      <use xlink:href="#DejaVuSans-2f" transform="translate(399.560547 0)"/>
      <use xlink:href="#DejaVuSans-53" transform="translate(433.251953 0)"/>
      <use xlink:href="#DejaVuSans-46" transform="translate(496.728516 0)"/>
      <use xlink:href="#DejaVuSans-34" transform="translate(554.248047 0)"/>
     </g>
    </g>
    <g id="line2d_67">
     <path d="M 412.978076 238.059793 
L 422.978076 238.059793 
L 432.978076 238.059793 
" style="fill: none; stroke-dasharray: 1.5,2.475; stroke-dashoffset: 0; stroke: #ffa500; stroke-width: 1.5"/>
    </g>
    <g id="text_34">
     <!-- SCOP40/SF8 -->
     <g transform="translate(440.978076 241.559793) scale(0.1 -0.1)">
      <use xlink:href="#DejaVuSans-53"/>
      <use xlink:href="#DejaVuSans-43" transform="translate(63.476562 0)"/>
      <use xlink:href="#DejaVuSans-4f" transform="translate(133.300781 0)"/>
      <use xlink:href="#DejaVuSans-50" transform="translate(212.011719 0)"/>
      <use xlink:href="#DejaVuSans-34" transform="translate(272.314453 0)"/>
      <use xlink:href="#DejaVuSans-30" transform="translate(335.9375 0)"/>
      <use xlink:href="#DejaVuSans-2f" transform="translate(399.560547 0)"/>
      <use xlink:href="#DejaVuSans-53" transform="translate(433.251953 0)"/>
      <use xlink:href="#DejaVuSans-46" transform="translate(496.728516 0)"/>
      <use xlink:href="#DejaVuSans-38" transform="translate(554.248047 0)"/>
     </g>
    </g>
   </g>
  </g>
  <g id="text_35">
   <!-- ../plots/C_F_score.tm.svg -->
   <g transform="translate(296.875403 14.728515) scale(0.12 -0.12)">
    <defs>
     <path id="DejaVuSans-70" d="M 1159 525 
L 1159 -1331 
L 581 -1331 
L 581 3500 
L 1159 3500 
L 1159 2969 
Q 1341 3281 1617 3432 
Q 1894 3584 2278 3584 
Q 2916 3584 3314 3078 
Q 3713 2572 3713 1747 
Q 3713 922 3314 415 
Q 2916 -91 2278 -91 
Q 1894 -91 1617 61 
Q 1341 213 1159 525 
z
M 3116 1747 
Q 3116 2381 2855 2742 
Q 2594 3103 2138 3103 
Q 1681 3103 1420 2742 
Q 1159 2381 1159 1747 
Q 1159 1113 1420 752 
Q 1681 391 2138 391 
Q 2594 391 2855 752 
Q 3116 1113 3116 1747 
z
" transform="scale(0.015625)"/>
     <path id="DejaVuSans-74" d="M 1172 4494 
L 1172 3500 
L 2356 3500 
L 2356 3053 
L 1172 3053 
L 1172 1153 
Q 1172 725 1289 603 
Q 1406 481 1766 481 
L 2356 481 
L 2356 0 
L 1766 0 
Q 1100 0 847 248 
Q 594 497 594 1153 
L 594 3053 
L 172 3053 
L 172 3500 
L 594 3500 
L 594 4494 
L 1172 4494 
z
" transform="scale(0.015625)"/>
     <path id="DejaVuSans-5f" d="M 3263 -1063 
L 3263 -1509 
L -63 -1509 
L -63 -1063 
L 3263 -1063 
z
" transform="scale(0.015625)"/>
     <path id="DejaVuSans-72" d="M 2631 2963 
Q 2534 3019 2420 3045 
Q 2306 3072 2169 3072 
Q 1681 3072 1420 2755 
Q 1159 2438 1159 1844 
L 1159 0 
L 581 0 
L 581 3500 
L 1159 3500 
L 1159 2956 
Q 1341 3275 1631 3429 
Q 1922 3584 2338 3584 
Q 2397 3584 2469 3576 
Q 2541 3569 2628 3553 
L 2631 2963 
z
" transform="scale(0.015625)"/>
     <path id="DejaVuSans-6d" d="M 3328 2828 
Q 3544 3216 3844 3400 
Q 4144 3584 4550 3584 
Q 5097 3584 5394 3201 
Q 5691 2819 5691 2113 
L 5691 0 
L 5113 0 
L 5113 2094 
Q 5113 2597 4934 2840 
Q 4756 3084 4391 3084 
Q 3944 3084 3684 2787 
Q 3425 2491 3425 1978 
L 3425 0 
L 2847 0 
L 2847 2094 
Q 2847 2600 2669 2842 
Q 2491 3084 2119 3084 
Q 1678 3084 1418 2786 
Q 1159 2488 1159 1978 
L 1159 0 
L 581 0 
L 581 3500 
L 1159 3500 
L 1159 2956 
Q 1356 3278 1631 3431 
Q 1906 3584 2284 3584 
Q 2666 3584 2933 3390 
Q 3200 3197 3328 2828 
z
" transform="scale(0.015625)"/>
     <path id="DejaVuSans-76" d="M 191 3500 
L 800 3500 
L 1894 563 
L 2988 3500 
L 3597 3500 
L 2284 0 
L 1503 0 
L 191 3500 
z
" transform="scale(0.015625)"/>
    </defs>
    <use xlink:href="#DejaVuSans-2e"/>
    <use xlink:href="#DejaVuSans-2e" transform="translate(31.787109 0)"/>
    <use xlink:href="#DejaVuSans-2f" transform="translate(63.574219 0)"/>
    <use xlink:href="#DejaVuSans-70" transform="translate(97.265625 0)"/>
    <use xlink:href="#DejaVuSans-6c" transform="translate(160.742188 0)"/>
    <use xlink:href="#DejaVuSans-6f" transform="translate(188.525391 0)"/>
    <use xlink:href="#DejaVuSans-74" transform="translate(249.707031 0)"/>
    <use xlink:href="#DejaVuSans-73" transform="translate(288.916016 0)"/>
    <use xlink:href="#DejaVuSans-2f" transform="translate(341.015625 0)"/>
    <use xlink:href="#DejaVuSans-43" transform="translate(374.707031 0)"/>
    <use xlink:href="#DejaVuSans-5f" transform="translate(444.53125 0)"/>
    <use xlink:href="#DejaVuSans-46" transform="translate(494.53125 0)"/>
    <use xlink:href="#DejaVuSans-5f" transform="translate(552.050781 0)"/>
    <use xlink:href="#DejaVuSans-73" transform="translate(602.050781 0)"/>
    <use xlink:href="#DejaVuSans-63" transform="translate(654.150391 0)"/>
    <use xlink:href="#DejaVuSans-6f" transform="translate(709.130859 0)"/>
    <use xlink:href="#DejaVuSans-72" transform="translate(770.3125 0)"/>
    <use xlink:href="#DejaVuSans-65" transform="translate(809.175781 0)"/>
    <use xlink:href="#DejaVuSans-2e" transform="translate(870.699219 0)"/>
    <use xlink:href="#DejaVuSans-74" transform="translate(902.486328 0)"/>
    <use xlink:href="#DejaVuSans-6d" transform="translate(941.695312 0)"/>
    <use xlink:href="#DejaVuSans-2e" transform="translate(1039.107422 0)"/>
    <use xlink:href="#DejaVuSans-73" transform="translate(1070.894531 0)"/>
    <use xlink:href="#DejaVuSans-76" transform="translate(1122.994141 0)"/>
    <use xlink:href="#DejaVuSans-67" transform="translate(1182.173828 0)"/>
   </g>
  </g>
 </g>
 <defs>
  <clipPath id="p3573392645">
   <rect x="33.73" y="25.44" width="320.48273" height="227.199481"/>
  </clipPath>
  <clipPath id="pebd04f52f1">
   <rect x="403.978076" y="25.44" width="320.48273" height="227.199481"/>
  </clipPath>
 </defs>
</svg>
