<?xml version="1.0" encoding="utf-8" standalone="no"?>
<!DOCTYPE svg PUBLIC "-//W3C//DTD SVG 1.1//EN"
  "http://www.w3.org/Graphics/SVG/1.1/DTD/svg11.dtd">
<svg xmlns:xlink="http://www.w3.org/1999/xlink" width="743.225806pt" height="280.519481pt" viewBox="0 0 743.225806 280.519481" xmlns="http://www.w3.org/2000/svg" version="1.1">
 <metadata>
  <rdf:RDF xmlns:dc="http://purl.org/dc/elements/1.1/" xmlns:cc="http://creativecommons.org/ns#" xmlns:rdf="http://www.w3.org/1999/02/22-rdf-syntax-ns#">
   <cc:Work>
    <dc:type rdf:resource="http://purl.org/dc/dcmitype/StillImage"/>
    <dc:date>2025-05-29T12:14:21.126388</dc:date>
    <dc:format>image/svg+xml</dc:format>
    <dc:creator>
     <cc:Agent>
      <dc:title>Matplotlib v3.10.3, https://matplotlib.org/</dc:title>
     </cc:Agent>
    </dc:creator>
   </cc:Work>
  </rdf:RDF>
 </metadata>
 <defs>
  <style type="text/css">*{stroke-linejoin: round; stroke-linecap: butt}</style>
 </defs>
 <g id="figure_1">
  <g id="patch_1">
   <path d="M 0 280.519481 
L 743.225806 280.519481 
L 743.225806 0 
L 0 0 
z
" style="fill: #ffffff"/>
  </g>
  <g id="axes_1">
   <g id="patch_2">
    <path d="M 33.73 252.639481 
L 358.98273 252.639481 
L 358.98273 25.44 
L 33.73 25.44 
z
" style="fill: #ffffff"/>
   </g>
   <g id="matplotlib.axis_1">
    <g id="xtick_1">
     <g id="line2d_1">
      <defs>
       <path id="m6cce0f2473" d="M 0 0 
L 0 3.5 
" style="stroke: #000000; stroke-width: 0.8"/>
      </defs>
      <g>
       <use xlink:href="#m6cce0f2473" x="33.73" y="252.639481" style="stroke: #000000; stroke-width: 0.8"/>
      </g>
     </g>
     <g id="text_1">
      <!-- −2 -->
      <g transform="translate(26.358906 267.237918) scale(0.1 -0.1)">
       <defs>
        <path id="DejaVuSans-2212" d="M 678 2272 
L 4684 2272 
L 4684 1741 
L 678 1741 
L 678 2272 
z
" transform="scale(0.015625)"/>
        <path id="DejaVuSans-32" d="M 1228 531 
L 3431 531 
L 3431 0 
L 469 0 
L 469 531 
Q 828 903 1448 1529 
Q 2069 2156 2228 2338 
Q 2531 2678 2651 2914 
Q 2772 3150 2772 3378 
Q 2772 3750 2511 3984 
Q 2250 4219 1831 4219 
Q 1534 4219 1204 4116 
Q 875 4013 500 3803 
L 500 4441 
Q 881 4594 1212 4672 
Q 1544 4750 1819 4750 
Q 2544 4750 2975 4387 
Q 3406 4025 3406 3419 
Q 3406 3131 3298 2873 
Q 3191 2616 2906 2266 
Q 2828 2175 2409 1742 
Q 1991 1309 1228 531 
z
" transform="scale(0.015625)"/>
       </defs>
       <use xlink:href="#DejaVuSans-2212"/>
       <use xlink:href="#DejaVuSans-32" transform="translate(83.789062 0)"/>
      </g>
     </g>
    </g>
    <g id="xtick_2">
     <g id="line2d_2">
      <g>
       <use xlink:href="#m6cce0f2473" x="87.938788" y="252.639481" style="stroke: #000000; stroke-width: 0.8"/>
      </g>
     </g>
     <g id="text_2">
      <!-- −1 -->
      <g transform="translate(80.567695 267.237918) scale(0.1 -0.1)">
       <defs>
        <path id="DejaVuSans-31" d="M 794 531 
L 1825 531 
L 1825 4091 
L 703 3866 
L 703 4441 
L 1819 4666 
L 2450 4666 
L 2450 531 
L 3481 531 
L 3481 0 
L 794 0 
L 794 531 
z
" transform="scale(0.015625)"/>
       </defs>
       <use xlink:href="#DejaVuSans-2212"/>
       <use xlink:href="#DejaVuSans-31" transform="translate(83.789062 0)"/>
      </g>
     </g>
    </g>
    <g id="xtick_3">
     <g id="line2d_3">
      <g>
       <use xlink:href="#m6cce0f2473" x="142.147577" y="252.639481" style="stroke: #000000; stroke-width: 0.8"/>
      </g>
     </g>
     <g id="text_3">
      <!-- 0 -->
      <g transform="translate(138.966327 267.237918) scale(0.1 -0.1)">
       <defs>
        <path id="DejaVuSans-30" d="M 2034 4250 
Q 1547 4250 1301 3770 
Q 1056 3291 1056 2328 
Q 1056 1369 1301 889 
Q 1547 409 2034 409 
Q 2525 409 2770 889 
Q 3016 1369 3016 2328 
Q 3016 3291 2770 3770 
Q 2525 4250 2034 4250 
z
M 2034 4750 
Q 2819 4750 3233 4129 
Q 3647 3509 3647 2328 
Q 3647 1150 3233 529 
Q 2819 -91 2034 -91 
Q 1250 -91 836 529 
Q 422 1150 422 2328 
Q 422 3509 836 4129 
Q 1250 4750 2034 4750 
z
" transform="scale(0.015625)"/>
       </defs>
       <use xlink:href="#DejaVuSans-30"/>
      </g>
     </g>
    </g>
    <g id="xtick_4">
     <g id="line2d_4">
      <g>
       <use xlink:href="#m6cce0f2473" x="196.356365" y="252.639481" style="stroke: #000000; stroke-width: 0.8"/>
      </g>
     </g>
     <g id="text_4">
      <!-- 1 -->
      <g transform="translate(193.175115 267.237918) scale(0.1 -0.1)">
       <use xlink:href="#DejaVuSans-31"/>
      </g>
     </g>
    </g>
    <g id="xtick_5">
     <g id="line2d_5">
      <g>
       <use xlink:href="#m6cce0f2473" x="250.565153" y="252.639481" style="stroke: #000000; stroke-width: 0.8"/>
      </g>
     </g>
     <g id="text_5">
      <!-- 2 -->
      <g transform="translate(247.383903 267.237918) scale(0.1 -0.1)">
       <use xlink:href="#DejaVuSans-32"/>
      </g>
     </g>
    </g>
    <g id="xtick_6">
     <g id="line2d_6">
      <g>
       <use xlink:href="#m6cce0f2473" x="304.773942" y="252.639481" style="stroke: #000000; stroke-width: 0.8"/>
      </g>
     </g>
     <g id="text_6">
      <!-- 3 -->
      <g transform="translate(301.592692 267.237918) scale(0.1 -0.1)">
       <defs>
        <path id="DejaVuSans-33" d="M 2597 2516 
Q 3050 2419 3304 2112 
Q 3559 1806 3559 1356 
Q 3559 666 3084 287 
Q 2609 -91 1734 -91 
Q 1441 -91 1130 -33 
Q 819 25 488 141 
L 488 750 
Q 750 597 1062 519 
Q 1375 441 1716 441 
Q 2309 441 2620 675 
Q 2931 909 2931 1356 
Q 2931 1769 2642 2001 
Q 2353 2234 1838 2234 
L 1294 2234 
L 1294 2753 
L 1863 2753 
Q 2328 2753 2575 2939 
Q 2822 3125 2822 3475 
Q 2822 3834 2567 4026 
Q 2313 4219 1838 4219 
Q 1578 4219 1281 4162 
Q 984 4106 628 3988 
L 628 4550 
Q 988 4650 1302 4700 
Q 1616 4750 1894 4750 
Q 2613 4750 3031 4423 
Q 3450 4097 3450 3541 
Q 3450 3153 3228 2886 
Q 3006 2619 2597 2516 
z
" transform="scale(0.015625)"/>
       </defs>
       <use xlink:href="#DejaVuSans-33"/>
      </g>
     </g>
    </g>
    <g id="xtick_7">
     <g id="line2d_7">
      <g>
       <use xlink:href="#m6cce0f2473" x="358.98273" y="252.639481" style="stroke: #000000; stroke-width: 0.8"/>
      </g>
     </g>
     <g id="text_7">
      <!-- 4 -->
      <g transform="translate(355.80148 267.237918) scale(0.1 -0.1)">
       <defs>
        <path id="DejaVuSans-34" d="M 2419 4116 
L 825 1625 
L 2419 1625 
L 2419 4116 
z
M 2253 4666 
L 3047 4666 
L 3047 1625 
L 3713 1625 
L 3713 1100 
L 3047 1100 
L 3047 0 
L 2419 0 
L 2419 1100 
L 313 1100 
L 313 1709 
L 2253 4666 
z
" transform="scale(0.015625)"/>
       </defs>
       <use xlink:href="#DejaVuSans-34"/>
      </g>
     </g>
    </g>
   </g>
   <g id="matplotlib.axis_2">
    <g id="ytick_1">
     <g id="line2d_8">
      <defs>
       <path id="m0c33af2c16" d="M 0 0 
L -3.5 0 
" style="stroke: #000000; stroke-width: 0.8"/>
      </defs>
      <g>
       <use xlink:href="#m0c33af2c16" x="33.73" y="242.312231" style="stroke: #000000; stroke-width: 0.8"/>
      </g>
     </g>
     <g id="text_8">
      <!-- 0.0 -->
      <g transform="translate(10.826875 246.11145) scale(0.1 -0.1)">
       <defs>
        <path id="DejaVuSans-2e" d="M 684 794 
L 1344 794 
L 1344 0 
L 684 0 
L 684 794 
z
" transform="scale(0.015625)"/>
       </defs>
       <use xlink:href="#DejaVuSans-30"/>
       <use xlink:href="#DejaVuSans-2e" transform="translate(63.623047 0)"/>
       <use xlink:href="#DejaVuSans-30" transform="translate(95.410156 0)"/>
      </g>
     </g>
    </g>
    <g id="ytick_2">
     <g id="line2d_9">
      <g>
       <use xlink:href="#m0c33af2c16" x="33.73" y="201.003235" style="stroke: #000000; stroke-width: 0.8"/>
      </g>
     </g>
     <g id="text_9">
      <!-- 0.2 -->
      <g transform="translate(10.826875 204.802454) scale(0.1 -0.1)">
       <use xlink:href="#DejaVuSans-30"/>
       <use xlink:href="#DejaVuSans-2e" transform="translate(63.623047 0)"/>
       <use xlink:href="#DejaVuSans-32" transform="translate(95.410156 0)"/>
      </g>
     </g>
    </g>
    <g id="ytick_3">
     <g id="line2d_10">
      <g>
       <use xlink:href="#m0c33af2c16" x="33.73" y="159.694238" style="stroke: #000000; stroke-width: 0.8"/>
      </g>
     </g>
     <g id="text_10">
      <!-- 0.4 -->
      <g transform="translate(10.826875 163.493457) scale(0.1 -0.1)">
       <use xlink:href="#DejaVuSans-30"/>
       <use xlink:href="#DejaVuSans-2e" transform="translate(63.623047 0)"/>
       <use xlink:href="#DejaVuSans-34" transform="translate(95.410156 0)"/>
      </g>
     </g>
    </g>
    <g id="ytick_4">
     <g id="line2d_11">
      <g>
       <use xlink:href="#m0c33af2c16" x="33.73" y="118.385242" style="stroke: #000000; stroke-width: 0.8"/>
      </g>
     </g>
     <g id="text_11">
      <!-- 0.6 -->
      <g transform="translate(10.826875 122.184461) scale(0.1 -0.1)">
       <defs>
        <path id="DejaVuSans-36" d="M 2113 2584 
Q 1688 2584 1439 2293 
Q 1191 2003 1191 1497 
Q 1191 994 1439 701 
Q 1688 409 2113 409 
Q 2538 409 2786 701 
Q 3034 994 3034 1497 
Q 3034 2003 2786 2293 
Q 2538 2584 2113 2584 
z
M 3366 4563 
L 3366 3988 
Q 3128 4100 2886 4159 
Q 2644 4219 2406 4219 
Q 1781 4219 1451 3797 
Q 1122 3375 1075 2522 
Q 1259 2794 1537 2939 
Q 1816 3084 2150 3084 
Q 2853 3084 3261 2657 
Q 3669 2231 3669 1497 
Q 3669 778 3244 343 
Q 2819 -91 2113 -91 
Q 1303 -91 875 529 
Q 447 1150 447 2328 
Q 447 3434 972 4092 
Q 1497 4750 2381 4750 
Q 2619 4750 2861 4703 
Q 3103 4656 3366 4563 
z
" transform="scale(0.015625)"/>
       </defs>
       <use xlink:href="#DejaVuSans-30"/>
       <use xlink:href="#DejaVuSans-2e" transform="translate(63.623047 0)"/>
       <use xlink:href="#DejaVuSans-36" transform="translate(95.410156 0)"/>
      </g>
     </g>
    </g>
    <g id="ytick_5">
     <g id="line2d_12">
      <g>
       <use xlink:href="#m0c33af2c16" x="33.73" y="77.076246" style="stroke: #000000; stroke-width: 0.8"/>
      </g>
     </g>
     <g id="text_12">
      <!-- 0.8 -->
      <g transform="translate(10.826875 80.875464) scale(0.1 -0.1)">
       <defs>
        <path id="DejaVuSans-38" d="M 2034 2216 
Q 1584 2216 1326 1975 
Q 1069 1734 1069 1313 
Q 1069 891 1326 650 
Q 1584 409 2034 409 
Q 2484 409 2743 651 
Q 3003 894 3003 1313 
Q 3003 1734 2745 1975 
Q 2488 2216 2034 2216 
z
M 1403 2484 
Q 997 2584 770 2862 
Q 544 3141 544 3541 
Q 544 4100 942 4425 
Q 1341 4750 2034 4750 
Q 2731 4750 3128 4425 
Q 3525 4100 3525 3541 
Q 3525 3141 3298 2862 
Q 3072 2584 2669 2484 
Q 3125 2378 3379 2068 
Q 3634 1759 3634 1313 
Q 3634 634 3220 271 
Q 2806 -91 2034 -91 
Q 1263 -91 848 271 
Q 434 634 434 1313 
Q 434 1759 690 2068 
Q 947 2378 1403 2484 
z
M 1172 3481 
Q 1172 3119 1398 2916 
Q 1625 2713 2034 2713 
Q 2441 2713 2670 2916 
Q 2900 3119 2900 3481 
Q 2900 3844 2670 4047 
Q 2441 4250 2034 4250 
Q 1625 4250 1398 4047 
Q 1172 3844 1172 3481 
z
" transform="scale(0.015625)"/>
       </defs>
       <use xlink:href="#DejaVuSans-30"/>
       <use xlink:href="#DejaVuSans-2e" transform="translate(63.623047 0)"/>
       <use xlink:href="#DejaVuSans-38" transform="translate(95.410156 0)"/>
      </g>
     </g>
    </g>
    <g id="ytick_6">
     <g id="line2d_13">
      <g>
       <use xlink:href="#m0c33af2c16" x="33.73" y="35.767249" style="stroke: #000000; stroke-width: 0.8"/>
      </g>
     </g>
     <g id="text_13">
      <!-- 1.0 -->
      <g transform="translate(10.826875 39.566468) scale(0.1 -0.1)">
       <use xlink:href="#DejaVuSans-31"/>
       <use xlink:href="#DejaVuSans-2e" transform="translate(63.623047 0)"/>
       <use xlink:href="#DejaVuSans-30" transform="translate(95.410156 0)"/>
      </g>
     </g>
    </g>
   </g>
   <g id="line2d_14">
    <path d="M -1 35.767249 
L 4.18621 35.767249 
L 17.304737 35.767249 
L 30.423264 35.767249 
L 43.595999 35.767249 
L 56.714526 35.767249 
L 69.887262 35.767249 
L 83.005789 35.767249 
L 96.15142 64.41504 
L 109.29163 109.875588 
L 122.437261 143.273913 
L 135.577472 167.749493 
L 148.717682 186.09069 
L 161.857892 199.867236 
L 175.003523 210.297759 
L 188.143734 218.270395 
L 201.289365 224.216826 
L 214.407892 228.655477 
L 227.580627 231.943673 
L 240.699154 234.387101 
L 253.87189 236.144798 
L 266.990416 237.46049 
L 280.108943 238.439513 
L 293.281679 239.178944 
L 306.400205 239.732485 
L 319.572941 240.176556 
L 332.691468 240.529955 
L 345.864203 240.827999 
L 358.98273 241.076266 
L 372.101257 241.291693 
L 385.273993 241.463538 
L 398.392519 241.598825 
L 411.565255 241.723991 
L 424.683782 241.824579 
L 437.856517 241.901413 
L 450.975044 241.964616 
L 464.093571 242.018111 
L 477.266306 242.064584 
L 490.384833 242.100523 
L 503.557569 242.135987 
L 516.676095 242.162032 
L 529.848831 242.184194 
L 542.967358 242.204952 
L 556.085885 242.222859 
L 569.25862 242.235603 
L 582.377147 242.247397 
L 595.549883 242.258943 
L 608.668409 242.266957 
L 621.786936 242.273793 
L 634.959672 242.280155 
L 648.078198 242.284885 
L 661.250934 242.288644 
L 674.369461 242.292188 
L 687.487988 242.293841 
L 700.498097 242.297377 
L 714.050294 242.299262 
L 727.060403 242.300442 
L 740.070512 242.302092 
L 744.225806 242.302694 
" clip-path="url(#p1766a2685b)" style="fill: none; stroke-dasharray: 9.6,2.4,1.5,2.4; stroke-dashoffset: 0; stroke: #000000; stroke-width: 1.5"/>
   </g>
   <g id="line2d_15">
    <path d="M -1 35.767249 
L 4.18621 35.767249 
L 17.304737 35.767249 
L 30.423264 35.767249 
L 43.595999 35.767249 
L 56.714526 35.767249 
L 69.887262 35.767249 
L 83.005789 35.767249 
L 96.15142 69.640621 
L 109.29163 120.946401 
L 122.437261 156.162317 
L 135.577472 180.575935 
L 148.717682 197.86375 
L 161.857892 210.215143 
L 175.003523 219.137885 
L 188.143734 225.592415 
L 201.289365 230.260332 
L 214.407892 233.548528 
L 227.580627 235.917599 
L 240.699154 237.598875 
L 253.87189 238.792705 
L 266.990416 239.639539 
L 280.108943 240.260414 
L 293.281679 240.715639 
L 306.400205 241.045698 
L 319.572941 241.298302 
L 332.691468 241.496379 
L 345.864203 241.651494 
L 358.98273 241.778519 
L 372.101257 241.877454 
L 385.273993 241.962964 
L 398.392519 242.029058 
L 411.565255 242.08214 
L 424.683782 242.126527 
L 437.856517 242.160731 
L 450.975044 242.18754 
L 464.093571 242.209227 
L 477.266306 242.226804 
L 490.384833 242.241676 
L 503.557569 242.252767 
L 516.676095 242.263218 
L 529.848831 242.270881 
L 542.967358 242.277367 
L 556.085885 242.283356 
L 569.25862 242.287962 
L 582.377147 242.291267 
L 595.549883 242.29477 
L 608.668409 242.298081 
L 621.786936 242.299963 
L 634.959672 242.301846 
L 648.078198 242.303664 
L 661.250934 242.304767 
L 674.369461 242.30574 
L 687.487988 242.306779 
L 700.498097 242.307233 
L 714.050294 242.308078 
L 727.060403 242.308662 
L 740.070512 242.309051 
L 744.225806 242.309196 
" clip-path="url(#p1766a2685b)" style="fill: none; stroke: #000000; stroke-width: 1.5; stroke-linecap: square"/>
   </g>
   <g id="line2d_16">
    <path d="M -1 35.767249 
L 4.18621 35.767249 
L 17.304737 35.767249 
L 30.423264 35.767249 
L 43.595999 35.767249 
L 56.714526 35.767249 
L 69.887262 35.767249 
L 83.005789 35.767249 
L 96.15142 72.284405 
L 109.29163 127.03948 
L 122.437261 163.721868 
L 135.577472 188.238757 
L 148.717682 204.803662 
L 161.857892 216.163637 
L 175.003523 224.035066 
L 188.143734 229.541555 
L 201.289365 233.441124 
L 214.407892 236.138602 
L 227.580627 238.018161 
L 240.699154 239.348311 
L 253.87189 240.258761 
L 266.990416 240.883353 
L 280.108943 241.323707 
L 293.281679 241.622165 
L 306.400205 241.833254 
L 319.572941 241.977009 
L 332.691468 242.084412 
L 345.864203 242.152407 
L 358.98273 242.204146 
L 372.101257 242.238454 
L 385.273993 242.265222 
L 398.392519 242.280754 
L 411.565255 242.291872 
L 424.683782 242.298798 
L 437.856517 242.303102 
L 450.975044 242.305515 
L 464.093571 242.30751 
L 477.266306 242.309084 
L 490.384833 242.309922 
L 503.557569 242.310552 
L 516.676095 242.311182 
L 529.848831 242.311392 
L 542.967358 242.311812 
L 556.085885 242.311812 
L 569.25862 242.311917 
L 582.377147 242.311917 
L 595.549883 242.312022 
L 608.668409 242.312126 
L 621.786936 242.312126 
L 634.959672 242.312126 
L 648.078198 242.312231 
L 661.250934 242.312231 
L 674.369461 242.312231 
L 687.487988 242.312231 
L 700.498097 242.312231 
L 714.050294 242.312231 
L 727.060403 242.312231 
L 740.070512 242.312231 
L 744.225806 242.312231 
" clip-path="url(#p1766a2685b)" style="fill: none; stroke: #00ffff; stroke-width: 1.5; stroke-linecap: square"/>
   </g>
   <g id="line2d_17">
    <path d="M -1 35.767249 
L 4.18621 35.767249 
L 17.304737 35.767249 
L 30.423264 35.767249 
L 43.595999 35.767249 
L 56.714526 35.767249 
L 69.887262 35.767249 
L 83.005789 35.767249 
L 96.156841 69.434079 
L 109.297051 120.450697 
L 122.437261 155.563342 
L 135.577472 180.142192 
L 148.717682 197.491972 
L 161.863313 209.884668 
L 175.003523 218.972649 
L 188.143734 225.375542 
L 201.289365 230.064114 
L 214.407892 233.368834 
L 227.580627 235.78541 
L 240.699154 237.499733 
L 253.87189 238.718349 
L 266.990416 239.565183 
L 280.108943 240.205473 
L 293.281679 240.664002 
L 306.400205 240.988278 
L 319.572941 241.242328 
L 332.691468 241.448873 
L 345.864203 241.607913 
L 358.98273 241.740102 
L 372.101257 241.847505 
L 385.273993 241.934254 
L 398.392519 242.00861 
L 411.565255 242.062312 
L 424.683782 242.106926 
L 437.856517 242.142658 
L 450.975044 242.1724 
L 464.093571 242.196566 
L 477.266306 242.218047 
L 490.384833 242.236429 
L 503.557569 242.248202 
L 516.676095 242.258736 
L 529.848831 242.266585 
L 542.967358 242.272575 
L 556.085885 242.279184 
L 569.25862 242.283935 
L 582.377147 242.287239 
L 595.549883 242.290957 
L 608.668409 242.294283 
L 621.841145 242.296348 
L 634.959672 242.298166 
L 648.078198 242.301367 
L 661.250934 242.302524 
L 674.369461 242.303804 
L 687.487988 242.305477 
L 700.498097 242.30587 
L 714.050294 242.306242 
L 727.060403 242.307006 
L 740.070512 242.30715 
L 744.225806 242.307394 
" clip-path="url(#p1766a2685b)" style="fill: none; stroke: #ff00ff; stroke-width: 1.5; stroke-linecap: square"/>
   </g>
   <g id="line2d_18">
    <path d="M -1 35.767249 
L 4.18621 35.767249 
L 17.304737 35.767249 
L 30.423264 35.767249 
L 43.595999 35.767249 
L 56.714526 35.767249 
L 69.887262 35.767249 
L 83.005789 35.767249 
L 96.156841 69.640621 
L 109.297051 121.070324 
L 122.437261 156.389517 
L 135.577472 180.968374 
L 148.717682 198.111605 
L 161.863313 210.504304 
L 175.003523 219.179193 
L 188.143734 225.561433 
L 201.289365 230.250004 
L 214.407892 233.53407 
L 227.580627 235.929992 
L 240.699154 237.62366 
L 253.87189 238.821621 
L 266.990416 239.668456 
L 280.108943 240.277763 
L 293.281679 240.738359 
L 306.400205 241.050242 
L 319.572941 241.300161 
L 332.691468 241.502575 
L 345.864203 241.645091 
L 358.98273 241.764887 
L 372.101257 241.859898 
L 385.273993 241.948712 
L 398.392519 242.014807 
L 411.565255 242.072639 
L 424.683782 242.119318 
L 437.856517 242.154638 
L 450.975044 242.185826 
L 464.093571 242.2071 
L 477.266306 242.225276 
L 490.384833 242.237462 
L 503.557569 242.250061 
L 516.676095 242.260802 
L 529.848831 242.270509 
L 542.967358 242.278358 
L 556.085885 242.283109 
L 569.25862 242.287653 
L 582.377147 242.289925 
L 595.549883 242.293518 
L 608.668409 242.297918 
L 621.841145 242.299508 
L 634.959672 242.302317 
L 648.078198 242.303598 
L 661.250934 242.303866 
L 674.369461 242.304383 
L 687.487988 242.305705 
L 700.498097 242.306469 
L 714.050294 242.307274 
L 727.060403 242.308534 
L 740.070512 242.308534 
L 744.225806 242.308706 
" clip-path="url(#p1766a2685b)" style="fill: none; stroke-dasharray: 5.55,2.4; stroke-dashoffset: 0; stroke: #ff00ff; stroke-width: 1.5"/>
   </g>
   <g id="line2d_19">
    <path d="M -1 35.767249 
L 4.18621 35.767249 
L 17.304737 35.767249 
L 30.423264 35.767249 
L 43.595999 35.767249 
L 56.714526 35.767249 
L 69.887262 35.767249 
L 83.005789 35.767249 
L 96.156841 70.466803 
L 109.297051 121.896506 
L 122.437261 157.628789 
L 135.577472 182.001097 
L 148.717682 199.350874 
L 161.863313 211.537028 
L 175.003523 220.211918 
L 188.143734 226.573504 
L 201.289365 231.014221 
L 214.407892 234.112395 
L 227.580627 236.322427 
L 240.699154 237.933478 
L 253.87189 239.069475 
L 266.990416 239.792383 
L 280.108943 240.341792 
L 293.281679 240.763144 
L 306.400205 241.070896 
L 319.572941 241.31875 
L 332.691468 241.506706 
L 345.864203 241.665746 
L 358.98273 241.791738 
L 372.101257 241.901207 
L 385.273993 241.981759 
L 398.392519 242.043723 
L 411.565255 242.097425 
L 424.683782 242.129646 
L 437.856517 242.17364 
L 450.975044 242.198012 
L 464.093571 242.222797 
L 477.266306 242.242419 
L 490.384833 242.259149 
L 503.557569 242.266792 
L 516.676095 242.275673 
L 529.848831 242.281869 
L 542.967358 242.284554 
L 556.085885 242.288892 
L 569.25862 242.290957 
L 582.377147 242.292961 
L 595.549883 242.295129 
L 608.668409 242.298847 
L 621.841145 242.302544 
L 634.959672 242.304631 
L 648.078198 242.305684 
L 661.250934 242.308369 
L 674.369461 242.308947 
L 687.487988 242.308947 
L 700.498097 242.308947 
L 714.050294 242.309505 
L 727.060403 242.3106 
L 740.070512 242.311143 
L 744.225806 242.311143 
" clip-path="url(#p1766a2685b)" style="fill: none; stroke-dasharray: 1.5,2.475; stroke-dashoffset: 0; stroke: #ff00ff; stroke-width: 1.5"/>
   </g>
   <g id="line2d_20">
    <path d="M -1 35.767249 
L 4.18621 35.767249 
L 17.304737 35.767249 
L 30.423264 35.767249 
L 43.595999 35.767249 
L 56.714526 35.767249 
L 69.887262 35.767249 
L 83.005789 35.767249 
L 96.156841 66.748992 
L 109.297051 114.667438 
L 122.437261 148.747353 
L 135.577472 173.532751 
L 148.717682 191.502164 
L 161.863313 204.721045 
L 175.003523 214.635203 
L 188.143734 221.967551 
L 201.289365 227.379029 
L 214.407892 231.28273 
L 227.580627 234.174359 
L 240.699154 236.239809 
L 253.87189 237.768242 
L 266.990416 238.86293 
L 280.108943 239.668456 
L 293.281679 240.286025 
L 306.400205 240.725966 
L 319.572941 241.054373 
L 332.691468 241.304292 
L 345.864203 241.502575 
L 358.98273 241.665746 
L 372.101257 241.785542 
L 385.273993 241.895011 
L 398.392519 241.971432 
L 411.565255 242.039592 
L 424.683782 242.097425 
L 437.856517 242.137288 
L 450.975044 242.168683 
L 464.093571 242.193468 
L 477.266306 242.214329 
L 490.384833 242.229407 
L 503.557569 242.242626 
L 516.676095 242.25254 
L 529.848831 242.261008 
L 542.967358 242.268031 
L 556.085885 242.276293 
L 569.25862 242.28063 
L 582.377147 242.285174 
L 595.549883 242.289718 
L 608.668409 242.29484 
L 621.841145 242.297133 
L 634.959672 242.299488 
L 648.078198 242.301161 
L 661.250934 242.302689 
L 674.369461 242.303598 
L 687.487988 242.30492 
L 700.498097 242.305374 
L 714.050294 242.306613 
L 727.060403 242.307502 
L 740.070512 242.307729 
L 744.225806 242.307834 
" clip-path="url(#p1766a2685b)" style="fill: none; stroke: #ffa500; stroke-width: 1.5; stroke-linecap: square"/>
   </g>
   <g id="line2d_21">
    <path d="M -1 35.767249 
L 4.18621 35.767249 
L 17.304737 35.767249 
L 30.423264 35.767249 
L 43.595999 35.767249 
L 56.714526 35.767249 
L 69.887262 35.767249 
L 83.005789 35.767249 
L 96.156841 72.53225 
L 109.297051 125.820859 
L 122.437261 161.140052 
L 135.577472 184.686178 
L 148.717682 201.003234 
L 161.863313 212.156664 
L 175.003523 220.211918 
L 188.143734 225.767978 
L 201.289365 229.857569 
L 214.407892 232.873126 
L 227.580627 235.062502 
L 240.699154 236.735517 
L 253.87189 237.974787 
L 266.990416 238.883585 
L 280.108943 239.606492 
L 293.281679 240.164164 
L 306.400205 240.577254 
L 319.572941 240.899464 
L 332.691468 241.161776 
L 345.864203 241.391041 
L 358.98273 241.564539 
L 372.101257 241.698793 
L 385.273993 241.820654 
L 398.392519 241.909469 
L 411.565255 241.983825 
L 424.683782 242.05405 
L 437.856517 242.103621 
L 450.975044 242.143691 
L 464.093571 242.175086 
L 477.266306 242.199045 
L 490.384833 242.224243 
L 503.557569 242.237049 
L 516.676095 242.253573 
L 529.848831 242.265759 
L 542.967358 242.275879 
L 556.085885 242.283728 
L 569.25862 242.288479 
L 582.377147 242.293126 
L 595.549883 242.297794 
L 608.668409 242.301016 
L 621.841145 242.30304 
L 634.959672 242.304176 
L 648.078198 242.306737 
L 661.250934 242.307625 
L 674.369461 242.307625 
L 687.487988 242.309732 
L 700.498097 242.309732 
L 714.050294 242.309732 
L 727.060403 242.310769 
L 740.070512 242.310769 
L 744.225806 242.311026 
" clip-path="url(#p1766a2685b)" style="fill: none; stroke-dasharray: 5.55,2.4; stroke-dashoffset: 0; stroke: #ffa500; stroke-width: 1.5"/>
   </g>
   <g id="line2d_22">
    <path d="M -1 35.767249 
L 4.18621 35.767249 
L 17.304737 35.767249 
L 30.423264 35.767249 
L 43.595999 35.767249 
L 56.714526 35.767249 
L 69.887262 35.767249 
L 83.005789 35.767249 
L 96.156841 71.706081 
L 109.297051 125.201232 
L 122.437261 160.520419 
L 135.577472 184.479636 
L 148.717682 200.796689 
L 161.863313 212.36321 
L 175.003523 220.625009 
L 188.143734 226.428923 
L 201.289365 230.766367 
L 214.407892 233.823233 
L 227.580627 235.991955 
L 240.699154 237.603006 
L 253.87189 238.780312 
L 266.990416 239.647801 
L 280.108943 240.286025 
L 293.281679 240.765209 
L 306.400205 241.128729 
L 319.572941 241.384844 
L 332.691468 241.612044 
L 345.864203 241.773149 
L 358.98273 241.89088 
L 372.101257 241.987956 
L 385.273993 242.05405 
L 398.392519 242.106306 
L 411.565255 242.147409 
L 424.683782 242.182315 
L 437.856517 242.20111 
L 450.975044 242.213916 
L 464.093571 242.228994 
L 477.266306 242.245104 
L 490.384833 242.260182 
L 503.557569 242.267618 
L 516.676095 242.276706 
L 529.848831 242.286826 
L 542.967358 242.292878 
L 556.085885 242.30021 
L 569.25862 242.304548 
L 582.377147 242.305106 
L 595.549883 242.306221 
L 608.668409 242.308865 
L 621.841145 242.308865 
L 634.959672 242.30998 
L 648.078198 242.311108 
L 661.250934 242.312231 
L 674.369461 242.312231 
L 687.487988 242.312231 
L 700.498097 242.312231 
L 714.050294 242.312231 
L 727.060403 242.312231 
L 740.070512 242.312231 
L 744.225806 242.312231 
" clip-path="url(#p1766a2685b)" style="fill: none; stroke-dasharray: 1.5,2.475; stroke-dashoffset: 0; stroke: #008000; stroke-width: 1.5"/>
   </g>
   <g id="patch_3">
    <path d="M 33.73 252.639481 
L 33.73 25.44 
" style="fill: none; stroke: #000000; stroke-width: 0.8; stroke-linejoin: miter; stroke-linecap: square"/>
   </g>
   <g id="patch_4">
    <path d="M 358.98273 252.639481 
L 358.98273 25.44 
" style="fill: none; stroke: #000000; stroke-width: 0.8; stroke-linejoin: miter; stroke-linecap: square"/>
   </g>
   <g id="patch_5">
    <path d="M 33.73 252.639481 
L 358.98273 252.639481 
" style="fill: none; stroke: #000000; stroke-width: 0.8; stroke-linejoin: miter; stroke-linecap: square"/>
   </g>
   <g id="patch_6">
    <path d="M 33.73 25.44 
L 358.98273 25.44 
" style="fill: none; stroke: #000000; stroke-width: 0.8; stroke-linejoin: miter; stroke-linecap: square"/>
   </g>
   <g id="text_14">
    <!-- C(score|F) Foldseek -->
    <g transform="translate(137.62199 19.44) scale(0.12 -0.12)">
     <defs>
      <path id="DejaVuSans-43" d="M 4122 4306 
L 4122 3641 
Q 3803 3938 3442 4084 
Q 3081 4231 2675 4231 
Q 1875 4231 1450 3742 
Q 1025 3253 1025 2328 
Q 1025 1406 1450 917 
Q 1875 428 2675 428 
Q 3081 428 3442 575 
Q 3803 722 4122 1019 
L 4122 359 
Q 3791 134 3420 21 
Q 3050 -91 2638 -91 
Q 1578 -91 968 557 
Q 359 1206 359 2328 
Q 359 3453 968 4101 
Q 1578 4750 2638 4750 
Q 3056 4750 3426 4639 
Q 3797 4528 4122 4306 
z
" transform="scale(0.015625)"/>
      <path id="DejaVuSans-28" d="M 1984 4856 
Q 1566 4138 1362 3434 
Q 1159 2731 1159 2009 
Q 1159 1288 1364 580 
Q 1569 -128 1984 -844 
L 1484 -844 
Q 1016 -109 783 600 
Q 550 1309 550 2009 
Q 550 2706 781 3412 
Q 1013 4119 1484 4856 
L 1984 4856 
z
" transform="scale(0.015625)"/>
      <path id="DejaVuSans-73" d="M 2834 3397 
L 2834 2853 
Q 2591 2978 2328 3040 
Q 2066 3103 1784 3103 
Q 1356 3103 1142 2972 
Q 928 2841 928 2578 
Q 928 2378 1081 2264 
Q 1234 2150 1697 2047 
L 1894 2003 
Q 2506 1872 2764 1633 
Q 3022 1394 3022 966 
Q 3022 478 2636 193 
Q 2250 -91 1575 -91 
Q 1294 -91 989 -36 
Q 684 19 347 128 
L 347 722 
Q 666 556 975 473 
Q 1284 391 1588 391 
Q 1994 391 2212 530 
Q 2431 669 2431 922 
Q 2431 1156 2273 1281 
Q 2116 1406 1581 1522 
L 1381 1569 
Q 847 1681 609 1914 
Q 372 2147 372 2553 
Q 372 3047 722 3315 
Q 1072 3584 1716 3584 
Q 2034 3584 2315 3537 
Q 2597 3491 2834 3397 
z
" transform="scale(0.015625)"/>
      <path id="DejaVuSans-63" d="M 3122 3366 
L 3122 2828 
Q 2878 2963 2633 3030 
Q 2388 3097 2138 3097 
Q 1578 3097 1268 2742 
Q 959 2388 959 1747 
Q 959 1106 1268 751 
Q 1578 397 2138 397 
Q 2388 397 2633 464 
Q 2878 531 3122 666 
L 3122 134 
Q 2881 22 2623 -34 
Q 2366 -91 2075 -91 
Q 1284 -91 818 406 
Q 353 903 353 1747 
Q 353 2603 823 3093 
Q 1294 3584 2113 3584 
Q 2378 3584 2631 3529 
Q 2884 3475 3122 3366 
z
" transform="scale(0.015625)"/>
      <path id="DejaVuSans-6f" d="M 1959 3097 
Q 1497 3097 1228 2736 
Q 959 2375 959 1747 
Q 959 1119 1226 758 
Q 1494 397 1959 397 
Q 2419 397 2687 759 
Q 2956 1122 2956 1747 
Q 2956 2369 2687 2733 
Q 2419 3097 1959 3097 
z
M 1959 3584 
Q 2709 3584 3137 3096 
Q 3566 2609 3566 1747 
Q 3566 888 3137 398 
Q 2709 -91 1959 -91 
Q 1206 -91 779 398 
Q 353 888 353 1747 
Q 353 2609 779 3096 
Q 1206 3584 1959 3584 
z
" transform="scale(0.015625)"/>
      <path id="DejaVuSans-72" d="M 2631 2963 
Q 2534 3019 2420 3045 
Q 2306 3072 2169 3072 
Q 1681 3072 1420 2755 
Q 1159 2438 1159 1844 
L 1159 0 
L 581 0 
L 581 3500 
L 1159 3500 
L 1159 2956 
Q 1341 3275 1631 3429 
Q 1922 3584 2338 3584 
Q 2397 3584 2469 3576 
Q 2541 3569 2628 3553 
L 2631 2963 
z
" transform="scale(0.015625)"/>
      <path id="DejaVuSans-65" d="M 3597 1894 
L 3597 1613 
L 953 1613 
Q 991 1019 1311 708 
Q 1631 397 2203 397 
Q 2534 397 2845 478 
Q 3156 559 3463 722 
L 3463 178 
Q 3153 47 2828 -22 
Q 2503 -91 2169 -91 
Q 1331 -91 842 396 
Q 353 884 353 1716 
Q 353 2575 817 3079 
Q 1281 3584 2069 3584 
Q 2775 3584 3186 3129 
Q 3597 2675 3597 1894 
z
M 3022 2063 
Q 3016 2534 2758 2815 
Q 2500 3097 2075 3097 
Q 1594 3097 1305 2825 
Q 1016 2553 972 2059 
L 3022 2063 
z
" transform="scale(0.015625)"/>
      <path id="DejaVuSans-7c" d="M 1344 4891 
L 1344 -1509 
L 813 -1509 
L 813 4891 
L 1344 4891 
z
" transform="scale(0.015625)"/>
      <path id="DejaVuSans-46" d="M 628 4666 
L 3309 4666 
L 3309 4134 
L 1259 4134 
L 1259 2759 
L 3109 2759 
L 3109 2228 
L 1259 2228 
L 1259 0 
L 628 0 
L 628 4666 
z
" transform="scale(0.015625)"/>
      <path id="DejaVuSans-29" d="M 513 4856 
L 1013 4856 
Q 1481 4119 1714 3412 
Q 1947 2706 1947 2009 
Q 1947 1309 1714 600 
Q 1481 -109 1013 -844 
L 513 -844 
Q 928 -128 1133 580 
Q 1338 1288 1338 2009 
Q 1338 2731 1133 3434 
Q 928 4138 513 4856 
z
" transform="scale(0.015625)"/>
      <path id="DejaVuSans-20" transform="scale(0.015625)"/>
      <path id="DejaVuSans-6c" d="M 603 4863 
L 1178 4863 
L 1178 0 
L 603 0 
L 603 4863 
z
" transform="scale(0.015625)"/>
      <path id="DejaVuSans-64" d="M 2906 2969 
L 2906 4863 
L 3481 4863 
L 3481 0 
L 2906 0 
L 2906 525 
Q 2725 213 2448 61 
Q 2172 -91 1784 -91 
Q 1150 -91 751 415 
Q 353 922 353 1747 
Q 353 2572 751 3078 
Q 1150 3584 1784 3584 
Q 2172 3584 2448 3432 
Q 2725 3281 2906 2969 
z
M 947 1747 
Q 947 1113 1208 752 
Q 1469 391 1925 391 
Q 2381 391 2643 752 
Q 2906 1113 2906 1747 
Q 2906 2381 2643 2742 
Q 2381 3103 1925 3103 
Q 1469 3103 1208 2742 
Q 947 2381 947 1747 
z
" transform="scale(0.015625)"/>
      <path id="DejaVuSans-6b" d="M 581 4863 
L 1159 4863 
L 1159 1991 
L 2875 3500 
L 3609 3500 
L 1753 1863 
L 3688 0 
L 2938 0 
L 1159 1709 
L 1159 0 
L 581 0 
L 581 4863 
z
" transform="scale(0.015625)"/>
     </defs>
     <use xlink:href="#DejaVuSans-43"/>
     <use xlink:href="#DejaVuSans-28" transform="translate(69.824219 0)"/>
     <use xlink:href="#DejaVuSans-73" transform="translate(108.837891 0)"/>
     <use xlink:href="#DejaVuSans-63" transform="translate(160.9375 0)"/>
     <use xlink:href="#DejaVuSans-6f" transform="translate(215.917969 0)"/>
     <use xlink:href="#DejaVuSans-72" transform="translate(277.099609 0)"/>
     <use xlink:href="#DejaVuSans-65" transform="translate(315.962891 0)"/>
     <use xlink:href="#DejaVuSans-7c" transform="translate(377.486328 0)"/>
     <use xlink:href="#DejaVuSans-46" transform="translate(411.177734 0)"/>
     <use xlink:href="#DejaVuSans-29" transform="translate(468.697266 0)"/>
     <use xlink:href="#DejaVuSans-20" transform="translate(507.710938 0)"/>
     <use xlink:href="#DejaVuSans-46" transform="translate(539.498047 0)"/>
     <use xlink:href="#DejaVuSans-6f" transform="translate(593.392578 0)"/>
     <use xlink:href="#DejaVuSans-6c" transform="translate(654.574219 0)"/>
     <use xlink:href="#DejaVuSans-64" transform="translate(682.357422 0)"/>
     <use xlink:href="#DejaVuSans-73" transform="translate(745.833984 0)"/>
     <use xlink:href="#DejaVuSans-65" transform="translate(797.933594 0)"/>
     <use xlink:href="#DejaVuSans-65" transform="translate(859.457031 0)"/>
     <use xlink:href="#DejaVuSans-6b" transform="translate(920.980469 0)"/>
    </g>
   </g>
   <g id="legend_1">
    <g id="patch_7">
     <path d="M 258.193668 165.543125 
L 351.98273 165.543125 
Q 353.98273 165.543125 353.98273 163.543125 
L 353.98273 32.44 
Q 353.98273 30.44 351.98273 30.44 
L 258.193668 30.44 
Q 256.193668 30.44 256.193668 32.44 
L 256.193668 163.543125 
Q 256.193668 165.543125 258.193668 165.543125 
z
" style="fill: #ffffff; opacity: 0.8; stroke: #cccccc; stroke-linejoin: miter"/>
    </g>
    <g id="line2d_23">
     <path d="M 260.193668 38.538437 
L 270.193668 38.538437 
L 280.193668 38.538437 
" style="fill: none; stroke-dasharray: 9.6,2.4,1.5,2.4; stroke-dashoffset: 0; stroke: #000000; stroke-width: 1.5"/>
    </g>
    <g id="text_15">
     <!-- SCOP40x8 -->
     <g transform="translate(288.193668 42.038437) scale(0.1 -0.1)">
      <defs>
       <path id="DejaVuSans-53" d="M 3425 4513 
L 3425 3897 
Q 3066 4069 2747 4153 
Q 2428 4238 2131 4238 
Q 1616 4238 1336 4038 
Q 1056 3838 1056 3469 
Q 1056 3159 1242 3001 
Q 1428 2844 1947 2747 
L 2328 2669 
Q 3034 2534 3370 2195 
Q 3706 1856 3706 1288 
Q 3706 609 3251 259 
Q 2797 -91 1919 -91 
Q 1588 -91 1214 -16 
Q 841 59 441 206 
L 441 856 
Q 825 641 1194 531 
Q 1563 422 1919 422 
Q 2459 422 2753 634 
Q 3047 847 3047 1241 
Q 3047 1584 2836 1778 
Q 2625 1972 2144 2069 
L 1759 2144 
Q 1053 2284 737 2584 
Q 422 2884 422 3419 
Q 422 4038 858 4394 
Q 1294 4750 2059 4750 
Q 2388 4750 2728 4690 
Q 3069 4631 3425 4513 
z
" transform="scale(0.015625)"/>
       <path id="DejaVuSans-4f" d="M 2522 4238 
Q 1834 4238 1429 3725 
Q 1025 3213 1025 2328 
Q 1025 1447 1429 934 
Q 1834 422 2522 422 
Q 3209 422 3611 934 
Q 4013 1447 4013 2328 
Q 4013 3213 3611 3725 
Q 3209 4238 2522 4238 
z
M 2522 4750 
Q 3503 4750 4090 4092 
Q 4678 3434 4678 2328 
Q 4678 1225 4090 567 
Q 3503 -91 2522 -91 
Q 1538 -91 948 565 
Q 359 1222 359 2328 
Q 359 3434 948 4092 
Q 1538 4750 2522 4750 
z
" transform="scale(0.015625)"/>
       <path id="DejaVuSans-50" d="M 1259 4147 
L 1259 2394 
L 2053 2394 
Q 2494 2394 2734 2622 
Q 2975 2850 2975 3272 
Q 2975 3691 2734 3919 
Q 2494 4147 2053 4147 
L 1259 4147 
z
M 628 4666 
L 2053 4666 
Q 2838 4666 3239 4311 
Q 3641 3956 3641 3272 
Q 3641 2581 3239 2228 
Q 2838 1875 2053 1875 
L 1259 1875 
L 1259 0 
L 628 0 
L 628 4666 
z
" transform="scale(0.015625)"/>
       <path id="DejaVuSans-78" d="M 3513 3500 
L 2247 1797 
L 3578 0 
L 2900 0 
L 1881 1375 
L 863 0 
L 184 0 
L 1544 1831 
L 300 3500 
L 978 3500 
L 1906 2253 
L 2834 3500 
L 3513 3500 
z
" transform="scale(0.015625)"/>
      </defs>
      <use xlink:href="#DejaVuSans-53"/>
      <use xlink:href="#DejaVuSans-43" transform="translate(63.476562 0)"/>
      <use xlink:href="#DejaVuSans-4f" transform="translate(133.300781 0)"/>
      <use xlink:href="#DejaVuSans-50" transform="translate(212.011719 0)"/>
      <use xlink:href="#DejaVuSans-34" transform="translate(272.314453 0)"/>
      <use xlink:href="#DejaVuSans-30" transform="translate(335.9375 0)"/>
      <use xlink:href="#DejaVuSans-78" transform="translate(399.560547 0)"/>
      <use xlink:href="#DejaVuSans-38" transform="translate(458.740234 0)"/>
     </g>
    </g>
    <g id="line2d_24">
     <path d="M 260.193668 53.216563 
L 270.193668 53.216563 
L 280.193668 53.216563 
" style="fill: none; stroke: #000000; stroke-width: 1.5; stroke-linecap: square"/>
    </g>
    <g id="text_16">
     <!-- SCOP40 -->
     <g transform="translate(288.193668 56.716563) scale(0.1 -0.1)">
      <use xlink:href="#DejaVuSans-53"/>
      <use xlink:href="#DejaVuSans-43" transform="translate(63.476562 0)"/>
      <use xlink:href="#DejaVuSans-4f" transform="translate(133.300781 0)"/>
      <use xlink:href="#DejaVuSans-50" transform="translate(212.011719 0)"/>
      <use xlink:href="#DejaVuSans-34" transform="translate(272.314453 0)"/>
      <use xlink:href="#DejaVuSans-30" transform="translate(335.9375 0)"/>
     </g>
    </g>
    <g id="line2d_25">
     <path d="M 260.193668 67.894687 
L 270.193668 67.894687 
L 280.193668 67.894687 
" style="fill: none; stroke: #00ffff; stroke-width: 1.5; stroke-linecap: square"/>
    </g>
    <g id="text_17">
     <!-- SCOP40c -->
     <g transform="translate(288.193668 71.394687) scale(0.1 -0.1)">
      <use xlink:href="#DejaVuSans-53"/>
      <use xlink:href="#DejaVuSans-43" transform="translate(63.476562 0)"/>
      <use xlink:href="#DejaVuSans-4f" transform="translate(133.300781 0)"/>
      <use xlink:href="#DejaVuSans-50" transform="translate(212.011719 0)"/>
      <use xlink:href="#DejaVuSans-34" transform="translate(272.314453 0)"/>
      <use xlink:href="#DejaVuSans-30" transform="translate(335.9375 0)"/>
      <use xlink:href="#DejaVuSans-63" transform="translate(399.560547 0)"/>
     </g>
    </g>
    <g id="line2d_26">
     <path d="M 260.193668 82.572812 
L 270.193668 82.572812 
L 280.193668 82.572812 
" style="fill: none; stroke: #ff00ff; stroke-width: 1.5; stroke-linecap: square"/>
    </g>
    <g id="text_18">
     <!-- SCOP40/N2 -->
     <g transform="translate(288.193668 86.072812) scale(0.1 -0.1)">
      <defs>
       <path id="DejaVuSans-2f" d="M 1625 4666 
L 2156 4666 
L 531 -594 
L 0 -594 
L 1625 4666 
z
" transform="scale(0.015625)"/>
       <path id="DejaVuSans-4e" d="M 628 4666 
L 1478 4666 
L 3547 763 
L 3547 4666 
L 4159 4666 
L 4159 0 
L 3309 0 
L 1241 3903 
L 1241 0 
L 628 0 
L 628 4666 
z
" transform="scale(0.015625)"/>
      </defs>
      <use xlink:href="#DejaVuSans-53"/>
      <use xlink:href="#DejaVuSans-43" transform="translate(63.476562 0)"/>
      <use xlink:href="#DejaVuSans-4f" transform="translate(133.300781 0)"/>
      <use xlink:href="#DejaVuSans-50" transform="translate(212.011719 0)"/>
      <use xlink:href="#DejaVuSans-34" transform="translate(272.314453 0)"/>
      <use xlink:href="#DejaVuSans-30" transform="translate(335.9375 0)"/>
      <use xlink:href="#DejaVuSans-2f" transform="translate(399.560547 0)"/>
      <use xlink:href="#DejaVuSans-4e" transform="translate(433.251953 0)"/>
      <use xlink:href="#DejaVuSans-32" transform="translate(508.056641 0)"/>
     </g>
    </g>
    <g id="line2d_27">
     <path d="M 260.193668 97.250937 
L 270.193668 97.250937 
L 280.193668 97.250937 
" style="fill: none; stroke-dasharray: 5.55,2.4; stroke-dashoffset: 0; stroke: #ff00ff; stroke-width: 1.5"/>
    </g>
    <g id="text_19">
     <!-- SCOP40/N4 -->
     <g transform="translate(288.193668 100.750937) scale(0.1 -0.1)">
      <use xlink:href="#DejaVuSans-53"/>
      <use xlink:href="#DejaVuSans-43" transform="translate(63.476562 0)"/>
      <use xlink:href="#DejaVuSans-4f" transform="translate(133.300781 0)"/>
      <use xlink:href="#DejaVuSans-50" transform="translate(212.011719 0)"/>
      <use xlink:href="#DejaVuSans-34" transform="translate(272.314453 0)"/>
      <use xlink:href="#DejaVuSans-30" transform="translate(335.9375 0)"/>
      <use xlink:href="#DejaVuSans-2f" transform="translate(399.560547 0)"/>
      <use xlink:href="#DejaVuSans-4e" transform="translate(433.251953 0)"/>
      <use xlink:href="#DejaVuSans-34" transform="translate(508.056641 0)"/>
     </g>
    </g>
    <g id="line2d_28">
     <path d="M 260.193668 111.929062 
L 270.193668 111.929062 
L 280.193668 111.929062 
" style="fill: none; stroke-dasharray: 1.5,2.475; stroke-dashoffset: 0; stroke: #ff00ff; stroke-width: 1.5"/>
    </g>
    <g id="text_20">
     <!-- SCOP40/N8 -->
     <g transform="translate(288.193668 115.429062) scale(0.1 -0.1)">
      <use xlink:href="#DejaVuSans-53"/>
      <use xlink:href="#DejaVuSans-43" transform="translate(63.476562 0)"/>
      <use xlink:href="#DejaVuSans-4f" transform="translate(133.300781 0)"/>
      <use xlink:href="#DejaVuSans-50" transform="translate(212.011719 0)"/>
      <use xlink:href="#DejaVuSans-34" transform="translate(272.314453 0)"/>
      <use xlink:href="#DejaVuSans-30" transform="translate(335.9375 0)"/>
      <use xlink:href="#DejaVuSans-2f" transform="translate(399.560547 0)"/>
      <use xlink:href="#DejaVuSans-4e" transform="translate(433.251953 0)"/>
      <use xlink:href="#DejaVuSans-38" transform="translate(508.056641 0)"/>
     </g>
    </g>
    <g id="line2d_29">
     <path d="M 260.193668 126.607187 
L 270.193668 126.607187 
L 280.193668 126.607187 
" style="fill: none; stroke: #ffa500; stroke-width: 1.5; stroke-linecap: square"/>
    </g>
    <g id="text_21">
     <!-- SCOP40/SF4 -->
     <g transform="translate(288.193668 130.107187) scale(0.1 -0.1)">
      <use xlink:href="#DejaVuSans-53"/>
      <use xlink:href="#DejaVuSans-43" transform="translate(63.476562 0)"/>
      <use xlink:href="#DejaVuSans-4f" transform="translate(133.300781 0)"/>
      <use xlink:href="#DejaVuSans-50" transform="translate(212.011719 0)"/>
      <use xlink:href="#DejaVuSans-34" transform="translate(272.314453 0)"/>
      <use xlink:href="#DejaVuSans-30" transform="translate(335.9375 0)"/>
      <use xlink:href="#DejaVuSans-2f" transform="translate(399.560547 0)"/>
      <use xlink:href="#DejaVuSans-53" transform="translate(433.251953 0)"/>
      <use xlink:href="#DejaVuSans-46" transform="translate(496.728516 0)"/>
      <use xlink:href="#DejaVuSans-34" transform="translate(554.248047 0)"/>
     </g>
    </g>
    <g id="line2d_30">
     <path d="M 260.193668 141.285312 
L 270.193668 141.285312 
L 280.193668 141.285312 
" style="fill: none; stroke-dasharray: 5.55,2.4; stroke-dashoffset: 0; stroke: #ffa500; stroke-width: 1.5"/>
    </g>
    <g id="text_22">
     <!-- SCOP40/SF4 -->
     <g transform="translate(288.193668 144.785312) scale(0.1 -0.1)">
      <use xlink:href="#DejaVuSans-53"/>
      <use xlink:href="#DejaVuSans-43" transform="translate(63.476562 0)"/>
      <use xlink:href="#DejaVuSans-4f" transform="translate(133.300781 0)"/>
      <use xlink:href="#DejaVuSans-50" transform="translate(212.011719 0)"/>
      <use xlink:href="#DejaVuSans-34" transform="translate(272.314453 0)"/>
      <use xlink:href="#DejaVuSans-30" transform="translate(335.9375 0)"/>
      <use xlink:href="#DejaVuSans-2f" transform="translate(399.560547 0)"/>
      <use xlink:href="#DejaVuSans-53" transform="translate(433.251953 0)"/>
      <use xlink:href="#DejaVuSans-46" transform="translate(496.728516 0)"/>
      <use xlink:href="#DejaVuSans-34" transform="translate(554.248047 0)"/>
     </g>
    </g>
    <g id="line2d_31">
     <path d="M 260.193668 155.963437 
L 270.193668 155.963437 
L 280.193668 155.963437 
" style="fill: none; stroke-dasharray: 1.5,2.475; stroke-dashoffset: 0; stroke: #008000; stroke-width: 1.5"/>
    </g>
    <g id="text_23">
     <!-- SCOP40/SF8 -->
     <g transform="translate(288.193668 159.463437) scale(0.1 -0.1)">
      <use xlink:href="#DejaVuSans-53"/>
      <use xlink:href="#DejaVuSans-43" transform="translate(63.476562 0)"/>
      <use xlink:href="#DejaVuSans-4f" transform="translate(133.300781 0)"/>
      <use xlink:href="#DejaVuSans-50" transform="translate(212.011719 0)"/>
      <use xlink:href="#DejaVuSans-34" transform="translate(272.314453 0)"/>
      <use xlink:href="#DejaVuSans-30" transform="translate(335.9375 0)"/>
      <use xlink:href="#DejaVuSans-2f" transform="translate(399.560547 0)"/>
      <use xlink:href="#DejaVuSans-53" transform="translate(433.251953 0)"/>
      <use xlink:href="#DejaVuSans-46" transform="translate(496.728516 0)"/>
      <use xlink:href="#DejaVuSans-38" transform="translate(554.248047 0)"/>
     </g>
    </g>
   </g>
  </g>
  <g id="axes_2">
   <g id="patch_8">
    <path d="M 403.978076 252.639481 
L 729.230806 252.639481 
L 729.230806 25.44 
L 403.978076 25.44 
z
" style="fill: #ffffff"/>
   </g>
   <g id="matplotlib.axis_3">
    <g id="xtick_8">
     <g id="line2d_32">
      <g>
       <use xlink:href="#m6cce0f2473" x="403.978076" y="252.639481" style="stroke: #000000; stroke-width: 0.8"/>
      </g>
     </g>
     <g id="text_24">
      <!-- −2 -->
      <g transform="translate(396.606983 267.237918) scale(0.1 -0.1)">
       <use xlink:href="#DejaVuSans-2212"/>
       <use xlink:href="#DejaVuSans-32" transform="translate(83.789062 0)"/>
      </g>
     </g>
    </g>
    <g id="xtick_9">
     <g id="line2d_33">
      <g>
       <use xlink:href="#m6cce0f2473" x="458.186865" y="252.639481" style="stroke: #000000; stroke-width: 0.8"/>
      </g>
     </g>
     <g id="text_25">
      <!-- −1 -->
      <g transform="translate(450.815771 267.237918) scale(0.1 -0.1)">
       <use xlink:href="#DejaVuSans-2212"/>
       <use xlink:href="#DejaVuSans-31" transform="translate(83.789062 0)"/>
      </g>
     </g>
    </g>
    <g id="xtick_10">
     <g id="line2d_34">
      <g>
       <use xlink:href="#m6cce0f2473" x="512.395653" y="252.639481" style="stroke: #000000; stroke-width: 0.8"/>
      </g>
     </g>
     <g id="text_26">
      <!-- 0 -->
      <g transform="translate(509.214403 267.237918) scale(0.1 -0.1)">
       <use xlink:href="#DejaVuSans-30"/>
      </g>
     </g>
    </g>
    <g id="xtick_11">
     <g id="line2d_35">
      <g>
       <use xlink:href="#m6cce0f2473" x="566.604441" y="252.639481" style="stroke: #000000; stroke-width: 0.8"/>
      </g>
     </g>
     <g id="text_27">
      <!-- 1 -->
      <g transform="translate(563.423191 267.237918) scale(0.1 -0.1)">
       <use xlink:href="#DejaVuSans-31"/>
      </g>
     </g>
    </g>
    <g id="xtick_12">
     <g id="line2d_36">
      <g>
       <use xlink:href="#m6cce0f2473" x="620.81323" y="252.639481" style="stroke: #000000; stroke-width: 0.8"/>
      </g>
     </g>
     <g id="text_28">
      <!-- 2 -->
      <g transform="translate(617.63198 267.237918) scale(0.1 -0.1)">
       <use xlink:href="#DejaVuSans-32"/>
      </g>
     </g>
    </g>
    <g id="xtick_13">
     <g id="line2d_37">
      <g>
       <use xlink:href="#m6cce0f2473" x="675.022018" y="252.639481" style="stroke: #000000; stroke-width: 0.8"/>
      </g>
     </g>
     <g id="text_29">
      <!-- 3 -->
      <g transform="translate(671.840768 267.237918) scale(0.1 -0.1)">
       <use xlink:href="#DejaVuSans-33"/>
      </g>
     </g>
    </g>
    <g id="xtick_14">
     <g id="line2d_38">
      <g>
       <use xlink:href="#m6cce0f2473" x="729.230806" y="252.639481" style="stroke: #000000; stroke-width: 0.8"/>
      </g>
     </g>
     <g id="text_30">
      <!-- 4 -->
      <g transform="translate(726.049556 267.237918) scale(0.1 -0.1)">
       <use xlink:href="#DejaVuSans-34"/>
      </g>
     </g>
    </g>
   </g>
   <g id="matplotlib.axis_4">
    <g id="ytick_7">
     <g id="line2d_39">
      <g>
       <use xlink:href="#m0c33af2c16" x="403.978076" y="252.639481" style="stroke: #000000; stroke-width: 0.8"/>
      </g>
     </g>
     <g id="text_31">
      <!-- $\mathdefault{10^{-3}}$ -->
      <g transform="translate(373.478076 256.438699) scale(0.1 -0.1)">
       <use xlink:href="#DejaVuSans-31" transform="translate(0 0.765625)"/>
       <use xlink:href="#DejaVuSans-30" transform="translate(63.623047 0.765625)"/>
       <use xlink:href="#DejaVuSans-2212" transform="translate(128.203125 39.046875) scale(0.7)"/>
       <use xlink:href="#DejaVuSans-33" transform="translate(186.855469 39.046875) scale(0.7)"/>
      </g>
     </g>
    </g>
    <g id="ytick_8">
     <g id="line2d_40">
      <g>
       <use xlink:href="#m0c33af2c16" x="403.978076" y="183.812635" style="stroke: #000000; stroke-width: 0.8"/>
      </g>
     </g>
     <g id="text_32">
      <!-- $\mathdefault{10^{-2}}$ -->
      <g transform="translate(373.478076 187.611854) scale(0.1 -0.1)">
       <use xlink:href="#DejaVuSans-31" transform="translate(0 0.765625)"/>
       <use xlink:href="#DejaVuSans-30" transform="translate(63.623047 0.765625)"/>
       <use xlink:href="#DejaVuSans-2212" transform="translate(128.203125 39.046875) scale(0.7)"/>
       <use xlink:href="#DejaVuSans-32" transform="translate(186.855469 39.046875) scale(0.7)"/>
      </g>
     </g>
    </g>
    <g id="ytick_9">
     <g id="line2d_41">
      <g>
       <use xlink:href="#m0c33af2c16" x="403.978076" y="114.98579" style="stroke: #000000; stroke-width: 0.8"/>
      </g>
     </g>
     <g id="text_33">
      <!-- $\mathdefault{10^{-1}}$ -->
      <g transform="translate(373.478076 118.785009) scale(0.1 -0.1)">
       <use xlink:href="#DejaVuSans-31" transform="translate(0 0.684375)"/>
       <use xlink:href="#DejaVuSans-30" transform="translate(63.623047 0.684375)"/>
       <use xlink:href="#DejaVuSans-2212" transform="translate(128.203125 38.965625) scale(0.7)"/>
       <use xlink:href="#DejaVuSans-31" transform="translate(186.855469 38.965625) scale(0.7)"/>
      </g>
     </g>
    </g>
    <g id="ytick_10">
     <g id="line2d_42">
      <g>
       <use xlink:href="#m0c33af2c16" x="403.978076" y="46.158945" style="stroke: #000000; stroke-width: 0.8"/>
      </g>
     </g>
     <g id="text_34">
      <!-- $\mathdefault{10^{0}}$ -->
      <g transform="translate(379.378076 49.958164) scale(0.1 -0.1)">
       <use xlink:href="#DejaVuSans-31" transform="translate(0 0.765625)"/>
       <use xlink:href="#DejaVuSans-30" transform="translate(63.623047 0.765625)"/>
       <use xlink:href="#DejaVuSans-30" transform="translate(128.203125 39.046875) scale(0.7)"/>
      </g>
     </g>
    </g>
    <g id="ytick_11">
     <g id="line2d_43">
      <defs>
       <path id="meda53f8269" d="M 0 0 
L -2 0 
" style="stroke: #000000; stroke-width: 0.6"/>
      </defs>
      <g>
       <use xlink:href="#meda53f8269" x="403.978076" y="231.920536" style="stroke: #000000; stroke-width: 0.6"/>
      </g>
     </g>
    </g>
    <g id="ytick_12">
     <g id="line2d_44">
      <g>
       <use xlink:href="#meda53f8269" x="403.978076" y="219.80073" style="stroke: #000000; stroke-width: 0.6"/>
      </g>
     </g>
    </g>
    <g id="ytick_13">
     <g id="line2d_45">
      <g>
       <use xlink:href="#meda53f8269" x="403.978076" y="211.201591" style="stroke: #000000; stroke-width: 0.6"/>
      </g>
     </g>
    </g>
    <g id="ytick_14">
     <g id="line2d_46">
      <g>
       <use xlink:href="#meda53f8269" x="403.978076" y="204.53158" style="stroke: #000000; stroke-width: 0.6"/>
      </g>
     </g>
    </g>
    <g id="ytick_15">
     <g id="line2d_47">
      <g>
       <use xlink:href="#meda53f8269" x="403.978076" y="199.081785" style="stroke: #000000; stroke-width: 0.6"/>
      </g>
     </g>
    </g>
    <g id="ytick_16">
     <g id="line2d_48">
      <g>
       <use xlink:href="#meda53f8269" x="403.978076" y="194.474049" style="stroke: #000000; stroke-width: 0.6"/>
      </g>
     </g>
    </g>
    <g id="ytick_17">
     <g id="line2d_49">
      <g>
       <use xlink:href="#meda53f8269" x="403.978076" y="190.482646" style="stroke: #000000; stroke-width: 0.6"/>
      </g>
     </g>
    </g>
    <g id="ytick_18">
     <g id="line2d_50">
      <g>
       <use xlink:href="#meda53f8269" x="403.978076" y="186.961979" style="stroke: #000000; stroke-width: 0.6"/>
      </g>
     </g>
    </g>
    <g id="ytick_19">
     <g id="line2d_51">
      <g>
       <use xlink:href="#meda53f8269" x="403.978076" y="163.09369" style="stroke: #000000; stroke-width: 0.6"/>
      </g>
     </g>
    </g>
    <g id="ytick_20">
     <g id="line2d_52">
      <g>
       <use xlink:href="#meda53f8269" x="403.978076" y="150.973885" style="stroke: #000000; stroke-width: 0.6"/>
      </g>
     </g>
    </g>
    <g id="ytick_21">
     <g id="line2d_53">
      <g>
       <use xlink:href="#meda53f8269" x="403.978076" y="142.374745" style="stroke: #000000; stroke-width: 0.6"/>
      </g>
     </g>
    </g>
    <g id="ytick_22">
     <g id="line2d_54">
      <g>
       <use xlink:href="#meda53f8269" x="403.978076" y="135.704735" style="stroke: #000000; stroke-width: 0.6"/>
      </g>
     </g>
    </g>
    <g id="ytick_23">
     <g id="line2d_55">
      <g>
       <use xlink:href="#meda53f8269" x="403.978076" y="130.25494" style="stroke: #000000; stroke-width: 0.6"/>
      </g>
     </g>
    </g>
    <g id="ytick_24">
     <g id="line2d_56">
      <g>
       <use xlink:href="#meda53f8269" x="403.978076" y="125.647203" style="stroke: #000000; stroke-width: 0.6"/>
      </g>
     </g>
    </g>
    <g id="ytick_25">
     <g id="line2d_57">
      <g>
       <use xlink:href="#meda53f8269" x="403.978076" y="121.655801" style="stroke: #000000; stroke-width: 0.6"/>
      </g>
     </g>
    </g>
    <g id="ytick_26">
     <g id="line2d_58">
      <g>
       <use xlink:href="#meda53f8269" x="403.978076" y="118.135134" style="stroke: #000000; stroke-width: 0.6"/>
      </g>
     </g>
    </g>
    <g id="ytick_27">
     <g id="line2d_59">
      <g>
       <use xlink:href="#meda53f8269" x="403.978076" y="94.266845" style="stroke: #000000; stroke-width: 0.6"/>
      </g>
     </g>
    </g>
    <g id="ytick_28">
     <g id="line2d_60">
      <g>
       <use xlink:href="#meda53f8269" x="403.978076" y="82.147039" style="stroke: #000000; stroke-width: 0.6"/>
      </g>
     </g>
    </g>
    <g id="ytick_29">
     <g id="line2d_61">
      <g>
       <use xlink:href="#meda53f8269" x="403.978076" y="73.5479" style="stroke: #000000; stroke-width: 0.6"/>
      </g>
     </g>
    </g>
    <g id="ytick_30">
     <g id="line2d_62">
      <g>
       <use xlink:href="#meda53f8269" x="403.978076" y="66.87789" style="stroke: #000000; stroke-width: 0.6"/>
      </g>
     </g>
    </g>
    <g id="ytick_31">
     <g id="line2d_63">
      <g>
       <use xlink:href="#meda53f8269" x="403.978076" y="61.428094" style="stroke: #000000; stroke-width: 0.6"/>
      </g>
     </g>
    </g>
    <g id="ytick_32">
     <g id="line2d_64">
      <g>
       <use xlink:href="#meda53f8269" x="403.978076" y="56.820358" style="stroke: #000000; stroke-width: 0.6"/>
      </g>
     </g>
    </g>
    <g id="ytick_33">
     <g id="line2d_65">
      <g>
       <use xlink:href="#meda53f8269" x="403.978076" y="52.828955" style="stroke: #000000; stroke-width: 0.6"/>
      </g>
     </g>
    </g>
    <g id="ytick_34">
     <g id="line2d_66">
      <g>
       <use xlink:href="#meda53f8269" x="403.978076" y="49.308289" style="stroke: #000000; stroke-width: 0.6"/>
      </g>
     </g>
    </g>
    <g id="ytick_35">
     <g id="line2d_67">
      <g>
       <use xlink:href="#meda53f8269" x="403.978076" y="25.44" style="stroke: #000000; stroke-width: 0.6"/>
      </g>
     </g>
    </g>
   </g>
   <g id="line2d_68">
    <path d="M 295.5605 46.158945 
L 308.679026 46.158945 
L 321.851762 46.158945 
L 334.970289 46.158945 
L 348.143024 46.158945 
L 361.261551 46.158945 
L 374.434287 46.158945 
L 387.552813 46.158945 
L 400.67134 46.158945 
L 413.844076 46.158945 
L 426.962603 46.158945 
L 440.135338 46.158945 
L 453.253865 46.158945 
L 466.399496 50.62206 
L 479.539706 59.442972 
L 492.685338 68.129258 
L 505.825548 76.614328 
L 518.965758 85.053814 
L 532.105968 93.455938 
L 545.2516 101.88586 
L 558.39181 110.446454 
L 571.537441 118.939639 
L 584.655968 127.351714 
L 597.828703 135.585409 
L 610.94723 143.618323 
L 624.119966 151.113704 
L 637.238493 158.285927 
L 650.357019 165.022818 
L 663.529755 171.35597 
L 676.648282 177.166548 
L 689.821017 182.813234 
L 702.939544 188.220275 
L 716.11228 193.690169 
L 729.230806 199.161601 
L 742.349333 204.886392 
L 744.225806 205.671522 
" clip-path="url(#pba70022c2c)" style="fill: none; stroke-dasharray: 9.6,2.4,1.5,2.4; stroke-dashoffset: 0; stroke: #000000; stroke-width: 1.5"/>
   </g>
   <g id="line2d_69">
    <path d="M 295.5605 46.158945 
L 308.679026 46.158945 
L 321.851762 46.158945 
L 334.970289 46.158945 
L 348.143024 46.158945 
L 361.261551 46.158945 
L 374.434287 46.158945 
L 387.552813 46.158945 
L 400.67134 46.158945 
L 413.844076 46.158945 
L 426.962603 46.158945 
L 440.135338 46.158945 
L 453.253865 46.158945 
L 466.399496 51.513241 
L 479.539706 62.052317 
L 492.685338 72.296614 
L 505.825548 82.256841 
L 518.965758 92.077306 
L 532.105968 101.808822 
L 545.2516 111.54494 
L 558.39181 121.302935 
L 571.537441 131.088459 
L 584.655968 140.611882 
L 597.828703 150.032355 
L 610.94723 159.150901 
L 624.119966 167.881315 
L 637.238493 176.108553 
L 650.357019 184.010571 
L 663.529755 191.508887 
L 676.648282 198.431309 
L 689.821017 205.080611 
L 702.939544 211.577586 
L 716.11228 217.880944 
L 729.230806 224.262689 
L 742.349333 230.391059 
L 744.225806 231.323547 
" clip-path="url(#pba70022c2c)" style="fill: none; stroke: #000000; stroke-width: 1.5; stroke-linecap: square"/>
   </g>
   <g id="line2d_70">
    <path d="M 295.5605 46.158945 
L 308.679026 46.158945 
L 321.851762 46.158945 
L 334.970289 46.158945 
L 348.143024 46.158945 
L 361.261551 46.158945 
L 374.434287 46.158945 
L 387.552813 46.158945 
L 400.67134 46.158945 
L 413.844076 46.158945 
L 426.962603 46.158945 
L 440.135338 46.158945 
L 453.253865 46.158945 
L 466.399496 51.974445 
L 479.539706 63.591958 
L 492.685338 75.041811 
L 505.825548 86.218259 
L 518.965758 97.151663 
L 532.105968 107.935602 
L 545.2516 118.640895 
L 558.39181 129.356888 
L 571.537441 140.247777 
L 584.655968 151.083686 
L 597.828703 161.935714 
L 610.94723 173.017014 
L 624.119966 183.986509 
L 637.238493 194.826268 
L 650.357019 205.839104 
L 663.529755 216.582715 
L 676.648282 227.496983 
L 689.821017 238.16392 
L 702.939544 249.709142 
L 716.11228 260.304813 
L 729.230806 271.996979 
L 740.175178 281.519481 
" clip-path="url(#pba70022c2c)" style="fill: none; stroke: #00ffff; stroke-width: 1.5; stroke-linecap: square"/>
   </g>
   <g id="line2d_71">
    <path d="M 295.5605 46.158945 
L 308.679026 46.158945 
L 321.851762 46.158945 
L 334.970289 46.158945 
L 348.143024 46.158945 
L 361.261551 46.158945 
L 374.434287 46.158945 
L 387.552813 46.158945 
L 400.67134 46.158945 
L 413.844076 46.158945 
L 426.962603 46.158945 
L 440.135338 46.158945 
L 453.253865 46.158945 
L 466.404917 51.477507 
L 479.545127 61.930479 
L 492.685338 72.089509 
L 505.825548 82.047568 
L 518.965758 91.828329 
L 532.111389 101.502634 
L 545.2516 111.332569 
L 558.39181 120.91771 
L 571.537441 130.605719 
L 584.655968 140.005182 
L 597.828703 149.420751 
L 610.94723 158.528687 
L 624.119966 167.256389 
L 637.238493 175.288318 
L 650.357019 183.220712 
L 663.529755 190.557466 
L 676.648282 197.105988 
L 689.821017 203.474418 
L 702.939544 209.885876 
L 716.11228 215.971678 
L 729.230806 222.184995 
L 742.349333 228.39987 
L 744.225806 229.279639 
" clip-path="url(#pba70022c2c)" style="fill: none; stroke: #ff00ff; stroke-width: 1.5; stroke-linecap: square"/>
   </g>
   <g id="line2d_72">
    <path d="M 295.5605 46.158945 
L 308.679026 46.158945 
L 321.851762 46.158945 
L 334.970289 46.158945 
L 348.143024 46.158945 
L 361.261551 46.158945 
L 374.434287 46.158945 
L 387.552813 46.158945 
L 400.67134 46.158945 
L 413.844076 46.158945 
L 426.962603 46.158945 
L 440.135338 46.158945 
L 453.253865 46.158945 
L 466.404917 51.513241 
L 479.545127 62.082854 
L 492.685338 72.375549 
L 505.825548 82.447456 
L 518.965758 92.244452 
L 532.111389 102.079331 
L 545.2516 111.598268 
L 558.39181 121.247597 
L 571.537441 131.062856 
L 584.655968 140.562607 
L 597.828703 150.090339 
L 610.94723 159.308498 
L 624.119966 168.127914 
L 637.238493 176.433712 
L 650.357019 184.264399 
L 663.529755 191.937303 
L 676.648282 198.538744 
L 689.821017 205.135461 
L 702.939544 211.805472 
L 716.11228 217.592678 
L 729.230806 223.508803 
L 742.349333 229.207787 
L 744.225806 230.13854 
" clip-path="url(#pba70022c2c)" style="fill: none; stroke-dasharray: 5.55,2.4; stroke-dashoffset: 0; stroke: #ff00ff; stroke-width: 1.5"/>
   </g>
   <g id="line2d_73">
    <path d="M 295.5605 46.158945 
L 308.679026 46.158945 
L 321.851762 46.158945 
L 334.970289 46.158945 
L 348.143024 46.158945 
L 361.261551 46.158945 
L 374.434287 46.158945 
L 387.552813 46.158945 
L 400.67134 46.158945 
L 413.844076 46.158945 
L 426.962603 46.158945 
L 440.135338 46.158945 
L 453.253865 46.158945 
L 466.404917 51.656604 
L 479.545127 62.287239 
L 492.685338 72.809811 
L 505.825548 82.954957 
L 518.965758 93.094494 
L 532.111389 103.065925 
L 545.2516 112.963397 
L 558.39181 123.110457 
L 571.537441 133.019297 
L 584.655968 142.599773 
L 597.828703 151.987241 
L 610.94723 161.351968 
L 624.119966 170.329481 
L 637.238493 177.868761 
L 650.357019 185.220256 
L 663.529755 192.411775 
L 676.648282 199.032007 
L 689.821017 205.689588 
L 702.939544 211.958369 
L 716.11228 218.532726 
L 729.230806 225.012346 
L 742.349333 232.070366 
L 744.225806 232.999174 
" clip-path="url(#pba70022c2c)" style="fill: none; stroke-dasharray: 1.5,2.475; stroke-dashoffset: 0; stroke: #ff00ff; stroke-width: 1.5"/>
   </g>
   <g id="line2d_74">
    <path d="M 295.5605 46.158945 
L 308.679026 46.158945 
L 321.851762 46.158945 
L 334.970289 46.158945 
L 348.143024 46.158945 
L 361.261551 46.158945 
L 374.434287 46.158945 
L 387.552813 46.158945 
L 400.67134 46.158945 
L 413.844076 46.158945 
L 426.962603 46.158945 
L 440.135338 46.158945 
L 453.253865 46.158945 
L 466.404917 51.016817 
L 479.545127 60.54455 
L 492.685338 69.82862 
L 505.825548 79.027601 
L 518.965758 88.078959 
L 532.111389 97.085898 
L 545.2516 106.237567 
L 558.39181 115.437554 
L 571.537441 124.680856 
L 584.655968 133.738267 
L 597.828703 142.826509 
L 610.94723 151.577766 
L 624.119966 160.244763 
L 637.238493 168.483764 
L 650.357019 176.433712 
L 663.529755 184.386032 
L 676.648282 191.702862 
L 689.821017 198.636749 
L 702.939544 205.257717 
L 716.11228 211.805472 
L 729.230806 218.532726 
L 742.349333 224.658601 
L 744.225806 225.650704 
" clip-path="url(#pba70022c2c)" style="fill: none; stroke: #ffa500; stroke-width: 1.5; stroke-linecap: square"/>
   </g>
   <g id="line2d_75">
    <path d="M 295.5605 46.158945 
L 308.679026 46.158945 
L 321.851762 46.158945 
L 334.970289 46.158945 
L 348.143024 46.158945 
L 361.261551 46.158945 
L 374.434287 46.158945 
L 387.552813 46.158945 
L 400.67134 46.158945 
L 413.844076 46.158945 
L 426.962603 46.158945 
L 440.135338 46.158945 
L 453.253865 46.158945 
L 466.404917 52.018048 
L 479.545127 63.277619 
L 492.685338 74.075626 
L 505.825548 84.316257 
L 518.965758 94.266845 
L 532.111389 103.673902 
L 545.2516 112.963397 
L 558.39181 121.61846 
L 571.537441 130.105856 
L 584.655968 138.392686 
L 597.828703 146.280865 
L 610.94723 154.123228 
L 624.119966 161.635298 
L 637.238493 168.66329 
L 650.357019 175.741222 
L 663.529755 182.640284 
L 676.648282 189.024254 
L 689.821017 195.165204 
L 702.939544 201.30462 
L 716.11228 207.947811 
L 729.230806 214.185331 
L 742.349333 220.101145 
L 744.225806 221.044135 
" clip-path="url(#pba70022c2c)" style="fill: none; stroke-dasharray: 5.55,2.4; stroke-dashoffset: 0; stroke: #ffa500; stroke-width: 1.5"/>
   </g>
   <g id="line2d_76">
    <path d="M 295.5605 46.158945 
L 308.679026 46.158945 
L 321.851762 46.158945 
L 334.970289 46.158945 
L 348.143024 46.158945 
L 361.261551 46.158945 
L 374.434287 46.158945 
L 387.552813 46.158945 
L 400.67134 46.158945 
L 413.844076 46.158945 
L 426.962603 46.158945 
L 440.135338 46.158945 
L 453.253865 46.158945 
L 466.404917 51.872947 
L 479.545127 63.119047 
L 492.685338 73.848316 
L 505.825548 84.209313 
L 518.965758 94.117761 
L 532.111389 103.87934 
L 545.2516 113.527398 
L 558.39181 122.837121 
L 571.537441 132.370638 
L 584.655968 141.56384 
L 597.828703 150.381962 
L 610.94723 159.177109 
L 624.119966 167.776247 
L 637.238493 176.201093 
L 650.357019 184.386032 
L 663.529755 192.451655 
L 676.648282 200.45809 
L 689.821017 207.747421 
L 702.939544 216.147508 
L 716.11228 223.963428 
L 729.230806 231.328614 
L 742.349333 239.156326 
L 744.225806 240.126867 
" clip-path="url(#pba70022c2c)" style="fill: none; stroke-dasharray: 1.5,2.475; stroke-dashoffset: 0; stroke: #008000; stroke-width: 1.5"/>
   </g>
   <g id="patch_9">
    <path d="M 403.978076 252.639481 
L 403.978076 25.44 
" style="fill: none; stroke: #000000; stroke-width: 0.8; stroke-linejoin: miter; stroke-linecap: square"/>
   </g>
   <g id="patch_10">
    <path d="M 729.230806 252.639481 
L 729.230806 25.44 
" style="fill: none; stroke: #000000; stroke-width: 0.8; stroke-linejoin: miter; stroke-linecap: square"/>
   </g>
   <g id="patch_11">
    <path d="M 403.978076 252.639481 
L 729.230806 252.639481 
" style="fill: none; stroke: #000000; stroke-width: 0.8; stroke-linejoin: miter; stroke-linecap: square"/>
   </g>
   <g id="patch_12">
    <path d="M 403.978076 25.44 
L 729.230806 25.44 
" style="fill: none; stroke: #000000; stroke-width: 0.8; stroke-linejoin: miter; stroke-linecap: square"/>
   </g>
   <g id="text_35">
    <!-- C(score|F) Foldseek (logscale) -->
    <g transform="translate(476.673816 19.44) scale(0.12 -0.12)">
     <defs>
      <path id="DejaVuSans-67" d="M 2906 1791 
Q 2906 2416 2648 2759 
Q 2391 3103 1925 3103 
Q 1463 3103 1205 2759 
Q 947 2416 947 1791 
Q 947 1169 1205 825 
Q 1463 481 1925 481 
Q 2391 481 2648 825 
Q 2906 1169 2906 1791 
z
M 3481 434 
Q 3481 -459 3084 -895 
Q 2688 -1331 1869 -1331 
Q 1566 -1331 1297 -1286 
Q 1028 -1241 775 -1147 
L 775 -588 
Q 1028 -725 1275 -790 
Q 1522 -856 1778 -856 
Q 2344 -856 2625 -561 
Q 2906 -266 2906 331 
L 2906 616 
Q 2728 306 2450 153 
Q 2172 0 1784 0 
Q 1141 0 747 490 
Q 353 981 353 1791 
Q 353 2603 747 3093 
Q 1141 3584 1784 3584 
Q 2172 3584 2450 3431 
Q 2728 3278 2906 2969 
L 2906 3500 
L 3481 3500 
L 3481 434 
z
" transform="scale(0.015625)"/>
      <path id="DejaVuSans-61" d="M 2194 1759 
Q 1497 1759 1228 1600 
Q 959 1441 959 1056 
Q 959 750 1161 570 
Q 1363 391 1709 391 
Q 2188 391 2477 730 
Q 2766 1069 2766 1631 
L 2766 1759 
L 2194 1759 
z
M 3341 1997 
L 3341 0 
L 2766 0 
L 2766 531 
Q 2569 213 2275 61 
Q 1981 -91 1556 -91 
Q 1019 -91 701 211 
Q 384 513 384 1019 
Q 384 1609 779 1909 
Q 1175 2209 1959 2209 
L 2766 2209 
L 2766 2266 
Q 2766 2663 2505 2880 
Q 2244 3097 1772 3097 
Q 1472 3097 1187 3025 
Q 903 2953 641 2809 
L 641 3341 
Q 956 3463 1253 3523 
Q 1550 3584 1831 3584 
Q 2591 3584 2966 3190 
Q 3341 2797 3341 1997 
z
" transform="scale(0.015625)"/>
     </defs>
     <use xlink:href="#DejaVuSans-43"/>
     <use xlink:href="#DejaVuSans-28" transform="translate(69.824219 0)"/>
     <use xlink:href="#DejaVuSans-73" transform="translate(108.837891 0)"/>
     <use xlink:href="#DejaVuSans-63" transform="translate(160.9375 0)"/>
     <use xlink:href="#DejaVuSans-6f" transform="translate(215.917969 0)"/>
     <use xlink:href="#DejaVuSans-72" transform="translate(277.099609 0)"/>
     <use xlink:href="#DejaVuSans-65" transform="translate(315.962891 0)"/>
     <use xlink:href="#DejaVuSans-7c" transform="translate(377.486328 0)"/>
     <use xlink:href="#DejaVuSans-46" transform="translate(411.177734 0)"/>
     <use xlink:href="#DejaVuSans-29" transform="translate(468.697266 0)"/>
     <use xlink:href="#DejaVuSans-20" transform="translate(507.710938 0)"/>
     <use xlink:href="#DejaVuSans-46" transform="translate(539.498047 0)"/>
     <use xlink:href="#DejaVuSans-6f" transform="translate(593.392578 0)"/>
     <use xlink:href="#DejaVuSans-6c" transform="translate(654.574219 0)"/>
     <use xlink:href="#DejaVuSans-64" transform="translate(682.357422 0)"/>
     <use xlink:href="#DejaVuSans-73" transform="translate(745.833984 0)"/>
     <use xlink:href="#DejaVuSans-65" transform="translate(797.933594 0)"/>
     <use xlink:href="#DejaVuSans-65" transform="translate(859.457031 0)"/>
     <use xlink:href="#DejaVuSans-6b" transform="translate(920.980469 0)"/>
     <use xlink:href="#DejaVuSans-20" transform="translate(978.890625 0)"/>
     <use xlink:href="#DejaVuSans-28" transform="translate(1010.677734 0)"/>
     <use xlink:href="#DejaVuSans-6c" transform="translate(1049.691406 0)"/>
     <use xlink:href="#DejaVuSans-6f" transform="translate(1077.474609 0)"/>
     <use xlink:href="#DejaVuSans-67" transform="translate(1138.65625 0)"/>
     <use xlink:href="#DejaVuSans-73" transform="translate(1202.132812 0)"/>
     <use xlink:href="#DejaVuSans-63" transform="translate(1254.232422 0)"/>
     <use xlink:href="#DejaVuSans-61" transform="translate(1309.212891 0)"/>
     <use xlink:href="#DejaVuSans-6c" transform="translate(1370.492188 0)"/>
     <use xlink:href="#DejaVuSans-65" transform="translate(1398.275391 0)"/>
     <use xlink:href="#DejaVuSans-29" transform="translate(1459.798828 0)"/>
    </g>
   </g>
   <g id="legend_2">
    <g id="patch_13">
     <path d="M 410.978076 247.639481 
L 504.767139 247.639481 
Q 506.767139 247.639481 506.767139 245.639481 
L 506.767139 114.536356 
Q 506.767139 112.536356 504.767139 112.536356 
L 410.978076 112.536356 
Q 408.978076 112.536356 408.978076 114.536356 
L 408.978076 245.639481 
Q 408.978076 247.639481 410.978076 247.639481 
z
" style="fill: #ffffff; opacity: 0.8; stroke: #cccccc; stroke-linejoin: miter"/>
    </g>
    <g id="line2d_77">
     <path d="M 412.978076 120.634793 
L 422.978076 120.634793 
L 432.978076 120.634793 
" style="fill: none; stroke-dasharray: 9.6,2.4,1.5,2.4; stroke-dashoffset: 0; stroke: #000000; stroke-width: 1.5"/>
    </g>
    <g id="text_36">
     <!-- SCOP40x8 -->
     <g transform="translate(440.978076 124.134793) scale(0.1 -0.1)">
      <use xlink:href="#DejaVuSans-53"/>
      <use xlink:href="#DejaVuSans-43" transform="translate(63.476562 0)"/>
      <use xlink:href="#DejaVuSans-4f" transform="translate(133.300781 0)"/>
      <use xlink:href="#DejaVuSans-50" transform="translate(212.011719 0)"/>
      <use xlink:href="#DejaVuSans-34" transform="translate(272.314453 0)"/>
      <use xlink:href="#DejaVuSans-30" transform="translate(335.9375 0)"/>
      <use xlink:href="#DejaVuSans-78" transform="translate(399.560547 0)"/>
      <use xlink:href="#DejaVuSans-38" transform="translate(458.740234 0)"/>
     </g>
    </g>
    <g id="line2d_78">
     <path d="M 412.978076 135.312918 
L 422.978076 135.312918 
L 432.978076 135.312918 
" style="fill: none; stroke: #000000; stroke-width: 1.5; stroke-linecap: square"/>
    </g>
    <g id="text_37">
     <!-- SCOP40 -->
     <g transform="translate(440.978076 138.812918) scale(0.1 -0.1)">
      <use xlink:href="#DejaVuSans-53"/>
      <use xlink:href="#DejaVuSans-43" transform="translate(63.476562 0)"/>
      <use xlink:href="#DejaVuSans-4f" transform="translate(133.300781 0)"/>
      <use xlink:href="#DejaVuSans-50" transform="translate(212.011719 0)"/>
      <use xlink:href="#DejaVuSans-34" transform="translate(272.314453 0)"/>
      <use xlink:href="#DejaVuSans-30" transform="translate(335.9375 0)"/>
     </g>
    </g>
    <g id="line2d_79">
     <path d="M 412.978076 149.991043 
L 422.978076 149.991043 
L 432.978076 149.991043 
" style="fill: none; stroke: #00ffff; stroke-width: 1.5; stroke-linecap: square"/>
    </g>
    <g id="text_38">
     <!-- SCOP40c -->
     <g transform="translate(440.978076 153.491043) scale(0.1 -0.1)">
      <use xlink:href="#DejaVuSans-53"/>
      <use xlink:href="#DejaVuSans-43" transform="translate(63.476562 0)"/>
      <use xlink:href="#DejaVuSans-4f" transform="translate(133.300781 0)"/>
      <use xlink:href="#DejaVuSans-50" transform="translate(212.011719 0)"/>
      <use xlink:href="#DejaVuSans-34" transform="translate(272.314453 0)"/>
      <use xlink:href="#DejaVuSans-30" transform="translate(335.9375 0)"/>
      <use xlink:href="#DejaVuSans-63" transform="translate(399.560547 0)"/>
     </g>
    </g>
    <g id="line2d_80">
     <path d="M 412.978076 164.669168 
L 422.978076 164.669168 
L 432.978076 164.669168 
" style="fill: none; stroke: #ff00ff; stroke-width: 1.5; stroke-linecap: square"/>
    </g>
    <g id="text_39">
     <!-- SCOP40/N2 -->
     <g transform="translate(440.978076 168.169168) scale(0.1 -0.1)">
      <use xlink:href="#DejaVuSans-53"/>
      <use xlink:href="#DejaVuSans-43" transform="translate(63.476562 0)"/>
      <use xlink:href="#DejaVuSans-4f" transform="translate(133.300781 0)"/>
      <use xlink:href="#DejaVuSans-50" transform="translate(212.011719 0)"/>
      <use xlink:href="#DejaVuSans-34" transform="translate(272.314453 0)"/>
      <use xlink:href="#DejaVuSans-30" transform="translate(335.9375 0)"/>
      <use xlink:href="#DejaVuSans-2f" transform="translate(399.560547 0)"/>
      <use xlink:href="#DejaVuSans-4e" transform="translate(433.251953 0)"/>
      <use xlink:href="#DejaVuSans-32" transform="translate(508.056641 0)"/>
     </g>
    </g>
    <g id="line2d_81">
     <path d="M 412.978076 179.347293 
L 422.978076 179.347293 
L 432.978076 179.347293 
" style="fill: none; stroke-dasharray: 5.55,2.4; stroke-dashoffset: 0; stroke: #ff00ff; stroke-width: 1.5"/>
    </g>
    <g id="text_40">
     <!-- SCOP40/N4 -->
     <g transform="translate(440.978076 182.847293) scale(0.1 -0.1)">
      <use xlink:href="#DejaVuSans-53"/>
      <use xlink:href="#DejaVuSans-43" transform="translate(63.476562 0)"/>
      <use xlink:href="#DejaVuSans-4f" transform="translate(133.300781 0)"/>
      <use xlink:href="#DejaVuSans-50" transform="translate(212.011719 0)"/>
      <use xlink:href="#DejaVuSans-34" transform="translate(272.314453 0)"/>
      <use xlink:href="#DejaVuSans-30" transform="translate(335.9375 0)"/>
      <use xlink:href="#DejaVuSans-2f" transform="translate(399.560547 0)"/>
      <use xlink:href="#DejaVuSans-4e" transform="translate(433.251953 0)"/>
      <use xlink:href="#DejaVuSans-34" transform="translate(508.056641 0)"/>
     </g>
    </g>
    <g id="line2d_82">
     <path d="M 412.978076 194.025418 
L 422.978076 194.025418 
L 432.978076 194.025418 
" style="fill: none; stroke-dasharray: 1.5,2.475; stroke-dashoffset: 0; stroke: #ff00ff; stroke-width: 1.5"/>
    </g>
    <g id="text_41">
     <!-- SCOP40/N8 -->
     <g transform="translate(440.978076 197.525418) scale(0.1 -0.1)">
      <use xlink:href="#DejaVuSans-53"/>
      <use xlink:href="#DejaVuSans-43" transform="translate(63.476562 0)"/>
      <use xlink:href="#DejaVuSans-4f" transform="translate(133.300781 0)"/>
      <use xlink:href="#DejaVuSans-50" transform="translate(212.011719 0)"/>
      <use xlink:href="#DejaVuSans-34" transform="translate(272.314453 0)"/>
      <use xlink:href="#DejaVuSans-30" transform="translate(335.9375 0)"/>
      <use xlink:href="#DejaVuSans-2f" transform="translate(399.560547 0)"/>
      <use xlink:href="#DejaVuSans-4e" transform="translate(433.251953 0)"/>
      <use xlink:href="#DejaVuSans-38" transform="translate(508.056641 0)"/>
     </g>
    </g>
    <g id="line2d_83">
     <path d="M 412.978076 208.703543 
L 422.978076 208.703543 
L 432.978076 208.703543 
" style="fill: none; stroke: #ffa500; stroke-width: 1.5; stroke-linecap: square"/>
    </g>
    <g id="text_42">
     <!-- SCOP40/SF4 -->
     <g transform="translate(440.978076 212.203543) scale(0.1 -0.1)">
      <use xlink:href="#DejaVuSans-53"/>
      <use xlink:href="#DejaVuSans-43" transform="translate(63.476562 0)"/>
      <use xlink:href="#DejaVuSans-4f" transform="translate(133.300781 0)"/>
      <use xlink:href="#DejaVuSans-50" transform="translate(212.011719 0)"/>
      <use xlink:href="#DejaVuSans-34" transform="translate(272.314453 0)"/>
      <use xlink:href="#DejaVuSans-30" transform="translate(335.9375 0)"/>
      <use xlink:href="#DejaVuSans-2f" transform="translate(399.560547 0)"/>
      <use xlink:href="#DejaVuSans-53" transform="translate(433.251953 0)"/>
      <use xlink:href="#DejaVuSans-46" transform="translate(496.728516 0)"/>
      <use xlink:href="#DejaVuSans-34" transform="translate(554.248047 0)"/>
     </g>
    </g>
    <g id="line2d_84">
     <path d="M 412.978076 223.381668 
L 422.978076 223.381668 
L 432.978076 223.381668 
" style="fill: none; stroke-dasharray: 5.55,2.4; stroke-dashoffset: 0; stroke: #ffa500; stroke-width: 1.5"/>
    </g>
    <g id="text_43">
     <!-- SCOP40/SF4 -->
     <g transform="translate(440.978076 226.881668) scale(0.1 -0.1)">
      <use xlink:href="#DejaVuSans-53"/>
      <use xlink:href="#DejaVuSans-43" transform="translate(63.476562 0)"/>
      <use xlink:href="#DejaVuSans-4f" transform="translate(133.300781 0)"/>
      <use xlink:href="#DejaVuSans-50" transform="translate(212.011719 0)"/>
      <use xlink:href="#DejaVuSans-34" transform="translate(272.314453 0)"/>
      <use xlink:href="#DejaVuSans-30" transform="translate(335.9375 0)"/>
      <use xlink:href="#DejaVuSans-2f" transform="translate(399.560547 0)"/>
      <use xlink:href="#DejaVuSans-53" transform="translate(433.251953 0)"/>
      <use xlink:href="#DejaVuSans-46" transform="translate(496.728516 0)"/>
      <use xlink:href="#DejaVuSans-34" transform="translate(554.248047 0)"/>
     </g>
    </g>
    <g id="line2d_85">
     <path d="M 412.978076 238.059793 
L 422.978076 238.059793 
L 432.978076 238.059793 
" style="fill: none; stroke-dasharray: 1.5,2.475; stroke-dashoffset: 0; stroke: #008000; stroke-width: 1.5"/>
    </g>
    <g id="text_44">
     <!-- SCOP40/SF8 -->
     <g transform="translate(440.978076 241.559793) scale(0.1 -0.1)">
      <use xlink:href="#DejaVuSans-53"/>
      <use xlink:href="#DejaVuSans-43" transform="translate(63.476562 0)"/>
      <use xlink:href="#DejaVuSans-4f" transform="translate(133.300781 0)"/>
      <use xlink:href="#DejaVuSans-50" transform="translate(212.011719 0)"/>
      <use xlink:href="#DejaVuSans-34" transform="translate(272.314453 0)"/>
      <use xlink:href="#DejaVuSans-30" transform="translate(335.9375 0)"/>
      <use xlink:href="#DejaVuSans-2f" transform="translate(399.560547 0)"/>
      <use xlink:href="#DejaVuSans-53" transform="translate(433.251953 0)"/>
      <use xlink:href="#DejaVuSans-46" transform="translate(496.728516 0)"/>
      <use xlink:href="#DejaVuSans-38" transform="translate(554.248047 0)"/>
     </g>
    </g>
   </g>
  </g>
  <g id="text_45">
   <!-- ../plots/C_score_F.foldseek.svg -->
   <g transform="translate(280.796341 14.728515) scale(0.12 -0.12)">
    <defs>
     <path id="DejaVuSans-70" d="M 1159 525 
L 1159 -1331 
L 581 -1331 
L 581 3500 
L 1159 3500 
L 1159 2969 
Q 1341 3281 1617 3432 
Q 1894 3584 2278 3584 
Q 2916 3584 3314 3078 
Q 3713 2572 3713 1747 
Q 3713 922 3314 415 
Q 2916 -91 2278 -91 
Q 1894 -91 1617 61 
Q 1341 213 1159 525 
z
M 3116 1747 
Q 3116 2381 2855 2742 
Q 2594 3103 2138 3103 
Q 1681 3103 1420 2742 
Q 1159 2381 1159 1747 
Q 1159 1113 1420 752 
Q 1681 391 2138 391 
Q 2594 391 2855 752 
Q 3116 1113 3116 1747 
z
" transform="scale(0.015625)"/>
     <path id="DejaVuSans-74" d="M 1172 4494 
L 1172 3500 
L 2356 3500 
L 2356 3053 
L 1172 3053 
L 1172 1153 
Q 1172 725 1289 603 
Q 1406 481 1766 481 
L 2356 481 
L 2356 0 
L 1766 0 
Q 1100 0 847 248 
Q 594 497 594 1153 
L 594 3053 
L 172 3053 
L 172 3500 
L 594 3500 
L 594 4494 
L 1172 4494 
z
" transform="scale(0.015625)"/>
     <path id="DejaVuSans-5f" d="M 3263 -1063 
L 3263 -1509 
L -63 -1509 
L -63 -1063 
L 3263 -1063 
z
" transform="scale(0.015625)"/>
     <path id="DejaVuSans-66" d="M 2375 4863 
L 2375 4384 
L 1825 4384 
Q 1516 4384 1395 4259 
Q 1275 4134 1275 3809 
L 1275 3500 
L 2222 3500 
L 2222 3053 
L 1275 3053 
L 1275 0 
L 697 0 
L 697 3053 
L 147 3053 
L 147 3500 
L 697 3500 
L 697 3744 
Q 697 4328 969 4595 
Q 1241 4863 1831 4863 
L 2375 4863 
z
" transform="scale(0.015625)"/>
     <path id="DejaVuSans-76" d="M 191 3500 
L 800 3500 
L 1894 563 
L 2988 3500 
L 3597 3500 
L 2284 0 
L 1503 0 
L 191 3500 
z
" transform="scale(0.015625)"/>
    </defs>
    <use xlink:href="#DejaVuSans-2e"/>
    <use xlink:href="#DejaVuSans-2e" transform="translate(31.787109 0)"/>
    <use xlink:href="#DejaVuSans-2f" transform="translate(63.574219 0)"/>
    <use xlink:href="#DejaVuSans-70" transform="translate(97.265625 0)"/>
    <use xlink:href="#DejaVuSans-6c" transform="translate(160.742188 0)"/>
    <use xlink:href="#DejaVuSans-6f" transform="translate(188.525391 0)"/>
    <use xlink:href="#DejaVuSans-74" transform="translate(249.707031 0)"/>
    <use xlink:href="#DejaVuSans-73" transform="translate(288.916016 0)"/>
    <use xlink:href="#DejaVuSans-2f" transform="translate(341.015625 0)"/>
    <use xlink:href="#DejaVuSans-43" transform="translate(374.707031 0)"/>
    <use xlink:href="#DejaVuSans-5f" transform="translate(444.53125 0)"/>
    <use xlink:href="#DejaVuSans-73" transform="translate(494.53125 0)"/>
    <use xlink:href="#DejaVuSans-63" transform="translate(546.630859 0)"/>
    <use xlink:href="#DejaVuSans-6f" transform="translate(601.611328 0)"/>
    <use xlink:href="#DejaVuSans-72" transform="translate(662.792969 0)"/>
    <use xlink:href="#DejaVuSans-65" transform="translate(701.65625 0)"/>
    <use xlink:href="#DejaVuSans-5f" transform="translate(763.179688 0)"/>
    <use xlink:href="#DejaVuSans-46" transform="translate(813.179688 0)"/>
    <use xlink:href="#DejaVuSans-2e" transform="translate(854.574219 0)"/>
    <use xlink:href="#DejaVuSans-66" transform="translate(886.361328 0)"/>
    <use xlink:href="#DejaVuSans-6f" transform="translate(921.566406 0)"/>
    <use xlink:href="#DejaVuSans-6c" transform="translate(982.748047 0)"/>
    <use xlink:href="#DejaVuSans-64" transform="translate(1010.53125 0)"/>
    <use xlink:href="#DejaVuSans-73" transform="translate(1074.007812 0)"/>
    <use xlink:href="#DejaVuSans-65" transform="translate(1126.107422 0)"/>
    <use xlink:href="#DejaVuSans-65" transform="translate(1187.630859 0)"/>
    <use xlink:href="#DejaVuSans-6b" transform="translate(1249.154297 0)"/>
    <use xlink:href="#DejaVuSans-2e" transform="translate(1307.064453 0)"/>
    <use xlink:href="#DejaVuSans-73" transform="translate(1338.851562 0)"/>
    <use xlink:href="#DejaVuSans-76" transform="translate(1390.951172 0)"/>
    <use xlink:href="#DejaVuSans-67" transform="translate(1450.130859 0)"/>
   </g>
  </g>
 </g>
 <defs>
  <clipPath id="p1766a2685b">
   <rect x="33.73" y="25.44" width="325.25273" height="227.199481"/>
  </clipPath>
  <clipPath id="pba70022c2c">
   <rect x="403.978076" y="25.44" width="325.25273" height="227.199481"/>
  </clipPath>
 </defs>
</svg>
