<?xml version="1.0" encoding="utf-8" standalone="no"?>
<!DOCTYPE svg PUBLIC "-//W3C//DTD SVG 1.1//EN"
  "http://www.w3.org/Graphics/SVG/1.1/DTD/svg11.dtd">
<svg xmlns:xlink="http://www.w3.org/1999/xlink" width="743.225806pt" height="280.519481pt" viewBox="0 0 743.225806 280.519481" xmlns="http://www.w3.org/2000/svg" version="1.1">
 <metadata>
  <rdf:RDF xmlns:dc="http://purl.org/dc/elements/1.1/" xmlns:cc="http://creativecommons.org/ns#" xmlns:rdf="http://www.w3.org/1999/02/22-rdf-syntax-ns#">
   <cc:Work>
    <dc:type rdf:resource="http://purl.org/dc/dcmitype/StillImage"/>
    <dc:date>2025-05-29T12:14:23.949853</dc:date>
    <dc:format>image/svg+xml</dc:format>
    <dc:creator>
     <cc:Agent>
      <dc:title>Matplotlib v3.10.3, https://matplotlib.org/</dc:title>
     </cc:Agent>
    </dc:creator>
   </cc:Work>
  </rdf:RDF>
 </metadata>
 <defs>
  <style type="text/css">*{stroke-linejoin: round; stroke-linecap: butt}</style>
 </defs>
 <g id="figure_1">
  <g id="patch_1">
   <path d="M 0 280.519481 
L 743.225806 280.519481 
L 743.225806 0 
L 0 0 
z
" style="fill: #ffffff"/>
  </g>
  <g id="axes_1">
   <g id="patch_2">
    <path d="M 33.73 252.639481 
L 351.01773 252.639481 
L 351.01773 25.44 
L 33.73 25.44 
z
" style="fill: #ffffff"/>
   </g>
   <g id="matplotlib.axis_1">
    <g id="xtick_1">
     <g id="line2d_1">
      <defs>
       <path id="m261aa71c3b" d="M 0 0 
L 0 3.5 
" style="stroke: #000000; stroke-width: 0.8"/>
      </defs>
      <g>
       <use xlink:href="#m261aa71c3b" x="33.73" y="252.639481" style="stroke: #000000; stroke-width: 0.8"/>
      </g>
     </g>
     <g id="text_1">
      <!-- 0.20 -->
      <g transform="translate(22.597188 267.237918) scale(0.1 -0.1)">
       <defs>
        <path id="DejaVuSans-30" d="M 2034 4250 
Q 1547 4250 1301 3770 
Q 1056 3291 1056 2328 
Q 1056 1369 1301 889 
Q 1547 409 2034 409 
Q 2525 409 2770 889 
Q 3016 1369 3016 2328 
Q 3016 3291 2770 3770 
Q 2525 4250 2034 4250 
z
M 2034 4750 
Q 2819 4750 3233 4129 
Q 3647 3509 3647 2328 
Q 3647 1150 3233 529 
Q 2819 -91 2034 -91 
Q 1250 -91 836 529 
Q 422 1150 422 2328 
Q 422 3509 836 4129 
Q 1250 4750 2034 4750 
z
" transform="scale(0.015625)"/>
        <path id="DejaVuSans-2e" d="M 684 794 
L 1344 794 
L 1344 0 
L 684 0 
L 684 794 
z
" transform="scale(0.015625)"/>
        <path id="DejaVuSans-32" d="M 1228 531 
L 3431 531 
L 3431 0 
L 469 0 
L 469 531 
Q 828 903 1448 1529 
Q 2069 2156 2228 2338 
Q 2531 2678 2651 2914 
Q 2772 3150 2772 3378 
Q 2772 3750 2511 3984 
Q 2250 4219 1831 4219 
Q 1534 4219 1204 4116 
Q 875 4013 500 3803 
L 500 4441 
Q 881 4594 1212 4672 
Q 1544 4750 1819 4750 
Q 2544 4750 2975 4387 
Q 3406 4025 3406 3419 
Q 3406 3131 3298 2873 
Q 3191 2616 2906 2266 
Q 2828 2175 2409 1742 
Q 1991 1309 1228 531 
z
" transform="scale(0.015625)"/>
       </defs>
       <use xlink:href="#DejaVuSans-30"/>
       <use xlink:href="#DejaVuSans-2e" transform="translate(63.623047 0)"/>
       <use xlink:href="#DejaVuSans-32" transform="translate(95.410156 0)"/>
       <use xlink:href="#DejaVuSans-30" transform="translate(159.033203 0)"/>
      </g>
     </g>
    </g>
    <g id="xtick_2">
     <g id="line2d_2">
      <g>
       <use xlink:href="#m261aa71c3b" x="73.390966" y="252.639481" style="stroke: #000000; stroke-width: 0.8"/>
      </g>
     </g>
     <g id="text_2">
      <!-- 0.25 -->
      <g transform="translate(62.258154 267.237918) scale(0.1 -0.1)">
       <defs>
        <path id="DejaVuSans-35" d="M 691 4666 
L 3169 4666 
L 3169 4134 
L 1269 4134 
L 1269 2991 
Q 1406 3038 1543 3061 
Q 1681 3084 1819 3084 
Q 2600 3084 3056 2656 
Q 3513 2228 3513 1497 
Q 3513 744 3044 326 
Q 2575 -91 1722 -91 
Q 1428 -91 1123 -41 
Q 819 9 494 109 
L 494 744 
Q 775 591 1075 516 
Q 1375 441 1709 441 
Q 2250 441 2565 725 
Q 2881 1009 2881 1497 
Q 2881 1984 2565 2268 
Q 2250 2553 1709 2553 
Q 1456 2553 1204 2497 
Q 953 2441 691 2322 
L 691 4666 
z
" transform="scale(0.015625)"/>
       </defs>
       <use xlink:href="#DejaVuSans-30"/>
       <use xlink:href="#DejaVuSans-2e" transform="translate(63.623047 0)"/>
       <use xlink:href="#DejaVuSans-32" transform="translate(95.410156 0)"/>
       <use xlink:href="#DejaVuSans-35" transform="translate(159.033203 0)"/>
      </g>
     </g>
    </g>
    <g id="xtick_3">
     <g id="line2d_3">
      <g>
       <use xlink:href="#m261aa71c3b" x="113.051933" y="252.639481" style="stroke: #000000; stroke-width: 0.8"/>
      </g>
     </g>
     <g id="text_3">
      <!-- 0.30 -->
      <g transform="translate(101.91912 267.237918) scale(0.1 -0.1)">
       <defs>
        <path id="DejaVuSans-33" d="M 2597 2516 
Q 3050 2419 3304 2112 
Q 3559 1806 3559 1356 
Q 3559 666 3084 287 
Q 2609 -91 1734 -91 
Q 1441 -91 1130 -33 
Q 819 25 488 141 
L 488 750 
Q 750 597 1062 519 
Q 1375 441 1716 441 
Q 2309 441 2620 675 
Q 2931 909 2931 1356 
Q 2931 1769 2642 2001 
Q 2353 2234 1838 2234 
L 1294 2234 
L 1294 2753 
L 1863 2753 
Q 2328 2753 2575 2939 
Q 2822 3125 2822 3475 
Q 2822 3834 2567 4026 
Q 2313 4219 1838 4219 
Q 1578 4219 1281 4162 
Q 984 4106 628 3988 
L 628 4550 
Q 988 4650 1302 4700 
Q 1616 4750 1894 4750 
Q 2613 4750 3031 4423 
Q 3450 4097 3450 3541 
Q 3450 3153 3228 2886 
Q 3006 2619 2597 2516 
z
" transform="scale(0.015625)"/>
       </defs>
       <use xlink:href="#DejaVuSans-30"/>
       <use xlink:href="#DejaVuSans-2e" transform="translate(63.623047 0)"/>
       <use xlink:href="#DejaVuSans-33" transform="translate(95.410156 0)"/>
       <use xlink:href="#DejaVuSans-30" transform="translate(159.033203 0)"/>
      </g>
     </g>
    </g>
    <g id="xtick_4">
     <g id="line2d_4">
      <g>
       <use xlink:href="#m261aa71c3b" x="152.712899" y="252.639481" style="stroke: #000000; stroke-width: 0.8"/>
      </g>
     </g>
     <g id="text_4">
      <!-- 0.35 -->
      <g transform="translate(141.580086 267.237918) scale(0.1 -0.1)">
       <use xlink:href="#DejaVuSans-30"/>
       <use xlink:href="#DejaVuSans-2e" transform="translate(63.623047 0)"/>
       <use xlink:href="#DejaVuSans-33" transform="translate(95.410156 0)"/>
       <use xlink:href="#DejaVuSans-35" transform="translate(159.033203 0)"/>
      </g>
     </g>
    </g>
    <g id="xtick_5">
     <g id="line2d_5">
      <g>
       <use xlink:href="#m261aa71c3b" x="192.373865" y="252.639481" style="stroke: #000000; stroke-width: 0.8"/>
      </g>
     </g>
     <g id="text_5">
      <!-- 0.40 -->
      <g transform="translate(181.241053 267.237918) scale(0.1 -0.1)">
       <defs>
        <path id="DejaVuSans-34" d="M 2419 4116 
L 825 1625 
L 2419 1625 
L 2419 4116 
z
M 2253 4666 
L 3047 4666 
L 3047 1625 
L 3713 1625 
L 3713 1100 
L 3047 1100 
L 3047 0 
L 2419 0 
L 2419 1100 
L 313 1100 
L 313 1709 
L 2253 4666 
z
" transform="scale(0.015625)"/>
       </defs>
       <use xlink:href="#DejaVuSans-30"/>
       <use xlink:href="#DejaVuSans-2e" transform="translate(63.623047 0)"/>
       <use xlink:href="#DejaVuSans-34" transform="translate(95.410156 0)"/>
       <use xlink:href="#DejaVuSans-30" transform="translate(159.033203 0)"/>
      </g>
     </g>
    </g>
    <g id="xtick_6">
     <g id="line2d_6">
      <g>
       <use xlink:href="#m261aa71c3b" x="232.034831" y="252.639481" style="stroke: #000000; stroke-width: 0.8"/>
      </g>
     </g>
     <g id="text_6">
      <!-- 0.45 -->
      <g transform="translate(220.902019 267.237918) scale(0.1 -0.1)">
       <use xlink:href="#DejaVuSans-30"/>
       <use xlink:href="#DejaVuSans-2e" transform="translate(63.623047 0)"/>
       <use xlink:href="#DejaVuSans-34" transform="translate(95.410156 0)"/>
       <use xlink:href="#DejaVuSans-35" transform="translate(159.033203 0)"/>
      </g>
     </g>
    </g>
    <g id="xtick_7">
     <g id="line2d_7">
      <g>
       <use xlink:href="#m261aa71c3b" x="271.695798" y="252.639481" style="stroke: #000000; stroke-width: 0.8"/>
      </g>
     </g>
     <g id="text_7">
      <!-- 0.50 -->
      <g transform="translate(260.562985 267.237918) scale(0.1 -0.1)">
       <use xlink:href="#DejaVuSans-30"/>
       <use xlink:href="#DejaVuSans-2e" transform="translate(63.623047 0)"/>
       <use xlink:href="#DejaVuSans-35" transform="translate(95.410156 0)"/>
       <use xlink:href="#DejaVuSans-30" transform="translate(159.033203 0)"/>
      </g>
     </g>
    </g>
    <g id="xtick_8">
     <g id="line2d_8">
      <g>
       <use xlink:href="#m261aa71c3b" x="311.356764" y="252.639481" style="stroke: #000000; stroke-width: 0.8"/>
      </g>
     </g>
     <g id="text_8">
      <!-- 0.55 -->
      <g transform="translate(300.223951 267.237918) scale(0.1 -0.1)">
       <use xlink:href="#DejaVuSans-30"/>
       <use xlink:href="#DejaVuSans-2e" transform="translate(63.623047 0)"/>
       <use xlink:href="#DejaVuSans-35" transform="translate(95.410156 0)"/>
       <use xlink:href="#DejaVuSans-35" transform="translate(159.033203 0)"/>
      </g>
     </g>
    </g>
    <g id="xtick_9">
     <g id="line2d_9">
      <g>
       <use xlink:href="#m261aa71c3b" x="351.01773" y="252.639481" style="stroke: #000000; stroke-width: 0.8"/>
      </g>
     </g>
     <g id="text_9">
      <!-- 0.60 -->
      <g transform="translate(339.884918 267.237918) scale(0.1 -0.1)">
       <defs>
        <path id="DejaVuSans-36" d="M 2113 2584 
Q 1688 2584 1439 2293 
Q 1191 2003 1191 1497 
Q 1191 994 1439 701 
Q 1688 409 2113 409 
Q 2538 409 2786 701 
Q 3034 994 3034 1497 
Q 3034 2003 2786 2293 
Q 2538 2584 2113 2584 
z
M 3366 4563 
L 3366 3988 
Q 3128 4100 2886 4159 
Q 2644 4219 2406 4219 
Q 1781 4219 1451 3797 
Q 1122 3375 1075 2522 
Q 1259 2794 1537 2939 
Q 1816 3084 2150 3084 
Q 2853 3084 3261 2657 
Q 3669 2231 3669 1497 
Q 3669 778 3244 343 
Q 2819 -91 2113 -91 
Q 1303 -91 875 529 
Q 447 1150 447 2328 
Q 447 3434 972 4092 
Q 1497 4750 2381 4750 
Q 2619 4750 2861 4703 
Q 3103 4656 3366 4563 
z
" transform="scale(0.015625)"/>
       </defs>
       <use xlink:href="#DejaVuSans-30"/>
       <use xlink:href="#DejaVuSans-2e" transform="translate(63.623047 0)"/>
       <use xlink:href="#DejaVuSans-36" transform="translate(95.410156 0)"/>
       <use xlink:href="#DejaVuSans-30" transform="translate(159.033203 0)"/>
      </g>
     </g>
    </g>
   </g>
   <g id="matplotlib.axis_2">
    <g id="ytick_1">
     <g id="line2d_10">
      <defs>
       <path id="mf25f84e384" d="M 0 0 
L -3.5 0 
" style="stroke: #000000; stroke-width: 0.8"/>
      </defs>
      <g>
       <use xlink:href="#mf25f84e384" x="33.73" y="242.312231" style="stroke: #000000; stroke-width: 0.8"/>
      </g>
     </g>
     <g id="text_10">
      <!-- 0.0 -->
      <g transform="translate(10.826875 246.11145) scale(0.1 -0.1)">
       <use xlink:href="#DejaVuSans-30"/>
       <use xlink:href="#DejaVuSans-2e" transform="translate(63.623047 0)"/>
       <use xlink:href="#DejaVuSans-30" transform="translate(95.410156 0)"/>
      </g>
     </g>
    </g>
    <g id="ytick_2">
     <g id="line2d_11">
      <g>
       <use xlink:href="#mf25f84e384" x="33.73" y="201.003235" style="stroke: #000000; stroke-width: 0.8"/>
      </g>
     </g>
     <g id="text_11">
      <!-- 0.2 -->
      <g transform="translate(10.826875 204.802454) scale(0.1 -0.1)">
       <use xlink:href="#DejaVuSans-30"/>
       <use xlink:href="#DejaVuSans-2e" transform="translate(63.623047 0)"/>
       <use xlink:href="#DejaVuSans-32" transform="translate(95.410156 0)"/>
      </g>
     </g>
    </g>
    <g id="ytick_3">
     <g id="line2d_12">
      <g>
       <use xlink:href="#mf25f84e384" x="33.73" y="159.694238" style="stroke: #000000; stroke-width: 0.8"/>
      </g>
     </g>
     <g id="text_12">
      <!-- 0.4 -->
      <g transform="translate(10.826875 163.493457) scale(0.1 -0.1)">
       <use xlink:href="#DejaVuSans-30"/>
       <use xlink:href="#DejaVuSans-2e" transform="translate(63.623047 0)"/>
       <use xlink:href="#DejaVuSans-34" transform="translate(95.410156 0)"/>
      </g>
     </g>
    </g>
    <g id="ytick_4">
     <g id="line2d_13">
      <g>
       <use xlink:href="#mf25f84e384" x="33.73" y="118.385242" style="stroke: #000000; stroke-width: 0.8"/>
      </g>
     </g>
     <g id="text_13">
      <!-- 0.6 -->
      <g transform="translate(10.826875 122.184461) scale(0.1 -0.1)">
       <use xlink:href="#DejaVuSans-30"/>
       <use xlink:href="#DejaVuSans-2e" transform="translate(63.623047 0)"/>
       <use xlink:href="#DejaVuSans-36" transform="translate(95.410156 0)"/>
      </g>
     </g>
    </g>
    <g id="ytick_5">
     <g id="line2d_14">
      <g>
       <use xlink:href="#mf25f84e384" x="33.73" y="77.076246" style="stroke: #000000; stroke-width: 0.8"/>
      </g>
     </g>
     <g id="text_14">
      <!-- 0.8 -->
      <g transform="translate(10.826875 80.875464) scale(0.1 -0.1)">
       <defs>
        <path id="DejaVuSans-38" d="M 2034 2216 
Q 1584 2216 1326 1975 
Q 1069 1734 1069 1313 
Q 1069 891 1326 650 
Q 1584 409 2034 409 
Q 2484 409 2743 651 
Q 3003 894 3003 1313 
Q 3003 1734 2745 1975 
Q 2488 2216 2034 2216 
z
M 1403 2484 
Q 997 2584 770 2862 
Q 544 3141 544 3541 
Q 544 4100 942 4425 
Q 1341 4750 2034 4750 
Q 2731 4750 3128 4425 
Q 3525 4100 3525 3541 
Q 3525 3141 3298 2862 
Q 3072 2584 2669 2484 
Q 3125 2378 3379 2068 
Q 3634 1759 3634 1313 
Q 3634 634 3220 271 
Q 2806 -91 2034 -91 
Q 1263 -91 848 271 
Q 434 634 434 1313 
Q 434 1759 690 2068 
Q 947 2378 1403 2484 
z
M 1172 3481 
Q 1172 3119 1398 2916 
Q 1625 2713 2034 2713 
Q 2441 2713 2670 2916 
Q 2900 3119 2900 3481 
Q 2900 3844 2670 4047 
Q 2441 4250 2034 4250 
Q 1625 4250 1398 4047 
Q 1172 3844 1172 3481 
z
" transform="scale(0.015625)"/>
       </defs>
       <use xlink:href="#DejaVuSans-30"/>
       <use xlink:href="#DejaVuSans-2e" transform="translate(63.623047 0)"/>
       <use xlink:href="#DejaVuSans-38" transform="translate(95.410156 0)"/>
      </g>
     </g>
    </g>
    <g id="ytick_6">
     <g id="line2d_15">
      <g>
       <use xlink:href="#mf25f84e384" x="33.73" y="35.767249" style="stroke: #000000; stroke-width: 0.8"/>
      </g>
     </g>
     <g id="text_15">
      <!-- 1.0 -->
      <g transform="translate(10.826875 39.566468) scale(0.1 -0.1)">
       <defs>
        <path id="DejaVuSans-31" d="M 794 531 
L 1825 531 
L 1825 4091 
L 703 3866 
L 703 4441 
L 1819 4666 
L 2450 4666 
L 2450 531 
L 3481 531 
L 3481 0 
L 794 0 
L 794 531 
z
" transform="scale(0.015625)"/>
       </defs>
       <use xlink:href="#DejaVuSans-31"/>
       <use xlink:href="#DejaVuSans-2e" transform="translate(63.623047 0)"/>
       <use xlink:href="#DejaVuSans-30" transform="translate(95.410156 0)"/>
      </g>
     </g>
    </g>
   </g>
   <g id="line2d_16">
    <path d="M -1 36.557764 
L 3.270378 36.799973 
L 11.281893 37.543535 
L 19.293408 38.741498 
L 27.304923 40.641707 
L 35.316439 43.636614 
L 43.327954 48.325187 
L 51.339469 55.492293 
L 59.350984 65.902164 
L 67.362499 79.98853 
L 75.374015 97.420927 
L 83.38553 117.22859 
L 91.397045 137.738513 
L 99.40856 157.298318 
L 107.420075 174.710056 
L 115.431591 189.333442 
L 123.443106 201.147815 
L 131.454621 210.421685 
L 139.466136 217.609452 
L 147.477651 223.11181 
L 155.489166 227.333589 
L 163.500682 230.576345 
L 171.512197 233.081736 
L 179.523712 235.023259 
L 187.535227 236.533103 
L 195.546742 237.700082 
L 203.558258 238.610945 
L 211.569773 239.317329 
L 219.581288 239.868804 
L 227.592803 240.304408 
L 235.604318 240.653262 
L 243.615833 240.934783 
L 251.627349 241.165494 
L 259.638864 241.357167 
L 267.650379 241.51662 
L 275.741216 241.650461 
L 283.752731 241.763648 
L 291.764247 241.860104 
L 299.775762 241.942516 
L 307.787277 242.012741 
L 315.798792 242.073052 
L 323.810307 242.124792 
L 331.821822 242.166865 
L 339.833338 242.201461 
L 347.844853 242.229841 
L 355.856368 242.251569 
L 363.867883 242.267638 
L 371.879398 242.279019 
L 379.890914 242.2879 
L 387.902429 242.294535 
L 395.913944 242.299329 
L 403.925459 242.30267 
L 411.936974 242.305135 
L 419.94849 242.306907 
L 427.960005 242.308204 
L 435.97152 242.309232 
L 443.983035 242.310001 
L 451.99455 242.310555 
L 460.006065 242.311037 
L 468.017581 242.311331 
L 476.029096 242.311624 
L 484.040611 242.311793 
L 492.052126 242.311905 
L 500.063641 242.312017 
L 508.075157 242.312083 
L 516.086672 242.312146 
L 524.098187 242.312179 
L 532.109702 242.312195 
L 540.121217 242.312215 
L 548.132733 242.312218 
L 556.144248 242.312225 
L 564.155763 242.312228 
L 572.167278 242.312228 
L 580.178793 242.312231 
L 588.190308 242.312231 
L 596.201824 242.312231 
L 604.213339 242.312231 
L 612.224854 242.312231 
L 620.236369 242.312231 
L 628.247884 242.312231 
L 636.2594 242.312231 
L 644.270915 242.312231 
L 652.28243 242.312231 
L 660.293945 242.312231 
L 668.30546 242.312231 
" clip-path="url(#p9b017fccaa)" style="fill: none; stroke: #000000; stroke-width: 1.5; stroke-linecap: square"/>
   </g>
   <g id="line2d_17">
    <path d="M -1 36.022019 
L 3.270378 36.077069 
L 11.281893 36.283611 
L 19.293408 36.655392 
L 27.304923 37.440258 
L 35.316439 38.989356 
L 43.327954 42.046212 
L 51.339469 47.602271 
L 59.350984 56.690256 
L 67.362499 70.074376 
L 75.374015 87.671998 
L 83.38553 108.471082 
L 91.397045 130.571394 
L 99.40856 152.031421 
L 107.420075 171.260755 
L 115.431591 187.412575 
L 123.443106 200.404253 
L 131.454621 210.504304 
L 139.466136 218.187777 
L 147.477651 223.975168 
L 155.489166 228.312612 
L 163.500682 231.567762 
L 171.512197 234.017385 
L 179.523712 235.872159 
L 187.535227 237.289057 
L 195.546742 238.365157 
L 203.558258 239.193402 
L 211.569773 239.821299 
L 219.581288 240.301103 
L 227.592803 240.671025 
L 235.604318 240.959775 
L 243.615833 241.18904 
L 251.627349 241.370593 
L 259.638864 241.519305 
L 267.650379 241.643026 
L 275.741216 241.747744 
L 283.752731 241.839037 
L 291.764247 241.917937 
L 299.775762 241.987543 
L 307.787277 242.048887 
L 315.798792 242.101969 
L 323.810307 242.149288 
L 331.821822 242.189131 
L 339.833338 242.221372 
L 347.844853 242.247893 
L 355.856368 242.267597 
L 363.867883 242.281374 
L 371.879398 242.29073 
L 379.890914 242.297534 
L 387.902429 242.301964 
L 395.913944 242.3053 
L 403.925459 242.307442 
L 411.936974 242.3091 
L 419.94849 242.310167 
L 427.960005 242.310818 
L 435.97152 242.311331 
L 443.983035 242.311641 
L 451.99455 242.311832 
L 460.006065 242.311981 
L 468.017581 242.312046 
L 476.029096 242.312118 
L 484.040611 242.312178 
L 492.052126 242.31219 
L 500.063641 242.312231 
L 508.075157 242.312231 
L 516.086672 242.312231 
L 524.098187 242.312231 
L 532.109702 242.312231 
L 540.121217 242.312231 
L 548.132733 242.312231 
L 556.144248 242.312231 
L 564.155763 242.312231 
L 572.167278 242.312231 
L 580.178793 242.312231 
L 588.190308 242.312231 
L 596.201824 242.312231 
L 604.213339 242.312231 
L 612.224854 242.312231 
L 620.236369 242.312231 
L 628.247884 242.312231 
L 636.2594 242.312231 
L 644.270915 242.312231 
L 652.28243 242.312231 
L 660.293945 242.312231 
L 668.30546 242.312231 
" clip-path="url(#p9b017fccaa)" style="fill: none; stroke: #00ffff; stroke-width: 1.5; stroke-linecap: square"/>
   </g>
   <g id="line2d_18">
    <path d="M -1 36.579787 
L 3.270378 36.799973 
L 11.281893 37.626155 
L 19.293408 38.658879 
L 27.304923 40.517784 
L 35.316439 43.409414 
L 43.327954 47.953406 
L 51.339469 55.182474 
L 59.350984 65.509725 
L 67.362499 79.554788 
L 75.374015 97.111107 
L 83.38553 116.939429 
L 91.397045 137.593919 
L 99.40856 157.215699 
L 107.420075 174.772024 
L 115.431591 189.436713 
L 123.443106 201.20978 
L 131.454621 210.504304 
L 139.466136 217.733378 
L 147.477651 223.20682 
L 155.489166 227.399684 
L 163.500682 230.621785 
L 171.512197 233.141634 
L 179.523712 235.062502 
L 187.535227 236.570281 
L 195.546742 237.726933 
L 203.558258 238.635731 
L 211.569773 239.337984 
L 219.581288 239.875001 
L 227.592803 240.308745 
L 235.604318 240.649544 
L 243.615833 240.92838 
L 251.627349 241.157645 
L 259.638864 241.345601 
L 267.650379 241.504641 
L 275.741216 241.636829 
L 283.752731 241.748364 
L 291.764247 241.847505 
L 299.775762 241.930123 
L 307.787277 242.002414 
L 315.798792 242.064377 
L 323.810307 242.118905 
L 331.821822 242.16228 
L 339.833338 242.197805 
L 347.844853 242.227548 
L 355.856368 242.249855 
L 363.867883 242.266172 
L 371.879398 242.278151 
L 379.890914 242.287239 
L 387.902429 242.294117 
L 395.913944 242.299095 
L 403.925459 242.302235 
L 411.936974 242.304837 
L 419.94849 242.306634 
L 427.960005 242.307977 
L 435.97152 242.309051 
L 443.983035 242.309918 
L 451.99455 242.310476 
L 460.006065 242.310978 
L 468.017581 242.311248 
L 476.029096 242.311573 
L 484.040611 242.311763 
L 492.052126 242.311889 
L 500.063641 242.312006 
L 508.075157 242.312086 
L 516.086672 242.312152 
L 524.098187 242.312172 
L 532.109702 242.312205 
L 540.121217 242.312205 
L 548.132733 242.312218 
L 556.144248 242.312231 
L 564.155763 242.312231 
L 572.167278 242.312231 
L 580.178793 242.312231 
L 588.190308 242.312231 
L 596.201824 242.312231 
L 604.213339 242.312231 
L 612.224854 242.312231 
L 620.236369 242.312231 
L 628.247884 242.312231 
L 636.2594 242.312231 
L 644.270915 242.312231 
L 652.28243 242.312231 
L 660.293945 242.312231 
L 668.30546 242.312231 
" clip-path="url(#p9b017fccaa)" style="fill: none; stroke: #a9a9a9; stroke-width: 1.5; stroke-linecap: square"/>
   </g>
   <g id="line2d_19">
    <path d="M -1 36.579787 
L 3.270378 36.799973 
L 11.281893 37.419612 
L 19.293408 38.658879 
L 27.304923 40.517784 
L 35.316439 43.202871 
L 43.327954 47.746864 
L 51.339469 54.769389 
L 59.350984 65.096641 
L 67.362499 78.935149 
L 75.374015 96.284925 
L 83.38553 115.906705 
L 91.397045 136.561195 
L 99.40856 156.182975 
L 107.420075 173.7393 
L 115.431591 188.40399 
L 123.443106 200.383601 
L 131.454621 209.884668 
L 139.466136 217.113743 
L 147.477651 222.793731 
L 155.489166 227.11052 
L 163.500682 230.415241 
L 171.512197 232.955744 
L 179.523712 234.938575 
L 187.535227 236.487663 
L 195.546742 237.685624 
L 203.558258 238.615076 
L 211.569773 239.317329 
L 219.581288 239.895655 
L 227.592803 240.331465 
L 235.604318 240.686722 
L 243.615833 240.97382 
L 251.627349 241.207216 
L 259.638864 241.401368 
L 267.650379 241.560408 
L 275.741216 241.690531 
L 283.752731 241.8 
L 291.764247 241.895011 
L 299.775762 241.975563 
L 307.787277 242.041657 
L 315.798792 242.09949 
L 323.810307 242.147202 
L 331.821822 242.187272 
L 339.833338 242.21846 
L 347.844853 242.244691 
L 355.856368 242.263487 
L 363.867883 242.277532 
L 371.879398 242.287239 
L 379.890914 242.294076 
L 387.902429 242.29924 
L 395.913944 242.302916 
L 403.925459 242.305188 
L 411.936974 242.30713 
L 419.94849 242.308328 
L 427.960005 242.309257 
L 435.97152 242.309918 
L 443.983035 242.310527 
L 451.99455 242.310936 
L 460.006065 242.311333 
L 468.017581 242.311585 
L 476.029096 242.311756 
L 484.040611 242.311901 
L 492.052126 242.311994 
L 500.063641 242.312099 
L 508.075157 242.312152 
L 516.086672 242.312192 
L 524.098187 242.312218 
L 532.109702 242.312231 
L 540.121217 242.312231 
L 548.132733 242.312231 
L 556.144248 242.312231 
L 564.155763 242.312231 
L 572.167278 242.312231 
L 580.178793 242.312231 
L 588.190308 242.312231 
L 596.201824 242.312231 
L 604.213339 242.312231 
L 612.224854 242.312231 
L 620.236369 242.312231 
L 628.247884 242.312231 
L 636.2594 242.312231 
L 644.270915 242.312231 
L 652.28243 242.312231 
L 660.293945 242.312231 
L 668.30546 242.312231 
" clip-path="url(#p9b017fccaa)" style="fill: none; stroke-dasharray: 5.55,2.4; stroke-dashoffset: 0; stroke: #a9a9a9; stroke-width: 1.5"/>
   </g>
   <g id="line2d_20">
    <path d="M -1 36.579787 
L 3.270378 36.799973 
L 11.281893 37.419612 
L 19.293408 38.658879 
L 27.304923 40.517784 
L 35.316439 43.615956 
L 43.327954 48.366491 
L 51.339469 55.802113 
L 59.350984 66.542449 
L 67.362499 80.794054 
L 75.374015 98.350373 
L 83.38553 118.385237 
L 91.397045 138.833198 
L 99.40856 158.248423 
L 107.420075 175.598199 
L 115.431591 190.056353 
L 123.443106 201.622871 
L 131.454621 210.71085 
L 139.466136 217.733378 
L 147.477651 223.082894 
L 155.489166 227.234448 
L 163.500682 230.45655 
L 171.512197 232.935089 
L 179.523712 234.876612 
L 187.535227 236.38439 
L 195.546742 237.541042 
L 203.558258 238.470495 
L 211.569773 239.193402 
L 219.581288 239.751074 
L 227.592803 240.205473 
L 235.604318 240.562795 
L 243.615833 240.862286 
L 251.627349 241.101878 
L 259.638864 241.306357 
L 267.650379 241.473659 
L 275.741216 241.61824 
L 283.752731 241.735971 
L 291.764247 241.839243 
L 299.775762 241.928058 
L 307.787277 242.002414 
L 315.798792 242.066443 
L 323.810307 242.119731 
L 331.821822 242.163312 
L 339.833338 242.201523 
L 347.844853 242.23044 
L 355.856368 242.253779 
L 363.867883 242.270716 
L 371.879398 242.282695 
L 379.890914 242.290544 
L 387.902429 242.296699 
L 395.913944 242.300871 
L 403.925459 242.304197 
L 411.936974 242.30618 
L 419.94849 242.307667 
L 427.960005 242.308741 
L 435.97152 242.309546 
L 443.983035 242.310145 
L 451.99455 242.310858 
L 460.006065 242.311122 
L 468.017581 242.311519 
L 476.029096 242.311703 
L 484.040611 242.311808 
L 492.052126 242.31194 
L 500.063641 242.312073 
L 508.075157 242.312099 
L 516.086672 242.312152 
L 524.098187 242.312179 
L 532.109702 242.312179 
L 540.121217 242.312231 
L 548.132733 242.312231 
L 556.144248 242.312231 
L 564.155763 242.312231 
L 572.167278 242.312231 
L 580.178793 242.312231 
L 588.190308 242.312231 
L 596.201824 242.312231 
L 604.213339 242.312231 
L 612.224854 242.312231 
L 620.236369 242.312231 
L 628.247884 242.312231 
L 636.2594 242.312231 
L 644.270915 242.312231 
L 652.28243 242.312231 
L 660.293945 242.312231 
L 668.30546 242.312231 
" clip-path="url(#p9b017fccaa)" style="fill: none; stroke-dasharray: 5.55,2.4; stroke-dashoffset: 0; stroke: #808080; stroke-width: 1.5"/>
   </g>
   <g id="line2d_21">
    <path d="M -1 36.373238 
L 3.270378 36.593431 
L 11.281893 37.21307 
L 19.293408 38.245794 
L 27.304923 39.691602 
L 35.316439 42.37669 
L 43.327954 46.920682 
L 51.339469 53.943207 
L 59.350984 64.477001 
L 67.362499 78.728606 
L 75.374015 96.698022 
L 83.38553 116.939429 
L 91.397045 137.800474 
L 99.40856 157.628789 
L 107.420075 175.391657 
L 115.431591 190.056353 
L 123.443106 202.035961 
L 131.454621 211.330483 
L 139.466136 218.353014 
L 147.477651 223.909073 
L 155.489166 228.060628 
L 163.500682 231.220766 
L 171.512197 233.637342 
L 179.523712 235.496247 
L 187.535227 236.942062 
L 195.546742 238.078059 
L 203.558258 238.924894 
L 211.569773 239.585838 
L 219.581288 240.1022 
L 227.592803 240.511159 
L 235.604318 240.827173 
L 243.615833 241.083289 
L 251.627349 241.287768 
L 259.638864 241.457135 
L 267.650379 241.59552 
L 275.741216 241.713251 
L 283.752731 241.812393 
L 291.764247 241.897076 
L 299.775762 241.973498 
L 307.787277 242.039592 
L 315.798792 242.097425 
L 323.810307 242.147202 
L 331.821822 242.187272 
L 339.833338 242.218873 
L 347.844853 242.244691 
L 355.856368 242.265139 
L 363.867883 242.278978 
L 371.879398 242.289511 
L 379.890914 242.296637 
L 387.902429 242.301656 
L 395.913944 242.30492 
L 403.925459 242.307171 
L 411.936974 242.308989 
L 419.94849 242.310083 
L 427.960005 242.31085 
L 435.97152 242.311444 
L 443.983035 242.311814 
L 451.99455 242.311876 
L 460.006065 242.311998 
L 468.017581 242.31206 
L 476.029096 242.312105 
L 484.040611 242.312137 
L 492.052126 242.312137 
L 500.063641 242.312153 
L 508.075157 242.312169 
L 516.086672 242.312184 
L 524.098187 242.3122 
L 532.109702 242.312215 
L 540.121217 242.312231 
L 548.132733 242.312231 
L 556.144248 242.312231 
L 564.155763 242.312231 
L 572.167278 242.312231 
L 580.178793 242.312231 
L 588.190308 242.312231 
L 596.201824 242.312231 
L 604.213339 242.312231 
L 612.224854 242.312231 
L 620.236369 242.312231 
L 628.247884 242.312231 
L 636.2594 242.312231 
L 644.270915 242.312231 
L 652.28243 242.312231 
L 660.293945 242.312231 
L 668.30546 242.312231 
" clip-path="url(#p9b017fccaa)" style="fill: none; stroke: #ffa500; stroke-width: 1.5; stroke-linecap: square"/>
   </g>
   <g id="line2d_22">
    <path d="M -1 36.373238 
L 3.270378 36.593431 
L 11.281893 37.21307 
L 19.293408 38.245794 
L 27.304923 39.691602 
L 35.316439 42.37669 
L 43.327954 46.920682 
L 51.339469 53.943207 
L 59.350984 64.477001 
L 67.362499 78.728606 
L 75.374015 96.698022 
L 83.38553 116.939429 
L 91.397045 137.800474 
L 99.40856 157.628789 
L 107.420075 175.391657 
L 115.431591 190.056353 
L 123.443106 202.035961 
L 131.454621 211.330483 
L 139.466136 218.353014 
L 147.477651 223.909073 
L 155.489166 228.060628 
L 163.500682 231.220766 
L 171.512197 233.637342 
L 179.523712 235.496247 
L 187.535227 236.942062 
L 195.546742 238.078059 
L 203.558258 238.924894 
L 211.569773 239.585838 
L 219.581288 240.1022 
L 227.592803 240.511159 
L 235.604318 240.827173 
L 243.615833 241.083289 
L 251.627349 241.287768 
L 259.638864 241.457135 
L 267.650379 241.59552 
L 275.741216 241.713251 
L 283.752731 241.812393 
L 291.764247 241.897076 
L 299.775762 241.973498 
L 307.787277 242.039592 
L 315.798792 242.097425 
L 323.810307 242.147202 
L 331.821822 242.187272 
L 339.833338 242.218873 
L 347.844853 242.244691 
L 355.856368 242.265139 
L 363.867883 242.278978 
L 371.879398 242.289511 
L 379.890914 242.296637 
L 387.902429 242.301656 
L 395.913944 242.30492 
L 403.925459 242.307171 
L 411.936974 242.308989 
L 419.94849 242.310083 
L 427.960005 242.31085 
L 435.97152 242.311444 
L 443.983035 242.311814 
L 451.99455 242.311876 
L 460.006065 242.311998 
L 468.017581 242.31206 
L 476.029096 242.312105 
L 484.040611 242.312137 
L 492.052126 242.312137 
L 500.063641 242.312153 
L 508.075157 242.312169 
L 516.086672 242.312184 
L 524.098187 242.3122 
L 532.109702 242.312215 
L 540.121217 242.312231 
L 548.132733 242.312231 
L 556.144248 242.312231 
L 564.155763 242.312231 
L 572.167278 242.312231 
L 580.178793 242.312231 
L 588.190308 242.312231 
L 596.201824 242.312231 
L 604.213339 242.312231 
L 612.224854 242.312231 
L 620.236369 242.312231 
L 628.247884 242.312231 
L 636.2594 242.312231 
L 644.270915 242.312231 
L 652.28243 242.312231 
L 660.293945 242.312231 
L 668.30546 242.312231 
" clip-path="url(#p9b017fccaa)" style="fill: none; stroke-dasharray: 5.55,2.4; stroke-dashoffset: 0; stroke: #ffa500; stroke-width: 1.5"/>
   </g>
   <g id="line2d_23">
    <path d="M -1 36.373238 
L 3.270378 36.593431 
L 11.281893 37.419612 
L 19.293408 38.452336 
L 27.304923 40.517784 
L 35.316439 43.409414 
L 43.327954 48.366491 
L 51.339469 55.595571 
L 59.350984 66.129365 
L 67.362499 79.967873 
L 75.374015 97.317649 
L 83.38553 116.939429 
L 91.397045 137.593919 
L 99.40856 157.628789 
L 107.420075 175.391657 
L 115.431591 190.262895 
L 123.443106 202.449049 
L 131.454621 211.950119 
L 139.466136 219.385738 
L 147.477651 224.879835 
L 155.489166 229.052044 
L 163.500682 232.191528 
L 171.512197 234.566794 
L 179.523712 236.38439 
L 187.535227 237.747587 
L 195.546742 238.780312 
L 203.558258 239.544529 
L 211.569773 240.143509 
L 219.581288 240.579319 
L 227.592803 240.918053 
L 235.604318 241.174169 
L 243.615833 241.372452 
L 251.627349 241.533557 
L 259.638864 241.66368 
L 267.650379 241.766953 
L 275.741216 241.849571 
L 283.752731 241.91773 
L 291.764247 241.973498 
L 299.775762 242.021003 
L 307.787277 242.062312 
L 315.798792 242.097425 
L 323.810307 242.130885 
L 331.821822 242.159595 
L 339.833338 242.187065 
L 347.844853 242.211437 
L 355.856368 242.232505 
L 363.867883 242.251507 
L 371.879398 242.265552 
L 379.890914 242.277532 
L 387.902429 242.286413 
L 395.913944 242.29389 
L 403.925459 242.299467 
L 411.936974 242.302978 
L 419.94849 242.305415 
L 427.960005 242.30713 
L 435.97152 242.308658 
L 443.983035 242.309877 
L 451.99455 242.3106 
L 460.006065 242.311327 
L 468.017581 242.311634 
L 476.029096 242.311884 
L 484.040611 242.312008 
L 492.052126 242.312113 
L 500.063641 242.312162 
L 508.075157 242.312183 
L 516.086672 242.312204 
L 524.098187 242.312204 
L 532.109702 242.312204 
L 540.121217 242.312231 
L 548.132733 242.312231 
L 556.144248 242.312231 
L 564.155763 242.312231 
L 572.167278 242.312231 
L 580.178793 242.312231 
L 588.190308 242.312231 
L 596.201824 242.312231 
L 604.213339 242.312231 
L 612.224854 242.312231 
L 620.236369 242.312231 
L 628.247884 242.312231 
L 636.2594 242.312231 
L 644.270915 242.312231 
L 652.28243 242.312231 
L 660.293945 242.312231 
L 668.30546 242.312231 
" clip-path="url(#p9b017fccaa)" style="fill: none; stroke-dasharray: 1.5,2.475; stroke-dashoffset: 0; stroke: #ffa500; stroke-width: 1.5"/>
   </g>
   <g id="patch_3">
    <path d="M 33.73 252.639481 
L 33.73 25.44 
" style="fill: none; stroke: #000000; stroke-width: 0.8; stroke-linejoin: miter; stroke-linecap: square"/>
   </g>
   <g id="patch_4">
    <path d="M 351.01773 252.639481 
L 351.01773 25.44 
" style="fill: none; stroke: #000000; stroke-width: 0.8; stroke-linejoin: miter; stroke-linecap: square"/>
   </g>
   <g id="patch_5">
    <path d="M 33.73 252.639481 
L 351.01773 252.639481 
" style="fill: none; stroke: #000000; stroke-width: 0.8; stroke-linejoin: miter; stroke-linecap: square"/>
   </g>
   <g id="patch_6">
    <path d="M 33.73 25.44 
L 351.01773 25.44 
" style="fill: none; stroke: #000000; stroke-width: 0.8; stroke-linejoin: miter; stroke-linecap: square"/>
   </g>
   <g id="text_16">
    <!-- TM-align -->
    <g transform="translate(166.745428 19.44) scale(0.12 -0.12)">
     <defs>
      <path id="DejaVuSans-54" d="M -19 4666 
L 3928 4666 
L 3928 4134 
L 2272 4134 
L 2272 0 
L 1638 0 
L 1638 4134 
L -19 4134 
L -19 4666 
z
" transform="scale(0.015625)"/>
      <path id="DejaVuSans-4d" d="M 628 4666 
L 1569 4666 
L 2759 1491 
L 3956 4666 
L 4897 4666 
L 4897 0 
L 4281 0 
L 4281 4097 
L 3078 897 
L 2444 897 
L 1241 4097 
L 1241 0 
L 628 0 
L 628 4666 
z
" transform="scale(0.015625)"/>
      <path id="DejaVuSans-2d" d="M 313 2009 
L 1997 2009 
L 1997 1497 
L 313 1497 
L 313 2009 
z
" transform="scale(0.015625)"/>
      <path id="DejaVuSans-61" d="M 2194 1759 
Q 1497 1759 1228 1600 
Q 959 1441 959 1056 
Q 959 750 1161 570 
Q 1363 391 1709 391 
Q 2188 391 2477 730 
Q 2766 1069 2766 1631 
L 2766 1759 
L 2194 1759 
z
M 3341 1997 
L 3341 0 
L 2766 0 
L 2766 531 
Q 2569 213 2275 61 
Q 1981 -91 1556 -91 
Q 1019 -91 701 211 
Q 384 513 384 1019 
Q 384 1609 779 1909 
Q 1175 2209 1959 2209 
L 2766 2209 
L 2766 2266 
Q 2766 2663 2505 2880 
Q 2244 3097 1772 3097 
Q 1472 3097 1187 3025 
Q 903 2953 641 2809 
L 641 3341 
Q 956 3463 1253 3523 
Q 1550 3584 1831 3584 
Q 2591 3584 2966 3190 
Q 3341 2797 3341 1997 
z
" transform="scale(0.015625)"/>
      <path id="DejaVuSans-6c" d="M 603 4863 
L 1178 4863 
L 1178 0 
L 603 0 
L 603 4863 
z
" transform="scale(0.015625)"/>
      <path id="DejaVuSans-69" d="M 603 3500 
L 1178 3500 
L 1178 0 
L 603 0 
L 603 3500 
z
M 603 4863 
L 1178 4863 
L 1178 4134 
L 603 4134 
L 603 4863 
z
" transform="scale(0.015625)"/>
      <path id="DejaVuSans-67" d="M 2906 1791 
Q 2906 2416 2648 2759 
Q 2391 3103 1925 3103 
Q 1463 3103 1205 2759 
Q 947 2416 947 1791 
Q 947 1169 1205 825 
Q 1463 481 1925 481 
Q 2391 481 2648 825 
Q 2906 1169 2906 1791 
z
M 3481 434 
Q 3481 -459 3084 -895 
Q 2688 -1331 1869 -1331 
Q 1566 -1331 1297 -1286 
Q 1028 -1241 775 -1147 
L 775 -588 
Q 1028 -725 1275 -790 
Q 1522 -856 1778 -856 
Q 2344 -856 2625 -561 
Q 2906 -266 2906 331 
L 2906 616 
Q 2728 306 2450 153 
Q 2172 0 1784 0 
Q 1141 0 747 490 
Q 353 981 353 1791 
Q 353 2603 747 3093 
Q 1141 3584 1784 3584 
Q 2172 3584 2450 3431 
Q 2728 3278 2906 2969 
L 2906 3500 
L 3481 3500 
L 3481 434 
z
" transform="scale(0.015625)"/>
      <path id="DejaVuSans-6e" d="M 3513 2113 
L 3513 0 
L 2938 0 
L 2938 2094 
Q 2938 2591 2744 2837 
Q 2550 3084 2163 3084 
Q 1697 3084 1428 2787 
Q 1159 2491 1159 1978 
L 1159 0 
L 581 0 
L 581 3500 
L 1159 3500 
L 1159 2956 
Q 1366 3272 1645 3428 
Q 1925 3584 2291 3584 
Q 2894 3584 3203 3211 
Q 3513 2838 3513 2113 
z
" transform="scale(0.015625)"/>
     </defs>
     <use xlink:href="#DejaVuSans-54"/>
     <use xlink:href="#DejaVuSans-4d" transform="translate(61.083984 0)"/>
     <use xlink:href="#DejaVuSans-2d" transform="translate(147.363281 0)"/>
     <use xlink:href="#DejaVuSans-61" transform="translate(183.447266 0)"/>
     <use xlink:href="#DejaVuSans-6c" transform="translate(244.726562 0)"/>
     <use xlink:href="#DejaVuSans-69" transform="translate(272.509766 0)"/>
     <use xlink:href="#DejaVuSans-67" transform="translate(300.292969 0)"/>
     <use xlink:href="#DejaVuSans-6e" transform="translate(363.769531 0)"/>
    </g>
   </g>
   <g id="legend_1">
    <g id="patch_7">
     <path d="M 250.228668 150.865 
L 344.01773 150.865 
Q 346.01773 150.865 346.01773 148.865 
L 346.01773 32.44 
Q 346.01773 30.44 344.01773 30.44 
L 250.228668 30.44 
Q 248.228668 30.44 248.228668 32.44 
L 248.228668 148.865 
Q 248.228668 150.865 250.228668 150.865 
z
" style="fill: #ffffff; opacity: 0.8; stroke: #cccccc; stroke-linejoin: miter"/>
    </g>
    <g id="line2d_24">
     <path d="M 252.228668 38.538437 
L 262.228668 38.538437 
L 272.228668 38.538437 
" style="fill: none; stroke: #000000; stroke-width: 1.5; stroke-linecap: square"/>
    </g>
    <g id="text_17">
     <!-- SCOP40 -->
     <g transform="translate(280.228668 42.038437) scale(0.1 -0.1)">
      <defs>
       <path id="DejaVuSans-53" d="M 3425 4513 
L 3425 3897 
Q 3066 4069 2747 4153 
Q 2428 4238 2131 4238 
Q 1616 4238 1336 4038 
Q 1056 3838 1056 3469 
Q 1056 3159 1242 3001 
Q 1428 2844 1947 2747 
L 2328 2669 
Q 3034 2534 3370 2195 
Q 3706 1856 3706 1288 
Q 3706 609 3251 259 
Q 2797 -91 1919 -91 
Q 1588 -91 1214 -16 
Q 841 59 441 206 
L 441 856 
Q 825 641 1194 531 
Q 1563 422 1919 422 
Q 2459 422 2753 634 
Q 3047 847 3047 1241 
Q 3047 1584 2836 1778 
Q 2625 1972 2144 2069 
L 1759 2144 
Q 1053 2284 737 2584 
Q 422 2884 422 3419 
Q 422 4038 858 4394 
Q 1294 4750 2059 4750 
Q 2388 4750 2728 4690 
Q 3069 4631 3425 4513 
z
" transform="scale(0.015625)"/>
       <path id="DejaVuSans-43" d="M 4122 4306 
L 4122 3641 
Q 3803 3938 3442 4084 
Q 3081 4231 2675 4231 
Q 1875 4231 1450 3742 
Q 1025 3253 1025 2328 
Q 1025 1406 1450 917 
Q 1875 428 2675 428 
Q 3081 428 3442 575 
Q 3803 722 4122 1019 
L 4122 359 
Q 3791 134 3420 21 
Q 3050 -91 2638 -91 
Q 1578 -91 968 557 
Q 359 1206 359 2328 
Q 359 3453 968 4101 
Q 1578 4750 2638 4750 
Q 3056 4750 3426 4639 
Q 3797 4528 4122 4306 
z
" transform="scale(0.015625)"/>
       <path id="DejaVuSans-4f" d="M 2522 4238 
Q 1834 4238 1429 3725 
Q 1025 3213 1025 2328 
Q 1025 1447 1429 934 
Q 1834 422 2522 422 
Q 3209 422 3611 934 
Q 4013 1447 4013 2328 
Q 4013 3213 3611 3725 
Q 3209 4238 2522 4238 
z
M 2522 4750 
Q 3503 4750 4090 4092 
Q 4678 3434 4678 2328 
Q 4678 1225 4090 567 
Q 3503 -91 2522 -91 
Q 1538 -91 948 565 
Q 359 1222 359 2328 
Q 359 3434 948 4092 
Q 1538 4750 2522 4750 
z
" transform="scale(0.015625)"/>
       <path id="DejaVuSans-50" d="M 1259 4147 
L 1259 2394 
L 2053 2394 
Q 2494 2394 2734 2622 
Q 2975 2850 2975 3272 
Q 2975 3691 2734 3919 
Q 2494 4147 2053 4147 
L 1259 4147 
z
M 628 4666 
L 2053 4666 
Q 2838 4666 3239 4311 
Q 3641 3956 3641 3272 
Q 3641 2581 3239 2228 
Q 2838 1875 2053 1875 
L 1259 1875 
L 1259 0 
L 628 0 
L 628 4666 
z
" transform="scale(0.015625)"/>
      </defs>
      <use xlink:href="#DejaVuSans-53"/>
      <use xlink:href="#DejaVuSans-43" transform="translate(63.476562 0)"/>
      <use xlink:href="#DejaVuSans-4f" transform="translate(133.300781 0)"/>
      <use xlink:href="#DejaVuSans-50" transform="translate(212.011719 0)"/>
      <use xlink:href="#DejaVuSans-34" transform="translate(272.314453 0)"/>
      <use xlink:href="#DejaVuSans-30" transform="translate(335.9375 0)"/>
     </g>
    </g>
    <g id="line2d_25">
     <path d="M 252.228668 53.216563 
L 262.228668 53.216563 
L 272.228668 53.216563 
" style="fill: none; stroke: #00ffff; stroke-width: 1.5; stroke-linecap: square"/>
    </g>
    <g id="text_18">
     <!-- SCOP40c -->
     <g transform="translate(280.228668 56.716563) scale(0.1 -0.1)">
      <defs>
       <path id="DejaVuSans-63" d="M 3122 3366 
L 3122 2828 
Q 2878 2963 2633 3030 
Q 2388 3097 2138 3097 
Q 1578 3097 1268 2742 
Q 959 2388 959 1747 
Q 959 1106 1268 751 
Q 1578 397 2138 397 
Q 2388 397 2633 464 
Q 2878 531 3122 666 
L 3122 134 
Q 2881 22 2623 -34 
Q 2366 -91 2075 -91 
Q 1284 -91 818 406 
Q 353 903 353 1747 
Q 353 2603 823 3093 
Q 1294 3584 2113 3584 
Q 2378 3584 2631 3529 
Q 2884 3475 3122 3366 
z
" transform="scale(0.015625)"/>
      </defs>
      <use xlink:href="#DejaVuSans-53"/>
      <use xlink:href="#DejaVuSans-43" transform="translate(63.476562 0)"/>
      <use xlink:href="#DejaVuSans-4f" transform="translate(133.300781 0)"/>
      <use xlink:href="#DejaVuSans-50" transform="translate(212.011719 0)"/>
      <use xlink:href="#DejaVuSans-34" transform="translate(272.314453 0)"/>
      <use xlink:href="#DejaVuSans-30" transform="translate(335.9375 0)"/>
      <use xlink:href="#DejaVuSans-63" transform="translate(399.560547 0)"/>
     </g>
    </g>
    <g id="line2d_26">
     <path d="M 252.228668 67.894687 
L 262.228668 67.894687 
L 272.228668 67.894687 
" style="fill: none; stroke: #a9a9a9; stroke-width: 1.5; stroke-linecap: square"/>
    </g>
    <g id="text_19">
     <!-- SCOP40/N2 -->
     <g transform="translate(280.228668 71.394687) scale(0.1 -0.1)">
      <defs>
       <path id="DejaVuSans-2f" d="M 1625 4666 
L 2156 4666 
L 531 -594 
L 0 -594 
L 1625 4666 
z
" transform="scale(0.015625)"/>
       <path id="DejaVuSans-4e" d="M 628 4666 
L 1478 4666 
L 3547 763 
L 3547 4666 
L 4159 4666 
L 4159 0 
L 3309 0 
L 1241 3903 
L 1241 0 
L 628 0 
L 628 4666 
z
" transform="scale(0.015625)"/>
      </defs>
      <use xlink:href="#DejaVuSans-53"/>
      <use xlink:href="#DejaVuSans-43" transform="translate(63.476562 0)"/>
      <use xlink:href="#DejaVuSans-4f" transform="translate(133.300781 0)"/>
      <use xlink:href="#DejaVuSans-50" transform="translate(212.011719 0)"/>
      <use xlink:href="#DejaVuSans-34" transform="translate(272.314453 0)"/>
      <use xlink:href="#DejaVuSans-30" transform="translate(335.9375 0)"/>
      <use xlink:href="#DejaVuSans-2f" transform="translate(399.560547 0)"/>
      <use xlink:href="#DejaVuSans-4e" transform="translate(433.251953 0)"/>
      <use xlink:href="#DejaVuSans-32" transform="translate(508.056641 0)"/>
     </g>
    </g>
    <g id="line2d_27">
     <path d="M 252.228668 82.572812 
L 262.228668 82.572812 
L 272.228668 82.572812 
" style="fill: none; stroke-dasharray: 5.55,2.4; stroke-dashoffset: 0; stroke: #a9a9a9; stroke-width: 1.5"/>
    </g>
    <g id="text_20">
     <!-- SCOP40/N4 -->
     <g transform="translate(280.228668 86.072812) scale(0.1 -0.1)">
      <use xlink:href="#DejaVuSans-53"/>
      <use xlink:href="#DejaVuSans-43" transform="translate(63.476562 0)"/>
      <use xlink:href="#DejaVuSans-4f" transform="translate(133.300781 0)"/>
      <use xlink:href="#DejaVuSans-50" transform="translate(212.011719 0)"/>
      <use xlink:href="#DejaVuSans-34" transform="translate(272.314453 0)"/>
      <use xlink:href="#DejaVuSans-30" transform="translate(335.9375 0)"/>
      <use xlink:href="#DejaVuSans-2f" transform="translate(399.560547 0)"/>
      <use xlink:href="#DejaVuSans-4e" transform="translate(433.251953 0)"/>
      <use xlink:href="#DejaVuSans-34" transform="translate(508.056641 0)"/>
     </g>
    </g>
    <g id="line2d_28">
     <path d="M 252.228668 97.250937 
L 262.228668 97.250937 
L 272.228668 97.250937 
" style="fill: none; stroke-dasharray: 5.55,2.4; stroke-dashoffset: 0; stroke: #808080; stroke-width: 1.5"/>
    </g>
    <g id="text_21">
     <!-- SCOP40/N8 -->
     <g transform="translate(280.228668 100.750937) scale(0.1 -0.1)">
      <use xlink:href="#DejaVuSans-53"/>
      <use xlink:href="#DejaVuSans-43" transform="translate(63.476562 0)"/>
      <use xlink:href="#DejaVuSans-4f" transform="translate(133.300781 0)"/>
      <use xlink:href="#DejaVuSans-50" transform="translate(212.011719 0)"/>
      <use xlink:href="#DejaVuSans-34" transform="translate(272.314453 0)"/>
      <use xlink:href="#DejaVuSans-30" transform="translate(335.9375 0)"/>
      <use xlink:href="#DejaVuSans-2f" transform="translate(399.560547 0)"/>
      <use xlink:href="#DejaVuSans-4e" transform="translate(433.251953 0)"/>
      <use xlink:href="#DejaVuSans-38" transform="translate(508.056641 0)"/>
     </g>
    </g>
    <g id="line2d_29">
     <path d="M 252.228668 111.929062 
L 262.228668 111.929062 
L 272.228668 111.929062 
" style="fill: none; stroke: #ffa500; stroke-width: 1.5; stroke-linecap: square"/>
    </g>
    <g id="text_22">
     <!-- SCOP40/SF2 -->
     <g transform="translate(280.228668 115.429062) scale(0.1 -0.1)">
      <defs>
       <path id="DejaVuSans-46" d="M 628 4666 
L 3309 4666 
L 3309 4134 
L 1259 4134 
L 1259 2759 
L 3109 2759 
L 3109 2228 
L 1259 2228 
L 1259 0 
L 628 0 
L 628 4666 
z
" transform="scale(0.015625)"/>
      </defs>
      <use xlink:href="#DejaVuSans-53"/>
      <use xlink:href="#DejaVuSans-43" transform="translate(63.476562 0)"/>
      <use xlink:href="#DejaVuSans-4f" transform="translate(133.300781 0)"/>
      <use xlink:href="#DejaVuSans-50" transform="translate(212.011719 0)"/>
      <use xlink:href="#DejaVuSans-34" transform="translate(272.314453 0)"/>
      <use xlink:href="#DejaVuSans-30" transform="translate(335.9375 0)"/>
      <use xlink:href="#DejaVuSans-2f" transform="translate(399.560547 0)"/>
      <use xlink:href="#DejaVuSans-53" transform="translate(433.251953 0)"/>
      <use xlink:href="#DejaVuSans-46" transform="translate(496.728516 0)"/>
      <use xlink:href="#DejaVuSans-32" transform="translate(554.248047 0)"/>
     </g>
    </g>
    <g id="line2d_30">
     <path d="M 252.228668 126.607187 
L 262.228668 126.607187 
L 272.228668 126.607187 
" style="fill: none; stroke-dasharray: 5.55,2.4; stroke-dashoffset: 0; stroke: #ffa500; stroke-width: 1.5"/>
    </g>
    <g id="text_23">
     <!-- SCOP40/SF4 -->
     <g transform="translate(280.228668 130.107187) scale(0.1 -0.1)">
      <use xlink:href="#DejaVuSans-53"/>
      <use xlink:href="#DejaVuSans-43" transform="translate(63.476562 0)"/>
      <use xlink:href="#DejaVuSans-4f" transform="translate(133.300781 0)"/>
      <use xlink:href="#DejaVuSans-50" transform="translate(212.011719 0)"/>
      <use xlink:href="#DejaVuSans-34" transform="translate(272.314453 0)"/>
      <use xlink:href="#DejaVuSans-30" transform="translate(335.9375 0)"/>
      <use xlink:href="#DejaVuSans-2f" transform="translate(399.560547 0)"/>
      <use xlink:href="#DejaVuSans-53" transform="translate(433.251953 0)"/>
      <use xlink:href="#DejaVuSans-46" transform="translate(496.728516 0)"/>
      <use xlink:href="#DejaVuSans-34" transform="translate(554.248047 0)"/>
     </g>
    </g>
    <g id="line2d_31">
     <path d="M 252.228668 141.285312 
L 262.228668 141.285312 
L 272.228668 141.285312 
" style="fill: none; stroke-dasharray: 1.5,2.475; stroke-dashoffset: 0; stroke: #ffa500; stroke-width: 1.5"/>
    </g>
    <g id="text_24">
     <!-- SCOP40/SF8 -->
     <g transform="translate(280.228668 144.785312) scale(0.1 -0.1)">
      <use xlink:href="#DejaVuSans-53"/>
      <use xlink:href="#DejaVuSans-43" transform="translate(63.476562 0)"/>
      <use xlink:href="#DejaVuSans-4f" transform="translate(133.300781 0)"/>
      <use xlink:href="#DejaVuSans-50" transform="translate(212.011719 0)"/>
      <use xlink:href="#DejaVuSans-34" transform="translate(272.314453 0)"/>
      <use xlink:href="#DejaVuSans-30" transform="translate(335.9375 0)"/>
      <use xlink:href="#DejaVuSans-2f" transform="translate(399.560547 0)"/>
      <use xlink:href="#DejaVuSans-53" transform="translate(433.251953 0)"/>
      <use xlink:href="#DejaVuSans-46" transform="translate(496.728516 0)"/>
      <use xlink:href="#DejaVuSans-38" transform="translate(554.248047 0)"/>
     </g>
    </g>
   </g>
  </g>
  <g id="axes_2">
   <g id="patch_8">
    <path d="M 403.978076 252.639481 
L 721.265806 252.639481 
L 721.265806 25.44 
L 403.978076 25.44 
z
" style="fill: #ffffff"/>
   </g>
   <g id="matplotlib.axis_3">
    <g id="xtick_10">
     <g id="line2d_32">
      <g>
       <use xlink:href="#m261aa71c3b" x="403.978076" y="252.639481" style="stroke: #000000; stroke-width: 0.8"/>
      </g>
     </g>
     <g id="text_25">
      <!-- 0.20 -->
      <g transform="translate(392.845264 267.237918) scale(0.1 -0.1)">
       <use xlink:href="#DejaVuSans-30"/>
       <use xlink:href="#DejaVuSans-2e" transform="translate(63.623047 0)"/>
       <use xlink:href="#DejaVuSans-32" transform="translate(95.410156 0)"/>
       <use xlink:href="#DejaVuSans-30" transform="translate(159.033203 0)"/>
      </g>
     </g>
    </g>
    <g id="xtick_11">
     <g id="line2d_33">
      <g>
       <use xlink:href="#m261aa71c3b" x="443.639043" y="252.639481" style="stroke: #000000; stroke-width: 0.8"/>
      </g>
     </g>
     <g id="text_26">
      <!-- 0.25 -->
      <g transform="translate(432.50623 267.237918) scale(0.1 -0.1)">
       <use xlink:href="#DejaVuSans-30"/>
       <use xlink:href="#DejaVuSans-2e" transform="translate(63.623047 0)"/>
       <use xlink:href="#DejaVuSans-32" transform="translate(95.410156 0)"/>
       <use xlink:href="#DejaVuSans-35" transform="translate(159.033203 0)"/>
      </g>
     </g>
    </g>
    <g id="xtick_12">
     <g id="line2d_34">
      <g>
       <use xlink:href="#m261aa71c3b" x="483.300009" y="252.639481" style="stroke: #000000; stroke-width: 0.8"/>
      </g>
     </g>
     <g id="text_27">
      <!-- 0.30 -->
      <g transform="translate(472.167196 267.237918) scale(0.1 -0.1)">
       <use xlink:href="#DejaVuSans-30"/>
       <use xlink:href="#DejaVuSans-2e" transform="translate(63.623047 0)"/>
       <use xlink:href="#DejaVuSans-33" transform="translate(95.410156 0)"/>
       <use xlink:href="#DejaVuSans-30" transform="translate(159.033203 0)"/>
      </g>
     </g>
    </g>
    <g id="xtick_13">
     <g id="line2d_35">
      <g>
       <use xlink:href="#m261aa71c3b" x="522.960975" y="252.639481" style="stroke: #000000; stroke-width: 0.8"/>
      </g>
     </g>
     <g id="text_28">
      <!-- 0.35 -->
      <g transform="translate(511.828163 267.237918) scale(0.1 -0.1)">
       <use xlink:href="#DejaVuSans-30"/>
       <use xlink:href="#DejaVuSans-2e" transform="translate(63.623047 0)"/>
       <use xlink:href="#DejaVuSans-33" transform="translate(95.410156 0)"/>
       <use xlink:href="#DejaVuSans-35" transform="translate(159.033203 0)"/>
      </g>
     </g>
    </g>
    <g id="xtick_14">
     <g id="line2d_36">
      <g>
       <use xlink:href="#m261aa71c3b" x="562.621941" y="252.639481" style="stroke: #000000; stroke-width: 0.8"/>
      </g>
     </g>
     <g id="text_29">
      <!-- 0.40 -->
      <g transform="translate(551.489129 267.237918) scale(0.1 -0.1)">
       <use xlink:href="#DejaVuSans-30"/>
       <use xlink:href="#DejaVuSans-2e" transform="translate(63.623047 0)"/>
       <use xlink:href="#DejaVuSans-34" transform="translate(95.410156 0)"/>
       <use xlink:href="#DejaVuSans-30" transform="translate(159.033203 0)"/>
      </g>
     </g>
    </g>
    <g id="xtick_15">
     <g id="line2d_37">
      <g>
       <use xlink:href="#m261aa71c3b" x="602.282908" y="252.639481" style="stroke: #000000; stroke-width: 0.8"/>
      </g>
     </g>
     <g id="text_30">
      <!-- 0.45 -->
      <g transform="translate(591.150095 267.237918) scale(0.1 -0.1)">
       <use xlink:href="#DejaVuSans-30"/>
       <use xlink:href="#DejaVuSans-2e" transform="translate(63.623047 0)"/>
       <use xlink:href="#DejaVuSans-34" transform="translate(95.410156 0)"/>
       <use xlink:href="#DejaVuSans-35" transform="translate(159.033203 0)"/>
      </g>
     </g>
    </g>
    <g id="xtick_16">
     <g id="line2d_38">
      <g>
       <use xlink:href="#m261aa71c3b" x="641.943874" y="252.639481" style="stroke: #000000; stroke-width: 0.8"/>
      </g>
     </g>
     <g id="text_31">
      <!-- 0.50 -->
      <g transform="translate(630.811061 267.237918) scale(0.1 -0.1)">
       <use xlink:href="#DejaVuSans-30"/>
       <use xlink:href="#DejaVuSans-2e" transform="translate(63.623047 0)"/>
       <use xlink:href="#DejaVuSans-35" transform="translate(95.410156 0)"/>
       <use xlink:href="#DejaVuSans-30" transform="translate(159.033203 0)"/>
      </g>
     </g>
    </g>
    <g id="xtick_17">
     <g id="line2d_39">
      <g>
       <use xlink:href="#m261aa71c3b" x="681.60484" y="252.639481" style="stroke: #000000; stroke-width: 0.8"/>
      </g>
     </g>
     <g id="text_32">
      <!-- 0.55 -->
      <g transform="translate(670.472028 267.237918) scale(0.1 -0.1)">
       <use xlink:href="#DejaVuSans-30"/>
       <use xlink:href="#DejaVuSans-2e" transform="translate(63.623047 0)"/>
       <use xlink:href="#DejaVuSans-35" transform="translate(95.410156 0)"/>
       <use xlink:href="#DejaVuSans-35" transform="translate(159.033203 0)"/>
      </g>
     </g>
    </g>
    <g id="xtick_18">
     <g id="line2d_40">
      <g>
       <use xlink:href="#m261aa71c3b" x="721.265806" y="252.639481" style="stroke: #000000; stroke-width: 0.8"/>
      </g>
     </g>
     <g id="text_33">
      <!-- 0.60 -->
      <g transform="translate(710.132994 267.237918) scale(0.1 -0.1)">
       <use xlink:href="#DejaVuSans-30"/>
       <use xlink:href="#DejaVuSans-2e" transform="translate(63.623047 0)"/>
       <use xlink:href="#DejaVuSans-36" transform="translate(95.410156 0)"/>
       <use xlink:href="#DejaVuSans-30" transform="translate(159.033203 0)"/>
      </g>
     </g>
    </g>
   </g>
   <g id="matplotlib.axis_4">
    <g id="ytick_7">
     <g id="line2d_41">
      <g>
       <use xlink:href="#mf25f84e384" x="403.978076" y="252.639481" style="stroke: #000000; stroke-width: 0.8"/>
      </g>
     </g>
     <g id="text_34">
      <!-- $\mathdefault{10^{-3}}$ -->
      <g transform="translate(373.478076 256.438699) scale(0.1 -0.1)">
       <defs>
        <path id="DejaVuSans-2212" d="M 678 2272 
L 4684 2272 
L 4684 1741 
L 678 1741 
L 678 2272 
z
" transform="scale(0.015625)"/>
       </defs>
       <use xlink:href="#DejaVuSans-31" transform="translate(0 0.765625)"/>
       <use xlink:href="#DejaVuSans-30" transform="translate(63.623047 0.765625)"/>
       <use xlink:href="#DejaVuSans-2212" transform="translate(128.203125 39.046875) scale(0.7)"/>
       <use xlink:href="#DejaVuSans-33" transform="translate(186.855469 39.046875) scale(0.7)"/>
      </g>
     </g>
    </g>
    <g id="ytick_8">
     <g id="line2d_42">
      <g>
       <use xlink:href="#mf25f84e384" x="403.978076" y="183.812635" style="stroke: #000000; stroke-width: 0.8"/>
      </g>
     </g>
     <g id="text_35">
      <!-- $\mathdefault{10^{-2}}$ -->
      <g transform="translate(373.478076 187.611854) scale(0.1 -0.1)">
       <use xlink:href="#DejaVuSans-31" transform="translate(0 0.765625)"/>
       <use xlink:href="#DejaVuSans-30" transform="translate(63.623047 0.765625)"/>
       <use xlink:href="#DejaVuSans-2212" transform="translate(128.203125 39.046875) scale(0.7)"/>
       <use xlink:href="#DejaVuSans-32" transform="translate(186.855469 39.046875) scale(0.7)"/>
      </g>
     </g>
    </g>
    <g id="ytick_9">
     <g id="line2d_43">
      <g>
       <use xlink:href="#mf25f84e384" x="403.978076" y="114.98579" style="stroke: #000000; stroke-width: 0.8"/>
      </g>
     </g>
     <g id="text_36">
      <!-- $\mathdefault{10^{-1}}$ -->
      <g transform="translate(373.478076 118.785009) scale(0.1 -0.1)">
       <use xlink:href="#DejaVuSans-31" transform="translate(0 0.684375)"/>
       <use xlink:href="#DejaVuSans-30" transform="translate(63.623047 0.684375)"/>
       <use xlink:href="#DejaVuSans-2212" transform="translate(128.203125 38.965625) scale(0.7)"/>
       <use xlink:href="#DejaVuSans-31" transform="translate(186.855469 38.965625) scale(0.7)"/>
      </g>
     </g>
    </g>
    <g id="ytick_10">
     <g id="line2d_44">
      <g>
       <use xlink:href="#mf25f84e384" x="403.978076" y="46.158945" style="stroke: #000000; stroke-width: 0.8"/>
      </g>
     </g>
     <g id="text_37">
      <!-- $\mathdefault{10^{0}}$ -->
      <g transform="translate(379.378076 49.958164) scale(0.1 -0.1)">
       <use xlink:href="#DejaVuSans-31" transform="translate(0 0.765625)"/>
       <use xlink:href="#DejaVuSans-30" transform="translate(63.623047 0.765625)"/>
       <use xlink:href="#DejaVuSans-30" transform="translate(128.203125 39.046875) scale(0.7)"/>
      </g>
     </g>
    </g>
    <g id="ytick_11">
     <g id="line2d_45">
      <defs>
       <path id="m1b3b31b73d" d="M 0 0 
L -2 0 
" style="stroke: #000000; stroke-width: 0.6"/>
      </defs>
      <g>
       <use xlink:href="#m1b3b31b73d" x="403.978076" y="231.920536" style="stroke: #000000; stroke-width: 0.6"/>
      </g>
     </g>
    </g>
    <g id="ytick_12">
     <g id="line2d_46">
      <g>
       <use xlink:href="#m1b3b31b73d" x="403.978076" y="219.80073" style="stroke: #000000; stroke-width: 0.6"/>
      </g>
     </g>
    </g>
    <g id="ytick_13">
     <g id="line2d_47">
      <g>
       <use xlink:href="#m1b3b31b73d" x="403.978076" y="211.201591" style="stroke: #000000; stroke-width: 0.6"/>
      </g>
     </g>
    </g>
    <g id="ytick_14">
     <g id="line2d_48">
      <g>
       <use xlink:href="#m1b3b31b73d" x="403.978076" y="204.53158" style="stroke: #000000; stroke-width: 0.6"/>
      </g>
     </g>
    </g>
    <g id="ytick_15">
     <g id="line2d_49">
      <g>
       <use xlink:href="#m1b3b31b73d" x="403.978076" y="199.081785" style="stroke: #000000; stroke-width: 0.6"/>
      </g>
     </g>
    </g>
    <g id="ytick_16">
     <g id="line2d_50">
      <g>
       <use xlink:href="#m1b3b31b73d" x="403.978076" y="194.474049" style="stroke: #000000; stroke-width: 0.6"/>
      </g>
     </g>
    </g>
    <g id="ytick_17">
     <g id="line2d_51">
      <g>
       <use xlink:href="#m1b3b31b73d" x="403.978076" y="190.482646" style="stroke: #000000; stroke-width: 0.6"/>
      </g>
     </g>
    </g>
    <g id="ytick_18">
     <g id="line2d_52">
      <g>
       <use xlink:href="#m1b3b31b73d" x="403.978076" y="186.961979" style="stroke: #000000; stroke-width: 0.6"/>
      </g>
     </g>
    </g>
    <g id="ytick_19">
     <g id="line2d_53">
      <g>
       <use xlink:href="#m1b3b31b73d" x="403.978076" y="163.09369" style="stroke: #000000; stroke-width: 0.6"/>
      </g>
     </g>
    </g>
    <g id="ytick_20">
     <g id="line2d_54">
      <g>
       <use xlink:href="#m1b3b31b73d" x="403.978076" y="150.973885" style="stroke: #000000; stroke-width: 0.6"/>
      </g>
     </g>
    </g>
    <g id="ytick_21">
     <g id="line2d_55">
      <g>
       <use xlink:href="#m1b3b31b73d" x="403.978076" y="142.374745" style="stroke: #000000; stroke-width: 0.6"/>
      </g>
     </g>
    </g>
    <g id="ytick_22">
     <g id="line2d_56">
      <g>
       <use xlink:href="#m1b3b31b73d" x="403.978076" y="135.704735" style="stroke: #000000; stroke-width: 0.6"/>
      </g>
     </g>
    </g>
    <g id="ytick_23">
     <g id="line2d_57">
      <g>
       <use xlink:href="#m1b3b31b73d" x="403.978076" y="130.25494" style="stroke: #000000; stroke-width: 0.6"/>
      </g>
     </g>
    </g>
    <g id="ytick_24">
     <g id="line2d_58">
      <g>
       <use xlink:href="#m1b3b31b73d" x="403.978076" y="125.647203" style="stroke: #000000; stroke-width: 0.6"/>
      </g>
     </g>
    </g>
    <g id="ytick_25">
     <g id="line2d_59">
      <g>
       <use xlink:href="#m1b3b31b73d" x="403.978076" y="121.655801" style="stroke: #000000; stroke-width: 0.6"/>
      </g>
     </g>
    </g>
    <g id="ytick_26">
     <g id="line2d_60">
      <g>
       <use xlink:href="#m1b3b31b73d" x="403.978076" y="118.135134" style="stroke: #000000; stroke-width: 0.6"/>
      </g>
     </g>
    </g>
    <g id="ytick_27">
     <g id="line2d_61">
      <g>
       <use xlink:href="#m1b3b31b73d" x="403.978076" y="94.266845" style="stroke: #000000; stroke-width: 0.6"/>
      </g>
     </g>
    </g>
    <g id="ytick_28">
     <g id="line2d_62">
      <g>
       <use xlink:href="#m1b3b31b73d" x="403.978076" y="82.147039" style="stroke: #000000; stroke-width: 0.6"/>
      </g>
     </g>
    </g>
    <g id="ytick_29">
     <g id="line2d_63">
      <g>
       <use xlink:href="#m1b3b31b73d" x="403.978076" y="73.5479" style="stroke: #000000; stroke-width: 0.6"/>
      </g>
     </g>
    </g>
    <g id="ytick_30">
     <g id="line2d_64">
      <g>
       <use xlink:href="#m1b3b31b73d" x="403.978076" y="66.87789" style="stroke: #000000; stroke-width: 0.6"/>
      </g>
     </g>
    </g>
    <g id="ytick_31">
     <g id="line2d_65">
      <g>
       <use xlink:href="#m1b3b31b73d" x="403.978076" y="61.428094" style="stroke: #000000; stroke-width: 0.6"/>
      </g>
     </g>
    </g>
    <g id="ytick_32">
     <g id="line2d_66">
      <g>
       <use xlink:href="#m1b3b31b73d" x="403.978076" y="56.820358" style="stroke: #000000; stroke-width: 0.6"/>
      </g>
     </g>
    </g>
    <g id="ytick_33">
     <g id="line2d_67">
      <g>
       <use xlink:href="#m1b3b31b73d" x="403.978076" y="52.828955" style="stroke: #000000; stroke-width: 0.6"/>
      </g>
     </g>
    </g>
    <g id="ytick_34">
     <g id="line2d_68">
      <g>
       <use xlink:href="#m1b3b31b73d" x="403.978076" y="49.308289" style="stroke: #000000; stroke-width: 0.6"/>
      </g>
     </g>
    </g>
    <g id="ytick_35">
     <g id="line2d_69">
      <g>
       <use xlink:href="#m1b3b31b73d" x="403.978076" y="25.44" style="stroke: #000000; stroke-width: 0.6"/>
      </g>
     </g>
    </g>
   </g>
   <g id="line2d_70">
    <path d="M 245.334211 46.158945 
L 253.345726 46.158945 
L 261.357242 46.158945 
L 269.368757 46.158945 
L 277.380272 46.158945 
L 285.399719 46.158945 
L 293.411235 46.158945 
L 301.42275 46.158945 
L 309.434265 46.158945 
L 317.44578 46.158945 
L 325.449363 46.158945 
L 333.460878 46.161935 
L 341.472393 46.167913 
L 349.483909 46.179876 
L 357.495424 46.203816 
L 365.506939 46.242757 
L 373.518454 46.308775 
L 381.529969 46.41712 
L 389.541485 46.592506 
L 397.553 46.872832 
L 405.564515 47.320059 
L 413.57603 48.033921 
L 421.587545 49.159205 
L 429.599061 50.872984 
L 437.610576 53.360484 
L 445.622091 56.756374 
L 453.633606 61.150405 
L 461.645121 66.503616 
L 469.656636 72.69339 
L 477.668152 79.54368 
L 485.679667 86.829596 
L 493.691182 94.371647 
L 501.702697 102.001791 
L 509.714212 109.635799 
L 517.725728 117.167868 
L 525.737243 124.590039 
L 533.748758 131.882695 
L 541.760273 139.060707 
L 549.771788 146.1195 
L 557.783303 153.057517 
L 565.794819 159.799726 
L 573.806334 166.376179 
L 581.817849 172.706186 
L 589.829364 178.789325 
L 597.840879 184.658453 
L 605.852395 190.363321 
L 613.86391 195.921982 
L 621.875425 201.401373 
L 629.88694 206.868403 
L 637.898455 212.328542 
L 645.989292 217.834261 
L 654.000808 223.441201 
L 662.012323 229.221439 
L 670.023838 235.236404 
L 678.035353 241.53303 
L 686.046868 248.254622 
L 694.058384 255.540764 
L 702.069899 263.139066 
L 710.081414 271.263488 
L 718.092929 280.110749 
L 719.326215 281.519481 
" clip-path="url(#pe1cfa15364)" style="fill: none; stroke: #000000; stroke-width: 1.5; stroke-linecap: square"/>
   </g>
   <g id="line2d_71">
    <path d="M 245.334211 46.158945 
L 253.345726 46.158945 
L 261.357242 46.158945 
L 269.368757 46.158945 
L 277.380272 46.158945 
L 285.399719 46.158945 
L 293.411235 46.158945 
L 301.42275 46.158945 
L 309.434265 46.158945 
L 317.44578 46.158945 
L 325.449363 46.158945 
L 333.460878 46.161935 
L 341.472393 46.164923 
L 349.483909 46.170904 
L 357.495424 46.176884 
L 365.506939 46.188851 
L 373.518454 46.203816 
L 381.529969 46.233766 
L 389.541485 46.287754 
L 397.553 46.402048 
L 405.564515 46.628923 
L 413.57603 47.081733 
L 421.587545 47.922735 
L 429.599061 49.351496 
L 437.610576 51.588422 
L 445.622091 54.809939 
L 453.633606 59.127643 
L 461.645121 64.522135 
L 469.656636 70.896635 
L 477.668152 78.056164 
L 485.679667 85.765011 
L 493.691182 93.836535 
L 501.702697 102.079331 
L 509.714212 110.343911 
L 517.725728 118.543096 
L 525.737243 126.610535 
L 533.748758 134.520891 
L 541.760273 142.255419 
L 549.771788 149.820701 
L 557.783303 157.247979 
L 565.794819 164.45435 
L 573.806334 171.494216 
L 581.817849 178.213758 
L 589.829364 184.609295 
L 597.840879 190.685093 
L 605.852395 196.469295 
L 613.86391 202.021521 
L 621.875425 207.291565 
L 629.88694 212.429592 
L 637.898455 217.500278 
L 645.989292 222.586951 
L 654.000808 227.86009 
L 662.012323 233.312495 
L 670.023838 239.118272 
L 678.035353 245.377546 
L 686.046868 252.106227 
L 694.058384 259.727134 
L 702.069899 268.108572 
L 710.081414 277.186302 
L 713.446325 281.519481 
" clip-path="url(#pe1cfa15364)" style="fill: none; stroke: #00ffff; stroke-width: 1.5; stroke-linecap: square"/>
   </g>
   <g id="line2d_72">
    <path d="M 245.334211 46.158945 
L 253.345726 46.158945 
L 261.357242 46.158945 
L 269.368757 46.158945 
L 277.380272 46.158945 
L 285.399719 46.158945 
L 293.411235 46.158945 
L 301.42275 46.158945 
L 309.434265 46.158945 
L 317.44578 46.158945 
L 325.449363 46.158945 
L 333.460878 46.158945 
L 341.472393 46.158945 
L 349.483909 46.188851 
L 357.495424 46.218786 
L 365.506939 46.248754 
L 373.518454 46.308775 
L 381.529969 46.429183 
L 389.541485 46.580377 
L 397.553 46.85447 
L 405.564515 47.285896 
L 413.57603 47.976688 
L 421.587545 49.109675 
L 429.599061 50.806562 
L 437.610576 53.280719 
L 445.622091 56.692527 
L 453.633606 61.081384 
L 461.645121 66.462315 
L 469.656636 72.664355 
L 477.668152 79.571092 
L 485.679667 86.88792 
L 493.691182 94.416676 
L 501.702697 102.079331 
L 509.714212 109.78613 
L 517.725728 117.316147 
L 525.737243 124.722228 
L 533.748758 131.998655 
L 541.760273 139.255308 
L 549.771788 146.280865 
L 557.783303 153.250434 
L 565.794819 159.974253 
L 573.806334 166.577017 
L 581.817849 172.913045 
L 589.829364 178.865222 
L 597.840879 184.723094 
L 605.852395 190.296407 
L 613.86391 195.783359 
L 621.875425 201.197483 
L 629.88694 206.508574 
L 637.898455 211.881823 
L 645.989292 217.224782 
L 654.000808 222.619781 
L 662.012323 228.39987 
L 670.023838 234.250893 
L 678.035353 240.519674 
L 686.046868 247.189684 
L 694.058384 254.616472 
L 702.069899 262.210774 
L 710.081414 270.292893 
L 718.092929 279.290346 
L 720.047136 281.519481 
" clip-path="url(#pe1cfa15364)" style="fill: none; stroke: #a9a9a9; stroke-width: 1.5; stroke-linecap: square"/>
   </g>
   <g id="line2d_73">
    <path d="M 245.334211 46.158945 
L 253.345726 46.158945 
L 261.357242 46.158945 
L 269.368757 46.158945 
L 277.380272 46.158945 
L 285.399719 46.158945 
L 293.411235 46.158945 
L 301.42275 46.158945 
L 309.434265 46.158945 
L 317.44578 46.158945 
L 325.449363 46.158945 
L 333.460878 46.158945 
L 341.472393 46.158945 
L 349.483909 46.188851 
L 357.495424 46.188851 
L 365.506939 46.248754 
L 373.518454 46.308775 
L 381.529969 46.399036 
L 389.541485 46.580377 
L 397.553 46.85447 
L 405.564515 47.254873 
L 413.57603 47.94494 
L 421.587545 49.043764 
L 429.599061 50.736806 
L 437.610576 53.167136 
L 445.622091 56.522931 
L 453.633606 60.836172 
L 461.645121 66.168975 
L 469.656636 72.303782 
L 477.668152 79.117501 
L 485.679667 86.309738 
L 493.691182 93.821809 
L 501.702697 101.502634 
L 509.714212 109.041915 
L 517.725728 116.676742 
L 525.737243 124.14817 
L 533.748758 131.475155 
L 541.760273 138.655466 
L 549.771788 145.774225 
L 557.783303 152.823409 
L 565.794819 159.70617 
L 573.806334 166.40956 
L 581.817849 172.706186 
L 589.829364 179.119618 
L 597.840879 185.064003 
L 605.852395 190.972367 
L 613.86391 196.781333 
L 621.875425 202.509186 
L 629.88694 208.284805 
L 637.898455 214.020642 
L 645.989292 219.701257 
L 654.000808 225.490615 
L 662.012323 231.623109 
L 670.023838 238.035278 
L 678.035353 244.568068 
L 686.046868 251.755934 
L 694.058384 259.346879 
L 702.069899 267.660569 
L 710.081414 276.243245 
L 714.391058 281.519481 
" clip-path="url(#pe1cfa15364)" style="fill: none; stroke-dasharray: 5.55,2.4; stroke-dashoffset: 0; stroke: #a9a9a9; stroke-width: 1.5"/>
   </g>
   <g id="line2d_74">
    <path d="M 245.334211 46.158945 
L 253.345726 46.158945 
L 261.357242 46.158945 
L 269.368757 46.158945 
L 277.380272 46.158945 
L 285.399719 46.158945 
L 293.411235 46.158945 
L 301.42275 46.158945 
L 309.434265 46.158945 
L 317.44578 46.158945 
L 325.449363 46.158945 
L 333.460878 46.158945 
L 341.472393 46.158945 
L 349.483909 46.188851 
L 357.495424 46.188851 
L 365.506939 46.248754 
L 373.518454 46.308775 
L 381.529969 46.399036 
L 389.541485 46.580377 
L 397.553 46.85447 
L 405.564515 47.316951 
L 413.57603 48.040286 
L 421.587545 49.208817 
L 429.599061 50.981672 
L 437.610576 53.509187 
L 445.622091 56.948737 
L 453.633606 61.428093 
L 461.645121 66.818168 
L 469.656636 73.02933 
L 477.668152 79.938986 
L 485.679667 87.240277 
L 493.691182 94.718609 
L 501.702697 102.274062 
L 509.714212 109.78613 
L 517.725728 117.122887 
L 525.737243 124.392847 
L 533.748758 131.579124 
L 541.760273 138.589553 
L 549.771788 145.52409 
L 557.783303 152.298069 
L 565.794819 158.78637 
L 573.806334 165.26291 
L 581.817849 171.494216 
L 589.829364 177.382715 
L 597.840879 183.220712 
L 605.852395 188.776193 
L 613.86391 194.388768 
L 621.875425 199.787511 
L 629.88694 205.319032 
L 637.898455 210.756552 
L 645.989292 216.413209 
L 654.000808 221.969948 
L 662.012323 227.87314 
L 670.023838 234.089755 
L 678.035353 240.519674 
L 686.046868 247.439822 
L 694.058384 254.744487 
L 702.069899 262.417347 
L 710.081414 271.280213 
L 718.092929 280.328853 
L 719.042772 281.519481 
" clip-path="url(#pe1cfa15364)" style="fill: none; stroke-dasharray: 5.55,2.4; stroke-dashoffset: 0; stroke: #808080; stroke-width: 1.5"/>
   </g>
   <g id="line2d_75">
    <path d="M 245.334211 46.158945 
L 253.345726 46.158945 
L 261.357242 46.158945 
L 269.368757 46.158945 
L 277.380272 46.158945 
L 285.399719 46.158945 
L 293.411235 46.158945 
L 301.42275 46.158945 
L 309.434265 46.158945 
L 317.44578 46.158945 
L 325.449363 46.158945 
L 333.460878 46.158945 
L 341.472393 46.158945 
L 349.483909 46.188851 
L 357.495424 46.188851 
L 365.506939 46.218786 
L 373.518454 46.278749 
L 381.529969 46.368919 
L 389.541485 46.519809 
L 397.553 46.732341 
L 405.564515 47.1311 
L 413.57603 47.818283 
L 421.587545 48.912374 
L 429.599061 50.632473 
L 437.610576 53.129371 
L 445.622091 56.60761 
L 453.633606 61.081384 
L 461.645121 66.521333 
L 469.656636 72.809811 
L 477.668152 79.846588 
L 485.679667 87.240277 
L 493.691182 95.023624 
L 501.702697 102.865983 
L 509.714212 110.549351 
L 517.725728 118.435549 
L 525.737243 126.0773 
L 533.748758 133.570808 
L 541.760273 140.916353 
L 549.771788 148.124957 
L 557.783303 155.251328 
L 565.794819 162.3556 
L 573.806334 169.025611 
L 581.817849 175.513912 
L 589.829364 181.790241 
L 597.840879 187.906697 
L 605.852395 193.673535 
L 613.86391 199.331921 
L 621.875425 204.771671 
L 629.88694 210.173295 
L 637.898455 215.450306 
L 645.989292 220.814085 
L 654.000808 226.222679 
L 662.012323 231.771453 
L 670.023838 237.852456 
L 678.035353 244.340756 
L 686.046868 251.467129 
L 694.058384 259.346879 
L 702.069899 267.660569 
L 710.081414 276.375214 
L 714.340571 281.519481 
" clip-path="url(#pe1cfa15364)" style="fill: none; stroke: #ffa500; stroke-width: 1.5; stroke-linecap: square"/>
   </g>
   <g id="line2d_76">
    <path d="M 245.334211 46.158945 
L 253.345726 46.158945 
L 261.357242 46.158945 
L 269.368757 46.158945 
L 277.380272 46.158945 
L 285.399719 46.158945 
L 293.411235 46.158945 
L 301.42275 46.158945 
L 309.434265 46.158945 
L 317.44578 46.158945 
L 325.449363 46.158945 
L 333.460878 46.158945 
L 341.472393 46.158945 
L 349.483909 46.188851 
L 357.495424 46.188851 
L 365.506939 46.218786 
L 373.518454 46.278749 
L 381.529969 46.368919 
L 389.541485 46.519809 
L 397.553 46.732341 
L 405.564515 47.1311 
L 413.57603 47.818283 
L 421.587545 48.912374 
L 429.599061 50.632473 
L 437.610576 53.129371 
L 445.622091 56.60761 
L 453.633606 61.081384 
L 461.645121 66.521333 
L 469.656636 72.809811 
L 477.668152 79.846588 
L 485.679667 87.240277 
L 493.691182 95.023624 
L 501.702697 102.865983 
L 509.714212 110.549351 
L 517.725728 118.435549 
L 525.737243 126.0773 
L 533.748758 133.570808 
L 541.760273 140.916353 
L 549.771788 148.124957 
L 557.783303 155.251328 
L 565.794819 162.3556 
L 573.806334 169.025611 
L 581.817849 175.513912 
L 589.829364 181.790241 
L 597.840879 187.906697 
L 605.852395 193.673535 
L 613.86391 199.331921 
L 621.875425 204.771671 
L 629.88694 210.173295 
L 637.898455 215.450306 
L 645.989292 220.814085 
L 654.000808 226.222679 
L 662.012323 231.771453 
L 670.023838 237.852456 
L 678.035353 244.340756 
L 686.046868 251.467129 
L 694.058384 259.346879 
L 702.069899 267.660569 
L 710.081414 276.375214 
L 714.340571 281.519481 
" clip-path="url(#pe1cfa15364)" style="fill: none; stroke-dasharray: 5.55,2.4; stroke-dashoffset: 0; stroke: #ffa500; stroke-width: 1.5"/>
   </g>
   <g id="line2d_77">
    <path d="M 245.334211 46.158945 
L 253.345726 46.158945 
L 261.357242 46.158945 
L 269.368757 46.158945 
L 277.380272 46.158945 
L 285.399719 46.158945 
L 293.411235 46.158945 
L 301.42275 46.158945 
L 309.434265 46.158945 
L 317.44578 46.158945 
L 325.449363 46.158945 
L 333.460878 46.158945 
L 341.472393 46.158945 
L 349.483909 46.158945 
L 357.495424 46.188851 
L 365.506939 46.218786 
L 373.518454 46.278749 
L 381.529969 46.399036 
L 389.541485 46.550078 
L 397.553 46.85447 
L 405.564515 47.285896 
L 413.57603 48.040286 
L 421.587545 49.175734 
L 429.599061 50.911506 
L 437.610576 53.356681 
L 445.622091 56.735076 
L 453.633606 61.081384 
L 461.645121 66.462315 
L 469.656636 72.809811 
L 477.668152 79.846588 
L 485.679667 87.358657 
L 493.691182 95.331781 
L 501.702697 103.469866 
L 509.714212 111.866352 
L 517.725728 120.055408 
L 525.737243 128.232547 
L 533.748758 136.308617 
L 541.760273 144.303873 
L 549.771788 152.298069 
L 557.783303 160.109202 
L 565.794819 167.776247 
L 573.806334 175.064414 
L 581.817849 182.354243 
L 589.829364 189.059859 
L 597.840879 195.561117 
L 605.852395 201.628354 
L 613.86391 207.350631 
L 621.875425 212.971723 
L 629.88694 218.437381 
L 637.898455 223.621811 
L 645.989292 228.533014 
L 654.000808 233.296841 
L 662.012323 237.852456 
L 670.023838 242.369199 
L 678.035353 246.941624 
L 686.046868 251.467129 
L 694.058384 256.528575 
L 702.069899 261.68027 
L 710.081414 267.611203 
L 718.092929 274.084562 
L 726.104444 281.093372 
L 726.523926 281.519481 
" clip-path="url(#pe1cfa15364)" style="fill: none; stroke-dasharray: 1.5,2.475; stroke-dashoffset: 0; stroke: #ffa500; stroke-width: 1.5"/>
   </g>
   <g id="patch_9">
    <path d="M 403.978076 252.639481 
L 403.978076 25.44 
" style="fill: none; stroke: #000000; stroke-width: 0.8; stroke-linejoin: miter; stroke-linecap: square"/>
   </g>
   <g id="patch_10">
    <path d="M 721.265806 252.639481 
L 721.265806 25.44 
" style="fill: none; stroke: #000000; stroke-width: 0.8; stroke-linejoin: miter; stroke-linecap: square"/>
   </g>
   <g id="patch_11">
    <path d="M 403.978076 252.639481 
L 721.265806 252.639481 
" style="fill: none; stroke: #000000; stroke-width: 0.8; stroke-linejoin: miter; stroke-linecap: square"/>
   </g>
   <g id="patch_12">
    <path d="M 403.978076 25.44 
L 721.265806 25.44 
" style="fill: none; stroke: #000000; stroke-width: 0.8; stroke-linejoin: miter; stroke-linecap: square"/>
   </g>
   <g id="text_38">
    <!-- TM-align (logscale) -->
    <g transform="translate(505.797254 19.44) scale(0.12 -0.12)">
     <defs>
      <path id="DejaVuSans-20" transform="scale(0.015625)"/>
      <path id="DejaVuSans-28" d="M 1984 4856 
Q 1566 4138 1362 3434 
Q 1159 2731 1159 2009 
Q 1159 1288 1364 580 
Q 1569 -128 1984 -844 
L 1484 -844 
Q 1016 -109 783 600 
Q 550 1309 550 2009 
Q 550 2706 781 3412 
Q 1013 4119 1484 4856 
L 1984 4856 
z
" transform="scale(0.015625)"/>
      <path id="DejaVuSans-6f" d="M 1959 3097 
Q 1497 3097 1228 2736 
Q 959 2375 959 1747 
Q 959 1119 1226 758 
Q 1494 397 1959 397 
Q 2419 397 2687 759 
Q 2956 1122 2956 1747 
Q 2956 2369 2687 2733 
Q 2419 3097 1959 3097 
z
M 1959 3584 
Q 2709 3584 3137 3096 
Q 3566 2609 3566 1747 
Q 3566 888 3137 398 
Q 2709 -91 1959 -91 
Q 1206 -91 779 398 
Q 353 888 353 1747 
Q 353 2609 779 3096 
Q 1206 3584 1959 3584 
z
" transform="scale(0.015625)"/>
      <path id="DejaVuSans-73" d="M 2834 3397 
L 2834 2853 
Q 2591 2978 2328 3040 
Q 2066 3103 1784 3103 
Q 1356 3103 1142 2972 
Q 928 2841 928 2578 
Q 928 2378 1081 2264 
Q 1234 2150 1697 2047 
L 1894 2003 
Q 2506 1872 2764 1633 
Q 3022 1394 3022 966 
Q 3022 478 2636 193 
Q 2250 -91 1575 -91 
Q 1294 -91 989 -36 
Q 684 19 347 128 
L 347 722 
Q 666 556 975 473 
Q 1284 391 1588 391 
Q 1994 391 2212 530 
Q 2431 669 2431 922 
Q 2431 1156 2273 1281 
Q 2116 1406 1581 1522 
L 1381 1569 
Q 847 1681 609 1914 
Q 372 2147 372 2553 
Q 372 3047 722 3315 
Q 1072 3584 1716 3584 
Q 2034 3584 2315 3537 
Q 2597 3491 2834 3397 
z
" transform="scale(0.015625)"/>
      <path id="DejaVuSans-65" d="M 3597 1894 
L 3597 1613 
L 953 1613 
Q 991 1019 1311 708 
Q 1631 397 2203 397 
Q 2534 397 2845 478 
Q 3156 559 3463 722 
L 3463 178 
Q 3153 47 2828 -22 
Q 2503 -91 2169 -91 
Q 1331 -91 842 396 
Q 353 884 353 1716 
Q 353 2575 817 3079 
Q 1281 3584 2069 3584 
Q 2775 3584 3186 3129 
Q 3597 2675 3597 1894 
z
M 3022 2063 
Q 3016 2534 2758 2815 
Q 2500 3097 2075 3097 
Q 1594 3097 1305 2825 
Q 1016 2553 972 2059 
L 3022 2063 
z
" transform="scale(0.015625)"/>
      <path id="DejaVuSans-29" d="M 513 4856 
L 1013 4856 
Q 1481 4119 1714 3412 
Q 1947 2706 1947 2009 
Q 1947 1309 1714 600 
Q 1481 -109 1013 -844 
L 513 -844 
Q 928 -128 1133 580 
Q 1338 1288 1338 2009 
Q 1338 2731 1133 3434 
Q 928 4138 513 4856 
z
" transform="scale(0.015625)"/>
     </defs>
     <use xlink:href="#DejaVuSans-54"/>
     <use xlink:href="#DejaVuSans-4d" transform="translate(61.083984 0)"/>
     <use xlink:href="#DejaVuSans-2d" transform="translate(147.363281 0)"/>
     <use xlink:href="#DejaVuSans-61" transform="translate(183.447266 0)"/>
     <use xlink:href="#DejaVuSans-6c" transform="translate(244.726562 0)"/>
     <use xlink:href="#DejaVuSans-69" transform="translate(272.509766 0)"/>
     <use xlink:href="#DejaVuSans-67" transform="translate(300.292969 0)"/>
     <use xlink:href="#DejaVuSans-6e" transform="translate(363.769531 0)"/>
     <use xlink:href="#DejaVuSans-20" transform="translate(427.148438 0)"/>
     <use xlink:href="#DejaVuSans-28" transform="translate(458.935547 0)"/>
     <use xlink:href="#DejaVuSans-6c" transform="translate(497.949219 0)"/>
     <use xlink:href="#DejaVuSans-6f" transform="translate(525.732422 0)"/>
     <use xlink:href="#DejaVuSans-67" transform="translate(586.914062 0)"/>
     <use xlink:href="#DejaVuSans-73" transform="translate(650.390625 0)"/>
     <use xlink:href="#DejaVuSans-63" transform="translate(702.490234 0)"/>
     <use xlink:href="#DejaVuSans-61" transform="translate(757.470703 0)"/>
     <use xlink:href="#DejaVuSans-6c" transform="translate(818.75 0)"/>
     <use xlink:href="#DejaVuSans-65" transform="translate(846.533203 0)"/>
     <use xlink:href="#DejaVuSans-29" transform="translate(908.056641 0)"/>
    </g>
   </g>
   <g id="legend_2">
    <g id="patch_13">
     <path d="M 620.476744 150.865 
L 714.265806 150.865 
Q 716.265806 150.865 716.265806 148.865 
L 716.265806 32.44 
Q 716.265806 30.44 714.265806 30.44 
L 620.476744 30.44 
Q 618.476744 30.44 618.476744 32.44 
L 618.476744 148.865 
Q 618.476744 150.865 620.476744 150.865 
z
" style="fill: #ffffff; opacity: 0.8; stroke: #cccccc; stroke-linejoin: miter"/>
    </g>
    <g id="line2d_78">
     <path d="M 622.476744 38.538437 
L 632.476744 38.538437 
L 642.476744 38.538437 
" style="fill: none; stroke: #000000; stroke-width: 1.5; stroke-linecap: square"/>
    </g>
    <g id="text_39">
     <!-- SCOP40 -->
     <g transform="translate(650.476744 42.038437) scale(0.1 -0.1)">
      <use xlink:href="#DejaVuSans-53"/>
      <use xlink:href="#DejaVuSans-43" transform="translate(63.476562 0)"/>
      <use xlink:href="#DejaVuSans-4f" transform="translate(133.300781 0)"/>
      <use xlink:href="#DejaVuSans-50" transform="translate(212.011719 0)"/>
      <use xlink:href="#DejaVuSans-34" transform="translate(272.314453 0)"/>
      <use xlink:href="#DejaVuSans-30" transform="translate(335.9375 0)"/>
     </g>
    </g>
    <g id="line2d_79">
     <path d="M 622.476744 53.216563 
L 632.476744 53.216563 
L 642.476744 53.216563 
" style="fill: none; stroke: #00ffff; stroke-width: 1.5; stroke-linecap: square"/>
    </g>
    <g id="text_40">
     <!-- SCOP40c -->
     <g transform="translate(650.476744 56.716563) scale(0.1 -0.1)">
      <use xlink:href="#DejaVuSans-53"/>
      <use xlink:href="#DejaVuSans-43" transform="translate(63.476562 0)"/>
      <use xlink:href="#DejaVuSans-4f" transform="translate(133.300781 0)"/>
      <use xlink:href="#DejaVuSans-50" transform="translate(212.011719 0)"/>
      <use xlink:href="#DejaVuSans-34" transform="translate(272.314453 0)"/>
      <use xlink:href="#DejaVuSans-30" transform="translate(335.9375 0)"/>
      <use xlink:href="#DejaVuSans-63" transform="translate(399.560547 0)"/>
     </g>
    </g>
    <g id="line2d_80">
     <path d="M 622.476744 67.894687 
L 632.476744 67.894687 
L 642.476744 67.894687 
" style="fill: none; stroke: #a9a9a9; stroke-width: 1.5; stroke-linecap: square"/>
    </g>
    <g id="text_41">
     <!-- SCOP40/N2 -->
     <g transform="translate(650.476744 71.394687) scale(0.1 -0.1)">
      <use xlink:href="#DejaVuSans-53"/>
      <use xlink:href="#DejaVuSans-43" transform="translate(63.476562 0)"/>
      <use xlink:href="#DejaVuSans-4f" transform="translate(133.300781 0)"/>
      <use xlink:href="#DejaVuSans-50" transform="translate(212.011719 0)"/>
      <use xlink:href="#DejaVuSans-34" transform="translate(272.314453 0)"/>
      <use xlink:href="#DejaVuSans-30" transform="translate(335.9375 0)"/>
      <use xlink:href="#DejaVuSans-2f" transform="translate(399.560547 0)"/>
      <use xlink:href="#DejaVuSans-4e" transform="translate(433.251953 0)"/>
      <use xlink:href="#DejaVuSans-32" transform="translate(508.056641 0)"/>
     </g>
    </g>
    <g id="line2d_81">
     <path d="M 622.476744 82.572812 
L 632.476744 82.572812 
L 642.476744 82.572812 
" style="fill: none; stroke-dasharray: 5.55,2.4; stroke-dashoffset: 0; stroke: #a9a9a9; stroke-width: 1.5"/>
    </g>
    <g id="text_42">
     <!-- SCOP40/N4 -->
     <g transform="translate(650.476744 86.072812) scale(0.1 -0.1)">
      <use xlink:href="#DejaVuSans-53"/>
      <use xlink:href="#DejaVuSans-43" transform="translate(63.476562 0)"/>
      <use xlink:href="#DejaVuSans-4f" transform="translate(133.300781 0)"/>
      <use xlink:href="#DejaVuSans-50" transform="translate(212.011719 0)"/>
      <use xlink:href="#DejaVuSans-34" transform="translate(272.314453 0)"/>
      <use xlink:href="#DejaVuSans-30" transform="translate(335.9375 0)"/>
      <use xlink:href="#DejaVuSans-2f" transform="translate(399.560547 0)"/>
      <use xlink:href="#DejaVuSans-4e" transform="translate(433.251953 0)"/>
      <use xlink:href="#DejaVuSans-34" transform="translate(508.056641 0)"/>
     </g>
    </g>
    <g id="line2d_82">
     <path d="M 622.476744 97.250937 
L 632.476744 97.250937 
L 642.476744 97.250937 
" style="fill: none; stroke-dasharray: 5.55,2.4; stroke-dashoffset: 0; stroke: #808080; stroke-width: 1.5"/>
    </g>
    <g id="text_43">
     <!-- SCOP40/N8 -->
     <g transform="translate(650.476744 100.750937) scale(0.1 -0.1)">
      <use xlink:href="#DejaVuSans-53"/>
      <use xlink:href="#DejaVuSans-43" transform="translate(63.476562 0)"/>
      <use xlink:href="#DejaVuSans-4f" transform="translate(133.300781 0)"/>
      <use xlink:href="#DejaVuSans-50" transform="translate(212.011719 0)"/>
      <use xlink:href="#DejaVuSans-34" transform="translate(272.314453 0)"/>
      <use xlink:href="#DejaVuSans-30" transform="translate(335.9375 0)"/>
      <use xlink:href="#DejaVuSans-2f" transform="translate(399.560547 0)"/>
      <use xlink:href="#DejaVuSans-4e" transform="translate(433.251953 0)"/>
      <use xlink:href="#DejaVuSans-38" transform="translate(508.056641 0)"/>
     </g>
    </g>
    <g id="line2d_83">
     <path d="M 622.476744 111.929062 
L 632.476744 111.929062 
L 642.476744 111.929062 
" style="fill: none; stroke: #ffa500; stroke-width: 1.5; stroke-linecap: square"/>
    </g>
    <g id="text_44">
     <!-- SCOP40/SF2 -->
     <g transform="translate(650.476744 115.429062) scale(0.1 -0.1)">
      <use xlink:href="#DejaVuSans-53"/>
      <use xlink:href="#DejaVuSans-43" transform="translate(63.476562 0)"/>
      <use xlink:href="#DejaVuSans-4f" transform="translate(133.300781 0)"/>
      <use xlink:href="#DejaVuSans-50" transform="translate(212.011719 0)"/>
      <use xlink:href="#DejaVuSans-34" transform="translate(272.314453 0)"/>
      <use xlink:href="#DejaVuSans-30" transform="translate(335.9375 0)"/>
      <use xlink:href="#DejaVuSans-2f" transform="translate(399.560547 0)"/>
      <use xlink:href="#DejaVuSans-53" transform="translate(433.251953 0)"/>
      <use xlink:href="#DejaVuSans-46" transform="translate(496.728516 0)"/>
      <use xlink:href="#DejaVuSans-32" transform="translate(554.248047 0)"/>
     </g>
    </g>
    <g id="line2d_84">
     <path d="M 622.476744 126.607187 
L 632.476744 126.607187 
L 642.476744 126.607187 
" style="fill: none; stroke-dasharray: 5.55,2.4; stroke-dashoffset: 0; stroke: #ffa500; stroke-width: 1.5"/>
    </g>
    <g id="text_45">
     <!-- SCOP40/SF4 -->
     <g transform="translate(650.476744 130.107187) scale(0.1 -0.1)">
      <use xlink:href="#DejaVuSans-53"/>
      <use xlink:href="#DejaVuSans-43" transform="translate(63.476562 0)"/>
      <use xlink:href="#DejaVuSans-4f" transform="translate(133.300781 0)"/>
      <use xlink:href="#DejaVuSans-50" transform="translate(212.011719 0)"/>
      <use xlink:href="#DejaVuSans-34" transform="translate(272.314453 0)"/>
      <use xlink:href="#DejaVuSans-30" transform="translate(335.9375 0)"/>
      <use xlink:href="#DejaVuSans-2f" transform="translate(399.560547 0)"/>
      <use xlink:href="#DejaVuSans-53" transform="translate(433.251953 0)"/>
      <use xlink:href="#DejaVuSans-46" transform="translate(496.728516 0)"/>
      <use xlink:href="#DejaVuSans-34" transform="translate(554.248047 0)"/>
     </g>
    </g>
    <g id="line2d_85">
     <path d="M 622.476744 141.285312 
L 632.476744 141.285312 
L 642.476744 141.285312 
" style="fill: none; stroke-dasharray: 1.5,2.475; stroke-dashoffset: 0; stroke: #ffa500; stroke-width: 1.5"/>
    </g>
    <g id="text_46">
     <!-- SCOP40/SF8 -->
     <g transform="translate(650.476744 144.785312) scale(0.1 -0.1)">
      <use xlink:href="#DejaVuSans-53"/>
      <use xlink:href="#DejaVuSans-43" transform="translate(63.476562 0)"/>
      <use xlink:href="#DejaVuSans-4f" transform="translate(133.300781 0)"/>
      <use xlink:href="#DejaVuSans-50" transform="translate(212.011719 0)"/>
      <use xlink:href="#DejaVuSans-34" transform="translate(272.314453 0)"/>
      <use xlink:href="#DejaVuSans-30" transform="translate(335.9375 0)"/>
      <use xlink:href="#DejaVuSans-2f" transform="translate(399.560547 0)"/>
      <use xlink:href="#DejaVuSans-53" transform="translate(433.251953 0)"/>
      <use xlink:href="#DejaVuSans-46" transform="translate(496.728516 0)"/>
      <use xlink:href="#DejaVuSans-38" transform="translate(554.248047 0)"/>
     </g>
    </g>
   </g>
  </g>
  <g id="text_47">
   <!-- ../plots/C_score_F.tm.svg -->
   <g transform="translate(297.842903 14.728515) scale(0.12 -0.12)">
    <defs>
     <path id="DejaVuSans-70" d="M 1159 525 
L 1159 -1331 
L 581 -1331 
L 581 3500 
L 1159 3500 
L 1159 2969 
Q 1341 3281 1617 3432 
Q 1894 3584 2278 3584 
Q 2916 3584 3314 3078 
Q 3713 2572 3713 1747 
Q 3713 922 3314 415 
Q 2916 -91 2278 -91 
Q 1894 -91 1617 61 
Q 1341 213 1159 525 
z
M 3116 1747 
Q 3116 2381 2855 2742 
Q 2594 3103 2138 3103 
Q 1681 3103 1420 2742 
Q 1159 2381 1159 1747 
Q 1159 1113 1420 752 
Q 1681 391 2138 391 
Q 2594 391 2855 752 
Q 3116 1113 3116 1747 
z
" transform="scale(0.015625)"/>
     <path id="DejaVuSans-74" d="M 1172 4494 
L 1172 3500 
L 2356 3500 
L 2356 3053 
L 1172 3053 
L 1172 1153 
Q 1172 725 1289 603 
Q 1406 481 1766 481 
L 2356 481 
L 2356 0 
L 1766 0 
Q 1100 0 847 248 
Q 594 497 594 1153 
L 594 3053 
L 172 3053 
L 172 3500 
L 594 3500 
L 594 4494 
L 1172 4494 
z
" transform="scale(0.015625)"/>
     <path id="DejaVuSans-5f" d="M 3263 -1063 
L 3263 -1509 
L -63 -1509 
L -63 -1063 
L 3263 -1063 
z
" transform="scale(0.015625)"/>
     <path id="DejaVuSans-72" d="M 2631 2963 
Q 2534 3019 2420 3045 
Q 2306 3072 2169 3072 
Q 1681 3072 1420 2755 
Q 1159 2438 1159 1844 
L 1159 0 
L 581 0 
L 581 3500 
L 1159 3500 
L 1159 2956 
Q 1341 3275 1631 3429 
Q 1922 3584 2338 3584 
Q 2397 3584 2469 3576 
Q 2541 3569 2628 3553 
L 2631 2963 
z
" transform="scale(0.015625)"/>
     <path id="DejaVuSans-6d" d="M 3328 2828 
Q 3544 3216 3844 3400 
Q 4144 3584 4550 3584 
Q 5097 3584 5394 3201 
Q 5691 2819 5691 2113 
L 5691 0 
L 5113 0 
L 5113 2094 
Q 5113 2597 4934 2840 
Q 4756 3084 4391 3084 
Q 3944 3084 3684 2787 
Q 3425 2491 3425 1978 
L 3425 0 
L 2847 0 
L 2847 2094 
Q 2847 2600 2669 2842 
Q 2491 3084 2119 3084 
Q 1678 3084 1418 2786 
Q 1159 2488 1159 1978 
L 1159 0 
L 581 0 
L 581 3500 
L 1159 3500 
L 1159 2956 
Q 1356 3278 1631 3431 
Q 1906 3584 2284 3584 
Q 2666 3584 2933 3390 
Q 3200 3197 3328 2828 
z
" transform="scale(0.015625)"/>
     <path id="DejaVuSans-76" d="M 191 3500 
L 800 3500 
L 1894 563 
L 2988 3500 
L 3597 3500 
L 2284 0 
L 1503 0 
L 191 3500 
z
" transform="scale(0.015625)"/>
    </defs>
    <use xlink:href="#DejaVuSans-2e"/>
    <use xlink:href="#DejaVuSans-2e" transform="translate(31.787109 0)"/>
    <use xlink:href="#DejaVuSans-2f" transform="translate(63.574219 0)"/>
    <use xlink:href="#DejaVuSans-70" transform="translate(97.265625 0)"/>
    <use xlink:href="#DejaVuSans-6c" transform="translate(160.742188 0)"/>
    <use xlink:href="#DejaVuSans-6f" transform="translate(188.525391 0)"/>
    <use xlink:href="#DejaVuSans-74" transform="translate(249.707031 0)"/>
    <use xlink:href="#DejaVuSans-73" transform="translate(288.916016 0)"/>
    <use xlink:href="#DejaVuSans-2f" transform="translate(341.015625 0)"/>
    <use xlink:href="#DejaVuSans-43" transform="translate(374.707031 0)"/>
    <use xlink:href="#DejaVuSans-5f" transform="translate(444.53125 0)"/>
    <use xlink:href="#DejaVuSans-73" transform="translate(494.53125 0)"/>
    <use xlink:href="#DejaVuSans-63" transform="translate(546.630859 0)"/>
    <use xlink:href="#DejaVuSans-6f" transform="translate(601.611328 0)"/>
    <use xlink:href="#DejaVuSans-72" transform="translate(662.792969 0)"/>
    <use xlink:href="#DejaVuSans-65" transform="translate(701.65625 0)"/>
    <use xlink:href="#DejaVuSans-5f" transform="translate(763.179688 0)"/>
    <use xlink:href="#DejaVuSans-46" transform="translate(813.179688 0)"/>
    <use xlink:href="#DejaVuSans-2e" transform="translate(854.574219 0)"/>
    <use xlink:href="#DejaVuSans-74" transform="translate(886.361328 0)"/>
    <use xlink:href="#DejaVuSans-6d" transform="translate(925.570312 0)"/>
    <use xlink:href="#DejaVuSans-2e" transform="translate(1022.982422 0)"/>
    <use xlink:href="#DejaVuSans-73" transform="translate(1054.769531 0)"/>
    <use xlink:href="#DejaVuSans-76" transform="translate(1106.869141 0)"/>
    <use xlink:href="#DejaVuSans-67" transform="translate(1166.048828 0)"/>
   </g>
  </g>
 </g>
 <defs>
  <clipPath id="p9b017fccaa">
   <rect x="33.73" y="25.44" width="317.28773" height="227.199481"/>
  </clipPath>
  <clipPath id="pe1cfa15364">
   <rect x="403.978076" y="25.44" width="317.28773" height="227.199481"/>
  </clipPath>
 </defs>
</svg>
