<?xml version="1.0" encoding="utf-8" standalone="no"?>
<!DOCTYPE svg PUBLIC "-//W3C//DTD SVG 1.1//EN"
  "http://www.w3.org/Graphics/SVG/1.1/DTD/svg11.dtd">
<svg xmlns:xlink="http://www.w3.org/1999/xlink" width="743.225806pt" height="280.519481pt" viewBox="0 0 743.225806 280.519481" xmlns="http://www.w3.org/2000/svg" version="1.1">
 <metadata>
  <rdf:RDF xmlns:dc="http://purl.org/dc/elements/1.1/" xmlns:cc="http://creativecommons.org/ns#" xmlns:rdf="http://www.w3.org/1999/02/22-rdf-syntax-ns#">
   <cc:Work>
    <dc:type rdf:resource="http://purl.org/dc/dcmitype/StillImage"/>
    <dc:date>2025-05-29T12:14:19.197837</dc:date>
    <dc:format>image/svg+xml</dc:format>
    <dc:creator>
     <cc:Agent>
      <dc:title>Matplotlib v3.10.3, https://matplotlib.org/</dc:title>
     </cc:Agent>
    </dc:creator>
   </cc:Work>
  </rdf:RDF>
 </metadata>
 <defs>
  <style type="text/css">*{stroke-linejoin: round; stroke-linecap: butt}</style>
 </defs>
 <g id="figure_1">
  <g id="patch_1">
   <path d="M 0 280.519481 
L 743.225806 280.519481 
L 743.225806 0 
L 0 0 
z
" style="fill: #ffffff"/>
  </g>
  <g id="axes_1">
   <g id="patch_2">
    <path d="M 33.73 252.639481 
L 358.91523 252.639481 
L 358.91523 25.44 
L 33.73 25.44 
z
" style="fill: #ffffff"/>
   </g>
   <g id="matplotlib.axis_1">
    <g id="xtick_1">
     <g id="line2d_1">
      <defs>
       <path id="m837cdb950b" d="M 0 0 
L 0 3.5 
" style="stroke: #000000; stroke-width: 0.8"/>
      </defs>
      <g>
       <use xlink:href="#m837cdb950b" x="33.73" y="252.639481" style="stroke: #000000; stroke-width: 0.8"/>
      </g>
     </g>
     <g id="text_1">
      <!-- −4 -->
      <g transform="translate(26.358906 267.237918) scale(0.1 -0.1)">
       <defs>
        <path id="DejaVuSans-2212" d="M 678 2272 
L 4684 2272 
L 4684 1741 
L 678 1741 
L 678 2272 
z
" transform="scale(0.015625)"/>
        <path id="DejaVuSans-34" d="M 2419 4116 
L 825 1625 
L 2419 1625 
L 2419 4116 
z
M 2253 4666 
L 3047 4666 
L 3047 1625 
L 3713 1625 
L 3713 1100 
L 3047 1100 
L 3047 0 
L 2419 0 
L 2419 1100 
L 313 1100 
L 313 1709 
L 2253 4666 
z
" transform="scale(0.015625)"/>
       </defs>
       <use xlink:href="#DejaVuSans-2212"/>
       <use xlink:href="#DejaVuSans-34" transform="translate(83.789062 0)"/>
      </g>
     </g>
    </g>
    <g id="xtick_2">
     <g id="line2d_2">
      <g>
       <use xlink:href="#m837cdb950b" x="87.927538" y="252.639481" style="stroke: #000000; stroke-width: 0.8"/>
      </g>
     </g>
     <g id="text_2">
      <!-- −3 -->
      <g transform="translate(80.556445 267.237918) scale(0.1 -0.1)">
       <defs>
        <path id="DejaVuSans-33" d="M 2597 2516 
Q 3050 2419 3304 2112 
Q 3559 1806 3559 1356 
Q 3559 666 3084 287 
Q 2609 -91 1734 -91 
Q 1441 -91 1130 -33 
Q 819 25 488 141 
L 488 750 
Q 750 597 1062 519 
Q 1375 441 1716 441 
Q 2309 441 2620 675 
Q 2931 909 2931 1356 
Q 2931 1769 2642 2001 
Q 2353 2234 1838 2234 
L 1294 2234 
L 1294 2753 
L 1863 2753 
Q 2328 2753 2575 2939 
Q 2822 3125 2822 3475 
Q 2822 3834 2567 4026 
Q 2313 4219 1838 4219 
Q 1578 4219 1281 4162 
Q 984 4106 628 3988 
L 628 4550 
Q 988 4650 1302 4700 
Q 1616 4750 1894 4750 
Q 2613 4750 3031 4423 
Q 3450 4097 3450 3541 
Q 3450 3153 3228 2886 
Q 3006 2619 2597 2516 
z
" transform="scale(0.015625)"/>
       </defs>
       <use xlink:href="#DejaVuSans-2212"/>
       <use xlink:href="#DejaVuSans-33" transform="translate(83.789062 0)"/>
      </g>
     </g>
    </g>
    <g id="xtick_3">
     <g id="line2d_3">
      <g>
       <use xlink:href="#m837cdb950b" x="142.125077" y="252.639481" style="stroke: #000000; stroke-width: 0.8"/>
      </g>
     </g>
     <g id="text_3">
      <!-- −2 -->
      <g transform="translate(134.753983 267.237918) scale(0.1 -0.1)">
       <defs>
        <path id="DejaVuSans-32" d="M 1228 531 
L 3431 531 
L 3431 0 
L 469 0 
L 469 531 
Q 828 903 1448 1529 
Q 2069 2156 2228 2338 
Q 2531 2678 2651 2914 
Q 2772 3150 2772 3378 
Q 2772 3750 2511 3984 
Q 2250 4219 1831 4219 
Q 1534 4219 1204 4116 
Q 875 4013 500 3803 
L 500 4441 
Q 881 4594 1212 4672 
Q 1544 4750 1819 4750 
Q 2544 4750 2975 4387 
Q 3406 4025 3406 3419 
Q 3406 3131 3298 2873 
Q 3191 2616 2906 2266 
Q 2828 2175 2409 1742 
Q 1991 1309 1228 531 
z
" transform="scale(0.015625)"/>
       </defs>
       <use xlink:href="#DejaVuSans-2212"/>
       <use xlink:href="#DejaVuSans-32" transform="translate(83.789062 0)"/>
      </g>
     </g>
    </g>
    <g id="xtick_4">
     <g id="line2d_4">
      <g>
       <use xlink:href="#m837cdb950b" x="196.322615" y="252.639481" style="stroke: #000000; stroke-width: 0.8"/>
      </g>
     </g>
     <g id="text_4">
      <!-- −1 -->
      <g transform="translate(188.951521 267.237918) scale(0.1 -0.1)">
       <defs>
        <path id="DejaVuSans-31" d="M 794 531 
L 1825 531 
L 1825 4091 
L 703 3866 
L 703 4441 
L 1819 4666 
L 2450 4666 
L 2450 531 
L 3481 531 
L 3481 0 
L 794 0 
L 794 531 
z
" transform="scale(0.015625)"/>
       </defs>
       <use xlink:href="#DejaVuSans-2212"/>
       <use xlink:href="#DejaVuSans-31" transform="translate(83.789062 0)"/>
      </g>
     </g>
    </g>
    <g id="xtick_5">
     <g id="line2d_5">
      <g>
       <use xlink:href="#m837cdb950b" x="250.520153" y="252.639481" style="stroke: #000000; stroke-width: 0.8"/>
      </g>
     </g>
     <g id="text_5">
      <!-- 0 -->
      <g transform="translate(247.338903 267.237918) scale(0.1 -0.1)">
       <defs>
        <path id="DejaVuSans-30" d="M 2034 4250 
Q 1547 4250 1301 3770 
Q 1056 3291 1056 2328 
Q 1056 1369 1301 889 
Q 1547 409 2034 409 
Q 2525 409 2770 889 
Q 3016 1369 3016 2328 
Q 3016 3291 2770 3770 
Q 2525 4250 2034 4250 
z
M 2034 4750 
Q 2819 4750 3233 4129 
Q 3647 3509 3647 2328 
Q 3647 1150 3233 529 
Q 2819 -91 2034 -91 
Q 1250 -91 836 529 
Q 422 1150 422 2328 
Q 422 3509 836 4129 
Q 1250 4750 2034 4750 
z
" transform="scale(0.015625)"/>
       </defs>
       <use xlink:href="#DejaVuSans-30"/>
      </g>
     </g>
    </g>
    <g id="xtick_6">
     <g id="line2d_6">
      <g>
       <use xlink:href="#m837cdb950b" x="304.717692" y="252.639481" style="stroke: #000000; stroke-width: 0.8"/>
      </g>
     </g>
     <g id="text_6">
      <!-- 1 -->
      <g transform="translate(301.536442 267.237918) scale(0.1 -0.1)">
       <use xlink:href="#DejaVuSans-31"/>
      </g>
     </g>
    </g>
    <g id="xtick_7">
     <g id="line2d_7">
      <g>
       <use xlink:href="#m837cdb950b" x="358.91523" y="252.639481" style="stroke: #000000; stroke-width: 0.8"/>
      </g>
     </g>
     <g id="text_7">
      <!-- 2 -->
      <g transform="translate(355.73398 267.237918) scale(0.1 -0.1)">
       <use xlink:href="#DejaVuSans-32"/>
      </g>
     </g>
    </g>
   </g>
   <g id="matplotlib.axis_2">
    <g id="ytick_1">
     <g id="line2d_8">
      <defs>
       <path id="m8a7d7abc67" d="M 0 0 
L -3.5 0 
" style="stroke: #000000; stroke-width: 0.8"/>
      </defs>
      <g>
       <use xlink:href="#m8a7d7abc67" x="33.73" y="242.312231" style="stroke: #000000; stroke-width: 0.8"/>
      </g>
     </g>
     <g id="text_8">
      <!-- 0.0 -->
      <g transform="translate(10.826875 246.11145) scale(0.1 -0.1)">
       <defs>
        <path id="DejaVuSans-2e" d="M 684 794 
L 1344 794 
L 1344 0 
L 684 0 
L 684 794 
z
" transform="scale(0.015625)"/>
       </defs>
       <use xlink:href="#DejaVuSans-30"/>
       <use xlink:href="#DejaVuSans-2e" transform="translate(63.623047 0)"/>
       <use xlink:href="#DejaVuSans-30" transform="translate(95.410156 0)"/>
      </g>
     </g>
    </g>
    <g id="ytick_2">
     <g id="line2d_9">
      <g>
       <use xlink:href="#m8a7d7abc67" x="33.73" y="201.003235" style="stroke: #000000; stroke-width: 0.8"/>
      </g>
     </g>
     <g id="text_9">
      <!-- 0.2 -->
      <g transform="translate(10.826875 204.802454) scale(0.1 -0.1)">
       <use xlink:href="#DejaVuSans-30"/>
       <use xlink:href="#DejaVuSans-2e" transform="translate(63.623047 0)"/>
       <use xlink:href="#DejaVuSans-32" transform="translate(95.410156 0)"/>
      </g>
     </g>
    </g>
    <g id="ytick_3">
     <g id="line2d_10">
      <g>
       <use xlink:href="#m8a7d7abc67" x="33.73" y="159.694238" style="stroke: #000000; stroke-width: 0.8"/>
      </g>
     </g>
     <g id="text_10">
      <!-- 0.4 -->
      <g transform="translate(10.826875 163.493457) scale(0.1 -0.1)">
       <use xlink:href="#DejaVuSans-30"/>
       <use xlink:href="#DejaVuSans-2e" transform="translate(63.623047 0)"/>
       <use xlink:href="#DejaVuSans-34" transform="translate(95.410156 0)"/>
      </g>
     </g>
    </g>
    <g id="ytick_4">
     <g id="line2d_11">
      <g>
       <use xlink:href="#m8a7d7abc67" x="33.73" y="118.385242" style="stroke: #000000; stroke-width: 0.8"/>
      </g>
     </g>
     <g id="text_11">
      <!-- 0.6 -->
      <g transform="translate(10.826875 122.184461) scale(0.1 -0.1)">
       <defs>
        <path id="DejaVuSans-36" d="M 2113 2584 
Q 1688 2584 1439 2293 
Q 1191 2003 1191 1497 
Q 1191 994 1439 701 
Q 1688 409 2113 409 
Q 2538 409 2786 701 
Q 3034 994 3034 1497 
Q 3034 2003 2786 2293 
Q 2538 2584 2113 2584 
z
M 3366 4563 
L 3366 3988 
Q 3128 4100 2886 4159 
Q 2644 4219 2406 4219 
Q 1781 4219 1451 3797 
Q 1122 3375 1075 2522 
Q 1259 2794 1537 2939 
Q 1816 3084 2150 3084 
Q 2853 3084 3261 2657 
Q 3669 2231 3669 1497 
Q 3669 778 3244 343 
Q 2819 -91 2113 -91 
Q 1303 -91 875 529 
Q 447 1150 447 2328 
Q 447 3434 972 4092 
Q 1497 4750 2381 4750 
Q 2619 4750 2861 4703 
Q 3103 4656 3366 4563 
z
" transform="scale(0.015625)"/>
       </defs>
       <use xlink:href="#DejaVuSans-30"/>
       <use xlink:href="#DejaVuSans-2e" transform="translate(63.623047 0)"/>
       <use xlink:href="#DejaVuSans-36" transform="translate(95.410156 0)"/>
      </g>
     </g>
    </g>
    <g id="ytick_5">
     <g id="line2d_12">
      <g>
       <use xlink:href="#m8a7d7abc67" x="33.73" y="77.076246" style="stroke: #000000; stroke-width: 0.8"/>
      </g>
     </g>
     <g id="text_12">
      <!-- 0.8 -->
      <g transform="translate(10.826875 80.875464) scale(0.1 -0.1)">
       <defs>
        <path id="DejaVuSans-38" d="M 2034 2216 
Q 1584 2216 1326 1975 
Q 1069 1734 1069 1313 
Q 1069 891 1326 650 
Q 1584 409 2034 409 
Q 2484 409 2743 651 
Q 3003 894 3003 1313 
Q 3003 1734 2745 1975 
Q 2488 2216 2034 2216 
z
M 1403 2484 
Q 997 2584 770 2862 
Q 544 3141 544 3541 
Q 544 4100 942 4425 
Q 1341 4750 2034 4750 
Q 2731 4750 3128 4425 
Q 3525 4100 3525 3541 
Q 3525 3141 3298 2862 
Q 3072 2584 2669 2484 
Q 3125 2378 3379 2068 
Q 3634 1759 3634 1313 
Q 3634 634 3220 271 
Q 2806 -91 2034 -91 
Q 1263 -91 848 271 
Q 434 634 434 1313 
Q 434 1759 690 2068 
Q 947 2378 1403 2484 
z
M 1172 3481 
Q 1172 3119 1398 2916 
Q 1625 2713 2034 2713 
Q 2441 2713 2670 2916 
Q 2900 3119 2900 3481 
Q 2900 3844 2670 4047 
Q 2441 4250 2034 4250 
Q 1625 4250 1398 4047 
Q 1172 3844 1172 3481 
z
" transform="scale(0.015625)"/>
       </defs>
       <use xlink:href="#DejaVuSans-30"/>
       <use xlink:href="#DejaVuSans-2e" transform="translate(63.623047 0)"/>
       <use xlink:href="#DejaVuSans-38" transform="translate(95.410156 0)"/>
      </g>
     </g>
    </g>
    <g id="ytick_6">
     <g id="line2d_13">
      <g>
       <use xlink:href="#m8a7d7abc67" x="33.73" y="35.767249" style="stroke: #000000; stroke-width: 0.8"/>
      </g>
     </g>
     <g id="text_13">
      <!-- 1.0 -->
      <g transform="translate(10.826875 39.566468) scale(0.1 -0.1)">
       <use xlink:href="#DejaVuSans-31"/>
       <use xlink:href="#DejaVuSans-2e" transform="translate(63.623047 0)"/>
       <use xlink:href="#DejaVuSans-30" transform="translate(95.410156 0)"/>
      </g>
     </g>
    </g>
   </g>
   <g id="line2d_14">
    <path d="M 33.73 35.767249 
L 46.845804 35.767249 
L 60.015806 35.767249 
L 73.13161 35.767249 
L 86.301612 35.767249 
L 99.417416 35.767249 
L 112.587418 35.767249 
L 125.703223 35.767249 
L 138.819027 35.767249 
L 151.989029 35.767249 
L 165.104833 35.767249 
L 178.274835 35.767249 
L 191.390639 35.767249 
L 204.533542 102.543243 
L 217.671025 175.8254 
L 230.813928 208.934564 
L 243.951412 225.637855 
L 257.088895 233.550593 
L 270.226378 237.611268 
L 283.369281 239.670521 
L 296.506765 240.790615 
L 309.649668 241.361505 
L 322.765472 241.702924 
L 335.935474 241.936113 
L 349.051278 242.067476 
L 362.22128 242.137019 
L 375.337084 242.204002 
L 388.452889 242.24781 
L 401.62289 242.268423 
L 414.738695 242.27873 
L 427.908696 242.281312 
L 441.024501 242.291618 
L 454.194503 242.299347 
L 467.310307 242.303214 
L 480.426111 242.307078 
L 493.596113 242.309654 
L 506.711917 242.309654 
L 519.881919 242.312231 
L 532.997723 242.312231 
L 546.167725 242.312231 
L 559.283529 242.312231 
L 572.399334 242.312231 
L 585.569336 242.312231 
L 598.68514 242.312231 
L 611.855142 242.312231 
L 624.970946 242.312231 
L 638.140948 242.312231 
L 651.256752 242.312231 
L 664.372556 242.312231 
L 677.542558 242.312231 
L 690.658362 242.312231 
L 703.828364 242.312231 
L 716.944169 242.312231 
L 730.059973 242.312231 
L 743.229975 242.312231 
L 744.225806 242.312231 
" clip-path="url(#pa634da3947)" style="fill: none; stroke-dasharray: 9.6,2.4,1.5,2.4; stroke-dashoffset: 0; stroke: #000000; stroke-width: 1.5"/>
   </g>
   <g id="line2d_15">
    <path d="M 33.73 35.767249 
L 46.845804 35.767249 
L 60.015806 35.767249 
L 73.13161 35.767249 
L 86.301612 35.767249 
L 99.417416 35.767249 
L 112.587418 35.767249 
L 125.703223 35.767249 
L 138.819027 35.767249 
L 151.989029 35.767249 
L 165.104833 35.767249 
L 178.274835 35.767249 
L 191.390639 35.767249 
L 204.533542 103.968406 
L 217.671025 178.593106 
L 230.813928 211.247867 
L 243.951412 226.848209 
L 257.088895 233.965748 
L 270.226378 237.52865 
L 283.369281 239.379293 
L 296.506765 240.478525 
L 309.649668 241.070276 
L 322.765472 241.439992 
L 335.935474 241.675453 
L 349.051278 241.836558 
L 362.22128 241.94045 
L 375.337084 242.015633 
L 388.452889 242.067063 
L 401.62289 242.11432 
L 414.738695 242.150672 
L 427.908696 242.177688 
L 441.024501 242.194418 
L 454.194503 242.213441 
L 467.310307 242.228808 
L 480.426111 242.242998 
L 493.596113 242.253098 
L 506.711917 242.262144 
L 519.881919 242.270902 
L 532.997723 242.277243 
L 546.167725 242.282365 
L 559.283529 242.28569 
L 572.399334 242.288706 
L 585.569336 242.291123 
L 598.68514 242.294431 
L 611.855142 242.294735 
L 624.970946 242.29564 
L 638.140948 242.298052 
L 651.256752 242.300467 
L 664.372556 242.302276 
L 677.542558 242.303784 
L 690.658362 242.30469 
L 703.828364 242.3065 
L 716.944169 242.3065 
L 730.059973 242.308008 
L 743.229975 242.308912 
L 744.225806 242.308958 
" clip-path="url(#pa634da3947)" style="fill: none; stroke: #d2691e; stroke-width: 1.5; stroke-linecap: square"/>
   </g>
   <g id="line2d_16">
    <path d="M 33.73 35.767249 
L 46.845804 35.767249 
L 60.015806 35.767249 
L 73.13161 35.767249 
L 86.301612 35.767249 
L 99.417416 35.767249 
L 112.587418 35.767249 
L 125.703223 35.767249 
L 138.819027 35.767249 
L 151.989029 35.767249 
L 165.104833 35.767249 
L 178.274835 35.767249 
L 191.390639 35.767249 
L 204.533542 102.481281 
L 217.671025 175.78409 
L 230.813928 208.831289 
L 243.951412 225.580023 
L 257.088895 233.51135 
L 270.226378 237.609202 
L 283.369281 239.676717 
L 296.506765 240.788136 
L 309.649668 241.355928 
L 322.765472 241.714697 
L 335.935474 241.939211 
L 349.051278 242.067063 
L 362.22128 242.138011 
L 375.337084 242.203837 
L 388.452889 242.247707 
L 401.62289 242.268361 
L 414.738695 242.278688 
L 427.908696 242.28125 
L 441.024501 242.291583 
L 454.194503 242.299326 
L 467.310307 242.301908 
L 480.426111 242.30707 
L 493.596113 242.30965 
L 506.711917 242.30965 
L 519.881919 242.312231 
L 532.997723 242.312231 
L 546.167725 242.312231 
L 559.283529 242.312231 
L 572.399334 242.312231 
L 585.569336 242.312231 
L 598.68514 242.312231 
L 611.855142 242.312231 
L 624.970946 242.312231 
L 638.140948 242.312231 
L 651.256752 242.312231 
L 664.372556 242.312231 
L 677.542558 242.312231 
L 690.658362 242.312231 
L 703.828364 242.312231 
L 716.944169 242.312231 
L 730.059973 242.312231 
L 743.229975 242.312231 
L 744.225806 242.312231 
" clip-path="url(#pa634da3947)" style="fill: none; stroke: #000000; stroke-width: 1.5; stroke-linecap: square"/>
   </g>
   <g id="line2d_17">
    <path d="M 33.73 35.767249 
L 46.845804 35.767249 
L 60.015806 35.767249 
L 73.13161 35.767249 
L 86.301612 35.767249 
L 99.417416 35.767249 
L 112.587418 35.767249 
L 125.703223 35.767249 
L 138.819027 35.767249 
L 151.989029 35.767249 
L 165.104833 35.767249 
L 178.274835 35.767249 
L 191.390639 35.767249 
L 204.533542 113.944522 
L 217.671025 190.448786 
L 230.813928 219.34443 
L 243.951412 232.325782 
L 257.088895 237.390264 
L 270.226378 239.821299 
L 283.369281 240.979603 
L 296.506765 241.580856 
L 309.649668 241.938385 
L 322.765472 242.126961 
L 335.935474 242.230977 
L 349.051278 242.26673 
L 362.22128 242.282985 
L 375.337084 242.299229 
L 388.452889 242.305729 
L 401.62289 242.312231 
L 414.738695 242.312231 
L 427.908696 242.312231 
L 441.024501 242.312231 
L 454.194503 242.312231 
L 467.310307 242.312231 
L 480.426111 242.312231 
L 493.596113 242.312231 
L 506.711917 242.312231 
L 519.881919 242.312231 
L 532.997723 242.312231 
L 546.167725 242.312231 
L 559.283529 242.312231 
L 572.399334 242.312231 
L 585.569336 242.312231 
L 598.68514 242.312231 
L 611.855142 242.312231 
L 624.970946 242.312231 
L 638.140948 242.312231 
L 651.256752 242.312231 
L 664.372556 242.312231 
L 677.542558 242.312231 
L 690.658362 242.312231 
L 703.828364 242.312231 
L 716.944169 242.312231 
L 730.059973 242.312231 
L 743.229975 242.312231 
L 744.225806 242.312231 
" clip-path="url(#pa634da3947)" style="fill: none; stroke: #00ffff; stroke-width: 1.5; stroke-linecap: square"/>
   </g>
   <g id="line2d_18">
    <path d="M 33.73 35.767249 
L 46.845804 35.767249 
L 60.015806 35.767249 
L 73.13161 35.767249 
L 86.301612 35.767249 
L 99.417416 35.767249 
L 112.587418 35.767249 
L 125.703223 35.767249 
L 138.819027 35.767249 
L 151.989029 35.767249 
L 165.104833 35.767249 
L 178.274835 35.767249 
L 191.390639 35.767249 
L 204.533542 95.562021 
L 217.671025 163.618591 
L 230.813928 199.887891 
L 243.951412 219.158539 
L 257.088895 229.30816 
L 270.226378 235.23187 
L 283.369281 238.301128 
L 296.506765 240.529748 
L 309.649668 241.338578 
L 322.765472 242.01522 
L 335.935474 242.213214 
L 349.051278 242.295728 
L 362.22128 242.312231 
L 375.337084 242.312231 
L 388.452889 242.312231 
L 401.62289 242.312231 
L 414.738695 242.312231 
L 427.908696 242.312231 
L 441.024501 242.312231 
L 454.194503 242.312231 
L 467.310307 242.312231 
L 480.426111 242.312231 
L 493.596113 242.312231 
L 506.711917 242.312231 
L 519.881919 242.312231 
L 532.997723 242.312231 
L 546.167725 242.312231 
L 559.283529 242.312231 
L 572.399334 242.312231 
L 585.569336 242.312231 
L 598.68514 242.312231 
L 611.855142 242.312231 
L 624.970946 242.312231 
L 638.140948 242.312231 
L 651.256752 242.312231 
L 664.372556 242.312231 
L 677.542558 242.312231 
L 690.658362 242.312231 
L 703.828364 242.312231 
L 716.944169 242.312231 
L 730.059973 242.312231 
L 743.229975 242.312231 
L 744.225806 242.312231 
" clip-path="url(#pa634da3947)" style="fill: none; stroke: #0000ff; stroke-width: 1.5; stroke-linecap: square"/>
   </g>
   <g id="line2d_19">
    <path d="M 33.73 35.767249 
L 46.845804 35.767249 
L 60.015806 35.767249 
L 73.13161 35.767249 
L 86.301612 35.767249 
L 99.417416 35.767249 
L 112.587418 35.767249 
L 125.703223 35.767249 
L 138.819027 35.767249 
L 151.989029 35.767249 
L 165.104833 35.767249 
L 178.274835 35.767249 
L 191.390639 35.767249 
L 204.538962 102.481281 
L 217.676445 175.804748 
L 230.813928 208.851944 
L 243.951412 225.829941 
L 257.088895 233.802578 
L 270.231798 237.892169 
L 283.369281 239.895655 
L 296.506765 240.889137 
L 309.649668 241.407564 
L 322.765472 241.702924 
L 335.935474 241.919796 
L 349.051278 242.045788 
L 362.22128 242.130678 
L 375.337084 242.196979 
L 388.452889 242.260802 
L 401.62289 242.271129 
L 414.738695 242.281456 
L 427.908696 242.286826 
L 441.024501 242.302111 
L 454.194503 242.302111 
L 467.310307 242.307171 
L 480.426111 242.312231 
L 493.596113 242.312231 
L 506.711917 242.312231 
L 519.881919 242.312231 
L 532.997723 242.312231 
L 546.167725 242.312231 
L 559.283529 242.312231 
L 572.399334 242.312231 
L 585.569336 242.312231 
L 598.68514 242.312231 
L 611.855142 242.312231 
L 624.970946 242.312231 
L 638.140948 242.312231 
L 651.256752 242.312231 
L 664.372556 242.312231 
L 677.542558 242.312231 
L 690.658362 242.312231 
L 703.828364 242.312231 
L 716.944169 242.312231 
L 730.11417 242.312231 
L 743.229975 242.312231 
L 744.225806 242.312231 
" clip-path="url(#pa634da3947)" style="fill: none; stroke: #ff00ff; stroke-width: 1.5; stroke-linecap: square"/>
   </g>
   <g id="line2d_20">
    <path d="M 33.73 35.767249 
L 46.845804 35.767249 
L 60.015806 35.767249 
L 73.13161 35.767249 
L 86.301612 35.767249 
L 99.417416 35.767249 
L 112.587418 35.767249 
L 125.703223 35.767249 
L 138.819027 35.767249 
L 151.989029 35.767249 
L 165.104833 35.767249 
L 178.274835 35.767249 
L 191.390639 35.767249 
L 204.538962 102.068184 
L 217.676445 174.358933 
L 230.813928 207.612675 
L 243.951412 224.67329 
L 257.088895 232.583963 
L 270.231798 237.334497 
L 283.369281 239.709765 
L 296.506765 240.90566 
L 309.649668 241.405499 
L 322.765472 241.742167 
L 335.935474 241.954909 
L 349.051278 242.119318 
L 362.22128 242.193261 
L 375.337084 242.242626 
L 388.452889 242.300644 
L 401.62289 242.300644 
L 414.738695 242.300644 
L 427.908696 242.300644 
L 441.024501 242.312231 
L 454.194503 242.312231 
L 467.310307 242.312231 
L 480.426111 242.312231 
L 493.596113 242.312231 
L 506.711917 242.312231 
L 519.881919 242.312231 
L 532.997723 242.312231 
L 546.167725 242.312231 
L 559.283529 242.312231 
L 572.399334 242.312231 
L 585.569336 242.312231 
L 598.68514 242.312231 
L 611.855142 242.312231 
L 624.970946 242.312231 
L 638.140948 242.312231 
L 651.256752 242.312231 
L 664.372556 242.312231 
L 677.542558 242.312231 
L 690.658362 242.312231 
L 703.828364 242.312231 
L 716.944169 242.312231 
L 730.11417 242.312231 
L 743.229975 242.312231 
L 744.225806 242.312231 
" clip-path="url(#pa634da3947)" style="fill: none; stroke-dasharray: 5.55,2.4; stroke-dashoffset: 0; stroke: #ff00ff; stroke-width: 1.5"/>
   </g>
   <g id="line2d_21">
    <path d="M 33.73 35.767249 
L 46.845804 35.767249 
L 60.015806 35.767249 
L 73.13161 35.767249 
L 86.301612 35.767249 
L 99.417416 35.767249 
L 112.587418 35.767249 
L 125.703223 35.767249 
L 138.819027 35.767249 
L 151.989029 35.767249 
L 165.104833 35.767249 
L 178.274835 35.767249 
L 191.390639 35.767249 
L 204.538962 104.753271 
L 217.676445 178.489835 
L 230.813928 211.537028 
L 243.951412 227.379029 
L 257.088895 234.339595 
L 270.231798 237.892169 
L 283.369281 239.792383 
L 296.506765 240.748686 
L 309.649668 241.149383 
L 322.765472 241.481921 
L 335.935474 241.82272 
L 349.051278 242.027199 
L 362.22128 242.068508 
L 375.337084 242.200077 
L 388.452889 242.270716 
L 401.62289 242.292155 
L 414.738695 242.292155 
L 427.908696 242.292155 
L 441.024501 242.292155 
L 454.194503 242.312231 
L 467.310307 242.312231 
L 480.426111 242.312231 
L 493.596113 242.312231 
L 506.711917 242.312231 
L 519.881919 242.312231 
L 532.997723 242.312231 
L 546.167725 242.312231 
L 559.283529 242.312231 
L 572.399334 242.312231 
L 585.569336 242.312231 
L 598.68514 242.312231 
L 611.855142 242.312231 
L 624.970946 242.312231 
L 638.140948 242.312231 
L 651.256752 242.312231 
L 664.372556 242.312231 
L 677.542558 242.312231 
L 690.658362 242.312231 
L 703.828364 242.312231 
L 716.944169 242.312231 
L 730.11417 242.312231 
L 743.229975 242.312231 
L 744.225806 242.312231 
" clip-path="url(#pa634da3947)" style="fill: none; stroke-dasharray: 1.5,2.475; stroke-dashoffset: 0; stroke: #ff00ff; stroke-width: 1.5"/>
   </g>
   <g id="line2d_22">
    <path d="M 33.73 35.767249 
L 46.845804 35.767249 
L 60.015806 35.767249 
L 73.13161 35.767249 
L 86.301612 35.767249 
L 99.417416 35.767249 
L 112.587418 35.767249 
L 125.703223 35.767249 
L 138.819027 35.767249 
L 151.989029 35.767249 
L 165.104833 35.767249 
L 178.274835 35.767249 
L 191.390639 35.767249 
L 204.538962 105.785995 
L 217.676445 180.968374 
L 230.813928 212.569755 
L 243.951412 228.143246 
L 257.088895 234.628758 
L 270.231798 238.119368 
L 283.369281 239.771728 
L 296.506765 240.781733 
L 309.649668 241.405499 
L 322.765472 241.793803 
L 335.935474 241.967301 
L 349.051278 242.108372 
L 362.22128 242.161454 
L 375.337084 242.206274 
L 388.452889 242.263074 
L 401.62289 242.274227 
L 414.738695 242.287033 
L 427.908696 242.293271 
L 441.024501 242.305911 
L 454.194503 242.305911 
L 467.310307 242.312231 
L 480.426111 242.312231 
L 493.596113 242.312231 
L 506.711917 242.312231 
L 519.881919 242.312231 
L 532.997723 242.312231 
L 546.167725 242.312231 
L 559.283529 242.312231 
L 572.399334 242.312231 
L 585.569336 242.312231 
L 598.68514 242.312231 
L 611.855142 242.312231 
L 624.970946 242.312231 
L 638.140948 242.312231 
L 651.256752 242.312231 
L 664.372556 242.312231 
L 677.542558 242.312231 
L 690.658362 242.312231 
L 703.828364 242.312231 
L 716.944169 242.312231 
L 730.11417 242.312231 
L 743.229975 242.312231 
L 744.225806 242.312231 
" clip-path="url(#pa634da3947)" style="fill: none; stroke: #ffa500; stroke-width: 1.5; stroke-linecap: square"/>
   </g>
   <g id="line2d_23">
    <path d="M 33.73 35.767249 
L 46.845804 35.767249 
L 60.015806 35.767249 
L 73.13161 35.767249 
L 86.301612 35.767249 
L 99.417416 35.767249 
L 112.587418 35.767249 
L 125.703223 35.767249 
L 138.819027 35.767249 
L 151.989029 35.767249 
L 165.104833 35.767249 
L 178.274835 35.767249 
L 191.390639 35.767249 
L 204.538962 106.612177 
L 217.676445 182.20764 
L 230.813928 215.461385 
L 243.951412 230.250004 
L 257.088895 236.425699 
L 270.231798 239.27602 
L 283.369281 240.614432 
L 296.506765 241.34147 
L 309.649668 241.70912 
L 322.765472 241.992087 
L 335.935474 242.143897 
L 349.051278 242.206687 
L 362.22128 242.227135 
L 375.337084 242.270509 
L 388.452889 242.270509 
L 401.62289 242.312231 
L 414.738695 242.312231 
L 427.908696 242.312231 
L 441.024501 242.312231 
L 454.194503 242.312231 
L 467.310307 242.312231 
L 480.426111 242.312231 
L 493.596113 242.312231 
L 506.711917 242.312231 
L 519.881919 242.312231 
L 532.997723 242.312231 
L 546.167725 242.312231 
L 559.283529 242.312231 
L 572.399334 242.312231 
L 585.569336 242.312231 
L 598.68514 242.312231 
L 611.855142 242.312231 
L 624.970946 242.312231 
L 638.140948 242.312231 
L 651.256752 242.312231 
L 664.372556 242.312231 
L 677.542558 242.312231 
L 690.658362 242.312231 
L 703.828364 242.312231 
L 716.944169 242.312231 
L 730.11417 242.312231 
L 743.229975 242.312231 
L 744.225806 242.312231 
" clip-path="url(#pa634da3947)" style="fill: none; stroke-dasharray: 5.55,2.4; stroke-dashoffset: 0; stroke: #ffa500; stroke-width: 1.5"/>
   </g>
   <g id="line2d_24">
    <path d="M 33.73 35.767249 
L 46.845804 35.767249 
L 60.015806 35.767249 
L 73.13161 35.767249 
L 86.301612 35.767249 
L 99.417416 35.767249 
L 112.587418 35.767249 
L 125.703223 35.767249 
L 138.819027 35.767249 
L 151.989029 35.767249 
L 165.104833 35.767249 
L 178.274835 35.767249 
L 191.390639 35.767249 
L 204.538962 111.982351 
L 217.676445 184.479636 
L 230.813928 214.428658 
L 243.951412 228.184554 
L 257.088895 234.855958 
L 270.231798 238.03675 
L 283.369281 240.1022 
L 296.506765 240.936642 
L 309.649668 241.581062 
L 322.765472 241.77728 
L 335.935474 241.884683 
L 349.051278 241.903272 
L 362.22128 242.010676 
L 375.337084 242.204415 
L 388.452889 242.25791 
L 401.62289 242.25791 
L 414.738695 242.312231 
L 427.908696 242.312231 
L 441.024501 242.312231 
L 454.194503 242.312231 
L 467.310307 242.312231 
L 480.426111 242.312231 
L 493.596113 242.312231 
L 506.711917 242.312231 
L 519.881919 242.312231 
L 532.997723 242.312231 
L 546.167725 242.312231 
L 559.283529 242.312231 
L 572.399334 242.312231 
L 585.569336 242.312231 
L 598.68514 242.312231 
L 611.855142 242.312231 
L 624.970946 242.312231 
L 638.140948 242.312231 
L 651.256752 242.312231 
L 664.372556 242.312231 
L 677.542558 242.312231 
L 690.658362 242.312231 
L 703.828364 242.312231 
L 716.944169 242.312231 
L 730.11417 242.312231 
L 743.229975 242.312231 
L 744.225806 242.312231 
" clip-path="url(#pa634da3947)" style="fill: none; stroke-dasharray: 1.5,2.475; stroke-dashoffset: 0; stroke: #008000; stroke-width: 1.5"/>
   </g>
   <g id="patch_3">
    <path d="M 33.73 252.639481 
L 33.73 25.44 
" style="fill: none; stroke: #000000; stroke-width: 0.8; stroke-linejoin: miter; stroke-linecap: square"/>
   </g>
   <g id="patch_4">
    <path d="M 358.91523 252.639481 
L 358.91523 25.44 
" style="fill: none; stroke: #000000; stroke-width: 0.8; stroke-linejoin: miter; stroke-linecap: square"/>
   </g>
   <g id="patch_5">
    <path d="M 33.73 252.639481 
L 358.91523 252.639481 
" style="fill: none; stroke: #000000; stroke-width: 0.8; stroke-linejoin: miter; stroke-linecap: square"/>
   </g>
   <g id="patch_6">
    <path d="M 33.73 25.44 
L 358.91523 25.44 
" style="fill: none; stroke: #000000; stroke-width: 0.8; stroke-linejoin: miter; stroke-linecap: square"/>
   </g>
   <g id="text_14">
    <!-- Reseek C(score|F) -->
    <g transform="translate(142.377928 19.44) scale(0.12 -0.12)">
     <defs>
      <path id="DejaVuSans-52" d="M 2841 2188 
Q 3044 2119 3236 1894 
Q 3428 1669 3622 1275 
L 4263 0 
L 3584 0 
L 2988 1197 
Q 2756 1666 2539 1819 
Q 2322 1972 1947 1972 
L 1259 1972 
L 1259 0 
L 628 0 
L 628 4666 
L 2053 4666 
Q 2853 4666 3247 4331 
Q 3641 3997 3641 3322 
Q 3641 2881 3436 2590 
Q 3231 2300 2841 2188 
z
M 1259 4147 
L 1259 2491 
L 2053 2491 
Q 2509 2491 2742 2702 
Q 2975 2913 2975 3322 
Q 2975 3731 2742 3939 
Q 2509 4147 2053 4147 
L 1259 4147 
z
" transform="scale(0.015625)"/>
      <path id="DejaVuSans-65" d="M 3597 1894 
L 3597 1613 
L 953 1613 
Q 991 1019 1311 708 
Q 1631 397 2203 397 
Q 2534 397 2845 478 
Q 3156 559 3463 722 
L 3463 178 
Q 3153 47 2828 -22 
Q 2503 -91 2169 -91 
Q 1331 -91 842 396 
Q 353 884 353 1716 
Q 353 2575 817 3079 
Q 1281 3584 2069 3584 
Q 2775 3584 3186 3129 
Q 3597 2675 3597 1894 
z
M 3022 2063 
Q 3016 2534 2758 2815 
Q 2500 3097 2075 3097 
Q 1594 3097 1305 2825 
Q 1016 2553 972 2059 
L 3022 2063 
z
" transform="scale(0.015625)"/>
      <path id="DejaVuSans-73" d="M 2834 3397 
L 2834 2853 
Q 2591 2978 2328 3040 
Q 2066 3103 1784 3103 
Q 1356 3103 1142 2972 
Q 928 2841 928 2578 
Q 928 2378 1081 2264 
Q 1234 2150 1697 2047 
L 1894 2003 
Q 2506 1872 2764 1633 
Q 3022 1394 3022 966 
Q 3022 478 2636 193 
Q 2250 -91 1575 -91 
Q 1294 -91 989 -36 
Q 684 19 347 128 
L 347 722 
Q 666 556 975 473 
Q 1284 391 1588 391 
Q 1994 391 2212 530 
Q 2431 669 2431 922 
Q 2431 1156 2273 1281 
Q 2116 1406 1581 1522 
L 1381 1569 
Q 847 1681 609 1914 
Q 372 2147 372 2553 
Q 372 3047 722 3315 
Q 1072 3584 1716 3584 
Q 2034 3584 2315 3537 
Q 2597 3491 2834 3397 
z
" transform="scale(0.015625)"/>
      <path id="DejaVuSans-6b" d="M 581 4863 
L 1159 4863 
L 1159 1991 
L 2875 3500 
L 3609 3500 
L 1753 1863 
L 3688 0 
L 2938 0 
L 1159 1709 
L 1159 0 
L 581 0 
L 581 4863 
z
" transform="scale(0.015625)"/>
      <path id="DejaVuSans-20" transform="scale(0.015625)"/>
      <path id="DejaVuSans-43" d="M 4122 4306 
L 4122 3641 
Q 3803 3938 3442 4084 
Q 3081 4231 2675 4231 
Q 1875 4231 1450 3742 
Q 1025 3253 1025 2328 
Q 1025 1406 1450 917 
Q 1875 428 2675 428 
Q 3081 428 3442 575 
Q 3803 722 4122 1019 
L 4122 359 
Q 3791 134 3420 21 
Q 3050 -91 2638 -91 
Q 1578 -91 968 557 
Q 359 1206 359 2328 
Q 359 3453 968 4101 
Q 1578 4750 2638 4750 
Q 3056 4750 3426 4639 
Q 3797 4528 4122 4306 
z
" transform="scale(0.015625)"/>
      <path id="DejaVuSans-28" d="M 1984 4856 
Q 1566 4138 1362 3434 
Q 1159 2731 1159 2009 
Q 1159 1288 1364 580 
Q 1569 -128 1984 -844 
L 1484 -844 
Q 1016 -109 783 600 
Q 550 1309 550 2009 
Q 550 2706 781 3412 
Q 1013 4119 1484 4856 
L 1984 4856 
z
" transform="scale(0.015625)"/>
      <path id="DejaVuSans-63" d="M 3122 3366 
L 3122 2828 
Q 2878 2963 2633 3030 
Q 2388 3097 2138 3097 
Q 1578 3097 1268 2742 
Q 959 2388 959 1747 
Q 959 1106 1268 751 
Q 1578 397 2138 397 
Q 2388 397 2633 464 
Q 2878 531 3122 666 
L 3122 134 
Q 2881 22 2623 -34 
Q 2366 -91 2075 -91 
Q 1284 -91 818 406 
Q 353 903 353 1747 
Q 353 2603 823 3093 
Q 1294 3584 2113 3584 
Q 2378 3584 2631 3529 
Q 2884 3475 3122 3366 
z
" transform="scale(0.015625)"/>
      <path id="DejaVuSans-6f" d="M 1959 3097 
Q 1497 3097 1228 2736 
Q 959 2375 959 1747 
Q 959 1119 1226 758 
Q 1494 397 1959 397 
Q 2419 397 2687 759 
Q 2956 1122 2956 1747 
Q 2956 2369 2687 2733 
Q 2419 3097 1959 3097 
z
M 1959 3584 
Q 2709 3584 3137 3096 
Q 3566 2609 3566 1747 
Q 3566 888 3137 398 
Q 2709 -91 1959 -91 
Q 1206 -91 779 398 
Q 353 888 353 1747 
Q 353 2609 779 3096 
Q 1206 3584 1959 3584 
z
" transform="scale(0.015625)"/>
      <path id="DejaVuSans-72" d="M 2631 2963 
Q 2534 3019 2420 3045 
Q 2306 3072 2169 3072 
Q 1681 3072 1420 2755 
Q 1159 2438 1159 1844 
L 1159 0 
L 581 0 
L 581 3500 
L 1159 3500 
L 1159 2956 
Q 1341 3275 1631 3429 
Q 1922 3584 2338 3584 
Q 2397 3584 2469 3576 
Q 2541 3569 2628 3553 
L 2631 2963 
z
" transform="scale(0.015625)"/>
      <path id="DejaVuSans-7c" d="M 1344 4891 
L 1344 -1509 
L 813 -1509 
L 813 4891 
L 1344 4891 
z
" transform="scale(0.015625)"/>
      <path id="DejaVuSans-46" d="M 628 4666 
L 3309 4666 
L 3309 4134 
L 1259 4134 
L 1259 2759 
L 3109 2759 
L 3109 2228 
L 1259 2228 
L 1259 0 
L 628 0 
L 628 4666 
z
" transform="scale(0.015625)"/>
      <path id="DejaVuSans-29" d="M 513 4856 
L 1013 4856 
Q 1481 4119 1714 3412 
Q 1947 2706 1947 2009 
Q 1947 1309 1714 600 
Q 1481 -109 1013 -844 
L 513 -844 
Q 928 -128 1133 580 
Q 1338 1288 1338 2009 
Q 1338 2731 1133 3434 
Q 928 4138 513 4856 
z
" transform="scale(0.015625)"/>
     </defs>
     <use xlink:href="#DejaVuSans-52"/>
     <use xlink:href="#DejaVuSans-65" transform="translate(64.982422 0)"/>
     <use xlink:href="#DejaVuSans-73" transform="translate(126.505859 0)"/>
     <use xlink:href="#DejaVuSans-65" transform="translate(178.605469 0)"/>
     <use xlink:href="#DejaVuSans-65" transform="translate(240.128906 0)"/>
     <use xlink:href="#DejaVuSans-6b" transform="translate(301.652344 0)"/>
     <use xlink:href="#DejaVuSans-20" transform="translate(359.5625 0)"/>
     <use xlink:href="#DejaVuSans-43" transform="translate(391.349609 0)"/>
     <use xlink:href="#DejaVuSans-28" transform="translate(461.173828 0)"/>
     <use xlink:href="#DejaVuSans-73" transform="translate(500.1875 0)"/>
     <use xlink:href="#DejaVuSans-63" transform="translate(552.287109 0)"/>
     <use xlink:href="#DejaVuSans-6f" transform="translate(607.267578 0)"/>
     <use xlink:href="#DejaVuSans-72" transform="translate(668.449219 0)"/>
     <use xlink:href="#DejaVuSans-65" transform="translate(707.3125 0)"/>
     <use xlink:href="#DejaVuSans-7c" transform="translate(768.835938 0)"/>
     <use xlink:href="#DejaVuSans-46" transform="translate(802.527344 0)"/>
     <use xlink:href="#DejaVuSans-29" transform="translate(860.046875 0)"/>
    </g>
   </g>
   <g id="legend_1">
    <g id="patch_7">
     <path d="M 258.126168 194.899375 
L 351.91523 194.899375 
Q 353.91523 194.899375 353.91523 192.899375 
L 353.91523 32.44 
Q 353.91523 30.44 351.91523 30.44 
L 258.126168 30.44 
Q 256.126168 30.44 256.126168 32.44 
L 256.126168 192.899375 
Q 256.126168 194.899375 258.126168 194.899375 
z
" style="fill: #ffffff; opacity: 0.8; stroke: #cccccc; stroke-linejoin: miter"/>
    </g>
    <g id="line2d_25">
     <path d="M 260.126168 38.538437 
L 270.126168 38.538437 
L 280.126168 38.538437 
" style="fill: none; stroke-dasharray: 9.6,2.4,1.5,2.4; stroke-dashoffset: 0; stroke: #000000; stroke-width: 1.5"/>
    </g>
    <g id="text_15">
     <!-- SCOP40x8 -->
     <g transform="translate(288.126168 42.038437) scale(0.1 -0.1)">
      <defs>
       <path id="DejaVuSans-53" d="M 3425 4513 
L 3425 3897 
Q 3066 4069 2747 4153 
Q 2428 4238 2131 4238 
Q 1616 4238 1336 4038 
Q 1056 3838 1056 3469 
Q 1056 3159 1242 3001 
Q 1428 2844 1947 2747 
L 2328 2669 
Q 3034 2534 3370 2195 
Q 3706 1856 3706 1288 
Q 3706 609 3251 259 
Q 2797 -91 1919 -91 
Q 1588 -91 1214 -16 
Q 841 59 441 206 
L 441 856 
Q 825 641 1194 531 
Q 1563 422 1919 422 
Q 2459 422 2753 634 
Q 3047 847 3047 1241 
Q 3047 1584 2836 1778 
Q 2625 1972 2144 2069 
L 1759 2144 
Q 1053 2284 737 2584 
Q 422 2884 422 3419 
Q 422 4038 858 4394 
Q 1294 4750 2059 4750 
Q 2388 4750 2728 4690 
Q 3069 4631 3425 4513 
z
" transform="scale(0.015625)"/>
       <path id="DejaVuSans-4f" d="M 2522 4238 
Q 1834 4238 1429 3725 
Q 1025 3213 1025 2328 
Q 1025 1447 1429 934 
Q 1834 422 2522 422 
Q 3209 422 3611 934 
Q 4013 1447 4013 2328 
Q 4013 3213 3611 3725 
Q 3209 4238 2522 4238 
z
M 2522 4750 
Q 3503 4750 4090 4092 
Q 4678 3434 4678 2328 
Q 4678 1225 4090 567 
Q 3503 -91 2522 -91 
Q 1538 -91 948 565 
Q 359 1222 359 2328 
Q 359 3434 948 4092 
Q 1538 4750 2522 4750 
z
" transform="scale(0.015625)"/>
       <path id="DejaVuSans-50" d="M 1259 4147 
L 1259 2394 
L 2053 2394 
Q 2494 2394 2734 2622 
Q 2975 2850 2975 3272 
Q 2975 3691 2734 3919 
Q 2494 4147 2053 4147 
L 1259 4147 
z
M 628 4666 
L 2053 4666 
Q 2838 4666 3239 4311 
Q 3641 3956 3641 3272 
Q 3641 2581 3239 2228 
Q 2838 1875 2053 1875 
L 1259 1875 
L 1259 0 
L 628 0 
L 628 4666 
z
" transform="scale(0.015625)"/>
       <path id="DejaVuSans-78" d="M 3513 3500 
L 2247 1797 
L 3578 0 
L 2900 0 
L 1881 1375 
L 863 0 
L 184 0 
L 1544 1831 
L 300 3500 
L 978 3500 
L 1906 2253 
L 2834 3500 
L 3513 3500 
z
" transform="scale(0.015625)"/>
      </defs>
      <use xlink:href="#DejaVuSans-53"/>
      <use xlink:href="#DejaVuSans-43" transform="translate(63.476562 0)"/>
      <use xlink:href="#DejaVuSans-4f" transform="translate(133.300781 0)"/>
      <use xlink:href="#DejaVuSans-50" transform="translate(212.011719 0)"/>
      <use xlink:href="#DejaVuSans-34" transform="translate(272.314453 0)"/>
      <use xlink:href="#DejaVuSans-30" transform="translate(335.9375 0)"/>
      <use xlink:href="#DejaVuSans-78" transform="translate(399.560547 0)"/>
      <use xlink:href="#DejaVuSans-38" transform="translate(458.740234 0)"/>
     </g>
    </g>
    <g id="line2d_26">
     <path d="M 260.126168 53.216563 
L 270.126168 53.216563 
L 280.126168 53.216563 
" style="fill: none; stroke: #d2691e; stroke-width: 1.5; stroke-linecap: square"/>
    </g>
    <g id="text_16">
     <!-- CATH40 -->
     <g transform="translate(288.126168 56.716563) scale(0.1 -0.1)">
      <defs>
       <path id="DejaVuSans-41" d="M 2188 4044 
L 1331 1722 
L 3047 1722 
L 2188 4044 
z
M 1831 4666 
L 2547 4666 
L 4325 0 
L 3669 0 
L 3244 1197 
L 1141 1197 
L 716 0 
L 50 0 
L 1831 4666 
z
" transform="scale(0.015625)"/>
       <path id="DejaVuSans-54" d="M -19 4666 
L 3928 4666 
L 3928 4134 
L 2272 4134 
L 2272 0 
L 1638 0 
L 1638 4134 
L -19 4134 
L -19 4666 
z
" transform="scale(0.015625)"/>
       <path id="DejaVuSans-48" d="M 628 4666 
L 1259 4666 
L 1259 2753 
L 3553 2753 
L 3553 4666 
L 4184 4666 
L 4184 0 
L 3553 0 
L 3553 2222 
L 1259 2222 
L 1259 0 
L 628 0 
L 628 4666 
z
" transform="scale(0.015625)"/>
      </defs>
      <use xlink:href="#DejaVuSans-43"/>
      <use xlink:href="#DejaVuSans-41" transform="translate(69.824219 0)"/>
      <use xlink:href="#DejaVuSans-54" transform="translate(130.482422 0)"/>
      <use xlink:href="#DejaVuSans-48" transform="translate(191.566406 0)"/>
      <use xlink:href="#DejaVuSans-34" transform="translate(266.761719 0)"/>
      <use xlink:href="#DejaVuSans-30" transform="translate(330.384766 0)"/>
     </g>
    </g>
    <g id="line2d_27">
     <path d="M 260.126168 67.894688 
L 270.126168 67.894688 
L 280.126168 67.894688 
" style="fill: none; stroke: #000000; stroke-width: 1.5; stroke-linecap: square"/>
    </g>
    <g id="text_17">
     <!-- SCOP40 -->
     <g transform="translate(288.126168 71.394688) scale(0.1 -0.1)">
      <use xlink:href="#DejaVuSans-53"/>
      <use xlink:href="#DejaVuSans-43" transform="translate(63.476562 0)"/>
      <use xlink:href="#DejaVuSans-4f" transform="translate(133.300781 0)"/>
      <use xlink:href="#DejaVuSans-50" transform="translate(212.011719 0)"/>
      <use xlink:href="#DejaVuSans-34" transform="translate(272.314453 0)"/>
      <use xlink:href="#DejaVuSans-30" transform="translate(335.9375 0)"/>
     </g>
    </g>
    <g id="line2d_28">
     <path d="M 260.126168 82.572812 
L 270.126168 82.572812 
L 280.126168 82.572812 
" style="fill: none; stroke: #00ffff; stroke-width: 1.5; stroke-linecap: square"/>
    </g>
    <g id="text_18">
     <!-- SCOP40c -->
     <g transform="translate(288.126168 86.072812) scale(0.1 -0.1)">
      <use xlink:href="#DejaVuSans-53"/>
      <use xlink:href="#DejaVuSans-43" transform="translate(63.476562 0)"/>
      <use xlink:href="#DejaVuSans-4f" transform="translate(133.300781 0)"/>
      <use xlink:href="#DejaVuSans-50" transform="translate(212.011719 0)"/>
      <use xlink:href="#DejaVuSans-34" transform="translate(272.314453 0)"/>
      <use xlink:href="#DejaVuSans-30" transform="translate(335.9375 0)"/>
      <use xlink:href="#DejaVuSans-63" transform="translate(399.560547 0)"/>
     </g>
    </g>
    <g id="line2d_29">
     <path d="M 260.126168 97.250938 
L 270.126168 97.250938 
L 280.126168 97.250938 
" style="fill: none; stroke: #0000ff; stroke-width: 1.5; stroke-linecap: square"/>
    </g>
    <g id="text_19">
     <!-- SCOP95 -->
     <g transform="translate(288.126168 100.750938) scale(0.1 -0.1)">
      <defs>
       <path id="DejaVuSans-39" d="M 703 97 
L 703 672 
Q 941 559 1184 500 
Q 1428 441 1663 441 
Q 2288 441 2617 861 
Q 2947 1281 2994 2138 
Q 2813 1869 2534 1725 
Q 2256 1581 1919 1581 
Q 1219 1581 811 2004 
Q 403 2428 403 3163 
Q 403 3881 828 4315 
Q 1253 4750 1959 4750 
Q 2769 4750 3195 4129 
Q 3622 3509 3622 2328 
Q 3622 1225 3098 567 
Q 2575 -91 1691 -91 
Q 1453 -91 1209 -44 
Q 966 3 703 97 
z
M 1959 2075 
Q 2384 2075 2632 2365 
Q 2881 2656 2881 3163 
Q 2881 3666 2632 3958 
Q 2384 4250 1959 4250 
Q 1534 4250 1286 3958 
Q 1038 3666 1038 3163 
Q 1038 2656 1286 2365 
Q 1534 2075 1959 2075 
z
" transform="scale(0.015625)"/>
       <path id="DejaVuSans-35" d="M 691 4666 
L 3169 4666 
L 3169 4134 
L 1269 4134 
L 1269 2991 
Q 1406 3038 1543 3061 
Q 1681 3084 1819 3084 
Q 2600 3084 3056 2656 
Q 3513 2228 3513 1497 
Q 3513 744 3044 326 
Q 2575 -91 1722 -91 
Q 1428 -91 1123 -41 
Q 819 9 494 109 
L 494 744 
Q 775 591 1075 516 
Q 1375 441 1709 441 
Q 2250 441 2565 725 
Q 2881 1009 2881 1497 
Q 2881 1984 2565 2268 
Q 2250 2553 1709 2553 
Q 1456 2553 1204 2497 
Q 953 2441 691 2322 
L 691 4666 
z
" transform="scale(0.015625)"/>
      </defs>
      <use xlink:href="#DejaVuSans-53"/>
      <use xlink:href="#DejaVuSans-43" transform="translate(63.476562 0)"/>
      <use xlink:href="#DejaVuSans-4f" transform="translate(133.300781 0)"/>
      <use xlink:href="#DejaVuSans-50" transform="translate(212.011719 0)"/>
      <use xlink:href="#DejaVuSans-39" transform="translate(272.314453 0)"/>
      <use xlink:href="#DejaVuSans-35" transform="translate(335.9375 0)"/>
     </g>
    </g>
    <g id="line2d_30">
     <path d="M 260.126168 111.929062 
L 270.126168 111.929062 
L 280.126168 111.929062 
" style="fill: none; stroke: #ff00ff; stroke-width: 1.5; stroke-linecap: square"/>
    </g>
    <g id="text_20">
     <!-- SCOP40/N4 -->
     <g transform="translate(288.126168 115.429062) scale(0.1 -0.1)">
      <defs>
       <path id="DejaVuSans-2f" d="M 1625 4666 
L 2156 4666 
L 531 -594 
L 0 -594 
L 1625 4666 
z
" transform="scale(0.015625)"/>
       <path id="DejaVuSans-4e" d="M 628 4666 
L 1478 4666 
L 3547 763 
L 3547 4666 
L 4159 4666 
L 4159 0 
L 3309 0 
L 1241 3903 
L 1241 0 
L 628 0 
L 628 4666 
z
" transform="scale(0.015625)"/>
      </defs>
      <use xlink:href="#DejaVuSans-53"/>
      <use xlink:href="#DejaVuSans-43" transform="translate(63.476562 0)"/>
      <use xlink:href="#DejaVuSans-4f" transform="translate(133.300781 0)"/>
      <use xlink:href="#DejaVuSans-50" transform="translate(212.011719 0)"/>
      <use xlink:href="#DejaVuSans-34" transform="translate(272.314453 0)"/>
      <use xlink:href="#DejaVuSans-30" transform="translate(335.9375 0)"/>
      <use xlink:href="#DejaVuSans-2f" transform="translate(399.560547 0)"/>
      <use xlink:href="#DejaVuSans-4e" transform="translate(433.251953 0)"/>
      <use xlink:href="#DejaVuSans-34" transform="translate(508.056641 0)"/>
     </g>
    </g>
    <g id="line2d_31">
     <path d="M 260.126168 126.607188 
L 270.126168 126.607188 
L 280.126168 126.607188 
" style="fill: none; stroke-dasharray: 5.55,2.4; stroke-dashoffset: 0; stroke: #ff00ff; stroke-width: 1.5"/>
    </g>
    <g id="text_21">
     <!-- SCOP40/N4 -->
     <g transform="translate(288.126168 130.107188) scale(0.1 -0.1)">
      <use xlink:href="#DejaVuSans-53"/>
      <use xlink:href="#DejaVuSans-43" transform="translate(63.476562 0)"/>
      <use xlink:href="#DejaVuSans-4f" transform="translate(133.300781 0)"/>
      <use xlink:href="#DejaVuSans-50" transform="translate(212.011719 0)"/>
      <use xlink:href="#DejaVuSans-34" transform="translate(272.314453 0)"/>
      <use xlink:href="#DejaVuSans-30" transform="translate(335.9375 0)"/>
      <use xlink:href="#DejaVuSans-2f" transform="translate(399.560547 0)"/>
      <use xlink:href="#DejaVuSans-4e" transform="translate(433.251953 0)"/>
      <use xlink:href="#DejaVuSans-34" transform="translate(508.056641 0)"/>
     </g>
    </g>
    <g id="line2d_32">
     <path d="M 260.126168 141.285312 
L 270.126168 141.285312 
L 280.126168 141.285312 
" style="fill: none; stroke-dasharray: 1.5,2.475; stroke-dashoffset: 0; stroke: #ff00ff; stroke-width: 1.5"/>
    </g>
    <g id="text_22">
     <!-- SCOP40/N8 -->
     <g transform="translate(288.126168 144.785312) scale(0.1 -0.1)">
      <use xlink:href="#DejaVuSans-53"/>
      <use xlink:href="#DejaVuSans-43" transform="translate(63.476562 0)"/>
      <use xlink:href="#DejaVuSans-4f" transform="translate(133.300781 0)"/>
      <use xlink:href="#DejaVuSans-50" transform="translate(212.011719 0)"/>
      <use xlink:href="#DejaVuSans-34" transform="translate(272.314453 0)"/>
      <use xlink:href="#DejaVuSans-30" transform="translate(335.9375 0)"/>
      <use xlink:href="#DejaVuSans-2f" transform="translate(399.560547 0)"/>
      <use xlink:href="#DejaVuSans-4e" transform="translate(433.251953 0)"/>
      <use xlink:href="#DejaVuSans-38" transform="translate(508.056641 0)"/>
     </g>
    </g>
    <g id="line2d_33">
     <path d="M 260.126168 155.963437 
L 270.126168 155.963437 
L 280.126168 155.963437 
" style="fill: none; stroke: #ffa500; stroke-width: 1.5; stroke-linecap: square"/>
    </g>
    <g id="text_23">
     <!-- SCOP40/SF4 -->
     <g transform="translate(288.126168 159.463437) scale(0.1 -0.1)">
      <use xlink:href="#DejaVuSans-53"/>
      <use xlink:href="#DejaVuSans-43" transform="translate(63.476562 0)"/>
      <use xlink:href="#DejaVuSans-4f" transform="translate(133.300781 0)"/>
      <use xlink:href="#DejaVuSans-50" transform="translate(212.011719 0)"/>
      <use xlink:href="#DejaVuSans-34" transform="translate(272.314453 0)"/>
      <use xlink:href="#DejaVuSans-30" transform="translate(335.9375 0)"/>
      <use xlink:href="#DejaVuSans-2f" transform="translate(399.560547 0)"/>
      <use xlink:href="#DejaVuSans-53" transform="translate(433.251953 0)"/>
      <use xlink:href="#DejaVuSans-46" transform="translate(496.728516 0)"/>
      <use xlink:href="#DejaVuSans-34" transform="translate(554.248047 0)"/>
     </g>
    </g>
    <g id="line2d_34">
     <path d="M 260.126168 170.641562 
L 270.126168 170.641562 
L 280.126168 170.641562 
" style="fill: none; stroke-dasharray: 5.55,2.4; stroke-dashoffset: 0; stroke: #ffa500; stroke-width: 1.5"/>
    </g>
    <g id="text_24">
     <!-- SCOP40/SF4 -->
     <g transform="translate(288.126168 174.141562) scale(0.1 -0.1)">
      <use xlink:href="#DejaVuSans-53"/>
      <use xlink:href="#DejaVuSans-43" transform="translate(63.476562 0)"/>
      <use xlink:href="#DejaVuSans-4f" transform="translate(133.300781 0)"/>
      <use xlink:href="#DejaVuSans-50" transform="translate(212.011719 0)"/>
      <use xlink:href="#DejaVuSans-34" transform="translate(272.314453 0)"/>
      <use xlink:href="#DejaVuSans-30" transform="translate(335.9375 0)"/>
      <use xlink:href="#DejaVuSans-2f" transform="translate(399.560547 0)"/>
      <use xlink:href="#DejaVuSans-53" transform="translate(433.251953 0)"/>
      <use xlink:href="#DejaVuSans-46" transform="translate(496.728516 0)"/>
      <use xlink:href="#DejaVuSans-34" transform="translate(554.248047 0)"/>
     </g>
    </g>
    <g id="line2d_35">
     <path d="M 260.126168 185.319687 
L 270.126168 185.319687 
L 280.126168 185.319687 
" style="fill: none; stroke-dasharray: 1.5,2.475; stroke-dashoffset: 0; stroke: #008000; stroke-width: 1.5"/>
    </g>
    <g id="text_25">
     <!-- SCOP40/SF8 -->
     <g transform="translate(288.126168 188.819687) scale(0.1 -0.1)">
      <use xlink:href="#DejaVuSans-53"/>
      <use xlink:href="#DejaVuSans-43" transform="translate(63.476562 0)"/>
      <use xlink:href="#DejaVuSans-4f" transform="translate(133.300781 0)"/>
      <use xlink:href="#DejaVuSans-50" transform="translate(212.011719 0)"/>
      <use xlink:href="#DejaVuSans-34" transform="translate(272.314453 0)"/>
      <use xlink:href="#DejaVuSans-30" transform="translate(335.9375 0)"/>
      <use xlink:href="#DejaVuSans-2f" transform="translate(399.560547 0)"/>
      <use xlink:href="#DejaVuSans-53" transform="translate(433.251953 0)"/>
      <use xlink:href="#DejaVuSans-46" transform="translate(496.728516 0)"/>
      <use xlink:href="#DejaVuSans-38" transform="translate(554.248047 0)"/>
     </g>
    </g>
   </g>
  </g>
  <g id="axes_2">
   <g id="patch_8">
    <path d="M 404.045576 252.639481 
L 729.230806 252.639481 
L 729.230806 25.44 
L 404.045576 25.44 
z
" style="fill: #ffffff"/>
   </g>
   <g id="matplotlib.axis_3">
    <g id="xtick_8">
     <g id="line2d_36">
      <g>
       <use xlink:href="#m837cdb950b" x="404.045576" y="252.639481" style="stroke: #000000; stroke-width: 0.8"/>
      </g>
     </g>
     <g id="text_26">
      <!-- −4 -->
      <g transform="translate(396.674483 267.237918) scale(0.1 -0.1)">
       <use xlink:href="#DejaVuSans-2212"/>
       <use xlink:href="#DejaVuSans-34" transform="translate(83.789062 0)"/>
      </g>
     </g>
    </g>
    <g id="xtick_9">
     <g id="line2d_37">
      <g>
       <use xlink:href="#m837cdb950b" x="458.243115" y="252.639481" style="stroke: #000000; stroke-width: 0.8"/>
      </g>
     </g>
     <g id="text_27">
      <!-- −3 -->
      <g transform="translate(450.872021 267.237918) scale(0.1 -0.1)">
       <use xlink:href="#DejaVuSans-2212"/>
       <use xlink:href="#DejaVuSans-33" transform="translate(83.789062 0)"/>
      </g>
     </g>
    </g>
    <g id="xtick_10">
     <g id="line2d_38">
      <g>
       <use xlink:href="#m837cdb950b" x="512.440653" y="252.639481" style="stroke: #000000; stroke-width: 0.8"/>
      </g>
     </g>
     <g id="text_28">
      <!-- −2 -->
      <g transform="translate(505.069559 267.237918) scale(0.1 -0.1)">
       <use xlink:href="#DejaVuSans-2212"/>
       <use xlink:href="#DejaVuSans-32" transform="translate(83.789062 0)"/>
      </g>
     </g>
    </g>
    <g id="xtick_11">
     <g id="line2d_39">
      <g>
       <use xlink:href="#m837cdb950b" x="566.638191" y="252.639481" style="stroke: #000000; stroke-width: 0.8"/>
      </g>
     </g>
     <g id="text_29">
      <!-- −1 -->
      <g transform="translate(559.267098 267.237918) scale(0.1 -0.1)">
       <use xlink:href="#DejaVuSans-2212"/>
       <use xlink:href="#DejaVuSans-31" transform="translate(83.789062 0)"/>
      </g>
     </g>
    </g>
    <g id="xtick_12">
     <g id="line2d_40">
      <g>
       <use xlink:href="#m837cdb950b" x="620.83573" y="252.639481" style="stroke: #000000; stroke-width: 0.8"/>
      </g>
     </g>
     <g id="text_30">
      <!-- 0 -->
      <g transform="translate(617.65448 267.237918) scale(0.1 -0.1)">
       <use xlink:href="#DejaVuSans-30"/>
      </g>
     </g>
    </g>
    <g id="xtick_13">
     <g id="line2d_41">
      <g>
       <use xlink:href="#m837cdb950b" x="675.033268" y="252.639481" style="stroke: #000000; stroke-width: 0.8"/>
      </g>
     </g>
     <g id="text_31">
      <!-- 1 -->
      <g transform="translate(671.852018 267.237918) scale(0.1 -0.1)">
       <use xlink:href="#DejaVuSans-31"/>
      </g>
     </g>
    </g>
    <g id="xtick_14">
     <g id="line2d_42">
      <g>
       <use xlink:href="#m837cdb950b" x="729.230806" y="252.639481" style="stroke: #000000; stroke-width: 0.8"/>
      </g>
     </g>
     <g id="text_32">
      <!-- 2 -->
      <g transform="translate(726.049556 267.237918) scale(0.1 -0.1)">
       <use xlink:href="#DejaVuSans-32"/>
      </g>
     </g>
    </g>
   </g>
   <g id="matplotlib.axis_4">
    <g id="ytick_7">
     <g id="line2d_43">
      <g>
       <use xlink:href="#m8a7d7abc67" x="404.045576" y="252.639481" style="stroke: #000000; stroke-width: 0.8"/>
      </g>
     </g>
     <g id="text_33">
      <!-- $\mathdefault{10^{-4}}$ -->
      <g transform="translate(373.545576 256.438699) scale(0.1 -0.1)">
       <use xlink:href="#DejaVuSans-31" transform="translate(0 0.684375)"/>
       <use xlink:href="#DejaVuSans-30" transform="translate(63.623047 0.684375)"/>
       <use xlink:href="#DejaVuSans-2212" transform="translate(128.203125 38.965625) scale(0.7)"/>
       <use xlink:href="#DejaVuSans-34" transform="translate(186.855469 38.965625) scale(0.7)"/>
      </g>
     </g>
    </g>
    <g id="ytick_8">
     <g id="line2d_44">
      <g>
       <use xlink:href="#m8a7d7abc67" x="404.045576" y="195.83961" style="stroke: #000000; stroke-width: 0.8"/>
      </g>
     </g>
     <g id="text_34">
      <!-- $\mathdefault{10^{-3}}$ -->
      <g transform="translate(373.545576 199.638829) scale(0.1 -0.1)">
       <use xlink:href="#DejaVuSans-31" transform="translate(0 0.765625)"/>
       <use xlink:href="#DejaVuSans-30" transform="translate(63.623047 0.765625)"/>
       <use xlink:href="#DejaVuSans-2212" transform="translate(128.203125 39.046875) scale(0.7)"/>
       <use xlink:href="#DejaVuSans-33" transform="translate(186.855469 39.046875) scale(0.7)"/>
      </g>
     </g>
    </g>
    <g id="ytick_9">
     <g id="line2d_45">
      <g>
       <use xlink:href="#m8a7d7abc67" x="404.045576" y="139.03974" style="stroke: #000000; stroke-width: 0.8"/>
      </g>
     </g>
     <g id="text_35">
      <!-- $\mathdefault{10^{-2}}$ -->
      <g transform="translate(373.545576 142.838959) scale(0.1 -0.1)">
       <use xlink:href="#DejaVuSans-31" transform="translate(0 0.765625)"/>
       <use xlink:href="#DejaVuSans-30" transform="translate(63.623047 0.765625)"/>
       <use xlink:href="#DejaVuSans-2212" transform="translate(128.203125 39.046875) scale(0.7)"/>
       <use xlink:href="#DejaVuSans-32" transform="translate(186.855469 39.046875) scale(0.7)"/>
      </g>
     </g>
    </g>
    <g id="ytick_10">
     <g id="line2d_46">
      <g>
       <use xlink:href="#m8a7d7abc67" x="404.045576" y="82.23987" style="stroke: #000000; stroke-width: 0.8"/>
      </g>
     </g>
     <g id="text_36">
      <!-- $\mathdefault{10^{-1}}$ -->
      <g transform="translate(373.545576 86.039089) scale(0.1 -0.1)">
       <use xlink:href="#DejaVuSans-31" transform="translate(0 0.684375)"/>
       <use xlink:href="#DejaVuSans-30" transform="translate(63.623047 0.684375)"/>
       <use xlink:href="#DejaVuSans-2212" transform="translate(128.203125 38.965625) scale(0.7)"/>
       <use xlink:href="#DejaVuSans-31" transform="translate(186.855469 38.965625) scale(0.7)"/>
      </g>
     </g>
    </g>
    <g id="ytick_11">
     <g id="line2d_47">
      <g>
       <use xlink:href="#m8a7d7abc67" x="404.045576" y="25.44" style="stroke: #000000; stroke-width: 0.8"/>
      </g>
     </g>
     <g id="text_37">
      <!-- $\mathdefault{10^{0}}$ -->
      <g transform="translate(379.445576 29.239219) scale(0.1 -0.1)">
       <use xlink:href="#DejaVuSans-31" transform="translate(0 0.765625)"/>
       <use xlink:href="#DejaVuSans-30" transform="translate(63.623047 0.765625)"/>
       <use xlink:href="#DejaVuSans-30" transform="translate(128.203125 39.046875) scale(0.7)"/>
      </g>
     </g>
    </g>
    <g id="ytick_12">
     <g id="line2d_48">
      <defs>
       <path id="m89e0780ed4" d="M 0 0 
L -2 0 
" style="stroke: #000000; stroke-width: 0.6"/>
      </defs>
      <g>
       <use xlink:href="#m89e0780ed4" x="404.045576" y="235.541016" style="stroke: #000000; stroke-width: 0.6"/>
      </g>
     </g>
    </g>
    <g id="ytick_13">
     <g id="line2d_49">
      <g>
       <use xlink:href="#m89e0780ed4" x="404.045576" y="225.539055" style="stroke: #000000; stroke-width: 0.6"/>
      </g>
     </g>
    </g>
    <g id="ytick_14">
     <g id="line2d_50">
      <g>
       <use xlink:href="#m89e0780ed4" x="404.045576" y="218.442551" style="stroke: #000000; stroke-width: 0.6"/>
      </g>
     </g>
    </g>
    <g id="ytick_15">
     <g id="line2d_51">
      <g>
       <use xlink:href="#m89e0780ed4" x="404.045576" y="212.938075" style="stroke: #000000; stroke-width: 0.6"/>
      </g>
     </g>
    </g>
    <g id="ytick_16">
     <g id="line2d_52">
      <g>
       <use xlink:href="#m89e0780ed4" x="404.045576" y="208.440591" style="stroke: #000000; stroke-width: 0.6"/>
      </g>
     </g>
    </g>
    <g id="ytick_17">
     <g id="line2d_53">
      <g>
       <use xlink:href="#m89e0780ed4" x="404.045576" y="204.638022" style="stroke: #000000; stroke-width: 0.6"/>
      </g>
     </g>
    </g>
    <g id="ytick_18">
     <g id="line2d_54">
      <g>
       <use xlink:href="#m89e0780ed4" x="404.045576" y="201.344087" style="stroke: #000000; stroke-width: 0.6"/>
      </g>
     </g>
    </g>
    <g id="ytick_19">
     <g id="line2d_55">
      <g>
       <use xlink:href="#m89e0780ed4" x="404.045576" y="198.43863" style="stroke: #000000; stroke-width: 0.6"/>
      </g>
     </g>
    </g>
    <g id="ytick_20">
     <g id="line2d_56">
      <g>
       <use xlink:href="#m89e0780ed4" x="404.045576" y="178.741146" style="stroke: #000000; stroke-width: 0.6"/>
      </g>
     </g>
    </g>
    <g id="ytick_21">
     <g id="line2d_57">
      <g>
       <use xlink:href="#m89e0780ed4" x="404.045576" y="168.739185" style="stroke: #000000; stroke-width: 0.6"/>
      </g>
     </g>
    </g>
    <g id="ytick_22">
     <g id="line2d_58">
      <g>
       <use xlink:href="#m89e0780ed4" x="404.045576" y="161.642681" style="stroke: #000000; stroke-width: 0.6"/>
      </g>
     </g>
    </g>
    <g id="ytick_23">
     <g id="line2d_59">
      <g>
       <use xlink:href="#m89e0780ed4" x="404.045576" y="156.138205" style="stroke: #000000; stroke-width: 0.6"/>
      </g>
     </g>
    </g>
    <g id="ytick_24">
     <g id="line2d_60">
      <g>
       <use xlink:href="#m89e0780ed4" x="404.045576" y="151.64072" style="stroke: #000000; stroke-width: 0.6"/>
      </g>
     </g>
    </g>
    <g id="ytick_25">
     <g id="line2d_61">
      <g>
       <use xlink:href="#m89e0780ed4" x="404.045576" y="147.838151" style="stroke: #000000; stroke-width: 0.6"/>
      </g>
     </g>
    </g>
    <g id="ytick_26">
     <g id="line2d_62">
      <g>
       <use xlink:href="#m89e0780ed4" x="404.045576" y="144.544216" style="stroke: #000000; stroke-width: 0.6"/>
      </g>
     </g>
    </g>
    <g id="ytick_27">
     <g id="line2d_63">
      <g>
       <use xlink:href="#m89e0780ed4" x="404.045576" y="141.63876" style="stroke: #000000; stroke-width: 0.6"/>
      </g>
     </g>
    </g>
    <g id="ytick_28">
     <g id="line2d_64">
      <g>
       <use xlink:href="#m89e0780ed4" x="404.045576" y="121.941276" style="stroke: #000000; stroke-width: 0.6"/>
      </g>
     </g>
    </g>
    <g id="ytick_29">
     <g id="line2d_65">
      <g>
       <use xlink:href="#m89e0780ed4" x="404.045576" y="111.939315" style="stroke: #000000; stroke-width: 0.6"/>
      </g>
     </g>
    </g>
    <g id="ytick_30">
     <g id="line2d_66">
      <g>
       <use xlink:href="#m89e0780ed4" x="404.045576" y="104.842811" style="stroke: #000000; stroke-width: 0.6"/>
      </g>
     </g>
    </g>
    <g id="ytick_31">
     <g id="line2d_67">
      <g>
       <use xlink:href="#m89e0780ed4" x="404.045576" y="99.338335" style="stroke: #000000; stroke-width: 0.6"/>
      </g>
     </g>
    </g>
    <g id="ytick_32">
     <g id="line2d_68">
      <g>
       <use xlink:href="#m89e0780ed4" x="404.045576" y="94.84085" style="stroke: #000000; stroke-width: 0.6"/>
      </g>
     </g>
    </g>
    <g id="ytick_33">
     <g id="line2d_69">
      <g>
       <use xlink:href="#m89e0780ed4" x="404.045576" y="91.038281" style="stroke: #000000; stroke-width: 0.6"/>
      </g>
     </g>
    </g>
    <g id="ytick_34">
     <g id="line2d_70">
      <g>
       <use xlink:href="#m89e0780ed4" x="404.045576" y="87.744346" style="stroke: #000000; stroke-width: 0.6"/>
      </g>
     </g>
    </g>
    <g id="ytick_35">
     <g id="line2d_71">
      <g>
       <use xlink:href="#m89e0780ed4" x="404.045576" y="84.83889" style="stroke: #000000; stroke-width: 0.6"/>
      </g>
     </g>
    </g>
    <g id="ytick_36">
     <g id="line2d_72">
      <g>
       <use xlink:href="#m89e0780ed4" x="404.045576" y="65.141405" style="stroke: #000000; stroke-width: 0.6"/>
      </g>
     </g>
    </g>
    <g id="ytick_37">
     <g id="line2d_73">
      <g>
       <use xlink:href="#m89e0780ed4" x="404.045576" y="55.139445" style="stroke: #000000; stroke-width: 0.6"/>
      </g>
     </g>
    </g>
    <g id="ytick_38">
     <g id="line2d_74">
      <g>
       <use xlink:href="#m89e0780ed4" x="404.045576" y="48.042941" style="stroke: #000000; stroke-width: 0.6"/>
      </g>
     </g>
    </g>
    <g id="ytick_39">
     <g id="line2d_75">
      <g>
       <use xlink:href="#m89e0780ed4" x="404.045576" y="42.538465" style="stroke: #000000; stroke-width: 0.6"/>
      </g>
     </g>
    </g>
    <g id="ytick_40">
     <g id="line2d_76">
      <g>
       <use xlink:href="#m89e0780ed4" x="404.045576" y="38.04098" style="stroke: #000000; stroke-width: 0.6"/>
      </g>
     </g>
    </g>
    <g id="ytick_41">
     <g id="line2d_77">
      <g>
       <use xlink:href="#m89e0780ed4" x="404.045576" y="34.238411" style="stroke: #000000; stroke-width: 0.6"/>
      </g>
     </g>
    </g>
    <g id="ytick_42">
     <g id="line2d_78">
      <g>
       <use xlink:href="#m89e0780ed4" x="404.045576" y="30.944476" style="stroke: #000000; stroke-width: 0.6"/>
      </g>
     </g>
    </g>
    <g id="ytick_43">
     <g id="line2d_79">
      <g>
       <use xlink:href="#m89e0780ed4" x="404.045576" y="28.03902" style="stroke: #000000; stroke-width: 0.6"/>
      </g>
     </g>
    </g>
   </g>
   <g id="line2d_80">
    <path d="M 404.045576 25.44 
L 417.161381 25.44 
L 430.331382 25.44 
L 443.447187 25.44 
L 456.617189 25.44 
L 469.732993 25.44 
L 482.902995 25.44 
L 496.018799 25.44 
L 509.134603 25.44 
L 522.304605 25.44 
L 535.420409 25.44 
L 548.590411 25.44 
L 561.706215 25.44 
L 574.849118 35.073475 
L 587.986602 53.401384 
L 601.129505 70.400429 
L 614.266988 87.520273 
L 627.404471 103.393808 
L 640.541955 118.752402 
L 653.684858 132.969507 
L 666.822341 146.577613 
L 679.965244 158.17897 
L 693.081048 169.15378 
L 706.25105 181.054039 
L 719.366854 191.652419 
L 732.536856 199.897991 
L 744.225806 210.488758 
" clip-path="url(#pc0a291c75c)" style="fill: none; stroke-dasharray: 9.6,2.4,1.5,2.4; stroke-dashoffset: 0; stroke: #000000; stroke-width: 1.5"/>
   </g>
   <g id="line2d_81">
    <path d="M 404.045576 25.44 
L 417.161381 25.44 
L 430.331382 25.44 
L 443.447187 25.44 
L 456.617189 25.44 
L 469.732993 25.44 
L 482.902995 25.44 
L 496.018799 25.44 
L 509.134603 25.44 
L 522.304605 25.44 
L 535.420409 25.44 
L 548.590411 25.44 
L 561.706215 25.44 
L 574.849118 35.326294 
L 587.986602 54.450241 
L 601.129505 72.172216 
L 614.266988 89.37917 
L 627.404471 104.591252 
L 640.541955 118.322638 
L 653.684858 130.389782 
L 666.822341 141.975433 
L 679.965244 151.587332 
L 693.081048 160.304415 
L 706.25105 168.065978 
L 719.366854 175.261361 
L 732.536856 181.340166 
L 744.225806 186.306968 
" clip-path="url(#pc0a291c75c)" style="fill: none; stroke: #d2691e; stroke-width: 1.5; stroke-linecap: square"/>
   </g>
   <g id="line2d_82">
    <path d="M 404.045576 25.44 
L 417.161381 25.44 
L 430.331382 25.44 
L 443.447187 25.44 
L 456.617189 25.44 
L 469.732993 25.44 
L 482.902995 25.44 
L 496.018799 25.44 
L 509.134603 25.44 
L 522.304605 25.44 
L 535.420409 25.44 
L 548.590411 25.44 
L 561.706215 25.44 
L 574.849118 35.062542 
L 587.986602 53.386062 
L 601.129505 70.324222 
L 614.266988 87.434864 
L 627.404471 103.283566 
L 640.541955 118.741566 
L 653.684858 133.027435 
L 666.822341 146.537464 
L 679.965244 158.034697 
L 693.081048 169.63508 
L 706.25105 181.258076 
L 719.366854 191.61082 
L 732.536856 200.037967 
L 744.225806 210.470447 
" clip-path="url(#pc0a291c75c)" style="fill: none; stroke: #000000; stroke-width: 1.5; stroke-linecap: square"/>
   </g>
   <g id="line2d_83">
    <path d="M 404.045576 25.44 
L 417.161381 25.44 
L 430.331382 25.44 
L 443.447187 25.44 
L 456.617189 25.44 
L 469.732993 25.44 
L 482.902995 25.44 
L 496.018799 25.44 
L 509.134603 25.44 
L 522.304605 25.44 
L 535.420409 25.44 
L 548.590411 25.44 
L 561.706215 25.44 
L 574.849118 37.172516 
L 587.986602 59.528628 
L 601.129505 79.621125 
L 614.266988 100.16611 
L 627.404471 117.619143 
L 640.541955 134.419224 
L 653.684858 149.849077 
L 666.822341 164.649329 
L 679.965244 181.2035 
L 693.081048 198.520993 
L 706.25105 218.852967 
L 719.366854 233.156301 
L 732.536856 244.059107 
L 744.225806 261.881003 
" clip-path="url(#pc0a291c75c)" style="fill: none; stroke: #00ffff; stroke-width: 1.5; stroke-linecap: square"/>
   </g>
   <g id="line2d_84">
    <path d="M 404.045576 25.44 
L 417.161381 25.44 
L 430.331382 25.44 
L 443.447187 25.44 
L 456.617189 25.44 
L 469.732993 25.44 
L 482.902995 25.44 
L 496.018799 25.44 
L 509.134603 25.44 
L 522.304605 25.44 
L 535.420409 25.44 
L 548.590411 25.44 
L 561.706215 25.44 
L 574.849118 33.871141 
L 587.986602 49.243406 
L 601.129505 64.484205 
L 614.266988 79.422278 
L 627.404471 93.652968 
L 640.541955 108.649493 
L 653.684858 122.667222 
L 666.822341 142.674319 
L 679.965244 157.59117 
L 693.081048 186.878926 
L 706.25105 213.97592 
L 719.366854 258.174812 
L 719.37229 281.519481 
" clip-path="url(#pc0a291c75c)" style="fill: none; stroke: #0000ff; stroke-width: 1.5; stroke-linecap: square"/>
   </g>
   <g id="line2d_85">
    <path d="M 404.045576 25.44 
L 417.161381 25.44 
L 430.331382 25.44 
L 443.447187 25.44 
L 456.617189 25.44 
L 469.732993 25.44 
L 482.902995 25.44 
L 496.018799 25.44 
L 509.134603 25.44 
L 522.304605 25.44 
L 535.420409 25.44 
L 548.590411 25.44 
L 561.706215 25.44 
L 574.854538 35.062542 
L 587.992021 53.393723 
L 601.129505 70.339444 
L 614.266988 87.806092 
L 627.404471 104.113658 
L 640.547374 120.27228 
L 653.684858 135.166793 
L 666.822341 148.228868 
L 679.965244 159.403965 
L 693.081048 169.15378 
L 706.25105 180.006442 
L 719.366854 189.558128 
L 732.536856 199.021035 
L 744.225806 209.011262 
" clip-path="url(#pc0a291c75c)" style="fill: none; stroke: #ff00ff; stroke-width: 1.5; stroke-linecap: square"/>
   </g>
   <g id="line2d_86">
    <path d="M 404.045576 25.44 
L 417.161381 25.44 
L 430.331382 25.44 
L 443.447187 25.44 
L 456.617189 25.44 
L 469.732993 25.44 
L 482.902995 25.44 
L 496.018799 25.44 
L 509.134603 25.44 
L 522.304605 25.44 
L 535.420409 25.44 
L 548.590411 25.44 
L 561.706215 25.44 
L 574.854538 34.989774 
L 587.992021 52.863211 
L 601.129505 69.442333 
L 614.266988 86.133054 
L 627.404471 100.81224 
L 640.547374 117.341222 
L 653.684858 133.338706 
L 666.822341 148.516962 
L 679.965244 159.34771 
L 693.081048 170.796031 
L 706.25105 182.318622 
L 719.366854 197.523904 
L 732.536856 209.447581 
L 744.225806 221.231699 
" clip-path="url(#pc0a291c75c)" style="fill: none; stroke-dasharray: 5.55,2.4; stroke-dashoffset: 0; stroke: #ff00ff; stroke-width: 1.5"/>
   </g>
   <g id="line2d_87">
    <path d="M 404.045576 25.44 
L 417.161381 25.44 
L 430.331382 25.44 
L 443.447187 25.44 
L 456.617189 25.44 
L 469.732993 25.44 
L 482.902995 25.44 
L 496.018799 25.44 
L 509.134603 25.44 
L 522.304605 25.44 
L 535.420409 25.44 
L 548.590411 25.44 
L 561.706215 25.44 
L 574.854538 35.466641 
L 587.992021 54.410293 
L 601.129505 72.402912 
L 614.266988 90.240796 
L 627.404471 105.721657 
L 640.547374 120.27228 
L 653.684858 134.134514 
L 666.822341 145.907079 
L 679.965244 153.210831 
L 693.081048 161.51965 
L 706.25105 174.553954 
L 719.366854 187.894496 
L 732.536856 191.756721 
L 744.225806 208.820049 
" clip-path="url(#pc0a291c75c)" style="fill: none; stroke-dasharray: 1.5,2.475; stroke-dashoffset: 0; stroke: #ff00ff; stroke-width: 1.5"/>
   </g>
   <g id="line2d_88">
    <path d="M 404.045576 25.44 
L 417.161381 25.44 
L 430.331382 25.44 
L 443.447187 25.44 
L 456.617189 25.44 
L 469.732993 25.44 
L 482.902995 25.44 
L 496.018799 25.44 
L 509.134603 25.44 
L 522.304605 25.44 
L 535.420409 25.44 
L 548.590411 25.44 
L 561.706215 25.44 
L 574.854538 35.652533 
L 587.992021 55.387366 
L 601.129505 73.244902 
L 614.266988 91.536639 
L 627.404471 106.632975 
L 640.547374 121.574004 
L 653.684858 133.933142 
L 666.822341 146.434049 
L 679.965244 159.34771 
L 693.081048 173.138195 
L 706.25105 183.189343 
L 719.366854 196.162397 
L 732.536856 203.602853 
L 744.225806 211.358219 
" clip-path="url(#pc0a291c75c)" style="fill: none; stroke: #ffa500; stroke-width: 1.5; stroke-linecap: square"/>
   </g>
   <g id="line2d_89">
    <path d="M 404.045576 25.44 
L 417.161381 25.44 
L 430.331382 25.44 
L 443.447187 25.44 
L 456.617189 25.44 
L 469.732993 25.44 
L 482.902995 25.44 
L 496.018799 25.44 
L 509.134603 25.44 
L 522.304605 25.44 
L 535.420409 25.44 
L 548.590411 25.44 
L 561.706215 25.44 
L 574.854538 35.802263 
L 587.992021 55.890808 
L 601.129505 75.767903 
L 614.266988 95.507589 
L 627.404471 113.204611 
L 640.547374 129.536137 
L 653.684858 143.875009 
L 666.822341 157.66454 
L 679.965244 169.405924 
L 693.081048 185.028794 
L 706.25105 200.885847 
L 719.366854 212.401266 
L 732.536856 217.713399 
L 744.225806 233.382818 
" clip-path="url(#pc0a291c75c)" style="fill: none; stroke-dasharray: 5.55,2.4; stroke-dashoffset: 0; stroke: #ffa500; stroke-width: 1.5"/>
   </g>
   <g id="line2d_90">
    <path d="M 404.045576 25.44 
L 417.161381 25.44 
L 430.331382 25.44 
L 443.447187 25.44 
L 456.617189 25.44 
L 469.732993 25.44 
L 482.902995 25.44 
L 496.018799 25.44 
L 509.134603 25.44 
L 522.304605 25.44 
L 535.420409 25.44 
L 548.590411 25.44 
L 561.706215 25.44 
L 574.854538 36.798307 
L 587.992021 56.841352 
L 601.129505 74.836928 
L 614.266988 91.608661 
L 627.404471 107.373403 
L 640.547374 121.092665 
L 653.684858 137.370744 
L 666.822341 149.066381 
L 679.965244 164.656297 
L 693.081048 172.364238 
L 706.25105 177.892537 
L 719.366854 178.989067 
L 732.536856 186.504389 
L 744.225806 209.11575 
" clip-path="url(#pc0a291c75c)" style="fill: none; stroke-dasharray: 1.5,2.475; stroke-dashoffset: 0; stroke: #008000; stroke-width: 1.5"/>
   </g>
   <g id="patch_9">
    <path d="M 404.045576 252.639481 
L 404.045576 25.44 
" style="fill: none; stroke: #000000; stroke-width: 0.8; stroke-linejoin: miter; stroke-linecap: square"/>
   </g>
   <g id="patch_10">
    <path d="M 729.230806 252.639481 
L 729.230806 25.44 
" style="fill: none; stroke: #000000; stroke-width: 0.8; stroke-linejoin: miter; stroke-linecap: square"/>
   </g>
   <g id="patch_11">
    <path d="M 404.045576 252.639481 
L 729.230806 252.639481 
" style="fill: none; stroke: #000000; stroke-width: 0.8; stroke-linejoin: miter; stroke-linecap: square"/>
   </g>
   <g id="patch_12">
    <path d="M 404.045576 25.44 
L 729.230806 25.44 
" style="fill: none; stroke: #000000; stroke-width: 0.8; stroke-linejoin: miter; stroke-linecap: square"/>
   </g>
   <g id="text_38">
    <!-- Reseek C(score|F) (logscale) -->
    <g transform="translate(481.497254 19.44) scale(0.12 -0.12)">
     <defs>
      <path id="DejaVuSans-6c" d="M 603 4863 
L 1178 4863 
L 1178 0 
L 603 0 
L 603 4863 
z
" transform="scale(0.015625)"/>
      <path id="DejaVuSans-67" d="M 2906 1791 
Q 2906 2416 2648 2759 
Q 2391 3103 1925 3103 
Q 1463 3103 1205 2759 
Q 947 2416 947 1791 
Q 947 1169 1205 825 
Q 1463 481 1925 481 
Q 2391 481 2648 825 
Q 2906 1169 2906 1791 
z
M 3481 434 
Q 3481 -459 3084 -895 
Q 2688 -1331 1869 -1331 
Q 1566 -1331 1297 -1286 
Q 1028 -1241 775 -1147 
L 775 -588 
Q 1028 -725 1275 -790 
Q 1522 -856 1778 -856 
Q 2344 -856 2625 -561 
Q 2906 -266 2906 331 
L 2906 616 
Q 2728 306 2450 153 
Q 2172 0 1784 0 
Q 1141 0 747 490 
Q 353 981 353 1791 
Q 353 2603 747 3093 
Q 1141 3584 1784 3584 
Q 2172 3584 2450 3431 
Q 2728 3278 2906 2969 
L 2906 3500 
L 3481 3500 
L 3481 434 
z
" transform="scale(0.015625)"/>
      <path id="DejaVuSans-61" d="M 2194 1759 
Q 1497 1759 1228 1600 
Q 959 1441 959 1056 
Q 959 750 1161 570 
Q 1363 391 1709 391 
Q 2188 391 2477 730 
Q 2766 1069 2766 1631 
L 2766 1759 
L 2194 1759 
z
M 3341 1997 
L 3341 0 
L 2766 0 
L 2766 531 
Q 2569 213 2275 61 
Q 1981 -91 1556 -91 
Q 1019 -91 701 211 
Q 384 513 384 1019 
Q 384 1609 779 1909 
Q 1175 2209 1959 2209 
L 2766 2209 
L 2766 2266 
Q 2766 2663 2505 2880 
Q 2244 3097 1772 3097 
Q 1472 3097 1187 3025 
Q 903 2953 641 2809 
L 641 3341 
Q 956 3463 1253 3523 
Q 1550 3584 1831 3584 
Q 2591 3584 2966 3190 
Q 3341 2797 3341 1997 
z
" transform="scale(0.015625)"/>
     </defs>
     <use xlink:href="#DejaVuSans-52"/>
     <use xlink:href="#DejaVuSans-65" transform="translate(64.982422 0)"/>
     <use xlink:href="#DejaVuSans-73" transform="translate(126.505859 0)"/>
     <use xlink:href="#DejaVuSans-65" transform="translate(178.605469 0)"/>
     <use xlink:href="#DejaVuSans-65" transform="translate(240.128906 0)"/>
     <use xlink:href="#DejaVuSans-6b" transform="translate(301.652344 0)"/>
     <use xlink:href="#DejaVuSans-20" transform="translate(359.5625 0)"/>
     <use xlink:href="#DejaVuSans-43" transform="translate(391.349609 0)"/>
     <use xlink:href="#DejaVuSans-28" transform="translate(461.173828 0)"/>
     <use xlink:href="#DejaVuSans-73" transform="translate(500.1875 0)"/>
     <use xlink:href="#DejaVuSans-63" transform="translate(552.287109 0)"/>
     <use xlink:href="#DejaVuSans-6f" transform="translate(607.267578 0)"/>
     <use xlink:href="#DejaVuSans-72" transform="translate(668.449219 0)"/>
     <use xlink:href="#DejaVuSans-65" transform="translate(707.3125 0)"/>
     <use xlink:href="#DejaVuSans-7c" transform="translate(768.835938 0)"/>
     <use xlink:href="#DejaVuSans-46" transform="translate(802.527344 0)"/>
     <use xlink:href="#DejaVuSans-29" transform="translate(860.046875 0)"/>
     <use xlink:href="#DejaVuSans-20" transform="translate(899.060547 0)"/>
     <use xlink:href="#DejaVuSans-28" transform="translate(930.847656 0)"/>
     <use xlink:href="#DejaVuSans-6c" transform="translate(969.861328 0)"/>
     <use xlink:href="#DejaVuSans-6f" transform="translate(997.644531 0)"/>
     <use xlink:href="#DejaVuSans-67" transform="translate(1058.826172 0)"/>
     <use xlink:href="#DejaVuSans-73" transform="translate(1122.302734 0)"/>
     <use xlink:href="#DejaVuSans-63" transform="translate(1174.402344 0)"/>
     <use xlink:href="#DejaVuSans-61" transform="translate(1229.382812 0)"/>
     <use xlink:href="#DejaVuSans-6c" transform="translate(1290.662109 0)"/>
     <use xlink:href="#DejaVuSans-65" transform="translate(1318.445312 0)"/>
     <use xlink:href="#DejaVuSans-29" transform="translate(1379.96875 0)"/>
    </g>
   </g>
   <g id="legend_2">
    <g id="patch_13">
     <path d="M 411.045576 194.899375 
L 504.834639 194.899375 
Q 506.834639 194.899375 506.834639 192.899375 
L 506.834639 32.44 
Q 506.834639 30.44 504.834639 30.44 
L 411.045576 30.44 
Q 409.045576 30.44 409.045576 32.44 
L 409.045576 192.899375 
Q 409.045576 194.899375 411.045576 194.899375 
z
" style="fill: #ffffff; opacity: 0.8; stroke: #cccccc; stroke-linejoin: miter"/>
    </g>
    <g id="line2d_91">
     <path d="M 413.045576 38.538437 
L 423.045576 38.538437 
L 433.045576 38.538437 
" style="fill: none; stroke-dasharray: 9.6,2.4,1.5,2.4; stroke-dashoffset: 0; stroke: #000000; stroke-width: 1.5"/>
    </g>
    <g id="text_39">
     <!-- SCOP40x8 -->
     <g transform="translate(441.045576 42.038437) scale(0.1 -0.1)">
      <use xlink:href="#DejaVuSans-53"/>
      <use xlink:href="#DejaVuSans-43" transform="translate(63.476562 0)"/>
      <use xlink:href="#DejaVuSans-4f" transform="translate(133.300781 0)"/>
      <use xlink:href="#DejaVuSans-50" transform="translate(212.011719 0)"/>
      <use xlink:href="#DejaVuSans-34" transform="translate(272.314453 0)"/>
      <use xlink:href="#DejaVuSans-30" transform="translate(335.9375 0)"/>
      <use xlink:href="#DejaVuSans-78" transform="translate(399.560547 0)"/>
      <use xlink:href="#DejaVuSans-38" transform="translate(458.740234 0)"/>
     </g>
    </g>
    <g id="line2d_92">
     <path d="M 413.045576 53.216563 
L 423.045576 53.216563 
L 433.045576 53.216563 
" style="fill: none; stroke: #d2691e; stroke-width: 1.5; stroke-linecap: square"/>
    </g>
    <g id="text_40">
     <!-- CATH40 -->
     <g transform="translate(441.045576 56.716563) scale(0.1 -0.1)">
      <use xlink:href="#DejaVuSans-43"/>
      <use xlink:href="#DejaVuSans-41" transform="translate(69.824219 0)"/>
      <use xlink:href="#DejaVuSans-54" transform="translate(130.482422 0)"/>
      <use xlink:href="#DejaVuSans-48" transform="translate(191.566406 0)"/>
      <use xlink:href="#DejaVuSans-34" transform="translate(266.761719 0)"/>
      <use xlink:href="#DejaVuSans-30" transform="translate(330.384766 0)"/>
     </g>
    </g>
    <g id="line2d_93">
     <path d="M 413.045576 67.894688 
L 423.045576 67.894688 
L 433.045576 67.894688 
" style="fill: none; stroke: #000000; stroke-width: 1.5; stroke-linecap: square"/>
    </g>
    <g id="text_41">
     <!-- SCOP40 -->
     <g transform="translate(441.045576 71.394688) scale(0.1 -0.1)">
      <use xlink:href="#DejaVuSans-53"/>
      <use xlink:href="#DejaVuSans-43" transform="translate(63.476562 0)"/>
      <use xlink:href="#DejaVuSans-4f" transform="translate(133.300781 0)"/>
      <use xlink:href="#DejaVuSans-50" transform="translate(212.011719 0)"/>
      <use xlink:href="#DejaVuSans-34" transform="translate(272.314453 0)"/>
      <use xlink:href="#DejaVuSans-30" transform="translate(335.9375 0)"/>
     </g>
    </g>
    <g id="line2d_94">
     <path d="M 413.045576 82.572812 
L 423.045576 82.572812 
L 433.045576 82.572812 
" style="fill: none; stroke: #00ffff; stroke-width: 1.5; stroke-linecap: square"/>
    </g>
    <g id="text_42">
     <!-- SCOP40c -->
     <g transform="translate(441.045576 86.072812) scale(0.1 -0.1)">
      <use xlink:href="#DejaVuSans-53"/>
      <use xlink:href="#DejaVuSans-43" transform="translate(63.476562 0)"/>
      <use xlink:href="#DejaVuSans-4f" transform="translate(133.300781 0)"/>
      <use xlink:href="#DejaVuSans-50" transform="translate(212.011719 0)"/>
      <use xlink:href="#DejaVuSans-34" transform="translate(272.314453 0)"/>
      <use xlink:href="#DejaVuSans-30" transform="translate(335.9375 0)"/>
      <use xlink:href="#DejaVuSans-63" transform="translate(399.560547 0)"/>
     </g>
    </g>
    <g id="line2d_95">
     <path d="M 413.045576 97.250938 
L 423.045576 97.250938 
L 433.045576 97.250938 
" style="fill: none; stroke: #0000ff; stroke-width: 1.5; stroke-linecap: square"/>
    </g>
    <g id="text_43">
     <!-- SCOP95 -->
     <g transform="translate(441.045576 100.750938) scale(0.1 -0.1)">
      <use xlink:href="#DejaVuSans-53"/>
      <use xlink:href="#DejaVuSans-43" transform="translate(63.476562 0)"/>
      <use xlink:href="#DejaVuSans-4f" transform="translate(133.300781 0)"/>
      <use xlink:href="#DejaVuSans-50" transform="translate(212.011719 0)"/>
      <use xlink:href="#DejaVuSans-39" transform="translate(272.314453 0)"/>
      <use xlink:href="#DejaVuSans-35" transform="translate(335.9375 0)"/>
     </g>
    </g>
    <g id="line2d_96">
     <path d="M 413.045576 111.929062 
L 423.045576 111.929062 
L 433.045576 111.929062 
" style="fill: none; stroke: #ff00ff; stroke-width: 1.5; stroke-linecap: square"/>
    </g>
    <g id="text_44">
     <!-- SCOP40/N4 -->
     <g transform="translate(441.045576 115.429062) scale(0.1 -0.1)">
      <use xlink:href="#DejaVuSans-53"/>
      <use xlink:href="#DejaVuSans-43" transform="translate(63.476562 0)"/>
      <use xlink:href="#DejaVuSans-4f" transform="translate(133.300781 0)"/>
      <use xlink:href="#DejaVuSans-50" transform="translate(212.011719 0)"/>
      <use xlink:href="#DejaVuSans-34" transform="translate(272.314453 0)"/>
      <use xlink:href="#DejaVuSans-30" transform="translate(335.9375 0)"/>
      <use xlink:href="#DejaVuSans-2f" transform="translate(399.560547 0)"/>
      <use xlink:href="#DejaVuSans-4e" transform="translate(433.251953 0)"/>
      <use xlink:href="#DejaVuSans-34" transform="translate(508.056641 0)"/>
     </g>
    </g>
    <g id="line2d_97">
     <path d="M 413.045576 126.607188 
L 423.045576 126.607188 
L 433.045576 126.607188 
" style="fill: none; stroke-dasharray: 5.55,2.4; stroke-dashoffset: 0; stroke: #ff00ff; stroke-width: 1.5"/>
    </g>
    <g id="text_45">
     <!-- SCOP40/N4 -->
     <g transform="translate(441.045576 130.107188) scale(0.1 -0.1)">
      <use xlink:href="#DejaVuSans-53"/>
      <use xlink:href="#DejaVuSans-43" transform="translate(63.476562 0)"/>
      <use xlink:href="#DejaVuSans-4f" transform="translate(133.300781 0)"/>
      <use xlink:href="#DejaVuSans-50" transform="translate(212.011719 0)"/>
      <use xlink:href="#DejaVuSans-34" transform="translate(272.314453 0)"/>
      <use xlink:href="#DejaVuSans-30" transform="translate(335.9375 0)"/>
      <use xlink:href="#DejaVuSans-2f" transform="translate(399.560547 0)"/>
      <use xlink:href="#DejaVuSans-4e" transform="translate(433.251953 0)"/>
      <use xlink:href="#DejaVuSans-34" transform="translate(508.056641 0)"/>
     </g>
    </g>
    <g id="line2d_98">
     <path d="M 413.045576 141.285312 
L 423.045576 141.285312 
L 433.045576 141.285312 
" style="fill: none; stroke-dasharray: 1.5,2.475; stroke-dashoffset: 0; stroke: #ff00ff; stroke-width: 1.5"/>
    </g>
    <g id="text_46">
     <!-- SCOP40/N8 -->
     <g transform="translate(441.045576 144.785312) scale(0.1 -0.1)">
      <use xlink:href="#DejaVuSans-53"/>
      <use xlink:href="#DejaVuSans-43" transform="translate(63.476562 0)"/>
      <use xlink:href="#DejaVuSans-4f" transform="translate(133.300781 0)"/>
      <use xlink:href="#DejaVuSans-50" transform="translate(212.011719 0)"/>
      <use xlink:href="#DejaVuSans-34" transform="translate(272.314453 0)"/>
      <use xlink:href="#DejaVuSans-30" transform="translate(335.9375 0)"/>
      <use xlink:href="#DejaVuSans-2f" transform="translate(399.560547 0)"/>
      <use xlink:href="#DejaVuSans-4e" transform="translate(433.251953 0)"/>
      <use xlink:href="#DejaVuSans-38" transform="translate(508.056641 0)"/>
     </g>
    </g>
    <g id="line2d_99">
     <path d="M 413.045576 155.963437 
L 423.045576 155.963437 
L 433.045576 155.963437 
" style="fill: none; stroke: #ffa500; stroke-width: 1.5; stroke-linecap: square"/>
    </g>
    <g id="text_47">
     <!-- SCOP40/SF4 -->
     <g transform="translate(441.045576 159.463437) scale(0.1 -0.1)">
      <use xlink:href="#DejaVuSans-53"/>
      <use xlink:href="#DejaVuSans-43" transform="translate(63.476562 0)"/>
      <use xlink:href="#DejaVuSans-4f" transform="translate(133.300781 0)"/>
      <use xlink:href="#DejaVuSans-50" transform="translate(212.011719 0)"/>
      <use xlink:href="#DejaVuSans-34" transform="translate(272.314453 0)"/>
      <use xlink:href="#DejaVuSans-30" transform="translate(335.9375 0)"/>
      <use xlink:href="#DejaVuSans-2f" transform="translate(399.560547 0)"/>
      <use xlink:href="#DejaVuSans-53" transform="translate(433.251953 0)"/>
      <use xlink:href="#DejaVuSans-46" transform="translate(496.728516 0)"/>
      <use xlink:href="#DejaVuSans-34" transform="translate(554.248047 0)"/>
     </g>
    </g>
    <g id="line2d_100">
     <path d="M 413.045576 170.641562 
L 423.045576 170.641562 
L 433.045576 170.641562 
" style="fill: none; stroke-dasharray: 5.55,2.4; stroke-dashoffset: 0; stroke: #ffa500; stroke-width: 1.5"/>
    </g>
    <g id="text_48">
     <!-- SCOP40/SF4 -->
     <g transform="translate(441.045576 174.141562) scale(0.1 -0.1)">
      <use xlink:href="#DejaVuSans-53"/>
      <use xlink:href="#DejaVuSans-43" transform="translate(63.476562 0)"/>
      <use xlink:href="#DejaVuSans-4f" transform="translate(133.300781 0)"/>
      <use xlink:href="#DejaVuSans-50" transform="translate(212.011719 0)"/>
      <use xlink:href="#DejaVuSans-34" transform="translate(272.314453 0)"/>
      <use xlink:href="#DejaVuSans-30" transform="translate(335.9375 0)"/>
      <use xlink:href="#DejaVuSans-2f" transform="translate(399.560547 0)"/>
      <use xlink:href="#DejaVuSans-53" transform="translate(433.251953 0)"/>
      <use xlink:href="#DejaVuSans-46" transform="translate(496.728516 0)"/>
      <use xlink:href="#DejaVuSans-34" transform="translate(554.248047 0)"/>
     </g>
    </g>
    <g id="line2d_101">
     <path d="M 413.045576 185.319687 
L 423.045576 185.319687 
L 433.045576 185.319687 
" style="fill: none; stroke-dasharray: 1.5,2.475; stroke-dashoffset: 0; stroke: #008000; stroke-width: 1.5"/>
    </g>
    <g id="text_49">
     <!-- SCOP40/SF8 -->
     <g transform="translate(441.045576 188.819687) scale(0.1 -0.1)">
      <use xlink:href="#DejaVuSans-53"/>
      <use xlink:href="#DejaVuSans-43" transform="translate(63.476562 0)"/>
      <use xlink:href="#DejaVuSans-4f" transform="translate(133.300781 0)"/>
      <use xlink:href="#DejaVuSans-50" transform="translate(212.011719 0)"/>
      <use xlink:href="#DejaVuSans-34" transform="translate(272.314453 0)"/>
      <use xlink:href="#DejaVuSans-30" transform="translate(335.9375 0)"/>
      <use xlink:href="#DejaVuSans-2f" transform="translate(399.560547 0)"/>
      <use xlink:href="#DejaVuSans-53" transform="translate(433.251953 0)"/>
      <use xlink:href="#DejaVuSans-46" transform="translate(496.728516 0)"/>
      <use xlink:href="#DejaVuSans-38" transform="translate(554.248047 0)"/>
     </g>
    </g>
   </g>
  </g>
  <g id="text_50">
   <!-- ../plots/C_score_F.reseek.svg -->
   <g transform="translate(286.032278 14.728515) scale(0.12 -0.12)">
    <defs>
     <path id="DejaVuSans-70" d="M 1159 525 
L 1159 -1331 
L 581 -1331 
L 581 3500 
L 1159 3500 
L 1159 2969 
Q 1341 3281 1617 3432 
Q 1894 3584 2278 3584 
Q 2916 3584 3314 3078 
Q 3713 2572 3713 1747 
Q 3713 922 3314 415 
Q 2916 -91 2278 -91 
Q 1894 -91 1617 61 
Q 1341 213 1159 525 
z
M 3116 1747 
Q 3116 2381 2855 2742 
Q 2594 3103 2138 3103 
Q 1681 3103 1420 2742 
Q 1159 2381 1159 1747 
Q 1159 1113 1420 752 
Q 1681 391 2138 391 
Q 2594 391 2855 752 
Q 3116 1113 3116 1747 
z
" transform="scale(0.015625)"/>
     <path id="DejaVuSans-74" d="M 1172 4494 
L 1172 3500 
L 2356 3500 
L 2356 3053 
L 1172 3053 
L 1172 1153 
Q 1172 725 1289 603 
Q 1406 481 1766 481 
L 2356 481 
L 2356 0 
L 1766 0 
Q 1100 0 847 248 
Q 594 497 594 1153 
L 594 3053 
L 172 3053 
L 172 3500 
L 594 3500 
L 594 4494 
L 1172 4494 
z
" transform="scale(0.015625)"/>
     <path id="DejaVuSans-5f" d="M 3263 -1063 
L 3263 -1509 
L -63 -1509 
L -63 -1063 
L 3263 -1063 
z
" transform="scale(0.015625)"/>
     <path id="DejaVuSans-76" d="M 191 3500 
L 800 3500 
L 1894 563 
L 2988 3500 
L 3597 3500 
L 2284 0 
L 1503 0 
L 191 3500 
z
" transform="scale(0.015625)"/>
    </defs>
    <use xlink:href="#DejaVuSans-2e"/>
    <use xlink:href="#DejaVuSans-2e" transform="translate(31.787109 0)"/>
    <use xlink:href="#DejaVuSans-2f" transform="translate(63.574219 0)"/>
    <use xlink:href="#DejaVuSans-70" transform="translate(97.265625 0)"/>
    <use xlink:href="#DejaVuSans-6c" transform="translate(160.742188 0)"/>
    <use xlink:href="#DejaVuSans-6f" transform="translate(188.525391 0)"/>
    <use xlink:href="#DejaVuSans-74" transform="translate(249.707031 0)"/>
    <use xlink:href="#DejaVuSans-73" transform="translate(288.916016 0)"/>
    <use xlink:href="#DejaVuSans-2f" transform="translate(341.015625 0)"/>
    <use xlink:href="#DejaVuSans-43" transform="translate(374.707031 0)"/>
    <use xlink:href="#DejaVuSans-5f" transform="translate(444.53125 0)"/>
    <use xlink:href="#DejaVuSans-73" transform="translate(494.53125 0)"/>
    <use xlink:href="#DejaVuSans-63" transform="translate(546.630859 0)"/>
    <use xlink:href="#DejaVuSans-6f" transform="translate(601.611328 0)"/>
    <use xlink:href="#DejaVuSans-72" transform="translate(662.792969 0)"/>
    <use xlink:href="#DejaVuSans-65" transform="translate(701.65625 0)"/>
    <use xlink:href="#DejaVuSans-5f" transform="translate(763.179688 0)"/>
    <use xlink:href="#DejaVuSans-46" transform="translate(813.179688 0)"/>
    <use xlink:href="#DejaVuSans-2e" transform="translate(854.574219 0)"/>
    <use xlink:href="#DejaVuSans-72" transform="translate(886.361328 0)"/>
    <use xlink:href="#DejaVuSans-65" transform="translate(925.224609 0)"/>
    <use xlink:href="#DejaVuSans-73" transform="translate(986.748047 0)"/>
    <use xlink:href="#DejaVuSans-65" transform="translate(1038.847656 0)"/>
    <use xlink:href="#DejaVuSans-65" transform="translate(1100.371094 0)"/>
    <use xlink:href="#DejaVuSans-6b" transform="translate(1161.894531 0)"/>
    <use xlink:href="#DejaVuSans-2e" transform="translate(1219.804688 0)"/>
    <use xlink:href="#DejaVuSans-73" transform="translate(1251.591797 0)"/>
    <use xlink:href="#DejaVuSans-76" transform="translate(1303.691406 0)"/>
    <use xlink:href="#DejaVuSans-67" transform="translate(1362.871094 0)"/>
   </g>
  </g>
 </g>
 <defs>
  <clipPath id="pa634da3947">
   <rect x="33.73" y="25.44" width="325.18523" height="227.199481"/>
  </clipPath>
  <clipPath id="pc0a291c75c">
   <rect x="404.045576" y="25.44" width="325.18523" height="227.199481"/>
  </clipPath>
 </defs>
</svg>
