<?xml version="1.0" encoding="utf-8" standalone="no"?>
<!DOCTYPE svg PUBLIC "-//W3C//DTD SVG 1.1//EN"
  "http://www.w3.org/Graphics/SVG/1.1/DTD/svg11.dtd">
<svg xmlns:xlink="http://www.w3.org/1999/xlink" width="743.225806pt" height="280.519481pt" viewBox="0 0 743.225806 280.519481" xmlns="http://www.w3.org/2000/svg" version="1.1">
 <metadata>
  <rdf:RDF xmlns:dc="http://purl.org/dc/elements/1.1/" xmlns:cc="http://creativecommons.org/ns#" xmlns:rdf="http://www.w3.org/1999/02/22-rdf-syntax-ns#">
   <cc:Work>
    <dc:type rdf:resource="http://purl.org/dc/dcmitype/StillImage"/>
    <dc:date>2025-05-29T12:14:22.077234</dc:date>
    <dc:format>image/svg+xml</dc:format>
    <dc:creator>
     <cc:Agent>
      <dc:title>Matplotlib v3.10.3, https://matplotlib.org/</dc:title>
     </cc:Agent>
    </dc:creator>
   </cc:Work>
  </rdf:RDF>
 </metadata>
 <defs>
  <style type="text/css">*{stroke-linejoin: round; stroke-linecap: butt}</style>
 </defs>
 <g id="figure_1">
  <g id="patch_1">
   <path d="M 0 280.519481 
L 743.225806 280.519481 
L 743.225806 0 
L 0 0 
z
" style="fill: #ffffff"/>
  </g>
  <g id="axes_1">
   <g id="patch_2">
    <path d="M 33.73 252.639481 
L 355.78773 252.639481 
L 355.78773 25.44 
L 33.73 25.44 
z
" style="fill: #ffffff"/>
   </g>
   <g id="matplotlib.axis_1">
    <g id="xtick_1">
     <g id="line2d_1">
      <defs>
       <path id="mfaef83699b" d="M 0 0 
L 0 3.5 
" style="stroke: #000000; stroke-width: 0.8"/>
      </defs>
      <g>
       <use xlink:href="#mfaef83699b" x="33.73" y="252.639481" style="stroke: #000000; stroke-width: 0.8"/>
      </g>
     </g>
     <g id="text_1">
      <!-- −10 -->
      <g transform="translate(23.177656 267.237918) scale(0.1 -0.1)">
       <defs>
        <path id="DejaVuSans-2212" d="M 678 2272 
L 4684 2272 
L 4684 1741 
L 678 1741 
L 678 2272 
z
" transform="scale(0.015625)"/>
        <path id="DejaVuSans-31" d="M 794 531 
L 1825 531 
L 1825 4091 
L 703 3866 
L 703 4441 
L 1819 4666 
L 2450 4666 
L 2450 531 
L 3481 531 
L 3481 0 
L 794 0 
L 794 531 
z
" transform="scale(0.015625)"/>
        <path id="DejaVuSans-30" d="M 2034 4250 
Q 1547 4250 1301 3770 
Q 1056 3291 1056 2328 
Q 1056 1369 1301 889 
Q 1547 409 2034 409 
Q 2525 409 2770 889 
Q 3016 1369 3016 2328 
Q 3016 3291 2770 3770 
Q 2525 4250 2034 4250 
z
M 2034 4750 
Q 2819 4750 3233 4129 
Q 3647 3509 3647 2328 
Q 3647 1150 3233 529 
Q 2819 -91 2034 -91 
Q 1250 -91 836 529 
Q 422 1150 422 2328 
Q 422 3509 836 4129 
Q 1250 4750 2034 4750 
z
" transform="scale(0.015625)"/>
       </defs>
       <use xlink:href="#DejaVuSans-2212"/>
       <use xlink:href="#DejaVuSans-31" transform="translate(83.789062 0)"/>
       <use xlink:href="#DejaVuSans-30" transform="translate(147.412109 0)"/>
      </g>
     </g>
    </g>
    <g id="xtick_2">
     <g id="line2d_2">
      <g>
       <use xlink:href="#mfaef83699b" x="87.406288" y="252.639481" style="stroke: #000000; stroke-width: 0.8"/>
      </g>
     </g>
     <g id="text_2">
      <!-- 0 -->
      <g transform="translate(84.225038 267.237918) scale(0.1 -0.1)">
       <use xlink:href="#DejaVuSans-30"/>
      </g>
     </g>
    </g>
    <g id="xtick_3">
     <g id="line2d_3">
      <g>
       <use xlink:href="#mfaef83699b" x="141.082577" y="252.639481" style="stroke: #000000; stroke-width: 0.8"/>
      </g>
     </g>
     <g id="text_3">
      <!-- 10 -->
      <g transform="translate(134.720077 267.237918) scale(0.1 -0.1)">
       <use xlink:href="#DejaVuSans-31"/>
       <use xlink:href="#DejaVuSans-30" transform="translate(63.623047 0)"/>
      </g>
     </g>
    </g>
    <g id="xtick_4">
     <g id="line2d_4">
      <g>
       <use xlink:href="#mfaef83699b" x="194.758865" y="252.639481" style="stroke: #000000; stroke-width: 0.8"/>
      </g>
     </g>
     <g id="text_4">
      <!-- 20 -->
      <g transform="translate(188.396365 267.237918) scale(0.1 -0.1)">
       <defs>
        <path id="DejaVuSans-32" d="M 1228 531 
L 3431 531 
L 3431 0 
L 469 0 
L 469 531 
Q 828 903 1448 1529 
Q 2069 2156 2228 2338 
Q 2531 2678 2651 2914 
Q 2772 3150 2772 3378 
Q 2772 3750 2511 3984 
Q 2250 4219 1831 4219 
Q 1534 4219 1204 4116 
Q 875 4013 500 3803 
L 500 4441 
Q 881 4594 1212 4672 
Q 1544 4750 1819 4750 
Q 2544 4750 2975 4387 
Q 3406 4025 3406 3419 
Q 3406 3131 3298 2873 
Q 3191 2616 2906 2266 
Q 2828 2175 2409 1742 
Q 1991 1309 1228 531 
z
" transform="scale(0.015625)"/>
       </defs>
       <use xlink:href="#DejaVuSans-32"/>
       <use xlink:href="#DejaVuSans-30" transform="translate(63.623047 0)"/>
      </g>
     </g>
    </g>
    <g id="xtick_5">
     <g id="line2d_5">
      <g>
       <use xlink:href="#mfaef83699b" x="248.435153" y="252.639481" style="stroke: #000000; stroke-width: 0.8"/>
      </g>
     </g>
     <g id="text_5">
      <!-- 30 -->
      <g transform="translate(242.072653 267.237918) scale(0.1 -0.1)">
       <defs>
        <path id="DejaVuSans-33" d="M 2597 2516 
Q 3050 2419 3304 2112 
Q 3559 1806 3559 1356 
Q 3559 666 3084 287 
Q 2609 -91 1734 -91 
Q 1441 -91 1130 -33 
Q 819 25 488 141 
L 488 750 
Q 750 597 1062 519 
Q 1375 441 1716 441 
Q 2309 441 2620 675 
Q 2931 909 2931 1356 
Q 2931 1769 2642 2001 
Q 2353 2234 1838 2234 
L 1294 2234 
L 1294 2753 
L 1863 2753 
Q 2328 2753 2575 2939 
Q 2822 3125 2822 3475 
Q 2822 3834 2567 4026 
Q 2313 4219 1838 4219 
Q 1578 4219 1281 4162 
Q 984 4106 628 3988 
L 628 4550 
Q 988 4650 1302 4700 
Q 1616 4750 1894 4750 
Q 2613 4750 3031 4423 
Q 3450 4097 3450 3541 
Q 3450 3153 3228 2886 
Q 3006 2619 2597 2516 
z
" transform="scale(0.015625)"/>
       </defs>
       <use xlink:href="#DejaVuSans-33"/>
       <use xlink:href="#DejaVuSans-30" transform="translate(63.623047 0)"/>
      </g>
     </g>
    </g>
    <g id="xtick_6">
     <g id="line2d_6">
      <g>
       <use xlink:href="#mfaef83699b" x="302.111442" y="252.639481" style="stroke: #000000; stroke-width: 0.8"/>
      </g>
     </g>
     <g id="text_6">
      <!-- 40 -->
      <g transform="translate(295.748942 267.237918) scale(0.1 -0.1)">
       <defs>
        <path id="DejaVuSans-34" d="M 2419 4116 
L 825 1625 
L 2419 1625 
L 2419 4116 
z
M 2253 4666 
L 3047 4666 
L 3047 1625 
L 3713 1625 
L 3713 1100 
L 3047 1100 
L 3047 0 
L 2419 0 
L 2419 1100 
L 313 1100 
L 313 1709 
L 2253 4666 
z
" transform="scale(0.015625)"/>
       </defs>
       <use xlink:href="#DejaVuSans-34"/>
       <use xlink:href="#DejaVuSans-30" transform="translate(63.623047 0)"/>
      </g>
     </g>
    </g>
    <g id="xtick_7">
     <g id="line2d_7">
      <g>
       <use xlink:href="#mfaef83699b" x="355.78773" y="252.639481" style="stroke: #000000; stroke-width: 0.8"/>
      </g>
     </g>
     <g id="text_7">
      <!-- 50 -->
      <g transform="translate(349.42523 267.237918) scale(0.1 -0.1)">
       <defs>
        <path id="DejaVuSans-35" d="M 691 4666 
L 3169 4666 
L 3169 4134 
L 1269 4134 
L 1269 2991 
Q 1406 3038 1543 3061 
Q 1681 3084 1819 3084 
Q 2600 3084 3056 2656 
Q 3513 2228 3513 1497 
Q 3513 744 3044 326 
Q 2575 -91 1722 -91 
Q 1428 -91 1123 -41 
Q 819 9 494 109 
L 494 744 
Q 775 591 1075 516 
Q 1375 441 1709 441 
Q 2250 441 2565 725 
Q 2881 1009 2881 1497 
Q 2881 1984 2565 2268 
Q 2250 2553 1709 2553 
Q 1456 2553 1204 2497 
Q 953 2441 691 2322 
L 691 4666 
z
" transform="scale(0.015625)"/>
       </defs>
       <use xlink:href="#DejaVuSans-35"/>
       <use xlink:href="#DejaVuSans-30" transform="translate(63.623047 0)"/>
      </g>
     </g>
    </g>
   </g>
   <g id="matplotlib.axis_2">
    <g id="ytick_1">
     <g id="line2d_8">
      <defs>
       <path id="mad576514cc" d="M 0 0 
L -3.5 0 
" style="stroke: #000000; stroke-width: 0.8"/>
      </defs>
      <g>
       <use xlink:href="#mad576514cc" x="33.73" y="242.312231" style="stroke: #000000; stroke-width: 0.8"/>
      </g>
     </g>
     <g id="text_8">
      <!-- 0.0 -->
      <g transform="translate(10.826875 246.11145) scale(0.1 -0.1)">
       <defs>
        <path id="DejaVuSans-2e" d="M 684 794 
L 1344 794 
L 1344 0 
L 684 0 
L 684 794 
z
" transform="scale(0.015625)"/>
       </defs>
       <use xlink:href="#DejaVuSans-30"/>
       <use xlink:href="#DejaVuSans-2e" transform="translate(63.623047 0)"/>
       <use xlink:href="#DejaVuSans-30" transform="translate(95.410156 0)"/>
      </g>
     </g>
    </g>
    <g id="ytick_2">
     <g id="line2d_9">
      <g>
       <use xlink:href="#mad576514cc" x="33.73" y="201.003235" style="stroke: #000000; stroke-width: 0.8"/>
      </g>
     </g>
     <g id="text_9">
      <!-- 0.2 -->
      <g transform="translate(10.826875 204.802454) scale(0.1 -0.1)">
       <use xlink:href="#DejaVuSans-30"/>
       <use xlink:href="#DejaVuSans-2e" transform="translate(63.623047 0)"/>
       <use xlink:href="#DejaVuSans-32" transform="translate(95.410156 0)"/>
      </g>
     </g>
    </g>
    <g id="ytick_3">
     <g id="line2d_10">
      <g>
       <use xlink:href="#mad576514cc" x="33.73" y="159.694238" style="stroke: #000000; stroke-width: 0.8"/>
      </g>
     </g>
     <g id="text_10">
      <!-- 0.4 -->
      <g transform="translate(10.826875 163.493457) scale(0.1 -0.1)">
       <use xlink:href="#DejaVuSans-30"/>
       <use xlink:href="#DejaVuSans-2e" transform="translate(63.623047 0)"/>
       <use xlink:href="#DejaVuSans-34" transform="translate(95.410156 0)"/>
      </g>
     </g>
    </g>
    <g id="ytick_4">
     <g id="line2d_11">
      <g>
       <use xlink:href="#mad576514cc" x="33.73" y="118.385242" style="stroke: #000000; stroke-width: 0.8"/>
      </g>
     </g>
     <g id="text_11">
      <!-- 0.6 -->
      <g transform="translate(10.826875 122.184461) scale(0.1 -0.1)">
       <defs>
        <path id="DejaVuSans-36" d="M 2113 2584 
Q 1688 2584 1439 2293 
Q 1191 2003 1191 1497 
Q 1191 994 1439 701 
Q 1688 409 2113 409 
Q 2538 409 2786 701 
Q 3034 994 3034 1497 
Q 3034 2003 2786 2293 
Q 2538 2584 2113 2584 
z
M 3366 4563 
L 3366 3988 
Q 3128 4100 2886 4159 
Q 2644 4219 2406 4219 
Q 1781 4219 1451 3797 
Q 1122 3375 1075 2522 
Q 1259 2794 1537 2939 
Q 1816 3084 2150 3084 
Q 2853 3084 3261 2657 
Q 3669 2231 3669 1497 
Q 3669 778 3244 343 
Q 2819 -91 2113 -91 
Q 1303 -91 875 529 
Q 447 1150 447 2328 
Q 447 3434 972 4092 
Q 1497 4750 2381 4750 
Q 2619 4750 2861 4703 
Q 3103 4656 3366 4563 
z
" transform="scale(0.015625)"/>
       </defs>
       <use xlink:href="#DejaVuSans-30"/>
       <use xlink:href="#DejaVuSans-2e" transform="translate(63.623047 0)"/>
       <use xlink:href="#DejaVuSans-36" transform="translate(95.410156 0)"/>
      </g>
     </g>
    </g>
    <g id="ytick_5">
     <g id="line2d_12">
      <g>
       <use xlink:href="#mad576514cc" x="33.73" y="77.076246" style="stroke: #000000; stroke-width: 0.8"/>
      </g>
     </g>
     <g id="text_12">
      <!-- 0.8 -->
      <g transform="translate(10.826875 80.875464) scale(0.1 -0.1)">
       <defs>
        <path id="DejaVuSans-38" d="M 2034 2216 
Q 1584 2216 1326 1975 
Q 1069 1734 1069 1313 
Q 1069 891 1326 650 
Q 1584 409 2034 409 
Q 2484 409 2743 651 
Q 3003 894 3003 1313 
Q 3003 1734 2745 1975 
Q 2488 2216 2034 2216 
z
M 1403 2484 
Q 997 2584 770 2862 
Q 544 3141 544 3541 
Q 544 4100 942 4425 
Q 1341 4750 2034 4750 
Q 2731 4750 3128 4425 
Q 3525 4100 3525 3541 
Q 3525 3141 3298 2862 
Q 3072 2584 2669 2484 
Q 3125 2378 3379 2068 
Q 3634 1759 3634 1313 
Q 3634 634 3220 271 
Q 2806 -91 2034 -91 
Q 1263 -91 848 271 
Q 434 634 434 1313 
Q 434 1759 690 2068 
Q 947 2378 1403 2484 
z
M 1172 3481 
Q 1172 3119 1398 2916 
Q 1625 2713 2034 2713 
Q 2441 2713 2670 2916 
Q 2900 3119 2900 3481 
Q 2900 3844 2670 4047 
Q 2441 4250 2034 4250 
Q 1625 4250 1398 4047 
Q 1172 3844 1172 3481 
z
" transform="scale(0.015625)"/>
       </defs>
       <use xlink:href="#DejaVuSans-30"/>
       <use xlink:href="#DejaVuSans-2e" transform="translate(63.623047 0)"/>
       <use xlink:href="#DejaVuSans-38" transform="translate(95.410156 0)"/>
      </g>
     </g>
    </g>
    <g id="ytick_6">
     <g id="line2d_13">
      <g>
       <use xlink:href="#mad576514cc" x="33.73" y="35.767249" style="stroke: #000000; stroke-width: 0.8"/>
      </g>
     </g>
     <g id="text_13">
      <!-- 1.0 -->
      <g transform="translate(10.826875 39.566468) scale(0.1 -0.1)">
       <use xlink:href="#DejaVuSans-31"/>
       <use xlink:href="#DejaVuSans-2e" transform="translate(63.623047 0)"/>
       <use xlink:href="#DejaVuSans-30" transform="translate(95.410156 0)"/>
      </g>
     </g>
    </g>
   </g>
   <g id="line2d_14">
    <path d="M -1 35.767249 
L 7.697 35.767249 
L 23.155771 35.767249 
L 38.609175 35.767249 
L 54.062578 35.767249 
L 69.515981 35.767249 
L 84.966701 35.767249 
L 100.417421 35.767249 
L 115.870824 35.767249 
L 131.324227 36.882592 
L 146.772263 48.077329 
L 162.231034 73.317129 
L 177.689805 104.484768 
L 193.148576 132.698804 
L 208.607347 148.210339 
L 224.012442 166.902659 
L 239.471213 181.092296 
L 254.929984 192.101146 
L 270.388755 200.672763 
L 285.847526 207.509401 
L 301.306297 213.086117 
L 316.765069 216.246254 
L 332.22384 220.273881 
L 347.628934 223.605452 
L 363.087705 226.3525 
L 378.546476 228.692655 
L 394.005247 230.572215 
L 409.464019 232.230771 
L 424.92279 233.149896 
L 440.381561 234.347857 
L 455.840332 235.355797 
L 471.299103 236.229482 
L 486.704197 236.975109 
L 502.162969 237.586482 
L 517.62174 237.939674 
L 533.080511 238.4044 
L 548.539282 238.811294 
L 563.998053 239.16242 
L 579.456824 239.468107 
L 594.915595 239.736615 
L 610.32069 239.970011 
L 625.779461 240.093938 
L 641.345584 240.283753 
L 656.911708 240.450848 
L 671.941069 240.603278 
L 687.507192 240.74786 
L 703.073316 240.87695 
L 718.639439 240.98518 
L 734.205563 241.059123 
L 744.225806 241.124671 
" clip-path="url(#p0427d01ef7)" style="fill: none; stroke-dasharray: 9.6,2.4,1.5,2.4; stroke-dashoffset: 0; stroke: #000000; stroke-width: 1.5"/>
   </g>
   <g id="line2d_15">
    <path d="M -1 35.767249 
L 7.697 35.767249 
L 23.155771 35.767249 
L 38.609175 35.767249 
L 54.062578 35.767249 
L 69.515981 35.767249 
L 84.966701 35.767249 
L 100.417421 35.767249 
L 115.870824 35.767249 
L 131.324227 37.254374 
L 146.772263 50.824378 
L 162.231034 79.781988 
L 177.689805 112.953114 
L 193.148576 141.291079 
L 208.607347 156.451485 
L 224.012442 174.296972 
L 239.471213 187.722395 
L 254.929984 198.028989 
L 270.388755 206.042931 
L 285.847526 212.342555 
L 301.306297 217.402907 
L 316.765069 220.232573 
L 332.22384 223.811997 
L 347.628934 226.749067 
L 363.087705 229.169774 
L 378.546476 231.169129 
L 394.005247 232.825621 
L 409.464019 234.213603 
L 424.92279 234.998474 
L 440.381561 236.027068 
L 455.840332 236.892491 
L 471.299103 237.629856 
L 486.704197 238.245361 
L 502.162969 238.761723 
L 517.62174 239.065344 
L 533.080511 239.461911 
L 548.539282 239.800644 
L 563.998053 240.091873 
L 579.456824 240.342825 
L 594.915595 240.556186 
L 610.32069 240.745381 
L 625.779461 240.85423 
L 641.345584 241.003976 
L 656.911708 241.136784 
L 671.941069 241.252449 
L 687.507192 241.353656 
L 703.073316 241.44309 
L 718.639439 241.519305 
L 734.205563 241.566604 
L 744.225806 241.610257 
" clip-path="url(#p0427d01ef7)" style="fill: none; stroke: #d2691e; stroke-width: 1.5; stroke-linecap: square"/>
   </g>
   <g id="line2d_16">
    <path d="M -1 35.767249 
L 7.697 35.767249 
L 23.155771 35.767249 
L 38.609175 35.767249 
L 54.062578 35.767249 
L 69.515981 35.767249 
L 84.966701 35.767249 
L 100.417421 35.767249 
L 115.870824 35.829211 
L 131.324227 43.347452 
L 146.772263 74.515091 
L 162.231034 115.059865 
L 177.689805 148.706043 
L 193.148576 172.727228 
L 208.607347 184.582907 
L 224.012442 197.925714 
L 239.471213 207.59202 
L 254.929984 214.779784 
L 270.388755 220.211918 
L 285.847526 224.406847 
L 301.306297 227.701239 
L 316.765069 229.49818 
L 332.22384 231.735063 
L 347.628934 233.53407 
L 363.087705 234.969558 
L 378.546476 236.144798 
L 394.005247 237.090774 
L 409.464019 237.894234 
L 424.92279 238.33211 
L 440.381561 238.906305 
L 455.840332 239.377227 
L 471.299103 239.784121 
L 486.704197 240.116658 
L 502.162969 240.39157 
L 517.62174 240.548131 
L 533.080511 240.748066 
L 548.539282 240.926521 
L 563.998053 241.078332 
L 579.456824 241.209281 
L 594.915595 241.325359 
L 610.32069 241.426567 
L 625.779461 241.481301 
L 641.345584 241.559788 
L 656.911708 241.63084 
L 671.941069 241.692183 
L 687.507192 241.751875 
L 703.073316 241.804131 
L 718.639439 241.849984 
L 734.205563 241.880346 
L 744.225806 241.905408 
" clip-path="url(#p0427d01ef7)" style="fill: none; stroke: #000000; stroke-width: 1.5; stroke-linecap: square"/>
   </g>
   <g id="line2d_17">
    <path d="M -1 35.767249 
L 7.697 35.767249 
L 23.155771 35.767249 
L 38.609175 35.767249 
L 54.062578 35.767249 
L 69.515981 35.767249 
L 84.966701 35.767249 
L 100.417421 35.767249 
L 115.870824 35.849869 
L 131.324227 45.764023 
L 146.772263 82.756237 
L 162.231034 126.894899 
L 177.689805 161.20202 
L 193.148576 184.314397 
L 208.607347 195.24063 
L 224.012442 207.034348 
L 239.471213 215.234184 
L 254.929984 221.120716 
L 270.388755 225.47675 
L 285.847526 228.785601 
L 301.306297 231.367413 
L 316.765069 232.786377 
L 332.22384 234.535813 
L 347.628934 235.958908 
L 363.087705 237.090774 
L 378.546476 238.005768 
L 394.005247 238.757592 
L 409.464019 239.404078 
L 424.92279 239.753139 
L 440.381561 240.207538 
L 455.840332 240.567959 
L 471.299103 240.88356 
L 486.704197 241.133686 
L 502.162969 241.336306 
L 517.62174 241.449286 
L 533.080511 241.591389 
L 548.539282 241.715729 
L 563.998053 241.817763 
L 579.456824 241.900381 
L 594.915595 241.969986 
L 610.32069 242.026993 
L 625.779461 242.055909 
L 641.345584 242.098664 
L 656.911708 242.130678 
L 671.941069 242.156806 
L 687.507192 242.181055 
L 703.073316 242.201833 
L 718.639439 242.219245 
L 734.205563 242.228911 
L 744.225806 242.237091 
" clip-path="url(#p0427d01ef7)" style="fill: none; stroke: #00ffff; stroke-width: 1.5; stroke-linecap: square"/>
   </g>
   <g id="line2d_18">
    <path d="M -1 35.767249 
L 7.697 35.767249 
L 23.155771 35.767249 
L 38.609175 35.767249 
L 54.062578 35.767249 
L 69.515981 35.767249 
L 84.966701 35.767249 
L 100.417421 35.767249 
L 115.870824 35.767249 
L 131.324227 43.202871 
L 146.772263 73.771529 
L 162.231034 114.047799 
L 177.689805 147.508086 
L 193.148576 171.673846 
L 208.607347 183.653455 
L 224.012442 197.285426 
L 239.471213 206.993039 
L 254.929984 214.222112 
L 270.388755 219.798829 
L 285.847526 224.115618 
L 301.306297 227.461647 
L 316.765069 229.279242 
L 332.22384 231.551238 
L 347.628934 233.368834 
L 363.087705 234.835303 
L 378.546476 236.033264 
L 394.005247 237.004026 
L 409.464019 237.809551 
L 424.92279 238.26395 
L 440.381561 238.842276 
L 455.840332 239.337984 
L 471.299103 239.751074 
L 486.704197 240.081546 
L 502.162969 240.358316 
L 517.62174 240.517356 
L 533.080511 240.730097 
L 548.539282 240.913922 
L 563.998053 241.062634 
L 579.456824 241.198954 
L 594.915595 241.31875 
L 610.32069 241.419957 
L 625.779461 241.47779 
L 641.345584 241.558342 
L 656.911708 241.634764 
L 671.941069 241.700858 
L 687.507192 241.760756 
L 703.073316 241.812393 
L 718.639439 241.857832 
L 734.205563 241.888814 
L 744.225806 241.912224 
" clip-path="url(#p0427d01ef7)" style="fill: none; stroke: #ff00ff; stroke-width: 1.5; stroke-linecap: square"/>
   </g>
   <g id="line2d_19">
    <path d="M -1 35.767249 
L 7.697 35.767249 
L 23.155771 35.767249 
L 38.609175 35.767249 
L 54.062578 35.767249 
L 69.515981 35.767249 
L 84.966701 35.767249 
L 100.417421 35.767249 
L 115.870824 35.767249 
L 131.324227 43.615956 
L 146.772263 75.010795 
L 162.231034 115.493608 
L 177.689805 148.953901 
L 193.148576 172.913118 
L 208.607347 184.479636 
L 224.012442 197.905059 
L 239.471213 207.406129 
L 254.929984 214.428658 
L 270.388755 219.798829 
L 285.847526 223.950383 
L 301.306297 227.213793 
L 316.765069 228.990081 
L 332.22384 231.220766 
L 347.628934 232.997053 
L 363.087705 234.463522 
L 378.546476 235.620174 
L 394.005247 236.590935 
L 409.464019 237.417115 
L 424.92279 237.892169 
L 440.381561 238.511804 
L 455.840332 239.028166 
L 471.299103 239.461911 
L 486.704197 239.813037 
L 502.162969 240.122855 
L 517.62174 240.286025 
L 533.080511 240.517356 
L 548.539282 240.725966 
L 563.998053 240.907726 
L 579.456824 241.054373 
L 594.915595 241.18243 
L 610.32069 241.298096 
L 625.779461 241.362124 
L 641.345584 241.448873 
L 656.911708 241.533557 
L 671.941069 241.601717 
L 687.507192 241.669877 
L 703.073316 241.733905 
L 718.639439 241.793803 
L 734.205563 241.830982 
L 744.225806 241.855769 
" clip-path="url(#p0427d01ef7)" style="fill: none; stroke-dasharray: 5.55,2.4; stroke-dashoffset: 0; stroke: #ff00ff; stroke-width: 1.5"/>
   </g>
   <g id="line2d_20">
    <path d="M -1 35.767249 
L 7.697 35.767249 
L 23.155771 35.767249 
L 38.609175 35.767249 
L 54.062578 35.767249 
L 69.515981 35.767249 
L 84.966701 35.767249 
L 100.417421 35.767249 
L 115.870824 35.767249 
L 131.324227 43.202871 
L 146.772263 74.391156 
L 162.231034 115.080523 
L 177.689805 148.54081 
L 193.148576 172.086937 
L 208.607347 184.066545 
L 224.012442 197.285426 
L 239.471213 206.993039 
L 254.929984 214.222112 
L 270.388755 219.592283 
L 285.847526 223.805802 
L 301.306297 227.131175 
L 316.765069 228.990081 
L 332.22384 231.365347 
L 347.628934 233.182943 
L 363.087705 234.670067 
L 378.546476 235.888683 
L 394.005247 236.818135 
L 409.464019 237.603006 
L 424.92279 238.057405 
L 440.381561 238.656385 
L 455.840332 239.152093 
L 471.299103 239.606492 
L 486.704197 239.936964 
L 502.162969 240.226127 
L 517.62174 240.383101 
L 533.080511 240.579319 
L 548.539282 240.773471 
L 563.998053 240.930445 
L 579.456824 241.066765 
L 594.915595 241.186561 
L 610.32069 241.287768 
L 625.779461 241.343535 
L 641.345584 241.438546 
L 656.911708 241.521164 
L 671.941069 241.583128 
L 687.507192 241.651287 
L 703.073316 241.715316 
L 718.639439 241.77728 
L 734.205563 241.808262 
L 744.225806 241.833049 
" clip-path="url(#p0427d01ef7)" style="fill: none; stroke-dasharray: 1.5,2.475; stroke-dashoffset: 0; stroke: #ff00ff; stroke-width: 1.5"/>
   </g>
   <g id="line2d_21">
    <path d="M -1 35.767249 
L 7.697 35.767249 
L 23.155771 35.767249 
L 38.609175 35.767249 
L 54.062578 35.767249 
L 69.515981 35.767249 
L 84.966701 35.767249 
L 100.417421 35.767249 
L 115.870824 35.767249 
L 131.324227 42.996329 
L 146.772263 73.771529 
L 162.231034 114.047799 
L 177.689805 147.714629 
L 193.148576 171.673846 
L 208.607347 183.653455 
L 224.012442 197.078881 
L 239.471213 206.786493 
L 254.929984 214.01557 
L 270.388755 219.592283 
L 285.847526 223.867765 
L 301.306297 227.213793 
L 316.765069 229.052044 
L 332.22384 231.344693 
L 347.628934 233.224252 
L 363.087705 234.732031 
L 378.546476 235.991955 
L 394.005247 236.983371 
L 409.464019 237.830205 
L 424.92279 238.305259 
L 440.381561 238.924894 
L 455.840332 239.420602 
L 471.299103 239.833692 
L 486.704197 240.184818 
L 502.162969 240.473981 
L 517.62174 240.633021 
L 533.080511 240.831304 
L 548.539282 241.006867 
L 563.998053 241.151449 
L 579.456824 241.271245 
L 594.915595 241.380714 
L 610.32069 241.473659 
L 625.779461 241.52323 
L 641.345584 241.59552 
L 656.911708 241.655418 
L 671.941069 241.702924 
L 687.507192 241.752495 
L 703.073316 241.795869 
L 718.639439 241.833047 
L 734.205563 241.857832 
L 744.225806 241.879865 
" clip-path="url(#p0427d01ef7)" style="fill: none; stroke: #ffa500; stroke-width: 1.5; stroke-linecap: square"/>
   </g>
   <g id="line2d_22">
    <path d="M -1 35.767249 
L 7.697 35.767249 
L 23.155771 35.767249 
L 38.609175 35.767249 
L 54.062578 35.767249 
L 69.515981 35.767249 
L 84.966701 35.767249 
L 100.417421 35.767249 
L 115.870824 35.767249 
L 131.324227 44.64868 
L 146.772263 78.108967 
L 162.231034 120.0376 
L 177.689805 154.530611 
L 193.148576 179.31601 
L 208.607347 191.70871 
L 224.012442 205.340679 
L 239.471213 214.841748 
L 254.929984 221.761006 
L 270.388755 226.842012 
L 285.847526 230.539167 
L 301.306297 233.348179 
L 316.765069 234.77334 
L 332.22384 236.487663 
L 347.628934 237.830205 
L 363.087705 238.800967 
L 378.546476 239.523874 
L 394.005247 240.060891 
L 409.464019 240.49257 
L 424.92279 240.723901 
L 440.381561 241.004802 
L 455.840332 241.207216 
L 471.299103 241.380714 
L 486.704197 241.517033 
L 502.162969 241.626502 
L 517.62174 241.694662 
L 533.080511 241.773149 
L 548.539282 241.843374 
L 563.998053 241.901207 
L 579.456824 241.950778 
L 594.915595 241.981759 
L 610.32069 242.010676 
L 625.779461 242.023068 
L 641.345584 242.051985 
L 656.911708 242.070574 
L 671.941069 242.085032 
L 687.507192 242.103621 
L 703.073316 242.120764 
L 718.639439 242.134603 
L 734.205563 242.143278 
L 744.225806 242.151815 
" clip-path="url(#p0427d01ef7)" style="fill: none; stroke-dasharray: 5.55,2.4; stroke-dashoffset: 0; stroke: #ffa500; stroke-width: 1.5"/>
   </g>
   <g id="line2d_23">
    <path d="M -1 35.767249 
L 7.697 35.767249 
L 23.155771 35.767249 
L 38.609175 35.767249 
L 54.062578 35.767249 
L 69.515981 35.767249 
L 84.966701 35.767249 
L 100.417421 35.767249 
L 115.870824 35.767249 
L 131.324227 43.822498 
L 146.772263 76.663158 
L 162.231034 118.385237 
L 177.689805 152.465164 
L 193.148576 176.424381 
L 208.607347 187.990899 
L 224.012442 201.003234 
L 239.471213 210.297759 
L 254.929984 216.907198 
L 270.388755 222.174096 
L 285.847526 226.09845 
L 301.306297 229.237934 
L 316.765069 230.931603 
L 332.22384 233.079671 
L 347.628934 234.77334 
L 363.087705 236.095228 
L 378.546476 237.189916 
L 394.005247 238.098714 
L 409.464019 238.86293 
L 424.92279 239.255366 
L 440.381561 239.751074 
L 455.840332 240.164164 
L 471.299103 240.496701 
L 486.704197 240.773471 
L 502.162969 240.990344 
L 517.62174 241.11014 
L 533.080511 241.248525 
L 548.539282 241.36419 
L 563.998053 241.481921 
L 579.456824 241.570735 
L 594.915595 241.655418 
L 610.32069 241.729775 
L 625.779461 241.771084 
L 641.345584 241.835113 
L 656.911708 241.884683 
L 671.941069 241.921861 
L 687.507192 241.965236 
L 703.073316 242.004479 
L 718.639439 242.039592 
L 734.205563 242.058181 
L 744.225806 242.073329 
" clip-path="url(#p0427d01ef7)" style="fill: none; stroke-dasharray: 1.5,2.475; stroke-dashoffset: 0; stroke: #ffa500; stroke-width: 1.5"/>
   </g>
   <g id="patch_3">
    <path d="M 33.73 252.639481 
L 33.73 25.44 
" style="fill: none; stroke: #000000; stroke-width: 0.8; stroke-linejoin: miter; stroke-linecap: square"/>
   </g>
   <g id="patch_4">
    <path d="M 355.78773 252.639481 
L 355.78773 25.44 
" style="fill: none; stroke: #000000; stroke-width: 0.8; stroke-linejoin: miter; stroke-linecap: square"/>
   </g>
   <g id="patch_5">
    <path d="M 33.73 252.639481 
L 355.78773 252.639481 
" style="fill: none; stroke: #000000; stroke-width: 0.8; stroke-linejoin: miter; stroke-linecap: square"/>
   </g>
   <g id="patch_6">
    <path d="M 33.73 25.44 
L 355.78773 25.44 
" style="fill: none; stroke: #000000; stroke-width: 0.8; stroke-linejoin: miter; stroke-linecap: square"/>
   </g>
   <g id="text_14">
    <!-- Foldseek -->
    <g transform="translate(168.39449 19.44) scale(0.12 -0.12)">
     <defs>
      <path id="DejaVuSans-46" d="M 628 4666 
L 3309 4666 
L 3309 4134 
L 1259 4134 
L 1259 2759 
L 3109 2759 
L 3109 2228 
L 1259 2228 
L 1259 0 
L 628 0 
L 628 4666 
z
" transform="scale(0.015625)"/>
      <path id="DejaVuSans-6f" d="M 1959 3097 
Q 1497 3097 1228 2736 
Q 959 2375 959 1747 
Q 959 1119 1226 758 
Q 1494 397 1959 397 
Q 2419 397 2687 759 
Q 2956 1122 2956 1747 
Q 2956 2369 2687 2733 
Q 2419 3097 1959 3097 
z
M 1959 3584 
Q 2709 3584 3137 3096 
Q 3566 2609 3566 1747 
Q 3566 888 3137 398 
Q 2709 -91 1959 -91 
Q 1206 -91 779 398 
Q 353 888 353 1747 
Q 353 2609 779 3096 
Q 1206 3584 1959 3584 
z
" transform="scale(0.015625)"/>
      <path id="DejaVuSans-6c" d="M 603 4863 
L 1178 4863 
L 1178 0 
L 603 0 
L 603 4863 
z
" transform="scale(0.015625)"/>
      <path id="DejaVuSans-64" d="M 2906 2969 
L 2906 4863 
L 3481 4863 
L 3481 0 
L 2906 0 
L 2906 525 
Q 2725 213 2448 61 
Q 2172 -91 1784 -91 
Q 1150 -91 751 415 
Q 353 922 353 1747 
Q 353 2572 751 3078 
Q 1150 3584 1784 3584 
Q 2172 3584 2448 3432 
Q 2725 3281 2906 2969 
z
M 947 1747 
Q 947 1113 1208 752 
Q 1469 391 1925 391 
Q 2381 391 2643 752 
Q 2906 1113 2906 1747 
Q 2906 2381 2643 2742 
Q 2381 3103 1925 3103 
Q 1469 3103 1208 2742 
Q 947 2381 947 1747 
z
" transform="scale(0.015625)"/>
      <path id="DejaVuSans-73" d="M 2834 3397 
L 2834 2853 
Q 2591 2978 2328 3040 
Q 2066 3103 1784 3103 
Q 1356 3103 1142 2972 
Q 928 2841 928 2578 
Q 928 2378 1081 2264 
Q 1234 2150 1697 2047 
L 1894 2003 
Q 2506 1872 2764 1633 
Q 3022 1394 3022 966 
Q 3022 478 2636 193 
Q 2250 -91 1575 -91 
Q 1294 -91 989 -36 
Q 684 19 347 128 
L 347 722 
Q 666 556 975 473 
Q 1284 391 1588 391 
Q 1994 391 2212 530 
Q 2431 669 2431 922 
Q 2431 1156 2273 1281 
Q 2116 1406 1581 1522 
L 1381 1569 
Q 847 1681 609 1914 
Q 372 2147 372 2553 
Q 372 3047 722 3315 
Q 1072 3584 1716 3584 
Q 2034 3584 2315 3537 
Q 2597 3491 2834 3397 
z
" transform="scale(0.015625)"/>
      <path id="DejaVuSans-65" d="M 3597 1894 
L 3597 1613 
L 953 1613 
Q 991 1019 1311 708 
Q 1631 397 2203 397 
Q 2534 397 2845 478 
Q 3156 559 3463 722 
L 3463 178 
Q 3153 47 2828 -22 
Q 2503 -91 2169 -91 
Q 1331 -91 842 396 
Q 353 884 353 1716 
Q 353 2575 817 3079 
Q 1281 3584 2069 3584 
Q 2775 3584 3186 3129 
Q 3597 2675 3597 1894 
z
M 3022 2063 
Q 3016 2534 2758 2815 
Q 2500 3097 2075 3097 
Q 1594 3097 1305 2825 
Q 1016 2553 972 2059 
L 3022 2063 
z
" transform="scale(0.015625)"/>
      <path id="DejaVuSans-6b" d="M 581 4863 
L 1159 4863 
L 1159 1991 
L 2875 3500 
L 3609 3500 
L 1753 1863 
L 3688 0 
L 2938 0 
L 1159 1709 
L 1159 0 
L 581 0 
L 581 4863 
z
" transform="scale(0.015625)"/>
     </defs>
     <use xlink:href="#DejaVuSans-46"/>
     <use xlink:href="#DejaVuSans-6f" transform="translate(53.894531 0)"/>
     <use xlink:href="#DejaVuSans-6c" transform="translate(115.076172 0)"/>
     <use xlink:href="#DejaVuSans-64" transform="translate(142.859375 0)"/>
     <use xlink:href="#DejaVuSans-73" transform="translate(206.335938 0)"/>
     <use xlink:href="#DejaVuSans-65" transform="translate(258.435547 0)"/>
     <use xlink:href="#DejaVuSans-65" transform="translate(319.958984 0)"/>
     <use xlink:href="#DejaVuSans-6b" transform="translate(381.482422 0)"/>
    </g>
   </g>
   <g id="legend_1">
    <g id="patch_7">
     <path d="M 254.998668 180.22125 
L 348.78773 180.22125 
Q 350.78773 180.22125 350.78773 178.22125 
L 350.78773 32.44 
Q 350.78773 30.44 348.78773 30.44 
L 254.998668 30.44 
Q 252.998668 30.44 252.998668 32.44 
L 252.998668 178.22125 
Q 252.998668 180.22125 254.998668 180.22125 
z
" style="fill: #ffffff; opacity: 0.8; stroke: #cccccc; stroke-linejoin: miter"/>
    </g>
    <g id="line2d_24">
     <path d="M 256.998668 38.538437 
L 266.998668 38.538437 
L 276.998668 38.538437 
" style="fill: none; stroke-dasharray: 9.6,2.4,1.5,2.4; stroke-dashoffset: 0; stroke: #000000; stroke-width: 1.5"/>
    </g>
    <g id="text_15">
     <!-- SCOP40x8 -->
     <g transform="translate(284.998668 42.038437) scale(0.1 -0.1)">
      <defs>
       <path id="DejaVuSans-53" d="M 3425 4513 
L 3425 3897 
Q 3066 4069 2747 4153 
Q 2428 4238 2131 4238 
Q 1616 4238 1336 4038 
Q 1056 3838 1056 3469 
Q 1056 3159 1242 3001 
Q 1428 2844 1947 2747 
L 2328 2669 
Q 3034 2534 3370 2195 
Q 3706 1856 3706 1288 
Q 3706 609 3251 259 
Q 2797 -91 1919 -91 
Q 1588 -91 1214 -16 
Q 841 59 441 206 
L 441 856 
Q 825 641 1194 531 
Q 1563 422 1919 422 
Q 2459 422 2753 634 
Q 3047 847 3047 1241 
Q 3047 1584 2836 1778 
Q 2625 1972 2144 2069 
L 1759 2144 
Q 1053 2284 737 2584 
Q 422 2884 422 3419 
Q 422 4038 858 4394 
Q 1294 4750 2059 4750 
Q 2388 4750 2728 4690 
Q 3069 4631 3425 4513 
z
" transform="scale(0.015625)"/>
       <path id="DejaVuSans-43" d="M 4122 4306 
L 4122 3641 
Q 3803 3938 3442 4084 
Q 3081 4231 2675 4231 
Q 1875 4231 1450 3742 
Q 1025 3253 1025 2328 
Q 1025 1406 1450 917 
Q 1875 428 2675 428 
Q 3081 428 3442 575 
Q 3803 722 4122 1019 
L 4122 359 
Q 3791 134 3420 21 
Q 3050 -91 2638 -91 
Q 1578 -91 968 557 
Q 359 1206 359 2328 
Q 359 3453 968 4101 
Q 1578 4750 2638 4750 
Q 3056 4750 3426 4639 
Q 3797 4528 4122 4306 
z
" transform="scale(0.015625)"/>
       <path id="DejaVuSans-4f" d="M 2522 4238 
Q 1834 4238 1429 3725 
Q 1025 3213 1025 2328 
Q 1025 1447 1429 934 
Q 1834 422 2522 422 
Q 3209 422 3611 934 
Q 4013 1447 4013 2328 
Q 4013 3213 3611 3725 
Q 3209 4238 2522 4238 
z
M 2522 4750 
Q 3503 4750 4090 4092 
Q 4678 3434 4678 2328 
Q 4678 1225 4090 567 
Q 3503 -91 2522 -91 
Q 1538 -91 948 565 
Q 359 1222 359 2328 
Q 359 3434 948 4092 
Q 1538 4750 2522 4750 
z
" transform="scale(0.015625)"/>
       <path id="DejaVuSans-50" d="M 1259 4147 
L 1259 2394 
L 2053 2394 
Q 2494 2394 2734 2622 
Q 2975 2850 2975 3272 
Q 2975 3691 2734 3919 
Q 2494 4147 2053 4147 
L 1259 4147 
z
M 628 4666 
L 2053 4666 
Q 2838 4666 3239 4311 
Q 3641 3956 3641 3272 
Q 3641 2581 3239 2228 
Q 2838 1875 2053 1875 
L 1259 1875 
L 1259 0 
L 628 0 
L 628 4666 
z
" transform="scale(0.015625)"/>
       <path id="DejaVuSans-78" d="M 3513 3500 
L 2247 1797 
L 3578 0 
L 2900 0 
L 1881 1375 
L 863 0 
L 184 0 
L 1544 1831 
L 300 3500 
L 978 3500 
L 1906 2253 
L 2834 3500 
L 3513 3500 
z
" transform="scale(0.015625)"/>
      </defs>
      <use xlink:href="#DejaVuSans-53"/>
      <use xlink:href="#DejaVuSans-43" transform="translate(63.476562 0)"/>
      <use xlink:href="#DejaVuSans-4f" transform="translate(133.300781 0)"/>
      <use xlink:href="#DejaVuSans-50" transform="translate(212.011719 0)"/>
      <use xlink:href="#DejaVuSans-34" transform="translate(272.314453 0)"/>
      <use xlink:href="#DejaVuSans-30" transform="translate(335.9375 0)"/>
      <use xlink:href="#DejaVuSans-78" transform="translate(399.560547 0)"/>
      <use xlink:href="#DejaVuSans-38" transform="translate(458.740234 0)"/>
     </g>
    </g>
    <g id="line2d_25">
     <path d="M 256.998668 53.216563 
L 266.998668 53.216563 
L 276.998668 53.216563 
" style="fill: none; stroke: #d2691e; stroke-width: 1.5; stroke-linecap: square"/>
    </g>
    <g id="text_16">
     <!-- CATH40 -->
     <g transform="translate(284.998668 56.716563) scale(0.1 -0.1)">
      <defs>
       <path id="DejaVuSans-41" d="M 2188 4044 
L 1331 1722 
L 3047 1722 
L 2188 4044 
z
M 1831 4666 
L 2547 4666 
L 4325 0 
L 3669 0 
L 3244 1197 
L 1141 1197 
L 716 0 
L 50 0 
L 1831 4666 
z
" transform="scale(0.015625)"/>
       <path id="DejaVuSans-54" d="M -19 4666 
L 3928 4666 
L 3928 4134 
L 2272 4134 
L 2272 0 
L 1638 0 
L 1638 4134 
L -19 4134 
L -19 4666 
z
" transform="scale(0.015625)"/>
       <path id="DejaVuSans-48" d="M 628 4666 
L 1259 4666 
L 1259 2753 
L 3553 2753 
L 3553 4666 
L 4184 4666 
L 4184 0 
L 3553 0 
L 3553 2222 
L 1259 2222 
L 1259 0 
L 628 0 
L 628 4666 
z
" transform="scale(0.015625)"/>
      </defs>
      <use xlink:href="#DejaVuSans-43"/>
      <use xlink:href="#DejaVuSans-41" transform="translate(69.824219 0)"/>
      <use xlink:href="#DejaVuSans-54" transform="translate(130.482422 0)"/>
      <use xlink:href="#DejaVuSans-48" transform="translate(191.566406 0)"/>
      <use xlink:href="#DejaVuSans-34" transform="translate(266.761719 0)"/>
      <use xlink:href="#DejaVuSans-30" transform="translate(330.384766 0)"/>
     </g>
    </g>
    <g id="line2d_26">
     <path d="M 256.998668 67.894688 
L 266.998668 67.894688 
L 276.998668 67.894688 
" style="fill: none; stroke: #000000; stroke-width: 1.5; stroke-linecap: square"/>
    </g>
    <g id="text_17">
     <!-- SCOP40 -->
     <g transform="translate(284.998668 71.394688) scale(0.1 -0.1)">
      <use xlink:href="#DejaVuSans-53"/>
      <use xlink:href="#DejaVuSans-43" transform="translate(63.476562 0)"/>
      <use xlink:href="#DejaVuSans-4f" transform="translate(133.300781 0)"/>
      <use xlink:href="#DejaVuSans-50" transform="translate(212.011719 0)"/>
      <use xlink:href="#DejaVuSans-34" transform="translate(272.314453 0)"/>
      <use xlink:href="#DejaVuSans-30" transform="translate(335.9375 0)"/>
     </g>
    </g>
    <g id="line2d_27">
     <path d="M 256.998668 82.572812 
L 266.998668 82.572812 
L 276.998668 82.572812 
" style="fill: none; stroke: #00ffff; stroke-width: 1.5; stroke-linecap: square"/>
    </g>
    <g id="text_18">
     <!-- SCOP40c -->
     <g transform="translate(284.998668 86.072812) scale(0.1 -0.1)">
      <defs>
       <path id="DejaVuSans-63" d="M 3122 3366 
L 3122 2828 
Q 2878 2963 2633 3030 
Q 2388 3097 2138 3097 
Q 1578 3097 1268 2742 
Q 959 2388 959 1747 
Q 959 1106 1268 751 
Q 1578 397 2138 397 
Q 2388 397 2633 464 
Q 2878 531 3122 666 
L 3122 134 
Q 2881 22 2623 -34 
Q 2366 -91 2075 -91 
Q 1284 -91 818 406 
Q 353 903 353 1747 
Q 353 2603 823 3093 
Q 1294 3584 2113 3584 
Q 2378 3584 2631 3529 
Q 2884 3475 3122 3366 
z
" transform="scale(0.015625)"/>
      </defs>
      <use xlink:href="#DejaVuSans-53"/>
      <use xlink:href="#DejaVuSans-43" transform="translate(63.476562 0)"/>
      <use xlink:href="#DejaVuSans-4f" transform="translate(133.300781 0)"/>
      <use xlink:href="#DejaVuSans-50" transform="translate(212.011719 0)"/>
      <use xlink:href="#DejaVuSans-34" transform="translate(272.314453 0)"/>
      <use xlink:href="#DejaVuSans-30" transform="translate(335.9375 0)"/>
      <use xlink:href="#DejaVuSans-63" transform="translate(399.560547 0)"/>
     </g>
    </g>
    <g id="line2d_28">
     <path d="M 256.998668 97.250938 
L 266.998668 97.250938 
L 276.998668 97.250938 
" style="fill: none; stroke: #ff00ff; stroke-width: 1.5; stroke-linecap: square"/>
    </g>
    <g id="text_19">
     <!-- SCOP40/N2 -->
     <g transform="translate(284.998668 100.750938) scale(0.1 -0.1)">
      <defs>
       <path id="DejaVuSans-2f" d="M 1625 4666 
L 2156 4666 
L 531 -594 
L 0 -594 
L 1625 4666 
z
" transform="scale(0.015625)"/>
       <path id="DejaVuSans-4e" d="M 628 4666 
L 1478 4666 
L 3547 763 
L 3547 4666 
L 4159 4666 
L 4159 0 
L 3309 0 
L 1241 3903 
L 1241 0 
L 628 0 
L 628 4666 
z
" transform="scale(0.015625)"/>
      </defs>
      <use xlink:href="#DejaVuSans-53"/>
      <use xlink:href="#DejaVuSans-43" transform="translate(63.476562 0)"/>
      <use xlink:href="#DejaVuSans-4f" transform="translate(133.300781 0)"/>
      <use xlink:href="#DejaVuSans-50" transform="translate(212.011719 0)"/>
      <use xlink:href="#DejaVuSans-34" transform="translate(272.314453 0)"/>
      <use xlink:href="#DejaVuSans-30" transform="translate(335.9375 0)"/>
      <use xlink:href="#DejaVuSans-2f" transform="translate(399.560547 0)"/>
      <use xlink:href="#DejaVuSans-4e" transform="translate(433.251953 0)"/>
      <use xlink:href="#DejaVuSans-32" transform="translate(508.056641 0)"/>
     </g>
    </g>
    <g id="line2d_29">
     <path d="M 256.998668 111.929062 
L 266.998668 111.929062 
L 276.998668 111.929062 
" style="fill: none; stroke-dasharray: 5.55,2.4; stroke-dashoffset: 0; stroke: #ff00ff; stroke-width: 1.5"/>
    </g>
    <g id="text_20">
     <!-- SCOP40/N4 -->
     <g transform="translate(284.998668 115.429062) scale(0.1 -0.1)">
      <use xlink:href="#DejaVuSans-53"/>
      <use xlink:href="#DejaVuSans-43" transform="translate(63.476562 0)"/>
      <use xlink:href="#DejaVuSans-4f" transform="translate(133.300781 0)"/>
      <use xlink:href="#DejaVuSans-50" transform="translate(212.011719 0)"/>
      <use xlink:href="#DejaVuSans-34" transform="translate(272.314453 0)"/>
      <use xlink:href="#DejaVuSans-30" transform="translate(335.9375 0)"/>
      <use xlink:href="#DejaVuSans-2f" transform="translate(399.560547 0)"/>
      <use xlink:href="#DejaVuSans-4e" transform="translate(433.251953 0)"/>
      <use xlink:href="#DejaVuSans-34" transform="translate(508.056641 0)"/>
     </g>
    </g>
    <g id="line2d_30">
     <path d="M 256.998668 126.607188 
L 266.998668 126.607188 
L 276.998668 126.607188 
" style="fill: none; stroke-dasharray: 1.5,2.475; stroke-dashoffset: 0; stroke: #ff00ff; stroke-width: 1.5"/>
    </g>
    <g id="text_21">
     <!-- SCOP40/N8 -->
     <g transform="translate(284.998668 130.107188) scale(0.1 -0.1)">
      <use xlink:href="#DejaVuSans-53"/>
      <use xlink:href="#DejaVuSans-43" transform="translate(63.476562 0)"/>
      <use xlink:href="#DejaVuSans-4f" transform="translate(133.300781 0)"/>
      <use xlink:href="#DejaVuSans-50" transform="translate(212.011719 0)"/>
      <use xlink:href="#DejaVuSans-34" transform="translate(272.314453 0)"/>
      <use xlink:href="#DejaVuSans-30" transform="translate(335.9375 0)"/>
      <use xlink:href="#DejaVuSans-2f" transform="translate(399.560547 0)"/>
      <use xlink:href="#DejaVuSans-4e" transform="translate(433.251953 0)"/>
      <use xlink:href="#DejaVuSans-38" transform="translate(508.056641 0)"/>
     </g>
    </g>
    <g id="line2d_31">
     <path d="M 256.998668 141.285312 
L 266.998668 141.285312 
L 276.998668 141.285312 
" style="fill: none; stroke: #ffa500; stroke-width: 1.5; stroke-linecap: square"/>
    </g>
    <g id="text_22">
     <!-- SCOP40/SF2 -->
     <g transform="translate(284.998668 144.785312) scale(0.1 -0.1)">
      <use xlink:href="#DejaVuSans-53"/>
      <use xlink:href="#DejaVuSans-43" transform="translate(63.476562 0)"/>
      <use xlink:href="#DejaVuSans-4f" transform="translate(133.300781 0)"/>
      <use xlink:href="#DejaVuSans-50" transform="translate(212.011719 0)"/>
      <use xlink:href="#DejaVuSans-34" transform="translate(272.314453 0)"/>
      <use xlink:href="#DejaVuSans-30" transform="translate(335.9375 0)"/>
      <use xlink:href="#DejaVuSans-2f" transform="translate(399.560547 0)"/>
      <use xlink:href="#DejaVuSans-53" transform="translate(433.251953 0)"/>
      <use xlink:href="#DejaVuSans-46" transform="translate(496.728516 0)"/>
      <use xlink:href="#DejaVuSans-32" transform="translate(554.248047 0)"/>
     </g>
    </g>
    <g id="line2d_32">
     <path d="M 256.998668 155.963437 
L 266.998668 155.963437 
L 276.998668 155.963437 
" style="fill: none; stroke-dasharray: 5.55,2.4; stroke-dashoffset: 0; stroke: #ffa500; stroke-width: 1.5"/>
    </g>
    <g id="text_23">
     <!-- SCOP40/SF4 -->
     <g transform="translate(284.998668 159.463437) scale(0.1 -0.1)">
      <use xlink:href="#DejaVuSans-53"/>
      <use xlink:href="#DejaVuSans-43" transform="translate(63.476562 0)"/>
      <use xlink:href="#DejaVuSans-4f" transform="translate(133.300781 0)"/>
      <use xlink:href="#DejaVuSans-50" transform="translate(212.011719 0)"/>
      <use xlink:href="#DejaVuSans-34" transform="translate(272.314453 0)"/>
      <use xlink:href="#DejaVuSans-30" transform="translate(335.9375 0)"/>
      <use xlink:href="#DejaVuSans-2f" transform="translate(399.560547 0)"/>
      <use xlink:href="#DejaVuSans-53" transform="translate(433.251953 0)"/>
      <use xlink:href="#DejaVuSans-46" transform="translate(496.728516 0)"/>
      <use xlink:href="#DejaVuSans-34" transform="translate(554.248047 0)"/>
     </g>
    </g>
    <g id="line2d_33">
     <path d="M 256.998668 170.641562 
L 266.998668 170.641562 
L 276.998668 170.641562 
" style="fill: none; stroke-dasharray: 1.5,2.475; stroke-dashoffset: 0; stroke: #ffa500; stroke-width: 1.5"/>
    </g>
    <g id="text_24">
     <!-- SCOP40/SF8 -->
     <g transform="translate(284.998668 174.141562) scale(0.1 -0.1)">
      <use xlink:href="#DejaVuSans-53"/>
      <use xlink:href="#DejaVuSans-43" transform="translate(63.476562 0)"/>
      <use xlink:href="#DejaVuSans-4f" transform="translate(133.300781 0)"/>
      <use xlink:href="#DejaVuSans-50" transform="translate(212.011719 0)"/>
      <use xlink:href="#DejaVuSans-34" transform="translate(272.314453 0)"/>
      <use xlink:href="#DejaVuSans-30" transform="translate(335.9375 0)"/>
      <use xlink:href="#DejaVuSans-2f" transform="translate(399.560547 0)"/>
      <use xlink:href="#DejaVuSans-53" transform="translate(433.251953 0)"/>
      <use xlink:href="#DejaVuSans-46" transform="translate(496.728516 0)"/>
      <use xlink:href="#DejaVuSans-38" transform="translate(554.248047 0)"/>
     </g>
    </g>
   </g>
  </g>
  <g id="axes_2">
   <g id="patch_8">
    <path d="M 403.978076 252.639481 
L 726.035806 252.639481 
L 726.035806 25.44 
L 403.978076 25.44 
z
" style="fill: #ffffff"/>
   </g>
   <g id="matplotlib.axis_3">
    <g id="xtick_8">
     <g id="line2d_34">
      <g>
       <use xlink:href="#mfaef83699b" x="403.978076" y="252.639481" style="stroke: #000000; stroke-width: 0.8"/>
      </g>
     </g>
     <g id="text_25">
      <!-- −10 -->
      <g transform="translate(393.425733 267.237918) scale(0.1 -0.1)">
       <use xlink:href="#DejaVuSans-2212"/>
       <use xlink:href="#DejaVuSans-31" transform="translate(83.789062 0)"/>
       <use xlink:href="#DejaVuSans-30" transform="translate(147.412109 0)"/>
      </g>
     </g>
    </g>
    <g id="xtick_9">
     <g id="line2d_35">
      <g>
       <use xlink:href="#mfaef83699b" x="457.654365" y="252.639481" style="stroke: #000000; stroke-width: 0.8"/>
      </g>
     </g>
     <g id="text_26">
      <!-- 0 -->
      <g transform="translate(454.473115 267.237918) scale(0.1 -0.1)">
       <use xlink:href="#DejaVuSans-30"/>
      </g>
     </g>
    </g>
    <g id="xtick_10">
     <g id="line2d_36">
      <g>
       <use xlink:href="#mfaef83699b" x="511.330653" y="252.639481" style="stroke: #000000; stroke-width: 0.8"/>
      </g>
     </g>
     <g id="text_27">
      <!-- 10 -->
      <g transform="translate(504.968153 267.237918) scale(0.1 -0.1)">
       <use xlink:href="#DejaVuSans-31"/>
       <use xlink:href="#DejaVuSans-30" transform="translate(63.623047 0)"/>
      </g>
     </g>
    </g>
    <g id="xtick_11">
     <g id="line2d_37">
      <g>
       <use xlink:href="#mfaef83699b" x="565.006941" y="252.639481" style="stroke: #000000; stroke-width: 0.8"/>
      </g>
     </g>
     <g id="text_28">
      <!-- 20 -->
      <g transform="translate(558.644441 267.237918) scale(0.1 -0.1)">
       <use xlink:href="#DejaVuSans-32"/>
       <use xlink:href="#DejaVuSans-30" transform="translate(63.623047 0)"/>
      </g>
     </g>
    </g>
    <g id="xtick_12">
     <g id="line2d_38">
      <g>
       <use xlink:href="#mfaef83699b" x="618.68323" y="252.639481" style="stroke: #000000; stroke-width: 0.8"/>
      </g>
     </g>
     <g id="text_29">
      <!-- 30 -->
      <g transform="translate(612.32073 267.237918) scale(0.1 -0.1)">
       <use xlink:href="#DejaVuSans-33"/>
       <use xlink:href="#DejaVuSans-30" transform="translate(63.623047 0)"/>
      </g>
     </g>
    </g>
    <g id="xtick_13">
     <g id="line2d_39">
      <g>
       <use xlink:href="#mfaef83699b" x="672.359518" y="252.639481" style="stroke: #000000; stroke-width: 0.8"/>
      </g>
     </g>
     <g id="text_30">
      <!-- 40 -->
      <g transform="translate(665.997018 267.237918) scale(0.1 -0.1)">
       <use xlink:href="#DejaVuSans-34"/>
       <use xlink:href="#DejaVuSans-30" transform="translate(63.623047 0)"/>
      </g>
     </g>
    </g>
    <g id="xtick_14">
     <g id="line2d_40">
      <g>
       <use xlink:href="#mfaef83699b" x="726.035806" y="252.639481" style="stroke: #000000; stroke-width: 0.8"/>
      </g>
     </g>
     <g id="text_31">
      <!-- 50 -->
      <g transform="translate(719.673306 267.237918) scale(0.1 -0.1)">
       <use xlink:href="#DejaVuSans-35"/>
       <use xlink:href="#DejaVuSans-30" transform="translate(63.623047 0)"/>
      </g>
     </g>
    </g>
   </g>
   <g id="matplotlib.axis_4">
    <g id="ytick_7">
     <g id="line2d_41">
      <g>
       <use xlink:href="#mad576514cc" x="403.978076" y="252.639481" style="stroke: #000000; stroke-width: 0.8"/>
      </g>
     </g>
     <g id="text_32">
      <!-- $\mathdefault{10^{-3}}$ -->
      <g transform="translate(373.478076 256.438699) scale(0.1 -0.1)">
       <use xlink:href="#DejaVuSans-31" transform="translate(0 0.765625)"/>
       <use xlink:href="#DejaVuSans-30" transform="translate(63.623047 0.765625)"/>
       <use xlink:href="#DejaVuSans-2212" transform="translate(128.203125 39.046875) scale(0.7)"/>
       <use xlink:href="#DejaVuSans-33" transform="translate(186.855469 39.046875) scale(0.7)"/>
      </g>
     </g>
    </g>
    <g id="ytick_8">
     <g id="line2d_42">
      <g>
       <use xlink:href="#mad576514cc" x="403.978076" y="183.812635" style="stroke: #000000; stroke-width: 0.8"/>
      </g>
     </g>
     <g id="text_33">
      <!-- $\mathdefault{10^{-2}}$ -->
      <g transform="translate(373.478076 187.611854) scale(0.1 -0.1)">
       <use xlink:href="#DejaVuSans-31" transform="translate(0 0.765625)"/>
       <use xlink:href="#DejaVuSans-30" transform="translate(63.623047 0.765625)"/>
       <use xlink:href="#DejaVuSans-2212" transform="translate(128.203125 39.046875) scale(0.7)"/>
       <use xlink:href="#DejaVuSans-32" transform="translate(186.855469 39.046875) scale(0.7)"/>
      </g>
     </g>
    </g>
    <g id="ytick_9">
     <g id="line2d_43">
      <g>
       <use xlink:href="#mad576514cc" x="403.978076" y="114.98579" style="stroke: #000000; stroke-width: 0.8"/>
      </g>
     </g>
     <g id="text_34">
      <!-- $\mathdefault{10^{-1}}$ -->
      <g transform="translate(373.478076 118.785009) scale(0.1 -0.1)">
       <use xlink:href="#DejaVuSans-31" transform="translate(0 0.684375)"/>
       <use xlink:href="#DejaVuSans-30" transform="translate(63.623047 0.684375)"/>
       <use xlink:href="#DejaVuSans-2212" transform="translate(128.203125 38.965625) scale(0.7)"/>
       <use xlink:href="#DejaVuSans-31" transform="translate(186.855469 38.965625) scale(0.7)"/>
      </g>
     </g>
    </g>
    <g id="ytick_10">
     <g id="line2d_44">
      <g>
       <use xlink:href="#mad576514cc" x="403.978076" y="46.158945" style="stroke: #000000; stroke-width: 0.8"/>
      </g>
     </g>
     <g id="text_35">
      <!-- $\mathdefault{10^{0}}$ -->
      <g transform="translate(379.378076 49.958164) scale(0.1 -0.1)">
       <use xlink:href="#DejaVuSans-31" transform="translate(0 0.765625)"/>
       <use xlink:href="#DejaVuSans-30" transform="translate(63.623047 0.765625)"/>
       <use xlink:href="#DejaVuSans-30" transform="translate(128.203125 39.046875) scale(0.7)"/>
      </g>
     </g>
    </g>
    <g id="ytick_11">
     <g id="line2d_45">
      <defs>
       <path id="m2f7e7a4a3d" d="M 0 0 
L -2 0 
" style="stroke: #000000; stroke-width: 0.6"/>
      </defs>
      <g>
       <use xlink:href="#m2f7e7a4a3d" x="403.978076" y="231.920536" style="stroke: #000000; stroke-width: 0.6"/>
      </g>
     </g>
    </g>
    <g id="ytick_12">
     <g id="line2d_46">
      <g>
       <use xlink:href="#m2f7e7a4a3d" x="403.978076" y="219.80073" style="stroke: #000000; stroke-width: 0.6"/>
      </g>
     </g>
    </g>
    <g id="ytick_13">
     <g id="line2d_47">
      <g>
       <use xlink:href="#m2f7e7a4a3d" x="403.978076" y="211.201591" style="stroke: #000000; stroke-width: 0.6"/>
      </g>
     </g>
    </g>
    <g id="ytick_14">
     <g id="line2d_48">
      <g>
       <use xlink:href="#m2f7e7a4a3d" x="403.978076" y="204.53158" style="stroke: #000000; stroke-width: 0.6"/>
      </g>
     </g>
    </g>
    <g id="ytick_15">
     <g id="line2d_49">
      <g>
       <use xlink:href="#m2f7e7a4a3d" x="403.978076" y="199.081785" style="stroke: #000000; stroke-width: 0.6"/>
      </g>
     </g>
    </g>
    <g id="ytick_16">
     <g id="line2d_50">
      <g>
       <use xlink:href="#m2f7e7a4a3d" x="403.978076" y="194.474049" style="stroke: #000000; stroke-width: 0.6"/>
      </g>
     </g>
    </g>
    <g id="ytick_17">
     <g id="line2d_51">
      <g>
       <use xlink:href="#m2f7e7a4a3d" x="403.978076" y="190.482646" style="stroke: #000000; stroke-width: 0.6"/>
      </g>
     </g>
    </g>
    <g id="ytick_18">
     <g id="line2d_52">
      <g>
       <use xlink:href="#m2f7e7a4a3d" x="403.978076" y="186.961979" style="stroke: #000000; stroke-width: 0.6"/>
      </g>
     </g>
    </g>
    <g id="ytick_19">
     <g id="line2d_53">
      <g>
       <use xlink:href="#m2f7e7a4a3d" x="403.978076" y="163.09369" style="stroke: #000000; stroke-width: 0.6"/>
      </g>
     </g>
    </g>
    <g id="ytick_20">
     <g id="line2d_54">
      <g>
       <use xlink:href="#m2f7e7a4a3d" x="403.978076" y="150.973885" style="stroke: #000000; stroke-width: 0.6"/>
      </g>
     </g>
    </g>
    <g id="ytick_21">
     <g id="line2d_55">
      <g>
       <use xlink:href="#m2f7e7a4a3d" x="403.978076" y="142.374745" style="stroke: #000000; stroke-width: 0.6"/>
      </g>
     </g>
    </g>
    <g id="ytick_22">
     <g id="line2d_56">
      <g>
       <use xlink:href="#m2f7e7a4a3d" x="403.978076" y="135.704735" style="stroke: #000000; stroke-width: 0.6"/>
      </g>
     </g>
    </g>
    <g id="ytick_23">
     <g id="line2d_57">
      <g>
       <use xlink:href="#m2f7e7a4a3d" x="403.978076" y="130.25494" style="stroke: #000000; stroke-width: 0.6"/>
      </g>
     </g>
    </g>
    <g id="ytick_24">
     <g id="line2d_58">
      <g>
       <use xlink:href="#m2f7e7a4a3d" x="403.978076" y="125.647203" style="stroke: #000000; stroke-width: 0.6"/>
      </g>
     </g>
    </g>
    <g id="ytick_25">
     <g id="line2d_59">
      <g>
       <use xlink:href="#m2f7e7a4a3d" x="403.978076" y="121.655801" style="stroke: #000000; stroke-width: 0.6"/>
      </g>
     </g>
    </g>
    <g id="ytick_26">
     <g id="line2d_60">
      <g>
       <use xlink:href="#m2f7e7a4a3d" x="403.978076" y="118.135134" style="stroke: #000000; stroke-width: 0.6"/>
      </g>
     </g>
    </g>
    <g id="ytick_27">
     <g id="line2d_61">
      <g>
       <use xlink:href="#m2f7e7a4a3d" x="403.978076" y="94.266845" style="stroke: #000000; stroke-width: 0.6"/>
      </g>
     </g>
    </g>
    <g id="ytick_28">
     <g id="line2d_62">
      <g>
       <use xlink:href="#m2f7e7a4a3d" x="403.978076" y="82.147039" style="stroke: #000000; stroke-width: 0.6"/>
      </g>
     </g>
    </g>
    <g id="ytick_29">
     <g id="line2d_63">
      <g>
       <use xlink:href="#m2f7e7a4a3d" x="403.978076" y="73.5479" style="stroke: #000000; stroke-width: 0.6"/>
      </g>
     </g>
    </g>
    <g id="ytick_30">
     <g id="line2d_64">
      <g>
       <use xlink:href="#m2f7e7a4a3d" x="403.978076" y="66.87789" style="stroke: #000000; stroke-width: 0.6"/>
      </g>
     </g>
    </g>
    <g id="ytick_31">
     <g id="line2d_65">
      <g>
       <use xlink:href="#m2f7e7a4a3d" x="403.978076" y="61.428094" style="stroke: #000000; stroke-width: 0.6"/>
      </g>
     </g>
    </g>
    <g id="ytick_32">
     <g id="line2d_66">
      <g>
       <use xlink:href="#m2f7e7a4a3d" x="403.978076" y="56.820358" style="stroke: #000000; stroke-width: 0.6"/>
      </g>
     </g>
    </g>
    <g id="ytick_33">
     <g id="line2d_67">
      <g>
       <use xlink:href="#m2f7e7a4a3d" x="403.978076" y="52.828955" style="stroke: #000000; stroke-width: 0.6"/>
      </g>
     </g>
    </g>
    <g id="ytick_34">
     <g id="line2d_68">
      <g>
       <use xlink:href="#m2f7e7a4a3d" x="403.978076" y="49.308289" style="stroke: #000000; stroke-width: 0.6"/>
      </g>
     </g>
    </g>
    <g id="ytick_35">
     <g id="line2d_69">
      <g>
       <use xlink:href="#m2f7e7a4a3d" x="403.978076" y="25.44" style="stroke: #000000; stroke-width: 0.6"/>
      </g>
     </g>
    </g>
   </g>
   <g id="line2d_70">
    <path d="M 269.787355 46.158945 
L 285.246126 46.158945 
L 300.704897 46.158945 
L 316.163669 46.158945 
L 331.62244 46.158945 
L 347.027534 46.158945 
L 362.486305 46.158945 
L 377.945076 46.158945 
L 393.403847 46.158945 
L 408.857251 46.158945 
L 424.310654 46.158945 
L 439.764058 46.158945 
L 455.214777 46.158945 
L 470.665497 46.158945 
L 486.1189 46.158945 
L 501.572304 46.320794 
L 517.02034 47.995753 
L 532.479111 52.156553 
L 547.937882 58.250368 
L 563.396653 65.096713 
L 578.855424 69.657551 
L 594.260519 76.276758 
L 609.71929 82.507901 
L 625.178061 88.433428 
L 640.636832 94.028668 
L 656.095603 99.389632 
L 671.554374 104.609701 
L 687.013145 108.030192 
L 702.471916 113.047321 
L 717.877011 117.946419 
L 733.335782 122.693645 
L 744.225806 126.032452 
" clip-path="url(#p32614066c2)" style="fill: none; stroke-dasharray: 9.6,2.4,1.5,2.4; stroke-dashoffset: 0; stroke: #000000; stroke-width: 1.5"/>
   </g>
   <g id="line2d_71">
    <path d="M 269.787355 46.158945 
L 285.246126 46.158945 
L 300.704897 46.158945 
L 316.163669 46.158945 
L 331.62244 46.158945 
L 347.027534 46.158945 
L 362.486305 46.158945 
L 377.945076 46.158945 
L 393.403847 46.158945 
L 408.857251 46.158945 
L 424.310654 46.158945 
L 439.764058 46.158945 
L 455.214777 46.158945 
L 470.665497 46.158945 
L 486.1189 46.158945 
L 501.572304 46.37494 
L 517.02034 48.421519 
L 532.479111 53.322475 
L 547.937882 60.145771 
L 563.396653 67.536723 
L 578.855424 72.397114 
L 594.260519 79.361585 
L 609.71929 85.934175 
L 625.178061 92.188634 
L 640.636832 98.155938 
L 656.095603 103.858733 
L 671.554374 109.386912 
L 687.013145 112.991346 
L 702.471916 118.278289 
L 717.877011 123.445761 
L 733.335782 128.499121 
L 744.225806 131.974098 
" clip-path="url(#p32614066c2)" style="fill: none; stroke: #d2691e; stroke-width: 1.5; stroke-linecap: square"/>
   </g>
   <g id="line2d_72">
    <path d="M 269.787355 46.158945 
L 285.246126 46.158945 
L 300.704897 46.158945 
L 316.163669 46.158945 
L 331.62244 46.158945 
L 347.027534 46.158945 
L 362.486305 46.158945 
L 377.945076 46.158945 
L 393.403847 46.158945 
L 408.857251 46.158945 
L 424.310654 46.158945 
L 439.764058 46.158945 
L 455.214777 46.158945 
L 470.665497 46.158945 
L 486.1189 46.167913 
L 501.572304 47.276586 
L 517.02034 52.369198 
L 532.479111 60.636588 
L 547.937882 69.815426 
L 563.396653 78.67956 
L 578.855424 84.262737 
L 594.260519 92.119006 
L 609.71929 99.460676 
L 625.178061 106.394123 
L 640.636832 112.963397 
L 656.095603 119.255188 
L 671.554374 125.33287 
L 687.013145 129.255536 
L 702.471916 134.989983 
L 717.877011 140.562607 
L 733.335782 145.900085 
L 744.225806 149.57285 
" clip-path="url(#p32614066c2)" style="fill: none; stroke: #000000; stroke-width: 1.5; stroke-linecap: square"/>
   </g>
   <g id="line2d_73">
    <path d="M 269.787355 46.158945 
L 285.246126 46.158945 
L 300.704897 46.158945 
L 316.163669 46.158945 
L 331.62244 46.158945 
L 347.027534 46.158945 
L 362.486305 46.158945 
L 377.945076 46.158945 
L 393.403847 46.158945 
L 408.857251 46.158945 
L 424.310654 46.158945 
L 439.764058 46.158945 
L 455.214777 46.158945 
L 470.665497 46.158945 
L 486.1189 46.170904 
L 501.572304 47.641858 
L 517.02034 53.874539 
L 532.479111 63.554491 
L 547.937882 74.098453 
L 563.396653 84.124031 
L 578.855424 90.363377 
L 594.260519 98.984384 
L 609.71929 106.891568 
L 625.178061 114.218552 
L 640.636832 121.096864 
L 656.095603 127.637886 
L 671.554374 133.968652 
L 687.013145 138.11923 
L 702.471916 144.184548 
L 717.877011 150.226076 
L 733.335782 156.09076 
L 744.225806 160.147589 
" clip-path="url(#p32614066c2)" style="fill: none; stroke: #00ffff; stroke-width: 1.5; stroke-linecap: square"/>
   </g>
   <g id="line2d_74">
    <path d="M 269.787355 46.158945 
L 285.246126 46.158945 
L 300.704897 46.158945 
L 316.163669 46.158945 
L 331.62244 46.158945 
L 347.027534 46.158945 
L 362.486305 46.158945 
L 377.945076 46.158945 
L 393.403847 46.158945 
L 408.857251 46.158945 
L 424.310654 46.158945 
L 439.764058 46.158945 
L 455.214777 46.158945 
L 470.665497 46.158945 
L 486.1189 46.158945 
L 501.572304 47.254873 
L 517.02034 52.237033 
L 532.479111 60.399798 
L 547.937882 69.435311 
L 563.396653 78.230457 
L 578.855424 83.785318 
L 594.260519 91.690898 
L 609.71929 98.949402 
L 625.178061 105.794727 
L 640.636832 112.409843 
L 656.095603 118.772924 
L 671.554374 124.846687 
L 687.013145 128.749137 
L 702.471916 134.474957 
L 717.877011 140.005182 
L 733.335782 145.358486 
L 744.225806 149.035383 
" clip-path="url(#p32614066c2)" style="fill: none; stroke: #ff00ff; stroke-width: 1.5; stroke-linecap: square"/>
   </g>
   <g id="line2d_75">
    <path d="M 269.787355 46.158945 
L 285.246126 46.158945 
L 300.704897 46.158945 
L 316.163669 46.158945 
L 331.62244 46.158945 
L 347.027534 46.158945 
L 362.486305 46.158945 
L 377.945076 46.158945 
L 393.403847 46.158945 
L 408.857251 46.158945 
L 424.310654 46.158945 
L 439.764058 46.158945 
L 455.214777 46.158945 
L 470.665497 46.158945 
L 486.1189 46.158945 
L 501.572304 47.316951 
L 517.02034 52.457632 
L 532.479111 60.738647 
L 547.937882 69.894679 
L 563.396653 78.759519 
L 578.855424 84.209313 
L 594.260519 92.105099 
L 609.71929 99.301067 
L 625.178061 106.015327 
L 640.636832 112.409843 
L 656.095603 118.502721 
L 671.554374 124.351927 
L 687.013145 128.093196 
L 702.471916 133.570808 
L 717.877011 138.787728 
L 733.335782 143.90796 
L 744.225806 147.265026 
" clip-path="url(#p32614066c2)" style="fill: none; stroke-dasharray: 5.55,2.4; stroke-dashoffset: 0; stroke: #ff00ff; stroke-width: 1.5"/>
   </g>
   <g id="line2d_76">
    <path d="M 269.787355 46.158945 
L 285.246126 46.158945 
L 300.704897 46.158945 
L 316.163669 46.158945 
L 331.62244 46.158945 
L 347.027534 46.158945 
L 362.486305 46.158945 
L 377.945076 46.158945 
L 393.403847 46.158945 
L 408.857251 46.158945 
L 424.310654 46.158945 
L 439.764058 46.158945 
L 455.214777 46.158945 
L 470.665497 46.158945 
L 486.1189 46.158945 
L 501.572304 47.254873 
L 517.02034 52.347128 
L 532.479111 60.641441 
L 547.937882 69.762709 
L 563.396653 78.405773 
L 578.855424 83.996564 
L 594.260519 91.690898 
L 609.71929 98.949402 
L 625.178061 105.794727 
L 640.636832 112.136862 
L 656.095603 118.26828 
L 671.554374 124.188811 
L 687.013145 128.093196 
L 702.471916 133.963013 
L 717.877011 139.390257 
L 733.335782 144.705103 
L 744.225806 148.362913 
" clip-path="url(#p32614066c2)" style="fill: none; stroke-dasharray: 1.5,2.475; stroke-dashoffset: 0; stroke: #ff00ff; stroke-width: 1.5"/>
   </g>
   <g id="line2d_77">
    <path d="M 269.787355 46.158945 
L 285.246126 46.158945 
L 300.704897 46.158945 
L 316.163669 46.158945 
L 331.62244 46.158945 
L 347.027534 46.158945 
L 362.486305 46.158945 
L 377.945076 46.158945 
L 393.403847 46.158945 
L 408.857251 46.158945 
L 424.310654 46.158945 
L 439.764058 46.158945 
L 455.214777 46.158945 
L 470.665497 46.158945 
L 486.1189 46.158945 
L 501.572304 47.223882 
L 517.02034 52.237033 
L 532.479111 60.399798 
L 547.937882 69.500504 
L 563.396653 78.230457 
L 578.855424 83.785318 
L 594.260519 91.554096 
L 609.71929 98.775109 
L 625.178061 105.575746 
L 640.636832 112.136862 
L 656.095603 118.368529 
L 671.554374 124.351927 
L 687.013145 128.232547 
L 702.471916 133.906666 
L 717.877011 139.525818 
L 733.335782 144.948452 
L 744.225806 148.776121 
" clip-path="url(#p32614066c2)" style="fill: none; stroke: #ffa500; stroke-width: 1.5; stroke-linecap: square"/>
   </g>
   <g id="line2d_78">
    <path d="M 269.787355 46.158945 
L 285.246126 46.158945 
L 300.704897 46.158945 
L 316.163669 46.158945 
L 331.62244 46.158945 
L 347.027534 46.158945 
L 362.486305 46.158945 
L 377.945076 46.158945 
L 393.403847 46.158945 
L 408.857251 46.158945 
L 424.310654 46.158945 
L 439.764058 46.158945 
L 455.214777 46.158945 
L 470.665497 46.158945 
L 486.1189 46.158945 
L 501.572304 47.472715 
L 517.02034 53.01636 
L 532.479111 61.829323 
L 547.937882 71.735762 
L 563.396653 81.652959 
L 578.855424 88.200716 
L 594.260519 97.582713 
L 609.71929 106.461472 
L 625.178061 115.13562 
L 640.636832 123.62481 
L 656.095603 131.788154 
L 671.554374 139.936228 
L 687.013145 145.111792 
L 702.471916 152.823409 
L 717.877011 160.655173 
L 733.335782 167.951561 
L 744.225806 172.805694 
" clip-path="url(#p32614066c2)" style="fill: none; stroke-dasharray: 5.55,2.4; stroke-dashoffset: 0; stroke: #ffa500; stroke-width: 1.5"/>
   </g>
   <g id="line2d_79">
    <path d="M 269.787355 46.158945 
L 285.246126 46.158945 
L 300.704897 46.158945 
L 316.163669 46.158945 
L 331.62244 46.158945 
L 347.027534 46.158945 
L 362.486305 46.158945 
L 377.945076 46.158945 
L 393.403847 46.158945 
L 408.857251 46.158945 
L 424.310654 46.158945 
L 439.764058 46.158945 
L 455.214777 46.158945 
L 470.665497 46.158945 
L 486.1189 46.158945 
L 501.572304 47.348039 
L 517.02034 52.754321 
L 532.479111 61.428093 
L 547.937882 71.040589 
L 563.396653 80.311466 
L 578.855424 86.08156 
L 594.260519 94.266845 
L 609.71929 101.88586 
L 625.178061 108.797904 
L 640.636832 115.742569 
L 656.095603 122.221579 
L 671.554374 128.654547 
L 687.013145 132.801508 
L 702.471916 139.05402 
L 717.877011 145.111792 
L 733.335782 150.874414 
L 744.225806 154.952761 
" clip-path="url(#p32614066c2)" style="fill: none; stroke-dasharray: 1.5,2.475; stroke-dashoffset: 0; stroke: #ffa500; stroke-width: 1.5"/>
   </g>
   <g id="patch_9">
    <path d="M 403.978076 252.639481 
L 403.978076 25.44 
" style="fill: none; stroke: #000000; stroke-width: 0.8; stroke-linejoin: miter; stroke-linecap: square"/>
   </g>
   <g id="patch_10">
    <path d="M 726.035806 252.639481 
L 726.035806 25.44 
" style="fill: none; stroke: #000000; stroke-width: 0.8; stroke-linejoin: miter; stroke-linecap: square"/>
   </g>
   <g id="patch_11">
    <path d="M 403.978076 252.639481 
L 726.035806 252.639481 
" style="fill: none; stroke: #000000; stroke-width: 0.8; stroke-linejoin: miter; stroke-linecap: square"/>
   </g>
   <g id="patch_12">
    <path d="M 403.978076 25.44 
L 726.035806 25.44 
" style="fill: none; stroke: #000000; stroke-width: 0.8; stroke-linejoin: miter; stroke-linecap: square"/>
   </g>
   <g id="text_36">
    <!-- Foldseek (logscale) -->
    <g transform="translate(507.446316 19.44) scale(0.12 -0.12)">
     <defs>
      <path id="DejaVuSans-20" transform="scale(0.015625)"/>
      <path id="DejaVuSans-28" d="M 1984 4856 
Q 1566 4138 1362 3434 
Q 1159 2731 1159 2009 
Q 1159 1288 1364 580 
Q 1569 -128 1984 -844 
L 1484 -844 
Q 1016 -109 783 600 
Q 550 1309 550 2009 
Q 550 2706 781 3412 
Q 1013 4119 1484 4856 
L 1984 4856 
z
" transform="scale(0.015625)"/>
      <path id="DejaVuSans-67" d="M 2906 1791 
Q 2906 2416 2648 2759 
Q 2391 3103 1925 3103 
Q 1463 3103 1205 2759 
Q 947 2416 947 1791 
Q 947 1169 1205 825 
Q 1463 481 1925 481 
Q 2391 481 2648 825 
Q 2906 1169 2906 1791 
z
M 3481 434 
Q 3481 -459 3084 -895 
Q 2688 -1331 1869 -1331 
Q 1566 -1331 1297 -1286 
Q 1028 -1241 775 -1147 
L 775 -588 
Q 1028 -725 1275 -790 
Q 1522 -856 1778 -856 
Q 2344 -856 2625 -561 
Q 2906 -266 2906 331 
L 2906 616 
Q 2728 306 2450 153 
Q 2172 0 1784 0 
Q 1141 0 747 490 
Q 353 981 353 1791 
Q 353 2603 747 3093 
Q 1141 3584 1784 3584 
Q 2172 3584 2450 3431 
Q 2728 3278 2906 2969 
L 2906 3500 
L 3481 3500 
L 3481 434 
z
" transform="scale(0.015625)"/>
      <path id="DejaVuSans-61" d="M 2194 1759 
Q 1497 1759 1228 1600 
Q 959 1441 959 1056 
Q 959 750 1161 570 
Q 1363 391 1709 391 
Q 2188 391 2477 730 
Q 2766 1069 2766 1631 
L 2766 1759 
L 2194 1759 
z
M 3341 1997 
L 3341 0 
L 2766 0 
L 2766 531 
Q 2569 213 2275 61 
Q 1981 -91 1556 -91 
Q 1019 -91 701 211 
Q 384 513 384 1019 
Q 384 1609 779 1909 
Q 1175 2209 1959 2209 
L 2766 2209 
L 2766 2266 
Q 2766 2663 2505 2880 
Q 2244 3097 1772 3097 
Q 1472 3097 1187 3025 
Q 903 2953 641 2809 
L 641 3341 
Q 956 3463 1253 3523 
Q 1550 3584 1831 3584 
Q 2591 3584 2966 3190 
Q 3341 2797 3341 1997 
z
" transform="scale(0.015625)"/>
      <path id="DejaVuSans-29" d="M 513 4856 
L 1013 4856 
Q 1481 4119 1714 3412 
Q 1947 2706 1947 2009 
Q 1947 1309 1714 600 
Q 1481 -109 1013 -844 
L 513 -844 
Q 928 -128 1133 580 
Q 1338 1288 1338 2009 
Q 1338 2731 1133 3434 
Q 928 4138 513 4856 
z
" transform="scale(0.015625)"/>
     </defs>
     <use xlink:href="#DejaVuSans-46"/>
     <use xlink:href="#DejaVuSans-6f" transform="translate(53.894531 0)"/>
     <use xlink:href="#DejaVuSans-6c" transform="translate(115.076172 0)"/>
     <use xlink:href="#DejaVuSans-64" transform="translate(142.859375 0)"/>
     <use xlink:href="#DejaVuSans-73" transform="translate(206.335938 0)"/>
     <use xlink:href="#DejaVuSans-65" transform="translate(258.435547 0)"/>
     <use xlink:href="#DejaVuSans-65" transform="translate(319.958984 0)"/>
     <use xlink:href="#DejaVuSans-6b" transform="translate(381.482422 0)"/>
     <use xlink:href="#DejaVuSans-20" transform="translate(439.392578 0)"/>
     <use xlink:href="#DejaVuSans-28" transform="translate(471.179688 0)"/>
     <use xlink:href="#DejaVuSans-6c" transform="translate(510.193359 0)"/>
     <use xlink:href="#DejaVuSans-6f" transform="translate(537.976562 0)"/>
     <use xlink:href="#DejaVuSans-67" transform="translate(599.158203 0)"/>
     <use xlink:href="#DejaVuSans-73" transform="translate(662.634766 0)"/>
     <use xlink:href="#DejaVuSans-63" transform="translate(714.734375 0)"/>
     <use xlink:href="#DejaVuSans-61" transform="translate(769.714844 0)"/>
     <use xlink:href="#DejaVuSans-6c" transform="translate(830.994141 0)"/>
     <use xlink:href="#DejaVuSans-65" transform="translate(858.777344 0)"/>
     <use xlink:href="#DejaVuSans-29" transform="translate(920.300781 0)"/>
    </g>
   </g>
   <g id="legend_2">
    <g id="patch_13">
     <path d="M 410.978076 247.639481 
L 504.767139 247.639481 
Q 506.767139 247.639481 506.767139 245.639481 
L 506.767139 99.858231 
Q 506.767139 97.858231 504.767139 97.858231 
L 410.978076 97.858231 
Q 408.978076 97.858231 408.978076 99.858231 
L 408.978076 245.639481 
Q 408.978076 247.639481 410.978076 247.639481 
z
" style="fill: #ffffff; opacity: 0.8; stroke: #cccccc; stroke-linejoin: miter"/>
    </g>
    <g id="line2d_80">
     <path d="M 412.978076 105.956668 
L 422.978076 105.956668 
L 432.978076 105.956668 
" style="fill: none; stroke-dasharray: 9.6,2.4,1.5,2.4; stroke-dashoffset: 0; stroke: #000000; stroke-width: 1.5"/>
    </g>
    <g id="text_37">
     <!-- SCOP40x8 -->
     <g transform="translate(440.978076 109.456668) scale(0.1 -0.1)">
      <use xlink:href="#DejaVuSans-53"/>
      <use xlink:href="#DejaVuSans-43" transform="translate(63.476562 0)"/>
      <use xlink:href="#DejaVuSans-4f" transform="translate(133.300781 0)"/>
      <use xlink:href="#DejaVuSans-50" transform="translate(212.011719 0)"/>
      <use xlink:href="#DejaVuSans-34" transform="translate(272.314453 0)"/>
      <use xlink:href="#DejaVuSans-30" transform="translate(335.9375 0)"/>
      <use xlink:href="#DejaVuSans-78" transform="translate(399.560547 0)"/>
      <use xlink:href="#DejaVuSans-38" transform="translate(458.740234 0)"/>
     </g>
    </g>
    <g id="line2d_81">
     <path d="M 412.978076 120.634793 
L 422.978076 120.634793 
L 432.978076 120.634793 
" style="fill: none; stroke: #d2691e; stroke-width: 1.5; stroke-linecap: square"/>
    </g>
    <g id="text_38">
     <!-- CATH40 -->
     <g transform="translate(440.978076 124.134793) scale(0.1 -0.1)">
      <use xlink:href="#DejaVuSans-43"/>
      <use xlink:href="#DejaVuSans-41" transform="translate(69.824219 0)"/>
      <use xlink:href="#DejaVuSans-54" transform="translate(130.482422 0)"/>
      <use xlink:href="#DejaVuSans-48" transform="translate(191.566406 0)"/>
      <use xlink:href="#DejaVuSans-34" transform="translate(266.761719 0)"/>
      <use xlink:href="#DejaVuSans-30" transform="translate(330.384766 0)"/>
     </g>
    </g>
    <g id="line2d_82">
     <path d="M 412.978076 135.312918 
L 422.978076 135.312918 
L 432.978076 135.312918 
" style="fill: none; stroke: #000000; stroke-width: 1.5; stroke-linecap: square"/>
    </g>
    <g id="text_39">
     <!-- SCOP40 -->
     <g transform="translate(440.978076 138.812918) scale(0.1 -0.1)">
      <use xlink:href="#DejaVuSans-53"/>
      <use xlink:href="#DejaVuSans-43" transform="translate(63.476562 0)"/>
      <use xlink:href="#DejaVuSans-4f" transform="translate(133.300781 0)"/>
      <use xlink:href="#DejaVuSans-50" transform="translate(212.011719 0)"/>
      <use xlink:href="#DejaVuSans-34" transform="translate(272.314453 0)"/>
      <use xlink:href="#DejaVuSans-30" transform="translate(335.9375 0)"/>
     </g>
    </g>
    <g id="line2d_83">
     <path d="M 412.978076 149.991043 
L 422.978076 149.991043 
L 432.978076 149.991043 
" style="fill: none; stroke: #00ffff; stroke-width: 1.5; stroke-linecap: square"/>
    </g>
    <g id="text_40">
     <!-- SCOP40c -->
     <g transform="translate(440.978076 153.491043) scale(0.1 -0.1)">
      <use xlink:href="#DejaVuSans-53"/>
      <use xlink:href="#DejaVuSans-43" transform="translate(63.476562 0)"/>
      <use xlink:href="#DejaVuSans-4f" transform="translate(133.300781 0)"/>
      <use xlink:href="#DejaVuSans-50" transform="translate(212.011719 0)"/>
      <use xlink:href="#DejaVuSans-34" transform="translate(272.314453 0)"/>
      <use xlink:href="#DejaVuSans-30" transform="translate(335.9375 0)"/>
      <use xlink:href="#DejaVuSans-63" transform="translate(399.560547 0)"/>
     </g>
    </g>
    <g id="line2d_84">
     <path d="M 412.978076 164.669168 
L 422.978076 164.669168 
L 432.978076 164.669168 
" style="fill: none; stroke: #ff00ff; stroke-width: 1.5; stroke-linecap: square"/>
    </g>
    <g id="text_41">
     <!-- SCOP40/N2 -->
     <g transform="translate(440.978076 168.169168) scale(0.1 -0.1)">
      <use xlink:href="#DejaVuSans-53"/>
      <use xlink:href="#DejaVuSans-43" transform="translate(63.476562 0)"/>
      <use xlink:href="#DejaVuSans-4f" transform="translate(133.300781 0)"/>
      <use xlink:href="#DejaVuSans-50" transform="translate(212.011719 0)"/>
      <use xlink:href="#DejaVuSans-34" transform="translate(272.314453 0)"/>
      <use xlink:href="#DejaVuSans-30" transform="translate(335.9375 0)"/>
      <use xlink:href="#DejaVuSans-2f" transform="translate(399.560547 0)"/>
      <use xlink:href="#DejaVuSans-4e" transform="translate(433.251953 0)"/>
      <use xlink:href="#DejaVuSans-32" transform="translate(508.056641 0)"/>
     </g>
    </g>
    <g id="line2d_85">
     <path d="M 412.978076 179.347293 
L 422.978076 179.347293 
L 432.978076 179.347293 
" style="fill: none; stroke-dasharray: 5.55,2.4; stroke-dashoffset: 0; stroke: #ff00ff; stroke-width: 1.5"/>
    </g>
    <g id="text_42">
     <!-- SCOP40/N4 -->
     <g transform="translate(440.978076 182.847293) scale(0.1 -0.1)">
      <use xlink:href="#DejaVuSans-53"/>
      <use xlink:href="#DejaVuSans-43" transform="translate(63.476562 0)"/>
      <use xlink:href="#DejaVuSans-4f" transform="translate(133.300781 0)"/>
      <use xlink:href="#DejaVuSans-50" transform="translate(212.011719 0)"/>
      <use xlink:href="#DejaVuSans-34" transform="translate(272.314453 0)"/>
      <use xlink:href="#DejaVuSans-30" transform="translate(335.9375 0)"/>
      <use xlink:href="#DejaVuSans-2f" transform="translate(399.560547 0)"/>
      <use xlink:href="#DejaVuSans-4e" transform="translate(433.251953 0)"/>
      <use xlink:href="#DejaVuSans-34" transform="translate(508.056641 0)"/>
     </g>
    </g>
    <g id="line2d_86">
     <path d="M 412.978076 194.025418 
L 422.978076 194.025418 
L 432.978076 194.025418 
" style="fill: none; stroke-dasharray: 1.5,2.475; stroke-dashoffset: 0; stroke: #ff00ff; stroke-width: 1.5"/>
    </g>
    <g id="text_43">
     <!-- SCOP40/N8 -->
     <g transform="translate(440.978076 197.525418) scale(0.1 -0.1)">
      <use xlink:href="#DejaVuSans-53"/>
      <use xlink:href="#DejaVuSans-43" transform="translate(63.476562 0)"/>
      <use xlink:href="#DejaVuSans-4f" transform="translate(133.300781 0)"/>
      <use xlink:href="#DejaVuSans-50" transform="translate(212.011719 0)"/>
      <use xlink:href="#DejaVuSans-34" transform="translate(272.314453 0)"/>
      <use xlink:href="#DejaVuSans-30" transform="translate(335.9375 0)"/>
      <use xlink:href="#DejaVuSans-2f" transform="translate(399.560547 0)"/>
      <use xlink:href="#DejaVuSans-4e" transform="translate(433.251953 0)"/>
      <use xlink:href="#DejaVuSans-38" transform="translate(508.056641 0)"/>
     </g>
    </g>
    <g id="line2d_87">
     <path d="M 412.978076 208.703543 
L 422.978076 208.703543 
L 432.978076 208.703543 
" style="fill: none; stroke: #ffa500; stroke-width: 1.5; stroke-linecap: square"/>
    </g>
    <g id="text_44">
     <!-- SCOP40/SF2 -->
     <g transform="translate(440.978076 212.203543) scale(0.1 -0.1)">
      <use xlink:href="#DejaVuSans-53"/>
      <use xlink:href="#DejaVuSans-43" transform="translate(63.476562 0)"/>
      <use xlink:href="#DejaVuSans-4f" transform="translate(133.300781 0)"/>
      <use xlink:href="#DejaVuSans-50" transform="translate(212.011719 0)"/>
      <use xlink:href="#DejaVuSans-34" transform="translate(272.314453 0)"/>
      <use xlink:href="#DejaVuSans-30" transform="translate(335.9375 0)"/>
      <use xlink:href="#DejaVuSans-2f" transform="translate(399.560547 0)"/>
      <use xlink:href="#DejaVuSans-53" transform="translate(433.251953 0)"/>
      <use xlink:href="#DejaVuSans-46" transform="translate(496.728516 0)"/>
      <use xlink:href="#DejaVuSans-32" transform="translate(554.248047 0)"/>
     </g>
    </g>
    <g id="line2d_88">
     <path d="M 412.978076 223.381668 
L 422.978076 223.381668 
L 432.978076 223.381668 
" style="fill: none; stroke-dasharray: 5.55,2.4; stroke-dashoffset: 0; stroke: #ffa500; stroke-width: 1.5"/>
    </g>
    <g id="text_45">
     <!-- SCOP40/SF4 -->
     <g transform="translate(440.978076 226.881668) scale(0.1 -0.1)">
      <use xlink:href="#DejaVuSans-53"/>
      <use xlink:href="#DejaVuSans-43" transform="translate(63.476562 0)"/>
      <use xlink:href="#DejaVuSans-4f" transform="translate(133.300781 0)"/>
      <use xlink:href="#DejaVuSans-50" transform="translate(212.011719 0)"/>
      <use xlink:href="#DejaVuSans-34" transform="translate(272.314453 0)"/>
      <use xlink:href="#DejaVuSans-30" transform="translate(335.9375 0)"/>
      <use xlink:href="#DejaVuSans-2f" transform="translate(399.560547 0)"/>
      <use xlink:href="#DejaVuSans-53" transform="translate(433.251953 0)"/>
      <use xlink:href="#DejaVuSans-46" transform="translate(496.728516 0)"/>
      <use xlink:href="#DejaVuSans-34" transform="translate(554.248047 0)"/>
     </g>
    </g>
    <g id="line2d_89">
     <path d="M 412.978076 238.059793 
L 422.978076 238.059793 
L 432.978076 238.059793 
" style="fill: none; stroke-dasharray: 1.5,2.475; stroke-dashoffset: 0; stroke: #ffa500; stroke-width: 1.5"/>
    </g>
    <g id="text_46">
     <!-- SCOP40/SF8 -->
     <g transform="translate(440.978076 241.559793) scale(0.1 -0.1)">
      <use xlink:href="#DejaVuSans-53"/>
      <use xlink:href="#DejaVuSans-43" transform="translate(63.476562 0)"/>
      <use xlink:href="#DejaVuSans-4f" transform="translate(133.300781 0)"/>
      <use xlink:href="#DejaVuSans-50" transform="translate(212.011719 0)"/>
      <use xlink:href="#DejaVuSans-34" transform="translate(272.314453 0)"/>
      <use xlink:href="#DejaVuSans-30" transform="translate(335.9375 0)"/>
      <use xlink:href="#DejaVuSans-2f" transform="translate(399.560547 0)"/>
      <use xlink:href="#DejaVuSans-53" transform="translate(433.251953 0)"/>
      <use xlink:href="#DejaVuSans-46" transform="translate(496.728516 0)"/>
      <use xlink:href="#DejaVuSans-38" transform="translate(554.248047 0)"/>
     </g>
    </g>
   </g>
  </g>
  <g id="text_47">
   <!-- ../plots/C_score_F.foldseekb.svg -->
   <g transform="translate(276.987278 14.728515) scale(0.12 -0.12)">
    <defs>
     <path id="DejaVuSans-70" d="M 1159 525 
L 1159 -1331 
L 581 -1331 
L 581 3500 
L 1159 3500 
L 1159 2969 
Q 1341 3281 1617 3432 
Q 1894 3584 2278 3584 
Q 2916 3584 3314 3078 
Q 3713 2572 3713 1747 
Q 3713 922 3314 415 
Q 2916 -91 2278 -91 
Q 1894 -91 1617 61 
Q 1341 213 1159 525 
z
M 3116 1747 
Q 3116 2381 2855 2742 
Q 2594 3103 2138 3103 
Q 1681 3103 1420 2742 
Q 1159 2381 1159 1747 
Q 1159 1113 1420 752 
Q 1681 391 2138 391 
Q 2594 391 2855 752 
Q 3116 1113 3116 1747 
z
" transform="scale(0.015625)"/>
     <path id="DejaVuSans-74" d="M 1172 4494 
L 1172 3500 
L 2356 3500 
L 2356 3053 
L 1172 3053 
L 1172 1153 
Q 1172 725 1289 603 
Q 1406 481 1766 481 
L 2356 481 
L 2356 0 
L 1766 0 
Q 1100 0 847 248 
Q 594 497 594 1153 
L 594 3053 
L 172 3053 
L 172 3500 
L 594 3500 
L 594 4494 
L 1172 4494 
z
" transform="scale(0.015625)"/>
     <path id="DejaVuSans-5f" d="M 3263 -1063 
L 3263 -1509 
L -63 -1509 
L -63 -1063 
L 3263 -1063 
z
" transform="scale(0.015625)"/>
     <path id="DejaVuSans-72" d="M 2631 2963 
Q 2534 3019 2420 3045 
Q 2306 3072 2169 3072 
Q 1681 3072 1420 2755 
Q 1159 2438 1159 1844 
L 1159 0 
L 581 0 
L 581 3500 
L 1159 3500 
L 1159 2956 
Q 1341 3275 1631 3429 
Q 1922 3584 2338 3584 
Q 2397 3584 2469 3576 
Q 2541 3569 2628 3553 
L 2631 2963 
z
" transform="scale(0.015625)"/>
     <path id="DejaVuSans-66" d="M 2375 4863 
L 2375 4384 
L 1825 4384 
Q 1516 4384 1395 4259 
Q 1275 4134 1275 3809 
L 1275 3500 
L 2222 3500 
L 2222 3053 
L 1275 3053 
L 1275 0 
L 697 0 
L 697 3053 
L 147 3053 
L 147 3500 
L 697 3500 
L 697 3744 
Q 697 4328 969 4595 
Q 1241 4863 1831 4863 
L 2375 4863 
z
" transform="scale(0.015625)"/>
     <path id="DejaVuSans-62" d="M 3116 1747 
Q 3116 2381 2855 2742 
Q 2594 3103 2138 3103 
Q 1681 3103 1420 2742 
Q 1159 2381 1159 1747 
Q 1159 1113 1420 752 
Q 1681 391 2138 391 
Q 2594 391 2855 752 
Q 3116 1113 3116 1747 
z
M 1159 2969 
Q 1341 3281 1617 3432 
Q 1894 3584 2278 3584 
Q 2916 3584 3314 3078 
Q 3713 2572 3713 1747 
Q 3713 922 3314 415 
Q 2916 -91 2278 -91 
Q 1894 -91 1617 61 
Q 1341 213 1159 525 
L 1159 0 
L 581 0 
L 581 4863 
L 1159 4863 
L 1159 2969 
z
" transform="scale(0.015625)"/>
     <path id="DejaVuSans-76" d="M 191 3500 
L 800 3500 
L 1894 563 
L 2988 3500 
L 3597 3500 
L 2284 0 
L 1503 0 
L 191 3500 
z
" transform="scale(0.015625)"/>
    </defs>
    <use xlink:href="#DejaVuSans-2e"/>
    <use xlink:href="#DejaVuSans-2e" transform="translate(31.787109 0)"/>
    <use xlink:href="#DejaVuSans-2f" transform="translate(63.574219 0)"/>
    <use xlink:href="#DejaVuSans-70" transform="translate(97.265625 0)"/>
    <use xlink:href="#DejaVuSans-6c" transform="translate(160.742188 0)"/>
    <use xlink:href="#DejaVuSans-6f" transform="translate(188.525391 0)"/>
    <use xlink:href="#DejaVuSans-74" transform="translate(249.707031 0)"/>
    <use xlink:href="#DejaVuSans-73" transform="translate(288.916016 0)"/>
    <use xlink:href="#DejaVuSans-2f" transform="translate(341.015625 0)"/>
    <use xlink:href="#DejaVuSans-43" transform="translate(374.707031 0)"/>
    <use xlink:href="#DejaVuSans-5f" transform="translate(444.53125 0)"/>
    <use xlink:href="#DejaVuSans-73" transform="translate(494.53125 0)"/>
    <use xlink:href="#DejaVuSans-63" transform="translate(546.630859 0)"/>
    <use xlink:href="#DejaVuSans-6f" transform="translate(601.611328 0)"/>
    <use xlink:href="#DejaVuSans-72" transform="translate(662.792969 0)"/>
    <use xlink:href="#DejaVuSans-65" transform="translate(701.65625 0)"/>
    <use xlink:href="#DejaVuSans-5f" transform="translate(763.179688 0)"/>
    <use xlink:href="#DejaVuSans-46" transform="translate(813.179688 0)"/>
    <use xlink:href="#DejaVuSans-2e" transform="translate(854.574219 0)"/>
    <use xlink:href="#DejaVuSans-66" transform="translate(886.361328 0)"/>
    <use xlink:href="#DejaVuSans-6f" transform="translate(921.566406 0)"/>
    <use xlink:href="#DejaVuSans-6c" transform="translate(982.748047 0)"/>
    <use xlink:href="#DejaVuSans-64" transform="translate(1010.53125 0)"/>
    <use xlink:href="#DejaVuSans-73" transform="translate(1074.007812 0)"/>
    <use xlink:href="#DejaVuSans-65" transform="translate(1126.107422 0)"/>
    <use xlink:href="#DejaVuSans-65" transform="translate(1187.630859 0)"/>
    <use xlink:href="#DejaVuSans-6b" transform="translate(1249.154297 0)"/>
    <use xlink:href="#DejaVuSans-62" transform="translate(1307.064453 0)"/>
    <use xlink:href="#DejaVuSans-2e" transform="translate(1370.541016 0)"/>
    <use xlink:href="#DejaVuSans-73" transform="translate(1402.328125 0)"/>
    <use xlink:href="#DejaVuSans-76" transform="translate(1454.427734 0)"/>
    <use xlink:href="#DejaVuSans-67" transform="translate(1513.607422 0)"/>
   </g>
  </g>
 </g>
 <defs>
  <clipPath id="p0427d01ef7">
   <rect x="33.73" y="25.44" width="322.05773" height="227.199481"/>
  </clipPath>
  <clipPath id="p32614066c2">
   <rect x="403.978076" y="25.44" width="322.05773" height="227.199481"/>
  </clipPath>
 </defs>
</svg>
