<?xml version="1.0" encoding="utf-8" standalone="no"?>
<!DOCTYPE svg PUBLIC "-//W3C//DTD SVG 1.1//EN"
  "http://www.w3.org/Graphics/SVG/1.1/DTD/svg11.dtd">
<svg xmlns:xlink="http://www.w3.org/1999/xlink" width="743.225806pt" height="280.519481pt" viewBox="0 0 743.225806 280.519481" xmlns="http://www.w3.org/2000/svg" version="1.1">
 <metadata>
  <rdf:RDF xmlns:dc="http://purl.org/dc/elements/1.1/" xmlns:cc="http://creativecommons.org/ns#" xmlns:rdf="http://www.w3.org/1999/02/22-rdf-syntax-ns#">
   <cc:Work>
    <dc:type rdf:resource="http://purl.org/dc/dcmitype/StillImage"/>
    <dc:date>2025-05-29T12:14:20.169396</dc:date>
    <dc:format>image/svg+xml</dc:format>
    <dc:creator>
     <cc:Agent>
      <dc:title>Matplotlib v3.10.3, https://matplotlib.org/</dc:title>
     </cc:Agent>
    </dc:creator>
   </cc:Work>
  </rdf:RDF>
 </metadata>
 <defs>
  <style type="text/css">*{stroke-linejoin: round; stroke-linecap: butt}</style>
 </defs>
 <g id="figure_1">
  <g id="patch_1">
   <path d="M 0 280.519481 
L 743.225806 280.519481 
L 743.225806 0 
L 0 0 
z
" style="fill: #ffffff"/>
  </g>
  <g id="axes_1">
   <g id="patch_2">
    <path d="M 33.73 252.639481 
L 351.01773 252.639481 
L 351.01773 25.44 
L 33.73 25.44 
z
" style="fill: #ffffff"/>
   </g>
   <g id="matplotlib.axis_1">
    <g id="xtick_1">
     <g id="line2d_1">
      <defs>
       <path id="ma411e0def1" d="M 0 0 
L 0 3.5 
" style="stroke: #000000; stroke-width: 0.8"/>
      </defs>
      <g>
       <use xlink:href="#ma411e0def1" x="33.73" y="252.639481" style="stroke: #000000; stroke-width: 0.8"/>
      </g>
     </g>
     <g id="text_1">
      <!-- −0.10 -->
      <g transform="translate(18.407344 267.237918) scale(0.1 -0.1)">
       <defs>
        <path id="DejaVuSans-2212" d="M 678 2272 
L 4684 2272 
L 4684 1741 
L 678 1741 
L 678 2272 
z
" transform="scale(0.015625)"/>
        <path id="DejaVuSans-30" d="M 2034 4250 
Q 1547 4250 1301 3770 
Q 1056 3291 1056 2328 
Q 1056 1369 1301 889 
Q 1547 409 2034 409 
Q 2525 409 2770 889 
Q 3016 1369 3016 2328 
Q 3016 3291 2770 3770 
Q 2525 4250 2034 4250 
z
M 2034 4750 
Q 2819 4750 3233 4129 
Q 3647 3509 3647 2328 
Q 3647 1150 3233 529 
Q 2819 -91 2034 -91 
Q 1250 -91 836 529 
Q 422 1150 422 2328 
Q 422 3509 836 4129 
Q 1250 4750 2034 4750 
z
" transform="scale(0.015625)"/>
        <path id="DejaVuSans-2e" d="M 684 794 
L 1344 794 
L 1344 0 
L 684 0 
L 684 794 
z
" transform="scale(0.015625)"/>
        <path id="DejaVuSans-31" d="M 794 531 
L 1825 531 
L 1825 4091 
L 703 3866 
L 703 4441 
L 1819 4666 
L 2450 4666 
L 2450 531 
L 3481 531 
L 3481 0 
L 794 0 
L 794 531 
z
" transform="scale(0.015625)"/>
       </defs>
       <use xlink:href="#DejaVuSans-2212"/>
       <use xlink:href="#DejaVuSans-30" transform="translate(83.789062 0)"/>
       <use xlink:href="#DejaVuSans-2e" transform="translate(147.412109 0)"/>
       <use xlink:href="#DejaVuSans-31" transform="translate(179.199219 0)"/>
       <use xlink:href="#DejaVuSans-30" transform="translate(242.822266 0)"/>
      </g>
     </g>
    </g>
    <g id="xtick_2">
     <g id="line2d_2">
      <g>
       <use xlink:href="#ma411e0def1" x="97.187546" y="252.639481" style="stroke: #000000; stroke-width: 0.8"/>
      </g>
     </g>
     <g id="text_2">
      <!-- −0.05 -->
      <g transform="translate(81.86489 267.237918) scale(0.1 -0.1)">
       <defs>
        <path id="DejaVuSans-35" d="M 691 4666 
L 3169 4666 
L 3169 4134 
L 1269 4134 
L 1269 2991 
Q 1406 3038 1543 3061 
Q 1681 3084 1819 3084 
Q 2600 3084 3056 2656 
Q 3513 2228 3513 1497 
Q 3513 744 3044 326 
Q 2575 -91 1722 -91 
Q 1428 -91 1123 -41 
Q 819 9 494 109 
L 494 744 
Q 775 591 1075 516 
Q 1375 441 1709 441 
Q 2250 441 2565 725 
Q 2881 1009 2881 1497 
Q 2881 1984 2565 2268 
Q 2250 2553 1709 2553 
Q 1456 2553 1204 2497 
Q 953 2441 691 2322 
L 691 4666 
z
" transform="scale(0.015625)"/>
       </defs>
       <use xlink:href="#DejaVuSans-2212"/>
       <use xlink:href="#DejaVuSans-30" transform="translate(83.789062 0)"/>
       <use xlink:href="#DejaVuSans-2e" transform="translate(147.412109 0)"/>
       <use xlink:href="#DejaVuSans-30" transform="translate(179.199219 0)"/>
       <use xlink:href="#DejaVuSans-35" transform="translate(242.822266 0)"/>
      </g>
     </g>
    </g>
    <g id="xtick_3">
     <g id="line2d_3">
      <g>
       <use xlink:href="#ma411e0def1" x="160.645092" y="252.639481" style="stroke: #000000; stroke-width: 0.8"/>
      </g>
     </g>
     <g id="text_3">
      <!-- 0.00 -->
      <g transform="translate(149.51228 267.237918) scale(0.1 -0.1)">
       <use xlink:href="#DejaVuSans-30"/>
       <use xlink:href="#DejaVuSans-2e" transform="translate(63.623047 0)"/>
       <use xlink:href="#DejaVuSans-30" transform="translate(95.410156 0)"/>
       <use xlink:href="#DejaVuSans-30" transform="translate(159.033203 0)"/>
      </g>
     </g>
    </g>
    <g id="xtick_4">
     <g id="line2d_4">
      <g>
       <use xlink:href="#ma411e0def1" x="224.102638" y="252.639481" style="stroke: #000000; stroke-width: 0.8"/>
      </g>
     </g>
     <g id="text_4">
      <!-- 0.05 -->
      <g transform="translate(212.969826 267.237918) scale(0.1 -0.1)">
       <use xlink:href="#DejaVuSans-30"/>
       <use xlink:href="#DejaVuSans-2e" transform="translate(63.623047 0)"/>
       <use xlink:href="#DejaVuSans-30" transform="translate(95.410156 0)"/>
       <use xlink:href="#DejaVuSans-35" transform="translate(159.033203 0)"/>
      </g>
     </g>
    </g>
    <g id="xtick_5">
     <g id="line2d_5">
      <g>
       <use xlink:href="#ma411e0def1" x="287.560184" y="252.639481" style="stroke: #000000; stroke-width: 0.8"/>
      </g>
     </g>
     <g id="text_5">
      <!-- 0.10 -->
      <g transform="translate(276.427372 267.237918) scale(0.1 -0.1)">
       <use xlink:href="#DejaVuSans-30"/>
       <use xlink:href="#DejaVuSans-2e" transform="translate(63.623047 0)"/>
       <use xlink:href="#DejaVuSans-31" transform="translate(95.410156 0)"/>
       <use xlink:href="#DejaVuSans-30" transform="translate(159.033203 0)"/>
      </g>
     </g>
    </g>
    <g id="xtick_6">
     <g id="line2d_6">
      <g>
       <use xlink:href="#ma411e0def1" x="351.01773" y="252.639481" style="stroke: #000000; stroke-width: 0.8"/>
      </g>
     </g>
     <g id="text_6">
      <!-- 0.15 -->
      <g transform="translate(339.884918 267.237918) scale(0.1 -0.1)">
       <use xlink:href="#DejaVuSans-30"/>
       <use xlink:href="#DejaVuSans-2e" transform="translate(63.623047 0)"/>
       <use xlink:href="#DejaVuSans-31" transform="translate(95.410156 0)"/>
       <use xlink:href="#DejaVuSans-35" transform="translate(159.033203 0)"/>
      </g>
     </g>
    </g>
   </g>
   <g id="matplotlib.axis_2">
    <g id="ytick_1">
     <g id="line2d_7">
      <defs>
       <path id="m7810cd584c" d="M 0 0 
L -3.5 0 
" style="stroke: #000000; stroke-width: 0.8"/>
      </defs>
      <g>
       <use xlink:href="#m7810cd584c" x="33.73" y="242.312231" style="stroke: #000000; stroke-width: 0.8"/>
      </g>
     </g>
     <g id="text_7">
      <!-- 0.0 -->
      <g transform="translate(10.826875 246.11145) scale(0.1 -0.1)">
       <use xlink:href="#DejaVuSans-30"/>
       <use xlink:href="#DejaVuSans-2e" transform="translate(63.623047 0)"/>
       <use xlink:href="#DejaVuSans-30" transform="translate(95.410156 0)"/>
      </g>
     </g>
    </g>
    <g id="ytick_2">
     <g id="line2d_8">
      <g>
       <use xlink:href="#m7810cd584c" x="33.73" y="201.003235" style="stroke: #000000; stroke-width: 0.8"/>
      </g>
     </g>
     <g id="text_8">
      <!-- 0.2 -->
      <g transform="translate(10.826875 204.802454) scale(0.1 -0.1)">
       <defs>
        <path id="DejaVuSans-32" d="M 1228 531 
L 3431 531 
L 3431 0 
L 469 0 
L 469 531 
Q 828 903 1448 1529 
Q 2069 2156 2228 2338 
Q 2531 2678 2651 2914 
Q 2772 3150 2772 3378 
Q 2772 3750 2511 3984 
Q 2250 4219 1831 4219 
Q 1534 4219 1204 4116 
Q 875 4013 500 3803 
L 500 4441 
Q 881 4594 1212 4672 
Q 1544 4750 1819 4750 
Q 2544 4750 2975 4387 
Q 3406 4025 3406 3419 
Q 3406 3131 3298 2873 
Q 3191 2616 2906 2266 
Q 2828 2175 2409 1742 
Q 1991 1309 1228 531 
z
" transform="scale(0.015625)"/>
       </defs>
       <use xlink:href="#DejaVuSans-30"/>
       <use xlink:href="#DejaVuSans-2e" transform="translate(63.623047 0)"/>
       <use xlink:href="#DejaVuSans-32" transform="translate(95.410156 0)"/>
      </g>
     </g>
    </g>
    <g id="ytick_3">
     <g id="line2d_9">
      <g>
       <use xlink:href="#m7810cd584c" x="33.73" y="159.694238" style="stroke: #000000; stroke-width: 0.8"/>
      </g>
     </g>
     <g id="text_9">
      <!-- 0.4 -->
      <g transform="translate(10.826875 163.493457) scale(0.1 -0.1)">
       <defs>
        <path id="DejaVuSans-34" d="M 2419 4116 
L 825 1625 
L 2419 1625 
L 2419 4116 
z
M 2253 4666 
L 3047 4666 
L 3047 1625 
L 3713 1625 
L 3713 1100 
L 3047 1100 
L 3047 0 
L 2419 0 
L 2419 1100 
L 313 1100 
L 313 1709 
L 2253 4666 
z
" transform="scale(0.015625)"/>
       </defs>
       <use xlink:href="#DejaVuSans-30"/>
       <use xlink:href="#DejaVuSans-2e" transform="translate(63.623047 0)"/>
       <use xlink:href="#DejaVuSans-34" transform="translate(95.410156 0)"/>
      </g>
     </g>
    </g>
    <g id="ytick_4">
     <g id="line2d_10">
      <g>
       <use xlink:href="#m7810cd584c" x="33.73" y="118.385242" style="stroke: #000000; stroke-width: 0.8"/>
      </g>
     </g>
     <g id="text_10">
      <!-- 0.6 -->
      <g transform="translate(10.826875 122.184461) scale(0.1 -0.1)">
       <defs>
        <path id="DejaVuSans-36" d="M 2113 2584 
Q 1688 2584 1439 2293 
Q 1191 2003 1191 1497 
Q 1191 994 1439 701 
Q 1688 409 2113 409 
Q 2538 409 2786 701 
Q 3034 994 3034 1497 
Q 3034 2003 2786 2293 
Q 2538 2584 2113 2584 
z
M 3366 4563 
L 3366 3988 
Q 3128 4100 2886 4159 
Q 2644 4219 2406 4219 
Q 1781 4219 1451 3797 
Q 1122 3375 1075 2522 
Q 1259 2794 1537 2939 
Q 1816 3084 2150 3084 
Q 2853 3084 3261 2657 
Q 3669 2231 3669 1497 
Q 3669 778 3244 343 
Q 2819 -91 2113 -91 
Q 1303 -91 875 529 
Q 447 1150 447 2328 
Q 447 3434 972 4092 
Q 1497 4750 2381 4750 
Q 2619 4750 2861 4703 
Q 3103 4656 3366 4563 
z
" transform="scale(0.015625)"/>
       </defs>
       <use xlink:href="#DejaVuSans-30"/>
       <use xlink:href="#DejaVuSans-2e" transform="translate(63.623047 0)"/>
       <use xlink:href="#DejaVuSans-36" transform="translate(95.410156 0)"/>
      </g>
     </g>
    </g>
    <g id="ytick_5">
     <g id="line2d_11">
      <g>
       <use xlink:href="#m7810cd584c" x="33.73" y="77.076246" style="stroke: #000000; stroke-width: 0.8"/>
      </g>
     </g>
     <g id="text_11">
      <!-- 0.8 -->
      <g transform="translate(10.826875 80.875464) scale(0.1 -0.1)">
       <defs>
        <path id="DejaVuSans-38" d="M 2034 2216 
Q 1584 2216 1326 1975 
Q 1069 1734 1069 1313 
Q 1069 891 1326 650 
Q 1584 409 2034 409 
Q 2484 409 2743 651 
Q 3003 894 3003 1313 
Q 3003 1734 2745 1975 
Q 2488 2216 2034 2216 
z
M 1403 2484 
Q 997 2584 770 2862 
Q 544 3141 544 3541 
Q 544 4100 942 4425 
Q 1341 4750 2034 4750 
Q 2731 4750 3128 4425 
Q 3525 4100 3525 3541 
Q 3525 3141 3298 2862 
Q 3072 2584 2669 2484 
Q 3125 2378 3379 2068 
Q 3634 1759 3634 1313 
Q 3634 634 3220 271 
Q 2806 -91 2034 -91 
Q 1263 -91 848 271 
Q 434 634 434 1313 
Q 434 1759 690 2068 
Q 947 2378 1403 2484 
z
M 1172 3481 
Q 1172 3119 1398 2916 
Q 1625 2713 2034 2713 
Q 2441 2713 2670 2916 
Q 2900 3119 2900 3481 
Q 2900 3844 2670 4047 
Q 2441 4250 2034 4250 
Q 1625 4250 1398 4047 
Q 1172 3844 1172 3481 
z
" transform="scale(0.015625)"/>
       </defs>
       <use xlink:href="#DejaVuSans-30"/>
       <use xlink:href="#DejaVuSans-2e" transform="translate(63.623047 0)"/>
       <use xlink:href="#DejaVuSans-38" transform="translate(95.410156 0)"/>
      </g>
     </g>
    </g>
    <g id="ytick_6">
     <g id="line2d_12">
      <g>
       <use xlink:href="#m7810cd584c" x="33.73" y="35.767249" style="stroke: #000000; stroke-width: 0.8"/>
      </g>
     </g>
     <g id="text_12">
      <!-- 1.0 -->
      <g transform="translate(10.826875 39.566468) scale(0.1 -0.1)">
       <use xlink:href="#DejaVuSans-31"/>
       <use xlink:href="#DejaVuSans-2e" transform="translate(63.623047 0)"/>
       <use xlink:href="#DejaVuSans-30" transform="translate(95.410156 0)"/>
      </g>
     </g>
    </g>
   </g>
   <g id="line2d_13">
    <path d="M 33.73 35.767249 
L 60.648691 35.767249 
L 87.567382 35.767249 
L 114.498765 35.767249 
L 141.417456 35.767249 
L 168.337416 35.767249 
L 195.254838 35.767249 
L 222.173529 35.767249 
L 249.104911 41.695089 
L 276.023602 178.241977 
L 302.91691 220.914171 
L 329.82291 234.199144 
L 356.728909 239.083933 
L 383.761824 240.89368 
L 410.667823 241.593248 
L 437.573823 241.96317 
L 464.479822 242.126713 
L 491.385822 242.220753 
L 518.291821 242.261979 
L 545.197821 242.27873 
L 572.103821 242.289036 
L 599.136735 242.299347 
L 626.042735 242.307078 
L 652.948734 242.309654 
L 679.854734 242.310943 
L 706.760733 242.312231 
L 733.666733 242.312231 
L 744.225806 242.312231 
" clip-path="url(#pc8edded390)" style="fill: none; stroke-dasharray: 9.6,2.4,1.5,2.4; stroke-dashoffset: 0; stroke: #000000; stroke-width: 1.5"/>
   </g>
   <g id="line2d_14">
    <path d="M 33.73 35.767249 
L 60.648691 35.767249 
L 87.567382 35.767249 
L 114.498765 35.767249 
L 141.417456 35.767249 
L 168.337416 35.767249 
L 195.254838 35.767249 
L 222.173529 35.767249 
L 249.104911 41.736405 
L 276.023602 180.989025 
L 302.91691 222.440538 
L 329.82291 234.587449 
L 356.728909 238.864995 
L 383.761824 240.61154 
L 410.667823 241.320815 
L 437.573823 241.709533 
L 464.479822 241.911534 
L 491.385822 242.030297 
L 518.291821 242.108599 
L 545.197821 242.158231 
L 572.103821 242.191712 
L 599.136735 242.219472 
L 626.042735 242.240581 
L 652.948734 242.255204 
L 679.854734 242.270303 
L 706.760733 242.27904 
L 733.666733 242.285381 
L 744.225806 242.287042 
" clip-path="url(#pc8edded390)" style="fill: none; stroke: #d2691e; stroke-width: 1.5; stroke-linecap: square"/>
   </g>
   <g id="line2d_15">
    <path d="M 33.73 35.767249 
L 60.648691 35.767249 
L 87.567382 35.767249 
L 114.498765 35.767249 
L 141.417456 35.767249 
L 168.337416 35.767249 
L 195.254838 35.767249 
L 222.173529 35.767249 
L 249.104911 41.591812 
L 276.023602 178.200667 
L 302.91691 220.872862 
L 329.82291 234.164032 
L 356.728909 239.085999 
L 383.761824 240.899051 
L 410.667823 241.598618 
L 437.573823 241.966475 
L 464.479822 242.12252 
L 491.385822 242.22319 
L 518.291821 242.260616 
L 545.197821 242.278688 
L 572.103821 242.286413 
L 599.136735 242.299326 
L 626.042735 242.30707 
L 652.948734 242.30965 
L 679.854734 242.30965 
L 706.760733 242.312231 
L 733.666733 242.312231 
L 744.225806 242.312231 
" clip-path="url(#pc8edded390)" style="fill: none; stroke: #000000; stroke-width: 1.5; stroke-linecap: square"/>
   </g>
   <g id="line2d_16">
    <path d="M 33.73 35.767249 
L 60.648691 35.767249 
L 87.567382 35.767249 
L 114.498765 35.767249 
L 141.417456 35.767249 
L 168.337416 35.767249 
L 195.254838 35.767249 
L 222.173529 35.767249 
L 249.104911 43.016975 
L 276.023602 192.576201 
L 302.91691 228.824844 
L 329.82291 237.813682 
L 356.728909 240.547098 
L 383.761824 241.65232 
L 410.667823 242.094533 
L 437.573823 242.234219 
L 464.479822 242.269972 
L 491.385822 242.30248 
L 518.291821 242.305729 
L 545.197821 242.312231 
L 572.103821 242.312231 
L 599.136735 242.312231 
L 626.042735 242.312231 
L 652.948734 242.312231 
L 679.854734 242.312231 
L 706.760733 242.312231 
L 733.666733 242.312231 
L 744.225806 242.312231 
" clip-path="url(#pc8edded390)" style="fill: none; stroke: #00ffff; stroke-width: 1.5; stroke-linecap: square"/>
   </g>
   <g id="line2d_17">
    <path d="M 33.73 35.767249 
L 60.648691 35.767249 
L 87.567382 35.767249 
L 114.498765 35.767249 
L 141.417456 35.767249 
L 168.337416 35.767249 
L 195.254838 35.767249 
L 222.173529 35.767249 
L 249.104911 41.158069 
L 276.023602 166.468917 
L 302.91691 213.148079 
L 329.82291 230.082703 
L 356.728909 237.27873 
L 383.761824 240.744348 
L 410.667823 241.800619 
L 437.573823 242.213214 
L 464.479822 242.312231 
L 491.385822 242.312231 
L 518.291821 242.312231 
L 545.197821 242.312231 
L 572.103821 242.312231 
L 599.136735 242.312231 
L 626.042735 242.312231 
L 652.948734 242.312231 
L 679.854734 242.312231 
L 706.760733 242.312231 
L 733.666733 242.312231 
L 744.225806 242.312231 
" clip-path="url(#pc8edded390)" style="fill: none; stroke: #0000ff; stroke-width: 1.5; stroke-linecap: square"/>
   </g>
   <g id="line2d_18">
    <path d="M 33.73 35.767249 
L 60.648691 35.767249 
L 87.567382 35.767249 
L 114.498765 35.767249 
L 141.417456 35.767249 
L 168.337416 35.767249 
L 195.254838 35.767249 
L 222.173529 35.767249 
L 249.104911 41.550508 
L 276.023602 178.696377 
L 302.91691 221.905586 
L 329.82291 234.814649 
L 356.728909 239.193402 
L 383.761824 240.893267 
L 410.667823 241.512902 
L 437.573823 241.921861 
L 464.479822 242.074705 
L 491.385822 242.212883 
L 518.291821 242.259976 
L 545.197821 242.281043 
L 572.103821 242.286 
L 599.136735 242.296513 
L 626.042735 242.301801 
L 652.948734 242.307088 
L 679.854734 242.307088 
L 706.760733 242.312231 
L 733.666733 242.312231 
L 744.225806 242.312231 
" clip-path="url(#pc8edded390)" style="fill: none; stroke: #ff00ff; stroke-width: 1.5; stroke-linecap: square"/>
   </g>
   <g id="line2d_19">
    <path d="M 33.73 35.767249 
L 60.648691 35.767249 
L 87.567382 35.767249 
L 114.498765 35.767249 
L 141.417456 35.767249 
L 168.337416 35.767249 
L 195.254838 35.767249 
L 222.173529 35.767249 
L 249.104911 41.343966 
L 276.023602 178.696377 
L 302.91691 221.038098 
L 329.82291 233.451452 
L 356.728909 238.573767 
L 383.761824 240.614432 
L 410.667823 241.413761 
L 437.573823 241.861963 
L 464.479822 242.047854 
L 491.385822 242.200491 
L 518.291821 242.221352 
L 545.197821 242.272781 
L 572.103821 242.293622 
L 599.136735 242.302916 
L 626.042735 242.302916 
L 652.948734 242.302916 
L 679.854734 242.302916 
L 706.760733 242.312231 
L 733.666733 242.312231 
L 744.225806 242.312231 
" clip-path="url(#pc8edded390)" style="fill: none; stroke-dasharray: 5.55,2.4; stroke-dashoffset: 0; stroke: #ff00ff; stroke-width: 1.5"/>
   </g>
   <g id="line2d_20">
    <path d="M 33.73 35.767249 
L 60.648691 35.767249 
L 87.567382 35.767249 
L 114.498765 35.767249 
L 141.417456 35.767249 
L 168.337416 35.767249 
L 195.254838 35.767249 
L 222.173529 35.767249 
L 249.104911 41.343966 
L 276.023602 175.804748 
L 302.91691 219.592283 
L 329.82291 234.050432 
L 356.728909 239.482565 
L 383.761824 241.068831 
L 410.667823 241.880552 
L 437.573823 242.074705 
L 464.479822 242.183141 
L 491.385822 242.249442 
L 518.291821 242.268237 
L 545.197821 242.268237 
L 572.103821 242.287653 
L 599.136735 242.312231 
L 626.042735 242.312231 
L 652.948734 242.312231 
L 679.854734 242.312231 
L 706.760733 242.312231 
L 733.666733 242.312231 
L 744.225806 242.312231 
" clip-path="url(#pc8edded390)" style="fill: none; stroke-dasharray: 1.5,2.475; stroke-dashoffset: 0; stroke: #ff00ff; stroke-width: 1.5"/>
   </g>
   <g id="line2d_21">
    <path d="M 33.73 35.767249 
L 60.648691 35.767249 
L 87.567382 35.767249 
L 114.498765 35.767249 
L 141.417456 35.767249 
L 168.337416 35.767249 
L 195.254838 35.767249 
L 222.173529 35.767249 
L 249.104911 41.137423 
L 276.023602 172.086937 
L 302.91691 216.907198 
L 329.82291 232.253491 
L 356.728909 238.429186 
L 383.761824 240.622693 
L 410.667823 241.510837 
L 437.573823 241.946647 
L 464.479822 242.112502 
L 491.385822 242.228581 
L 518.291821 242.258117 
L 545.197821 242.280217 
L 572.103821 242.285174 
L 599.136735 242.302276 
L 626.042735 242.307254 
L 652.948734 242.312231 
L 679.854734 242.312231 
L 706.760733 242.312231 
L 733.666733 242.312231 
L 744.225806 242.312231 
" clip-path="url(#pc8edded390)" style="fill: none; stroke: #ffa500; stroke-width: 1.5; stroke-linecap: square"/>
   </g>
   <g id="line2d_22">
    <path d="M 33.73 35.767249 
L 60.648691 35.767249 
L 87.567382 35.767249 
L 114.498765 35.767249 
L 141.417456 35.767249 
L 168.337416 35.767249 
L 195.254838 35.767249 
L 222.173529 35.767249 
L 249.104911 42.37669 
L 276.023602 189.023629 
L 302.91691 228.597645 
L 329.82291 238.181332 
L 356.728909 240.876744 
L 383.761824 241.8 
L 410.667823 242.130472 
L 437.573823 242.212677 
L 464.479822 242.269477 
L 491.385822 242.300417 
L 518.291821 242.312231 
L 545.197821 242.312231 
L 572.103821 242.312231 
L 599.136735 242.312231 
L 626.042735 242.312231 
L 652.948734 242.312231 
L 679.854734 242.312231 
L 706.760733 242.312231 
L 733.666733 242.312231 
L 744.225806 242.312231 
" clip-path="url(#pc8edded390)" style="fill: none; stroke-dasharray: 5.55,2.4; stroke-dashoffset: 0; stroke: #ffa500; stroke-width: 1.5"/>
   </g>
   <g id="line2d_23">
    <path d="M 33.73 35.767249 
L 60.648691 35.767249 
L 87.567382 35.767249 
L 114.498765 35.767249 
L 141.417456 35.767249 
L 168.337416 35.767249 
L 195.254838 35.767249 
L 222.173529 35.767249 
L 249.104911 41.343966 
L 276.023602 174.978566 
L 302.91691 219.179193 
L 329.82291 233.224252 
L 356.728909 238.491149 
L 383.761824 240.409952 
L 410.667823 241.308423 
L 437.573823 241.841309 
L 464.479822 242.168476 
L 491.385822 242.256464 
L 518.291821 242.286826 
L 545.197821 242.312231 
L 572.103821 242.312231 
L 599.136735 242.312231 
L 626.042735 242.312231 
L 652.948734 242.312231 
L 679.854734 242.312231 
L 706.760733 242.312231 
L 733.666733 242.312231 
L 744.225806 242.312231 
" clip-path="url(#pc8edded390)" style="fill: none; stroke-dasharray: 1.5,2.475; stroke-dashoffset: 0; stroke: #008000; stroke-width: 1.5"/>
   </g>
   <g id="patch_3">
    <path d="M 33.73 252.639481 
L 33.73 25.44 
" style="fill: none; stroke: #000000; stroke-width: 0.8; stroke-linejoin: miter; stroke-linecap: square"/>
   </g>
   <g id="patch_4">
    <path d="M 351.01773 252.639481 
L 351.01773 25.44 
" style="fill: none; stroke: #000000; stroke-width: 0.8; stroke-linejoin: miter; stroke-linecap: square"/>
   </g>
   <g id="patch_5">
    <path d="M 33.73 252.639481 
L 351.01773 252.639481 
" style="fill: none; stroke: #000000; stroke-width: 0.8; stroke-linejoin: miter; stroke-linecap: square"/>
   </g>
   <g id="patch_6">
    <path d="M 33.73 25.44 
L 351.01773 25.44 
" style="fill: none; stroke: #000000; stroke-width: 0.8; stroke-linejoin: miter; stroke-linecap: square"/>
   </g>
   <g id="text_13">
    <!-- Reseek -->
    <g transform="translate(170.799178 19.44) scale(0.12 -0.12)">
     <defs>
      <path id="DejaVuSans-52" d="M 2841 2188 
Q 3044 2119 3236 1894 
Q 3428 1669 3622 1275 
L 4263 0 
L 3584 0 
L 2988 1197 
Q 2756 1666 2539 1819 
Q 2322 1972 1947 1972 
L 1259 1972 
L 1259 0 
L 628 0 
L 628 4666 
L 2053 4666 
Q 2853 4666 3247 4331 
Q 3641 3997 3641 3322 
Q 3641 2881 3436 2590 
Q 3231 2300 2841 2188 
z
M 1259 4147 
L 1259 2491 
L 2053 2491 
Q 2509 2491 2742 2702 
Q 2975 2913 2975 3322 
Q 2975 3731 2742 3939 
Q 2509 4147 2053 4147 
L 1259 4147 
z
" transform="scale(0.015625)"/>
      <path id="DejaVuSans-65" d="M 3597 1894 
L 3597 1613 
L 953 1613 
Q 991 1019 1311 708 
Q 1631 397 2203 397 
Q 2534 397 2845 478 
Q 3156 559 3463 722 
L 3463 178 
Q 3153 47 2828 -22 
Q 2503 -91 2169 -91 
Q 1331 -91 842 396 
Q 353 884 353 1716 
Q 353 2575 817 3079 
Q 1281 3584 2069 3584 
Q 2775 3584 3186 3129 
Q 3597 2675 3597 1894 
z
M 3022 2063 
Q 3016 2534 2758 2815 
Q 2500 3097 2075 3097 
Q 1594 3097 1305 2825 
Q 1016 2553 972 2059 
L 3022 2063 
z
" transform="scale(0.015625)"/>
      <path id="DejaVuSans-73" d="M 2834 3397 
L 2834 2853 
Q 2591 2978 2328 3040 
Q 2066 3103 1784 3103 
Q 1356 3103 1142 2972 
Q 928 2841 928 2578 
Q 928 2378 1081 2264 
Q 1234 2150 1697 2047 
L 1894 2003 
Q 2506 1872 2764 1633 
Q 3022 1394 3022 966 
Q 3022 478 2636 193 
Q 2250 -91 1575 -91 
Q 1294 -91 989 -36 
Q 684 19 347 128 
L 347 722 
Q 666 556 975 473 
Q 1284 391 1588 391 
Q 1994 391 2212 530 
Q 2431 669 2431 922 
Q 2431 1156 2273 1281 
Q 2116 1406 1581 1522 
L 1381 1569 
Q 847 1681 609 1914 
Q 372 2147 372 2553 
Q 372 3047 722 3315 
Q 1072 3584 1716 3584 
Q 2034 3584 2315 3537 
Q 2597 3491 2834 3397 
z
" transform="scale(0.015625)"/>
      <path id="DejaVuSans-6b" d="M 581 4863 
L 1159 4863 
L 1159 1991 
L 2875 3500 
L 3609 3500 
L 1753 1863 
L 3688 0 
L 2938 0 
L 1159 1709 
L 1159 0 
L 581 0 
L 581 4863 
z
" transform="scale(0.015625)"/>
     </defs>
     <use xlink:href="#DejaVuSans-52"/>
     <use xlink:href="#DejaVuSans-65" transform="translate(64.982422 0)"/>
     <use xlink:href="#DejaVuSans-73" transform="translate(126.505859 0)"/>
     <use xlink:href="#DejaVuSans-65" transform="translate(178.605469 0)"/>
     <use xlink:href="#DejaVuSans-65" transform="translate(240.128906 0)"/>
     <use xlink:href="#DejaVuSans-6b" transform="translate(301.652344 0)"/>
    </g>
   </g>
   <g id="legend_1">
    <g id="patch_7">
     <path d="M 40.73 247.639481 
L 134.519063 247.639481 
Q 136.519063 247.639481 136.519063 245.639481 
L 136.519063 85.180106 
Q 136.519063 83.180106 134.519063 83.180106 
L 40.73 83.180106 
Q 38.73 83.180106 38.73 85.180106 
L 38.73 245.639481 
Q 38.73 247.639481 40.73 247.639481 
z
" style="fill: #ffffff; opacity: 0.8; stroke: #cccccc; stroke-linejoin: miter"/>
    </g>
    <g id="line2d_24">
     <path d="M 42.73 91.278543 
L 52.73 91.278543 
L 62.73 91.278543 
" style="fill: none; stroke-dasharray: 9.6,2.4,1.5,2.4; stroke-dashoffset: 0; stroke: #000000; stroke-width: 1.5"/>
    </g>
    <g id="text_14">
     <!-- SCOP40x8 -->
     <g transform="translate(70.73 94.778543) scale(0.1 -0.1)">
      <defs>
       <path id="DejaVuSans-53" d="M 3425 4513 
L 3425 3897 
Q 3066 4069 2747 4153 
Q 2428 4238 2131 4238 
Q 1616 4238 1336 4038 
Q 1056 3838 1056 3469 
Q 1056 3159 1242 3001 
Q 1428 2844 1947 2747 
L 2328 2669 
Q 3034 2534 3370 2195 
Q 3706 1856 3706 1288 
Q 3706 609 3251 259 
Q 2797 -91 1919 -91 
Q 1588 -91 1214 -16 
Q 841 59 441 206 
L 441 856 
Q 825 641 1194 531 
Q 1563 422 1919 422 
Q 2459 422 2753 634 
Q 3047 847 3047 1241 
Q 3047 1584 2836 1778 
Q 2625 1972 2144 2069 
L 1759 2144 
Q 1053 2284 737 2584 
Q 422 2884 422 3419 
Q 422 4038 858 4394 
Q 1294 4750 2059 4750 
Q 2388 4750 2728 4690 
Q 3069 4631 3425 4513 
z
" transform="scale(0.015625)"/>
       <path id="DejaVuSans-43" d="M 4122 4306 
L 4122 3641 
Q 3803 3938 3442 4084 
Q 3081 4231 2675 4231 
Q 1875 4231 1450 3742 
Q 1025 3253 1025 2328 
Q 1025 1406 1450 917 
Q 1875 428 2675 428 
Q 3081 428 3442 575 
Q 3803 722 4122 1019 
L 4122 359 
Q 3791 134 3420 21 
Q 3050 -91 2638 -91 
Q 1578 -91 968 557 
Q 359 1206 359 2328 
Q 359 3453 968 4101 
Q 1578 4750 2638 4750 
Q 3056 4750 3426 4639 
Q 3797 4528 4122 4306 
z
" transform="scale(0.015625)"/>
       <path id="DejaVuSans-4f" d="M 2522 4238 
Q 1834 4238 1429 3725 
Q 1025 3213 1025 2328 
Q 1025 1447 1429 934 
Q 1834 422 2522 422 
Q 3209 422 3611 934 
Q 4013 1447 4013 2328 
Q 4013 3213 3611 3725 
Q 3209 4238 2522 4238 
z
M 2522 4750 
Q 3503 4750 4090 4092 
Q 4678 3434 4678 2328 
Q 4678 1225 4090 567 
Q 3503 -91 2522 -91 
Q 1538 -91 948 565 
Q 359 1222 359 2328 
Q 359 3434 948 4092 
Q 1538 4750 2522 4750 
z
" transform="scale(0.015625)"/>
       <path id="DejaVuSans-50" d="M 1259 4147 
L 1259 2394 
L 2053 2394 
Q 2494 2394 2734 2622 
Q 2975 2850 2975 3272 
Q 2975 3691 2734 3919 
Q 2494 4147 2053 4147 
L 1259 4147 
z
M 628 4666 
L 2053 4666 
Q 2838 4666 3239 4311 
Q 3641 3956 3641 3272 
Q 3641 2581 3239 2228 
Q 2838 1875 2053 1875 
L 1259 1875 
L 1259 0 
L 628 0 
L 628 4666 
z
" transform="scale(0.015625)"/>
       <path id="DejaVuSans-78" d="M 3513 3500 
L 2247 1797 
L 3578 0 
L 2900 0 
L 1881 1375 
L 863 0 
L 184 0 
L 1544 1831 
L 300 3500 
L 978 3500 
L 1906 2253 
L 2834 3500 
L 3513 3500 
z
" transform="scale(0.015625)"/>
      </defs>
      <use xlink:href="#DejaVuSans-53"/>
      <use xlink:href="#DejaVuSans-43" transform="translate(63.476562 0)"/>
      <use xlink:href="#DejaVuSans-4f" transform="translate(133.300781 0)"/>
      <use xlink:href="#DejaVuSans-50" transform="translate(212.011719 0)"/>
      <use xlink:href="#DejaVuSans-34" transform="translate(272.314453 0)"/>
      <use xlink:href="#DejaVuSans-30" transform="translate(335.9375 0)"/>
      <use xlink:href="#DejaVuSans-78" transform="translate(399.560547 0)"/>
      <use xlink:href="#DejaVuSans-38" transform="translate(458.740234 0)"/>
     </g>
    </g>
    <g id="line2d_25">
     <path d="M 42.73 105.956668 
L 52.73 105.956668 
L 62.73 105.956668 
" style="fill: none; stroke: #d2691e; stroke-width: 1.5; stroke-linecap: square"/>
    </g>
    <g id="text_15">
     <!-- CATH40 -->
     <g transform="translate(70.73 109.456668) scale(0.1 -0.1)">
      <defs>
       <path id="DejaVuSans-41" d="M 2188 4044 
L 1331 1722 
L 3047 1722 
L 2188 4044 
z
M 1831 4666 
L 2547 4666 
L 4325 0 
L 3669 0 
L 3244 1197 
L 1141 1197 
L 716 0 
L 50 0 
L 1831 4666 
z
" transform="scale(0.015625)"/>
       <path id="DejaVuSans-54" d="M -19 4666 
L 3928 4666 
L 3928 4134 
L 2272 4134 
L 2272 0 
L 1638 0 
L 1638 4134 
L -19 4134 
L -19 4666 
z
" transform="scale(0.015625)"/>
       <path id="DejaVuSans-48" d="M 628 4666 
L 1259 4666 
L 1259 2753 
L 3553 2753 
L 3553 4666 
L 4184 4666 
L 4184 0 
L 3553 0 
L 3553 2222 
L 1259 2222 
L 1259 0 
L 628 0 
L 628 4666 
z
" transform="scale(0.015625)"/>
      </defs>
      <use xlink:href="#DejaVuSans-43"/>
      <use xlink:href="#DejaVuSans-41" transform="translate(69.824219 0)"/>
      <use xlink:href="#DejaVuSans-54" transform="translate(130.482422 0)"/>
      <use xlink:href="#DejaVuSans-48" transform="translate(191.566406 0)"/>
      <use xlink:href="#DejaVuSans-34" transform="translate(266.761719 0)"/>
      <use xlink:href="#DejaVuSans-30" transform="translate(330.384766 0)"/>
     </g>
    </g>
    <g id="line2d_26">
     <path d="M 42.73 120.634793 
L 52.73 120.634793 
L 62.73 120.634793 
" style="fill: none; stroke: #000000; stroke-width: 1.5; stroke-linecap: square"/>
    </g>
    <g id="text_16">
     <!-- SCOP40 -->
     <g transform="translate(70.73 124.134793) scale(0.1 -0.1)">
      <use xlink:href="#DejaVuSans-53"/>
      <use xlink:href="#DejaVuSans-43" transform="translate(63.476562 0)"/>
      <use xlink:href="#DejaVuSans-4f" transform="translate(133.300781 0)"/>
      <use xlink:href="#DejaVuSans-50" transform="translate(212.011719 0)"/>
      <use xlink:href="#DejaVuSans-34" transform="translate(272.314453 0)"/>
      <use xlink:href="#DejaVuSans-30" transform="translate(335.9375 0)"/>
     </g>
    </g>
    <g id="line2d_27">
     <path d="M 42.73 135.312918 
L 52.73 135.312918 
L 62.73 135.312918 
" style="fill: none; stroke: #00ffff; stroke-width: 1.5; stroke-linecap: square"/>
    </g>
    <g id="text_17">
     <!-- SCOP40c -->
     <g transform="translate(70.73 138.812918) scale(0.1 -0.1)">
      <defs>
       <path id="DejaVuSans-63" d="M 3122 3366 
L 3122 2828 
Q 2878 2963 2633 3030 
Q 2388 3097 2138 3097 
Q 1578 3097 1268 2742 
Q 959 2388 959 1747 
Q 959 1106 1268 751 
Q 1578 397 2138 397 
Q 2388 397 2633 464 
Q 2878 531 3122 666 
L 3122 134 
Q 2881 22 2623 -34 
Q 2366 -91 2075 -91 
Q 1284 -91 818 406 
Q 353 903 353 1747 
Q 353 2603 823 3093 
Q 1294 3584 2113 3584 
Q 2378 3584 2631 3529 
Q 2884 3475 3122 3366 
z
" transform="scale(0.015625)"/>
      </defs>
      <use xlink:href="#DejaVuSans-53"/>
      <use xlink:href="#DejaVuSans-43" transform="translate(63.476562 0)"/>
      <use xlink:href="#DejaVuSans-4f" transform="translate(133.300781 0)"/>
      <use xlink:href="#DejaVuSans-50" transform="translate(212.011719 0)"/>
      <use xlink:href="#DejaVuSans-34" transform="translate(272.314453 0)"/>
      <use xlink:href="#DejaVuSans-30" transform="translate(335.9375 0)"/>
      <use xlink:href="#DejaVuSans-63" transform="translate(399.560547 0)"/>
     </g>
    </g>
    <g id="line2d_28">
     <path d="M 42.73 149.991043 
L 52.73 149.991043 
L 62.73 149.991043 
" style="fill: none; stroke: #0000ff; stroke-width: 1.5; stroke-linecap: square"/>
    </g>
    <g id="text_18">
     <!-- SCOP95 -->
     <g transform="translate(70.73 153.491043) scale(0.1 -0.1)">
      <defs>
       <path id="DejaVuSans-39" d="M 703 97 
L 703 672 
Q 941 559 1184 500 
Q 1428 441 1663 441 
Q 2288 441 2617 861 
Q 2947 1281 2994 2138 
Q 2813 1869 2534 1725 
Q 2256 1581 1919 1581 
Q 1219 1581 811 2004 
Q 403 2428 403 3163 
Q 403 3881 828 4315 
Q 1253 4750 1959 4750 
Q 2769 4750 3195 4129 
Q 3622 3509 3622 2328 
Q 3622 1225 3098 567 
Q 2575 -91 1691 -91 
Q 1453 -91 1209 -44 
Q 966 3 703 97 
z
M 1959 2075 
Q 2384 2075 2632 2365 
Q 2881 2656 2881 3163 
Q 2881 3666 2632 3958 
Q 2384 4250 1959 4250 
Q 1534 4250 1286 3958 
Q 1038 3666 1038 3163 
Q 1038 2656 1286 2365 
Q 1534 2075 1959 2075 
z
" transform="scale(0.015625)"/>
      </defs>
      <use xlink:href="#DejaVuSans-53"/>
      <use xlink:href="#DejaVuSans-43" transform="translate(63.476562 0)"/>
      <use xlink:href="#DejaVuSans-4f" transform="translate(133.300781 0)"/>
      <use xlink:href="#DejaVuSans-50" transform="translate(212.011719 0)"/>
      <use xlink:href="#DejaVuSans-39" transform="translate(272.314453 0)"/>
      <use xlink:href="#DejaVuSans-35" transform="translate(335.9375 0)"/>
     </g>
    </g>
    <g id="line2d_29">
     <path d="M 42.73 164.669168 
L 52.73 164.669168 
L 62.73 164.669168 
" style="fill: none; stroke: #ff00ff; stroke-width: 1.5; stroke-linecap: square"/>
    </g>
    <g id="text_19">
     <!-- SCOP40/N4 -->
     <g transform="translate(70.73 168.169168) scale(0.1 -0.1)">
      <defs>
       <path id="DejaVuSans-2f" d="M 1625 4666 
L 2156 4666 
L 531 -594 
L 0 -594 
L 1625 4666 
z
" transform="scale(0.015625)"/>
       <path id="DejaVuSans-4e" d="M 628 4666 
L 1478 4666 
L 3547 763 
L 3547 4666 
L 4159 4666 
L 4159 0 
L 3309 0 
L 1241 3903 
L 1241 0 
L 628 0 
L 628 4666 
z
" transform="scale(0.015625)"/>
      </defs>
      <use xlink:href="#DejaVuSans-53"/>
      <use xlink:href="#DejaVuSans-43" transform="translate(63.476562 0)"/>
      <use xlink:href="#DejaVuSans-4f" transform="translate(133.300781 0)"/>
      <use xlink:href="#DejaVuSans-50" transform="translate(212.011719 0)"/>
      <use xlink:href="#DejaVuSans-34" transform="translate(272.314453 0)"/>
      <use xlink:href="#DejaVuSans-30" transform="translate(335.9375 0)"/>
      <use xlink:href="#DejaVuSans-2f" transform="translate(399.560547 0)"/>
      <use xlink:href="#DejaVuSans-4e" transform="translate(433.251953 0)"/>
      <use xlink:href="#DejaVuSans-34" transform="translate(508.056641 0)"/>
     </g>
    </g>
    <g id="line2d_30">
     <path d="M 42.73 179.347293 
L 52.73 179.347293 
L 62.73 179.347293 
" style="fill: none; stroke-dasharray: 5.55,2.4; stroke-dashoffset: 0; stroke: #ff00ff; stroke-width: 1.5"/>
    </g>
    <g id="text_20">
     <!-- SCOP40/N4 -->
     <g transform="translate(70.73 182.847293) scale(0.1 -0.1)">
      <use xlink:href="#DejaVuSans-53"/>
      <use xlink:href="#DejaVuSans-43" transform="translate(63.476562 0)"/>
      <use xlink:href="#DejaVuSans-4f" transform="translate(133.300781 0)"/>
      <use xlink:href="#DejaVuSans-50" transform="translate(212.011719 0)"/>
      <use xlink:href="#DejaVuSans-34" transform="translate(272.314453 0)"/>
      <use xlink:href="#DejaVuSans-30" transform="translate(335.9375 0)"/>
      <use xlink:href="#DejaVuSans-2f" transform="translate(399.560547 0)"/>
      <use xlink:href="#DejaVuSans-4e" transform="translate(433.251953 0)"/>
      <use xlink:href="#DejaVuSans-34" transform="translate(508.056641 0)"/>
     </g>
    </g>
    <g id="line2d_31">
     <path d="M 42.73 194.025418 
L 52.73 194.025418 
L 62.73 194.025418 
" style="fill: none; stroke-dasharray: 1.5,2.475; stroke-dashoffset: 0; stroke: #ff00ff; stroke-width: 1.5"/>
    </g>
    <g id="text_21">
     <!-- SCOP40/N8 -->
     <g transform="translate(70.73 197.525418) scale(0.1 -0.1)">
      <use xlink:href="#DejaVuSans-53"/>
      <use xlink:href="#DejaVuSans-43" transform="translate(63.476562 0)"/>
      <use xlink:href="#DejaVuSans-4f" transform="translate(133.300781 0)"/>
      <use xlink:href="#DejaVuSans-50" transform="translate(212.011719 0)"/>
      <use xlink:href="#DejaVuSans-34" transform="translate(272.314453 0)"/>
      <use xlink:href="#DejaVuSans-30" transform="translate(335.9375 0)"/>
      <use xlink:href="#DejaVuSans-2f" transform="translate(399.560547 0)"/>
      <use xlink:href="#DejaVuSans-4e" transform="translate(433.251953 0)"/>
      <use xlink:href="#DejaVuSans-38" transform="translate(508.056641 0)"/>
     </g>
    </g>
    <g id="line2d_32">
     <path d="M 42.73 208.703543 
L 52.73 208.703543 
L 62.73 208.703543 
" style="fill: none; stroke: #ffa500; stroke-width: 1.5; stroke-linecap: square"/>
    </g>
    <g id="text_22">
     <!-- SCOP40/SF4 -->
     <g transform="translate(70.73 212.203543) scale(0.1 -0.1)">
      <defs>
       <path id="DejaVuSans-46" d="M 628 4666 
L 3309 4666 
L 3309 4134 
L 1259 4134 
L 1259 2759 
L 3109 2759 
L 3109 2228 
L 1259 2228 
L 1259 0 
L 628 0 
L 628 4666 
z
" transform="scale(0.015625)"/>
      </defs>
      <use xlink:href="#DejaVuSans-53"/>
      <use xlink:href="#DejaVuSans-43" transform="translate(63.476562 0)"/>
      <use xlink:href="#DejaVuSans-4f" transform="translate(133.300781 0)"/>
      <use xlink:href="#DejaVuSans-50" transform="translate(212.011719 0)"/>
      <use xlink:href="#DejaVuSans-34" transform="translate(272.314453 0)"/>
      <use xlink:href="#DejaVuSans-30" transform="translate(335.9375 0)"/>
      <use xlink:href="#DejaVuSans-2f" transform="translate(399.560547 0)"/>
      <use xlink:href="#DejaVuSans-53" transform="translate(433.251953 0)"/>
      <use xlink:href="#DejaVuSans-46" transform="translate(496.728516 0)"/>
      <use xlink:href="#DejaVuSans-34" transform="translate(554.248047 0)"/>
     </g>
    </g>
    <g id="line2d_33">
     <path d="M 42.73 223.381668 
L 52.73 223.381668 
L 62.73 223.381668 
" style="fill: none; stroke-dasharray: 5.55,2.4; stroke-dashoffset: 0; stroke: #ffa500; stroke-width: 1.5"/>
    </g>
    <g id="text_23">
     <!-- SCOP40/SF4 -->
     <g transform="translate(70.73 226.881668) scale(0.1 -0.1)">
      <use xlink:href="#DejaVuSans-53"/>
      <use xlink:href="#DejaVuSans-43" transform="translate(63.476562 0)"/>
      <use xlink:href="#DejaVuSans-4f" transform="translate(133.300781 0)"/>
      <use xlink:href="#DejaVuSans-50" transform="translate(212.011719 0)"/>
      <use xlink:href="#DejaVuSans-34" transform="translate(272.314453 0)"/>
      <use xlink:href="#DejaVuSans-30" transform="translate(335.9375 0)"/>
      <use xlink:href="#DejaVuSans-2f" transform="translate(399.560547 0)"/>
      <use xlink:href="#DejaVuSans-53" transform="translate(433.251953 0)"/>
      <use xlink:href="#DejaVuSans-46" transform="translate(496.728516 0)"/>
      <use xlink:href="#DejaVuSans-34" transform="translate(554.248047 0)"/>
     </g>
    </g>
    <g id="line2d_34">
     <path d="M 42.73 238.059793 
L 52.73 238.059793 
L 62.73 238.059793 
" style="fill: none; stroke-dasharray: 1.5,2.475; stroke-dashoffset: 0; stroke: #008000; stroke-width: 1.5"/>
    </g>
    <g id="text_24">
     <!-- SCOP40/SF8 -->
     <g transform="translate(70.73 241.559793) scale(0.1 -0.1)">
      <use xlink:href="#DejaVuSans-53"/>
      <use xlink:href="#DejaVuSans-43" transform="translate(63.476562 0)"/>
      <use xlink:href="#DejaVuSans-4f" transform="translate(133.300781 0)"/>
      <use xlink:href="#DejaVuSans-50" transform="translate(212.011719 0)"/>
      <use xlink:href="#DejaVuSans-34" transform="translate(272.314453 0)"/>
      <use xlink:href="#DejaVuSans-30" transform="translate(335.9375 0)"/>
      <use xlink:href="#DejaVuSans-2f" transform="translate(399.560547 0)"/>
      <use xlink:href="#DejaVuSans-53" transform="translate(433.251953 0)"/>
      <use xlink:href="#DejaVuSans-46" transform="translate(496.728516 0)"/>
      <use xlink:href="#DejaVuSans-38" transform="translate(554.248047 0)"/>
     </g>
    </g>
   </g>
  </g>
  <g id="axes_2">
   <g id="patch_8">
    <path d="M 403.978076 252.639481 
L 721.265806 252.639481 
L 721.265806 25.44 
L 403.978076 25.44 
z
" style="fill: #ffffff"/>
   </g>
   <g id="matplotlib.axis_3">
    <g id="xtick_7">
     <g id="line2d_35">
      <g>
       <use xlink:href="#ma411e0def1" x="403.978076" y="252.639481" style="stroke: #000000; stroke-width: 0.8"/>
      </g>
     </g>
     <g id="text_25">
      <!-- −0.10 -->
      <g transform="translate(388.65542 267.237918) scale(0.1 -0.1)">
       <use xlink:href="#DejaVuSans-2212"/>
       <use xlink:href="#DejaVuSans-30" transform="translate(83.789062 0)"/>
       <use xlink:href="#DejaVuSans-2e" transform="translate(147.412109 0)"/>
       <use xlink:href="#DejaVuSans-31" transform="translate(179.199219 0)"/>
       <use xlink:href="#DejaVuSans-30" transform="translate(242.822266 0)"/>
      </g>
     </g>
    </g>
    <g id="xtick_8">
     <g id="line2d_36">
      <g>
       <use xlink:href="#ma411e0def1" x="467.435622" y="252.639481" style="stroke: #000000; stroke-width: 0.8"/>
      </g>
     </g>
     <g id="text_26">
      <!-- −0.05 -->
      <g transform="translate(452.112966 267.237918) scale(0.1 -0.1)">
       <use xlink:href="#DejaVuSans-2212"/>
       <use xlink:href="#DejaVuSans-30" transform="translate(83.789062 0)"/>
       <use xlink:href="#DejaVuSans-2e" transform="translate(147.412109 0)"/>
       <use xlink:href="#DejaVuSans-30" transform="translate(179.199219 0)"/>
       <use xlink:href="#DejaVuSans-35" transform="translate(242.822266 0)"/>
      </g>
     </g>
    </g>
    <g id="xtick_9">
     <g id="line2d_37">
      <g>
       <use xlink:href="#ma411e0def1" x="530.893168" y="252.639481" style="stroke: #000000; stroke-width: 0.8"/>
      </g>
     </g>
     <g id="text_27">
      <!-- 0.00 -->
      <g transform="translate(519.760356 267.237918) scale(0.1 -0.1)">
       <use xlink:href="#DejaVuSans-30"/>
       <use xlink:href="#DejaVuSans-2e" transform="translate(63.623047 0)"/>
       <use xlink:href="#DejaVuSans-30" transform="translate(95.410156 0)"/>
       <use xlink:href="#DejaVuSans-30" transform="translate(159.033203 0)"/>
      </g>
     </g>
    </g>
    <g id="xtick_10">
     <g id="line2d_38">
      <g>
       <use xlink:href="#ma411e0def1" x="594.350714" y="252.639481" style="stroke: #000000; stroke-width: 0.8"/>
      </g>
     </g>
     <g id="text_28">
      <!-- 0.05 -->
      <g transform="translate(583.217902 267.237918) scale(0.1 -0.1)">
       <use xlink:href="#DejaVuSans-30"/>
       <use xlink:href="#DejaVuSans-2e" transform="translate(63.623047 0)"/>
       <use xlink:href="#DejaVuSans-30" transform="translate(95.410156 0)"/>
       <use xlink:href="#DejaVuSans-35" transform="translate(159.033203 0)"/>
      </g>
     </g>
    </g>
    <g id="xtick_11">
     <g id="line2d_39">
      <g>
       <use xlink:href="#ma411e0def1" x="657.80826" y="252.639481" style="stroke: #000000; stroke-width: 0.8"/>
      </g>
     </g>
     <g id="text_29">
      <!-- 0.10 -->
      <g transform="translate(646.675448 267.237918) scale(0.1 -0.1)">
       <use xlink:href="#DejaVuSans-30"/>
       <use xlink:href="#DejaVuSans-2e" transform="translate(63.623047 0)"/>
       <use xlink:href="#DejaVuSans-31" transform="translate(95.410156 0)"/>
       <use xlink:href="#DejaVuSans-30" transform="translate(159.033203 0)"/>
      </g>
     </g>
    </g>
    <g id="xtick_12">
     <g id="line2d_40">
      <g>
       <use xlink:href="#ma411e0def1" x="721.265806" y="252.639481" style="stroke: #000000; stroke-width: 0.8"/>
      </g>
     </g>
     <g id="text_30">
      <!-- 0.15 -->
      <g transform="translate(710.132994 267.237918) scale(0.1 -0.1)">
       <use xlink:href="#DejaVuSans-30"/>
       <use xlink:href="#DejaVuSans-2e" transform="translate(63.623047 0)"/>
       <use xlink:href="#DejaVuSans-31" transform="translate(95.410156 0)"/>
       <use xlink:href="#DejaVuSans-35" transform="translate(159.033203 0)"/>
      </g>
     </g>
    </g>
   </g>
   <g id="matplotlib.axis_4">
    <g id="ytick_7">
     <g id="line2d_41">
      <g>
       <use xlink:href="#m7810cd584c" x="403.978076" y="252.639481" style="stroke: #000000; stroke-width: 0.8"/>
      </g>
     </g>
     <g id="text_31">
      <!-- $\mathdefault{10^{-3}}$ -->
      <g transform="translate(373.478076 256.438699) scale(0.1 -0.1)">
       <defs>
        <path id="DejaVuSans-33" d="M 2597 2516 
Q 3050 2419 3304 2112 
Q 3559 1806 3559 1356 
Q 3559 666 3084 287 
Q 2609 -91 1734 -91 
Q 1441 -91 1130 -33 
Q 819 25 488 141 
L 488 750 
Q 750 597 1062 519 
Q 1375 441 1716 441 
Q 2309 441 2620 675 
Q 2931 909 2931 1356 
Q 2931 1769 2642 2001 
Q 2353 2234 1838 2234 
L 1294 2234 
L 1294 2753 
L 1863 2753 
Q 2328 2753 2575 2939 
Q 2822 3125 2822 3475 
Q 2822 3834 2567 4026 
Q 2313 4219 1838 4219 
Q 1578 4219 1281 4162 
Q 984 4106 628 3988 
L 628 4550 
Q 988 4650 1302 4700 
Q 1616 4750 1894 4750 
Q 2613 4750 3031 4423 
Q 3450 4097 3450 3541 
Q 3450 3153 3228 2886 
Q 3006 2619 2597 2516 
z
" transform="scale(0.015625)"/>
       </defs>
       <use xlink:href="#DejaVuSans-31" transform="translate(0 0.765625)"/>
       <use xlink:href="#DejaVuSans-30" transform="translate(63.623047 0.765625)"/>
       <use xlink:href="#DejaVuSans-2212" transform="translate(128.203125 39.046875) scale(0.7)"/>
       <use xlink:href="#DejaVuSans-33" transform="translate(186.855469 39.046875) scale(0.7)"/>
      </g>
     </g>
    </g>
    <g id="ytick_8">
     <g id="line2d_42">
      <g>
       <use xlink:href="#m7810cd584c" x="403.978076" y="176.90632" style="stroke: #000000; stroke-width: 0.8"/>
      </g>
     </g>
     <g id="text_32">
      <!-- $\mathdefault{10^{-2}}$ -->
      <g transform="translate(373.478076 180.705539) scale(0.1 -0.1)">
       <use xlink:href="#DejaVuSans-31" transform="translate(0 0.765625)"/>
       <use xlink:href="#DejaVuSans-30" transform="translate(63.623047 0.765625)"/>
       <use xlink:href="#DejaVuSans-2212" transform="translate(128.203125 39.046875) scale(0.7)"/>
       <use xlink:href="#DejaVuSans-32" transform="translate(186.855469 39.046875) scale(0.7)"/>
      </g>
     </g>
    </g>
    <g id="ytick_9">
     <g id="line2d_43">
      <g>
       <use xlink:href="#m7810cd584c" x="403.978076" y="101.17316" style="stroke: #000000; stroke-width: 0.8"/>
      </g>
     </g>
     <g id="text_33">
      <!-- $\mathdefault{10^{-1}}$ -->
      <g transform="translate(373.478076 104.972379) scale(0.1 -0.1)">
       <use xlink:href="#DejaVuSans-31" transform="translate(0 0.684375)"/>
       <use xlink:href="#DejaVuSans-30" transform="translate(63.623047 0.684375)"/>
       <use xlink:href="#DejaVuSans-2212" transform="translate(128.203125 38.965625) scale(0.7)"/>
       <use xlink:href="#DejaVuSans-31" transform="translate(186.855469 38.965625) scale(0.7)"/>
      </g>
     </g>
    </g>
    <g id="ytick_10">
     <g id="line2d_44">
      <g>
       <use xlink:href="#m7810cd584c" x="403.978076" y="25.44" style="stroke: #000000; stroke-width: 0.8"/>
      </g>
     </g>
     <g id="text_34">
      <!-- $\mathdefault{10^{0}}$ -->
      <g transform="translate(379.378076 29.239219) scale(0.1 -0.1)">
       <use xlink:href="#DejaVuSans-31" transform="translate(0 0.765625)"/>
       <use xlink:href="#DejaVuSans-30" transform="translate(63.623047 0.765625)"/>
       <use xlink:href="#DejaVuSans-30" transform="translate(128.203125 39.046875) scale(0.7)"/>
      </g>
     </g>
    </g>
    <g id="ytick_11">
     <g id="line2d_45">
      <defs>
       <path id="mf496c46441" d="M 0 0 
L -2 0 
" style="stroke: #000000; stroke-width: 0.6"/>
      </defs>
      <g>
       <use xlink:href="#mf496c46441" x="403.978076" y="229.841528" style="stroke: #000000; stroke-width: 0.6"/>
      </g>
     </g>
    </g>
    <g id="ytick_12">
     <g id="line2d_46">
      <g>
       <use xlink:href="#mf496c46441" x="403.978076" y="216.50558" style="stroke: #000000; stroke-width: 0.6"/>
      </g>
     </g>
    </g>
    <g id="ytick_13">
     <g id="line2d_47">
      <g>
       <use xlink:href="#mf496c46441" x="403.978076" y="207.043575" style="stroke: #000000; stroke-width: 0.6"/>
      </g>
     </g>
    </g>
    <g id="ytick_14">
     <g id="line2d_48">
      <g>
       <use xlink:href="#mf496c46441" x="403.978076" y="199.704273" style="stroke: #000000; stroke-width: 0.6"/>
      </g>
     </g>
    </g>
    <g id="ytick_15">
     <g id="line2d_49">
      <g>
       <use xlink:href="#mf496c46441" x="403.978076" y="193.707627" style="stroke: #000000; stroke-width: 0.6"/>
      </g>
     </g>
    </g>
    <g id="ytick_16">
     <g id="line2d_50">
      <g>
       <use xlink:href="#mf496c46441" x="403.978076" y="188.637535" style="stroke: #000000; stroke-width: 0.6"/>
      </g>
     </g>
    </g>
    <g id="ytick_17">
     <g id="line2d_51">
      <g>
       <use xlink:href="#mf496c46441" x="403.978076" y="184.245622" style="stroke: #000000; stroke-width: 0.6"/>
      </g>
     </g>
    </g>
    <g id="ytick_18">
     <g id="line2d_52">
      <g>
       <use xlink:href="#mf496c46441" x="403.978076" y="180.37168" style="stroke: #000000; stroke-width: 0.6"/>
      </g>
     </g>
    </g>
    <g id="ytick_19">
     <g id="line2d_53">
      <g>
       <use xlink:href="#mf496c46441" x="403.978076" y="154.108367" style="stroke: #000000; stroke-width: 0.6"/>
      </g>
     </g>
    </g>
    <g id="ytick_20">
     <g id="line2d_54">
      <g>
       <use xlink:href="#mf496c46441" x="403.978076" y="140.77242" style="stroke: #000000; stroke-width: 0.6"/>
      </g>
     </g>
    </g>
    <g id="ytick_21">
     <g id="line2d_55">
      <g>
       <use xlink:href="#mf496c46441" x="403.978076" y="131.310415" style="stroke: #000000; stroke-width: 0.6"/>
      </g>
     </g>
    </g>
    <g id="ytick_22">
     <g id="line2d_56">
      <g>
       <use xlink:href="#mf496c46441" x="403.978076" y="123.971113" style="stroke: #000000; stroke-width: 0.6"/>
      </g>
     </g>
    </g>
    <g id="ytick_23">
     <g id="line2d_57">
      <g>
       <use xlink:href="#mf496c46441" x="403.978076" y="117.974467" style="stroke: #000000; stroke-width: 0.6"/>
      </g>
     </g>
    </g>
    <g id="ytick_24">
     <g id="line2d_58">
      <g>
       <use xlink:href="#mf496c46441" x="403.978076" y="112.904375" style="stroke: #000000; stroke-width: 0.6"/>
      </g>
     </g>
    </g>
    <g id="ytick_25">
     <g id="line2d_59">
      <g>
       <use xlink:href="#mf496c46441" x="403.978076" y="108.512462" style="stroke: #000000; stroke-width: 0.6"/>
      </g>
     </g>
    </g>
    <g id="ytick_26">
     <g id="line2d_60">
      <g>
       <use xlink:href="#mf496c46441" x="403.978076" y="104.63852" style="stroke: #000000; stroke-width: 0.6"/>
      </g>
     </g>
    </g>
    <g id="ytick_27">
     <g id="line2d_61">
      <g>
       <use xlink:href="#mf496c46441" x="403.978076" y="78.375207" style="stroke: #000000; stroke-width: 0.6"/>
      </g>
     </g>
    </g>
    <g id="ytick_28">
     <g id="line2d_62">
      <g>
       <use xlink:href="#mf496c46441" x="403.978076" y="65.03926" style="stroke: #000000; stroke-width: 0.6"/>
      </g>
     </g>
    </g>
    <g id="ytick_29">
     <g id="line2d_63">
      <g>
       <use xlink:href="#mf496c46441" x="403.978076" y="55.577254" style="stroke: #000000; stroke-width: 0.6"/>
      </g>
     </g>
    </g>
    <g id="ytick_30">
     <g id="line2d_64">
      <g>
       <use xlink:href="#mf496c46441" x="403.978076" y="48.237953" style="stroke: #000000; stroke-width: 0.6"/>
      </g>
     </g>
    </g>
    <g id="ytick_31">
     <g id="line2d_65">
      <g>
       <use xlink:href="#mf496c46441" x="403.978076" y="42.241307" style="stroke: #000000; stroke-width: 0.6"/>
      </g>
     </g>
    </g>
    <g id="ytick_32">
     <g id="line2d_66">
      <g>
       <use xlink:href="#mf496c46441" x="403.978076" y="37.171215" style="stroke: #000000; stroke-width: 0.6"/>
      </g>
     </g>
    </g>
    <g id="ytick_33">
     <g id="line2d_67">
      <g>
       <use xlink:href="#mf496c46441" x="403.978076" y="32.779302" style="stroke: #000000; stroke-width: 0.6"/>
      </g>
     </g>
    </g>
    <g id="ytick_34">
     <g id="line2d_68">
      <g>
       <use xlink:href="#mf496c46441" x="403.978076" y="28.905359" style="stroke: #000000; stroke-width: 0.6"/>
      </g>
     </g>
    </g>
   </g>
   <g id="line2d_69">
    <path d="M 403.978076 25.44 
L 430.896767 25.44 
L 457.815458 25.44 
L 484.746841 25.44 
L 511.665532 25.44 
L 538.585492 25.44 
L 565.502914 25.44 
L 592.421605 25.44 
L 619.352988 26.397768 
L 646.271679 63.939573 
L 673.164987 100.009916 
L 700.070986 131.907836 
L 726.976986 162.217195 
L 744.225806 179.474673 
" clip-path="url(#pc71d27cbb9)" style="fill: none; stroke-dasharray: 9.6,2.4,1.5,2.4; stroke-dashoffset: 0; stroke: #000000; stroke-width: 1.5"/>
   </g>
   <g id="line2d_70">
    <path d="M 403.978076 25.44 
L 430.896767 25.44 
L 457.815458 25.44 
L 484.746841 25.44 
L 511.665532 25.44 
L 538.585492 25.44 
L 565.502914 25.44 
L 592.421605 25.44 
L 619.352988 26.404542 
L 646.271679 65.380896 
L 673.164987 102.443945 
L 700.070986 133.520944 
L 726.976986 160.058997 
L 744.225806 174.886649 
" clip-path="url(#pc71d27cbb9)" style="fill: none; stroke: #d2691e; stroke-width: 1.5; stroke-linecap: square"/>
   </g>
   <g id="line2d_71">
    <path d="M 403.978076 25.44 
L 430.896767 25.44 
L 457.815458 25.44 
L 484.746841 25.44 
L 511.665532 25.44 
L 538.585492 25.44 
L 565.502914 25.44 
L 592.421605 25.44 
L 619.352988 26.38084 
L 646.271679 63.918373 
L 673.164987 99.946484 
L 700.070986 131.765796 
L 726.976986 162.238244 
L 744.225806 179.561891 
" clip-path="url(#pc71d27cbb9)" style="fill: none; stroke: #000000; stroke-width: 1.5; stroke-linecap: square"/>
   </g>
   <g id="line2d_72">
    <path d="M 403.978076 25.44 
L 430.896767 25.44 
L 457.815458 25.44 
L 484.746841 25.44 
L 511.665532 25.44 
L 538.585492 25.44 
L 565.502914 25.44 
L 592.421605 25.44 
L 619.352988 26.615203 
L 646.271679 72.26911 
L 673.164987 115.190369 
L 700.070986 151.30413 
L 726.976986 182.074131 
L 744.225806 202.722103 
" clip-path="url(#pc71d27cbb9)" style="fill: none; stroke: #00ffff; stroke-width: 1.5; stroke-linecap: square"/>
   </g>
   <g id="line2d_73">
    <path d="M 403.978076 25.44 
L 430.896767 25.44 
L 457.815458 25.44 
L 484.746841 25.44 
L 511.665532 25.44 
L 538.585492 25.44 
L 565.502914 25.44 
L 592.421605 25.44 
L 619.352988 26.309843 
L 646.271679 58.391297 
L 673.164987 89.825704 
L 700.070986 118.410402 
L 726.976986 147.608529 
L 744.225806 172.086789 
" clip-path="url(#pc71d27cbb9)" style="fill: none; stroke: #0000ff; stroke-width: 1.5; stroke-linecap: square"/>
   </g>
   <g id="line2d_74">
    <path d="M 403.978076 25.44 
L 430.896767 25.44 
L 457.815458 25.44 
L 484.746841 25.44 
L 511.665532 25.44 
L 538.585492 25.44 
L 565.502914 25.44 
L 592.421605 25.44 
L 619.352988 26.374073 
L 646.271679 64.173671 
L 673.164987 101.570232 
L 700.070986 134.502822 
L 726.976986 163.35183 
L 744.225806 179.879224 
" clip-path="url(#pc71d27cbb9)" style="fill: none; stroke: #ff00ff; stroke-width: 1.5; stroke-linecap: square"/>
   </g>
   <g id="line2d_75">
    <path d="M 403.978076 25.44 
L 430.896767 25.44 
L 457.815458 25.44 
L 484.746841 25.44 
L 511.665532 25.44 
L 538.585492 25.44 
L 565.502914 25.44 
L 592.421605 25.44 
L 619.352988 26.340253 
L 646.271679 64.173671 
L 673.164987 100.200957 
L 700.070986 129.008331 
L 726.976986 157.391506 
L 744.225806 173.956909 
" clip-path="url(#pc71d27cbb9)" style="fill: none; stroke-dasharray: 5.55,2.4; stroke-dashoffset: 0; stroke: #ff00ff; stroke-width: 1.5"/>
   </g>
   <g id="line2d_76">
    <path d="M 403.978076 25.44 
L 430.896767 25.44 
L 457.815458 25.44 
L 484.746841 25.44 
L 511.665532 25.44 
L 538.585492 25.44 
L 565.502914 25.44 
L 592.421605 25.44 
L 619.352988 26.340253 
L 646.271679 62.71163 
L 673.164987 98.038361 
L 700.070986 131.310415 
L 726.976986 166.55204 
L 744.225806 183.809295 
" clip-path="url(#pc71d27cbb9)" style="fill: none; stroke-dasharray: 1.5,2.475; stroke-dashoffset: 0; stroke: #ff00ff; stroke-width: 1.5"/>
   </g>
   <g id="line2d_77">
    <path d="M 403.978076 25.44 
L 430.896767 25.44 
L 457.815458 25.44 
L 484.746841 25.44 
L 511.665532 25.44 
L 538.585492 25.44 
L 565.502914 25.44 
L 592.421605 25.44 
L 619.352988 26.306467 
L 646.271679 60.922582 
L 673.164987 94.364361 
L 700.070986 124.837579 
L 726.976986 156.143481 
L 744.225806 173.607581 
" clip-path="url(#pc71d27cbb9)" style="fill: none; stroke: #ffa500; stroke-width: 1.5; stroke-linecap: square"/>
   </g>
   <g id="line2d_78">
    <path d="M 403.978076 25.44 
L 430.896767 25.44 
L 457.815458 25.44 
L 484.746841 25.44 
L 511.665532 25.44 
L 538.585492 25.44 
L 565.502914 25.44 
L 592.421605 25.44 
L 619.352988 26.509704 
L 646.271679 69.999901 
L 673.164987 114.640934 
L 700.070986 154.108368 
L 726.976986 188.873311 
L 744.225806 210.49939 
" clip-path="url(#pc71d27cbb9)" style="fill: none; stroke-dasharray: 5.55,2.4; stroke-dashoffset: 0; stroke: #ffa500; stroke-width: 1.5"/>
   </g>
   <g id="line2d_79">
    <path d="M 403.978076 25.44 
L 430.896767 25.44 
L 457.815458 25.44 
L 484.746841 25.44 
L 511.665532 25.44 
L 538.585492 25.44 
L 565.502914 25.44 
L 592.421605 25.44 
L 619.352988 26.340253 
L 646.271679 62.305569 
L 673.164987 97.445723 
L 700.070986 128.175616 
L 726.976986 156.672561 
L 744.225806 171.31014 
" clip-path="url(#pc71d27cbb9)" style="fill: none; stroke-dasharray: 1.5,2.475; stroke-dashoffset: 0; stroke: #008000; stroke-width: 1.5"/>
   </g>
   <g id="patch_9">
    <path d="M 403.978076 252.639481 
L 403.978076 25.44 
" style="fill: none; stroke: #000000; stroke-width: 0.8; stroke-linejoin: miter; stroke-linecap: square"/>
   </g>
   <g id="patch_10">
    <path d="M 721.265806 252.639481 
L 721.265806 25.44 
" style="fill: none; stroke: #000000; stroke-width: 0.8; stroke-linejoin: miter; stroke-linecap: square"/>
   </g>
   <g id="patch_11">
    <path d="M 403.978076 252.639481 
L 721.265806 252.639481 
" style="fill: none; stroke: #000000; stroke-width: 0.8; stroke-linejoin: miter; stroke-linecap: square"/>
   </g>
   <g id="patch_12">
    <path d="M 403.978076 25.44 
L 721.265806 25.44 
" style="fill: none; stroke: #000000; stroke-width: 0.8; stroke-linejoin: miter; stroke-linecap: square"/>
   </g>
   <g id="text_35">
    <!-- Reseek (logscale) -->
    <g transform="translate(509.851004 19.44) scale(0.12 -0.12)">
     <defs>
      <path id="DejaVuSans-20" transform="scale(0.015625)"/>
      <path id="DejaVuSans-28" d="M 1984 4856 
Q 1566 4138 1362 3434 
Q 1159 2731 1159 2009 
Q 1159 1288 1364 580 
Q 1569 -128 1984 -844 
L 1484 -844 
Q 1016 -109 783 600 
Q 550 1309 550 2009 
Q 550 2706 781 3412 
Q 1013 4119 1484 4856 
L 1984 4856 
z
" transform="scale(0.015625)"/>
      <path id="DejaVuSans-6c" d="M 603 4863 
L 1178 4863 
L 1178 0 
L 603 0 
L 603 4863 
z
" transform="scale(0.015625)"/>
      <path id="DejaVuSans-6f" d="M 1959 3097 
Q 1497 3097 1228 2736 
Q 959 2375 959 1747 
Q 959 1119 1226 758 
Q 1494 397 1959 397 
Q 2419 397 2687 759 
Q 2956 1122 2956 1747 
Q 2956 2369 2687 2733 
Q 2419 3097 1959 3097 
z
M 1959 3584 
Q 2709 3584 3137 3096 
Q 3566 2609 3566 1747 
Q 3566 888 3137 398 
Q 2709 -91 1959 -91 
Q 1206 -91 779 398 
Q 353 888 353 1747 
Q 353 2609 779 3096 
Q 1206 3584 1959 3584 
z
" transform="scale(0.015625)"/>
      <path id="DejaVuSans-67" d="M 2906 1791 
Q 2906 2416 2648 2759 
Q 2391 3103 1925 3103 
Q 1463 3103 1205 2759 
Q 947 2416 947 1791 
Q 947 1169 1205 825 
Q 1463 481 1925 481 
Q 2391 481 2648 825 
Q 2906 1169 2906 1791 
z
M 3481 434 
Q 3481 -459 3084 -895 
Q 2688 -1331 1869 -1331 
Q 1566 -1331 1297 -1286 
Q 1028 -1241 775 -1147 
L 775 -588 
Q 1028 -725 1275 -790 
Q 1522 -856 1778 -856 
Q 2344 -856 2625 -561 
Q 2906 -266 2906 331 
L 2906 616 
Q 2728 306 2450 153 
Q 2172 0 1784 0 
Q 1141 0 747 490 
Q 353 981 353 1791 
Q 353 2603 747 3093 
Q 1141 3584 1784 3584 
Q 2172 3584 2450 3431 
Q 2728 3278 2906 2969 
L 2906 3500 
L 3481 3500 
L 3481 434 
z
" transform="scale(0.015625)"/>
      <path id="DejaVuSans-61" d="M 2194 1759 
Q 1497 1759 1228 1600 
Q 959 1441 959 1056 
Q 959 750 1161 570 
Q 1363 391 1709 391 
Q 2188 391 2477 730 
Q 2766 1069 2766 1631 
L 2766 1759 
L 2194 1759 
z
M 3341 1997 
L 3341 0 
L 2766 0 
L 2766 531 
Q 2569 213 2275 61 
Q 1981 -91 1556 -91 
Q 1019 -91 701 211 
Q 384 513 384 1019 
Q 384 1609 779 1909 
Q 1175 2209 1959 2209 
L 2766 2209 
L 2766 2266 
Q 2766 2663 2505 2880 
Q 2244 3097 1772 3097 
Q 1472 3097 1187 3025 
Q 903 2953 641 2809 
L 641 3341 
Q 956 3463 1253 3523 
Q 1550 3584 1831 3584 
Q 2591 3584 2966 3190 
Q 3341 2797 3341 1997 
z
" transform="scale(0.015625)"/>
      <path id="DejaVuSans-29" d="M 513 4856 
L 1013 4856 
Q 1481 4119 1714 3412 
Q 1947 2706 1947 2009 
Q 1947 1309 1714 600 
Q 1481 -109 1013 -844 
L 513 -844 
Q 928 -128 1133 580 
Q 1338 1288 1338 2009 
Q 1338 2731 1133 3434 
Q 928 4138 513 4856 
z
" transform="scale(0.015625)"/>
     </defs>
     <use xlink:href="#DejaVuSans-52"/>
     <use xlink:href="#DejaVuSans-65" transform="translate(64.982422 0)"/>
     <use xlink:href="#DejaVuSans-73" transform="translate(126.505859 0)"/>
     <use xlink:href="#DejaVuSans-65" transform="translate(178.605469 0)"/>
     <use xlink:href="#DejaVuSans-65" transform="translate(240.128906 0)"/>
     <use xlink:href="#DejaVuSans-6b" transform="translate(301.652344 0)"/>
     <use xlink:href="#DejaVuSans-20" transform="translate(359.5625 0)"/>
     <use xlink:href="#DejaVuSans-28" transform="translate(391.349609 0)"/>
     <use xlink:href="#DejaVuSans-6c" transform="translate(430.363281 0)"/>
     <use xlink:href="#DejaVuSans-6f" transform="translate(458.146484 0)"/>
     <use xlink:href="#DejaVuSans-67" transform="translate(519.328125 0)"/>
     <use xlink:href="#DejaVuSans-73" transform="translate(582.804688 0)"/>
     <use xlink:href="#DejaVuSans-63" transform="translate(634.904297 0)"/>
     <use xlink:href="#DejaVuSans-61" transform="translate(689.884766 0)"/>
     <use xlink:href="#DejaVuSans-6c" transform="translate(751.164062 0)"/>
     <use xlink:href="#DejaVuSans-65" transform="translate(778.947266 0)"/>
     <use xlink:href="#DejaVuSans-29" transform="translate(840.470703 0)"/>
    </g>
   </g>
   <g id="legend_2">
    <g id="patch_13">
     <path d="M 410.978076 194.899375 
L 504.767139 194.899375 
Q 506.767139 194.899375 506.767139 192.899375 
L 506.767139 32.44 
Q 506.767139 30.44 504.767139 30.44 
L 410.978076 30.44 
Q 408.978076 30.44 408.978076 32.44 
L 408.978076 192.899375 
Q 408.978076 194.899375 410.978076 194.899375 
z
" style="fill: #ffffff; opacity: 0.8; stroke: #cccccc; stroke-linejoin: miter"/>
    </g>
    <g id="line2d_80">
     <path d="M 412.978076 38.538437 
L 422.978076 38.538437 
L 432.978076 38.538437 
" style="fill: none; stroke-dasharray: 9.6,2.4,1.5,2.4; stroke-dashoffset: 0; stroke: #000000; stroke-width: 1.5"/>
    </g>
    <g id="text_36">
     <!-- SCOP40x8 -->
     <g transform="translate(440.978076 42.038437) scale(0.1 -0.1)">
      <use xlink:href="#DejaVuSans-53"/>
      <use xlink:href="#DejaVuSans-43" transform="translate(63.476562 0)"/>
      <use xlink:href="#DejaVuSans-4f" transform="translate(133.300781 0)"/>
      <use xlink:href="#DejaVuSans-50" transform="translate(212.011719 0)"/>
      <use xlink:href="#DejaVuSans-34" transform="translate(272.314453 0)"/>
      <use xlink:href="#DejaVuSans-30" transform="translate(335.9375 0)"/>
      <use xlink:href="#DejaVuSans-78" transform="translate(399.560547 0)"/>
      <use xlink:href="#DejaVuSans-38" transform="translate(458.740234 0)"/>
     </g>
    </g>
    <g id="line2d_81">
     <path d="M 412.978076 53.216563 
L 422.978076 53.216563 
L 432.978076 53.216563 
" style="fill: none; stroke: #d2691e; stroke-width: 1.5; stroke-linecap: square"/>
    </g>
    <g id="text_37">
     <!-- CATH40 -->
     <g transform="translate(440.978076 56.716563) scale(0.1 -0.1)">
      <use xlink:href="#DejaVuSans-43"/>
      <use xlink:href="#DejaVuSans-41" transform="translate(69.824219 0)"/>
      <use xlink:href="#DejaVuSans-54" transform="translate(130.482422 0)"/>
      <use xlink:href="#DejaVuSans-48" transform="translate(191.566406 0)"/>
      <use xlink:href="#DejaVuSans-34" transform="translate(266.761719 0)"/>
      <use xlink:href="#DejaVuSans-30" transform="translate(330.384766 0)"/>
     </g>
    </g>
    <g id="line2d_82">
     <path d="M 412.978076 67.894688 
L 422.978076 67.894688 
L 432.978076 67.894688 
" style="fill: none; stroke: #000000; stroke-width: 1.5; stroke-linecap: square"/>
    </g>
    <g id="text_38">
     <!-- SCOP40 -->
     <g transform="translate(440.978076 71.394688) scale(0.1 -0.1)">
      <use xlink:href="#DejaVuSans-53"/>
      <use xlink:href="#DejaVuSans-43" transform="translate(63.476562 0)"/>
      <use xlink:href="#DejaVuSans-4f" transform="translate(133.300781 0)"/>
      <use xlink:href="#DejaVuSans-50" transform="translate(212.011719 0)"/>
      <use xlink:href="#DejaVuSans-34" transform="translate(272.314453 0)"/>
      <use xlink:href="#DejaVuSans-30" transform="translate(335.9375 0)"/>
     </g>
    </g>
    <g id="line2d_83">
     <path d="M 412.978076 82.572812 
L 422.978076 82.572812 
L 432.978076 82.572812 
" style="fill: none; stroke: #00ffff; stroke-width: 1.5; stroke-linecap: square"/>
    </g>
    <g id="text_39">
     <!-- SCOP40c -->
     <g transform="translate(440.978076 86.072812) scale(0.1 -0.1)">
      <use xlink:href="#DejaVuSans-53"/>
      <use xlink:href="#DejaVuSans-43" transform="translate(63.476562 0)"/>
      <use xlink:href="#DejaVuSans-4f" transform="translate(133.300781 0)"/>
      <use xlink:href="#DejaVuSans-50" transform="translate(212.011719 0)"/>
      <use xlink:href="#DejaVuSans-34" transform="translate(272.314453 0)"/>
      <use xlink:href="#DejaVuSans-30" transform="translate(335.9375 0)"/>
      <use xlink:href="#DejaVuSans-63" transform="translate(399.560547 0)"/>
     </g>
    </g>
    <g id="line2d_84">
     <path d="M 412.978076 97.250938 
L 422.978076 97.250938 
L 432.978076 97.250938 
" style="fill: none; stroke: #0000ff; stroke-width: 1.5; stroke-linecap: square"/>
    </g>
    <g id="text_40">
     <!-- SCOP95 -->
     <g transform="translate(440.978076 100.750938) scale(0.1 -0.1)">
      <use xlink:href="#DejaVuSans-53"/>
      <use xlink:href="#DejaVuSans-43" transform="translate(63.476562 0)"/>
      <use xlink:href="#DejaVuSans-4f" transform="translate(133.300781 0)"/>
      <use xlink:href="#DejaVuSans-50" transform="translate(212.011719 0)"/>
      <use xlink:href="#DejaVuSans-39" transform="translate(272.314453 0)"/>
      <use xlink:href="#DejaVuSans-35" transform="translate(335.9375 0)"/>
     </g>
    </g>
    <g id="line2d_85">
     <path d="M 412.978076 111.929062 
L 422.978076 111.929062 
L 432.978076 111.929062 
" style="fill: none; stroke: #ff00ff; stroke-width: 1.5; stroke-linecap: square"/>
    </g>
    <g id="text_41">
     <!-- SCOP40/N4 -->
     <g transform="translate(440.978076 115.429062) scale(0.1 -0.1)">
      <use xlink:href="#DejaVuSans-53"/>
      <use xlink:href="#DejaVuSans-43" transform="translate(63.476562 0)"/>
      <use xlink:href="#DejaVuSans-4f" transform="translate(133.300781 0)"/>
      <use xlink:href="#DejaVuSans-50" transform="translate(212.011719 0)"/>
      <use xlink:href="#DejaVuSans-34" transform="translate(272.314453 0)"/>
      <use xlink:href="#DejaVuSans-30" transform="translate(335.9375 0)"/>
      <use xlink:href="#DejaVuSans-2f" transform="translate(399.560547 0)"/>
      <use xlink:href="#DejaVuSans-4e" transform="translate(433.251953 0)"/>
      <use xlink:href="#DejaVuSans-34" transform="translate(508.056641 0)"/>
     </g>
    </g>
    <g id="line2d_86">
     <path d="M 412.978076 126.607188 
L 422.978076 126.607188 
L 432.978076 126.607188 
" style="fill: none; stroke-dasharray: 5.55,2.4; stroke-dashoffset: 0; stroke: #ff00ff; stroke-width: 1.5"/>
    </g>
    <g id="text_42">
     <!-- SCOP40/N4 -->
     <g transform="translate(440.978076 130.107188) scale(0.1 -0.1)">
      <use xlink:href="#DejaVuSans-53"/>
      <use xlink:href="#DejaVuSans-43" transform="translate(63.476562 0)"/>
      <use xlink:href="#DejaVuSans-4f" transform="translate(133.300781 0)"/>
      <use xlink:href="#DejaVuSans-50" transform="translate(212.011719 0)"/>
      <use xlink:href="#DejaVuSans-34" transform="translate(272.314453 0)"/>
      <use xlink:href="#DejaVuSans-30" transform="translate(335.9375 0)"/>
      <use xlink:href="#DejaVuSans-2f" transform="translate(399.560547 0)"/>
      <use xlink:href="#DejaVuSans-4e" transform="translate(433.251953 0)"/>
      <use xlink:href="#DejaVuSans-34" transform="translate(508.056641 0)"/>
     </g>
    </g>
    <g id="line2d_87">
     <path d="M 412.978076 141.285312 
L 422.978076 141.285312 
L 432.978076 141.285312 
" style="fill: none; stroke-dasharray: 1.5,2.475; stroke-dashoffset: 0; stroke: #ff00ff; stroke-width: 1.5"/>
    </g>
    <g id="text_43">
     <!-- SCOP40/N8 -->
     <g transform="translate(440.978076 144.785312) scale(0.1 -0.1)">
      <use xlink:href="#DejaVuSans-53"/>
      <use xlink:href="#DejaVuSans-43" transform="translate(63.476562 0)"/>
      <use xlink:href="#DejaVuSans-4f" transform="translate(133.300781 0)"/>
      <use xlink:href="#DejaVuSans-50" transform="translate(212.011719 0)"/>
      <use xlink:href="#DejaVuSans-34" transform="translate(272.314453 0)"/>
      <use xlink:href="#DejaVuSans-30" transform="translate(335.9375 0)"/>
      <use xlink:href="#DejaVuSans-2f" transform="translate(399.560547 0)"/>
      <use xlink:href="#DejaVuSans-4e" transform="translate(433.251953 0)"/>
      <use xlink:href="#DejaVuSans-38" transform="translate(508.056641 0)"/>
     </g>
    </g>
    <g id="line2d_88">
     <path d="M 412.978076 155.963437 
L 422.978076 155.963437 
L 432.978076 155.963437 
" style="fill: none; stroke: #ffa500; stroke-width: 1.5; stroke-linecap: square"/>
    </g>
    <g id="text_44">
     <!-- SCOP40/SF4 -->
     <g transform="translate(440.978076 159.463437) scale(0.1 -0.1)">
      <use xlink:href="#DejaVuSans-53"/>
      <use xlink:href="#DejaVuSans-43" transform="translate(63.476562 0)"/>
      <use xlink:href="#DejaVuSans-4f" transform="translate(133.300781 0)"/>
      <use xlink:href="#DejaVuSans-50" transform="translate(212.011719 0)"/>
      <use xlink:href="#DejaVuSans-34" transform="translate(272.314453 0)"/>
      <use xlink:href="#DejaVuSans-30" transform="translate(335.9375 0)"/>
      <use xlink:href="#DejaVuSans-2f" transform="translate(399.560547 0)"/>
      <use xlink:href="#DejaVuSans-53" transform="translate(433.251953 0)"/>
      <use xlink:href="#DejaVuSans-46" transform="translate(496.728516 0)"/>
      <use xlink:href="#DejaVuSans-34" transform="translate(554.248047 0)"/>
     </g>
    </g>
    <g id="line2d_89">
     <path d="M 412.978076 170.641562 
L 422.978076 170.641562 
L 432.978076 170.641562 
" style="fill: none; stroke-dasharray: 5.55,2.4; stroke-dashoffset: 0; stroke: #ffa500; stroke-width: 1.5"/>
    </g>
    <g id="text_45">
     <!-- SCOP40/SF4 -->
     <g transform="translate(440.978076 174.141562) scale(0.1 -0.1)">
      <use xlink:href="#DejaVuSans-53"/>
      <use xlink:href="#DejaVuSans-43" transform="translate(63.476562 0)"/>
      <use xlink:href="#DejaVuSans-4f" transform="translate(133.300781 0)"/>
      <use xlink:href="#DejaVuSans-50" transform="translate(212.011719 0)"/>
      <use xlink:href="#DejaVuSans-34" transform="translate(272.314453 0)"/>
      <use xlink:href="#DejaVuSans-30" transform="translate(335.9375 0)"/>
      <use xlink:href="#DejaVuSans-2f" transform="translate(399.560547 0)"/>
      <use xlink:href="#DejaVuSans-53" transform="translate(433.251953 0)"/>
      <use xlink:href="#DejaVuSans-46" transform="translate(496.728516 0)"/>
      <use xlink:href="#DejaVuSans-34" transform="translate(554.248047 0)"/>
     </g>
    </g>
    <g id="line2d_90">
     <path d="M 412.978076 185.319687 
L 422.978076 185.319687 
L 432.978076 185.319687 
" style="fill: none; stroke-dasharray: 1.5,2.475; stroke-dashoffset: 0; stroke: #008000; stroke-width: 1.5"/>
    </g>
    <g id="text_46">
     <!-- SCOP40/SF8 -->
     <g transform="translate(440.978076 188.819687) scale(0.1 -0.1)">
      <use xlink:href="#DejaVuSans-53"/>
      <use xlink:href="#DejaVuSans-43" transform="translate(63.476562 0)"/>
      <use xlink:href="#DejaVuSans-4f" transform="translate(133.300781 0)"/>
      <use xlink:href="#DejaVuSans-50" transform="translate(212.011719 0)"/>
      <use xlink:href="#DejaVuSans-34" transform="translate(272.314453 0)"/>
      <use xlink:href="#DejaVuSans-30" transform="translate(335.9375 0)"/>
      <use xlink:href="#DejaVuSans-2f" transform="translate(399.560547 0)"/>
      <use xlink:href="#DejaVuSans-53" transform="translate(433.251953 0)"/>
      <use xlink:href="#DejaVuSans-46" transform="translate(496.728516 0)"/>
      <use xlink:href="#DejaVuSans-38" transform="translate(554.248047 0)"/>
     </g>
    </g>
   </g>
  </g>
  <g id="text_47">
   <!-- ../plots/C_score_F.reseekts.svg -->
   <g transform="translate(280.554466 14.728515) scale(0.12 -0.12)">
    <defs>
     <path id="DejaVuSans-70" d="M 1159 525 
L 1159 -1331 
L 581 -1331 
L 581 3500 
L 1159 3500 
L 1159 2969 
Q 1341 3281 1617 3432 
Q 1894 3584 2278 3584 
Q 2916 3584 3314 3078 
Q 3713 2572 3713 1747 
Q 3713 922 3314 415 
Q 2916 -91 2278 -91 
Q 1894 -91 1617 61 
Q 1341 213 1159 525 
z
M 3116 1747 
Q 3116 2381 2855 2742 
Q 2594 3103 2138 3103 
Q 1681 3103 1420 2742 
Q 1159 2381 1159 1747 
Q 1159 1113 1420 752 
Q 1681 391 2138 391 
Q 2594 391 2855 752 
Q 3116 1113 3116 1747 
z
" transform="scale(0.015625)"/>
     <path id="DejaVuSans-74" d="M 1172 4494 
L 1172 3500 
L 2356 3500 
L 2356 3053 
L 1172 3053 
L 1172 1153 
Q 1172 725 1289 603 
Q 1406 481 1766 481 
L 2356 481 
L 2356 0 
L 1766 0 
Q 1100 0 847 248 
Q 594 497 594 1153 
L 594 3053 
L 172 3053 
L 172 3500 
L 594 3500 
L 594 4494 
L 1172 4494 
z
" transform="scale(0.015625)"/>
     <path id="DejaVuSans-5f" d="M 3263 -1063 
L 3263 -1509 
L -63 -1509 
L -63 -1063 
L 3263 -1063 
z
" transform="scale(0.015625)"/>
     <path id="DejaVuSans-72" d="M 2631 2963 
Q 2534 3019 2420 3045 
Q 2306 3072 2169 3072 
Q 1681 3072 1420 2755 
Q 1159 2438 1159 1844 
L 1159 0 
L 581 0 
L 581 3500 
L 1159 3500 
L 1159 2956 
Q 1341 3275 1631 3429 
Q 1922 3584 2338 3584 
Q 2397 3584 2469 3576 
Q 2541 3569 2628 3553 
L 2631 2963 
z
" transform="scale(0.015625)"/>
     <path id="DejaVuSans-76" d="M 191 3500 
L 800 3500 
L 1894 563 
L 2988 3500 
L 3597 3500 
L 2284 0 
L 1503 0 
L 191 3500 
z
" transform="scale(0.015625)"/>
    </defs>
    <use xlink:href="#DejaVuSans-2e"/>
    <use xlink:href="#DejaVuSans-2e" transform="translate(31.787109 0)"/>
    <use xlink:href="#DejaVuSans-2f" transform="translate(63.574219 0)"/>
    <use xlink:href="#DejaVuSans-70" transform="translate(97.265625 0)"/>
    <use xlink:href="#DejaVuSans-6c" transform="translate(160.742188 0)"/>
    <use xlink:href="#DejaVuSans-6f" transform="translate(188.525391 0)"/>
    <use xlink:href="#DejaVuSans-74" transform="translate(249.707031 0)"/>
    <use xlink:href="#DejaVuSans-73" transform="translate(288.916016 0)"/>
    <use xlink:href="#DejaVuSans-2f" transform="translate(341.015625 0)"/>
    <use xlink:href="#DejaVuSans-43" transform="translate(374.707031 0)"/>
    <use xlink:href="#DejaVuSans-5f" transform="translate(444.53125 0)"/>
    <use xlink:href="#DejaVuSans-73" transform="translate(494.53125 0)"/>
    <use xlink:href="#DejaVuSans-63" transform="translate(546.630859 0)"/>
    <use xlink:href="#DejaVuSans-6f" transform="translate(601.611328 0)"/>
    <use xlink:href="#DejaVuSans-72" transform="translate(662.792969 0)"/>
    <use xlink:href="#DejaVuSans-65" transform="translate(701.65625 0)"/>
    <use xlink:href="#DejaVuSans-5f" transform="translate(763.179688 0)"/>
    <use xlink:href="#DejaVuSans-46" transform="translate(813.179688 0)"/>
    <use xlink:href="#DejaVuSans-2e" transform="translate(854.574219 0)"/>
    <use xlink:href="#DejaVuSans-72" transform="translate(886.361328 0)"/>
    <use xlink:href="#DejaVuSans-65" transform="translate(925.224609 0)"/>
    <use xlink:href="#DejaVuSans-73" transform="translate(986.748047 0)"/>
    <use xlink:href="#DejaVuSans-65" transform="translate(1038.847656 0)"/>
    <use xlink:href="#DejaVuSans-65" transform="translate(1100.371094 0)"/>
    <use xlink:href="#DejaVuSans-6b" transform="translate(1161.894531 0)"/>
    <use xlink:href="#DejaVuSans-74" transform="translate(1219.804688 0)"/>
    <use xlink:href="#DejaVuSans-73" transform="translate(1259.013672 0)"/>
    <use xlink:href="#DejaVuSans-2e" transform="translate(1311.113281 0)"/>
    <use xlink:href="#DejaVuSans-73" transform="translate(1342.900391 0)"/>
    <use xlink:href="#DejaVuSans-76" transform="translate(1395 0)"/>
    <use xlink:href="#DejaVuSans-67" transform="translate(1454.179688 0)"/>
   </g>
  </g>
 </g>
 <defs>
  <clipPath id="pc8edded390">
   <rect x="33.73" y="25.44" width="317.28773" height="227.199481"/>
  </clipPath>
  <clipPath id="pc71d27cbb9">
   <rect x="403.978076" y="25.44" width="317.28773" height="227.199481"/>
  </clipPath>
 </defs>
</svg>
