<?xml version="1.0" encoding="utf-8" standalone="no"?>
<!DOCTYPE svg PUBLIC "-//W3C//DTD SVG 1.1//EN"
  "http://www.w3.org/Graphics/SVG/1.1/DTD/svg11.dtd">
<svg xmlns:xlink="http://www.w3.org/1999/xlink" width="743.225806pt" height="280.519481pt" viewBox="0 0 743.225806 280.519481" xmlns="http://www.w3.org/2000/svg" version="1.1">
 <metadata>
  <rdf:RDF xmlns:dc="http://purl.org/dc/elements/1.1/" xmlns:cc="http://creativecommons.org/ns#" xmlns:rdf="http://www.w3.org/1999/02/22-rdf-syntax-ns#">
   <cc:Work>
    <dc:type rdf:resource="http://purl.org/dc/dcmitype/StillImage"/>
    <dc:date>2025-06-01T13:08:55.556390</dc:date>
    <dc:format>image/svg+xml</dc:format>
    <dc:creator>
     <cc:Agent>
      <dc:title>Matplotlib v3.9.2, https://matplotlib.org/</dc:title>
     </cc:Agent>
    </dc:creator>
   </cc:Work>
  </rdf:RDF>
 </metadata>
 <defs>
  <style type="text/css">*{stroke-linejoin: round; stroke-linecap: butt}</style>
 </defs>
 <g id="figure_1">
  <g id="patch_1">
   <path d="M 0 280.519481 
L 743.225806 280.519481 
L 743.225806 0 
L 0 0 
z
" style="fill: #ffffff"/>
  </g>
  <g id="axes_1">
   <g id="patch_2">
    <path d="M 48.17 238.559481 
L 355.838355 238.559481 
L 355.838355 47.90625 
L 48.17 47.90625 
z
" style="fill: #ffffff"/>
   </g>
   <g id="matplotlib.axis_1">
    <g id="xtick_1">
     <g id="line2d_1">
      <defs>
       <path id="m1e671163e7" d="M 0 0 
L 0 3.5 
" style="stroke: #000000; stroke-width: 0.8"/>
      </defs>
      <g>
       <use xlink:href="#m1e671163e7" x="48.17" y="238.559481" style="stroke: #000000; stroke-width: 0.8"/>
      </g>
     </g>
     <g id="text_1">
      <!-- 0 -->
      <g transform="translate(44.98875 253.157918) scale(0.1 -0.1)">
       <defs>
        <path id="DejaVuSans-30" d="M 2034 4250 
Q 1547 4250 1301 3770 
Q 1056 3291 1056 2328 
Q 1056 1369 1301 889 
Q 1547 409 2034 409 
Q 2525 409 2770 889 
Q 3016 1369 3016 2328 
Q 3016 3291 2770 3770 
Q 2525 4250 2034 4250 
z
M 2034 4750 
Q 2819 4750 3233 4129 
Q 3647 3509 3647 2328 
Q 3647 1150 3233 529 
Q 2819 -91 2034 -91 
Q 1250 -91 836 529 
Q 422 1150 422 2328 
Q 422 3509 836 4129 
Q 1250 4750 2034 4750 
z
" transform="scale(0.015625)"/>
       </defs>
       <use xlink:href="#DejaVuSans-30"/>
      </g>
     </g>
    </g>
    <g id="xtick_2">
     <g id="line2d_2">
      <g>
       <use xlink:href="#m1e671163e7" x="109.703671" y="238.559481" style="stroke: #000000; stroke-width: 0.8"/>
      </g>
     </g>
     <g id="text_2">
      <!-- 2 -->
      <g transform="translate(106.522421 253.157918) scale(0.1 -0.1)">
       <defs>
        <path id="DejaVuSans-32" d="M 1228 531 
L 3431 531 
L 3431 0 
L 469 0 
L 469 531 
Q 828 903 1448 1529 
Q 2069 2156 2228 2338 
Q 2531 2678 2651 2914 
Q 2772 3150 2772 3378 
Q 2772 3750 2511 3984 
Q 2250 4219 1831 4219 
Q 1534 4219 1204 4116 
Q 875 4013 500 3803 
L 500 4441 
Q 881 4594 1212 4672 
Q 1544 4750 1819 4750 
Q 2544 4750 2975 4387 
Q 3406 4025 3406 3419 
Q 3406 3131 3298 2873 
Q 3191 2616 2906 2266 
Q 2828 2175 2409 1742 
Q 1991 1309 1228 531 
z
" transform="scale(0.015625)"/>
       </defs>
       <use xlink:href="#DejaVuSans-32"/>
      </g>
     </g>
    </g>
    <g id="xtick_3">
     <g id="line2d_3">
      <g>
       <use xlink:href="#m1e671163e7" x="171.237342" y="238.559481" style="stroke: #000000; stroke-width: 0.8"/>
      </g>
     </g>
     <g id="text_3">
      <!-- 4 -->
      <g transform="translate(168.056092 253.157918) scale(0.1 -0.1)">
       <defs>
        <path id="DejaVuSans-34" d="M 2419 4116 
L 825 1625 
L 2419 1625 
L 2419 4116 
z
M 2253 4666 
L 3047 4666 
L 3047 1625 
L 3713 1625 
L 3713 1100 
L 3047 1100 
L 3047 0 
L 2419 0 
L 2419 1100 
L 313 1100 
L 313 1709 
L 2253 4666 
z
" transform="scale(0.015625)"/>
       </defs>
       <use xlink:href="#DejaVuSans-34"/>
      </g>
     </g>
    </g>
    <g id="xtick_4">
     <g id="line2d_4">
      <g>
       <use xlink:href="#m1e671163e7" x="232.771013" y="238.559481" style="stroke: #000000; stroke-width: 0.8"/>
      </g>
     </g>
     <g id="text_4">
      <!-- 6 -->
      <g transform="translate(229.589763 253.157918) scale(0.1 -0.1)">
       <defs>
        <path id="DejaVuSans-36" d="M 2113 2584 
Q 1688 2584 1439 2293 
Q 1191 2003 1191 1497 
Q 1191 994 1439 701 
Q 1688 409 2113 409 
Q 2538 409 2786 701 
Q 3034 994 3034 1497 
Q 3034 2003 2786 2293 
Q 2538 2584 2113 2584 
z
M 3366 4563 
L 3366 3988 
Q 3128 4100 2886 4159 
Q 2644 4219 2406 4219 
Q 1781 4219 1451 3797 
Q 1122 3375 1075 2522 
Q 1259 2794 1537 2939 
Q 1816 3084 2150 3084 
Q 2853 3084 3261 2657 
Q 3669 2231 3669 1497 
Q 3669 778 3244 343 
Q 2819 -91 2113 -91 
Q 1303 -91 875 529 
Q 447 1150 447 2328 
Q 447 3434 972 4092 
Q 1497 4750 2381 4750 
Q 2619 4750 2861 4703 
Q 3103 4656 3366 4563 
z
" transform="scale(0.015625)"/>
       </defs>
       <use xlink:href="#DejaVuSans-36"/>
      </g>
     </g>
    </g>
    <g id="xtick_5">
     <g id="line2d_5">
      <g>
       <use xlink:href="#m1e671163e7" x="294.304684" y="238.559481" style="stroke: #000000; stroke-width: 0.8"/>
      </g>
     </g>
     <g id="text_5">
      <!-- 8 -->
      <g transform="translate(291.123434 253.157918) scale(0.1 -0.1)">
       <defs>
        <path id="DejaVuSans-38" d="M 2034 2216 
Q 1584 2216 1326 1975 
Q 1069 1734 1069 1313 
Q 1069 891 1326 650 
Q 1584 409 2034 409 
Q 2484 409 2743 651 
Q 3003 894 3003 1313 
Q 3003 1734 2745 1975 
Q 2488 2216 2034 2216 
z
M 1403 2484 
Q 997 2584 770 2862 
Q 544 3141 544 3541 
Q 544 4100 942 4425 
Q 1341 4750 2034 4750 
Q 2731 4750 3128 4425 
Q 3525 4100 3525 3541 
Q 3525 3141 3298 2862 
Q 3072 2584 2669 2484 
Q 3125 2378 3379 2068 
Q 3634 1759 3634 1313 
Q 3634 634 3220 271 
Q 2806 -91 2034 -91 
Q 1263 -91 848 271 
Q 434 634 434 1313 
Q 434 1759 690 2068 
Q 947 2378 1403 2484 
z
M 1172 3481 
Q 1172 3119 1398 2916 
Q 1625 2713 2034 2713 
Q 2441 2713 2670 2916 
Q 2900 3119 2900 3481 
Q 2900 3844 2670 4047 
Q 2441 4250 2034 4250 
Q 1625 4250 1398 4047 
Q 1172 3844 1172 3481 
z
" transform="scale(0.015625)"/>
       </defs>
       <use xlink:href="#DejaVuSans-38"/>
      </g>
     </g>
    </g>
    <g id="xtick_6">
     <g id="line2d_6">
      <g>
       <use xlink:href="#m1e671163e7" x="355.838355" y="238.559481" style="stroke: #000000; stroke-width: 0.8"/>
      </g>
     </g>
     <g id="text_6">
      <!-- 10 -->
      <g transform="translate(349.475855 253.157918) scale(0.1 -0.1)">
       <defs>
        <path id="DejaVuSans-31" d="M 794 531 
L 1825 531 
L 1825 4091 
L 703 3866 
L 703 4441 
L 1819 4666 
L 2450 4666 
L 2450 531 
L 3481 531 
L 3481 0 
L 794 0 
L 794 531 
z
" transform="scale(0.015625)"/>
       </defs>
       <use xlink:href="#DejaVuSans-31"/>
       <use xlink:href="#DejaVuSans-30" x="63.623047"/>
      </g>
     </g>
    </g>
    <g id="text_7">
     <!-- -log10(E) -->
     <g transform="translate(179.154178 266.836043) scale(0.1 -0.1)">
      <defs>
       <path id="DejaVuSans-2d" d="M 313 2009 
L 1997 2009 
L 1997 1497 
L 313 1497 
L 313 2009 
z
" transform="scale(0.015625)"/>
       <path id="DejaVuSans-6c" d="M 603 4863 
L 1178 4863 
L 1178 0 
L 603 0 
L 603 4863 
z
" transform="scale(0.015625)"/>
       <path id="DejaVuSans-6f" d="M 1959 3097 
Q 1497 3097 1228 2736 
Q 959 2375 959 1747 
Q 959 1119 1226 758 
Q 1494 397 1959 397 
Q 2419 397 2687 759 
Q 2956 1122 2956 1747 
Q 2956 2369 2687 2733 
Q 2419 3097 1959 3097 
z
M 1959 3584 
Q 2709 3584 3137 3096 
Q 3566 2609 3566 1747 
Q 3566 888 3137 398 
Q 2709 -91 1959 -91 
Q 1206 -91 779 398 
Q 353 888 353 1747 
Q 353 2609 779 3096 
Q 1206 3584 1959 3584 
z
" transform="scale(0.015625)"/>
       <path id="DejaVuSans-67" d="M 2906 1791 
Q 2906 2416 2648 2759 
Q 2391 3103 1925 3103 
Q 1463 3103 1205 2759 
Q 947 2416 947 1791 
Q 947 1169 1205 825 
Q 1463 481 1925 481 
Q 2391 481 2648 825 
Q 2906 1169 2906 1791 
z
M 3481 434 
Q 3481 -459 3084 -895 
Q 2688 -1331 1869 -1331 
Q 1566 -1331 1297 -1286 
Q 1028 -1241 775 -1147 
L 775 -588 
Q 1028 -725 1275 -790 
Q 1522 -856 1778 -856 
Q 2344 -856 2625 -561 
Q 2906 -266 2906 331 
L 2906 616 
Q 2728 306 2450 153 
Q 2172 0 1784 0 
Q 1141 0 747 490 
Q 353 981 353 1791 
Q 353 2603 747 3093 
Q 1141 3584 1784 3584 
Q 2172 3584 2450 3431 
Q 2728 3278 2906 2969 
L 2906 3500 
L 3481 3500 
L 3481 434 
z
" transform="scale(0.015625)"/>
       <path id="DejaVuSans-28" d="M 1984 4856 
Q 1566 4138 1362 3434 
Q 1159 2731 1159 2009 
Q 1159 1288 1364 580 
Q 1569 -128 1984 -844 
L 1484 -844 
Q 1016 -109 783 600 
Q 550 1309 550 2009 
Q 550 2706 781 3412 
Q 1013 4119 1484 4856 
L 1984 4856 
z
" transform="scale(0.015625)"/>
       <path id="DejaVuSans-45" d="M 628 4666 
L 3578 4666 
L 3578 4134 
L 1259 4134 
L 1259 2753 
L 3481 2753 
L 3481 2222 
L 1259 2222 
L 1259 531 
L 3634 531 
L 3634 0 
L 628 0 
L 628 4666 
z
" transform="scale(0.015625)"/>
       <path id="DejaVuSans-29" d="M 513 4856 
L 1013 4856 
Q 1481 4119 1714 3412 
Q 1947 2706 1947 2009 
Q 1947 1309 1714 600 
Q 1481 -109 1013 -844 
L 513 -844 
Q 928 -128 1133 580 
Q 1338 1288 1338 2009 
Q 1338 2731 1133 3434 
Q 928 4138 513 4856 
z
" transform="scale(0.015625)"/>
      </defs>
      <use xlink:href="#DejaVuSans-2d"/>
      <use xlink:href="#DejaVuSans-6c" x="36.083984"/>
      <use xlink:href="#DejaVuSans-6f" x="63.867188"/>
      <use xlink:href="#DejaVuSans-67" x="125.048828"/>
      <use xlink:href="#DejaVuSans-31" x="188.525391"/>
      <use xlink:href="#DejaVuSans-30" x="252.148438"/>
      <use xlink:href="#DejaVuSans-28" x="315.771484"/>
      <use xlink:href="#DejaVuSans-45" x="354.785156"/>
      <use xlink:href="#DejaVuSans-29" x="417.96875"/>
     </g>
    </g>
   </g>
   <g id="matplotlib.axis_2">
    <g id="ytick_1">
     <g id="line2d_7">
      <defs>
       <path id="m061952622c" d="M 0 0 
L -3.5 0 
" style="stroke: #000000; stroke-width: 0.8"/>
      </defs>
      <g>
       <use xlink:href="#m061952622c" x="48.17" y="229.893425" style="stroke: #000000; stroke-width: 0.8"/>
      </g>
     </g>
     <g id="text_8">
      <!-- 0.0 -->
      <g transform="translate(25.266875 233.692643) scale(0.1 -0.1)">
       <defs>
        <path id="DejaVuSans-2e" d="M 684 794 
L 1344 794 
L 1344 0 
L 684 0 
L 684 794 
z
" transform="scale(0.015625)"/>
       </defs>
       <use xlink:href="#DejaVuSans-30"/>
       <use xlink:href="#DejaVuSans-2e" x="63.623047"/>
       <use xlink:href="#DejaVuSans-30" x="95.410156"/>
      </g>
     </g>
    </g>
    <g id="ytick_2">
     <g id="line2d_8">
      <g>
       <use xlink:href="#m061952622c" x="48.17" y="194.94965" style="stroke: #000000; stroke-width: 0.8"/>
      </g>
     </g>
     <g id="text_9">
      <!-- 0.2 -->
      <g transform="translate(25.266875 198.748869) scale(0.1 -0.1)">
       <use xlink:href="#DejaVuSans-30"/>
       <use xlink:href="#DejaVuSans-2e" x="63.623047"/>
       <use xlink:href="#DejaVuSans-32" x="95.410156"/>
      </g>
     </g>
    </g>
    <g id="ytick_3">
     <g id="line2d_9">
      <g>
       <use xlink:href="#m061952622c" x="48.17" y="160.005876" style="stroke: #000000; stroke-width: 0.8"/>
      </g>
     </g>
     <g id="text_10">
      <!-- 0.4 -->
      <g transform="translate(25.266875 163.805094) scale(0.1 -0.1)">
       <use xlink:href="#DejaVuSans-30"/>
       <use xlink:href="#DejaVuSans-2e" x="63.623047"/>
       <use xlink:href="#DejaVuSans-34" x="95.410156"/>
      </g>
     </g>
    </g>
    <g id="ytick_4">
     <g id="line2d_10">
      <g>
       <use xlink:href="#m061952622c" x="48.17" y="125.062101" style="stroke: #000000; stroke-width: 0.8"/>
      </g>
     </g>
     <g id="text_11">
      <!-- 0.6 -->
      <g transform="translate(25.266875 128.86132) scale(0.1 -0.1)">
       <use xlink:href="#DejaVuSans-30"/>
       <use xlink:href="#DejaVuSans-2e" x="63.623047"/>
       <use xlink:href="#DejaVuSans-36" x="95.410156"/>
      </g>
     </g>
    </g>
    <g id="ytick_5">
     <g id="line2d_11">
      <g>
       <use xlink:href="#m061952622c" x="48.17" y="90.118327" style="stroke: #000000; stroke-width: 0.8"/>
      </g>
     </g>
     <g id="text_12">
      <!-- 0.8 -->
      <g transform="translate(25.266875 93.917545) scale(0.1 -0.1)">
       <use xlink:href="#DejaVuSans-30"/>
       <use xlink:href="#DejaVuSans-2e" x="63.623047"/>
       <use xlink:href="#DejaVuSans-38" x="95.410156"/>
      </g>
     </g>
    </g>
    <g id="ytick_6">
     <g id="line2d_12">
      <g>
       <use xlink:href="#m061952622c" x="48.17" y="55.174552" style="stroke: #000000; stroke-width: 0.8"/>
      </g>
     </g>
     <g id="text_13">
      <!-- 1.0 -->
      <g transform="translate(25.266875 58.973771) scale(0.1 -0.1)">
       <use xlink:href="#DejaVuSans-31"/>
       <use xlink:href="#DejaVuSans-2e" x="63.623047"/>
       <use xlink:href="#DejaVuSans-30" x="95.410156"/>
      </g>
     </g>
    </g>
    <g id="text_14">
     <!-- P(F|score) -->
     <g transform="translate(18.909062 168.14224) rotate(-90) scale(0.1 -0.1)">
      <defs>
       <path id="DejaVuSans-50" d="M 1259 4147 
L 1259 2394 
L 2053 2394 
Q 2494 2394 2734 2622 
Q 2975 2850 2975 3272 
Q 2975 3691 2734 3919 
Q 2494 4147 2053 4147 
L 1259 4147 
z
M 628 4666 
L 2053 4666 
Q 2838 4666 3239 4311 
Q 3641 3956 3641 3272 
Q 3641 2581 3239 2228 
Q 2838 1875 2053 1875 
L 1259 1875 
L 1259 0 
L 628 0 
L 628 4666 
z
" transform="scale(0.015625)"/>
       <path id="DejaVuSans-46" d="M 628 4666 
L 3309 4666 
L 3309 4134 
L 1259 4134 
L 1259 2759 
L 3109 2759 
L 3109 2228 
L 1259 2228 
L 1259 0 
L 628 0 
L 628 4666 
z
" transform="scale(0.015625)"/>
       <path id="DejaVuSans-7c" d="M 1344 4891 
L 1344 -1509 
L 813 -1509 
L 813 4891 
L 1344 4891 
z
" transform="scale(0.015625)"/>
       <path id="DejaVuSans-73" d="M 2834 3397 
L 2834 2853 
Q 2591 2978 2328 3040 
Q 2066 3103 1784 3103 
Q 1356 3103 1142 2972 
Q 928 2841 928 2578 
Q 928 2378 1081 2264 
Q 1234 2150 1697 2047 
L 1894 2003 
Q 2506 1872 2764 1633 
Q 3022 1394 3022 966 
Q 3022 478 2636 193 
Q 2250 -91 1575 -91 
Q 1294 -91 989 -36 
Q 684 19 347 128 
L 347 722 
Q 666 556 975 473 
Q 1284 391 1588 391 
Q 1994 391 2212 530 
Q 2431 669 2431 922 
Q 2431 1156 2273 1281 
Q 2116 1406 1581 1522 
L 1381 1569 
Q 847 1681 609 1914 
Q 372 2147 372 2553 
Q 372 3047 722 3315 
Q 1072 3584 1716 3584 
Q 2034 3584 2315 3537 
Q 2597 3491 2834 3397 
z
" transform="scale(0.015625)"/>
       <path id="DejaVuSans-63" d="M 3122 3366 
L 3122 2828 
Q 2878 2963 2633 3030 
Q 2388 3097 2138 3097 
Q 1578 3097 1268 2742 
Q 959 2388 959 1747 
Q 959 1106 1268 751 
Q 1578 397 2138 397 
Q 2388 397 2633 464 
Q 2878 531 3122 666 
L 3122 134 
Q 2881 22 2623 -34 
Q 2366 -91 2075 -91 
Q 1284 -91 818 406 
Q 353 903 353 1747 
Q 353 2603 823 3093 
Q 1294 3584 2113 3584 
Q 2378 3584 2631 3529 
Q 2884 3475 3122 3366 
z
" transform="scale(0.015625)"/>
       <path id="DejaVuSans-72" d="M 2631 2963 
Q 2534 3019 2420 3045 
Q 2306 3072 2169 3072 
Q 1681 3072 1420 2755 
Q 1159 2438 1159 1844 
L 1159 0 
L 581 0 
L 581 3500 
L 1159 3500 
L 1159 2956 
Q 1341 3275 1631 3429 
Q 1922 3584 2338 3584 
Q 2397 3584 2469 3576 
Q 2541 3569 2628 3553 
L 2631 2963 
z
" transform="scale(0.015625)"/>
       <path id="DejaVuSans-65" d="M 3597 1894 
L 3597 1613 
L 953 1613 
Q 991 1019 1311 708 
Q 1631 397 2203 397 
Q 2534 397 2845 478 
Q 3156 559 3463 722 
L 3463 178 
Q 3153 47 2828 -22 
Q 2503 -91 2169 -91 
Q 1331 -91 842 396 
Q 353 884 353 1716 
Q 353 2575 817 3079 
Q 1281 3584 2069 3584 
Q 2775 3584 3186 3129 
Q 3597 2675 3597 1894 
z
M 3022 2063 
Q 3016 2534 2758 2815 
Q 2500 3097 2075 3097 
Q 1594 3097 1305 2825 
Q 1016 2553 972 2059 
L 3022 2063 
z
" transform="scale(0.015625)"/>
      </defs>
      <use xlink:href="#DejaVuSans-50"/>
      <use xlink:href="#DejaVuSans-28" x="60.302734"/>
      <use xlink:href="#DejaVuSans-46" x="99.316406"/>
      <use xlink:href="#DejaVuSans-7c" x="156.835938"/>
      <use xlink:href="#DejaVuSans-73" x="190.527344"/>
      <use xlink:href="#DejaVuSans-63" x="242.626953"/>
      <use xlink:href="#DejaVuSans-6f" x="297.607422"/>
      <use xlink:href="#DejaVuSans-72" x="358.789062"/>
      <use xlink:href="#DejaVuSans-65" x="397.652344"/>
      <use xlink:href="#DejaVuSans-29" x="459.175781"/>
     </g>
    </g>
   </g>
   <g id="line2d_13">
    <path d="M -1 229.893425 
L -0.318533 229.893425 
L 7.157808 229.893425 
L 14.603382 58.564098 
L 22.06434 60.223932 
L 29.522221 62.879652 
L 36.983179 66.775884 
L 44.44106 71.405932 
L 51.89894 76.664978 
L 59.356821 83.339232 
L 66.817779 91.079282 
L 74.27566 100.286963 
L 81.736618 110.455602 
L 89.182192 121.235754 
L 96.658533 134.095062 
L 104.104107 147.181511 
L 111.580448 158.817787 
L 119.026022 168.75929 
L 126.471596 177.337989 
L 133.947937 186.213706 
L 141.393512 191.787239 
L 148.869853 196.958917 
L 156.315427 200.820204 
L 163.791768 203.545818 
L 171.237342 205.450255 
L 178.682916 208.420475 
L 186.159257 211.14609 
L 193.604831 211.408167 
L 201.081173 213.158851 
L 208.526747 215.856511 
L 216.003088 216.868132 
L 223.448662 217.825593 
L 230.894236 218.045738 
L 238.370577 219.861067 
L 245.816151 219.074832 
L 253.292492 221.290267 
L 260.738067 221.894795 
L 268.214408 221.99089 
L 275.659982 222.03457 
L 283.105556 223.720607 
L 290.581897 223.752056 
L 298.027471 223.669938 
L 305.503812 224.996054 
L 312.949386 225.579616 
L 320.394961 225.577868 
L 327.871302 226.322171 
L 335.316876 227.071715 
L 342.793217 227.035024 
L 350.238791 228.517688 
L 357.684365 227.197512 
L 365.068406 228.188867 
L 372.760115 228.795316 
L 380.144155 228.140994 
L 387.528196 228.009955 
L 394.912236 228.712849 
L 402.603945 229.116974 
L 409.987986 228.819078 
L 417.372026 229.06019 
L 424.756067 228.722808 
L 432.140107 229.591161 
L 439.831816 229.259195 
L 447.215857 229.247489 
L 454.599897 229.548879 
L 461.983938 229.556042 
L 469.675647 229.128855 
L 477.059687 229.148423 
L 484.443728 229.065432 
L 491.827768 229.436011 
L 499.519477 229.893425 
L 506.903518 229.893425 
L 514.287558 229.893425 
L 521.671599 229.893425 
L 529.363307 229.893425 
L 536.747348 229.893425 
L 544.131389 229.401242 
L 551.515429 229.893425 
L 559.207138 229.893425 
L 566.591178 229.31493 
L 573.975219 229.893425 
L 581.359259 229.893425 
L 589.050968 229.893425 
L 596.435009 229.893425 
L 603.819049 229.893425 
L 611.20309 229.893425 
L 618.894799 229.893425 
L 626.278839 229.893425 
L 633.66288 229.893425 
L 641.04692 229.893425 
L 648.738629 229.893425 
L 656.12267 229.893425 
L 663.50671 229.893425 
" clip-path="url(#pe6fe1472d8)" style="fill: none; stroke-dasharray: 5.55,2.4; stroke-dashoffset: 0; stroke: #ff00ff; stroke-width: 1.5"/>
   </g>
   <g id="line2d_14">
    <path d="M -1 229.893425 
L -0.318533 229.893425 
L 7.157808 229.893425 
L 14.603382 56.659659 
L 22.06434 57.480839 
L 29.522221 58.948481 
L 36.983179 60.957748 
L 44.44106 63.596004 
L 51.89894 67.020489 
L 59.356821 71.161326 
L 66.817779 76.455312 
L 74.27566 82.587941 
L 81.736618 90.65996 
L 89.182192 99.15129 
L 96.658533 109.180151 
L 104.104107 121.113451 
L 111.580448 132.924449 
L 119.026022 143.652187 
L 126.471596 153.925659 
L 133.947937 164.635928 
L 141.393512 172.900127 
L 148.869853 179.836466 
L 156.315427 186.405898 
L 163.791768 191.472745 
L 171.237342 196.329929 
L 178.682916 198.671162 
L 186.159257 203.109021 
L 193.604831 205.520141 
L 201.081173 207.82643 
L 208.526747 210.464686 
L 216.003088 213.28989 
L 223.448662 214.525153 
L 230.894236 216.101117 
L 238.370577 216.6707 
L 245.816151 219.123753 
L 253.292492 218.774316 
L 260.738067 220.839493 
L 268.214408 221.732306 
L 275.659982 221.62398 
L 283.105556 222.597164 
L 290.581897 224.195842 
L 298.027471 223.262843 
L 305.503812 223.488231 
L 312.949386 225.754334 
L 320.394961 225.652998 
L 327.871302 225.462554 
L 335.316876 226.806142 
L 342.793217 227.251675 
L 350.238791 226.909226 
L 357.684365 228.544944 
L 365.068406 227.429888 
L 372.760115 228.008208 
L 380.144155 228.586353 
L 387.528196 228.08159 
L 394.912236 228.290554 
L 402.603945 228.691708 
L 409.987986 228.64366 
L 417.372026 229.347428 
L 424.756067 229.015462 
L 432.140107 228.72473 
L 439.831816 229.292042 
L 447.215857 229.566875 
L 454.599897 229.234036 
L 461.983938 229.226523 
L 469.675647 229.535426 
L 477.059687 229.168516 
L 484.443728 229.133747 
L 491.827768 229.061413 
L 499.519477 229.893425 
L 506.903518 229.893425 
L 514.287558 229.893425 
L 521.671599 229.893425 
L 529.363307 229.893425 
L 536.747348 229.893425 
L 544.131389 229.893425 
L 551.515429 229.388487 
L 559.207138 229.893425 
L 566.591178 229.893425 
L 573.975219 229.340439 
L 581.359259 229.893425 
L 589.050968 229.893425 
L 596.435009 229.893425 
L 603.819049 229.893425 
L 611.20309 229.893425 
L 618.894799 229.893425 
L 626.278839 229.893425 
L 633.66288 229.893425 
L 641.04692 229.893425 
L 648.738629 229.893425 
L 656.12267 229.893425 
L 663.50671 229.893425 
" clip-path="url(#pe6fe1472d8)" style="fill: none; stroke: #000000; stroke-width: 1.5; stroke-linecap: square"/>
   </g>
   <g id="line2d_15">
    <path d="M -1 229.893425 
L -0.318533 229.893425 
L 7.157808 229.893425 
L 14.603382 56.58977 
L 22.06434 57.306122 
L 29.522221 58.808704 
L 36.983179 61.010162 
L 44.44106 64.102689 
L 51.89894 68.156163 
L 59.356821 73.467623 
L 66.817779 80.386483 
L 74.27566 87.881927 
L 81.736618 97.771011 
L 89.182192 109.442231 
L 96.658533 121.829803 
L 104.104107 137.432194 
L 111.580448 151.479595 
L 119.026022 164.635928 
L 126.471596 177.2681 
L 133.947937 187.104772 
L 141.393512 196.958917 
L 148.869853 202.829471 
L 156.315427 210.814124 
L 163.791768 214.553107 
L 171.237342 218.723648 
L 178.682916 220.245448 
L 186.159257 223.807966 
L 193.604831 224.954122 
L 201.081173 226.491648 
L 208.526747 227.517248 
L 216.003088 228.462826 
L 223.448662 228.529569 
L 230.894236 228.698872 
L 238.370577 229.166245 
L 245.816151 229.306194 
L 253.292492 229.228619 
L 260.738067 229.65406 
L 268.214408 229.388138 
L 275.659982 229.893425 
L 283.105556 229.744983 
L 290.581897 229.893425 
L 298.027471 229.718356 
L 305.503812 229.711018 
L 312.949386 229.893425 
L 320.394961 229.893425 
L 327.871302 229.683762 
L 335.316876 229.893425 
L 342.793217 229.893425 
L 350.238791 229.893425 
L 357.684365 229.893425 
L 365.068406 229.893425 
L 372.760115 229.893425 
L 380.144155 229.893425 
L 387.528196 229.893425 
L 394.912236 229.893425 
L 402.603945 229.893425 
L 409.987986 229.893425 
L 417.372026 229.893425 
L 424.756067 229.893425 
L 432.140107 229.893425 
L 439.831816 229.893425 
L 447.215857 229.893425 
L 454.599897 229.893425 
L 461.983938 229.893425 
L 469.675647 229.893425 
L 477.059687 229.893425 
L 484.443728 229.893425 
L 491.827768 229.893425 
L 499.519477 229.893425 
L 506.903518 229.893425 
L 514.287558 229.893425 
L 521.671599 229.893425 
L 529.363307 229.893425 
L 536.747348 229.893425 
L 544.131389 229.893425 
L 551.515429 229.893425 
L 559.207138 229.893425 
L 566.591178 229.893425 
L 573.975219 229.893425 
L 581.359259 229.893425 
L 589.050968 229.893425 
L 596.435009 229.893425 
L 603.819049 229.893425 
L 611.20309 229.893425 
L 618.894799 229.893425 
L 626.278839 229.893425 
L 633.66288 229.893425 
L 641.04692 229.893425 
L 648.738629 229.893425 
L 656.12267 229.893425 
L 663.50671 229.893425 
" clip-path="url(#pe6fe1472d8)" style="fill: none; stroke: #00ffff; stroke-width: 1.5; stroke-linecap: square"/>
   </g>
   <g id="line2d_16">
    <path d="M -1 229.893425 
L -0.318533 229.893425 
L 7.157808 229.893425 
L 14.603382 59.01837 
L 22.067417 60.940274 
L 29.525298 64.259931 
L 36.983179 68.103749 
L 44.44106 72.995877 
L 51.89894 78.412165 
L 59.359898 84.352603 
L 66.817779 91.516078 
L 74.27566 99.028987 
L 81.736618 108.463809 
L 89.182192 116.850312 
L 96.658533 127.508161 
L 104.104107 137.991294 
L 111.580448 148.29971 
L 119.026022 157.559811 
L 126.471596 165.946318 
L 133.947937 175.730574 
L 141.393512 183.243487 
L 148.869853 189.882802 
L 156.315427 195.648526 
L 163.791768 198.968184 
L 171.237342 204.733908 
L 178.682916 205.083344 
L 186.159257 210.849068 
L 193.604831 211.373224 
L 201.081173 213.033053 
L 208.526747 216.317769 
L 216.003088 218.589114 
L 223.448662 220.074224 
L 230.894236 220.825515 
L 238.370577 222.660063 
L 245.816151 223.009501 
L 253.292492 224.162646 
L 260.738067 224.442196 
L 268.214408 225.385678 
L 275.659982 223.883095 
L 283.105556 226.067081 
L 290.581897 225.787531 
L 298.027471 225.438093 
L 305.503812 224.651859 
L 312.949386 227.325057 
L 320.425727 227.237698 
L 327.871302 227.779326 
L 335.316876 227.81427 
L 342.793217 228.764741 
L 350.238791 228.006461 
L 357.684365 229.267931 
L 365.068406 228.280769 
L 372.760115 228.579539 
L 380.144155 229.55447 
L 387.528196 229.246965 
L 394.912236 228.855594 
L 402.603945 228.970909 
L 409.987986 228.874814 
L 417.372026 229.689004 
L 424.756067 229.222504 
L 432.140107 228.962173 
L 439.831816 229.893425 
L 447.215857 229.626105 
L 454.599897 229.103695 
L 461.983938 229.657554 
L 469.675647 229.893425 
L 477.059687 229.315105 
L 484.443728 229.262689 
L 491.827768 228.925482 
L 499.519477 229.893425 
L 506.903518 229.893425 
L 514.287558 229.893425 
L 521.671599 229.893425 
L 529.363307 229.893425 
L 536.747348 229.893425 
L 544.131389 229.893425 
L 551.515429 229.484582 
L 559.207138 229.893425 
L 566.591178 229.893425 
L 573.975219 229.463616 
L 581.359259 229.893425 
L 589.050968 229.893425 
L 596.435009 229.893425 
L 603.819049 229.893425 
L 611.20309 229.893425 
L 618.894799 229.893425 
L 626.278839 229.893425 
L 633.66288 229.893425 
L 641.04692 229.893425 
L 648.738629 229.893425 
L 656.12267 229.893425 
L 663.50671 229.893425 
" clip-path="url(#pe6fe1472d8)" style="fill: none; stroke-dasharray: 5.55,2.4; stroke-dashoffset: 0; stroke: #000000; stroke-width: 1.5"/>
   </g>
   <g id="line2d_17">
    <path d="M -1 229.893425 
L -0.318533 229.893425 
L 7.157808 229.893425 
L 14.603382 61.63915 
L 22.067417 65.133525 
L 29.525298 70.549813 
L 36.983179 78.237448 
L 44.44106 86.449234 
L 51.89894 97.80596 
L 59.359898 110.385713 
L 66.817779 123.664354 
L 74.27566 137.1177 
L 81.736618 150.396335 
L 89.182192 162.801377 
L 96.658533 173.109793 
L 104.104107 183.418204 
L 111.580448 191.105834 
L 119.026022 196.871558 
L 126.471596 201.938406 
L 133.947937 206.131657 
L 141.393512 210.150192 
L 148.869853 212.0721 
L 156.315427 213.766873 
L 163.791768 216.719621 
L 171.237342 218.903608 
L 178.682916 218.956023 
L 186.159257 221.454503 
L 193.604831 221.506919 
L 201.081173 221.402087 
L 208.526747 222.642592 
L 216.003088 223.900567 
L 223.448662 224.057814 
L 230.894236 225.176015 
L 238.370577 224.197589 
L 245.816151 226.800901 
L 253.292492 225.560396 
L 260.738067 226.399047 
L 268.214408 226.765957 
L 275.659982 226.940676 
L 283.105556 228.076348 
L 290.581897 227.831742 
L 298.027471 227.604607 
L 305.503812 228.212629 
L 312.949386 228.693106 
L 320.425727 229.250459 
L 327.871302 228.231848 
L 335.316876 229.260942 
L 342.793217 229.893425 
L 350.238791 228.240584 
L 357.684365 229.893425 
L 365.068406 229.893425 
L 372.760115 228.8521 
L 380.144155 229.893425 
L 387.528196 228.806673 
L 394.912236 229.893425 
L 402.603945 229.893425 
L 409.987986 229.893425 
L 417.372026 229.893425 
L 424.756067 229.893425 
L 432.140107 229.893425 
L 439.831816 229.893425 
L 447.215857 229.893425 
L 454.599897 229.893425 
L 461.983938 229.402465 
L 469.675647 229.477594 
L 477.059687 229.893425 
L 484.443728 229.893425 
L 491.827768 229.893425 
L 499.519477 229.893425 
L 506.903518 229.893425 
L 514.287558 229.893425 
L 521.671599 229.893425 
L 529.363307 229.893425 
L 536.747348 229.893425 
L 544.131389 229.893425 
L 551.515429 229.893425 
L 559.207138 229.893425 
L 566.591178 229.893425 
L 573.975219 229.893425 
L 581.359259 229.893425 
L 589.050968 229.893425 
L 596.435009 229.893425 
L 603.819049 229.893425 
L 611.20309 229.893425 
L 618.894799 229.893425 
L 626.278839 229.893425 
L 633.66288 229.893425 
L 641.04692 229.893425 
L 648.738629 229.893425 
L 656.12267 229.893425 
L 663.50671 229.893425 
" clip-path="url(#pe6fe1472d8)" style="fill: none; stroke-dasharray: 1.5,2.475; stroke-dashoffset: 0; stroke: #000000; stroke-width: 1.5"/>
   </g>
   <g id="line2d_18">
    <path d="M -1 229.893425 
L -0.318533 229.893425 
L 7.157808 229.893425 
L 14.603382 65.133525 
L 22.067417 70.375096 
L 29.525298 79.285759 
L 36.983179 90.118325 
L 44.44106 101.999211 
L 51.89894 115.802001 
L 59.359898 129.430075 
L 66.817779 144.281175 
L 74.27566 155.98734 
L 81.736618 169.440697 
L 89.182192 182.544611 
L 96.658533 191.280554 
L 104.104107 199.667061 
L 111.580448 205.607502 
L 119.026022 210.499629 
L 126.471596 213.889176 
L 133.947937 216.509959 
L 141.393512 219.637427 
L 148.869853 219.532595 
L 156.315427 222.240738 
L 163.791768 223.358939 
L 171.237342 223.690904 
L 178.682916 225.455565 
L 186.159257 226.189385 
L 193.604831 226.696069 
L 201.081173 227.132867 
L 208.526747 228.191663 
L 216.003088 228.579539 
L 223.448662 228.26155 
L 230.894236 228.26155 
L 238.370577 228.174191 
L 245.816151 228.822398 
L 253.292492 228.520134 
L 260.738067 228.277275 
L 268.214408 228.652921 
L 275.659982 228.521881 
L 283.105556 228.860836 
L 290.581897 229.706475 
L 298.027471 229.412948 
L 305.503812 229.149122 
L 312.949386 229.893425 
L 320.425727 229.346555 
L 327.871302 229.341313 
L 335.316876 229.114178 
L 342.793217 229.893425 
L 350.238791 229.893425 
L 357.684365 229.893425 
L 365.068406 229.893425 
L 372.760115 229.893425 
L 380.144155 229.893425 
L 387.528196 229.893425 
L 394.912236 229.893425 
L 402.603945 229.893425 
L 409.987986 229.893425 
L 417.372026 229.893425 
L 424.756067 229.893425 
L 432.140107 229.893425 
L 439.831816 229.893425 
L 447.215857 229.893425 
L 454.599897 229.893425 
L 461.983938 229.893425 
L 469.675647 229.893425 
L 477.059687 229.893425 
L 484.443728 229.893425 
L 491.827768 229.893425 
L 499.519477 229.893425 
L 506.903518 229.893425 
L 514.287558 229.893425 
L 521.671599 229.893425 
L 529.363307 229.893425 
L 536.747348 229.893425 
L 544.131389 229.893425 
L 551.515429 229.893425 
L 559.207138 229.893425 
L 566.591178 229.893425 
L 573.975219 229.893425 
L 581.359259 229.893425 
L 589.050968 229.893425 
L 596.435009 229.893425 
L 603.819049 229.893425 
L 611.20309 229.893425 
L 618.894799 229.893425 
L 626.278839 229.893425 
L 633.66288 229.893425 
L 641.04692 229.893425 
L 648.738629 229.893425 
L 656.12267 229.893425 
L 663.50671 229.893425 
" clip-path="url(#pe6fe1472d8)" style="fill: none; stroke-dasharray: 1.5,2.475; stroke-dashoffset: 0; stroke: #808080; stroke-width: 1.5"/>
   </g>
   <g id="line2d_19">
    <path d="M -1 229.893425 
L -0.318533 229.893425 
L 7.157808 229.893425 
L 14.603382 56.572306 
L 22.067417 57.445899 
L 29.525298 58.843653 
L 36.983179 60.765557 
L 44.44106 63.386338 
L 51.89894 67.055439 
L 59.359898 70.899246 
L 66.817779 76.315534 
L 74.27566 82.081256 
L 81.736618 90.118325 
L 89.182192 97.80596 
L 96.658533 107.415499 
L 104.104107 120.169969 
L 111.580448 130.303669 
L 119.026022 140.437358 
L 126.471596 151.444651 
L 133.947937 162.62666 
L 141.393512 171.712039 
L 148.869853 177.128328 
L 156.315427 183.942359 
L 163.791768 190.232241 
L 171.237342 194.250775 
L 178.682916 198.968184 
L 186.159257 199.841778 
L 193.604831 205.258063 
L 201.081173 206.306376 
L 208.526747 209.626036 
L 216.003088 211.722661 
L 223.448662 213.27766 
L 230.894236 212.526369 
L 238.370577 213.592154 
L 245.816151 218.379451 
L 253.292492 218.571641 
L 260.738067 220.179056 
L 268.214408 222.066019 
L 275.659982 220.703212 
L 283.105556 221.768997 
L 290.581897 223.970455 
L 298.027471 222.834782 
L 305.503812 223.446298 
L 312.949386 225.40315 
L 320.425727 225.979722 
L 327.871302 222.048547 
L 335.316876 226.661125 
L 342.793217 226.259272 
L 350.238791 225.368206 
L 357.684365 228.780465 
L 365.068406 228.754258 
L 372.760115 227.657023 
L 380.144155 229.48633 
L 387.528196 227.185282 
L 394.912236 229.481088 
L 402.603945 228.058876 
L 409.987986 226.835844 
L 417.372026 228.832881 
L 424.756067 228.521881 
L 432.140107 228.333185 
L 439.831816 228.815409 
L 447.215857 229.364026 
L 454.599897 228.846859 
L 461.983938 229.3186 
L 469.675647 229.893425 
L 477.059687 228.51664 
L 484.443728 228.30523 
L 491.827768 228.128764 
L 499.519477 229.893425 
L 506.903518 229.893425 
L 514.287558 229.893425 
L 521.671599 229.893425 
L 529.363307 229.893425 
L 536.747348 229.893425 
L 544.131389 229.893425 
L 551.515429 228.921988 
L 559.207138 229.893425 
L 566.591178 229.893425 
L 573.975219 228.759499 
L 581.359259 229.893425 
L 589.050968 229.893425 
L 596.435009 229.893425 
L 603.819049 229.893425 
L 611.20309 229.893425 
L 618.894799 229.893425 
L 626.278839 229.893425 
L 633.66288 229.893425 
L 641.04692 229.893425 
L 648.738629 229.893425 
L 656.12267 229.893425 
L 663.50671 229.893425 
" clip-path="url(#pe6fe1472d8)" style="fill: none; stroke-dasharray: 5.55,2.4; stroke-dashoffset: 0; stroke: #000000; stroke-width: 1.5"/>
   </g>
   <g id="line2d_20">
    <path d="M -1 229.893425 
L -0.318533 229.893425 
L 7.157808 229.893425 
L 14.603382 56.747023 
L 22.067417 57.620616 
L 29.525298 59.367803 
L 36.983179 61.11499 
L 44.44106 64.085214 
L 51.89894 67.754316 
L 59.359898 71.77285 
L 66.817779 76.839695 
L 74.27566 82.605416 
L 81.736618 90.118325 
L 89.182192 98.679554 
L 96.658533 108.463809 
L 104.104107 119.820536 
L 111.580448 134.147486 
L 119.026022 144.980052 
L 126.471596 155.463185 
L 133.947937 167.693505 
L 141.393512 173.28451 
L 148.869853 179.574391 
L 156.315427 188.65977 
L 163.791768 194.425494 
L 171.237342 198.444026 
L 178.682916 199.667061 
L 186.159257 203.685593 
L 193.604831 205.782221 
L 201.081173 207.878846 
L 208.526747 209.800754 
L 216.003088 211.373224 
L 223.448662 214.48322 
L 230.894236 215.32187 
L 238.370577 219.165686 
L 245.816151 218.763833 
L 253.292492 219.148214 
L 260.738067 218.659001 
L 268.214408 221.035178 
L 275.659982 223.254108 
L 283.105556 223.254108 
L 290.581897 226.189385 
L 298.027471 223.498714 
L 305.503812 220.808043 
L 312.949386 226.783429 
L 320.425727 223.114332 
L 327.871302 226.433991 
L 335.316876 229.360532 
L 342.793217 228.778718 
L 350.238791 226.224328 
L 357.684365 227.691967 
L 365.068406 227.884158 
L 372.760115 225.280846 
L 380.144155 229.893425 
L 387.528196 227.901629 
L 394.912236 225.473037 
L 402.603945 229.893425 
L 409.987986 228.853847 
L 417.372026 229.893425 
L 424.756067 229.893425 
L 432.140107 228.041405 
L 439.831816 226.958148 
L 447.215857 229.893425 
L 454.599897 229.893425 
L 461.983938 228.944701 
L 469.675647 228.569056 
L 477.059687 229.893425 
L 484.443728 229.893425 
L 491.827768 229.893425 
L 499.519477 229.893425 
L 506.903518 229.893425 
L 514.287558 229.893425 
L 521.671599 229.893425 
L 529.363307 229.893425 
L 536.747348 229.893425 
L 544.131389 229.893425 
L 551.515429 229.893425 
L 559.207138 229.893425 
L 566.591178 229.893425 
L 573.975219 229.893425 
L 581.359259 229.893425 
L 589.050968 229.893425 
L 596.435009 229.893425 
L 603.819049 229.893425 
L 611.20309 229.893425 
L 618.894799 229.893425 
L 626.278839 229.893425 
L 633.66288 229.893425 
L 641.04692 229.893425 
L 648.738629 229.893425 
L 656.12267 229.893425 
L 663.50671 229.893425 
" clip-path="url(#pe6fe1472d8)" style="fill: none; stroke-dasharray: 1.5,2.475; stroke-dashoffset: 0; stroke: #000000; stroke-width: 1.5"/>
   </g>
   <g id="line2d_21">
    <path d="M -1 229.893425 
L -0.318533 229.893425 
L 7.157808 229.893425 
L 14.603382 56.747023 
L 22.067417 57.620616 
L 29.525298 59.01837 
L 36.983179 61.289717 
L 44.44106 63.910498 
L 51.89894 67.055439 
L 59.359898 70.549813 
L 66.817779 76.839695 
L 74.27566 82.954849 
L 81.736618 92.564388 
L 89.182192 100.776174 
L 96.658533 108.289093 
L 104.104107 121.567723 
L 111.580448 138.166021 
L 119.026022 149.348025 
L 126.471596 159.306998 
L 133.947937 169.615414 
L 141.393512 175.206419 
L 148.869853 179.923825 
L 156.315427 188.83449 
L 163.791768 192.503586 
L 171.237342 195.648526 
L 178.682916 203.336157 
L 186.159257 204.908625 
L 193.604831 205.432782 
L 201.081173 214.762771 
L 208.526747 206.481095 
L 216.003088 215.164624 
L 223.448662 215.234512 
L 230.894236 215.479117 
L 238.370577 215.706252 
L 245.816151 223.725848 
L 253.292492 221.297256 
L 260.738067 222.799838 
L 268.214408 227.202754 
L 275.659982 224.616914 
L 283.105556 227.482304 
L 290.581897 227.325057 
L 298.027471 226.975619 
L 305.503812 223.323995 
L 312.949386 223.044445 
L 320.425727 226.206856 
L 327.871302 227.901629 
L 335.316876 224.180118 
L 342.793217 228.801432 
L 350.238791 229.893425 
L 357.684365 229.893425 
L 365.068406 228.680876 
L 372.760115 227.16781 
L 380.144155 228.333185 
L 387.528196 229.893425 
L 394.912236 229.893425 
L 402.603945 227.16781 
L 409.987986 229.893425 
L 417.372026 229.893425 
L 424.756067 229.893425 
L 432.140107 228.438016 
L 439.831816 229.893425 
L 447.215857 229.893425 
L 454.599897 229.893425 
L 461.983938 229.893425 
L 469.675647 229.893425 
L 477.059687 229.893425 
L 484.443728 229.893425 
L 491.827768 229.893425 
L 499.519477 229.893425 
L 506.903518 229.893425 
L 514.287558 229.893425 
L 521.671599 229.893425 
L 529.363307 229.893425 
L 536.747348 229.893425 
L 544.131389 229.893425 
L 551.515429 229.893425 
L 559.207138 229.893425 
L 566.591178 229.893425 
L 573.975219 229.893425 
L 581.359259 229.893425 
L 589.050968 229.893425 
L 596.435009 229.893425 
L 603.819049 229.893425 
L 611.20309 229.893425 
L 618.894799 229.893425 
L 626.278839 229.893425 
L 633.66288 229.893425 
L 641.04692 229.893425 
L 648.738629 229.893425 
L 656.12267 229.893425 
L 663.50671 229.893425 
" clip-path="url(#pe6fe1472d8)" style="fill: none; stroke-dasharray: 1.5,2.475; stroke-dashoffset: 0; stroke: #808080; stroke-width: 1.5"/>
   </g>
   <g id="patch_3">
    <path d="M 48.17 238.559481 
L 48.17 47.90625 
" style="fill: none; stroke: #000000; stroke-width: 0.8; stroke-linejoin: miter; stroke-linecap: square"/>
   </g>
   <g id="patch_4">
    <path d="M 355.838355 238.559481 
L 355.838355 47.90625 
" style="fill: none; stroke: #000000; stroke-width: 0.8; stroke-linejoin: miter; stroke-linecap: square"/>
   </g>
   <g id="patch_5">
    <path d="M 48.17 238.559481 
L 355.838355 238.559481 
" style="fill: none; stroke: #000000; stroke-width: 0.8; stroke-linejoin: miter; stroke-linecap: square"/>
   </g>
   <g id="patch_6">
    <path d="M 48.17 47.90625 
L 355.838355 47.90625 
" style="fill: none; stroke: #000000; stroke-width: 0.8; stroke-linejoin: miter; stroke-linecap: square"/>
   </g>
   <g id="text_15">
    <!-- Foldseek -->
    <g transform="translate(175.639803 41.90625) scale(0.12 -0.12)">
     <defs>
      <path id="DejaVuSans-64" d="M 2906 2969 
L 2906 4863 
L 3481 4863 
L 3481 0 
L 2906 0 
L 2906 525 
Q 2725 213 2448 61 
Q 2172 -91 1784 -91 
Q 1150 -91 751 415 
Q 353 922 353 1747 
Q 353 2572 751 3078 
Q 1150 3584 1784 3584 
Q 2172 3584 2448 3432 
Q 2725 3281 2906 2969 
z
M 947 1747 
Q 947 1113 1208 752 
Q 1469 391 1925 391 
Q 2381 391 2643 752 
Q 2906 1113 2906 1747 
Q 2906 2381 2643 2742 
Q 2381 3103 1925 3103 
Q 1469 3103 1208 2742 
Q 947 2381 947 1747 
z
" transform="scale(0.015625)"/>
      <path id="DejaVuSans-6b" d="M 581 4863 
L 1159 4863 
L 1159 1991 
L 2875 3500 
L 3609 3500 
L 1753 1863 
L 3688 0 
L 2938 0 
L 1159 1709 
L 1159 0 
L 581 0 
L 581 4863 
z
" transform="scale(0.015625)"/>
     </defs>
     <use xlink:href="#DejaVuSans-46"/>
     <use xlink:href="#DejaVuSans-6f" x="53.894531"/>
     <use xlink:href="#DejaVuSans-6c" x="115.076172"/>
     <use xlink:href="#DejaVuSans-64" x="142.859375"/>
     <use xlink:href="#DejaVuSans-73" x="206.335938"/>
     <use xlink:href="#DejaVuSans-65" x="258.435547"/>
     <use xlink:href="#DejaVuSans-65" x="319.958984"/>
     <use xlink:href="#DejaVuSans-6b" x="381.482422"/>
    </g>
   </g>
   <g id="legend_1">
    <g id="patch_7">
     <path d="M 255.049293 188.009375 
L 348.838355 188.009375 
Q 350.838355 188.009375 350.838355 186.009375 
L 350.838355 54.90625 
Q 350.838355 52.90625 348.838355 52.90625 
L 255.049293 52.90625 
Q 253.049293 52.90625 253.049293 54.90625 
L 253.049293 186.009375 
Q 253.049293 188.009375 255.049293 188.009375 
z
" style="fill: #ffffff; opacity: 0.8; stroke: #cccccc; stroke-linejoin: miter"/>
    </g>
    <g id="line2d_22">
     <path d="M 257.049293 61.004687 
L 267.049293 61.004687 
L 277.049293 61.004687 
" style="fill: none; stroke-dasharray: 5.55,2.4; stroke-dashoffset: 0; stroke: #ff00ff; stroke-width: 1.5"/>
    </g>
    <g id="text_16">
     <!-- SCOP40x8 -->
     <g transform="translate(285.049293 64.504687) scale(0.1 -0.1)">
      <defs>
       <path id="DejaVuSans-53" d="M 3425 4513 
L 3425 3897 
Q 3066 4069 2747 4153 
Q 2428 4238 2131 4238 
Q 1616 4238 1336 4038 
Q 1056 3838 1056 3469 
Q 1056 3159 1242 3001 
Q 1428 2844 1947 2747 
L 2328 2669 
Q 3034 2534 3370 2195 
Q 3706 1856 3706 1288 
Q 3706 609 3251 259 
Q 2797 -91 1919 -91 
Q 1588 -91 1214 -16 
Q 841 59 441 206 
L 441 856 
Q 825 641 1194 531 
Q 1563 422 1919 422 
Q 2459 422 2753 634 
Q 3047 847 3047 1241 
Q 3047 1584 2836 1778 
Q 2625 1972 2144 2069 
L 1759 2144 
Q 1053 2284 737 2584 
Q 422 2884 422 3419 
Q 422 4038 858 4394 
Q 1294 4750 2059 4750 
Q 2388 4750 2728 4690 
Q 3069 4631 3425 4513 
z
" transform="scale(0.015625)"/>
       <path id="DejaVuSans-43" d="M 4122 4306 
L 4122 3641 
Q 3803 3938 3442 4084 
Q 3081 4231 2675 4231 
Q 1875 4231 1450 3742 
Q 1025 3253 1025 2328 
Q 1025 1406 1450 917 
Q 1875 428 2675 428 
Q 3081 428 3442 575 
Q 3803 722 4122 1019 
L 4122 359 
Q 3791 134 3420 21 
Q 3050 -91 2638 -91 
Q 1578 -91 968 557 
Q 359 1206 359 2328 
Q 359 3453 968 4101 
Q 1578 4750 2638 4750 
Q 3056 4750 3426 4639 
Q 3797 4528 4122 4306 
z
" transform="scale(0.015625)"/>
       <path id="DejaVuSans-4f" d="M 2522 4238 
Q 1834 4238 1429 3725 
Q 1025 3213 1025 2328 
Q 1025 1447 1429 934 
Q 1834 422 2522 422 
Q 3209 422 3611 934 
Q 4013 1447 4013 2328 
Q 4013 3213 3611 3725 
Q 3209 4238 2522 4238 
z
M 2522 4750 
Q 3503 4750 4090 4092 
Q 4678 3434 4678 2328 
Q 4678 1225 4090 567 
Q 3503 -91 2522 -91 
Q 1538 -91 948 565 
Q 359 1222 359 2328 
Q 359 3434 948 4092 
Q 1538 4750 2522 4750 
z
" transform="scale(0.015625)"/>
       <path id="DejaVuSans-78" d="M 3513 3500 
L 2247 1797 
L 3578 0 
L 2900 0 
L 1881 1375 
L 863 0 
L 184 0 
L 1544 1831 
L 300 3500 
L 978 3500 
L 1906 2253 
L 2834 3500 
L 3513 3500 
z
" transform="scale(0.015625)"/>
      </defs>
      <use xlink:href="#DejaVuSans-53"/>
      <use xlink:href="#DejaVuSans-43" x="63.476562"/>
      <use xlink:href="#DejaVuSans-4f" x="133.300781"/>
      <use xlink:href="#DejaVuSans-50" x="212.011719"/>
      <use xlink:href="#DejaVuSans-34" x="272.314453"/>
      <use xlink:href="#DejaVuSans-30" x="335.9375"/>
      <use xlink:href="#DejaVuSans-78" x="399.560547"/>
      <use xlink:href="#DejaVuSans-38" x="458.740234"/>
     </g>
    </g>
    <g id="line2d_23">
     <path d="M 257.049293 75.682813 
L 267.049293 75.682813 
L 277.049293 75.682813 
" style="fill: none; stroke: #000000; stroke-width: 1.5; stroke-linecap: square"/>
    </g>
    <g id="text_17">
     <!-- SCOP40 -->
     <g transform="translate(285.049293 79.182813) scale(0.1 -0.1)">
      <use xlink:href="#DejaVuSans-53"/>
      <use xlink:href="#DejaVuSans-43" x="63.476562"/>
      <use xlink:href="#DejaVuSans-4f" x="133.300781"/>
      <use xlink:href="#DejaVuSans-50" x="212.011719"/>
      <use xlink:href="#DejaVuSans-34" x="272.314453"/>
      <use xlink:href="#DejaVuSans-30" x="335.9375"/>
     </g>
    </g>
    <g id="line2d_24">
     <path d="M 257.049293 90.360937 
L 267.049293 90.360937 
L 277.049293 90.360937 
" style="fill: none; stroke: #00ffff; stroke-width: 1.5; stroke-linecap: square"/>
    </g>
    <g id="text_18">
     <!-- SCOP40c -->
     <g transform="translate(285.049293 93.860937) scale(0.1 -0.1)">
      <use xlink:href="#DejaVuSans-53"/>
      <use xlink:href="#DejaVuSans-43" x="63.476562"/>
      <use xlink:href="#DejaVuSans-4f" x="133.300781"/>
      <use xlink:href="#DejaVuSans-50" x="212.011719"/>
      <use xlink:href="#DejaVuSans-34" x="272.314453"/>
      <use xlink:href="#DejaVuSans-30" x="335.9375"/>
      <use xlink:href="#DejaVuSans-63" x="399.560547"/>
     </g>
    </g>
    <g id="line2d_25">
     <path d="M 257.049293 105.039062 
L 267.049293 105.039062 
L 277.049293 105.039062 
" style="fill: none; stroke-dasharray: 5.55,2.4; stroke-dashoffset: 0; stroke: #000000; stroke-width: 1.5"/>
    </g>
    <g id="text_19">
     <!-- SCOP40/SF2 -->
     <g transform="translate(285.049293 108.539062) scale(0.1 -0.1)">
      <defs>
       <path id="DejaVuSans-2f" d="M 1625 4666 
L 2156 4666 
L 531 -594 
L 0 -594 
L 1625 4666 
z
" transform="scale(0.015625)"/>
      </defs>
      <use xlink:href="#DejaVuSans-53"/>
      <use xlink:href="#DejaVuSans-43" x="63.476562"/>
      <use xlink:href="#DejaVuSans-4f" x="133.300781"/>
      <use xlink:href="#DejaVuSans-50" x="212.011719"/>
      <use xlink:href="#DejaVuSans-34" x="272.314453"/>
      <use xlink:href="#DejaVuSans-30" x="335.9375"/>
      <use xlink:href="#DejaVuSans-2f" x="399.560547"/>
      <use xlink:href="#DejaVuSans-53" x="433.251953"/>
      <use xlink:href="#DejaVuSans-46" x="496.728516"/>
      <use xlink:href="#DejaVuSans-32" x="554.248047"/>
     </g>
    </g>
    <g id="line2d_26">
     <path d="M 257.049293 119.717187 
L 267.049293 119.717187 
L 277.049293 119.717187 
" style="fill: none; stroke-dasharray: 1.5,2.475; stroke-dashoffset: 0; stroke: #000000; stroke-width: 1.5"/>
    </g>
    <g id="text_20">
     <!-- SCOP40/SF4 -->
     <g transform="translate(285.049293 123.217187) scale(0.1 -0.1)">
      <use xlink:href="#DejaVuSans-53"/>
      <use xlink:href="#DejaVuSans-43" x="63.476562"/>
      <use xlink:href="#DejaVuSans-4f" x="133.300781"/>
      <use xlink:href="#DejaVuSans-50" x="212.011719"/>
      <use xlink:href="#DejaVuSans-34" x="272.314453"/>
      <use xlink:href="#DejaVuSans-30" x="335.9375"/>
      <use xlink:href="#DejaVuSans-2f" x="399.560547"/>
      <use xlink:href="#DejaVuSans-53" x="433.251953"/>
      <use xlink:href="#DejaVuSans-46" x="496.728516"/>
      <use xlink:href="#DejaVuSans-34" x="554.248047"/>
     </g>
    </g>
    <g id="line2d_27">
     <path d="M 257.049293 134.395312 
L 267.049293 134.395312 
L 277.049293 134.395312 
" style="fill: none; stroke-dasharray: 1.5,2.475; stroke-dashoffset: 0; stroke: #808080; stroke-width: 1.5"/>
    </g>
    <g id="text_21">
     <!-- SCOP40/SF8 -->
     <g transform="translate(285.049293 137.895312) scale(0.1 -0.1)">
      <use xlink:href="#DejaVuSans-53"/>
      <use xlink:href="#DejaVuSans-43" x="63.476562"/>
      <use xlink:href="#DejaVuSans-4f" x="133.300781"/>
      <use xlink:href="#DejaVuSans-50" x="212.011719"/>
      <use xlink:href="#DejaVuSans-34" x="272.314453"/>
      <use xlink:href="#DejaVuSans-30" x="335.9375"/>
      <use xlink:href="#DejaVuSans-2f" x="399.560547"/>
      <use xlink:href="#DejaVuSans-53" x="433.251953"/>
      <use xlink:href="#DejaVuSans-46" x="496.728516"/>
      <use xlink:href="#DejaVuSans-38" x="554.248047"/>
     </g>
    </g>
    <g id="line2d_28">
     <path d="M 257.049293 149.073437 
L 267.049293 149.073437 
L 277.049293 149.073437 
" style="fill: none; stroke-dasharray: 5.55,2.4; stroke-dashoffset: 0; stroke: #000000; stroke-width: 1.5"/>
    </g>
    <g id="text_22">
     <!-- SCOP40/SF2 -->
     <g transform="translate(285.049293 152.573437) scale(0.1 -0.1)">
      <use xlink:href="#DejaVuSans-53"/>
      <use xlink:href="#DejaVuSans-43" x="63.476562"/>
      <use xlink:href="#DejaVuSans-4f" x="133.300781"/>
      <use xlink:href="#DejaVuSans-50" x="212.011719"/>
      <use xlink:href="#DejaVuSans-34" x="272.314453"/>
      <use xlink:href="#DejaVuSans-30" x="335.9375"/>
      <use xlink:href="#DejaVuSans-2f" x="399.560547"/>
      <use xlink:href="#DejaVuSans-53" x="433.251953"/>
      <use xlink:href="#DejaVuSans-46" x="496.728516"/>
      <use xlink:href="#DejaVuSans-32" x="554.248047"/>
     </g>
    </g>
    <g id="line2d_29">
     <path d="M 257.049293 163.751562 
L 267.049293 163.751562 
L 277.049293 163.751562 
" style="fill: none; stroke-dasharray: 1.5,2.475; stroke-dashoffset: 0; stroke: #000000; stroke-width: 1.5"/>
    </g>
    <g id="text_23">
     <!-- SCOP40/SF4 -->
     <g transform="translate(285.049293 167.251562) scale(0.1 -0.1)">
      <use xlink:href="#DejaVuSans-53"/>
      <use xlink:href="#DejaVuSans-43" x="63.476562"/>
      <use xlink:href="#DejaVuSans-4f" x="133.300781"/>
      <use xlink:href="#DejaVuSans-50" x="212.011719"/>
      <use xlink:href="#DejaVuSans-34" x="272.314453"/>
      <use xlink:href="#DejaVuSans-30" x="335.9375"/>
      <use xlink:href="#DejaVuSans-2f" x="399.560547"/>
      <use xlink:href="#DejaVuSans-53" x="433.251953"/>
      <use xlink:href="#DejaVuSans-46" x="496.728516"/>
      <use xlink:href="#DejaVuSans-34" x="554.248047"/>
     </g>
    </g>
    <g id="line2d_30">
     <path d="M 257.049293 178.429687 
L 267.049293 178.429687 
L 277.049293 178.429687 
" style="fill: none; stroke-dasharray: 1.5,2.475; stroke-dashoffset: 0; stroke: #808080; stroke-width: 1.5"/>
    </g>
    <g id="text_24">
     <!-- SCOP40/SF8 -->
     <g transform="translate(285.049293 181.929687) scale(0.1 -0.1)">
      <use xlink:href="#DejaVuSans-53"/>
      <use xlink:href="#DejaVuSans-43" x="63.476562"/>
      <use xlink:href="#DejaVuSans-4f" x="133.300781"/>
      <use xlink:href="#DejaVuSans-50" x="212.011719"/>
      <use xlink:href="#DejaVuSans-34" x="272.314453"/>
      <use xlink:href="#DejaVuSans-30" x="335.9375"/>
      <use xlink:href="#DejaVuSans-2f" x="399.560547"/>
      <use xlink:href="#DejaVuSans-53" x="433.251953"/>
      <use xlink:href="#DejaVuSans-46" x="496.728516"/>
      <use xlink:href="#DejaVuSans-38" x="554.248047"/>
     </g>
    </g>
   </g>
  </g>
  <g id="axes_2">
   <g id="patch_8">
    <path d="M 418.367451 238.559481 
L 726.035806 238.559481 
L 726.035806 47.90625 
L 418.367451 47.90625 
z
" style="fill: #ffffff"/>
   </g>
   <g id="matplotlib.axis_3">
    <g id="xtick_7">
     <g id="line2d_31">
      <g>
       <use xlink:href="#m1e671163e7" x="418.367451" y="238.559481" style="stroke: #000000; stroke-width: 0.8"/>
      </g>
     </g>
     <g id="text_25">
      <!-- 0 -->
      <g transform="translate(415.186201 253.157918) scale(0.1 -0.1)">
       <use xlink:href="#DejaVuSans-30"/>
      </g>
     </g>
    </g>
    <g id="xtick_8">
     <g id="line2d_32">
      <g>
       <use xlink:href="#m1e671163e7" x="479.901122" y="238.559481" style="stroke: #000000; stroke-width: 0.8"/>
      </g>
     </g>
     <g id="text_26">
      <!-- 2 -->
      <g transform="translate(476.719872 253.157918) scale(0.1 -0.1)">
       <use xlink:href="#DejaVuSans-32"/>
      </g>
     </g>
    </g>
    <g id="xtick_9">
     <g id="line2d_33">
      <g>
       <use xlink:href="#m1e671163e7" x="541.434793" y="238.559481" style="stroke: #000000; stroke-width: 0.8"/>
      </g>
     </g>
     <g id="text_27">
      <!-- 4 -->
      <g transform="translate(538.253543 253.157918) scale(0.1 -0.1)">
       <use xlink:href="#DejaVuSans-34"/>
      </g>
     </g>
    </g>
    <g id="xtick_10">
     <g id="line2d_34">
      <g>
       <use xlink:href="#m1e671163e7" x="602.968464" y="238.559481" style="stroke: #000000; stroke-width: 0.8"/>
      </g>
     </g>
     <g id="text_28">
      <!-- 6 -->
      <g transform="translate(599.787214 253.157918) scale(0.1 -0.1)">
       <use xlink:href="#DejaVuSans-36"/>
      </g>
     </g>
    </g>
    <g id="xtick_11">
     <g id="line2d_35">
      <g>
       <use xlink:href="#m1e671163e7" x="664.502135" y="238.559481" style="stroke: #000000; stroke-width: 0.8"/>
      </g>
     </g>
     <g id="text_29">
      <!-- 8 -->
      <g transform="translate(661.320885 253.157918) scale(0.1 -0.1)">
       <use xlink:href="#DejaVuSans-38"/>
      </g>
     </g>
    </g>
    <g id="xtick_12">
     <g id="line2d_36">
      <g>
       <use xlink:href="#m1e671163e7" x="726.035806" y="238.559481" style="stroke: #000000; stroke-width: 0.8"/>
      </g>
     </g>
     <g id="text_30">
      <!-- 10 -->
      <g transform="translate(719.673306 253.157918) scale(0.1 -0.1)">
       <use xlink:href="#DejaVuSans-31"/>
       <use xlink:href="#DejaVuSans-30" x="63.623047"/>
      </g>
     </g>
    </g>
    <g id="text_31">
     <!-- -log10(E) -->
     <g transform="translate(549.351629 266.836043) scale(0.1 -0.1)">
      <use xlink:href="#DejaVuSans-2d"/>
      <use xlink:href="#DejaVuSans-6c" x="36.083984"/>
      <use xlink:href="#DejaVuSans-6f" x="63.867188"/>
      <use xlink:href="#DejaVuSans-67" x="125.048828"/>
      <use xlink:href="#DejaVuSans-31" x="188.525391"/>
      <use xlink:href="#DejaVuSans-30" x="252.148438"/>
      <use xlink:href="#DejaVuSans-28" x="315.771484"/>
      <use xlink:href="#DejaVuSans-45" x="354.785156"/>
      <use xlink:href="#DejaVuSans-29" x="417.96875"/>
     </g>
    </g>
   </g>
   <g id="matplotlib.axis_4">
    <g id="ytick_7">
     <g id="line2d_37">
      <g>
       <use xlink:href="#m061952622c" x="418.367451" y="238.559481" style="stroke: #000000; stroke-width: 0.8"/>
      </g>
     </g>
     <g id="text_32">
      <!-- $\mathdefault{10^{-2}}$ -->
      <g transform="translate(387.867451 242.358699) scale(0.1 -0.1)">
       <defs>
        <path id="DejaVuSans-2212" d="M 678 2272 
L 4684 2272 
L 4684 1741 
L 678 1741 
L 678 2272 
z
" transform="scale(0.015625)"/>
       </defs>
       <use xlink:href="#DejaVuSans-31" transform="translate(0 0.765625)"/>
       <use xlink:href="#DejaVuSans-30" transform="translate(63.623047 0.765625)"/>
       <use xlink:href="#DejaVuSans-2212" transform="translate(128.203125 39.046875) scale(0.7)"/>
       <use xlink:href="#DejaVuSans-32" transform="translate(186.855469 39.046875) scale(0.7)"/>
      </g>
     </g>
    </g>
    <g id="ytick_8">
     <g id="line2d_38">
      <g>
       <use xlink:href="#m061952622c" x="418.367451" y="143.232865" style="stroke: #000000; stroke-width: 0.8"/>
      </g>
     </g>
     <g id="text_33">
      <!-- $\mathdefault{10^{-1}}$ -->
      <g transform="translate(387.867451 147.032084) scale(0.1 -0.1)">
       <use xlink:href="#DejaVuSans-31" transform="translate(0 0.684375)"/>
       <use xlink:href="#DejaVuSans-30" transform="translate(63.623047 0.684375)"/>
       <use xlink:href="#DejaVuSans-2212" transform="translate(128.203125 38.965625) scale(0.7)"/>
       <use xlink:href="#DejaVuSans-31" transform="translate(186.855469 38.965625) scale(0.7)"/>
      </g>
     </g>
    </g>
    <g id="ytick_9">
     <g id="line2d_39">
      <g>
       <use xlink:href="#m061952622c" x="418.367451" y="47.90625" style="stroke: #000000; stroke-width: 0.8"/>
      </g>
     </g>
     <g id="text_34">
      <!-- $\mathdefault{10^{0}}$ -->
      <g transform="translate(393.767451 51.705469) scale(0.1 -0.1)">
       <use xlink:href="#DejaVuSans-31" transform="translate(0 0.765625)"/>
       <use xlink:href="#DejaVuSans-30" transform="translate(63.623047 0.765625)"/>
       <use xlink:href="#DejaVuSans-30" transform="translate(128.203125 39.046875) scale(0.7)"/>
      </g>
     </g>
    </g>
    <g id="ytick_10">
     <g id="line2d_40">
      <defs>
       <path id="md36221adde" d="M 0 0 
L -2 0 
" style="stroke: #000000; stroke-width: 0.6"/>
      </defs>
      <g>
       <use xlink:href="#md36221adde" x="418.367451" y="209.86331" style="stroke: #000000; stroke-width: 0.6"/>
      </g>
     </g>
    </g>
    <g id="ytick_11">
     <g id="line2d_41">
      <g>
       <use xlink:href="#md36221adde" x="418.367451" y="193.077126" style="stroke: #000000; stroke-width: 0.6"/>
      </g>
     </g>
    </g>
    <g id="ytick_12">
     <g id="line2d_42">
      <g>
       <use xlink:href="#md36221adde" x="418.367451" y="181.167139" style="stroke: #000000; stroke-width: 0.6"/>
      </g>
     </g>
    </g>
    <g id="ytick_13">
     <g id="line2d_43">
      <g>
       <use xlink:href="#md36221adde" x="418.367451" y="171.929036" style="stroke: #000000; stroke-width: 0.6"/>
      </g>
     </g>
    </g>
    <g id="ytick_14">
     <g id="line2d_44">
      <g>
       <use xlink:href="#md36221adde" x="418.367451" y="164.380956" style="stroke: #000000; stroke-width: 0.6"/>
      </g>
     </g>
    </g>
    <g id="ytick_15">
     <g id="line2d_45">
      <g>
       <use xlink:href="#md36221adde" x="418.367451" y="157.999145" style="stroke: #000000; stroke-width: 0.6"/>
      </g>
     </g>
    </g>
    <g id="ytick_16">
     <g id="line2d_46">
      <g>
       <use xlink:href="#md36221adde" x="418.367451" y="152.470969" style="stroke: #000000; stroke-width: 0.6"/>
      </g>
     </g>
    </g>
    <g id="ytick_17">
     <g id="line2d_47">
      <g>
       <use xlink:href="#md36221adde" x="418.367451" y="147.594772" style="stroke: #000000; stroke-width: 0.6"/>
      </g>
     </g>
    </g>
    <g id="ytick_18">
     <g id="line2d_48">
      <g>
       <use xlink:href="#md36221adde" x="418.367451" y="114.536695" style="stroke: #000000; stroke-width: 0.6"/>
      </g>
     </g>
    </g>
    <g id="ytick_19">
     <g id="line2d_49">
      <g>
       <use xlink:href="#md36221adde" x="418.367451" y="97.750511" style="stroke: #000000; stroke-width: 0.6"/>
      </g>
     </g>
    </g>
    <g id="ytick_20">
     <g id="line2d_50">
      <g>
       <use xlink:href="#md36221adde" x="418.367451" y="85.840524" style="stroke: #000000; stroke-width: 0.6"/>
      </g>
     </g>
    </g>
    <g id="ytick_21">
     <g id="line2d_51">
      <g>
       <use xlink:href="#md36221adde" x="418.367451" y="76.602421" style="stroke: #000000; stroke-width: 0.6"/>
      </g>
     </g>
    </g>
    <g id="ytick_22">
     <g id="line2d_52">
      <g>
       <use xlink:href="#md36221adde" x="418.367451" y="69.05434" style="stroke: #000000; stroke-width: 0.6"/>
      </g>
     </g>
    </g>
    <g id="ytick_23">
     <g id="line2d_53">
      <g>
       <use xlink:href="#md36221adde" x="418.367451" y="62.67253" style="stroke: #000000; stroke-width: 0.6"/>
      </g>
     </g>
    </g>
    <g id="ytick_24">
     <g id="line2d_54">
      <g>
       <use xlink:href="#md36221adde" x="418.367451" y="57.144354" style="stroke: #000000; stroke-width: 0.6"/>
      </g>
     </g>
    </g>
    <g id="ytick_25">
     <g id="line2d_55">
      <g>
       <use xlink:href="#md36221adde" x="418.367451" y="52.268157" style="stroke: #000000; stroke-width: 0.6"/>
      </g>
     </g>
    </g>
    <g id="text_35">
     <!-- P(F|score) -->
     <g transform="translate(381.509639 168.14224) rotate(-90) scale(0.1 -0.1)">
      <use xlink:href="#DejaVuSans-50"/>
      <use xlink:href="#DejaVuSans-28" x="60.302734"/>
      <use xlink:href="#DejaVuSans-46" x="99.316406"/>
      <use xlink:href="#DejaVuSans-7c" x="156.835938"/>
      <use xlink:href="#DejaVuSans-73" x="190.527344"/>
      <use xlink:href="#DejaVuSans-63" x="242.626953"/>
      <use xlink:href="#DejaVuSans-6f" x="297.607422"/>
      <use xlink:href="#DejaVuSans-72" x="358.789062"/>
      <use xlink:href="#DejaVuSans-65" x="397.652344"/>
      <use xlink:href="#DejaVuSans-29" x="459.175781"/>
     </g>
    </g>
   </g>
   <g id="line2d_56">
    <path d="M 384.78265 281.519481 
L 384.800834 48.717299 
L 392.261791 49.120335 
L 399.719672 49.773463 
L 407.18063 50.750715 
L 414.638511 51.942839 
L 422.096392 53.339907 
L 429.554273 55.183634 
L 437.01523 57.429961 
L 444.473111 60.271367 
L 451.934069 63.654011 
L 459.379643 67.57017 
L 466.855984 72.784755 
L 474.301558 78.865642 
L 481.777899 85.142642 
L 489.223473 91.380529 
L 496.669048 97.640259 
L 504.145389 105.298591 
L 511.590963 110.949968 
L 519.067304 116.988365 
L 526.512878 122.151068 
L 533.989219 126.226468 
L 541.434793 129.332556 
L 548.880368 134.696187 
L 556.356709 140.315898 
L 563.802283 140.898728 
L 571.278624 145.017872 
L 578.724198 152.295393 
L 586.200539 155.391998 
L 593.646113 158.55286 
L 601.091687 159.315062 
L 608.568028 166.200556 
L 616.013603 163.076918 
L 623.489944 172.563144 
L 630.935518 175.579494 
L 638.411859 176.079881 
L 645.857433 176.309346 
L 653.303007 186.306801 
L 660.779348 186.518268 
L 668.224923 185.968367 
L 675.701264 195.889085 
L 683.146838 201.141773 
L 690.592412 201.125008 
L 698.068753 208.96239 
L 705.514327 218.715099 
L 712.990668 218.180243 
L 720.436242 248.454821 
L 727.881817 220.603195 
L 735.265857 239.582165 
L 742.957566 257.786354 
L 744.225806 254.462757 
" clip-path="url(#pec62b11f04)" style="fill: none; stroke-dasharray: 5.55,2.4; stroke-dashoffset: 0; stroke: #ff00ff; stroke-width: 1.5"/>
   </g>
   <g id="line2d_57">
    <path d="M 384.782615 281.519481 
L 384.800834 48.259652 
L 392.261791 48.456366 
L 399.719672 48.810286 
L 407.18063 49.299777 
L 414.638511 49.951416 
L 422.096392 50.812844 
L 429.554273 51.878992 
L 437.01523 53.283297 
L 444.473111 54.971945 
L 451.934069 57.305091 
L 459.379643 59.910182 
L 466.855984 63.214254 
L 474.301558 67.523597 
L 481.777899 72.281934 
L 489.223473 77.135758 
L 496.669048 82.386884 
L 504.145389 88.67834 
L 511.590963 94.284177 
L 519.067304 99.656721 
L 526.512878 105.481153 
L 533.989219 110.609693 
L 541.434793 116.205161 
L 548.880368 119.198685 
L 556.356709 125.545759 
L 563.802283 129.451093 
L 571.278624 133.566425 
L 578.724198 138.837853 
L 586.200539 145.343326 
L 593.646113 148.543968 
L 601.091687 153.023185 
L 608.568028 154.769184 
L 616.013603 163.264548 
L 623.489944 161.942605 
L 630.935518 170.448862 
L 638.411859 174.746904 
L 645.857433 174.201003 
L 653.303007 179.384483 
L 660.779348 189.623487 
L 668.224923 183.34518 
L 675.701264 184.776922 
L 683.146838 202.853461 
L 690.592412 201.852082 
L 698.068753 200.033302 
L 705.514327 214.991257 
L 712.990668 221.443417 
L 720.436242 216.3972 
L 727.881817 249.283269 
L 735.265857 224.334927 
L 742.957566 235.411659 
L 744.225806 238.015938 
" clip-path="url(#pec62b11f04)" style="fill: none; stroke: #000000; stroke-width: 1.5; stroke-linecap: square"/>
   </g>
   <g id="line2d_58">
    <path d="M 384.782613 281.519481 
L 384.800834 48.242953 
L 392.261791 48.414434 
L 399.719672 48.776448 
L 407.18063 49.312623 
L 414.638511 50.077748 
L 422.096392 51.102526 
L 429.554273 52.484924 
L 437.01523 54.357809 
L 444.473111 56.4872 
L 451.934069 59.475404 
L 459.379643 63.304235 
L 466.855984 67.79713 
L 474.301558 74.252634 
L 481.777899 81.074874 
L 489.223473 88.67834 
L 496.669048 97.585242 
L 504.145389 106.15188 
L 511.590963 116.988365 
L 519.067304 125.115907 
L 526.512878 139.58923 
L 533.989219 148.61934 
L 541.434793 161.75438 
L 548.880368 167.817942 
L 556.356709 186.89689 
L 563.802283 195.536118 
L 571.278624 210.975202 
L 578.724198 225.829668 
L 586.200539 246.835944 
L 593.646113 248.813904 
L 601.091687 254.301185 
L 608.568028 274.850125 
L 614.17932 281.519481 
M 619.186711 281.519481 
L 623.489944 278.562849 
L 624.010486 281.519481 
" clip-path="url(#pec62b11f04)" style="fill: none; stroke: #00ffff; stroke-width: 1.5; stroke-linecap: square"/>
   </g>
   <g id="line2d_59">
    <path d="M 384.782659 281.519481 
L 384.800834 48.827215 
L 392.264868 49.295495 
L 399.722749 50.117032 
L 407.18063 51.089112 
L 414.638511 52.360259 
L 422.096392 53.81468 
L 429.557349 55.470893 
L 437.01523 57.560436 
L 444.473111 59.871473 
L 451.934069 62.969304 
L 459.379643 65.932104 
L 466.855984 70.031783 
L 474.301558 74.503733 
L 481.777899 79.429152 
L 489.223473 84.416311 
L 496.669048 89.518121 
L 504.145389 96.393018 
L 511.590963 102.574992 
L 519.067304 108.930966 
L 526.512878 115.373084 
L 533.989219 119.594413 
L 541.434793 128.136707 
L 548.880368 128.715731 
L 556.356709 139.665125 
L 563.802283 140.820543 
L 571.278624 144.707823 
L 578.724198 153.67866 
L 586.200539 161.25872 
L 593.646113 167.089654 
L 601.091687 170.384997 
L 608.568028 179.742926 
L 616.013603 181.792841 
L 623.489944 189.382973 
L 630.935518 191.453397 
L 638.411859 199.321166 
L 645.857433 187.411179 
L 653.303007 206.106095 
L 660.779348 203.186839 
L 668.224923 199.805382 
L 675.701264 193.077127 
L 683.146838 222.609685 
L 690.623179 221.224946 
L 698.068753 230.667832 
L 705.514327 231.357843 
L 712.990668 256.649373 
L 720.436242 235.373306 
L 727.881817 281.086301 
L 735.265857 241.876685 
L 742.957566 250.359215 
L 744.225806 259.993207 
" clip-path="url(#pec62b11f04)" style="fill: none; stroke-dasharray: 5.55,2.4; stroke-dashoffset: 0; stroke: #000000; stroke-width: 1.5"/>
   </g>
   <g id="line2d_60">
    <path d="M 384.782709 281.519481 
L 384.800834 49.467101 
L 392.264868 50.335963 
L 399.722749 51.719807 
L 407.18063 53.766958 
L 414.638511 56.071628 
L 422.096392 59.486357 
L 429.557349 63.629793 
L 437.01523 68.505992 
L 444.473111 74.112057 
L 451.934069 80.506865 
L 459.379643 87.530547 
L 466.855984 94.436759 
L 474.301558 102.730337 
L 481.777899 110.216208 
L 489.223473 116.878698 
L 496.669048 123.774799 
L 504.145389 130.503051 
L 511.590963 138.173078 
L 519.067304 142.413041 
L 526.512878 146.55007 
L 533.989219 154.922639 
L 541.434793 162.426818 
L 548.880368 162.624744 
L 556.356709 173.361114 
L 563.802283 173.619059 
L 571.278624 173.10477 
L 578.724198 179.643049 
L 586.200539 187.531705 
L 593.646113 188.632504 
L 601.091687 197.439032 
L 608.568028 189.636183 
L 616.013603 214.921029 
L 623.489944 200.957736 
L 630.935518 209.863311 
L 638.411859 214.455858 
L 645.857433 216.835814 
L 653.303007 236.93575 
L 660.779348 231.707211 
L 668.224923 227.380405 
L 675.701264 240.163345 
L 683.146838 254.101842 
L 690.623179 279.945738 
L 698.068753 240.639457 
L 705.514327 280.626298 
L 705.514397 281.519481 
M 720.43306 281.519481 
L 720.436242 240.857695 
L 720.439425 281.519481 
M 742.955824 281.519481 
L 742.957566 259.984492 
L 742.959238 281.519481 
" clip-path="url(#pec62b11f04)" style="fill: none; stroke-dasharray: 1.5,2.475; stroke-dashoffset: 0; stroke: #000000; stroke-width: 1.5"/>
   </g>
   <g id="line2d_61">
    <path d="M 384.782776 281.519481 
L 384.800834 50.335963 
L 392.264868 51.674438 
L 399.722749 54.054125 
L 407.18063 57.144353 
L 414.638511 60.82195 
L 422.096392 65.54995 
L 429.557349 70.816302 
L 437.01523 77.438808 
L 444.473111 83.525957 
L 451.934069 91.844567 
L 459.379643 101.959369 
L 466.855984 110.403115 
L 474.301558 120.540738 
L 481.777899 129.599749 
L 489.223473 138.912379 
L 496.669048 146.86524 
L 504.145389 154.268945 
L 511.590963 165.287813 
L 519.067304 164.866792 
L 526.512878 177.409925 
L 533.989219 183.94957 
L 541.434793 186.108073 
L 548.880368 199.968053 
L 556.356709 207.450989 
L 563.802283 213.540905 
L 571.278624 219.622175 
L 578.724198 239.650118 
L 586.200539 250.359215 
L 593.646113 241.386211 
L 601.091687 241.386211 
L 608.568028 239.227232 
L 616.013603 258.820153 
L 623.489944 248.528494 
L 630.935518 241.787074 
L 638.411859 252.738518 
L 645.857433 248.581202 
L 653.303007 260.333274 
L 655.541754 281.519481 
M 672.551823 281.519481 
L 675.701264 273.886611 
L 675.701861 281.519481 
M 700.539127 281.519481 
L 705.514327 271.987202 
L 705.515077 281.519481 
" clip-path="url(#pec62b11f04)" style="fill: none; stroke-dasharray: 1.5,2.475; stroke-dashoffset: 0; stroke: #808080; stroke-width: 1.5"/>
   </g>
   <g id="line2d_62">
    <path d="M 384.782613 281.519481 
L 384.800834 48.238781 
L 392.264868 48.447977 
L 399.722749 48.784906 
L 407.18063 49.252705 
L 414.638511 49.899253 
L 422.096392 50.821728 
L 429.557349 51.810694 
L 437.01523 53.245601 
L 444.473111 54.829787 
L 451.934069 57.144353 
L 459.379643 59.486357 
L 466.855984 62.613431 
L 474.301558 67.166072 
L 481.777899 71.177874 
L 489.223473 75.620559 
L 496.669048 81.056429 
L 504.145389 87.422877 
L 511.590963 93.430024 
L 519.067304 97.47543 
L 526.512878 103.199903 
L 533.989219 109.294126 
L 541.434793 113.71687 
L 548.880368 119.594413 
L 556.356709 120.780734 
L 563.802283 129.008312 
L 571.278624 130.808587 
L 578.724198 137.088305 
L 586.200539 141.609134 
L 593.646113 145.312843 
L 601.091687 143.482013 
L 608.568028 146.103946 
L 616.013603 160.497907 
L 623.489944 161.194781 
L 630.935518 167.534024 
L 638.411859 176.475353 
L 645.857433 169.83035 
L 653.303007 174.933449 
L 660.779348 188.017338 
L 668.224923 180.755199 
L 675.701264 184.506778 
L 683.146838 199.481945 
L 690.623179 205.171524 
L 698.068753 176.383044 
L 705.514327 213.090903 
L 712.990668 208.239579 
L 720.436242 199.161012 
L 727.881817 257.230205 
L 735.265857 256.26663 
L 742.957566 228.339518 
L 744.225806 240.452965 
" clip-path="url(#pec62b11f04)" style="fill: none; stroke-dasharray: 5.55,2.4; stroke-dashoffset: 0; stroke: #000000; stroke-width: 1.5"/>
   </g>
   <g id="line2d_63">
    <path d="M 384.782616 281.519481 
L 384.800834 48.280535 
L 392.264868 48.489943 
L 399.722749 48.911963 
L 407.18063 49.338329 
L 414.638511 50.073385 
L 422.096392 50.999793 
L 429.557349 52.038796 
L 437.01523 53.38714 
L 444.473111 54.976857 
L 451.934069 57.144353 
L 459.379643 59.761075 
L 466.855984 62.969304 
L 474.301558 67.034437 
L 481.777899 72.807417 
L 489.223473 77.778154 
L 496.669048 83.233379 
L 504.145389 90.665003 
L 511.590963 94.564337 
L 519.067304 99.440536 
L 526.512878 107.684426 
L 533.989219 113.92031 
L 541.434793 118.8986 
L 548.880368 120.540738 
L 556.356709 126.44668 
L 563.802283 129.898666 
L 571.278624 133.66488 
L 578.724198 137.446745 
L 586.200539 140.820543 
L 593.646113 148.431159 
L 601.091687 150.747837 
L 608.568028 163.426057 
L 616.013603 161.903592 
L 623.489944 163.358685 
L 630.935518 161.515464 
L 638.411859 171.353457 
L 645.857433 183.290674 
L 653.303007 183.290674 
L 660.779348 207.450989 
L 668.224923 184.844735 
L 675.701264 170.305304 
L 683.146838 214.68779 
L 690.623179 182.428144 
L 698.068753 210.279392 
L 704.918225 281.519481 
M 707.031402 281.519481 
L 712.990668 257.165264 
L 720.436242 207.843406 
L 727.881817 228.991496 
L 735.265857 232.773361 
L 742.957566 198.369405 
L 742.964017 281.519481 
" clip-path="url(#pec62b11f04)" style="fill: none; stroke-dasharray: 1.5,2.475; stroke-dashoffset: 0; stroke: #000000; stroke-width: 1.5"/>
   </g>
   <g id="line2d_64">
    <path d="M 384.782616 281.519481 
L 384.800834 48.280535 
L 392.264868 48.489943 
L 399.722749 48.827215 
L 407.18063 49.38121 
L 414.638511 50.029784 
L 422.096392 50.821728 
L 429.557349 51.719807 
L 437.01523 53.38714 
L 444.473111 55.075192 
L 451.934069 57.875264 
L 459.379643 60.42793 
L 466.855984 62.90978 
L 474.301558 67.696847 
L 481.777899 74.582518 
L 489.223473 79.964503 
L 496.669048 85.428581 
L 504.145389 91.964391 
L 511.590963 95.994302 
L 519.067304 99.729034 
L 526.512878 107.860222 
L 533.989219 111.735638 
L 541.434793 115.373084 
L 548.880368 125.898333 
L 556.356709 128.425205 
L 563.802283 129.302974 
L 571.278624 149.189074 
L 578.724198 131.116394 
L 586.200539 150.303473 
L 593.646113 150.500381 
L 601.091687 151.197026 
L 608.568028 151.854581 
L 616.013603 186.34197 
L 623.489944 172.596791 
L 630.935518 180.550752 
L 638.411859 220.683765 
L 645.857433 192.802042 
L 653.303007 225.225281 
L 660.779348 222.609685 
L 668.224923 217.328674 
L 675.701264 183.728771 
L 683.146838 182.003527 
L 690.623179 207.646733 
L 698.068753 233.134933 
L 705.514327 189.509387 
L 712.990668 258.017547 
L 712.992508 281.519481 
M 735.263696 281.519481 
L 735.265857 253.682144 
L 742.957566 220.149567 
L 744.225806 224.116246 
" clip-path="url(#pec62b11f04)" style="fill: none; stroke-dasharray: 1.5,2.475; stroke-dashoffset: 0; stroke: #808080; stroke-width: 1.5"/>
   </g>
   <g id="patch_9">
    <path d="M 418.367451 238.559481 
L 418.367451 47.90625 
" style="fill: none; stroke: #000000; stroke-width: 0.8; stroke-linejoin: miter; stroke-linecap: square"/>
   </g>
   <g id="patch_10">
    <path d="M 726.035806 238.559481 
L 726.035806 47.90625 
" style="fill: none; stroke: #000000; stroke-width: 0.8; stroke-linejoin: miter; stroke-linecap: square"/>
   </g>
   <g id="patch_11">
    <path d="M 418.367451 238.559481 
L 726.035806 238.559481 
" style="fill: none; stroke: #000000; stroke-width: 0.8; stroke-linejoin: miter; stroke-linecap: square"/>
   </g>
   <g id="patch_12">
    <path d="M 418.367451 47.90625 
L 726.035806 47.90625 
" style="fill: none; stroke: #000000; stroke-width: 0.8; stroke-linejoin: miter; stroke-linecap: square"/>
   </g>
   <g id="text_36">
    <!-- Foldseek (logscale) -->
    <g transform="translate(514.641004 41.90625) scale(0.12 -0.12)">
     <defs>
      <path id="DejaVuSans-20" transform="scale(0.015625)"/>
      <path id="DejaVuSans-61" d="M 2194 1759 
Q 1497 1759 1228 1600 
Q 959 1441 959 1056 
Q 959 750 1161 570 
Q 1363 391 1709 391 
Q 2188 391 2477 730 
Q 2766 1069 2766 1631 
L 2766 1759 
L 2194 1759 
z
M 3341 1997 
L 3341 0 
L 2766 0 
L 2766 531 
Q 2569 213 2275 61 
Q 1981 -91 1556 -91 
Q 1019 -91 701 211 
Q 384 513 384 1019 
Q 384 1609 779 1909 
Q 1175 2209 1959 2209 
L 2766 2209 
L 2766 2266 
Q 2766 2663 2505 2880 
Q 2244 3097 1772 3097 
Q 1472 3097 1187 3025 
Q 903 2953 641 2809 
L 641 3341 
Q 956 3463 1253 3523 
Q 1550 3584 1831 3584 
Q 2591 3584 2966 3190 
Q 3341 2797 3341 1997 
z
" transform="scale(0.015625)"/>
     </defs>
     <use xlink:href="#DejaVuSans-46"/>
     <use xlink:href="#DejaVuSans-6f" x="53.894531"/>
     <use xlink:href="#DejaVuSans-6c" x="115.076172"/>
     <use xlink:href="#DejaVuSans-64" x="142.859375"/>
     <use xlink:href="#DejaVuSans-73" x="206.335938"/>
     <use xlink:href="#DejaVuSans-65" x="258.435547"/>
     <use xlink:href="#DejaVuSans-65" x="319.958984"/>
     <use xlink:href="#DejaVuSans-6b" x="381.482422"/>
     <use xlink:href="#DejaVuSans-20" x="439.392578"/>
     <use xlink:href="#DejaVuSans-28" x="471.179688"/>
     <use xlink:href="#DejaVuSans-6c" x="510.193359"/>
     <use xlink:href="#DejaVuSans-6f" x="537.976562"/>
     <use xlink:href="#DejaVuSans-67" x="599.158203"/>
     <use xlink:href="#DejaVuSans-73" x="662.634766"/>
     <use xlink:href="#DejaVuSans-63" x="714.734375"/>
     <use xlink:href="#DejaVuSans-61" x="769.714844"/>
     <use xlink:href="#DejaVuSans-6c" x="830.994141"/>
     <use xlink:href="#DejaVuSans-65" x="858.777344"/>
     <use xlink:href="#DejaVuSans-29" x="920.300781"/>
    </g>
   </g>
   <g id="legend_2">
    <g id="patch_13">
     <path d="M 425.367451 233.559481 
L 519.156514 233.559481 
Q 521.156514 233.559481 521.156514 231.559481 
L 521.156514 100.456356 
Q 521.156514 98.456356 519.156514 98.456356 
L 425.367451 98.456356 
Q 423.367451 98.456356 423.367451 100.456356 
L 423.367451 231.559481 
Q 423.367451 233.559481 425.367451 233.559481 
z
" style="fill: #ffffff; opacity: 0.8; stroke: #cccccc; stroke-linejoin: miter"/>
    </g>
    <g id="line2d_65">
     <path d="M 427.367451 106.554793 
L 437.367451 106.554793 
L 447.367451 106.554793 
" style="fill: none; stroke-dasharray: 5.55,2.4; stroke-dashoffset: 0; stroke: #ff00ff; stroke-width: 1.5"/>
    </g>
    <g id="text_37">
     <!-- SCOP40x8 -->
     <g transform="translate(455.367451 110.054793) scale(0.1 -0.1)">
      <use xlink:href="#DejaVuSans-53"/>
      <use xlink:href="#DejaVuSans-43" x="63.476562"/>
      <use xlink:href="#DejaVuSans-4f" x="133.300781"/>
      <use xlink:href="#DejaVuSans-50" x="212.011719"/>
      <use xlink:href="#DejaVuSans-34" x="272.314453"/>
      <use xlink:href="#DejaVuSans-30" x="335.9375"/>
      <use xlink:href="#DejaVuSans-78" x="399.560547"/>
      <use xlink:href="#DejaVuSans-38" x="458.740234"/>
     </g>
    </g>
    <g id="line2d_66">
     <path d="M 427.367451 121.232918 
L 437.367451 121.232918 
L 447.367451 121.232918 
" style="fill: none; stroke: #000000; stroke-width: 1.5; stroke-linecap: square"/>
    </g>
    <g id="text_38">
     <!-- SCOP40 -->
     <g transform="translate(455.367451 124.732918) scale(0.1 -0.1)">
      <use xlink:href="#DejaVuSans-53"/>
      <use xlink:href="#DejaVuSans-43" x="63.476562"/>
      <use xlink:href="#DejaVuSans-4f" x="133.300781"/>
      <use xlink:href="#DejaVuSans-50" x="212.011719"/>
      <use xlink:href="#DejaVuSans-34" x="272.314453"/>
      <use xlink:href="#DejaVuSans-30" x="335.9375"/>
     </g>
    </g>
    <g id="line2d_67">
     <path d="M 427.367451 135.911043 
L 437.367451 135.911043 
L 447.367451 135.911043 
" style="fill: none; stroke: #00ffff; stroke-width: 1.5; stroke-linecap: square"/>
    </g>
    <g id="text_39">
     <!-- SCOP40c -->
     <g transform="translate(455.367451 139.411043) scale(0.1 -0.1)">
      <use xlink:href="#DejaVuSans-53"/>
      <use xlink:href="#DejaVuSans-43" x="63.476562"/>
      <use xlink:href="#DejaVuSans-4f" x="133.300781"/>
      <use xlink:href="#DejaVuSans-50" x="212.011719"/>
      <use xlink:href="#DejaVuSans-34" x="272.314453"/>
      <use xlink:href="#DejaVuSans-30" x="335.9375"/>
      <use xlink:href="#DejaVuSans-63" x="399.560547"/>
     </g>
    </g>
    <g id="line2d_68">
     <path d="M 427.367451 150.589168 
L 437.367451 150.589168 
L 447.367451 150.589168 
" style="fill: none; stroke-dasharray: 5.55,2.4; stroke-dashoffset: 0; stroke: #000000; stroke-width: 1.5"/>
    </g>
    <g id="text_40">
     <!-- SCOP40/SF2 -->
     <g transform="translate(455.367451 154.089168) scale(0.1 -0.1)">
      <use xlink:href="#DejaVuSans-53"/>
      <use xlink:href="#DejaVuSans-43" x="63.476562"/>
      <use xlink:href="#DejaVuSans-4f" x="133.300781"/>
      <use xlink:href="#DejaVuSans-50" x="212.011719"/>
      <use xlink:href="#DejaVuSans-34" x="272.314453"/>
      <use xlink:href="#DejaVuSans-30" x="335.9375"/>
      <use xlink:href="#DejaVuSans-2f" x="399.560547"/>
      <use xlink:href="#DejaVuSans-53" x="433.251953"/>
      <use xlink:href="#DejaVuSans-46" x="496.728516"/>
      <use xlink:href="#DejaVuSans-32" x="554.248047"/>
     </g>
    </g>
    <g id="line2d_69">
     <path d="M 427.367451 165.267293 
L 437.367451 165.267293 
L 447.367451 165.267293 
" style="fill: none; stroke-dasharray: 1.5,2.475; stroke-dashoffset: 0; stroke: #000000; stroke-width: 1.5"/>
    </g>
    <g id="text_41">
     <!-- SCOP40/SF4 -->
     <g transform="translate(455.367451 168.767293) scale(0.1 -0.1)">
      <use xlink:href="#DejaVuSans-53"/>
      <use xlink:href="#DejaVuSans-43" x="63.476562"/>
      <use xlink:href="#DejaVuSans-4f" x="133.300781"/>
      <use xlink:href="#DejaVuSans-50" x="212.011719"/>
      <use xlink:href="#DejaVuSans-34" x="272.314453"/>
      <use xlink:href="#DejaVuSans-30" x="335.9375"/>
      <use xlink:href="#DejaVuSans-2f" x="399.560547"/>
      <use xlink:href="#DejaVuSans-53" x="433.251953"/>
      <use xlink:href="#DejaVuSans-46" x="496.728516"/>
      <use xlink:href="#DejaVuSans-34" x="554.248047"/>
     </g>
    </g>
    <g id="line2d_70">
     <path d="M 427.367451 179.945418 
L 437.367451 179.945418 
L 447.367451 179.945418 
" style="fill: none; stroke-dasharray: 1.5,2.475; stroke-dashoffset: 0; stroke: #808080; stroke-width: 1.5"/>
    </g>
    <g id="text_42">
     <!-- SCOP40/SF8 -->
     <g transform="translate(455.367451 183.445418) scale(0.1 -0.1)">
      <use xlink:href="#DejaVuSans-53"/>
      <use xlink:href="#DejaVuSans-43" x="63.476562"/>
      <use xlink:href="#DejaVuSans-4f" x="133.300781"/>
      <use xlink:href="#DejaVuSans-50" x="212.011719"/>
      <use xlink:href="#DejaVuSans-34" x="272.314453"/>
      <use xlink:href="#DejaVuSans-30" x="335.9375"/>
      <use xlink:href="#DejaVuSans-2f" x="399.560547"/>
      <use xlink:href="#DejaVuSans-53" x="433.251953"/>
      <use xlink:href="#DejaVuSans-46" x="496.728516"/>
      <use xlink:href="#DejaVuSans-38" x="554.248047"/>
     </g>
    </g>
    <g id="line2d_71">
     <path d="M 427.367451 194.623543 
L 437.367451 194.623543 
L 447.367451 194.623543 
" style="fill: none; stroke-dasharray: 5.55,2.4; stroke-dashoffset: 0; stroke: #000000; stroke-width: 1.5"/>
    </g>
    <g id="text_43">
     <!-- SCOP40/SF2 -->
     <g transform="translate(455.367451 198.123543) scale(0.1 -0.1)">
      <use xlink:href="#DejaVuSans-53"/>
      <use xlink:href="#DejaVuSans-43" x="63.476562"/>
      <use xlink:href="#DejaVuSans-4f" x="133.300781"/>
      <use xlink:href="#DejaVuSans-50" x="212.011719"/>
      <use xlink:href="#DejaVuSans-34" x="272.314453"/>
      <use xlink:href="#DejaVuSans-30" x="335.9375"/>
      <use xlink:href="#DejaVuSans-2f" x="399.560547"/>
      <use xlink:href="#DejaVuSans-53" x="433.251953"/>
      <use xlink:href="#DejaVuSans-46" x="496.728516"/>
      <use xlink:href="#DejaVuSans-32" x="554.248047"/>
     </g>
    </g>
    <g id="line2d_72">
     <path d="M 427.367451 209.301668 
L 437.367451 209.301668 
L 447.367451 209.301668 
" style="fill: none; stroke-dasharray: 1.5,2.475; stroke-dashoffset: 0; stroke: #000000; stroke-width: 1.5"/>
    </g>
    <g id="text_44">
     <!-- SCOP40/SF4 -->
     <g transform="translate(455.367451 212.801668) scale(0.1 -0.1)">
      <use xlink:href="#DejaVuSans-53"/>
      <use xlink:href="#DejaVuSans-43" x="63.476562"/>
      <use xlink:href="#DejaVuSans-4f" x="133.300781"/>
      <use xlink:href="#DejaVuSans-50" x="212.011719"/>
      <use xlink:href="#DejaVuSans-34" x="272.314453"/>
      <use xlink:href="#DejaVuSans-30" x="335.9375"/>
      <use xlink:href="#DejaVuSans-2f" x="399.560547"/>
      <use xlink:href="#DejaVuSans-53" x="433.251953"/>
      <use xlink:href="#DejaVuSans-46" x="496.728516"/>
      <use xlink:href="#DejaVuSans-34" x="554.248047"/>
     </g>
    </g>
    <g id="line2d_73">
     <path d="M 427.367451 223.979793 
L 437.367451 223.979793 
L 447.367451 223.979793 
" style="fill: none; stroke-dasharray: 1.5,2.475; stroke-dashoffset: 0; stroke: #808080; stroke-width: 1.5"/>
    </g>
    <g id="text_45">
     <!-- SCOP40/SF8 -->
     <g transform="translate(455.367451 227.479793) scale(0.1 -0.1)">
      <use xlink:href="#DejaVuSans-53"/>
      <use xlink:href="#DejaVuSans-43" x="63.476562"/>
      <use xlink:href="#DejaVuSans-4f" x="133.300781"/>
      <use xlink:href="#DejaVuSans-50" x="212.011719"/>
      <use xlink:href="#DejaVuSans-34" x="272.314453"/>
      <use xlink:href="#DejaVuSans-30" x="335.9375"/>
      <use xlink:href="#DejaVuSans-2f" x="399.560547"/>
      <use xlink:href="#DejaVuSans-53" x="433.251953"/>
      <use xlink:href="#DejaVuSans-46" x="496.728516"/>
      <use xlink:href="#DejaVuSans-38" x="554.248047"/>
     </g>
    </g>
   </g>
  </g>
  <g id="text_46">
   <!-- ../plots/P_F_score.foldseek.svg -->
   <g transform="translate(280.400716 14.728515) scale(0.12 -0.12)">
    <defs>
     <path id="DejaVuSans-70" d="M 1159 525 
L 1159 -1331 
L 581 -1331 
L 581 3500 
L 1159 3500 
L 1159 2969 
Q 1341 3281 1617 3432 
Q 1894 3584 2278 3584 
Q 2916 3584 3314 3078 
Q 3713 2572 3713 1747 
Q 3713 922 3314 415 
Q 2916 -91 2278 -91 
Q 1894 -91 1617 61 
Q 1341 213 1159 525 
z
M 3116 1747 
Q 3116 2381 2855 2742 
Q 2594 3103 2138 3103 
Q 1681 3103 1420 2742 
Q 1159 2381 1159 1747 
Q 1159 1113 1420 752 
Q 1681 391 2138 391 
Q 2594 391 2855 752 
Q 3116 1113 3116 1747 
z
" transform="scale(0.015625)"/>
     <path id="DejaVuSans-74" d="M 1172 4494 
L 1172 3500 
L 2356 3500 
L 2356 3053 
L 1172 3053 
L 1172 1153 
Q 1172 725 1289 603 
Q 1406 481 1766 481 
L 2356 481 
L 2356 0 
L 1766 0 
Q 1100 0 847 248 
Q 594 497 594 1153 
L 594 3053 
L 172 3053 
L 172 3500 
L 594 3500 
L 594 4494 
L 1172 4494 
z
" transform="scale(0.015625)"/>
     <path id="DejaVuSans-5f" d="M 3263 -1063 
L 3263 -1509 
L -63 -1509 
L -63 -1063 
L 3263 -1063 
z
" transform="scale(0.015625)"/>
     <path id="DejaVuSans-66" d="M 2375 4863 
L 2375 4384 
L 1825 4384 
Q 1516 4384 1395 4259 
Q 1275 4134 1275 3809 
L 1275 3500 
L 2222 3500 
L 2222 3053 
L 1275 3053 
L 1275 0 
L 697 0 
L 697 3053 
L 147 3053 
L 147 3500 
L 697 3500 
L 697 3744 
Q 697 4328 969 4595 
Q 1241 4863 1831 4863 
L 2375 4863 
z
" transform="scale(0.015625)"/>
     <path id="DejaVuSans-76" d="M 191 3500 
L 800 3500 
L 1894 563 
L 2988 3500 
L 3597 3500 
L 2284 0 
L 1503 0 
L 191 3500 
z
" transform="scale(0.015625)"/>
    </defs>
    <use xlink:href="#DejaVuSans-2e"/>
    <use xlink:href="#DejaVuSans-2e" x="31.787109"/>
    <use xlink:href="#DejaVuSans-2f" x="63.574219"/>
    <use xlink:href="#DejaVuSans-70" x="97.265625"/>
    <use xlink:href="#DejaVuSans-6c" x="160.742188"/>
    <use xlink:href="#DejaVuSans-6f" x="188.525391"/>
    <use xlink:href="#DejaVuSans-74" x="249.707031"/>
    <use xlink:href="#DejaVuSans-73" x="288.916016"/>
    <use xlink:href="#DejaVuSans-2f" x="341.015625"/>
    <use xlink:href="#DejaVuSans-50" x="374.707031"/>
    <use xlink:href="#DejaVuSans-5f" x="435.009766"/>
    <use xlink:href="#DejaVuSans-46" x="485.009766"/>
    <use xlink:href="#DejaVuSans-5f" x="542.529297"/>
    <use xlink:href="#DejaVuSans-73" x="592.529297"/>
    <use xlink:href="#DejaVuSans-63" x="644.628906"/>
    <use xlink:href="#DejaVuSans-6f" x="699.609375"/>
    <use xlink:href="#DejaVuSans-72" x="760.791016"/>
    <use xlink:href="#DejaVuSans-65" x="799.654297"/>
    <use xlink:href="#DejaVuSans-2e" x="861.177734"/>
    <use xlink:href="#DejaVuSans-66" x="892.964844"/>
    <use xlink:href="#DejaVuSans-6f" x="928.169922"/>
    <use xlink:href="#DejaVuSans-6c" x="989.351562"/>
    <use xlink:href="#DejaVuSans-64" x="1017.134766"/>
    <use xlink:href="#DejaVuSans-73" x="1080.611328"/>
    <use xlink:href="#DejaVuSans-65" x="1132.710938"/>
    <use xlink:href="#DejaVuSans-65" x="1194.234375"/>
    <use xlink:href="#DejaVuSans-6b" x="1255.757812"/>
    <use xlink:href="#DejaVuSans-2e" x="1313.667969"/>
    <use xlink:href="#DejaVuSans-73" x="1345.455078"/>
    <use xlink:href="#DejaVuSans-76" x="1397.554688"/>
    <use xlink:href="#DejaVuSans-67" x="1456.734375"/>
   </g>
  </g>
 </g>
 <defs>
  <clipPath id="pe6fe1472d8">
   <rect x="48.17" y="47.90625" width="307.668355" height="190.653231"/>
  </clipPath>
  <clipPath id="pec62b11f04">
   <rect x="418.367451" y="47.90625" width="307.668355" height="190.653231"/>
  </clipPath>
 </defs>
</svg>
