<?xml version="1.0" encoding="utf-8" standalone="no"?>
<!DOCTYPE svg PUBLIC "-//W3C//DTD SVG 1.1//EN"
  "http://www.w3.org/Graphics/SVG/1.1/DTD/svg11.dtd">
<svg xmlns:xlink="http://www.w3.org/1999/xlink" width="743.225806pt" height="280.519481pt" viewBox="0 0 743.225806 280.519481" xmlns="http://www.w3.org/2000/svg" version="1.1">
 <metadata>
  <rdf:RDF xmlns:dc="http://purl.org/dc/elements/1.1/" xmlns:cc="http://creativecommons.org/ns#" xmlns:rdf="http://www.w3.org/1999/02/22-rdf-syntax-ns#">
   <cc:Work>
    <dc:type rdf:resource="http://purl.org/dc/dcmitype/StillImage"/>
    <dc:date>2025-05-30T08:16:30.385042</dc:date>
    <dc:format>image/svg+xml</dc:format>
    <dc:creator>
     <cc:Agent>
      <dc:title>Matplotlib v3.10.3, https://matplotlib.org/</dc:title>
     </cc:Agent>
    </dc:creator>
   </cc:Work>
  </rdf:RDF>
 </metadata>
 <defs>
  <style type="text/css">*{stroke-linejoin: round; stroke-linecap: butt}</style>
 </defs>
 <g id="figure_1">
  <g id="patch_1">
   <path d="M 0 280.519481 
L 743.225806 280.519481 
L 743.225806 0 
L 0 0 
z
" style="fill: #ffffff"/>
  </g>
  <g id="axes_1">
   <g id="patch_2">
    <path d="M 48.17 238.559481 
L 358.98273 238.559481 
L 358.98273 47.90625 
L 48.17 47.90625 
z
" style="fill: #ffffff"/>
   </g>
   <g id="matplotlib.axis_1">
    <g id="xtick_1">
     <g id="line2d_1">
      <defs>
       <path id="mc94db8d088" d="M 0 0 
L 0 3.5 
" style="stroke: #000000; stroke-width: 0.8"/>
      </defs>
      <g>
       <use xlink:href="#mc94db8d088" x="48.17" y="238.559481" style="stroke: #000000; stroke-width: 0.8"/>
      </g>
     </g>
     <g id="text_1">
      <!-- −1 -->
      <g transform="translate(40.798906 253.157918) scale(0.1 -0.1)">
       <defs>
        <path id="DejaVuSans-2212" d="M 678 2272 
L 4684 2272 
L 4684 1741 
L 678 1741 
L 678 2272 
z
" transform="scale(0.015625)"/>
        <path id="DejaVuSans-31" d="M 794 531 
L 1825 531 
L 1825 4091 
L 703 3866 
L 703 4441 
L 1819 4666 
L 2450 4666 
L 2450 531 
L 3481 531 
L 3481 0 
L 794 0 
L 794 531 
z
" transform="scale(0.015625)"/>
       </defs>
       <use xlink:href="#DejaVuSans-2212"/>
       <use xlink:href="#DejaVuSans-31" transform="translate(83.789062 0)"/>
      </g>
     </g>
    </g>
    <g id="xtick_2">
     <g id="line2d_2">
      <g>
       <use xlink:href="#mc94db8d088" x="110.332546" y="238.559481" style="stroke: #000000; stroke-width: 0.8"/>
      </g>
     </g>
     <g id="text_2">
      <!-- 0 -->
      <g transform="translate(107.151296 253.157918) scale(0.1 -0.1)">
       <defs>
        <path id="DejaVuSans-30" d="M 2034 4250 
Q 1547 4250 1301 3770 
Q 1056 3291 1056 2328 
Q 1056 1369 1301 889 
Q 1547 409 2034 409 
Q 2525 409 2770 889 
Q 3016 1369 3016 2328 
Q 3016 3291 2770 3770 
Q 2525 4250 2034 4250 
z
M 2034 4750 
Q 2819 4750 3233 4129 
Q 3647 3509 3647 2328 
Q 3647 1150 3233 529 
Q 2819 -91 2034 -91 
Q 1250 -91 836 529 
Q 422 1150 422 2328 
Q 422 3509 836 4129 
Q 1250 4750 2034 4750 
z
" transform="scale(0.015625)"/>
       </defs>
       <use xlink:href="#DejaVuSans-30"/>
      </g>
     </g>
    </g>
    <g id="xtick_3">
     <g id="line2d_3">
      <g>
       <use xlink:href="#mc94db8d088" x="172.495092" y="238.559481" style="stroke: #000000; stroke-width: 0.8"/>
      </g>
     </g>
     <g id="text_3">
      <!-- 1 -->
      <g transform="translate(169.313842 253.157918) scale(0.1 -0.1)">
       <use xlink:href="#DejaVuSans-31"/>
      </g>
     </g>
    </g>
    <g id="xtick_4">
     <g id="line2d_4">
      <g>
       <use xlink:href="#mc94db8d088" x="234.657638" y="238.559481" style="stroke: #000000; stroke-width: 0.8"/>
      </g>
     </g>
     <g id="text_4">
      <!-- 2 -->
      <g transform="translate(231.476388 253.157918) scale(0.1 -0.1)">
       <defs>
        <path id="DejaVuSans-32" d="M 1228 531 
L 3431 531 
L 3431 0 
L 469 0 
L 469 531 
Q 828 903 1448 1529 
Q 2069 2156 2228 2338 
Q 2531 2678 2651 2914 
Q 2772 3150 2772 3378 
Q 2772 3750 2511 3984 
Q 2250 4219 1831 4219 
Q 1534 4219 1204 4116 
Q 875 4013 500 3803 
L 500 4441 
Q 881 4594 1212 4672 
Q 1544 4750 1819 4750 
Q 2544 4750 2975 4387 
Q 3406 4025 3406 3419 
Q 3406 3131 3298 2873 
Q 3191 2616 2906 2266 
Q 2828 2175 2409 1742 
Q 1991 1309 1228 531 
z
" transform="scale(0.015625)"/>
       </defs>
       <use xlink:href="#DejaVuSans-32"/>
      </g>
     </g>
    </g>
    <g id="xtick_5">
     <g id="line2d_5">
      <g>
       <use xlink:href="#mc94db8d088" x="296.820184" y="238.559481" style="stroke: #000000; stroke-width: 0.8"/>
      </g>
     </g>
     <g id="text_5">
      <!-- 3 -->
      <g transform="translate(293.638934 253.157918) scale(0.1 -0.1)">
       <defs>
        <path id="DejaVuSans-33" d="M 2597 2516 
Q 3050 2419 3304 2112 
Q 3559 1806 3559 1356 
Q 3559 666 3084 287 
Q 2609 -91 1734 -91 
Q 1441 -91 1130 -33 
Q 819 25 488 141 
L 488 750 
Q 750 597 1062 519 
Q 1375 441 1716 441 
Q 2309 441 2620 675 
Q 2931 909 2931 1356 
Q 2931 1769 2642 2001 
Q 2353 2234 1838 2234 
L 1294 2234 
L 1294 2753 
L 1863 2753 
Q 2328 2753 2575 2939 
Q 2822 3125 2822 3475 
Q 2822 3834 2567 4026 
Q 2313 4219 1838 4219 
Q 1578 4219 1281 4162 
Q 984 4106 628 3988 
L 628 4550 
Q 988 4650 1302 4700 
Q 1616 4750 1894 4750 
Q 2613 4750 3031 4423 
Q 3450 4097 3450 3541 
Q 3450 3153 3228 2886 
Q 3006 2619 2597 2516 
z
" transform="scale(0.015625)"/>
       </defs>
       <use xlink:href="#DejaVuSans-33"/>
      </g>
     </g>
    </g>
    <g id="xtick_6">
     <g id="line2d_6">
      <g>
       <use xlink:href="#mc94db8d088" x="358.98273" y="238.559481" style="stroke: #000000; stroke-width: 0.8"/>
      </g>
     </g>
     <g id="text_6">
      <!-- 4 -->
      <g transform="translate(355.80148 253.157918) scale(0.1 -0.1)">
       <defs>
        <path id="DejaVuSans-34" d="M 2419 4116 
L 825 1625 
L 2419 1625 
L 2419 4116 
z
M 2253 4666 
L 3047 4666 
L 3047 1625 
L 3713 1625 
L 3713 1100 
L 3047 1100 
L 3047 0 
L 2419 0 
L 2419 1100 
L 313 1100 
L 313 1709 
L 2253 4666 
z
" transform="scale(0.015625)"/>
       </defs>
       <use xlink:href="#DejaVuSans-34"/>
      </g>
     </g>
    </g>
    <g id="text_7">
     <!-- -log10(E) -->
     <g transform="translate(180.726365 266.836043) scale(0.1 -0.1)">
      <defs>
       <path id="DejaVuSans-2d" d="M 313 2009 
L 1997 2009 
L 1997 1497 
L 313 1497 
L 313 2009 
z
" transform="scale(0.015625)"/>
       <path id="DejaVuSans-6c" d="M 603 4863 
L 1178 4863 
L 1178 0 
L 603 0 
L 603 4863 
z
" transform="scale(0.015625)"/>
       <path id="DejaVuSans-6f" d="M 1959 3097 
Q 1497 3097 1228 2736 
Q 959 2375 959 1747 
Q 959 1119 1226 758 
Q 1494 397 1959 397 
Q 2419 397 2687 759 
Q 2956 1122 2956 1747 
Q 2956 2369 2687 2733 
Q 2419 3097 1959 3097 
z
M 1959 3584 
Q 2709 3584 3137 3096 
Q 3566 2609 3566 1747 
Q 3566 888 3137 398 
Q 2709 -91 1959 -91 
Q 1206 -91 779 398 
Q 353 888 353 1747 
Q 353 2609 779 3096 
Q 1206 3584 1959 3584 
z
" transform="scale(0.015625)"/>
       <path id="DejaVuSans-67" d="M 2906 1791 
Q 2906 2416 2648 2759 
Q 2391 3103 1925 3103 
Q 1463 3103 1205 2759 
Q 947 2416 947 1791 
Q 947 1169 1205 825 
Q 1463 481 1925 481 
Q 2391 481 2648 825 
Q 2906 1169 2906 1791 
z
M 3481 434 
Q 3481 -459 3084 -895 
Q 2688 -1331 1869 -1331 
Q 1566 -1331 1297 -1286 
Q 1028 -1241 775 -1147 
L 775 -588 
Q 1028 -725 1275 -790 
Q 1522 -856 1778 -856 
Q 2344 -856 2625 -561 
Q 2906 -266 2906 331 
L 2906 616 
Q 2728 306 2450 153 
Q 2172 0 1784 0 
Q 1141 0 747 490 
Q 353 981 353 1791 
Q 353 2603 747 3093 
Q 1141 3584 1784 3584 
Q 2172 3584 2450 3431 
Q 2728 3278 2906 2969 
L 2906 3500 
L 3481 3500 
L 3481 434 
z
" transform="scale(0.015625)"/>
       <path id="DejaVuSans-28" d="M 1984 4856 
Q 1566 4138 1362 3434 
Q 1159 2731 1159 2009 
Q 1159 1288 1364 580 
Q 1569 -128 1984 -844 
L 1484 -844 
Q 1016 -109 783 600 
Q 550 1309 550 2009 
Q 550 2706 781 3412 
Q 1013 4119 1484 4856 
L 1984 4856 
z
" transform="scale(0.015625)"/>
       <path id="DejaVuSans-45" d="M 628 4666 
L 3578 4666 
L 3578 4134 
L 1259 4134 
L 1259 2753 
L 3481 2753 
L 3481 2222 
L 1259 2222 
L 1259 531 
L 3634 531 
L 3634 0 
L 628 0 
L 628 4666 
z
" transform="scale(0.015625)"/>
       <path id="DejaVuSans-29" d="M 513 4856 
L 1013 4856 
Q 1481 4119 1714 3412 
Q 1947 2706 1947 2009 
Q 1947 1309 1714 600 
Q 1481 -109 1013 -844 
L 513 -844 
Q 928 -128 1133 580 
Q 1338 1288 1338 2009 
Q 1338 2731 1133 3434 
Q 928 4138 513 4856 
z
" transform="scale(0.015625)"/>
      </defs>
      <use xlink:href="#DejaVuSans-2d"/>
      <use xlink:href="#DejaVuSans-6c" transform="translate(36.083984 0)"/>
      <use xlink:href="#DejaVuSans-6f" transform="translate(63.867188 0)"/>
      <use xlink:href="#DejaVuSans-67" transform="translate(125.048828 0)"/>
      <use xlink:href="#DejaVuSans-31" transform="translate(188.525391 0)"/>
      <use xlink:href="#DejaVuSans-30" transform="translate(252.148438 0)"/>
      <use xlink:href="#DejaVuSans-28" transform="translate(315.771484 0)"/>
      <use xlink:href="#DejaVuSans-45" transform="translate(354.785156 0)"/>
      <use xlink:href="#DejaVuSans-29" transform="translate(417.96875 0)"/>
     </g>
    </g>
   </g>
   <g id="matplotlib.axis_2">
    <g id="ytick_1">
     <g id="line2d_7">
      <defs>
       <path id="m61d9b6ad89" d="M 0 0 
L -3.5 0 
" style="stroke: #000000; stroke-width: 0.8"/>
      </defs>
      <g>
       <use xlink:href="#m61d9b6ad89" x="48.17" y="229.893425" style="stroke: #000000; stroke-width: 0.8"/>
      </g>
     </g>
     <g id="text_8">
      <!-- 0.0 -->
      <g transform="translate(25.266875 233.692643) scale(0.1 -0.1)">
       <defs>
        <path id="DejaVuSans-2e" d="M 684 794 
L 1344 794 
L 1344 0 
L 684 0 
L 684 794 
z
" transform="scale(0.015625)"/>
       </defs>
       <use xlink:href="#DejaVuSans-30"/>
       <use xlink:href="#DejaVuSans-2e" transform="translate(63.623047 0)"/>
       <use xlink:href="#DejaVuSans-30" transform="translate(95.410156 0)"/>
      </g>
     </g>
    </g>
    <g id="ytick_2">
     <g id="line2d_8">
      <g>
       <use xlink:href="#m61d9b6ad89" x="48.17" y="188.55267" style="stroke: #000000; stroke-width: 0.8"/>
      </g>
     </g>
     <g id="text_9">
      <!-- 0.2 -->
      <g transform="translate(25.266875 192.351889) scale(0.1 -0.1)">
       <use xlink:href="#DejaVuSans-30"/>
       <use xlink:href="#DejaVuSans-2e" transform="translate(63.623047 0)"/>
       <use xlink:href="#DejaVuSans-32" transform="translate(95.410156 0)"/>
      </g>
     </g>
    </g>
    <g id="ytick_3">
     <g id="line2d_9">
      <g>
       <use xlink:href="#m61d9b6ad89" x="48.17" y="147.211915" style="stroke: #000000; stroke-width: 0.8"/>
      </g>
     </g>
     <g id="text_10">
      <!-- 0.4 -->
      <g transform="translate(25.266875 151.011134) scale(0.1 -0.1)">
       <use xlink:href="#DejaVuSans-30"/>
       <use xlink:href="#DejaVuSans-2e" transform="translate(63.623047 0)"/>
       <use xlink:href="#DejaVuSans-34" transform="translate(95.410156 0)"/>
      </g>
     </g>
    </g>
    <g id="ytick_4">
     <g id="line2d_10">
      <g>
       <use xlink:href="#m61d9b6ad89" x="48.17" y="105.871161" style="stroke: #000000; stroke-width: 0.8"/>
      </g>
     </g>
     <g id="text_11">
      <!-- 0.6 -->
      <g transform="translate(25.266875 109.670379) scale(0.1 -0.1)">
       <defs>
        <path id="DejaVuSans-36" d="M 2113 2584 
Q 1688 2584 1439 2293 
Q 1191 2003 1191 1497 
Q 1191 994 1439 701 
Q 1688 409 2113 409 
Q 2538 409 2786 701 
Q 3034 994 3034 1497 
Q 3034 2003 2786 2293 
Q 2538 2584 2113 2584 
z
M 3366 4563 
L 3366 3988 
Q 3128 4100 2886 4159 
Q 2644 4219 2406 4219 
Q 1781 4219 1451 3797 
Q 1122 3375 1075 2522 
Q 1259 2794 1537 2939 
Q 1816 3084 2150 3084 
Q 2853 3084 3261 2657 
Q 3669 2231 3669 1497 
Q 3669 778 3244 343 
Q 2819 -91 2113 -91 
Q 1303 -91 875 529 
Q 447 1150 447 2328 
Q 447 3434 972 4092 
Q 1497 4750 2381 4750 
Q 2619 4750 2861 4703 
Q 3103 4656 3366 4563 
z
" transform="scale(0.015625)"/>
       </defs>
       <use xlink:href="#DejaVuSans-30"/>
       <use xlink:href="#DejaVuSans-2e" transform="translate(63.623047 0)"/>
       <use xlink:href="#DejaVuSans-36" transform="translate(95.410156 0)"/>
      </g>
     </g>
    </g>
    <g id="ytick_5">
     <g id="line2d_11">
      <g>
       <use xlink:href="#m61d9b6ad89" x="48.17" y="64.530406" style="stroke: #000000; stroke-width: 0.8"/>
      </g>
     </g>
     <g id="text_12">
      <!-- 0.8 -->
      <g transform="translate(25.266875 68.329625) scale(0.1 -0.1)">
       <defs>
        <path id="DejaVuSans-38" d="M 2034 2216 
Q 1584 2216 1326 1975 
Q 1069 1734 1069 1313 
Q 1069 891 1326 650 
Q 1584 409 2034 409 
Q 2484 409 2743 651 
Q 3003 894 3003 1313 
Q 3003 1734 2745 1975 
Q 2488 2216 2034 2216 
z
M 1403 2484 
Q 997 2584 770 2862 
Q 544 3141 544 3541 
Q 544 4100 942 4425 
Q 1341 4750 2034 4750 
Q 2731 4750 3128 4425 
Q 3525 4100 3525 3541 
Q 3525 3141 3298 2862 
Q 3072 2584 2669 2484 
Q 3125 2378 3379 2068 
Q 3634 1759 3634 1313 
Q 3634 634 3220 271 
Q 2806 -91 2034 -91 
Q 1263 -91 848 271 
Q 434 634 434 1313 
Q 434 1759 690 2068 
Q 947 2378 1403 2484 
z
M 1172 3481 
Q 1172 3119 1398 2916 
Q 1625 2713 2034 2713 
Q 2441 2713 2670 2916 
Q 2900 3119 2900 3481 
Q 2900 3844 2670 4047 
Q 2441 4250 2034 4250 
Q 1625 4250 1398 4047 
Q 1172 3844 1172 3481 
z
" transform="scale(0.015625)"/>
       </defs>
       <use xlink:href="#DejaVuSans-30"/>
       <use xlink:href="#DejaVuSans-2e" transform="translate(63.623047 0)"/>
       <use xlink:href="#DejaVuSans-38" transform="translate(95.410156 0)"/>
      </g>
     </g>
    </g>
    <g id="text_13">
     <!-- P(F|score) -->
     <g transform="translate(18.909062 168.14224) rotate(-90) scale(0.1 -0.1)">
      <defs>
       <path id="DejaVuSans-50" d="M 1259 4147 
L 1259 2394 
L 2053 2394 
Q 2494 2394 2734 2622 
Q 2975 2850 2975 3272 
Q 2975 3691 2734 3919 
Q 2494 4147 2053 4147 
L 1259 4147 
z
M 628 4666 
L 2053 4666 
Q 2838 4666 3239 4311 
Q 3641 3956 3641 3272 
Q 3641 2581 3239 2228 
Q 2838 1875 2053 1875 
L 1259 1875 
L 1259 0 
L 628 0 
L 628 4666 
z
" transform="scale(0.015625)"/>
       <path id="DejaVuSans-46" d="M 628 4666 
L 3309 4666 
L 3309 4134 
L 1259 4134 
L 1259 2759 
L 3109 2759 
L 3109 2228 
L 1259 2228 
L 1259 0 
L 628 0 
L 628 4666 
z
" transform="scale(0.015625)"/>
       <path id="DejaVuSans-7c" d="M 1344 4891 
L 1344 -1509 
L 813 -1509 
L 813 4891 
L 1344 4891 
z
" transform="scale(0.015625)"/>
       <path id="DejaVuSans-73" d="M 2834 3397 
L 2834 2853 
Q 2591 2978 2328 3040 
Q 2066 3103 1784 3103 
Q 1356 3103 1142 2972 
Q 928 2841 928 2578 
Q 928 2378 1081 2264 
Q 1234 2150 1697 2047 
L 1894 2003 
Q 2506 1872 2764 1633 
Q 3022 1394 3022 966 
Q 3022 478 2636 193 
Q 2250 -91 1575 -91 
Q 1294 -91 989 -36 
Q 684 19 347 128 
L 347 722 
Q 666 556 975 473 
Q 1284 391 1588 391 
Q 1994 391 2212 530 
Q 2431 669 2431 922 
Q 2431 1156 2273 1281 
Q 2116 1406 1581 1522 
L 1381 1569 
Q 847 1681 609 1914 
Q 372 2147 372 2553 
Q 372 3047 722 3315 
Q 1072 3584 1716 3584 
Q 2034 3584 2315 3537 
Q 2597 3491 2834 3397 
z
" transform="scale(0.015625)"/>
       <path id="DejaVuSans-63" d="M 3122 3366 
L 3122 2828 
Q 2878 2963 2633 3030 
Q 2388 3097 2138 3097 
Q 1578 3097 1268 2742 
Q 959 2388 959 1747 
Q 959 1106 1268 751 
Q 1578 397 2138 397 
Q 2388 397 2633 464 
Q 2878 531 3122 666 
L 3122 134 
Q 2881 22 2623 -34 
Q 2366 -91 2075 -91 
Q 1284 -91 818 406 
Q 353 903 353 1747 
Q 353 2603 823 3093 
Q 1294 3584 2113 3584 
Q 2378 3584 2631 3529 
Q 2884 3475 3122 3366 
z
" transform="scale(0.015625)"/>
       <path id="DejaVuSans-72" d="M 2631 2963 
Q 2534 3019 2420 3045 
Q 2306 3072 2169 3072 
Q 1681 3072 1420 2755 
Q 1159 2438 1159 1844 
L 1159 0 
L 581 0 
L 581 3500 
L 1159 3500 
L 1159 2956 
Q 1341 3275 1631 3429 
Q 1922 3584 2338 3584 
Q 2397 3584 2469 3576 
Q 2541 3569 2628 3553 
L 2631 2963 
z
" transform="scale(0.015625)"/>
       <path id="DejaVuSans-65" d="M 3597 1894 
L 3597 1613 
L 953 1613 
Q 991 1019 1311 708 
Q 1631 397 2203 397 
Q 2534 397 2845 478 
Q 3156 559 3463 722 
L 3463 178 
Q 3153 47 2828 -22 
Q 2503 -91 2169 -91 
Q 1331 -91 842 396 
Q 353 884 353 1716 
Q 353 2575 817 3079 
Q 1281 3584 2069 3584 
Q 2775 3584 3186 3129 
Q 3597 2675 3597 1894 
z
M 3022 2063 
Q 3016 2534 2758 2815 
Q 2500 3097 2075 3097 
Q 1594 3097 1305 2825 
Q 1016 2553 972 2059 
L 3022 2063 
z
" transform="scale(0.015625)"/>
      </defs>
      <use xlink:href="#DejaVuSans-50"/>
      <use xlink:href="#DejaVuSans-28" transform="translate(60.302734 0)"/>
      <use xlink:href="#DejaVuSans-46" transform="translate(99.316406 0)"/>
      <use xlink:href="#DejaVuSans-7c" transform="translate(156.835938 0)"/>
      <use xlink:href="#DejaVuSans-73" transform="translate(190.527344 0)"/>
      <use xlink:href="#DejaVuSans-63" transform="translate(242.626953 0)"/>
      <use xlink:href="#DejaVuSans-6f" transform="translate(297.607422 0)"/>
      <use xlink:href="#DejaVuSans-72" transform="translate(358.789062 0)"/>
      <use xlink:href="#DejaVuSans-65" transform="translate(397.652344 0)"/>
      <use xlink:href="#DejaVuSans-29" transform="translate(459.175781 0)"/>
     </g>
    </g>
   </g>
   <g id="line2d_12">
    <path d="M -1 229.893425 
L 12.364373 229.893425 
L 27.469872 229.893425 
L 42.513208 56.634327 
L 57.587626 75.651064 
L 72.655827 109.488481 
L 87.730244 144.028677 
L 102.798445 173.814693 
L 117.866647 193.94764 
L 132.934848 208.871651 
L 148.009265 216.931031 
L 163.077466 222.400413 
L 178.151884 224.723763 
L 193.19522 225.893707 
L 208.300719 227.311695 
L 223.344055 228.231733 
L 238.449553 228.111225 
L 253.49289 228.529593 
L 268.536226 229.116632 
L 283.641724 229.502134 
L 298.685061 229.756359 
L 313.790559 229.318995 
L 328.833895 229.424414 
L 343.939394 229.622849 
L 358.98273 229.59205 
L 374.026066 229.651995 
L 389.131565 229.893425 
L 404.174901 229.597838 
L 419.2804 229.893425 
L 434.323736 229.893425 
L 449.429235 229.893425 
L 464.472571 229.893425 
L 479.515907 229.893425 
L 494.621406 229.893425 
L 509.664742 229.893425 
L 524.77024 229.893425 
L 539.813577 229.893425 
L 554.919075 229.893425 
L 569.962411 229.893425 
L 585.005748 229.893425 
L 600.111246 229.893425 
L 615.154582 229.893425 
L 630.260081 229.893425 
L 645.303417 229.893425 
L 660.346753 229.893425 
L 675.452252 229.893425 
L 690.495588 229.893425 
L 705.601087 229.893425 
L 720.644423 229.893425 
L 735.687759 229.893425 
L 744.225806 229.893425 
" clip-path="url(#p1760a02e35)" style="fill: none; stroke-dasharray: 9.6,2.4,1.5,2.4; stroke-dashoffset: 0; stroke: #000000; stroke-width: 1.5"/>
   </g>
   <g id="line2d_13">
    <path d="M -1 229.893425 
L 12.364373 229.893425 
L 27.469872 229.893425 
L 42.513208 56.572306 
L 57.587626 75.589055 
L 72.655827 109.426471 
L 87.730244 144.11136 
L 102.798445 173.752678 
L 117.866647 193.616911 
L 132.934848 208.80964 
L 148.009265 217.030249 
L 163.077466 222.483094 
L 178.151884 224.463316 
L 193.19522 226.046667 
L 208.300719 227.371639 
L 223.344055 228.203415 
L 238.449553 228.145744 
L 253.49289 228.524426 
L 268.536226 229.121593 
L 283.641724 229.502134 
L 298.685061 229.756442 
L 313.790559 229.317548 
L 328.833895 229.42276 
L 343.939394 229.713448 
L 358.98273 229.486011 
L 374.026066 229.655922 
L 389.131565 229.893425 
L 404.174901 229.597011 
L 419.2804 229.893425 
L 434.323736 229.893425 
L 449.429235 229.893425 
L 464.472571 229.893425 
L 479.515907 229.893425 
L 494.621406 229.893425 
L 509.664742 229.893425 
L 524.77024 229.893425 
L 539.813577 229.893425 
L 554.919075 229.893425 
L 569.962411 229.893425 
L 585.005748 229.893425 
L 600.111246 229.893425 
L 615.154582 229.893425 
L 630.260081 229.893425 
L 645.303417 229.893425 
L 660.346753 229.893425 
L 675.452252 229.893425 
L 690.495588 229.893425 
L 705.601087 229.893425 
L 720.644423 229.893425 
L 735.687759 229.893425 
L 744.225806 229.893425 
" clip-path="url(#p1760a02e35)" style="fill: none; stroke: #000000; stroke-width: 1.5; stroke-linecap: square"/>
   </g>
   <g id="line2d_14">
    <path d="M -1 229.893425 
L 12.364373 229.893425 
L 27.469872 229.893425 
L 42.513208 57.709181 
L 57.593842 76.105814 
L 72.662043 111.038757 
L 87.730244 145.971695 
L 102.798445 174.290111 
L 117.866647 194.340374 
L 132.941064 209.595114 
L 148.009265 218.256002 
L 163.077466 223.216893 
L 178.151884 225.428623 
L 193.19522 226.172757 
L 208.300719 227.412979 
L 223.344055 227.840856 
L 238.449553 228.146778 
L 253.49289 227.997951 
L 268.536226 229.500687 
L 283.641724 229.502754 
L 298.685061 229.614374 
L 313.790559 229.116218 
L 328.833895 229.893425 
L 343.939394 229.529626 
L 358.98273 229.521358 
L 374.026066 229.893425 
L 389.131565 229.893425 
L 404.174901 229.893425 
L 419.2804 229.893425 
L 434.323736 229.893425 
L 449.429235 229.893425 
L 464.472571 229.893425 
L 479.515907 229.893425 
L 494.621406 229.893425 
L 509.664742 229.893425 
L 524.77024 229.893425 
L 539.813577 229.893425 
L 554.919075 229.893425 
L 569.962411 229.893425 
L 585.005748 229.893425 
L 600.111246 229.893425 
L 615.154582 229.893425 
L 630.260081 229.893425 
L 645.303417 229.893425 
L 660.408916 229.893425 
L 675.452252 229.893425 
L 690.495588 229.893425 
L 705.601087 229.893425 
L 720.644423 229.893425 
L 735.687759 229.893425 
L 744.225806 229.893425 
" clip-path="url(#p1760a02e35)" style="fill: none; stroke: #a9a9a9; stroke-width: 1.5; stroke-linecap: square"/>
   </g>
   <g id="line2d_15">
    <path d="M -1 229.893425 
L 12.364373 229.893425 
L 27.469872 229.893425 
L 42.513208 57.089065 
L 57.593842 75.072296 
L 72.662043 105.664455 
L 87.730244 140.804099 
L 102.798445 173.256593 
L 117.866647 188.139261 
L 132.941064 205.915788 
L 148.009265 215.444831 
L 163.077466 223.030859 
L 178.151884 224.911864 
L 193.19522 226.028064 
L 208.300719 226.689516 
L 223.344055 227.913202 
L 238.449553 228.66147 
L 253.49289 227.840856 
L 268.536226 229.893425 
L 283.641724 229.893425 
L 298.685061 229.893425 
L 313.790559 229.322922 
L 328.833895 229.893425 
L 343.939394 229.893425 
L 358.98273 229.893425 
L 374.026066 229.893425 
L 389.131565 229.893425 
L 404.174901 229.893425 
L 419.2804 229.893425 
L 434.323736 229.893425 
L 449.429235 229.893425 
L 464.472571 229.893425 
L 479.515907 229.893425 
L 494.621406 229.893425 
L 509.664742 229.893425 
L 524.77024 229.893425 
L 539.813577 229.893425 
L 554.919075 229.893425 
L 569.962411 229.893425 
L 585.005748 229.893425 
L 600.111246 229.893425 
L 615.154582 229.893425 
L 630.260081 229.893425 
L 645.303417 229.893425 
L 660.408916 229.893425 
L 675.452252 229.893425 
L 690.495588 229.893425 
L 705.601087 229.893425 
L 720.644423 229.893425 
L 735.687759 229.893425 
L 744.225806 229.893425 
" clip-path="url(#p1760a02e35)" style="fill: none; stroke-dasharray: 5.55,2.4; stroke-dashoffset: 0; stroke: #a9a9a9; stroke-width: 1.5"/>
   </g>
   <g id="line2d_16">
    <path d="M -1 229.893425 
L 12.364373 229.893425 
L 27.469872 229.893425 
L 42.513208 58.122595 
L 57.593842 77.346045 
L 72.662043 112.899092 
L 87.730244 150.725882 
L 102.798445 181.524742 
L 117.866647 198.681156 
L 132.941064 211.0007 
L 148.009265 219.620247 
L 163.077466 224.663819 
L 178.151884 225.552645 
L 193.19522 224.622478 
L 208.300719 226.462142 
L 223.344055 228.861973 
L 238.449553 226.854879 
L 253.49289 228.237727 
L 268.536226 229.03147 
L 283.641724 229.893425 
L 298.685061 229.893425 
L 313.790559 229.893425 
L 328.833895 228.971526 
L 343.939394 229.893425 
L 358.98273 229.893425 
L 374.026066 229.893425 
L 389.131565 229.893425 
L 404.174901 229.893425 
L 419.2804 229.893425 
L 434.323736 229.893425 
L 449.429235 229.893425 
L 464.472571 229.893425 
L 479.515907 229.893425 
L 494.621406 229.893425 
L 509.664742 229.893425 
L 524.77024 229.893425 
L 539.813577 229.893425 
L 554.919075 229.893425 
L 569.962411 229.893425 
L 585.005748 229.893425 
L 600.111246 229.893425 
L 615.154582 229.893425 
L 630.260081 229.893425 
L 645.303417 229.893425 
L 660.408916 229.893425 
L 675.452252 229.893425 
L 690.495588 229.893425 
L 705.601087 229.893425 
L 720.644423 229.893425 
L 735.687759 229.893425 
L 744.225806 229.893425 
" clip-path="url(#p1760a02e35)" style="fill: none; stroke-dasharray: 1.5,2.475; stroke-dashoffset: 0; stroke: #808080; stroke-width: 1.5"/>
   </g>
   <g id="patch_3">
    <path d="M 48.17 238.559481 
L 48.17 47.90625 
" style="fill: none; stroke: #000000; stroke-width: 0.8; stroke-linejoin: miter; stroke-linecap: square"/>
   </g>
   <g id="patch_4">
    <path d="M 358.98273 238.559481 
L 358.98273 47.90625 
" style="fill: none; stroke: #000000; stroke-width: 0.8; stroke-linejoin: miter; stroke-linecap: square"/>
   </g>
   <g id="patch_5">
    <path d="M 48.17 238.559481 
L 358.98273 238.559481 
" style="fill: none; stroke: #000000; stroke-width: 0.8; stroke-linejoin: miter; stroke-linecap: square"/>
   </g>
   <g id="patch_6">
    <path d="M 48.17 47.90625 
L 358.98273 47.90625 
" style="fill: none; stroke: #000000; stroke-width: 0.8; stroke-linejoin: miter; stroke-linecap: square"/>
   </g>
   <g id="text_14">
    <!-- P(F|score) Reseek E-value -->
    <g transform="translate(126.108865 41.90625) scale(0.12 -0.12)">
     <defs>
      <path id="DejaVuSans-20" transform="scale(0.015625)"/>
      <path id="DejaVuSans-52" d="M 2841 2188 
Q 3044 2119 3236 1894 
Q 3428 1669 3622 1275 
L 4263 0 
L 3584 0 
L 2988 1197 
Q 2756 1666 2539 1819 
Q 2322 1972 1947 1972 
L 1259 1972 
L 1259 0 
L 628 0 
L 628 4666 
L 2053 4666 
Q 2853 4666 3247 4331 
Q 3641 3997 3641 3322 
Q 3641 2881 3436 2590 
Q 3231 2300 2841 2188 
z
M 1259 4147 
L 1259 2491 
L 2053 2491 
Q 2509 2491 2742 2702 
Q 2975 2913 2975 3322 
Q 2975 3731 2742 3939 
Q 2509 4147 2053 4147 
L 1259 4147 
z
" transform="scale(0.015625)"/>
      <path id="DejaVuSans-6b" d="M 581 4863 
L 1159 4863 
L 1159 1991 
L 2875 3500 
L 3609 3500 
L 1753 1863 
L 3688 0 
L 2938 0 
L 1159 1709 
L 1159 0 
L 581 0 
L 581 4863 
z
" transform="scale(0.015625)"/>
      <path id="DejaVuSans-76" d="M 191 3500 
L 800 3500 
L 1894 563 
L 2988 3500 
L 3597 3500 
L 2284 0 
L 1503 0 
L 191 3500 
z
" transform="scale(0.015625)"/>
      <path id="DejaVuSans-61" d="M 2194 1759 
Q 1497 1759 1228 1600 
Q 959 1441 959 1056 
Q 959 750 1161 570 
Q 1363 391 1709 391 
Q 2188 391 2477 730 
Q 2766 1069 2766 1631 
L 2766 1759 
L 2194 1759 
z
M 3341 1997 
L 3341 0 
L 2766 0 
L 2766 531 
Q 2569 213 2275 61 
Q 1981 -91 1556 -91 
Q 1019 -91 701 211 
Q 384 513 384 1019 
Q 384 1609 779 1909 
Q 1175 2209 1959 2209 
L 2766 2209 
L 2766 2266 
Q 2766 2663 2505 2880 
Q 2244 3097 1772 3097 
Q 1472 3097 1187 3025 
Q 903 2953 641 2809 
L 641 3341 
Q 956 3463 1253 3523 
Q 1550 3584 1831 3584 
Q 2591 3584 2966 3190 
Q 3341 2797 3341 1997 
z
" transform="scale(0.015625)"/>
      <path id="DejaVuSans-75" d="M 544 1381 
L 544 3500 
L 1119 3500 
L 1119 1403 
Q 1119 906 1312 657 
Q 1506 409 1894 409 
Q 2359 409 2629 706 
Q 2900 1003 2900 1516 
L 2900 3500 
L 3475 3500 
L 3475 0 
L 2900 0 
L 2900 538 
Q 2691 219 2414 64 
Q 2138 -91 1772 -91 
Q 1169 -91 856 284 
Q 544 659 544 1381 
z
M 1991 3584 
L 1991 3584 
z
" transform="scale(0.015625)"/>
     </defs>
     <use xlink:href="#DejaVuSans-50"/>
     <use xlink:href="#DejaVuSans-28" transform="translate(60.302734 0)"/>
     <use xlink:href="#DejaVuSans-46" transform="translate(99.316406 0)"/>
     <use xlink:href="#DejaVuSans-7c" transform="translate(156.835938 0)"/>
     <use xlink:href="#DejaVuSans-73" transform="translate(190.527344 0)"/>
     <use xlink:href="#DejaVuSans-63" transform="translate(242.626953 0)"/>
     <use xlink:href="#DejaVuSans-6f" transform="translate(297.607422 0)"/>
     <use xlink:href="#DejaVuSans-72" transform="translate(358.789062 0)"/>
     <use xlink:href="#DejaVuSans-65" transform="translate(397.652344 0)"/>
     <use xlink:href="#DejaVuSans-29" transform="translate(459.175781 0)"/>
     <use xlink:href="#DejaVuSans-20" transform="translate(498.189453 0)"/>
     <use xlink:href="#DejaVuSans-52" transform="translate(529.976562 0)"/>
     <use xlink:href="#DejaVuSans-65" transform="translate(594.958984 0)"/>
     <use xlink:href="#DejaVuSans-73" transform="translate(656.482422 0)"/>
     <use xlink:href="#DejaVuSans-65" transform="translate(708.582031 0)"/>
     <use xlink:href="#DejaVuSans-65" transform="translate(770.105469 0)"/>
     <use xlink:href="#DejaVuSans-6b" transform="translate(831.628906 0)"/>
     <use xlink:href="#DejaVuSans-20" transform="translate(889.539062 0)"/>
     <use xlink:href="#DejaVuSans-45" transform="translate(921.326172 0)"/>
     <use xlink:href="#DejaVuSans-2d" transform="translate(984.509766 0)"/>
     <use xlink:href="#DejaVuSans-76" transform="translate(1017.96875 0)"/>
     <use xlink:href="#DejaVuSans-61" transform="translate(1077.148438 0)"/>
     <use xlink:href="#DejaVuSans-6c" transform="translate(1138.427734 0)"/>
     <use xlink:href="#DejaVuSans-75" transform="translate(1166.210938 0)"/>
     <use xlink:href="#DejaVuSans-65" transform="translate(1229.589844 0)"/>
    </g>
   </g>
   <g id="legend_1">
    <g id="patch_7">
     <path d="M 267.743668 129.296875 
L 351.98273 129.296875 
Q 353.98273 129.296875 353.98273 127.296875 
L 353.98273 54.90625 
Q 353.98273 52.90625 351.98273 52.90625 
L 267.743668 52.90625 
Q 265.743668 52.90625 265.743668 54.90625 
L 265.743668 127.296875 
Q 265.743668 129.296875 267.743668 129.296875 
z
" style="fill: #ffffff; opacity: 0.8; stroke: #cccccc; stroke-linejoin: miter"/>
    </g>
    <g id="line2d_17">
     <path d="M 269.743668 61.004687 
L 279.743668 61.004687 
L 289.743668 61.004687 
" style="fill: none; stroke-dasharray: 9.6,2.4,1.5,2.4; stroke-dashoffset: 0; stroke: #000000; stroke-width: 1.5"/>
    </g>
    <g id="text_15">
     <!-- SCOP40x8 -->
     <g transform="translate(297.743668 64.504687) scale(0.1 -0.1)">
      <defs>
       <path id="DejaVuSans-53" d="M 3425 4513 
L 3425 3897 
Q 3066 4069 2747 4153 
Q 2428 4238 2131 4238 
Q 1616 4238 1336 4038 
Q 1056 3838 1056 3469 
Q 1056 3159 1242 3001 
Q 1428 2844 1947 2747 
L 2328 2669 
Q 3034 2534 3370 2195 
Q 3706 1856 3706 1288 
Q 3706 609 3251 259 
Q 2797 -91 1919 -91 
Q 1588 -91 1214 -16 
Q 841 59 441 206 
L 441 856 
Q 825 641 1194 531 
Q 1563 422 1919 422 
Q 2459 422 2753 634 
Q 3047 847 3047 1241 
Q 3047 1584 2836 1778 
Q 2625 1972 2144 2069 
L 1759 2144 
Q 1053 2284 737 2584 
Q 422 2884 422 3419 
Q 422 4038 858 4394 
Q 1294 4750 2059 4750 
Q 2388 4750 2728 4690 
Q 3069 4631 3425 4513 
z
" transform="scale(0.015625)"/>
       <path id="DejaVuSans-43" d="M 4122 4306 
L 4122 3641 
Q 3803 3938 3442 4084 
Q 3081 4231 2675 4231 
Q 1875 4231 1450 3742 
Q 1025 3253 1025 2328 
Q 1025 1406 1450 917 
Q 1875 428 2675 428 
Q 3081 428 3442 575 
Q 3803 722 4122 1019 
L 4122 359 
Q 3791 134 3420 21 
Q 3050 -91 2638 -91 
Q 1578 -91 968 557 
Q 359 1206 359 2328 
Q 359 3453 968 4101 
Q 1578 4750 2638 4750 
Q 3056 4750 3426 4639 
Q 3797 4528 4122 4306 
z
" transform="scale(0.015625)"/>
       <path id="DejaVuSans-4f" d="M 2522 4238 
Q 1834 4238 1429 3725 
Q 1025 3213 1025 2328 
Q 1025 1447 1429 934 
Q 1834 422 2522 422 
Q 3209 422 3611 934 
Q 4013 1447 4013 2328 
Q 4013 3213 3611 3725 
Q 3209 4238 2522 4238 
z
M 2522 4750 
Q 3503 4750 4090 4092 
Q 4678 3434 4678 2328 
Q 4678 1225 4090 567 
Q 3503 -91 2522 -91 
Q 1538 -91 948 565 
Q 359 1222 359 2328 
Q 359 3434 948 4092 
Q 1538 4750 2522 4750 
z
" transform="scale(0.015625)"/>
       <path id="DejaVuSans-78" d="M 3513 3500 
L 2247 1797 
L 3578 0 
L 2900 0 
L 1881 1375 
L 863 0 
L 184 0 
L 1544 1831 
L 300 3500 
L 978 3500 
L 1906 2253 
L 2834 3500 
L 3513 3500 
z
" transform="scale(0.015625)"/>
      </defs>
      <use xlink:href="#DejaVuSans-53"/>
      <use xlink:href="#DejaVuSans-43" transform="translate(63.476562 0)"/>
      <use xlink:href="#DejaVuSans-4f" transform="translate(133.300781 0)"/>
      <use xlink:href="#DejaVuSans-50" transform="translate(212.011719 0)"/>
      <use xlink:href="#DejaVuSans-34" transform="translate(272.314453 0)"/>
      <use xlink:href="#DejaVuSans-30" transform="translate(335.9375 0)"/>
      <use xlink:href="#DejaVuSans-78" transform="translate(399.560547 0)"/>
      <use xlink:href="#DejaVuSans-38" transform="translate(458.740234 0)"/>
     </g>
    </g>
    <g id="line2d_18">
     <path d="M 269.743668 75.682812 
L 279.743668 75.682812 
L 289.743668 75.682812 
" style="fill: none; stroke: #000000; stroke-width: 1.5; stroke-linecap: square"/>
    </g>
    <g id="text_16">
     <!-- SCOP40 -->
     <g transform="translate(297.743668 79.182812) scale(0.1 -0.1)">
      <use xlink:href="#DejaVuSans-53"/>
      <use xlink:href="#DejaVuSans-43" transform="translate(63.476562 0)"/>
      <use xlink:href="#DejaVuSans-4f" transform="translate(133.300781 0)"/>
      <use xlink:href="#DejaVuSans-50" transform="translate(212.011719 0)"/>
      <use xlink:href="#DejaVuSans-34" transform="translate(272.314453 0)"/>
      <use xlink:href="#DejaVuSans-30" transform="translate(335.9375 0)"/>
     </g>
    </g>
    <g id="line2d_19">
     <path d="M 269.743668 90.360937 
L 279.743668 90.360937 
L 289.743668 90.360937 
" style="fill: none; stroke: #a9a9a9; stroke-width: 1.5; stroke-linecap: square"/>
    </g>
    <g id="text_17">
     <!-- SCOP40/2 -->
     <g transform="translate(297.743668 93.860937) scale(0.1 -0.1)">
      <defs>
       <path id="DejaVuSans-2f" d="M 1625 4666 
L 2156 4666 
L 531 -594 
L 0 -594 
L 1625 4666 
z
" transform="scale(0.015625)"/>
      </defs>
      <use xlink:href="#DejaVuSans-53"/>
      <use xlink:href="#DejaVuSans-43" transform="translate(63.476562 0)"/>
      <use xlink:href="#DejaVuSans-4f" transform="translate(133.300781 0)"/>
      <use xlink:href="#DejaVuSans-50" transform="translate(212.011719 0)"/>
      <use xlink:href="#DejaVuSans-34" transform="translate(272.314453 0)"/>
      <use xlink:href="#DejaVuSans-30" transform="translate(335.9375 0)"/>
      <use xlink:href="#DejaVuSans-2f" transform="translate(399.560547 0)"/>
      <use xlink:href="#DejaVuSans-32" transform="translate(433.251953 0)"/>
     </g>
    </g>
    <g id="line2d_20">
     <path d="M 269.743668 105.039062 
L 279.743668 105.039062 
L 289.743668 105.039062 
" style="fill: none; stroke-dasharray: 5.55,2.4; stroke-dashoffset: 0; stroke: #a9a9a9; stroke-width: 1.5"/>
    </g>
    <g id="text_18">
     <!-- SCOP40/4 -->
     <g transform="translate(297.743668 108.539062) scale(0.1 -0.1)">
      <use xlink:href="#DejaVuSans-53"/>
      <use xlink:href="#DejaVuSans-43" transform="translate(63.476562 0)"/>
      <use xlink:href="#DejaVuSans-4f" transform="translate(133.300781 0)"/>
      <use xlink:href="#DejaVuSans-50" transform="translate(212.011719 0)"/>
      <use xlink:href="#DejaVuSans-34" transform="translate(272.314453 0)"/>
      <use xlink:href="#DejaVuSans-30" transform="translate(335.9375 0)"/>
      <use xlink:href="#DejaVuSans-2f" transform="translate(399.560547 0)"/>
      <use xlink:href="#DejaVuSans-34" transform="translate(433.251953 0)"/>
     </g>
    </g>
    <g id="line2d_21">
     <path d="M 269.743668 119.717187 
L 279.743668 119.717187 
L 289.743668 119.717187 
" style="fill: none; stroke-dasharray: 1.5,2.475; stroke-dashoffset: 0; stroke: #808080; stroke-width: 1.5"/>
    </g>
    <g id="text_19">
     <!-- SCOP40/8 -->
     <g transform="translate(297.743668 123.217187) scale(0.1 -0.1)">
      <use xlink:href="#DejaVuSans-53"/>
      <use xlink:href="#DejaVuSans-43" transform="translate(63.476562 0)"/>
      <use xlink:href="#DejaVuSans-4f" transform="translate(133.300781 0)"/>
      <use xlink:href="#DejaVuSans-50" transform="translate(212.011719 0)"/>
      <use xlink:href="#DejaVuSans-34" transform="translate(272.314453 0)"/>
      <use xlink:href="#DejaVuSans-30" transform="translate(335.9375 0)"/>
      <use xlink:href="#DejaVuSans-2f" transform="translate(399.560547 0)"/>
      <use xlink:href="#DejaVuSans-38" transform="translate(433.251953 0)"/>
     </g>
    </g>
   </g>
  </g>
  <g id="axes_2">
   <g id="patch_8">
    <path d="M 418.418076 238.559481 
L 729.230806 238.559481 
L 729.230806 47.90625 
L 418.418076 47.90625 
z
" style="fill: #ffffff"/>
   </g>
   <g id="matplotlib.axis_3">
    <g id="xtick_7">
     <g id="line2d_22">
      <g>
       <use xlink:href="#mc94db8d088" x="418.418076" y="238.559481" style="stroke: #000000; stroke-width: 0.8"/>
      </g>
     </g>
     <g id="text_20">
      <!-- −1 -->
      <g transform="translate(411.046983 253.157918) scale(0.1 -0.1)">
       <use xlink:href="#DejaVuSans-2212"/>
       <use xlink:href="#DejaVuSans-31" transform="translate(83.789062 0)"/>
      </g>
     </g>
    </g>
    <g id="xtick_8">
     <g id="line2d_23">
      <g>
       <use xlink:href="#mc94db8d088" x="480.580622" y="238.559481" style="stroke: #000000; stroke-width: 0.8"/>
      </g>
     </g>
     <g id="text_21">
      <!-- 0 -->
      <g transform="translate(477.399372 253.157918) scale(0.1 -0.1)">
       <use xlink:href="#DejaVuSans-30"/>
      </g>
     </g>
    </g>
    <g id="xtick_9">
     <g id="line2d_24">
      <g>
       <use xlink:href="#mc94db8d088" x="542.743168" y="238.559481" style="stroke: #000000; stroke-width: 0.8"/>
      </g>
     </g>
     <g id="text_22">
      <!-- 1 -->
      <g transform="translate(539.561918 253.157918) scale(0.1 -0.1)">
       <use xlink:href="#DejaVuSans-31"/>
      </g>
     </g>
    </g>
    <g id="xtick_10">
     <g id="line2d_25">
      <g>
       <use xlink:href="#mc94db8d088" x="604.905714" y="238.559481" style="stroke: #000000; stroke-width: 0.8"/>
      </g>
     </g>
     <g id="text_23">
      <!-- 2 -->
      <g transform="translate(601.724464 253.157918) scale(0.1 -0.1)">
       <use xlink:href="#DejaVuSans-32"/>
      </g>
     </g>
    </g>
    <g id="xtick_11">
     <g id="line2d_26">
      <g>
       <use xlink:href="#mc94db8d088" x="667.06826" y="238.559481" style="stroke: #000000; stroke-width: 0.8"/>
      </g>
     </g>
     <g id="text_24">
      <!-- 3 -->
      <g transform="translate(663.88701 253.157918) scale(0.1 -0.1)">
       <use xlink:href="#DejaVuSans-33"/>
      </g>
     </g>
    </g>
    <g id="xtick_12">
     <g id="line2d_27">
      <g>
       <use xlink:href="#mc94db8d088" x="729.230806" y="238.559481" style="stroke: #000000; stroke-width: 0.8"/>
      </g>
     </g>
     <g id="text_25">
      <!-- 4 -->
      <g transform="translate(726.049556 253.157918) scale(0.1 -0.1)">
       <use xlink:href="#DejaVuSans-34"/>
      </g>
     </g>
    </g>
    <g id="text_26">
     <!-- -log10(E) -->
     <g transform="translate(550.974441 266.836043) scale(0.1 -0.1)">
      <use xlink:href="#DejaVuSans-2d"/>
      <use xlink:href="#DejaVuSans-6c" transform="translate(36.083984 0)"/>
      <use xlink:href="#DejaVuSans-6f" transform="translate(63.867188 0)"/>
      <use xlink:href="#DejaVuSans-67" transform="translate(125.048828 0)"/>
      <use xlink:href="#DejaVuSans-31" transform="translate(188.525391 0)"/>
      <use xlink:href="#DejaVuSans-30" transform="translate(252.148438 0)"/>
      <use xlink:href="#DejaVuSans-28" transform="translate(315.771484 0)"/>
      <use xlink:href="#DejaVuSans-45" transform="translate(354.785156 0)"/>
      <use xlink:href="#DejaVuSans-29" transform="translate(417.96875 0)"/>
     </g>
    </g>
   </g>
   <g id="matplotlib.axis_4">
    <g id="ytick_6">
     <g id="line2d_28">
      <g>
       <use xlink:href="#m61d9b6ad89" x="418.418076" y="238.559481" style="stroke: #000000; stroke-width: 0.8"/>
      </g>
     </g>
     <g id="text_27">
      <!-- $\mathdefault{10^{-3}}$ -->
      <g transform="translate(387.918076 242.358699) scale(0.1 -0.1)">
       <use xlink:href="#DejaVuSans-31" transform="translate(0 0.765625)"/>
       <use xlink:href="#DejaVuSans-30" transform="translate(63.623047 0.765625)"/>
       <use xlink:href="#DejaVuSans-2212" transform="translate(128.203125 39.046875) scale(0.7)"/>
       <use xlink:href="#DejaVuSans-33" transform="translate(186.855469 39.046875) scale(0.7)"/>
      </g>
     </g>
    </g>
    <g id="ytick_7">
     <g id="line2d_29">
      <g>
       <use xlink:href="#m61d9b6ad89" x="418.418076" y="175.008404" style="stroke: #000000; stroke-width: 0.8"/>
      </g>
     </g>
     <g id="text_28">
      <!-- $\mathdefault{10^{-2}}$ -->
      <g transform="translate(387.918076 178.807622) scale(0.1 -0.1)">
       <use xlink:href="#DejaVuSans-31" transform="translate(0 0.765625)"/>
       <use xlink:href="#DejaVuSans-30" transform="translate(63.623047 0.765625)"/>
       <use xlink:href="#DejaVuSans-2212" transform="translate(128.203125 39.046875) scale(0.7)"/>
       <use xlink:href="#DejaVuSans-32" transform="translate(186.855469 39.046875) scale(0.7)"/>
      </g>
     </g>
    </g>
    <g id="ytick_8">
     <g id="line2d_30">
      <g>
       <use xlink:href="#m61d9b6ad89" x="418.418076" y="111.457327" style="stroke: #000000; stroke-width: 0.8"/>
      </g>
     </g>
     <g id="text_29">
      <!-- $\mathdefault{10^{-1}}$ -->
      <g transform="translate(387.918076 115.256546) scale(0.1 -0.1)">
       <use xlink:href="#DejaVuSans-31" transform="translate(0 0.684375)"/>
       <use xlink:href="#DejaVuSans-30" transform="translate(63.623047 0.684375)"/>
       <use xlink:href="#DejaVuSans-2212" transform="translate(128.203125 38.965625) scale(0.7)"/>
       <use xlink:href="#DejaVuSans-31" transform="translate(186.855469 38.965625) scale(0.7)"/>
      </g>
     </g>
    </g>
    <g id="ytick_9">
     <g id="line2d_31">
      <g>
       <use xlink:href="#m61d9b6ad89" x="418.418076" y="47.90625" style="stroke: #000000; stroke-width: 0.8"/>
      </g>
     </g>
     <g id="text_30">
      <!-- $\mathdefault{10^{0}}$ -->
      <g transform="translate(393.818076 51.705469) scale(0.1 -0.1)">
       <use xlink:href="#DejaVuSans-31" transform="translate(0 0.765625)"/>
       <use xlink:href="#DejaVuSans-30" transform="translate(63.623047 0.765625)"/>
       <use xlink:href="#DejaVuSans-30" transform="translate(128.203125 39.046875) scale(0.7)"/>
      </g>
     </g>
    </g>
    <g id="ytick_10">
     <g id="line2d_32">
      <defs>
       <path id="m0d4f573616" d="M 0 0 
L -2 0 
" style="stroke: #000000; stroke-width: 0.6"/>
      </defs>
      <g>
       <use xlink:href="#m0d4f573616" x="418.418076" y="219.4287" style="stroke: #000000; stroke-width: 0.6"/>
      </g>
     </g>
    </g>
    <g id="ytick_11">
     <g id="line2d_33">
      <g>
       <use xlink:href="#m0d4f573616" x="418.418076" y="208.237911" style="stroke: #000000; stroke-width: 0.6"/>
      </g>
     </g>
    </g>
    <g id="ytick_12">
     <g id="line2d_34">
      <g>
       <use xlink:href="#m0d4f573616" x="418.418076" y="200.29792" style="stroke: #000000; stroke-width: 0.6"/>
      </g>
     </g>
    </g>
    <g id="ytick_13">
     <g id="line2d_35">
      <g>
       <use xlink:href="#m0d4f573616" x="418.418076" y="194.139184" style="stroke: #000000; stroke-width: 0.6"/>
      </g>
     </g>
    </g>
    <g id="ytick_14">
     <g id="line2d_36">
      <g>
       <use xlink:href="#m0d4f573616" x="418.418076" y="189.107131" style="stroke: #000000; stroke-width: 0.6"/>
      </g>
     </g>
    </g>
    <g id="ytick_15">
     <g id="line2d_37">
      <g>
       <use xlink:href="#m0d4f573616" x="418.418076" y="184.85259" style="stroke: #000000; stroke-width: 0.6"/>
      </g>
     </g>
    </g>
    <g id="ytick_16">
     <g id="line2d_38">
      <g>
       <use xlink:href="#m0d4f573616" x="418.418076" y="181.167139" style="stroke: #000000; stroke-width: 0.6"/>
      </g>
     </g>
    </g>
    <g id="ytick_17">
     <g id="line2d_39">
      <g>
       <use xlink:href="#m0d4f573616" x="418.418076" y="177.916341" style="stroke: #000000; stroke-width: 0.6"/>
      </g>
     </g>
    </g>
    <g id="ytick_18">
     <g id="line2d_40">
      <g>
       <use xlink:href="#m0d4f573616" x="418.418076" y="155.877623" style="stroke: #000000; stroke-width: 0.6"/>
      </g>
     </g>
    </g>
    <g id="ytick_19">
     <g id="line2d_41">
      <g>
       <use xlink:href="#m0d4f573616" x="418.418076" y="144.686834" style="stroke: #000000; stroke-width: 0.6"/>
      </g>
     </g>
    </g>
    <g id="ytick_20">
     <g id="line2d_42">
      <g>
       <use xlink:href="#m0d4f573616" x="418.418076" y="136.746843" style="stroke: #000000; stroke-width: 0.6"/>
      </g>
     </g>
    </g>
    <g id="ytick_21">
     <g id="line2d_43">
      <g>
       <use xlink:href="#m0d4f573616" x="418.418076" y="130.588107" style="stroke: #000000; stroke-width: 0.6"/>
      </g>
     </g>
    </g>
    <g id="ytick_22">
     <g id="line2d_44">
      <g>
       <use xlink:href="#m0d4f573616" x="418.418076" y="125.556054" style="stroke: #000000; stroke-width: 0.6"/>
      </g>
     </g>
    </g>
    <g id="ytick_23">
     <g id="line2d_45">
      <g>
       <use xlink:href="#m0d4f573616" x="418.418076" y="121.301513" style="stroke: #000000; stroke-width: 0.6"/>
      </g>
     </g>
    </g>
    <g id="ytick_24">
     <g id="line2d_46">
      <g>
       <use xlink:href="#m0d4f573616" x="418.418076" y="117.616063" style="stroke: #000000; stroke-width: 0.6"/>
      </g>
     </g>
    </g>
    <g id="ytick_25">
     <g id="line2d_47">
      <g>
       <use xlink:href="#m0d4f573616" x="418.418076" y="114.365265" style="stroke: #000000; stroke-width: 0.6"/>
      </g>
     </g>
    </g>
    <g id="ytick_26">
     <g id="line2d_48">
      <g>
       <use xlink:href="#m0d4f573616" x="418.418076" y="92.326546" style="stroke: #000000; stroke-width: 0.6"/>
      </g>
     </g>
    </g>
    <g id="ytick_27">
     <g id="line2d_49">
      <g>
       <use xlink:href="#m0d4f573616" x="418.418076" y="81.135757" style="stroke: #000000; stroke-width: 0.6"/>
      </g>
     </g>
    </g>
    <g id="ytick_28">
     <g id="line2d_50">
      <g>
       <use xlink:href="#m0d4f573616" x="418.418076" y="73.195766" style="stroke: #000000; stroke-width: 0.6"/>
      </g>
     </g>
    </g>
    <g id="ytick_29">
     <g id="line2d_51">
      <g>
       <use xlink:href="#m0d4f573616" x="418.418076" y="67.03703" style="stroke: #000000; stroke-width: 0.6"/>
      </g>
     </g>
    </g>
    <g id="ytick_30">
     <g id="line2d_52">
      <g>
       <use xlink:href="#m0d4f573616" x="418.418076" y="62.004977" style="stroke: #000000; stroke-width: 0.6"/>
      </g>
     </g>
    </g>
    <g id="ytick_31">
     <g id="line2d_53">
      <g>
       <use xlink:href="#m0d4f573616" x="418.418076" y="57.750436" style="stroke: #000000; stroke-width: 0.6"/>
      </g>
     </g>
    </g>
    <g id="ytick_32">
     <g id="line2d_54">
      <g>
       <use xlink:href="#m0d4f573616" x="418.418076" y="54.064986" style="stroke: #000000; stroke-width: 0.6"/>
      </g>
     </g>
    </g>
    <g id="ytick_33">
     <g id="line2d_55">
      <g>
       <use xlink:href="#m0d4f573616" x="418.418076" y="50.814188" style="stroke: #000000; stroke-width: 0.6"/>
      </g>
     </g>
    </g>
    <g id="text_31">
     <!-- P(F|score) -->
     <g transform="translate(381.560264 168.14224) rotate(-90) scale(0.1 -0.1)">
      <use xlink:href="#DejaVuSans-50"/>
      <use xlink:href="#DejaVuSans-28" transform="translate(60.302734 0)"/>
      <use xlink:href="#DejaVuSans-46" transform="translate(99.316406 0)"/>
      <use xlink:href="#DejaVuSans-7c" transform="translate(156.835938 0)"/>
      <use xlink:href="#DejaVuSans-73" transform="translate(190.527344 0)"/>
      <use xlink:href="#DejaVuSans-63" transform="translate(242.626953 0)"/>
      <use xlink:href="#DejaVuSans-6f" transform="translate(297.607422 0)"/>
      <use xlink:href="#DejaVuSans-72" transform="translate(358.789062 0)"/>
      <use xlink:href="#DejaVuSans-65" transform="translate(397.652344 0)"/>
      <use xlink:href="#DejaVuSans-29" transform="translate(459.175781 0)"/>
     </g>
    </g>
   </g>
   <g id="line2d_56">
    <path d="M 412.707134 281.519481 
L 412.761285 52.77759 
L 427.835702 55.986435 
L 442.903903 62.821947 
L 457.978321 72.153115 
L 473.046522 83.911127 
L 488.114723 96.186031 
L 503.182924 110.992072 
L 518.257341 124.33679 
L 533.325543 139.463778 
L 548.39996 149.707849 
L 563.443296 156.78952 
L 578.548795 168.871758 
L 593.592131 181.032915 
L 608.69763 179.100583 
L 623.740966 186.484946 
L 638.784302 202.020358 
L 653.889801 220.946261 
L 668.933137 249.898326 
L 684.038635 210.349886 
L 699.081972 215.945815 
L 714.18747 231.127841 
L 729.230806 228.152513 
L 744.225806 234.253747 
" clip-path="url(#peb31d5fc2d)" style="fill: none; stroke-dasharray: 9.6,2.4,1.5,2.4; stroke-dashoffset: 0; stroke: #000000; stroke-width: 1.5"/>
   </g>
   <g id="line2d_57">
    <path d="M 412.707132 281.519481 
L 412.761285 52.767712 
L 427.835702 55.975342 
L 442.903903 62.807737 
L 457.978321 72.179705 
L 473.046522 83.880622 
L 488.114723 95.933252 
L 503.182924 110.910777 
L 518.257341 124.548862 
L 533.325543 139.770021 
L 548.39996 148.351264 
L 563.443296 157.86573 
L 578.548795 169.520144 
L 593.592131 180.566525 
L 608.69763 179.640412 
L 623.740966 186.380567 
L 638.784302 202.197187 
L 653.889801 220.946261 
L 668.933137 249.91498 
L 684.038635 210.280451 
L 699.081972 215.848674 
L 714.18747 242.380899 
L 729.230806 219.831827 
L 744.225806 234.67822 
" clip-path="url(#peb31d5fc2d)" style="fill: none; stroke: #000000; stroke-width: 1.5; stroke-linecap: square"/>
   </g>
   <g id="line2d_58">
    <path d="M 412.707175 281.519481 
L 412.761285 52.949345 
L 427.841918 56.067928 
L 442.910119 63.179618 
L 457.978321 72.784843 
L 473.046522 84.146107 
L 488.114723 96.489239 
L 503.18914 111.95865 
L 518.257341 127.312787 
L 533.325543 142.648036 
L 548.39996 153.753507 
L 563.443296 158.785562 
L 578.548795 169.97635 
L 593.592131 175.202283 
L 608.69763 179.65674 
L 623.740966 177.399872 
L 638.784302 220.844389 
L 653.889801 220.990036 
L 668.933137 230.276628 
L 684.038635 202.005674 
L 684.057503 281.519481 
M 714.173512 281.519481 
L 714.18747 222.956886 
L 729.230806 222.336638 
L 729.244854 281.519481 
" clip-path="url(#peb31d5fc2d)" style="fill: none; stroke: #a9a9a9; stroke-width: 1.5; stroke-linecap: square"/>
   </g>
   <g id="line2d_59">
    <path d="M 412.707151 281.519481 
L 412.761285 52.850124 
L 427.841918 55.883065 
L 442.910119 61.959015 
L 457.978321 71.135613 
L 473.046522 83.637808 
L 488.114723 92.051918 
L 503.18914 107.360953 
L 518.257341 121.34097 
L 533.325543 141.889518 
L 548.39996 150.730809 
L 563.443296 157.732577 
L 578.548795 162.91262 
L 593.592131 176.192645 
L 608.69763 189.291745 
L 623.740966 175.202283 
L 623.766183 281.519481 
M 684.021721 281.519481 
L 684.038635 210.539233 
L 684.055481 281.519481 
" clip-path="url(#peb31d5fc2d)" style="fill: none; stroke-dasharray: 5.55,2.4; stroke-dashoffset: 0; stroke: #a9a9a9; stroke-width: 1.5"/>
   </g>
   <g id="line2d_60">
    <path d="M 412.707191 281.519481 
L 412.761285 53.015692 
L 427.841918 56.291411 
L 442.910119 63.615033 
L 457.978321 74.394418 
L 473.046522 87.993262 
L 488.114723 100.08315 
L 503.18914 113.939239 
L 518.257341 130.754206 
L 533.325543 149.389661 
L 548.39996 154.531021 
L 563.443296 149.172338 
L 578.548795 161.020298 
L 593.592131 194.19444 
L 608.69763 164.375207 
L 623.740966 181.132661 
L 638.784302 199.149166 
L 638.803927 281.519481 
M 699.061987 281.519481 
L 699.081972 197.293551 
L 699.102039 281.519481 
" clip-path="url(#peb31d5fc2d)" style="fill: none; stroke-dasharray: 1.5,2.475; stroke-dashoffset: 0; stroke: #808080; stroke-width: 1.5"/>
   </g>
   <g id="patch_9">
    <path d="M 418.418076 238.559481 
L 418.418076 47.90625 
" style="fill: none; stroke: #000000; stroke-width: 0.8; stroke-linejoin: miter; stroke-linecap: square"/>
   </g>
   <g id="patch_10">
    <path d="M 729.230806 238.559481 
L 729.230806 47.90625 
" style="fill: none; stroke: #000000; stroke-width: 0.8; stroke-linejoin: miter; stroke-linecap: square"/>
   </g>
   <g id="patch_11">
    <path d="M 418.418076 238.559481 
L 729.230806 238.559481 
" style="fill: none; stroke: #000000; stroke-width: 0.8; stroke-linejoin: miter; stroke-linecap: square"/>
   </g>
   <g id="patch_12">
    <path d="M 418.418076 47.90625 
L 729.230806 47.90625 
" style="fill: none; stroke: #000000; stroke-width: 0.8; stroke-linejoin: miter; stroke-linecap: square"/>
   </g>
   <g id="text_32">
    <!-- P(F|score) Reseek E-value (logscale) -->
    <g transform="translate(465.160691 41.90625) scale(0.12 -0.12)">
     <use xlink:href="#DejaVuSans-50"/>
     <use xlink:href="#DejaVuSans-28" transform="translate(60.302734 0)"/>
     <use xlink:href="#DejaVuSans-46" transform="translate(99.316406 0)"/>
     <use xlink:href="#DejaVuSans-7c" transform="translate(156.835938 0)"/>
     <use xlink:href="#DejaVuSans-73" transform="translate(190.527344 0)"/>
     <use xlink:href="#DejaVuSans-63" transform="translate(242.626953 0)"/>
     <use xlink:href="#DejaVuSans-6f" transform="translate(297.607422 0)"/>
     <use xlink:href="#DejaVuSans-72" transform="translate(358.789062 0)"/>
     <use xlink:href="#DejaVuSans-65" transform="translate(397.652344 0)"/>
     <use xlink:href="#DejaVuSans-29" transform="translate(459.175781 0)"/>
     <use xlink:href="#DejaVuSans-20" transform="translate(498.189453 0)"/>
     <use xlink:href="#DejaVuSans-52" transform="translate(529.976562 0)"/>
     <use xlink:href="#DejaVuSans-65" transform="translate(594.958984 0)"/>
     <use xlink:href="#DejaVuSans-73" transform="translate(656.482422 0)"/>
     <use xlink:href="#DejaVuSans-65" transform="translate(708.582031 0)"/>
     <use xlink:href="#DejaVuSans-65" transform="translate(770.105469 0)"/>
     <use xlink:href="#DejaVuSans-6b" transform="translate(831.628906 0)"/>
     <use xlink:href="#DejaVuSans-20" transform="translate(889.539062 0)"/>
     <use xlink:href="#DejaVuSans-45" transform="translate(921.326172 0)"/>
     <use xlink:href="#DejaVuSans-2d" transform="translate(984.509766 0)"/>
     <use xlink:href="#DejaVuSans-76" transform="translate(1017.96875 0)"/>
     <use xlink:href="#DejaVuSans-61" transform="translate(1077.148438 0)"/>
     <use xlink:href="#DejaVuSans-6c" transform="translate(1138.427734 0)"/>
     <use xlink:href="#DejaVuSans-75" transform="translate(1166.210938 0)"/>
     <use xlink:href="#DejaVuSans-65" transform="translate(1229.589844 0)"/>
     <use xlink:href="#DejaVuSans-20" transform="translate(1291.113281 0)"/>
     <use xlink:href="#DejaVuSans-28" transform="translate(1322.900391 0)"/>
     <use xlink:href="#DejaVuSans-6c" transform="translate(1361.914062 0)"/>
     <use xlink:href="#DejaVuSans-6f" transform="translate(1389.697266 0)"/>
     <use xlink:href="#DejaVuSans-67" transform="translate(1450.878906 0)"/>
     <use xlink:href="#DejaVuSans-73" transform="translate(1514.355469 0)"/>
     <use xlink:href="#DejaVuSans-63" transform="translate(1566.455078 0)"/>
     <use xlink:href="#DejaVuSans-61" transform="translate(1621.435547 0)"/>
     <use xlink:href="#DejaVuSans-6c" transform="translate(1682.714844 0)"/>
     <use xlink:href="#DejaVuSans-65" transform="translate(1710.498047 0)"/>
     <use xlink:href="#DejaVuSans-29" transform="translate(1772.021484 0)"/>
    </g>
   </g>
   <g id="legend_2">
    <g id="patch_13">
     <path d="M 637.991744 129.296875 
L 722.230806 129.296875 
Q 724.230806 129.296875 724.230806 127.296875 
L 724.230806 54.90625 
Q 724.230806 52.90625 722.230806 52.90625 
L 637.991744 52.90625 
Q 635.991744 52.90625 635.991744 54.90625 
L 635.991744 127.296875 
Q 635.991744 129.296875 637.991744 129.296875 
z
" style="fill: #ffffff; opacity: 0.8; stroke: #cccccc; stroke-linejoin: miter"/>
    </g>
    <g id="line2d_61">
     <path d="M 639.991744 61.004687 
L 649.991744 61.004687 
L 659.991744 61.004687 
" style="fill: none; stroke-dasharray: 9.6,2.4,1.5,2.4; stroke-dashoffset: 0; stroke: #000000; stroke-width: 1.5"/>
    </g>
    <g id="text_33">
     <!-- SCOP40x8 -->
     <g transform="translate(667.991744 64.504687) scale(0.1 -0.1)">
      <use xlink:href="#DejaVuSans-53"/>
      <use xlink:href="#DejaVuSans-43" transform="translate(63.476562 0)"/>
      <use xlink:href="#DejaVuSans-4f" transform="translate(133.300781 0)"/>
      <use xlink:href="#DejaVuSans-50" transform="translate(212.011719 0)"/>
      <use xlink:href="#DejaVuSans-34" transform="translate(272.314453 0)"/>
      <use xlink:href="#DejaVuSans-30" transform="translate(335.9375 0)"/>
      <use xlink:href="#DejaVuSans-78" transform="translate(399.560547 0)"/>
      <use xlink:href="#DejaVuSans-38" transform="translate(458.740234 0)"/>
     </g>
    </g>
    <g id="line2d_62">
     <path d="M 639.991744 75.682812 
L 649.991744 75.682812 
L 659.991744 75.682812 
" style="fill: none; stroke: #000000; stroke-width: 1.5; stroke-linecap: square"/>
    </g>
    <g id="text_34">
     <!-- SCOP40 -->
     <g transform="translate(667.991744 79.182812) scale(0.1 -0.1)">
      <use xlink:href="#DejaVuSans-53"/>
      <use xlink:href="#DejaVuSans-43" transform="translate(63.476562 0)"/>
      <use xlink:href="#DejaVuSans-4f" transform="translate(133.300781 0)"/>
      <use xlink:href="#DejaVuSans-50" transform="translate(212.011719 0)"/>
      <use xlink:href="#DejaVuSans-34" transform="translate(272.314453 0)"/>
      <use xlink:href="#DejaVuSans-30" transform="translate(335.9375 0)"/>
     </g>
    </g>
    <g id="line2d_63">
     <path d="M 639.991744 90.360937 
L 649.991744 90.360937 
L 659.991744 90.360937 
" style="fill: none; stroke: #a9a9a9; stroke-width: 1.5; stroke-linecap: square"/>
    </g>
    <g id="text_35">
     <!-- SCOP40/2 -->
     <g transform="translate(667.991744 93.860937) scale(0.1 -0.1)">
      <use xlink:href="#DejaVuSans-53"/>
      <use xlink:href="#DejaVuSans-43" transform="translate(63.476562 0)"/>
      <use xlink:href="#DejaVuSans-4f" transform="translate(133.300781 0)"/>
      <use xlink:href="#DejaVuSans-50" transform="translate(212.011719 0)"/>
      <use xlink:href="#DejaVuSans-34" transform="translate(272.314453 0)"/>
      <use xlink:href="#DejaVuSans-30" transform="translate(335.9375 0)"/>
      <use xlink:href="#DejaVuSans-2f" transform="translate(399.560547 0)"/>
      <use xlink:href="#DejaVuSans-32" transform="translate(433.251953 0)"/>
     </g>
    </g>
    <g id="line2d_64">
     <path d="M 639.991744 105.039062 
L 649.991744 105.039062 
L 659.991744 105.039062 
" style="fill: none; stroke-dasharray: 5.55,2.4; stroke-dashoffset: 0; stroke: #a9a9a9; stroke-width: 1.5"/>
    </g>
    <g id="text_36">
     <!-- SCOP40/4 -->
     <g transform="translate(667.991744 108.539062) scale(0.1 -0.1)">
      <use xlink:href="#DejaVuSans-53"/>
      <use xlink:href="#DejaVuSans-43" transform="translate(63.476562 0)"/>
      <use xlink:href="#DejaVuSans-4f" transform="translate(133.300781 0)"/>
      <use xlink:href="#DejaVuSans-50" transform="translate(212.011719 0)"/>
      <use xlink:href="#DejaVuSans-34" transform="translate(272.314453 0)"/>
      <use xlink:href="#DejaVuSans-30" transform="translate(335.9375 0)"/>
      <use xlink:href="#DejaVuSans-2f" transform="translate(399.560547 0)"/>
      <use xlink:href="#DejaVuSans-34" transform="translate(433.251953 0)"/>
     </g>
    </g>
    <g id="line2d_65">
     <path d="M 639.991744 119.717187 
L 649.991744 119.717187 
L 659.991744 119.717187 
" style="fill: none; stroke-dasharray: 1.5,2.475; stroke-dashoffset: 0; stroke: #808080; stroke-width: 1.5"/>
    </g>
    <g id="text_37">
     <!-- SCOP40/8 -->
     <g transform="translate(667.991744 123.217187) scale(0.1 -0.1)">
      <use xlink:href="#DejaVuSans-53"/>
      <use xlink:href="#DejaVuSans-43" transform="translate(63.476562 0)"/>
      <use xlink:href="#DejaVuSans-4f" transform="translate(133.300781 0)"/>
      <use xlink:href="#DejaVuSans-50" transform="translate(212.011719 0)"/>
      <use xlink:href="#DejaVuSans-34" transform="translate(272.314453 0)"/>
      <use xlink:href="#DejaVuSans-30" transform="translate(335.9375 0)"/>
      <use xlink:href="#DejaVuSans-2f" transform="translate(399.560547 0)"/>
      <use xlink:href="#DejaVuSans-38" transform="translate(433.251953 0)"/>
     </g>
    </g>
   </g>
  </g>
  <g id="text_38">
   <!-- ../plots/P_F_score.reseek.dbsize.svg -->
   <g transform="translate(264.478216 14.728515) scale(0.12 -0.12)">
    <defs>
     <path id="DejaVuSans-70" d="M 1159 525 
L 1159 -1331 
L 581 -1331 
L 581 3500 
L 1159 3500 
L 1159 2969 
Q 1341 3281 1617 3432 
Q 1894 3584 2278 3584 
Q 2916 3584 3314 3078 
Q 3713 2572 3713 1747 
Q 3713 922 3314 415 
Q 2916 -91 2278 -91 
Q 1894 -91 1617 61 
Q 1341 213 1159 525 
z
M 3116 1747 
Q 3116 2381 2855 2742 
Q 2594 3103 2138 3103 
Q 1681 3103 1420 2742 
Q 1159 2381 1159 1747 
Q 1159 1113 1420 752 
Q 1681 391 2138 391 
Q 2594 391 2855 752 
Q 3116 1113 3116 1747 
z
" transform="scale(0.015625)"/>
     <path id="DejaVuSans-74" d="M 1172 4494 
L 1172 3500 
L 2356 3500 
L 2356 3053 
L 1172 3053 
L 1172 1153 
Q 1172 725 1289 603 
Q 1406 481 1766 481 
L 2356 481 
L 2356 0 
L 1766 0 
Q 1100 0 847 248 
Q 594 497 594 1153 
L 594 3053 
L 172 3053 
L 172 3500 
L 594 3500 
L 594 4494 
L 1172 4494 
z
" transform="scale(0.015625)"/>
     <path id="DejaVuSans-5f" d="M 3263 -1063 
L 3263 -1509 
L -63 -1509 
L -63 -1063 
L 3263 -1063 
z
" transform="scale(0.015625)"/>
     <path id="DejaVuSans-64" d="M 2906 2969 
L 2906 4863 
L 3481 4863 
L 3481 0 
L 2906 0 
L 2906 525 
Q 2725 213 2448 61 
Q 2172 -91 1784 -91 
Q 1150 -91 751 415 
Q 353 922 353 1747 
Q 353 2572 751 3078 
Q 1150 3584 1784 3584 
Q 2172 3584 2448 3432 
Q 2725 3281 2906 2969 
z
M 947 1747 
Q 947 1113 1208 752 
Q 1469 391 1925 391 
Q 2381 391 2643 752 
Q 2906 1113 2906 1747 
Q 2906 2381 2643 2742 
Q 2381 3103 1925 3103 
Q 1469 3103 1208 2742 
Q 947 2381 947 1747 
z
" transform="scale(0.015625)"/>
     <path id="DejaVuSans-62" d="M 3116 1747 
Q 3116 2381 2855 2742 
Q 2594 3103 2138 3103 
Q 1681 3103 1420 2742 
Q 1159 2381 1159 1747 
Q 1159 1113 1420 752 
Q 1681 391 2138 391 
Q 2594 391 2855 752 
Q 3116 1113 3116 1747 
z
M 1159 2969 
Q 1341 3281 1617 3432 
Q 1894 3584 2278 3584 
Q 2916 3584 3314 3078 
Q 3713 2572 3713 1747 
Q 3713 922 3314 415 
Q 2916 -91 2278 -91 
Q 1894 -91 1617 61 
Q 1341 213 1159 525 
L 1159 0 
L 581 0 
L 581 4863 
L 1159 4863 
L 1159 2969 
z
" transform="scale(0.015625)"/>
     <path id="DejaVuSans-69" d="M 603 3500 
L 1178 3500 
L 1178 0 
L 603 0 
L 603 3500 
z
M 603 4863 
L 1178 4863 
L 1178 4134 
L 603 4134 
L 603 4863 
z
" transform="scale(0.015625)"/>
     <path id="DejaVuSans-7a" d="M 353 3500 
L 3084 3500 
L 3084 2975 
L 922 459 
L 3084 459 
L 3084 0 
L 275 0 
L 275 525 
L 2438 3041 
L 353 3041 
L 353 3500 
z
" transform="scale(0.015625)"/>
    </defs>
    <use xlink:href="#DejaVuSans-2e"/>
    <use xlink:href="#DejaVuSans-2e" transform="translate(31.787109 0)"/>
    <use xlink:href="#DejaVuSans-2f" transform="translate(63.574219 0)"/>
    <use xlink:href="#DejaVuSans-70" transform="translate(97.265625 0)"/>
    <use xlink:href="#DejaVuSans-6c" transform="translate(160.742188 0)"/>
    <use xlink:href="#DejaVuSans-6f" transform="translate(188.525391 0)"/>
    <use xlink:href="#DejaVuSans-74" transform="translate(249.707031 0)"/>
    <use xlink:href="#DejaVuSans-73" transform="translate(288.916016 0)"/>
    <use xlink:href="#DejaVuSans-2f" transform="translate(341.015625 0)"/>
    <use xlink:href="#DejaVuSans-50" transform="translate(374.707031 0)"/>
    <use xlink:href="#DejaVuSans-5f" transform="translate(435.009766 0)"/>
    <use xlink:href="#DejaVuSans-46" transform="translate(485.009766 0)"/>
    <use xlink:href="#DejaVuSans-5f" transform="translate(542.529297 0)"/>
    <use xlink:href="#DejaVuSans-73" transform="translate(592.529297 0)"/>
    <use xlink:href="#DejaVuSans-63" transform="translate(644.628906 0)"/>
    <use xlink:href="#DejaVuSans-6f" transform="translate(699.609375 0)"/>
    <use xlink:href="#DejaVuSans-72" transform="translate(760.791016 0)"/>
    <use xlink:href="#DejaVuSans-65" transform="translate(799.654297 0)"/>
    <use xlink:href="#DejaVuSans-2e" transform="translate(861.177734 0)"/>
    <use xlink:href="#DejaVuSans-72" transform="translate(892.964844 0)"/>
    <use xlink:href="#DejaVuSans-65" transform="translate(931.828125 0)"/>
    <use xlink:href="#DejaVuSans-73" transform="translate(993.351562 0)"/>
    <use xlink:href="#DejaVuSans-65" transform="translate(1045.451172 0)"/>
    <use xlink:href="#DejaVuSans-65" transform="translate(1106.974609 0)"/>
    <use xlink:href="#DejaVuSans-6b" transform="translate(1168.498047 0)"/>
    <use xlink:href="#DejaVuSans-2e" transform="translate(1226.408203 0)"/>
    <use xlink:href="#DejaVuSans-64" transform="translate(1258.195312 0)"/>
    <use xlink:href="#DejaVuSans-62" transform="translate(1321.671875 0)"/>
    <use xlink:href="#DejaVuSans-73" transform="translate(1385.148438 0)"/>
    <use xlink:href="#DejaVuSans-69" transform="translate(1437.248047 0)"/>
    <use xlink:href="#DejaVuSans-7a" transform="translate(1465.03125 0)"/>
    <use xlink:href="#DejaVuSans-65" transform="translate(1517.521484 0)"/>
    <use xlink:href="#DejaVuSans-2e" transform="translate(1579.044922 0)"/>
    <use xlink:href="#DejaVuSans-73" transform="translate(1610.832031 0)"/>
    <use xlink:href="#DejaVuSans-76" transform="translate(1662.931641 0)"/>
    <use xlink:href="#DejaVuSans-67" transform="translate(1722.111328 0)"/>
   </g>
  </g>
 </g>
 <defs>
  <clipPath id="p1760a02e35">
   <rect x="48.17" y="47.90625" width="310.81273" height="190.653231"/>
  </clipPath>
  <clipPath id="peb31d5fc2d">
   <rect x="418.418076" y="47.90625" width="310.81273" height="190.653231"/>
  </clipPath>
 </defs>
</svg>
