<?xml version="1.0" encoding="utf-8" standalone="no"?>
<!DOCTYPE svg PUBLIC "-//W3C//DTD SVG 1.1//EN"
  "http://www.w3.org/Graphics/SVG/1.1/DTD/svg11.dtd">
<svg xmlns:xlink="http://www.w3.org/1999/xlink" width="743.225806pt" height="280.519481pt" viewBox="0 0 743.225806 280.519481" xmlns="http://www.w3.org/2000/svg" version="1.1">
 <metadata>
  <rdf:RDF xmlns:dc="http://purl.org/dc/elements/1.1/" xmlns:cc="http://creativecommons.org/ns#" xmlns:rdf="http://www.w3.org/1999/02/22-rdf-syntax-ns#">
   <cc:Work>
    <dc:type rdf:resource="http://purl.org/dc/dcmitype/StillImage"/>
    <dc:date>2025-06-01T13:08:56.075824</dc:date>
    <dc:format>image/svg+xml</dc:format>
    <dc:creator>
     <cc:Agent>
      <dc:title>Matplotlib v3.9.2, https://matplotlib.org/</dc:title>
     </cc:Agent>
    </dc:creator>
   </cc:Work>
  </rdf:RDF>
 </metadata>
 <defs>
  <style type="text/css">*{stroke-linejoin: round; stroke-linecap: butt}</style>
 </defs>
 <g id="figure_1">
  <g id="patch_1">
   <path d="M 0 280.519481 
L 743.225806 280.519481 
L 743.225806 0 
L 0 0 
z
" style="fill: #ffffff"/>
  </g>
  <g id="axes_1">
   <g id="patch_2">
    <path d="M 48.17 238.559481 
L 362.17773 238.559481 
L 362.17773 47.90625 
L 48.17 47.90625 
z
" style="fill: #ffffff"/>
   </g>
   <g id="matplotlib.axis_1">
    <g id="xtick_1">
     <g id="line2d_1">
      <defs>
       <path id="md424d56f3a" d="M 0 0 
L 0 3.5 
" style="stroke: #000000; stroke-width: 0.8"/>
      </defs>
      <g>
       <use xlink:href="#md424d56f3a" x="48.17" y="238.559481" style="stroke: #000000; stroke-width: 0.8"/>
      </g>
     </g>
     <g id="text_1">
      <!-- 2 -->
      <g transform="translate(44.98875 253.157918) scale(0.1 -0.1)">
       <defs>
        <path id="DejaVuSans-32" d="M 1228 531 
L 3431 531 
L 3431 0 
L 469 0 
L 469 531 
Q 828 903 1448 1529 
Q 2069 2156 2228 2338 
Q 2531 2678 2651 2914 
Q 2772 3150 2772 3378 
Q 2772 3750 2511 3984 
Q 2250 4219 1831 4219 
Q 1534 4219 1204 4116 
Q 875 4013 500 3803 
L 500 4441 
Q 881 4594 1212 4672 
Q 1544 4750 1819 4750 
Q 2544 4750 2975 4387 
Q 3406 4025 3406 3419 
Q 3406 3131 3298 2873 
Q 3191 2616 2906 2266 
Q 2828 2175 2409 1742 
Q 1991 1309 1228 531 
z
" transform="scale(0.015625)"/>
       </defs>
       <use xlink:href="#DejaVuSans-32"/>
      </g>
     </g>
    </g>
    <g id="xtick_2">
     <g id="line2d_2">
      <g>
       <use xlink:href="#md424d56f3a" x="96.478882" y="238.559481" style="stroke: #000000; stroke-width: 0.8"/>
      </g>
     </g>
     <g id="text_2">
      <!-- 4 -->
      <g transform="translate(93.297632 253.157918) scale(0.1 -0.1)">
       <defs>
        <path id="DejaVuSans-34" d="M 2419 4116 
L 825 1625 
L 2419 1625 
L 2419 4116 
z
M 2253 4666 
L 3047 4666 
L 3047 1625 
L 3713 1625 
L 3713 1100 
L 3047 1100 
L 3047 0 
L 2419 0 
L 2419 1100 
L 313 1100 
L 313 1709 
L 2253 4666 
z
" transform="scale(0.015625)"/>
       </defs>
       <use xlink:href="#DejaVuSans-34"/>
      </g>
     </g>
    </g>
    <g id="xtick_3">
     <g id="line2d_3">
      <g>
       <use xlink:href="#md424d56f3a" x="144.787763" y="238.559481" style="stroke: #000000; stroke-width: 0.8"/>
      </g>
     </g>
     <g id="text_3">
      <!-- 6 -->
      <g transform="translate(141.606513 253.157918) scale(0.1 -0.1)">
       <defs>
        <path id="DejaVuSans-36" d="M 2113 2584 
Q 1688 2584 1439 2293 
Q 1191 2003 1191 1497 
Q 1191 994 1439 701 
Q 1688 409 2113 409 
Q 2538 409 2786 701 
Q 3034 994 3034 1497 
Q 3034 2003 2786 2293 
Q 2538 2584 2113 2584 
z
M 3366 4563 
L 3366 3988 
Q 3128 4100 2886 4159 
Q 2644 4219 2406 4219 
Q 1781 4219 1451 3797 
Q 1122 3375 1075 2522 
Q 1259 2794 1537 2939 
Q 1816 3084 2150 3084 
Q 2853 3084 3261 2657 
Q 3669 2231 3669 1497 
Q 3669 778 3244 343 
Q 2819 -91 2113 -91 
Q 1303 -91 875 529 
Q 447 1150 447 2328 
Q 447 3434 972 4092 
Q 1497 4750 2381 4750 
Q 2619 4750 2861 4703 
Q 3103 4656 3366 4563 
z
" transform="scale(0.015625)"/>
       </defs>
       <use xlink:href="#DejaVuSans-36"/>
      </g>
     </g>
    </g>
    <g id="xtick_4">
     <g id="line2d_4">
      <g>
       <use xlink:href="#md424d56f3a" x="193.096645" y="238.559481" style="stroke: #000000; stroke-width: 0.8"/>
      </g>
     </g>
     <g id="text_4">
      <!-- 8 -->
      <g transform="translate(189.915395 253.157918) scale(0.1 -0.1)">
       <defs>
        <path id="DejaVuSans-38" d="M 2034 2216 
Q 1584 2216 1326 1975 
Q 1069 1734 1069 1313 
Q 1069 891 1326 650 
Q 1584 409 2034 409 
Q 2484 409 2743 651 
Q 3003 894 3003 1313 
Q 3003 1734 2745 1975 
Q 2488 2216 2034 2216 
z
M 1403 2484 
Q 997 2584 770 2862 
Q 544 3141 544 3541 
Q 544 4100 942 4425 
Q 1341 4750 2034 4750 
Q 2731 4750 3128 4425 
Q 3525 4100 3525 3541 
Q 3525 3141 3298 2862 
Q 3072 2584 2669 2484 
Q 3125 2378 3379 2068 
Q 3634 1759 3634 1313 
Q 3634 634 3220 271 
Q 2806 -91 2034 -91 
Q 1263 -91 848 271 
Q 434 634 434 1313 
Q 434 1759 690 2068 
Q 947 2378 1403 2484 
z
M 1172 3481 
Q 1172 3119 1398 2916 
Q 1625 2713 2034 2713 
Q 2441 2713 2670 2916 
Q 2900 3119 2900 3481 
Q 2900 3844 2670 4047 
Q 2441 4250 2034 4250 
Q 1625 4250 1398 4047 
Q 1172 3844 1172 3481 
z
" transform="scale(0.015625)"/>
       </defs>
       <use xlink:href="#DejaVuSans-38"/>
      </g>
     </g>
    </g>
    <g id="xtick_5">
     <g id="line2d_5">
      <g>
       <use xlink:href="#md424d56f3a" x="241.405526" y="238.559481" style="stroke: #000000; stroke-width: 0.8"/>
      </g>
     </g>
     <g id="text_5">
      <!-- 10 -->
      <g transform="translate(235.043026 253.157918) scale(0.1 -0.1)">
       <defs>
        <path id="DejaVuSans-31" d="M 794 531 
L 1825 531 
L 1825 4091 
L 703 3866 
L 703 4441 
L 1819 4666 
L 2450 4666 
L 2450 531 
L 3481 531 
L 3481 0 
L 794 0 
L 794 531 
z
" transform="scale(0.015625)"/>
        <path id="DejaVuSans-30" d="M 2034 4250 
Q 1547 4250 1301 3770 
Q 1056 3291 1056 2328 
Q 1056 1369 1301 889 
Q 1547 409 2034 409 
Q 2525 409 2770 889 
Q 3016 1369 3016 2328 
Q 3016 3291 2770 3770 
Q 2525 4250 2034 4250 
z
M 2034 4750 
Q 2819 4750 3233 4129 
Q 3647 3509 3647 2328 
Q 3647 1150 3233 529 
Q 2819 -91 2034 -91 
Q 1250 -91 836 529 
Q 422 1150 422 2328 
Q 422 3509 836 4129 
Q 1250 4750 2034 4750 
z
" transform="scale(0.015625)"/>
       </defs>
       <use xlink:href="#DejaVuSans-31"/>
       <use xlink:href="#DejaVuSans-30" x="63.623047"/>
      </g>
     </g>
    </g>
    <g id="xtick_6">
     <g id="line2d_6">
      <g>
       <use xlink:href="#md424d56f3a" x="289.714408" y="238.559481" style="stroke: #000000; stroke-width: 0.8"/>
      </g>
     </g>
     <g id="text_6">
      <!-- 12 -->
      <g transform="translate(283.351908 253.157918) scale(0.1 -0.1)">
       <use xlink:href="#DejaVuSans-31"/>
       <use xlink:href="#DejaVuSans-32" x="63.623047"/>
      </g>
     </g>
    </g>
    <g id="xtick_7">
     <g id="line2d_7">
      <g>
       <use xlink:href="#md424d56f3a" x="338.023289" y="238.559481" style="stroke: #000000; stroke-width: 0.8"/>
      </g>
     </g>
     <g id="text_7">
      <!-- 14 -->
      <g transform="translate(331.660789 253.157918) scale(0.1 -0.1)">
       <use xlink:href="#DejaVuSans-31"/>
       <use xlink:href="#DejaVuSans-34" x="63.623047"/>
      </g>
     </g>
    </g>
    <g id="text_8">
     <!-- Z score -->
     <g transform="translate(186.72699 266.836043) scale(0.1 -0.1)">
      <defs>
       <path id="DejaVuSans-5a" d="M 359 4666 
L 4025 4666 
L 4025 4184 
L 1075 531 
L 4097 531 
L 4097 0 
L 288 0 
L 288 481 
L 3238 4134 
L 359 4134 
L 359 4666 
z
" transform="scale(0.015625)"/>
       <path id="DejaVuSans-20" transform="scale(0.015625)"/>
       <path id="DejaVuSans-73" d="M 2834 3397 
L 2834 2853 
Q 2591 2978 2328 3040 
Q 2066 3103 1784 3103 
Q 1356 3103 1142 2972 
Q 928 2841 928 2578 
Q 928 2378 1081 2264 
Q 1234 2150 1697 2047 
L 1894 2003 
Q 2506 1872 2764 1633 
Q 3022 1394 3022 966 
Q 3022 478 2636 193 
Q 2250 -91 1575 -91 
Q 1294 -91 989 -36 
Q 684 19 347 128 
L 347 722 
Q 666 556 975 473 
Q 1284 391 1588 391 
Q 1994 391 2212 530 
Q 2431 669 2431 922 
Q 2431 1156 2273 1281 
Q 2116 1406 1581 1522 
L 1381 1569 
Q 847 1681 609 1914 
Q 372 2147 372 2553 
Q 372 3047 722 3315 
Q 1072 3584 1716 3584 
Q 2034 3584 2315 3537 
Q 2597 3491 2834 3397 
z
" transform="scale(0.015625)"/>
       <path id="DejaVuSans-63" d="M 3122 3366 
L 3122 2828 
Q 2878 2963 2633 3030 
Q 2388 3097 2138 3097 
Q 1578 3097 1268 2742 
Q 959 2388 959 1747 
Q 959 1106 1268 751 
Q 1578 397 2138 397 
Q 2388 397 2633 464 
Q 2878 531 3122 666 
L 3122 134 
Q 2881 22 2623 -34 
Q 2366 -91 2075 -91 
Q 1284 -91 818 406 
Q 353 903 353 1747 
Q 353 2603 823 3093 
Q 1294 3584 2113 3584 
Q 2378 3584 2631 3529 
Q 2884 3475 3122 3366 
z
" transform="scale(0.015625)"/>
       <path id="DejaVuSans-6f" d="M 1959 3097 
Q 1497 3097 1228 2736 
Q 959 2375 959 1747 
Q 959 1119 1226 758 
Q 1494 397 1959 397 
Q 2419 397 2687 759 
Q 2956 1122 2956 1747 
Q 2956 2369 2687 2733 
Q 2419 3097 1959 3097 
z
M 1959 3584 
Q 2709 3584 3137 3096 
Q 3566 2609 3566 1747 
Q 3566 888 3137 398 
Q 2709 -91 1959 -91 
Q 1206 -91 779 398 
Q 353 888 353 1747 
Q 353 2609 779 3096 
Q 1206 3584 1959 3584 
z
" transform="scale(0.015625)"/>
       <path id="DejaVuSans-72" d="M 2631 2963 
Q 2534 3019 2420 3045 
Q 2306 3072 2169 3072 
Q 1681 3072 1420 2755 
Q 1159 2438 1159 1844 
L 1159 0 
L 581 0 
L 581 3500 
L 1159 3500 
L 1159 2956 
Q 1341 3275 1631 3429 
Q 1922 3584 2338 3584 
Q 2397 3584 2469 3576 
Q 2541 3569 2628 3553 
L 2631 2963 
z
" transform="scale(0.015625)"/>
       <path id="DejaVuSans-65" d="M 3597 1894 
L 3597 1613 
L 953 1613 
Q 991 1019 1311 708 
Q 1631 397 2203 397 
Q 2534 397 2845 478 
Q 3156 559 3463 722 
L 3463 178 
Q 3153 47 2828 -22 
Q 2503 -91 2169 -91 
Q 1331 -91 842 396 
Q 353 884 353 1716 
Q 353 2575 817 3079 
Q 1281 3584 2069 3584 
Q 2775 3584 3186 3129 
Q 3597 2675 3597 1894 
z
M 3022 2063 
Q 3016 2534 2758 2815 
Q 2500 3097 2075 3097 
Q 1594 3097 1305 2825 
Q 1016 2553 972 2059 
L 3022 2063 
z
" transform="scale(0.015625)"/>
      </defs>
      <use xlink:href="#DejaVuSans-5a"/>
      <use xlink:href="#DejaVuSans-20" x="68.505859"/>
      <use xlink:href="#DejaVuSans-73" x="100.292969"/>
      <use xlink:href="#DejaVuSans-63" x="152.392578"/>
      <use xlink:href="#DejaVuSans-6f" x="207.373047"/>
      <use xlink:href="#DejaVuSans-72" x="268.554688"/>
      <use xlink:href="#DejaVuSans-65" x="307.417969"/>
     </g>
    </g>
   </g>
   <g id="matplotlib.axis_2">
    <g id="ytick_1">
     <g id="line2d_8">
      <defs>
       <path id="mefae7ea195" d="M 0 0 
L -3.5 0 
" style="stroke: #000000; stroke-width: 0.8"/>
      </defs>
      <g>
       <use xlink:href="#mefae7ea195" x="48.17" y="229.893425" style="stroke: #000000; stroke-width: 0.8"/>
      </g>
     </g>
     <g id="text_9">
      <!-- 0.0 -->
      <g transform="translate(25.266875 233.692643) scale(0.1 -0.1)">
       <defs>
        <path id="DejaVuSans-2e" d="M 684 794 
L 1344 794 
L 1344 0 
L 684 0 
L 684 794 
z
" transform="scale(0.015625)"/>
       </defs>
       <use xlink:href="#DejaVuSans-30"/>
       <use xlink:href="#DejaVuSans-2e" x="63.623047"/>
       <use xlink:href="#DejaVuSans-30" x="95.410156"/>
      </g>
     </g>
    </g>
    <g id="ytick_2">
     <g id="line2d_9">
      <g>
       <use xlink:href="#mefae7ea195" x="48.17" y="194.836564" style="stroke: #000000; stroke-width: 0.8"/>
      </g>
     </g>
     <g id="text_10">
      <!-- 0.2 -->
      <g transform="translate(25.266875 198.635782) scale(0.1 -0.1)">
       <use xlink:href="#DejaVuSans-30"/>
       <use xlink:href="#DejaVuSans-2e" x="63.623047"/>
       <use xlink:href="#DejaVuSans-32" x="95.410156"/>
      </g>
     </g>
    </g>
    <g id="ytick_3">
     <g id="line2d_10">
      <g>
       <use xlink:href="#mefae7ea195" x="48.17" y="159.779703" style="stroke: #000000; stroke-width: 0.8"/>
      </g>
     </g>
     <g id="text_11">
      <!-- 0.4 -->
      <g transform="translate(25.266875 163.578921) scale(0.1 -0.1)">
       <use xlink:href="#DejaVuSans-30"/>
       <use xlink:href="#DejaVuSans-2e" x="63.623047"/>
       <use xlink:href="#DejaVuSans-34" x="95.410156"/>
      </g>
     </g>
    </g>
    <g id="ytick_4">
     <g id="line2d_11">
      <g>
       <use xlink:href="#mefae7ea195" x="48.17" y="124.722842" style="stroke: #000000; stroke-width: 0.8"/>
      </g>
     </g>
     <g id="text_12">
      <!-- 0.6 -->
      <g transform="translate(25.266875 128.52206) scale(0.1 -0.1)">
       <use xlink:href="#DejaVuSans-30"/>
       <use xlink:href="#DejaVuSans-2e" x="63.623047"/>
       <use xlink:href="#DejaVuSans-36" x="95.410156"/>
      </g>
     </g>
    </g>
    <g id="ytick_5">
     <g id="line2d_12">
      <g>
       <use xlink:href="#mefae7ea195" x="48.17" y="89.665981" style="stroke: #000000; stroke-width: 0.8"/>
      </g>
     </g>
     <g id="text_13">
      <!-- 0.8 -->
      <g transform="translate(25.266875 93.4652) scale(0.1 -0.1)">
       <use xlink:href="#DejaVuSans-30"/>
       <use xlink:href="#DejaVuSans-2e" x="63.623047"/>
       <use xlink:href="#DejaVuSans-38" x="95.410156"/>
      </g>
     </g>
    </g>
    <g id="ytick_6">
     <g id="line2d_13">
      <g>
       <use xlink:href="#mefae7ea195" x="48.17" y="54.60912" style="stroke: #000000; stroke-width: 0.8"/>
      </g>
     </g>
     <g id="text_14">
      <!-- 1.0 -->
      <g transform="translate(25.266875 58.408339) scale(0.1 -0.1)">
       <use xlink:href="#DejaVuSans-31"/>
       <use xlink:href="#DejaVuSans-2e" x="63.623047"/>
       <use xlink:href="#DejaVuSans-30" x="95.410156"/>
      </g>
     </g>
    </g>
    <g id="text_15">
     <!-- P(F|score) -->
     <g transform="translate(18.909062 168.14224) rotate(-90) scale(0.1 -0.1)">
      <defs>
       <path id="DejaVuSans-50" d="M 1259 4147 
L 1259 2394 
L 2053 2394 
Q 2494 2394 2734 2622 
Q 2975 2850 2975 3272 
Q 2975 3691 2734 3919 
Q 2494 4147 2053 4147 
L 1259 4147 
z
M 628 4666 
L 2053 4666 
Q 2838 4666 3239 4311 
Q 3641 3956 3641 3272 
Q 3641 2581 3239 2228 
Q 2838 1875 2053 1875 
L 1259 1875 
L 1259 0 
L 628 0 
L 628 4666 
z
" transform="scale(0.015625)"/>
       <path id="DejaVuSans-28" d="M 1984 4856 
Q 1566 4138 1362 3434 
Q 1159 2731 1159 2009 
Q 1159 1288 1364 580 
Q 1569 -128 1984 -844 
L 1484 -844 
Q 1016 -109 783 600 
Q 550 1309 550 2009 
Q 550 2706 781 3412 
Q 1013 4119 1484 4856 
L 1984 4856 
z
" transform="scale(0.015625)"/>
       <path id="DejaVuSans-46" d="M 628 4666 
L 3309 4666 
L 3309 4134 
L 1259 4134 
L 1259 2759 
L 3109 2759 
L 3109 2228 
L 1259 2228 
L 1259 0 
L 628 0 
L 628 4666 
z
" transform="scale(0.015625)"/>
       <path id="DejaVuSans-7c" d="M 1344 4891 
L 1344 -1509 
L 813 -1509 
L 813 4891 
L 1344 4891 
z
" transform="scale(0.015625)"/>
       <path id="DejaVuSans-29" d="M 513 4856 
L 1013 4856 
Q 1481 4119 1714 3412 
Q 1947 2706 1947 2009 
Q 1947 1309 1714 600 
Q 1481 -109 1013 -844 
L 513 -844 
Q 928 -128 1133 580 
Q 1338 1288 1338 2009 
Q 1338 2731 1133 3434 
Q 928 4138 513 4856 
z
" transform="scale(0.015625)"/>
      </defs>
      <use xlink:href="#DejaVuSans-50"/>
      <use xlink:href="#DejaVuSans-28" x="60.302734"/>
      <use xlink:href="#DejaVuSans-46" x="99.316406"/>
      <use xlink:href="#DejaVuSans-7c" x="156.835938"/>
      <use xlink:href="#DejaVuSans-73" x="190.527344"/>
      <use xlink:href="#DejaVuSans-63" x="242.626953"/>
      <use xlink:href="#DejaVuSans-6f" x="297.607422"/>
      <use xlink:href="#DejaVuSans-72" x="358.789062"/>
      <use xlink:href="#DejaVuSans-65" x="397.652344"/>
      <use xlink:href="#DejaVuSans-29" x="459.175781"/>
     </g>
    </g>
   </g>
   <g id="line2d_14">
    <path d="M 48.17 56.572306 
L 67.203699 58.693243 
L 86.237399 62.093758 
L 105.271098 67.948254 
L 124.304797 76.537189 
L 143.314342 88.982371 
L 162.348042 107.720259 
L 181.381741 128.193468 
L 200.41544 144.196927 
L 219.44914 149.911198 
L 238.482839 152.312589 
L 257.589002 155.029498 
L 276.429465 162.444026 
L 295.511474 173.329181 
L 314.593482 182.812063 
L 333.67549 190.682325 
L 352.757498 198.833045 
L 371.597962 207.667375 
L 390.67997 209.946071 
L 409.761978 215.786543 
L 428.843987 215.467526 
L 447.925995 218.701522 
L 466.766459 218.180927 
L 485.848467 220.496433 
L 504.930475 222.76987 
L 524.012483 223.537615 
L 542.852947 224.189673 
L 561.934955 225.942516 
L 581.016964 226.549 
L 600.098972 224.394756 
L 619.18098 225.830334 
L 638.021444 226.641901 
L 657.103452 227.222092 
L 676.18546 227.579672 
L 695.267469 225.723411 
L 714.349477 228.266611 
L 733.189941 228.647328 
L 744.225806 229.367994 
" clip-path="url(#pb74660e7aa)" style="fill: none; stroke: #000000; stroke-width: 1.5; stroke-linecap: square"/>
   </g>
   <g id="line2d_15">
    <path d="M 48.17 56.870286 
L 67.203699 59.937759 
L 86.237399 65.196293 
L 105.271098 73.925448 
L 124.304797 86.160296 
L 143.314342 103.618616 
L 162.348042 125.318809 
L 181.381741 147.579916 
L 200.41544 162.005811 
L 219.44914 169.490455 
L 238.482839 176.642055 
L 257.589002 187.597322 
L 276.429465 197.904038 
L 295.511474 208.088058 
L 314.593482 218.038947 
L 333.67549 221.362337 
L 352.757498 224.529725 
L 371.597962 226.650665 
L 390.67997 226.620867 
L 409.761978 227.655044 
L 428.843987 228.866434 
L 447.925995 229.167923 
L 466.766459 228.638564 
L 485.848467 228.665207 
L 504.930475 228.645926 
L 524.012483 228.484665 
L 542.852947 229.461174 
L 561.934955 229.424714 
L 581.016964 229.893425 
L 600.098972 229.893425 
L 619.18098 229.893425 
L 638.021444 229.893425 
L 657.103452 229.893425 
L 676.18546 229.893425 
L 695.267469 229.893425 
L 714.349477 229.893425 
L 733.189941 229.893425 
L 744.225806 229.893425 
" clip-path="url(#pb74660e7aa)" style="fill: none; stroke: #00ffff; stroke-width: 1.5; stroke-linecap: square"/>
   </g>
   <g id="line2d_16">
    <path d="M 48.17 58.465377 
L 67.203699 63.723901 
L 86.237399 72.312837 
L 105.271098 86.51086 
L 124.304797 103.513438 
L 143.314342 121.743011 
L 162.348042 141.374852 
L 181.381741 155.047029 
L 200.41544 165.73937 
L 219.44914 169.595622 
L 238.482839 169.06977 
L 257.589002 169.770909 
L 276.429465 173.451879 
L 295.511474 180.638537 
L 314.593482 187.124054 
L 333.67549 196.939976 
L 352.757498 203.776062 
L 371.597962 209.911014 
L 390.67997 214.713804 
L 409.761978 219.989862 
L 428.843987 220.866283 
L 447.925995 223.58319 
L 466.766459 222.46137 
L 485.848467 224.494668 
L 504.930475 226.738307 
L 524.012483 227.123933 
L 542.852947 225.038049 
L 561.934955 226.580551 
L 581.016964 226.843478 
L 600.098972 225.406146 
L 619.18098 226.457852 
L 638.021444 227.544615 
L 657.103452 228.464857 
L 676.18546 226.545495 
L 695.267469 223.793531 
L 714.349477 227.421916 
L 733.189941 228.468363 
L 744.225806 229.292532 
" clip-path="url(#pb74660e7aa)" style="fill: none; stroke: #ffa500; stroke-width: 1.5; stroke-linecap: square"/>
   </g>
   <g id="line2d_17">
    <path d="M 48.17 58.815941 
L 67.203699 64.42504 
L 86.237399 74.065678 
L 105.271098 91.068256 
L 124.304797 115.958631 
L 143.314342 144.880534 
L 162.348042 172.575458 
L 181.381741 188.175759 
L 200.41544 193.083722 
L 219.44914 191.155593 
L 238.482839 188.175759 
L 257.589002 189.052182 
L 276.429465 195.187132 
L 295.511474 205.178337 
L 314.593482 211.839141 
L 333.67549 217.343069 
L 352.757498 222.058216 
L 371.597962 225.020521 
L 390.67997 225.721658 
L 409.761978 227.106404 
L 428.843987 225.721658 
L 447.925995 226.668193 
L 466.766459 226.03717 
L 485.848467 227.667314 
L 504.930475 227.439444 
L 524.012483 227.03629 
L 542.852947 227.281688 
L 561.934955 227.001234 
L 581.016964 227.194046 
L 600.098972 225.756715 
L 619.18098 226.317625 
L 638.021444 226.650665 
L 657.103452 229.893425 
L 676.18546 227.439444 
L 695.267469 226.212454 
L 714.349477 227.807541 
L 733.189941 228.960912 
L 744.225806 229.50022 
" clip-path="url(#pb74660e7aa)" style="fill: none; stroke-dasharray: 1.5,2.475; stroke-dashoffset: 0; stroke: #ffa500; stroke-width: 1.5"/>
   </g>
   <g id="line2d_18">
    <path d="M 48.17 65.301461 
L 67.203699 78.447781 
L 86.237399 98.78076 
L 105.271098 127.001536 
L 124.304797 151.89191 
L 143.314342 171.173181 
L 162.348042 186.072348 
L 181.381741 197.290543 
L 200.41544 207.807602 
L 219.44914 215.835623 
L 238.482839 221.23438 
L 257.589002 223.705888 
L 276.429465 225.318504 
L 295.511474 227.667314 
L 314.593482 228.347417 
L 333.67549 228.566522 
L 352.757498 229.050307 
L 371.597962 228.768099 
L 390.67997 227.82507 
L 409.761978 228.673446 
L 428.843987 227.719899 
L 447.925995 228.070468 
L 466.766459 227.106404 
L 485.848467 228.18265 
L 504.930475 227.702371 
L 524.012483 228.000354 
L 542.852947 227.965297 
L 561.934955 227.018762 
L 581.016964 229.332515 
L 600.098972 227.176518 
L 619.18098 227.912712 
L 638.021444 229.26766 
L 657.103452 229.893425 
L 676.18546 229.358807 
L 695.267469 229.300964 
L 714.349477 227.772485 
L 733.189941 228.941631 
L 744.225806 229.49209 
" clip-path="url(#pb74660e7aa)" style="fill: none; stroke-dasharray: 5.55,2.4; stroke-dashoffset: 0; stroke: #ffa500; stroke-width: 1.5"/>
   </g>
   <g id="patch_3">
    <path d="M 48.17 238.559481 
L 48.17 47.90625 
" style="fill: none; stroke: #000000; stroke-width: 0.8; stroke-linejoin: miter; stroke-linecap: square"/>
   </g>
   <g id="patch_4">
    <path d="M 362.17773 238.559481 
L 362.17773 47.90625 
" style="fill: none; stroke: #000000; stroke-width: 0.8; stroke-linejoin: miter; stroke-linecap: square"/>
   </g>
   <g id="patch_5">
    <path d="M 48.17 238.559481 
L 362.17773 238.559481 
" style="fill: none; stroke: #000000; stroke-width: 0.8; stroke-linejoin: miter; stroke-linecap: square"/>
   </g>
   <g id="patch_6">
    <path d="M 48.17 47.90625 
L 362.17773 47.90625 
" style="fill: none; stroke: #000000; stroke-width: 0.8; stroke-linejoin: miter; stroke-linecap: square"/>
   </g>
   <g id="text_16">
    <!-- DALI -->
    <g transform="translate(191.441365 41.90625) scale(0.12 -0.12)">
     <defs>
      <path id="DejaVuSans-44" d="M 1259 4147 
L 1259 519 
L 2022 519 
Q 2988 519 3436 956 
Q 3884 1394 3884 2338 
Q 3884 3275 3436 3711 
Q 2988 4147 2022 4147 
L 1259 4147 
z
M 628 4666 
L 1925 4666 
Q 3281 4666 3915 4102 
Q 4550 3538 4550 2338 
Q 4550 1131 3912 565 
Q 3275 0 1925 0 
L 628 0 
L 628 4666 
z
" transform="scale(0.015625)"/>
      <path id="DejaVuSans-41" d="M 2188 4044 
L 1331 1722 
L 3047 1722 
L 2188 4044 
z
M 1831 4666 
L 2547 4666 
L 4325 0 
L 3669 0 
L 3244 1197 
L 1141 1197 
L 716 0 
L 50 0 
L 1831 4666 
z
" transform="scale(0.015625)"/>
      <path id="DejaVuSans-4c" d="M 628 4666 
L 1259 4666 
L 1259 531 
L 3531 531 
L 3531 0 
L 628 0 
L 628 4666 
z
" transform="scale(0.015625)"/>
      <path id="DejaVuSans-49" d="M 628 4666 
L 1259 4666 
L 1259 0 
L 628 0 
L 628 4666 
z
" transform="scale(0.015625)"/>
     </defs>
     <use xlink:href="#DejaVuSans-44"/>
     <use xlink:href="#DejaVuSans-41" x="75.251953"/>
     <use xlink:href="#DejaVuSans-4c" x="143.660156"/>
     <use xlink:href="#DejaVuSans-49" x="199.373047"/>
    </g>
   </g>
   <g id="legend_1">
    <g id="patch_7">
     <path d="M 261.388668 129.296875 
L 355.17773 129.296875 
Q 357.17773 129.296875 357.17773 127.296875 
L 357.17773 54.90625 
Q 357.17773 52.90625 355.17773 52.90625 
L 261.388668 52.90625 
Q 259.388668 52.90625 259.388668 54.90625 
L 259.388668 127.296875 
Q 259.388668 129.296875 261.388668 129.296875 
z
" style="fill: #ffffff; opacity: 0.8; stroke: #cccccc; stroke-linejoin: miter"/>
    </g>
    <g id="line2d_19">
     <path d="M 263.388668 61.004687 
L 273.388668 61.004687 
L 283.388668 61.004687 
" style="fill: none; stroke: #000000; stroke-width: 1.5; stroke-linecap: square"/>
    </g>
    <g id="text_17">
     <!-- SCOP40 -->
     <g transform="translate(291.388668 64.504687) scale(0.1 -0.1)">
      <defs>
       <path id="DejaVuSans-53" d="M 3425 4513 
L 3425 3897 
Q 3066 4069 2747 4153 
Q 2428 4238 2131 4238 
Q 1616 4238 1336 4038 
Q 1056 3838 1056 3469 
Q 1056 3159 1242 3001 
Q 1428 2844 1947 2747 
L 2328 2669 
Q 3034 2534 3370 2195 
Q 3706 1856 3706 1288 
Q 3706 609 3251 259 
Q 2797 -91 1919 -91 
Q 1588 -91 1214 -16 
Q 841 59 441 206 
L 441 856 
Q 825 641 1194 531 
Q 1563 422 1919 422 
Q 2459 422 2753 634 
Q 3047 847 3047 1241 
Q 3047 1584 2836 1778 
Q 2625 1972 2144 2069 
L 1759 2144 
Q 1053 2284 737 2584 
Q 422 2884 422 3419 
Q 422 4038 858 4394 
Q 1294 4750 2059 4750 
Q 2388 4750 2728 4690 
Q 3069 4631 3425 4513 
z
" transform="scale(0.015625)"/>
       <path id="DejaVuSans-43" d="M 4122 4306 
L 4122 3641 
Q 3803 3938 3442 4084 
Q 3081 4231 2675 4231 
Q 1875 4231 1450 3742 
Q 1025 3253 1025 2328 
Q 1025 1406 1450 917 
Q 1875 428 2675 428 
Q 3081 428 3442 575 
Q 3803 722 4122 1019 
L 4122 359 
Q 3791 134 3420 21 
Q 3050 -91 2638 -91 
Q 1578 -91 968 557 
Q 359 1206 359 2328 
Q 359 3453 968 4101 
Q 1578 4750 2638 4750 
Q 3056 4750 3426 4639 
Q 3797 4528 4122 4306 
z
" transform="scale(0.015625)"/>
       <path id="DejaVuSans-4f" d="M 2522 4238 
Q 1834 4238 1429 3725 
Q 1025 3213 1025 2328 
Q 1025 1447 1429 934 
Q 1834 422 2522 422 
Q 3209 422 3611 934 
Q 4013 1447 4013 2328 
Q 4013 3213 3611 3725 
Q 3209 4238 2522 4238 
z
M 2522 4750 
Q 3503 4750 4090 4092 
Q 4678 3434 4678 2328 
Q 4678 1225 4090 567 
Q 3503 -91 2522 -91 
Q 1538 -91 948 565 
Q 359 1222 359 2328 
Q 359 3434 948 4092 
Q 1538 4750 2522 4750 
z
" transform="scale(0.015625)"/>
      </defs>
      <use xlink:href="#DejaVuSans-53"/>
      <use xlink:href="#DejaVuSans-43" x="63.476562"/>
      <use xlink:href="#DejaVuSans-4f" x="133.300781"/>
      <use xlink:href="#DejaVuSans-50" x="212.011719"/>
      <use xlink:href="#DejaVuSans-34" x="272.314453"/>
      <use xlink:href="#DejaVuSans-30" x="335.9375"/>
     </g>
    </g>
    <g id="line2d_20">
     <path d="M 263.388668 75.682812 
L 273.388668 75.682812 
L 283.388668 75.682812 
" style="fill: none; stroke: #00ffff; stroke-width: 1.5; stroke-linecap: square"/>
    </g>
    <g id="text_18">
     <!-- SCOP40c -->
     <g transform="translate(291.388668 79.182812) scale(0.1 -0.1)">
      <use xlink:href="#DejaVuSans-53"/>
      <use xlink:href="#DejaVuSans-43" x="63.476562"/>
      <use xlink:href="#DejaVuSans-4f" x="133.300781"/>
      <use xlink:href="#DejaVuSans-50" x="212.011719"/>
      <use xlink:href="#DejaVuSans-34" x="272.314453"/>
      <use xlink:href="#DejaVuSans-30" x="335.9375"/>
      <use xlink:href="#DejaVuSans-63" x="399.560547"/>
     </g>
    </g>
    <g id="line2d_21">
     <path d="M 263.388668 90.360937 
L 273.388668 90.360937 
L 283.388668 90.360937 
" style="fill: none; stroke: #ffa500; stroke-width: 1.5; stroke-linecap: square"/>
    </g>
    <g id="text_19">
     <!-- SCOP40/SF2 -->
     <g transform="translate(291.388668 93.860937) scale(0.1 -0.1)">
      <defs>
       <path id="DejaVuSans-2f" d="M 1625 4666 
L 2156 4666 
L 531 -594 
L 0 -594 
L 1625 4666 
z
" transform="scale(0.015625)"/>
      </defs>
      <use xlink:href="#DejaVuSans-53"/>
      <use xlink:href="#DejaVuSans-43" x="63.476562"/>
      <use xlink:href="#DejaVuSans-4f" x="133.300781"/>
      <use xlink:href="#DejaVuSans-50" x="212.011719"/>
      <use xlink:href="#DejaVuSans-34" x="272.314453"/>
      <use xlink:href="#DejaVuSans-30" x="335.9375"/>
      <use xlink:href="#DejaVuSans-2f" x="399.560547"/>
      <use xlink:href="#DejaVuSans-53" x="433.251953"/>
      <use xlink:href="#DejaVuSans-46" x="496.728516"/>
      <use xlink:href="#DejaVuSans-32" x="554.248047"/>
     </g>
    </g>
    <g id="line2d_22">
     <path d="M 263.388668 105.039062 
L 273.388668 105.039062 
L 283.388668 105.039062 
" style="fill: none; stroke-dasharray: 1.5,2.475; stroke-dashoffset: 0; stroke: #ffa500; stroke-width: 1.5"/>
    </g>
    <g id="text_20">
     <!-- SCOP40/SF4 -->
     <g transform="translate(291.388668 108.539062) scale(0.1 -0.1)">
      <use xlink:href="#DejaVuSans-53"/>
      <use xlink:href="#DejaVuSans-43" x="63.476562"/>
      <use xlink:href="#DejaVuSans-4f" x="133.300781"/>
      <use xlink:href="#DejaVuSans-50" x="212.011719"/>
      <use xlink:href="#DejaVuSans-34" x="272.314453"/>
      <use xlink:href="#DejaVuSans-30" x="335.9375"/>
      <use xlink:href="#DejaVuSans-2f" x="399.560547"/>
      <use xlink:href="#DejaVuSans-53" x="433.251953"/>
      <use xlink:href="#DejaVuSans-46" x="496.728516"/>
      <use xlink:href="#DejaVuSans-34" x="554.248047"/>
     </g>
    </g>
    <g id="line2d_23">
     <path d="M 263.388668 119.717187 
L 273.388668 119.717187 
L 283.388668 119.717187 
" style="fill: none; stroke-dasharray: 5.55,2.4; stroke-dashoffset: 0; stroke: #ffa500; stroke-width: 1.5"/>
    </g>
    <g id="text_21">
     <!-- SCOP40/SF8 -->
     <g transform="translate(291.388668 123.217187) scale(0.1 -0.1)">
      <use xlink:href="#DejaVuSans-53"/>
      <use xlink:href="#DejaVuSans-43" x="63.476562"/>
      <use xlink:href="#DejaVuSans-4f" x="133.300781"/>
      <use xlink:href="#DejaVuSans-50" x="212.011719"/>
      <use xlink:href="#DejaVuSans-34" x="272.314453"/>
      <use xlink:href="#DejaVuSans-30" x="335.9375"/>
      <use xlink:href="#DejaVuSans-2f" x="399.560547"/>
      <use xlink:href="#DejaVuSans-53" x="433.251953"/>
      <use xlink:href="#DejaVuSans-46" x="496.728516"/>
      <use xlink:href="#DejaVuSans-38" x="554.248047"/>
     </g>
    </g>
   </g>
  </g>
  <g id="axes_2">
   <g id="patch_8">
    <path d="M 418.418076 238.559481 
L 732.425806 238.559481 
L 732.425806 47.90625 
L 418.418076 47.90625 
z
" style="fill: #ffffff"/>
   </g>
   <g id="matplotlib.axis_3">
    <g id="xtick_8">
     <g id="line2d_24">
      <g>
       <use xlink:href="#md424d56f3a" x="418.418076" y="238.559481" style="stroke: #000000; stroke-width: 0.8"/>
      </g>
     </g>
     <g id="text_22">
      <!-- 2 -->
      <g transform="translate(415.236826 253.157918) scale(0.1 -0.1)">
       <use xlink:href="#DejaVuSans-32"/>
      </g>
     </g>
    </g>
    <g id="xtick_9">
     <g id="line2d_25">
      <g>
       <use xlink:href="#md424d56f3a" x="466.726958" y="238.559481" style="stroke: #000000; stroke-width: 0.8"/>
      </g>
     </g>
     <g id="text_23">
      <!-- 4 -->
      <g transform="translate(463.545708 253.157918) scale(0.1 -0.1)">
       <use xlink:href="#DejaVuSans-34"/>
      </g>
     </g>
    </g>
    <g id="xtick_10">
     <g id="line2d_26">
      <g>
       <use xlink:href="#md424d56f3a" x="515.035839" y="238.559481" style="stroke: #000000; stroke-width: 0.8"/>
      </g>
     </g>
     <g id="text_24">
      <!-- 6 -->
      <g transform="translate(511.854589 253.157918) scale(0.1 -0.1)">
       <use xlink:href="#DejaVuSans-36"/>
      </g>
     </g>
    </g>
    <g id="xtick_11">
     <g id="line2d_27">
      <g>
       <use xlink:href="#md424d56f3a" x="563.344721" y="238.559481" style="stroke: #000000; stroke-width: 0.8"/>
      </g>
     </g>
     <g id="text_25">
      <!-- 8 -->
      <g transform="translate(560.163471 253.157918) scale(0.1 -0.1)">
       <use xlink:href="#DejaVuSans-38"/>
      </g>
     </g>
    </g>
    <g id="xtick_12">
     <g id="line2d_28">
      <g>
       <use xlink:href="#md424d56f3a" x="611.653603" y="238.559481" style="stroke: #000000; stroke-width: 0.8"/>
      </g>
     </g>
     <g id="text_26">
      <!-- 10 -->
      <g transform="translate(605.291103 253.157918) scale(0.1 -0.1)">
       <use xlink:href="#DejaVuSans-31"/>
       <use xlink:href="#DejaVuSans-30" x="63.623047"/>
      </g>
     </g>
    </g>
    <g id="xtick_13">
     <g id="line2d_29">
      <g>
       <use xlink:href="#md424d56f3a" x="659.962484" y="238.559481" style="stroke: #000000; stroke-width: 0.8"/>
      </g>
     </g>
     <g id="text_27">
      <!-- 12 -->
      <g transform="translate(653.599984 253.157918) scale(0.1 -0.1)">
       <use xlink:href="#DejaVuSans-31"/>
       <use xlink:href="#DejaVuSans-32" x="63.623047"/>
      </g>
     </g>
    </g>
    <g id="xtick_14">
     <g id="line2d_30">
      <g>
       <use xlink:href="#md424d56f3a" x="708.271366" y="238.559481" style="stroke: #000000; stroke-width: 0.8"/>
      </g>
     </g>
     <g id="text_28">
      <!-- 14 -->
      <g transform="translate(701.908866 253.157918) scale(0.1 -0.1)">
       <use xlink:href="#DejaVuSans-31"/>
       <use xlink:href="#DejaVuSans-34" x="63.623047"/>
      </g>
     </g>
    </g>
    <g id="text_29">
     <!-- Z score -->
     <g transform="translate(556.975066 266.836043) scale(0.1 -0.1)">
      <use xlink:href="#DejaVuSans-5a"/>
      <use xlink:href="#DejaVuSans-20" x="68.505859"/>
      <use xlink:href="#DejaVuSans-73" x="100.292969"/>
      <use xlink:href="#DejaVuSans-63" x="152.392578"/>
      <use xlink:href="#DejaVuSans-6f" x="207.373047"/>
      <use xlink:href="#DejaVuSans-72" x="268.554688"/>
      <use xlink:href="#DejaVuSans-65" x="307.417969"/>
     </g>
    </g>
   </g>
   <g id="matplotlib.axis_4">
    <g id="ytick_7">
     <g id="line2d_31">
      <g>
       <use xlink:href="#mefae7ea195" x="418.418076" y="238.559481" style="stroke: #000000; stroke-width: 0.8"/>
      </g>
     </g>
     <g id="text_30">
      <!-- $\mathdefault{10^{-3}}$ -->
      <g transform="translate(387.918076 242.358699) scale(0.1 -0.1)">
       <defs>
        <path id="DejaVuSans-2212" d="M 678 2272 
L 4684 2272 
L 4684 1741 
L 678 1741 
L 678 2272 
z
" transform="scale(0.015625)"/>
        <path id="DejaVuSans-33" d="M 2597 2516 
Q 3050 2419 3304 2112 
Q 3559 1806 3559 1356 
Q 3559 666 3084 287 
Q 2609 -91 1734 -91 
Q 1441 -91 1130 -33 
Q 819 25 488 141 
L 488 750 
Q 750 597 1062 519 
Q 1375 441 1716 441 
Q 2309 441 2620 675 
Q 2931 909 2931 1356 
Q 2931 1769 2642 2001 
Q 2353 2234 1838 2234 
L 1294 2234 
L 1294 2753 
L 1863 2753 
Q 2328 2753 2575 2939 
Q 2822 3125 2822 3475 
Q 2822 3834 2567 4026 
Q 2313 4219 1838 4219 
Q 1578 4219 1281 4162 
Q 984 4106 628 3988 
L 628 4550 
Q 988 4650 1302 4700 
Q 1616 4750 1894 4750 
Q 2613 4750 3031 4423 
Q 3450 4097 3450 3541 
Q 3450 3153 3228 2886 
Q 3006 2619 2597 2516 
z
" transform="scale(0.015625)"/>
       </defs>
       <use xlink:href="#DejaVuSans-31" transform="translate(0 0.765625)"/>
       <use xlink:href="#DejaVuSans-30" transform="translate(63.623047 0.765625)"/>
       <use xlink:href="#DejaVuSans-2212" transform="translate(128.203125 39.046875) scale(0.7)"/>
       <use xlink:href="#DejaVuSans-33" transform="translate(186.855469 39.046875) scale(0.7)"/>
      </g>
     </g>
    </g>
    <g id="ytick_8">
     <g id="line2d_32">
      <g>
       <use xlink:href="#mefae7ea195" x="418.418076" y="180.803801" style="stroke: #000000; stroke-width: 0.8"/>
      </g>
     </g>
     <g id="text_31">
      <!-- $\mathdefault{10^{-2}}$ -->
      <g transform="translate(387.918076 184.60302) scale(0.1 -0.1)">
       <use xlink:href="#DejaVuSans-31" transform="translate(0 0.765625)"/>
       <use xlink:href="#DejaVuSans-30" transform="translate(63.623047 0.765625)"/>
       <use xlink:href="#DejaVuSans-2212" transform="translate(128.203125 39.046875) scale(0.7)"/>
       <use xlink:href="#DejaVuSans-32" transform="translate(186.855469 39.046875) scale(0.7)"/>
      </g>
     </g>
    </g>
    <g id="ytick_9">
     <g id="line2d_33">
      <g>
       <use xlink:href="#mefae7ea195" x="418.418076" y="123.048121" style="stroke: #000000; stroke-width: 0.8"/>
      </g>
     </g>
     <g id="text_32">
      <!-- $\mathdefault{10^{-1}}$ -->
      <g transform="translate(387.918076 126.84734) scale(0.1 -0.1)">
       <use xlink:href="#DejaVuSans-31" transform="translate(0 0.684375)"/>
       <use xlink:href="#DejaVuSans-30" transform="translate(63.623047 0.684375)"/>
       <use xlink:href="#DejaVuSans-2212" transform="translate(128.203125 38.965625) scale(0.7)"/>
       <use xlink:href="#DejaVuSans-31" transform="translate(186.855469 38.965625) scale(0.7)"/>
      </g>
     </g>
    </g>
    <g id="ytick_10">
     <g id="line2d_34">
      <g>
       <use xlink:href="#mefae7ea195" x="418.418076" y="65.292442" style="stroke: #000000; stroke-width: 0.8"/>
      </g>
     </g>
     <g id="text_33">
      <!-- $\mathdefault{10^{0}}$ -->
      <g transform="translate(393.818076 69.091661) scale(0.1 -0.1)">
       <use xlink:href="#DejaVuSans-31" transform="translate(0 0.765625)"/>
       <use xlink:href="#DejaVuSans-30" transform="translate(63.623047 0.765625)"/>
       <use xlink:href="#DejaVuSans-30" transform="translate(128.203125 39.046875) scale(0.7)"/>
      </g>
     </g>
    </g>
    <g id="ytick_11">
     <g id="line2d_35">
      <defs>
       <path id="m6bc330fa68" d="M 0 0 
L -2 0 
" style="stroke: #000000; stroke-width: 0.6"/>
      </defs>
      <g>
       <use xlink:href="#m6bc330fa68" x="418.418076" y="221.173289" style="stroke: #000000; stroke-width: 0.6"/>
      </g>
     </g>
    </g>
    <g id="ytick_12">
     <g id="line2d_36">
      <g>
       <use xlink:href="#m6bc330fa68" x="418.418076" y="211.003018" style="stroke: #000000; stroke-width: 0.6"/>
      </g>
     </g>
    </g>
    <g id="ytick_13">
     <g id="line2d_37">
      <g>
       <use xlink:href="#m6bc330fa68" x="418.418076" y="203.787097" style="stroke: #000000; stroke-width: 0.6"/>
      </g>
     </g>
    </g>
    <g id="ytick_14">
     <g id="line2d_38">
      <g>
       <use xlink:href="#m6bc330fa68" x="418.418076" y="198.189993" style="stroke: #000000; stroke-width: 0.6"/>
      </g>
     </g>
    </g>
    <g id="ytick_15">
     <g id="line2d_39">
      <g>
       <use xlink:href="#m6bc330fa68" x="418.418076" y="193.616826" style="stroke: #000000; stroke-width: 0.6"/>
      </g>
     </g>
    </g>
    <g id="ytick_16">
     <g id="line2d_40">
      <g>
       <use xlink:href="#m6bc330fa68" x="418.418076" y="189.750269" style="stroke: #000000; stroke-width: 0.6"/>
      </g>
     </g>
    </g>
    <g id="ytick_17">
     <g id="line2d_41">
      <g>
       <use xlink:href="#m6bc330fa68" x="418.418076" y="186.400905" style="stroke: #000000; stroke-width: 0.6"/>
      </g>
     </g>
    </g>
    <g id="ytick_18">
     <g id="line2d_42">
      <g>
       <use xlink:href="#m6bc330fa68" x="418.418076" y="183.446556" style="stroke: #000000; stroke-width: 0.6"/>
      </g>
     </g>
    </g>
    <g id="ytick_19">
     <g id="line2d_43">
      <g>
       <use xlink:href="#m6bc330fa68" x="418.418076" y="163.417609" style="stroke: #000000; stroke-width: 0.6"/>
      </g>
     </g>
    </g>
    <g id="ytick_20">
     <g id="line2d_44">
      <g>
       <use xlink:href="#m6bc330fa68" x="418.418076" y="153.247339" style="stroke: #000000; stroke-width: 0.6"/>
      </g>
     </g>
    </g>
    <g id="ytick_21">
     <g id="line2d_45">
      <g>
       <use xlink:href="#m6bc330fa68" x="418.418076" y="146.031417" style="stroke: #000000; stroke-width: 0.6"/>
      </g>
     </g>
    </g>
    <g id="ytick_22">
     <g id="line2d_46">
      <g>
       <use xlink:href="#m6bc330fa68" x="418.418076" y="140.434313" style="stroke: #000000; stroke-width: 0.6"/>
      </g>
     </g>
    </g>
    <g id="ytick_23">
     <g id="line2d_47">
      <g>
       <use xlink:href="#m6bc330fa68" x="418.418076" y="135.861147" style="stroke: #000000; stroke-width: 0.6"/>
      </g>
     </g>
    </g>
    <g id="ytick_24">
     <g id="line2d_48">
      <g>
       <use xlink:href="#m6bc330fa68" x="418.418076" y="131.994589" style="stroke: #000000; stroke-width: 0.6"/>
      </g>
     </g>
    </g>
    <g id="ytick_25">
     <g id="line2d_49">
      <g>
       <use xlink:href="#m6bc330fa68" x="418.418076" y="128.645225" style="stroke: #000000; stroke-width: 0.6"/>
      </g>
     </g>
    </g>
    <g id="ytick_26">
     <g id="line2d_50">
      <g>
       <use xlink:href="#m6bc330fa68" x="418.418076" y="125.690876" style="stroke: #000000; stroke-width: 0.6"/>
      </g>
     </g>
    </g>
    <g id="ytick_27">
     <g id="line2d_51">
      <g>
       <use xlink:href="#m6bc330fa68" x="418.418076" y="105.66193" style="stroke: #000000; stroke-width: 0.6"/>
      </g>
     </g>
    </g>
    <g id="ytick_28">
     <g id="line2d_52">
      <g>
       <use xlink:href="#m6bc330fa68" x="418.418076" y="95.491659" style="stroke: #000000; stroke-width: 0.6"/>
      </g>
     </g>
    </g>
    <g id="ytick_29">
     <g id="line2d_53">
      <g>
       <use xlink:href="#m6bc330fa68" x="418.418076" y="88.275738" style="stroke: #000000; stroke-width: 0.6"/>
      </g>
     </g>
    </g>
    <g id="ytick_30">
     <g id="line2d_54">
      <g>
       <use xlink:href="#m6bc330fa68" x="418.418076" y="82.678634" style="stroke: #000000; stroke-width: 0.6"/>
      </g>
     </g>
    </g>
    <g id="ytick_31">
     <g id="line2d_55">
      <g>
       <use xlink:href="#m6bc330fa68" x="418.418076" y="78.105467" style="stroke: #000000; stroke-width: 0.6"/>
      </g>
     </g>
    </g>
    <g id="ytick_32">
     <g id="line2d_56">
      <g>
       <use xlink:href="#m6bc330fa68" x="418.418076" y="74.23891" style="stroke: #000000; stroke-width: 0.6"/>
      </g>
     </g>
    </g>
    <g id="ytick_33">
     <g id="line2d_57">
      <g>
       <use xlink:href="#m6bc330fa68" x="418.418076" y="70.889546" style="stroke: #000000; stroke-width: 0.6"/>
      </g>
     </g>
    </g>
    <g id="ytick_34">
     <g id="line2d_58">
      <g>
       <use xlink:href="#m6bc330fa68" x="418.418076" y="67.935197" style="stroke: #000000; stroke-width: 0.6"/>
      </g>
     </g>
    </g>
    <g id="ytick_35">
     <g id="line2d_59">
      <g>
       <use xlink:href="#m6bc330fa68" x="418.418076" y="47.90625" style="stroke: #000000; stroke-width: 0.6"/>
      </g>
     </g>
    </g>
    <g id="text_34">
     <!-- P(F|score) -->
     <g transform="translate(381.560264 168.14224) rotate(-90) scale(0.1 -0.1)">
      <use xlink:href="#DejaVuSans-50"/>
      <use xlink:href="#DejaVuSans-28" x="60.302734"/>
      <use xlink:href="#DejaVuSans-46" x="99.316406"/>
      <use xlink:href="#DejaVuSans-7c" x="156.835938"/>
      <use xlink:href="#DejaVuSans-73" x="190.527344"/>
      <use xlink:href="#DejaVuSans-63" x="242.626953"/>
      <use xlink:href="#DejaVuSans-6f" x="297.607422"/>
      <use xlink:href="#DejaVuSans-72" x="358.789062"/>
      <use xlink:href="#DejaVuSans-65" x="397.652344"/>
      <use xlink:href="#DejaVuSans-29" x="459.175781"/>
     </g>
    </g>
   </g>
   <g id="line2d_60">
    <path d="M 418.418076 65.574957 
L 437.451776 65.883791 
L 456.485475 66.387024 
L 475.519174 67.277795 
L 494.552874 68.644674 
L 513.562419 70.767563 
L 532.596118 74.346638 
L 551.629817 78.94717 
L 570.663517 83.24175 
L 589.697216 84.972663 
L 608.730915 85.737293 
L 627.837078 86.631457 
L 646.677542 89.247474 
L 665.75955 93.662092 
L 684.841558 98.264814 
L 703.923566 102.852925 
L 723.005575 108.69793 
L 741.846038 117.092399 
L 744.225806 117.430768 
" clip-path="url(#p57b4bd15a0)" style="fill: none; stroke: #000000; stroke-width: 1.5; stroke-linecap: square"/>
   </g>
   <g id="line2d_61">
    <path d="M 418.418076 65.618117 
L 437.451776 66.066794 
L 456.485475 66.855137 
L 475.519174 68.221093 
L 494.552874 70.270182 
L 513.562419 73.51837 
L 532.596118 78.248009 
L 551.629817 84.25201 
L 570.663517 89.085038 
L 589.697216 92.015113 
L 608.730915 95.175938 
L 627.837078 100.953263 
L 646.677542 107.958706 
L 665.75955 117.571707 
L 684.841558 132.858536 
L 703.923566 141.110554 
L 723.005575 152.75063 
L 741.846038 165.373116 
L 744.225806 165.344502 
" clip-path="url(#p57b4bd15a0)" style="fill: none; stroke: #00ffff; stroke-width: 1.5; stroke-linecap: square"/>
   </g>
   <g id="line2d_62">
    <path d="M 418.418076 65.850428 
L 437.451776 66.631892 
L 456.485475 67.963083 
L 475.519174 70.331434 
L 494.552874 73.497487 
L 513.562419 77.404665 
L 532.596118 82.42905 
L 551.629817 86.637332 
L 570.663517 90.503889 
L 589.697216 92.058823 
L 608.730915 91.841025 
L 627.837078 92.131846 
L 646.677542 93.716561 
L 665.75955 97.132784 
L 684.841558 100.674159 
L 703.923566 107.213949 
L 723.005575 113.04563 
L 741.846038 119.761543 
L 744.225806 120.621471 
" clip-path="url(#p57b4bd15a0)" style="fill: none; stroke: #ffa500; stroke-width: 1.5; stroke-linecap: square"/>
   </g>
   <g id="line2d_63">
    <path d="M 418.418076 65.901775 
L 437.451776 66.737951 
L 456.485475 68.243656 
L 475.519174 71.141638 
L 494.552874 76.097759 
L 513.562419 83.442641 
L 532.596118 93.330067 
L 551.629817 101.298663 
L 570.663517 104.438128 
L 589.697216 103.157512 
L 608.730915 101.298663 
L 627.837078 101.831231 
L 646.677542 105.914022 
L 665.75955 114.42987 
L 684.841558 122.306699 
L 703.923566 131.427719 
L 723.005575 143.244848 
L 741.846038 155.157693 
L 744.225806 155.643654 
" clip-path="url(#p57b4bd15a0)" style="fill: none; stroke-dasharray: 1.5,2.475; stroke-dashoffset: 0; stroke: #ffa500; stroke-width: 1.5"/>
   </g>
   <g id="line2d_64">
    <path d="M 418.418076 66.871159 
L 437.451776 68.959133 
L 456.485475 72.57534 
L 475.519174 78.654905 
L 494.552874 85.601649 
L 513.562419 92.723801 
L 532.596118 100.064826 
L 551.629817 107.482218 
L 570.663517 117.251152 
L 589.697216 128.582595 
L 608.730915 140.737129 
L 627.837078 149.1667 
L 646.677542 156.740445 
L 665.75955 174.808547 
L 684.841558 183.9533 
L 703.923566 187.786701 
L 723.005575 199.161729 
L 741.846038 191.919746 
L 744.225806 190.015691 
" clip-path="url(#p57b4bd15a0)" style="fill: none; stroke-dasharray: 5.55,2.4; stroke-dashoffset: 0; stroke: #ffa500; stroke-width: 1.5"/>
   </g>
   <g id="patch_9">
    <path d="M 418.418076 238.559481 
L 418.418076 47.90625 
" style="fill: none; stroke: #000000; stroke-width: 0.8; stroke-linejoin: miter; stroke-linecap: square"/>
   </g>
   <g id="patch_10">
    <path d="M 732.425806 238.559481 
L 732.425806 47.90625 
" style="fill: none; stroke: #000000; stroke-width: 0.8; stroke-linejoin: miter; stroke-linecap: square"/>
   </g>
   <g id="patch_11">
    <path d="M 418.418076 238.559481 
L 732.425806 238.559481 
" style="fill: none; stroke: #000000; stroke-width: 0.8; stroke-linejoin: miter; stroke-linecap: square"/>
   </g>
   <g id="patch_12">
    <path d="M 418.418076 47.90625 
L 732.425806 47.90625 
" style="fill: none; stroke: #000000; stroke-width: 0.8; stroke-linejoin: miter; stroke-linecap: square"/>
   </g>
   <g id="text_35">
    <!-- DALI (logscale) -->
    <g transform="translate(530.493191 41.90625) scale(0.12 -0.12)">
     <defs>
      <path id="DejaVuSans-6c" d="M 603 4863 
L 1178 4863 
L 1178 0 
L 603 0 
L 603 4863 
z
" transform="scale(0.015625)"/>
      <path id="DejaVuSans-67" d="M 2906 1791 
Q 2906 2416 2648 2759 
Q 2391 3103 1925 3103 
Q 1463 3103 1205 2759 
Q 947 2416 947 1791 
Q 947 1169 1205 825 
Q 1463 481 1925 481 
Q 2391 481 2648 825 
Q 2906 1169 2906 1791 
z
M 3481 434 
Q 3481 -459 3084 -895 
Q 2688 -1331 1869 -1331 
Q 1566 -1331 1297 -1286 
Q 1028 -1241 775 -1147 
L 775 -588 
Q 1028 -725 1275 -790 
Q 1522 -856 1778 -856 
Q 2344 -856 2625 -561 
Q 2906 -266 2906 331 
L 2906 616 
Q 2728 306 2450 153 
Q 2172 0 1784 0 
Q 1141 0 747 490 
Q 353 981 353 1791 
Q 353 2603 747 3093 
Q 1141 3584 1784 3584 
Q 2172 3584 2450 3431 
Q 2728 3278 2906 2969 
L 2906 3500 
L 3481 3500 
L 3481 434 
z
" transform="scale(0.015625)"/>
      <path id="DejaVuSans-61" d="M 2194 1759 
Q 1497 1759 1228 1600 
Q 959 1441 959 1056 
Q 959 750 1161 570 
Q 1363 391 1709 391 
Q 2188 391 2477 730 
Q 2766 1069 2766 1631 
L 2766 1759 
L 2194 1759 
z
M 3341 1997 
L 3341 0 
L 2766 0 
L 2766 531 
Q 2569 213 2275 61 
Q 1981 -91 1556 -91 
Q 1019 -91 701 211 
Q 384 513 384 1019 
Q 384 1609 779 1909 
Q 1175 2209 1959 2209 
L 2766 2209 
L 2766 2266 
Q 2766 2663 2505 2880 
Q 2244 3097 1772 3097 
Q 1472 3097 1187 3025 
Q 903 2953 641 2809 
L 641 3341 
Q 956 3463 1253 3523 
Q 1550 3584 1831 3584 
Q 2591 3584 2966 3190 
Q 3341 2797 3341 1997 
z
" transform="scale(0.015625)"/>
     </defs>
     <use xlink:href="#DejaVuSans-44"/>
     <use xlink:href="#DejaVuSans-41" x="75.251953"/>
     <use xlink:href="#DejaVuSans-4c" x="143.660156"/>
     <use xlink:href="#DejaVuSans-49" x="199.373047"/>
     <use xlink:href="#DejaVuSans-20" x="228.865234"/>
     <use xlink:href="#DejaVuSans-28" x="260.652344"/>
     <use xlink:href="#DejaVuSans-6c" x="299.666016"/>
     <use xlink:href="#DejaVuSans-6f" x="327.449219"/>
     <use xlink:href="#DejaVuSans-67" x="388.630859"/>
     <use xlink:href="#DejaVuSans-73" x="452.107422"/>
     <use xlink:href="#DejaVuSans-63" x="504.207031"/>
     <use xlink:href="#DejaVuSans-61" x="559.1875"/>
     <use xlink:href="#DejaVuSans-6c" x="620.466797"/>
     <use xlink:href="#DejaVuSans-65" x="648.25"/>
     <use xlink:href="#DejaVuSans-29" x="709.773438"/>
    </g>
   </g>
   <g id="legend_2">
    <g id="patch_13">
     <path d="M 425.418076 233.559481 
L 519.207139 233.559481 
Q 521.207139 233.559481 521.207139 231.559481 
L 521.207139 159.168856 
Q 521.207139 157.168856 519.207139 157.168856 
L 425.418076 157.168856 
Q 423.418076 157.168856 423.418076 159.168856 
L 423.418076 231.559481 
Q 423.418076 233.559481 425.418076 233.559481 
z
" style="fill: #ffffff; opacity: 0.8; stroke: #cccccc; stroke-linejoin: miter"/>
    </g>
    <g id="line2d_65">
     <path d="M 427.418076 165.267293 
L 437.418076 165.267293 
L 447.418076 165.267293 
" style="fill: none; stroke: #000000; stroke-width: 1.5; stroke-linecap: square"/>
    </g>
    <g id="text_36">
     <!-- SCOP40 -->
     <g transform="translate(455.418076 168.767293) scale(0.1 -0.1)">
      <use xlink:href="#DejaVuSans-53"/>
      <use xlink:href="#DejaVuSans-43" x="63.476562"/>
      <use xlink:href="#DejaVuSans-4f" x="133.300781"/>
      <use xlink:href="#DejaVuSans-50" x="212.011719"/>
      <use xlink:href="#DejaVuSans-34" x="272.314453"/>
      <use xlink:href="#DejaVuSans-30" x="335.9375"/>
     </g>
    </g>
    <g id="line2d_66">
     <path d="M 427.418076 179.945418 
L 437.418076 179.945418 
L 447.418076 179.945418 
" style="fill: none; stroke: #00ffff; stroke-width: 1.5; stroke-linecap: square"/>
    </g>
    <g id="text_37">
     <!-- SCOP40c -->
     <g transform="translate(455.418076 183.445418) scale(0.1 -0.1)">
      <use xlink:href="#DejaVuSans-53"/>
      <use xlink:href="#DejaVuSans-43" x="63.476562"/>
      <use xlink:href="#DejaVuSans-4f" x="133.300781"/>
      <use xlink:href="#DejaVuSans-50" x="212.011719"/>
      <use xlink:href="#DejaVuSans-34" x="272.314453"/>
      <use xlink:href="#DejaVuSans-30" x="335.9375"/>
      <use xlink:href="#DejaVuSans-63" x="399.560547"/>
     </g>
    </g>
    <g id="line2d_67">
     <path d="M 427.418076 194.623543 
L 437.418076 194.623543 
L 447.418076 194.623543 
" style="fill: none; stroke: #ffa500; stroke-width: 1.5; stroke-linecap: square"/>
    </g>
    <g id="text_38">
     <!-- SCOP40/SF2 -->
     <g transform="translate(455.418076 198.123543) scale(0.1 -0.1)">
      <use xlink:href="#DejaVuSans-53"/>
      <use xlink:href="#DejaVuSans-43" x="63.476562"/>
      <use xlink:href="#DejaVuSans-4f" x="133.300781"/>
      <use xlink:href="#DejaVuSans-50" x="212.011719"/>
      <use xlink:href="#DejaVuSans-34" x="272.314453"/>
      <use xlink:href="#DejaVuSans-30" x="335.9375"/>
      <use xlink:href="#DejaVuSans-2f" x="399.560547"/>
      <use xlink:href="#DejaVuSans-53" x="433.251953"/>
      <use xlink:href="#DejaVuSans-46" x="496.728516"/>
      <use xlink:href="#DejaVuSans-32" x="554.248047"/>
     </g>
    </g>
    <g id="line2d_68">
     <path d="M 427.418076 209.301668 
L 437.418076 209.301668 
L 447.418076 209.301668 
" style="fill: none; stroke-dasharray: 1.5,2.475; stroke-dashoffset: 0; stroke: #ffa500; stroke-width: 1.5"/>
    </g>
    <g id="text_39">
     <!-- SCOP40/SF4 -->
     <g transform="translate(455.418076 212.801668) scale(0.1 -0.1)">
      <use xlink:href="#DejaVuSans-53"/>
      <use xlink:href="#DejaVuSans-43" x="63.476562"/>
      <use xlink:href="#DejaVuSans-4f" x="133.300781"/>
      <use xlink:href="#DejaVuSans-50" x="212.011719"/>
      <use xlink:href="#DejaVuSans-34" x="272.314453"/>
      <use xlink:href="#DejaVuSans-30" x="335.9375"/>
      <use xlink:href="#DejaVuSans-2f" x="399.560547"/>
      <use xlink:href="#DejaVuSans-53" x="433.251953"/>
      <use xlink:href="#DejaVuSans-46" x="496.728516"/>
      <use xlink:href="#DejaVuSans-34" x="554.248047"/>
     </g>
    </g>
    <g id="line2d_69">
     <path d="M 427.418076 223.979793 
L 437.418076 223.979793 
L 447.418076 223.979793 
" style="fill: none; stroke-dasharray: 5.55,2.4; stroke-dashoffset: 0; stroke: #ffa500; stroke-width: 1.5"/>
    </g>
    <g id="text_40">
     <!-- SCOP40/SF8 -->
     <g transform="translate(455.418076 227.479793) scale(0.1 -0.1)">
      <use xlink:href="#DejaVuSans-53"/>
      <use xlink:href="#DejaVuSans-43" x="63.476562"/>
      <use xlink:href="#DejaVuSans-4f" x="133.300781"/>
      <use xlink:href="#DejaVuSans-50" x="212.011719"/>
      <use xlink:href="#DejaVuSans-34" x="272.314453"/>
      <use xlink:href="#DejaVuSans-30" x="335.9375"/>
      <use xlink:href="#DejaVuSans-2f" x="399.560547"/>
      <use xlink:href="#DejaVuSans-53" x="433.251953"/>
      <use xlink:href="#DejaVuSans-46" x="496.728516"/>
      <use xlink:href="#DejaVuSans-38" x="554.248047"/>
     </g>
    </g>
   </g>
  </g>
  <g id="text_41">
   <!-- ../plots/P_F_score.dali.svg -->
   <g transform="translate(294.824153 14.728515) scale(0.12 -0.12)">
    <defs>
     <path id="DejaVuSans-70" d="M 1159 525 
L 1159 -1331 
L 581 -1331 
L 581 3500 
L 1159 3500 
L 1159 2969 
Q 1341 3281 1617 3432 
Q 1894 3584 2278 3584 
Q 2916 3584 3314 3078 
Q 3713 2572 3713 1747 
Q 3713 922 3314 415 
Q 2916 -91 2278 -91 
Q 1894 -91 1617 61 
Q 1341 213 1159 525 
z
M 3116 1747 
Q 3116 2381 2855 2742 
Q 2594 3103 2138 3103 
Q 1681 3103 1420 2742 
Q 1159 2381 1159 1747 
Q 1159 1113 1420 752 
Q 1681 391 2138 391 
Q 2594 391 2855 752 
Q 3116 1113 3116 1747 
z
" transform="scale(0.015625)"/>
     <path id="DejaVuSans-74" d="M 1172 4494 
L 1172 3500 
L 2356 3500 
L 2356 3053 
L 1172 3053 
L 1172 1153 
Q 1172 725 1289 603 
Q 1406 481 1766 481 
L 2356 481 
L 2356 0 
L 1766 0 
Q 1100 0 847 248 
Q 594 497 594 1153 
L 594 3053 
L 172 3053 
L 172 3500 
L 594 3500 
L 594 4494 
L 1172 4494 
z
" transform="scale(0.015625)"/>
     <path id="DejaVuSans-5f" d="M 3263 -1063 
L 3263 -1509 
L -63 -1509 
L -63 -1063 
L 3263 -1063 
z
" transform="scale(0.015625)"/>
     <path id="DejaVuSans-64" d="M 2906 2969 
L 2906 4863 
L 3481 4863 
L 3481 0 
L 2906 0 
L 2906 525 
Q 2725 213 2448 61 
Q 2172 -91 1784 -91 
Q 1150 -91 751 415 
Q 353 922 353 1747 
Q 353 2572 751 3078 
Q 1150 3584 1784 3584 
Q 2172 3584 2448 3432 
Q 2725 3281 2906 2969 
z
M 947 1747 
Q 947 1113 1208 752 
Q 1469 391 1925 391 
Q 2381 391 2643 752 
Q 2906 1113 2906 1747 
Q 2906 2381 2643 2742 
Q 2381 3103 1925 3103 
Q 1469 3103 1208 2742 
Q 947 2381 947 1747 
z
" transform="scale(0.015625)"/>
     <path id="DejaVuSans-69" d="M 603 3500 
L 1178 3500 
L 1178 0 
L 603 0 
L 603 3500 
z
M 603 4863 
L 1178 4863 
L 1178 4134 
L 603 4134 
L 603 4863 
z
" transform="scale(0.015625)"/>
     <path id="DejaVuSans-76" d="M 191 3500 
L 800 3500 
L 1894 563 
L 2988 3500 
L 3597 3500 
L 2284 0 
L 1503 0 
L 191 3500 
z
" transform="scale(0.015625)"/>
    </defs>
    <use xlink:href="#DejaVuSans-2e"/>
    <use xlink:href="#DejaVuSans-2e" x="31.787109"/>
    <use xlink:href="#DejaVuSans-2f" x="63.574219"/>
    <use xlink:href="#DejaVuSans-70" x="97.265625"/>
    <use xlink:href="#DejaVuSans-6c" x="160.742188"/>
    <use xlink:href="#DejaVuSans-6f" x="188.525391"/>
    <use xlink:href="#DejaVuSans-74" x="249.707031"/>
    <use xlink:href="#DejaVuSans-73" x="288.916016"/>
    <use xlink:href="#DejaVuSans-2f" x="341.015625"/>
    <use xlink:href="#DejaVuSans-50" x="374.707031"/>
    <use xlink:href="#DejaVuSans-5f" x="435.009766"/>
    <use xlink:href="#DejaVuSans-46" x="485.009766"/>
    <use xlink:href="#DejaVuSans-5f" x="542.529297"/>
    <use xlink:href="#DejaVuSans-73" x="592.529297"/>
    <use xlink:href="#DejaVuSans-63" x="644.628906"/>
    <use xlink:href="#DejaVuSans-6f" x="699.609375"/>
    <use xlink:href="#DejaVuSans-72" x="760.791016"/>
    <use xlink:href="#DejaVuSans-65" x="799.654297"/>
    <use xlink:href="#DejaVuSans-2e" x="861.177734"/>
    <use xlink:href="#DejaVuSans-64" x="892.964844"/>
    <use xlink:href="#DejaVuSans-61" x="956.441406"/>
    <use xlink:href="#DejaVuSans-6c" x="1017.720703"/>
    <use xlink:href="#DejaVuSans-69" x="1045.503906"/>
    <use xlink:href="#DejaVuSans-2e" x="1073.287109"/>
    <use xlink:href="#DejaVuSans-73" x="1105.074219"/>
    <use xlink:href="#DejaVuSans-76" x="1157.173828"/>
    <use xlink:href="#DejaVuSans-67" x="1216.353516"/>
   </g>
  </g>
 </g>
 <defs>
  <clipPath id="pb74660e7aa">
   <rect x="48.17" y="47.90625" width="314.00773" height="190.653231"/>
  </clipPath>
  <clipPath id="p57b4bd15a0">
   <rect x="418.418076" y="47.90625" width="314.00773" height="190.653231"/>
  </clipPath>
 </defs>
</svg>
