<?xml version="1.0" encoding="utf-8" standalone="no"?>
<!DOCTYPE svg PUBLIC "-//W3C//DTD SVG 1.1//EN"
  "http://www.w3.org/Graphics/SVG/1.1/DTD/svg11.dtd">
<svg xmlns:xlink="http://www.w3.org/1999/xlink" width="743.225806pt" height="280.519481pt" viewBox="0 0 743.225806 280.519481" xmlns="http://www.w3.org/2000/svg" version="1.1">
 <metadata>
  <rdf:RDF xmlns:dc="http://purl.org/dc/elements/1.1/" xmlns:cc="http://creativecommons.org/ns#" xmlns:rdf="http://www.w3.org/1999/02/22-rdf-syntax-ns#">
   <cc:Work>
    <dc:type rdf:resource="http://purl.org/dc/dcmitype/StillImage"/>
    <dc:date>2025-06-01T13:08:56.546459</dc:date>
    <dc:format>image/svg+xml</dc:format>
    <dc:creator>
     <cc:Agent>
      <dc:title>Matplotlib v3.9.2, https://matplotlib.org/</dc:title>
     </cc:Agent>
    </dc:creator>
   </cc:Work>
  </rdf:RDF>
 </metadata>
 <defs>
  <style type="text/css">*{stroke-linejoin: round; stroke-linecap: butt}</style>
 </defs>
 <g id="figure_1">
  <g id="patch_1">
   <path d="M 0 280.519481 
L 743.225806 280.519481 
L 743.225806 0 
L 0 0 
z
" style="fill: #ffffff"/>
  </g>
  <g id="axes_1">
   <g id="patch_2">
    <path d="M 48.17 238.559481 
L 351.01773 238.559481 
L 351.01773 47.90625 
L 48.17 47.90625 
z
" style="fill: #ffffff"/>
   </g>
   <g id="matplotlib.axis_1">
    <g id="xtick_1">
     <g id="line2d_1">
      <defs>
       <path id="mb84cceb76b" d="M 0 0 
L 0 3.5 
" style="stroke: #000000; stroke-width: 0.8"/>
      </defs>
      <g>
       <use xlink:href="#mb84cceb76b" x="48.17" y="238.559481" style="stroke: #000000; stroke-width: 0.8"/>
      </g>
     </g>
     <g id="text_1">
      <!-- 0.40 -->
      <g transform="translate(37.037188 253.157918) scale(0.1 -0.1)">
       <defs>
        <path id="DejaVuSans-30" d="M 2034 4250 
Q 1547 4250 1301 3770 
Q 1056 3291 1056 2328 
Q 1056 1369 1301 889 
Q 1547 409 2034 409 
Q 2525 409 2770 889 
Q 3016 1369 3016 2328 
Q 3016 3291 2770 3770 
Q 2525 4250 2034 4250 
z
M 2034 4750 
Q 2819 4750 3233 4129 
Q 3647 3509 3647 2328 
Q 3647 1150 3233 529 
Q 2819 -91 2034 -91 
Q 1250 -91 836 529 
Q 422 1150 422 2328 
Q 422 3509 836 4129 
Q 1250 4750 2034 4750 
z
" transform="scale(0.015625)"/>
        <path id="DejaVuSans-2e" d="M 684 794 
L 1344 794 
L 1344 0 
L 684 0 
L 684 794 
z
" transform="scale(0.015625)"/>
        <path id="DejaVuSans-34" d="M 2419 4116 
L 825 1625 
L 2419 1625 
L 2419 4116 
z
M 2253 4666 
L 3047 4666 
L 3047 1625 
L 3713 1625 
L 3713 1100 
L 3047 1100 
L 3047 0 
L 2419 0 
L 2419 1100 
L 313 1100 
L 313 1709 
L 2253 4666 
z
" transform="scale(0.015625)"/>
       </defs>
       <use xlink:href="#DejaVuSans-30"/>
       <use xlink:href="#DejaVuSans-2e" x="63.623047"/>
       <use xlink:href="#DejaVuSans-34" x="95.410156"/>
       <use xlink:href="#DejaVuSans-30" x="159.033203"/>
      </g>
     </g>
    </g>
    <g id="xtick_2">
     <g id="line2d_2">
      <g>
       <use xlink:href="#mb84cceb76b" x="98.644622" y="238.559481" style="stroke: #000000; stroke-width: 0.8"/>
      </g>
     </g>
     <g id="text_2">
      <!-- 0.45 -->
      <g transform="translate(87.511809 253.157918) scale(0.1 -0.1)">
       <defs>
        <path id="DejaVuSans-35" d="M 691 4666 
L 3169 4666 
L 3169 4134 
L 1269 4134 
L 1269 2991 
Q 1406 3038 1543 3061 
Q 1681 3084 1819 3084 
Q 2600 3084 3056 2656 
Q 3513 2228 3513 1497 
Q 3513 744 3044 326 
Q 2575 -91 1722 -91 
Q 1428 -91 1123 -41 
Q 819 9 494 109 
L 494 744 
Q 775 591 1075 516 
Q 1375 441 1709 441 
Q 2250 441 2565 725 
Q 2881 1009 2881 1497 
Q 2881 1984 2565 2268 
Q 2250 2553 1709 2553 
Q 1456 2553 1204 2497 
Q 953 2441 691 2322 
L 691 4666 
z
" transform="scale(0.015625)"/>
       </defs>
       <use xlink:href="#DejaVuSans-30"/>
       <use xlink:href="#DejaVuSans-2e" x="63.623047"/>
       <use xlink:href="#DejaVuSans-34" x="95.410156"/>
       <use xlink:href="#DejaVuSans-35" x="159.033203"/>
      </g>
     </g>
    </g>
    <g id="xtick_3">
     <g id="line2d_3">
      <g>
       <use xlink:href="#mb84cceb76b" x="149.119243" y="238.559481" style="stroke: #000000; stroke-width: 0.8"/>
      </g>
     </g>
     <g id="text_3">
      <!-- 0.50 -->
      <g transform="translate(137.986431 253.157918) scale(0.1 -0.1)">
       <use xlink:href="#DejaVuSans-30"/>
       <use xlink:href="#DejaVuSans-2e" x="63.623047"/>
       <use xlink:href="#DejaVuSans-35" x="95.410156"/>
       <use xlink:href="#DejaVuSans-30" x="159.033203"/>
      </g>
     </g>
    </g>
    <g id="xtick_4">
     <g id="line2d_4">
      <g>
       <use xlink:href="#mb84cceb76b" x="199.593865" y="238.559481" style="stroke: #000000; stroke-width: 0.8"/>
      </g>
     </g>
     <g id="text_4">
      <!-- 0.55 -->
      <g transform="translate(188.461053 253.157918) scale(0.1 -0.1)">
       <use xlink:href="#DejaVuSans-30"/>
       <use xlink:href="#DejaVuSans-2e" x="63.623047"/>
       <use xlink:href="#DejaVuSans-35" x="95.410156"/>
       <use xlink:href="#DejaVuSans-35" x="159.033203"/>
      </g>
     </g>
    </g>
    <g id="xtick_5">
     <g id="line2d_5">
      <g>
       <use xlink:href="#mb84cceb76b" x="250.068487" y="238.559481" style="stroke: #000000; stroke-width: 0.8"/>
      </g>
     </g>
     <g id="text_5">
      <!-- 0.60 -->
      <g transform="translate(238.935674 253.157918) scale(0.1 -0.1)">
       <defs>
        <path id="DejaVuSans-36" d="M 2113 2584 
Q 1688 2584 1439 2293 
Q 1191 2003 1191 1497 
Q 1191 994 1439 701 
Q 1688 409 2113 409 
Q 2538 409 2786 701 
Q 3034 994 3034 1497 
Q 3034 2003 2786 2293 
Q 2538 2584 2113 2584 
z
M 3366 4563 
L 3366 3988 
Q 3128 4100 2886 4159 
Q 2644 4219 2406 4219 
Q 1781 4219 1451 3797 
Q 1122 3375 1075 2522 
Q 1259 2794 1537 2939 
Q 1816 3084 2150 3084 
Q 2853 3084 3261 2657 
Q 3669 2231 3669 1497 
Q 3669 778 3244 343 
Q 2819 -91 2113 -91 
Q 1303 -91 875 529 
Q 447 1150 447 2328 
Q 447 3434 972 4092 
Q 1497 4750 2381 4750 
Q 2619 4750 2861 4703 
Q 3103 4656 3366 4563 
z
" transform="scale(0.015625)"/>
       </defs>
       <use xlink:href="#DejaVuSans-30"/>
       <use xlink:href="#DejaVuSans-2e" x="63.623047"/>
       <use xlink:href="#DejaVuSans-36" x="95.410156"/>
       <use xlink:href="#DejaVuSans-30" x="159.033203"/>
      </g>
     </g>
    </g>
    <g id="xtick_6">
     <g id="line2d_6">
      <g>
       <use xlink:href="#mb84cceb76b" x="300.543108" y="238.559481" style="stroke: #000000; stroke-width: 0.8"/>
      </g>
     </g>
     <g id="text_6">
      <!-- 0.65 -->
      <g transform="translate(289.410296 253.157918) scale(0.1 -0.1)">
       <use xlink:href="#DejaVuSans-30"/>
       <use xlink:href="#DejaVuSans-2e" x="63.623047"/>
       <use xlink:href="#DejaVuSans-36" x="95.410156"/>
       <use xlink:href="#DejaVuSans-35" x="159.033203"/>
      </g>
     </g>
    </g>
    <g id="xtick_7">
     <g id="line2d_7">
      <g>
       <use xlink:href="#mb84cceb76b" x="351.01773" y="238.559481" style="stroke: #000000; stroke-width: 0.8"/>
      </g>
     </g>
     <g id="text_7">
      <!-- 0.70 -->
      <g transform="translate(339.884918 253.157918) scale(0.1 -0.1)">
       <defs>
        <path id="DejaVuSans-37" d="M 525 4666 
L 3525 4666 
L 3525 4397 
L 1831 0 
L 1172 0 
L 2766 4134 
L 525 4134 
L 525 4666 
z
" transform="scale(0.015625)"/>
       </defs>
       <use xlink:href="#DejaVuSans-30"/>
       <use xlink:href="#DejaVuSans-2e" x="63.623047"/>
       <use xlink:href="#DejaVuSans-37" x="95.410156"/>
       <use xlink:href="#DejaVuSans-30" x="159.033203"/>
      </g>
     </g>
    </g>
    <g id="text_8">
     <!-- TM score -->
     <g transform="translate(177.204021 266.836043) scale(0.1 -0.1)">
      <defs>
       <path id="DejaVuSans-54" d="M -19 4666 
L 3928 4666 
L 3928 4134 
L 2272 4134 
L 2272 0 
L 1638 0 
L 1638 4134 
L -19 4134 
L -19 4666 
z
" transform="scale(0.015625)"/>
       <path id="DejaVuSans-4d" d="M 628 4666 
L 1569 4666 
L 2759 1491 
L 3956 4666 
L 4897 4666 
L 4897 0 
L 4281 0 
L 4281 4097 
L 3078 897 
L 2444 897 
L 1241 4097 
L 1241 0 
L 628 0 
L 628 4666 
z
" transform="scale(0.015625)"/>
       <path id="DejaVuSans-20" transform="scale(0.015625)"/>
       <path id="DejaVuSans-73" d="M 2834 3397 
L 2834 2853 
Q 2591 2978 2328 3040 
Q 2066 3103 1784 3103 
Q 1356 3103 1142 2972 
Q 928 2841 928 2578 
Q 928 2378 1081 2264 
Q 1234 2150 1697 2047 
L 1894 2003 
Q 2506 1872 2764 1633 
Q 3022 1394 3022 966 
Q 3022 478 2636 193 
Q 2250 -91 1575 -91 
Q 1294 -91 989 -36 
Q 684 19 347 128 
L 347 722 
Q 666 556 975 473 
Q 1284 391 1588 391 
Q 1994 391 2212 530 
Q 2431 669 2431 922 
Q 2431 1156 2273 1281 
Q 2116 1406 1581 1522 
L 1381 1569 
Q 847 1681 609 1914 
Q 372 2147 372 2553 
Q 372 3047 722 3315 
Q 1072 3584 1716 3584 
Q 2034 3584 2315 3537 
Q 2597 3491 2834 3397 
z
" transform="scale(0.015625)"/>
       <path id="DejaVuSans-63" d="M 3122 3366 
L 3122 2828 
Q 2878 2963 2633 3030 
Q 2388 3097 2138 3097 
Q 1578 3097 1268 2742 
Q 959 2388 959 1747 
Q 959 1106 1268 751 
Q 1578 397 2138 397 
Q 2388 397 2633 464 
Q 2878 531 3122 666 
L 3122 134 
Q 2881 22 2623 -34 
Q 2366 -91 2075 -91 
Q 1284 -91 818 406 
Q 353 903 353 1747 
Q 353 2603 823 3093 
Q 1294 3584 2113 3584 
Q 2378 3584 2631 3529 
Q 2884 3475 3122 3366 
z
" transform="scale(0.015625)"/>
       <path id="DejaVuSans-6f" d="M 1959 3097 
Q 1497 3097 1228 2736 
Q 959 2375 959 1747 
Q 959 1119 1226 758 
Q 1494 397 1959 397 
Q 2419 397 2687 759 
Q 2956 1122 2956 1747 
Q 2956 2369 2687 2733 
Q 2419 3097 1959 3097 
z
M 1959 3584 
Q 2709 3584 3137 3096 
Q 3566 2609 3566 1747 
Q 3566 888 3137 398 
Q 2709 -91 1959 -91 
Q 1206 -91 779 398 
Q 353 888 353 1747 
Q 353 2609 779 3096 
Q 1206 3584 1959 3584 
z
" transform="scale(0.015625)"/>
       <path id="DejaVuSans-72" d="M 2631 2963 
Q 2534 3019 2420 3045 
Q 2306 3072 2169 3072 
Q 1681 3072 1420 2755 
Q 1159 2438 1159 1844 
L 1159 0 
L 581 0 
L 581 3500 
L 1159 3500 
L 1159 2956 
Q 1341 3275 1631 3429 
Q 1922 3584 2338 3584 
Q 2397 3584 2469 3576 
Q 2541 3569 2628 3553 
L 2631 2963 
z
" transform="scale(0.015625)"/>
       <path id="DejaVuSans-65" d="M 3597 1894 
L 3597 1613 
L 953 1613 
Q 991 1019 1311 708 
Q 1631 397 2203 397 
Q 2534 397 2845 478 
Q 3156 559 3463 722 
L 3463 178 
Q 3153 47 2828 -22 
Q 2503 -91 2169 -91 
Q 1331 -91 842 396 
Q 353 884 353 1716 
Q 353 2575 817 3079 
Q 1281 3584 2069 3584 
Q 2775 3584 3186 3129 
Q 3597 2675 3597 1894 
z
M 3022 2063 
Q 3016 2534 2758 2815 
Q 2500 3097 2075 3097 
Q 1594 3097 1305 2825 
Q 1016 2553 972 2059 
L 3022 2063 
z
" transform="scale(0.015625)"/>
      </defs>
      <use xlink:href="#DejaVuSans-54"/>
      <use xlink:href="#DejaVuSans-4d" x="61.083984"/>
      <use xlink:href="#DejaVuSans-20" x="147.363281"/>
      <use xlink:href="#DejaVuSans-73" x="179.150391"/>
      <use xlink:href="#DejaVuSans-63" x="231.25"/>
      <use xlink:href="#DejaVuSans-6f" x="286.230469"/>
      <use xlink:href="#DejaVuSans-72" x="347.412109"/>
      <use xlink:href="#DejaVuSans-65" x="386.275391"/>
     </g>
    </g>
   </g>
   <g id="matplotlib.axis_2">
    <g id="ytick_1">
     <g id="line2d_8">
      <defs>
       <path id="md7adb1564e" d="M 0 0 
L -3.5 0 
" style="stroke: #000000; stroke-width: 0.8"/>
      </defs>
      <g>
       <use xlink:href="#md7adb1564e" x="48.17" y="229.893425" style="stroke: #000000; stroke-width: 0.8"/>
      </g>
     </g>
     <g id="text_9">
      <!-- 0.0 -->
      <g transform="translate(25.266875 233.692643) scale(0.1 -0.1)">
       <use xlink:href="#DejaVuSans-30"/>
       <use xlink:href="#DejaVuSans-2e" x="63.623047"/>
       <use xlink:href="#DejaVuSans-30" x="95.410156"/>
      </g>
     </g>
    </g>
    <g id="ytick_2">
     <g id="line2d_9">
      <g>
       <use xlink:href="#md7adb1564e" x="48.17" y="195.229201" style="stroke: #000000; stroke-width: 0.8"/>
      </g>
     </g>
     <g id="text_10">
      <!-- 0.2 -->
      <g transform="translate(25.266875 199.02842) scale(0.1 -0.1)">
       <defs>
        <path id="DejaVuSans-32" d="M 1228 531 
L 3431 531 
L 3431 0 
L 469 0 
L 469 531 
Q 828 903 1448 1529 
Q 2069 2156 2228 2338 
Q 2531 2678 2651 2914 
Q 2772 3150 2772 3378 
Q 2772 3750 2511 3984 
Q 2250 4219 1831 4219 
Q 1534 4219 1204 4116 
Q 875 4013 500 3803 
L 500 4441 
Q 881 4594 1212 4672 
Q 1544 4750 1819 4750 
Q 2544 4750 2975 4387 
Q 3406 4025 3406 3419 
Q 3406 3131 3298 2873 
Q 3191 2616 2906 2266 
Q 2828 2175 2409 1742 
Q 1991 1309 1228 531 
z
" transform="scale(0.015625)"/>
       </defs>
       <use xlink:href="#DejaVuSans-30"/>
       <use xlink:href="#DejaVuSans-2e" x="63.623047"/>
       <use xlink:href="#DejaVuSans-32" x="95.410156"/>
      </g>
     </g>
    </g>
    <g id="ytick_3">
     <g id="line2d_10">
      <g>
       <use xlink:href="#md7adb1564e" x="48.17" y="160.564977" style="stroke: #000000; stroke-width: 0.8"/>
      </g>
     </g>
     <g id="text_11">
      <!-- 0.4 -->
      <g transform="translate(25.266875 164.364196) scale(0.1 -0.1)">
       <use xlink:href="#DejaVuSans-30"/>
       <use xlink:href="#DejaVuSans-2e" x="63.623047"/>
       <use xlink:href="#DejaVuSans-34" x="95.410156"/>
      </g>
     </g>
    </g>
    <g id="ytick_4">
     <g id="line2d_11">
      <g>
       <use xlink:href="#md7adb1564e" x="48.17" y="125.900753" style="stroke: #000000; stroke-width: 0.8"/>
      </g>
     </g>
     <g id="text_12">
      <!-- 0.6 -->
      <g transform="translate(25.266875 129.699972) scale(0.1 -0.1)">
       <use xlink:href="#DejaVuSans-30"/>
       <use xlink:href="#DejaVuSans-2e" x="63.623047"/>
       <use xlink:href="#DejaVuSans-36" x="95.410156"/>
      </g>
     </g>
    </g>
    <g id="ytick_5">
     <g id="line2d_12">
      <g>
       <use xlink:href="#md7adb1564e" x="48.17" y="91.23653" style="stroke: #000000; stroke-width: 0.8"/>
      </g>
     </g>
     <g id="text_13">
      <!-- 0.8 -->
      <g transform="translate(25.266875 95.035748) scale(0.1 -0.1)">
       <defs>
        <path id="DejaVuSans-38" d="M 2034 2216 
Q 1584 2216 1326 1975 
Q 1069 1734 1069 1313 
Q 1069 891 1326 650 
Q 1584 409 2034 409 
Q 2484 409 2743 651 
Q 3003 894 3003 1313 
Q 3003 1734 2745 1975 
Q 2488 2216 2034 2216 
z
M 1403 2484 
Q 997 2584 770 2862 
Q 544 3141 544 3541 
Q 544 4100 942 4425 
Q 1341 4750 2034 4750 
Q 2731 4750 3128 4425 
Q 3525 4100 3525 3541 
Q 3525 3141 3298 2862 
Q 3072 2584 2669 2484 
Q 3125 2378 3379 2068 
Q 3634 1759 3634 1313 
Q 3634 634 3220 271 
Q 2806 -91 2034 -91 
Q 1263 -91 848 271 
Q 434 634 434 1313 
Q 434 1759 690 2068 
Q 947 2378 1403 2484 
z
M 1172 3481 
Q 1172 3119 1398 2916 
Q 1625 2713 2034 2713 
Q 2441 2713 2670 2916 
Q 2900 3119 2900 3481 
Q 2900 3844 2670 4047 
Q 2441 4250 2034 4250 
Q 1625 4250 1398 4047 
Q 1172 3844 1172 3481 
z
" transform="scale(0.015625)"/>
       </defs>
       <use xlink:href="#DejaVuSans-30"/>
       <use xlink:href="#DejaVuSans-2e" x="63.623047"/>
       <use xlink:href="#DejaVuSans-38" x="95.410156"/>
      </g>
     </g>
    </g>
    <g id="ytick_6">
     <g id="line2d_13">
      <g>
       <use xlink:href="#md7adb1564e" x="48.17" y="56.572306" style="stroke: #000000; stroke-width: 0.8"/>
      </g>
     </g>
     <g id="text_14">
      <!-- 1.0 -->
      <g transform="translate(25.266875 60.371525) scale(0.1 -0.1)">
       <defs>
        <path id="DejaVuSans-31" d="M 794 531 
L 1825 531 
L 1825 4091 
L 703 3866 
L 703 4441 
L 1819 4666 
L 2450 4666 
L 2450 531 
L 3481 531 
L 3481 0 
L 794 0 
L 794 531 
z
" transform="scale(0.015625)"/>
       </defs>
       <use xlink:href="#DejaVuSans-31"/>
       <use xlink:href="#DejaVuSans-2e" x="63.623047"/>
       <use xlink:href="#DejaVuSans-30" x="95.410156"/>
      </g>
     </g>
    </g>
    <g id="text_15">
     <!-- P(F|score) -->
     <g transform="translate(18.909062 168.14224) rotate(-90) scale(0.1 -0.1)">
      <defs>
       <path id="DejaVuSans-50" d="M 1259 4147 
L 1259 2394 
L 2053 2394 
Q 2494 2394 2734 2622 
Q 2975 2850 2975 3272 
Q 2975 3691 2734 3919 
Q 2494 4147 2053 4147 
L 1259 4147 
z
M 628 4666 
L 2053 4666 
Q 2838 4666 3239 4311 
Q 3641 3956 3641 3272 
Q 3641 2581 3239 2228 
Q 2838 1875 2053 1875 
L 1259 1875 
L 1259 0 
L 628 0 
L 628 4666 
z
" transform="scale(0.015625)"/>
       <path id="DejaVuSans-28" d="M 1984 4856 
Q 1566 4138 1362 3434 
Q 1159 2731 1159 2009 
Q 1159 1288 1364 580 
Q 1569 -128 1984 -844 
L 1484 -844 
Q 1016 -109 783 600 
Q 550 1309 550 2009 
Q 550 2706 781 3412 
Q 1013 4119 1484 4856 
L 1984 4856 
z
" transform="scale(0.015625)"/>
       <path id="DejaVuSans-46" d="M 628 4666 
L 3309 4666 
L 3309 4134 
L 1259 4134 
L 1259 2759 
L 3109 2759 
L 3109 2228 
L 1259 2228 
L 1259 0 
L 628 0 
L 628 4666 
z
" transform="scale(0.015625)"/>
       <path id="DejaVuSans-7c" d="M 1344 4891 
L 1344 -1509 
L 813 -1509 
L 813 4891 
L 1344 4891 
z
" transform="scale(0.015625)"/>
       <path id="DejaVuSans-29" d="M 513 4856 
L 1013 4856 
Q 1481 4119 1714 3412 
Q 1947 2706 1947 2009 
Q 1947 1309 1714 600 
Q 1481 -109 1013 -844 
L 513 -844 
Q 928 -128 1133 580 
Q 1338 1288 1338 2009 
Q 1338 2731 1133 3434 
Q 928 4138 513 4856 
z
" transform="scale(0.015625)"/>
      </defs>
      <use xlink:href="#DejaVuSans-50"/>
      <use xlink:href="#DejaVuSans-28" x="60.302734"/>
      <use xlink:href="#DejaVuSans-46" x="99.316406"/>
      <use xlink:href="#DejaVuSans-7c" x="156.835938"/>
      <use xlink:href="#DejaVuSans-73" x="190.527344"/>
      <use xlink:href="#DejaVuSans-63" x="242.626953"/>
      <use xlink:href="#DejaVuSans-6f" x="297.607422"/>
      <use xlink:href="#DejaVuSans-72" x="358.789062"/>
      <use xlink:href="#DejaVuSans-65" x="397.652344"/>
      <use xlink:href="#DejaVuSans-29" x="459.175781"/>
     </g>
    </g>
   </g>
   <g id="line2d_14">
    <path d="M -1 57.031084 
L 1.228602 57.057603 
L 11.424475 57.248257 
L 21.620349 57.560235 
L 31.816223 57.958878 
L 42.012096 58.565499 
L 52.20797 59.27612 
L 62.403843 60.264049 
L 72.599717 61.529286 
L 82.79559 63.262506 
L 92.991464 65.169034 
L 103.187338 67.404876 
L 113.383211 69.952696 
L 123.579085 72.916483 
L 133.774958 76.816214 
L 143.970832 80.386623 
L 154.267655 85.04897 
L 164.463528 89.087351 
L 174.659402 93.524364 
L 184.855276 98.39469 
L 195.051149 102.086433 
L 205.247023 106.384797 
L 215.442896 111.983068 
L 225.63877 119.799846 
L 235.834643 125.536776 
L 246.030517 135.017445 
L 256.226391 144.948745 
L 266.422264 158.311805 
L 276.618138 165.972594 
L 286.814011 174.170684 
L 297.009885 185.748535 
L 307.205759 195.073211 
L 317.401632 201.936728 
L 327.597506 207.240353 
L 337.793379 211.55605 
L 347.989253 214.053608 
L 358.185126 217.740148 
L 368.381 220.095582 
L 378.576874 220.63981 
L 388.772747 223.6244 
L 398.968621 223.088837 
L 409.164494 225.716386 
L 419.360368 226.730314 
L 429.556242 226.342075 
L 439.752115 227.669715 
L 449.947989 227.44613 
L 460.143862 228.512402 
L 470.339736 229.124399 
L 480.535609 228.880883 
L 490.731483 229.718544 
L 500.927357 229.523904 
L 511.12323 229.689252 
L 521.319104 229.893425 
L 531.514977 229.650255 
L 541.710851 229.893425 
L 551.906724 229.893425 
L 562.102598 229.893425 
L 572.298472 229.893425 
L 582.494345 229.893425 
L 592.690219 229.893425 
L 602.886092 229.893425 
L 613.081966 229.893425 
L 623.27784 229.893425 
L 633.473713 229.893425 
L 643.669587 229.893425 
L 653.86546 229.893425 
" clip-path="url(#pd98bbce91c)" style="fill: none; stroke: #000000; stroke-width: 1.5; stroke-linecap: square"/>
   </g>
   <g id="line2d_15">
    <path d="M -1 57.214162 
L 1.228602 57.248257 
L 11.424475 57.490905 
L 21.620349 57.872213 
L 31.816223 58.35751 
L 42.012096 59.102791 
L 52.20797 60.05606 
L 62.403843 61.130654 
L 72.599717 62.725204 
L 82.79559 64.926386 
L 92.991464 67.612865 
L 103.187338 70.507322 
L 113.383211 74.129735 
L 123.579085 77.925468 
L 133.774958 82.050513 
L 143.970832 84.875641 
L 154.267655 88.567384 
L 164.463528 92.103132 
L 174.659402 96.332167 
L 184.855276 101.705125 
L 195.051149 107.650044 
L 205.247023 112.329706 
L 215.442896 117.719999 
L 225.63877 128.795217 
L 235.834643 135.589406 
L 246.030517 147.999197 
L 256.226391 159.906355 
L 266.422264 174.482662 
L 276.618138 184.11932 
L 286.814011 195.073211 
L 297.009885 203.028651 
L 307.205759 211.192076 
L 317.401632 215.036338 
L 327.597506 219.126716 
L 337.793379 222.870453 
L 347.989253 223.929445 
L 358.185126 226.231149 
L 368.381 227.350804 
L 378.576874 227.706112 
L 388.772747 228.860951 
L 398.968621 228.6313 
L 409.164494 228.78313 
L 419.360368 229.637256 
L 429.556242 228.894922 
L 439.752115 229.893425 
L 449.947989 229.893425 
L 460.143862 229.893425 
L 470.339736 229.893425 
L 480.535609 229.893425 
L 490.731483 229.893425 
L 500.927357 229.893425 
L 511.12323 229.893425 
L 521.319104 229.893425 
L 531.514977 229.893425 
L 541.710851 229.893425 
L 551.906724 229.893425 
L 562.102598 229.893425 
L 572.298472 229.893425 
L 582.494345 229.893425 
L 592.690219 229.893425 
L 602.886092 229.893425 
L 613.081966 229.893425 
L 623.27784 229.893425 
L 633.473713 229.893425 
L 643.669587 229.893425 
L 653.86546 229.893425 
" clip-path="url(#pd98bbce91c)" style="fill: none; stroke: #00ffff; stroke-width: 1.5; stroke-linecap: square"/>
   </g>
   <g id="line2d_16">
    <path d="M -1 58.056429 
L 1.228602 58.132197 
L 11.424475 58.652164 
L 21.620349 59.345439 
L 31.816223 60.558692 
L 42.012096 61.945264 
L 52.20797 63.505154 
L 62.403843 65.758321 
L 72.599717 68.184816 
L 82.79559 71.477927 
L 92.991464 74.944346 
L 103.187338 79.277369 
L 113.383211 83.957041 
L 123.579085 89.329999 
L 133.774958 96.782804 
L 143.970832 104.408939 
L 154.267655 114.288239 
L 164.463528 123.994221 
L 174.659402 134.220169 
L 184.855276 146.352647 
L 195.051149 152.765528 
L 205.247023 162.47151 
L 215.442896 170.617601 
L 225.63877 179.456978 
L 235.834643 183.270045 
L 246.030517 188.98964 
L 256.226391 195.749165 
L 266.422264 200.775477 
L 276.618138 201.815403 
L 286.814011 203.721937 
L 297.009885 209.094891 
L 307.205759 213.60124 
L 317.401632 217.13699 
L 327.597506 218.540892 
L 337.793379 221.383358 
L 347.989253 222.232631 
L 358.185126 224.572466 
L 368.381 225.005769 
L 378.576874 225.491068 
L 388.772747 226.756312 
L 398.968621 226.842973 
L 409.164494 228.125549 
L 419.360368 228.472191 
L 429.556242 228.30407 
L 439.752115 228.752972 
L 449.947989 228.652445 
L 460.143862 229.271202 
L 470.339736 229.742635 
L 480.535609 229.283334 
L 490.731483 229.745582 
L 500.927357 229.603978 
L 511.12323 229.893425 
L 521.319104 229.893425 
L 531.514977 229.688906 
L 541.710851 229.893425 
L 551.906724 229.893425 
L 562.102598 229.893425 
L 572.298472 229.893425 
L 582.494345 229.893425 
L 592.690219 229.893425 
L 602.886092 229.893425 
L 613.081966 229.893425 
L 623.27784 229.893425 
L 633.473713 229.893425 
L 643.669587 229.893425 
L 653.86546 229.893425 
" clip-path="url(#pd98bbce91c)" style="fill: none; stroke: #ffa500; stroke-width: 1.5; stroke-linecap: square"/>
   </g>
   <g id="line2d_17">
    <path d="M -1 58.53851 
L 1.228602 58.652164 
L 11.424475 59.518768 
L 21.620349 60.732011 
L 31.816223 62.46522 
L 42.012096 64.891716 
L 52.20797 68.184816 
L 62.403843 72.691169 
L 72.599717 77.370841 
L 82.79559 83.957041 
L 92.991464 92.103132 
L 103.187338 98.689333 
L 113.383211 108.395325 
L 123.579085 115.674811 
L 133.774958 124.860826 
L 143.970832 130.75374 
L 154.267655 138.033237 
L 164.463528 142.886227 
L 174.659402 148.25918 
L 184.855276 154.498738 
L 195.051149 160.391657 
L 205.247023 165.417967 
L 215.442896 172.697453 
L 225.63877 181.363511 
L 235.834643 187.083109 
L 246.030517 193.149348 
L 256.226391 202.335368 
L 266.422264 207.36168 
L 276.618138 212.214671 
L 286.814011 216.23572 
L 297.009885 220.430091 
L 307.205759 223.081905 
L 317.401632 224.243156 
L 327.597506 226.132356 
L 337.793379 226.877637 
L 347.989253 227.362936 
L 358.185126 228.337001 
L 368.381 229.600512 
L 378.576874 229.222672 
L 388.772747 229.548516 
L 398.968621 229.638643 
L 409.164494 229.68024 
L 419.360368 229.893425 
L 429.556242 229.746102 
L 439.752115 229.753208 
L 449.947989 229.701038 
L 460.143862 229.68024 
L 470.339736 229.650775 
L 480.535609 229.695839 
L 490.731483 229.893425 
L 500.927357 229.893425 
L 511.12323 229.893425 
L 521.319104 229.893425 
L 531.514977 229.893425 
L 541.710851 229.893425 
L 551.906724 229.893425 
L 562.102598 229.893425 
L 572.298472 229.893425 
L 582.494345 229.893425 
L 592.690219 229.893425 
L 602.886092 229.893425 
L 613.081966 229.893425 
L 623.27784 229.893425 
L 633.473713 229.893425 
L 643.669587 229.893425 
L 653.86546 229.893425 
" clip-path="url(#pd98bbce91c)" style="fill: none; stroke-dasharray: 5.55,2.4; stroke-dashoffset: 0; stroke: #ffa500; stroke-width: 1.5"/>
   </g>
   <g id="line2d_18">
    <path d="M -1 58.500626 
L 1.228602 58.652164 
L 11.424475 59.692087 
L 21.620349 61.945264 
L 31.816223 64.371759 
L 42.012096 68.531464 
L 52.20797 74.771027 
L 62.403843 81.877194 
L 72.599717 90.88989 
L 82.79559 101.809114 
L 92.991464 113.941591 
L 103.187338 124.687507 
L 113.383211 135.086774 
L 123.579085 145.139399 
L 133.774958 155.365342 
L 143.970832 163.164796 
L 154.267655 172.177491 
L 164.463528 178.763697 
L 174.659402 185.176578 
L 184.855276 190.549531 
L 195.051149 194.709239 
L 205.247023 197.309055 
L 215.442896 201.642082 
L 225.63877 203.201972 
L 235.834643 204.935185 
L 246.030517 207.70832 
L 256.226391 208.921569 
L 266.422264 212.803962 
L 276.618138 214.277192 
L 286.814011 216.790348 
L 297.009885 220.135446 
L 307.205759 222.371288 
L 317.401632 225.456404 
L 327.597506 225.976367 
L 337.793379 226.998962 
L 347.989253 227.154951 
L 358.185126 227.952228 
L 368.381 228.48779 
L 378.576874 228.366466 
L 388.772747 229.144677 
L 398.968621 229.24867 
L 409.164494 229.586646 
L 419.360368 229.567581 
L 429.556242 229.690639 
L 439.752115 229.77626 
L 449.947989 229.770367 
L 460.143862 229.893425 
L 470.339736 229.893425 
L 480.535609 229.709704 
L 490.731483 229.893425 
L 500.927357 229.893425 
L 511.12323 229.893425 
L 521.319104 229.893425 
L 531.514977 229.893425 
L 541.710851 229.893425 
L 551.906724 229.893425 
L 562.102598 229.893425 
L 572.298472 229.893425 
L 582.494345 229.893425 
L 592.690219 229.893425 
L 602.886092 229.893425 
L 613.081966 229.893425 
L 623.27784 229.893425 
L 633.473713 229.893425 
L 643.669587 229.893425 
L 653.86546 229.893425 
" clip-path="url(#pd98bbce91c)" style="fill: none; stroke-dasharray: 1.5,2.475; stroke-dashoffset: 0; stroke: #ffa500; stroke-width: 1.5"/>
   </g>
   <g id="patch_3">
    <path d="M 48.17 238.559481 
L 48.17 47.90625 
" style="fill: none; stroke: #000000; stroke-width: 0.8; stroke-linejoin: miter; stroke-linecap: square"/>
   </g>
   <g id="patch_4">
    <path d="M 351.01773 238.559481 
L 351.01773 47.90625 
" style="fill: none; stroke: #000000; stroke-width: 0.8; stroke-linejoin: miter; stroke-linecap: square"/>
   </g>
   <g id="patch_5">
    <path d="M 48.17 238.559481 
L 351.01773 238.559481 
" style="fill: none; stroke: #000000; stroke-width: 0.8; stroke-linejoin: miter; stroke-linecap: square"/>
   </g>
   <g id="patch_6">
    <path d="M 48.17 47.90625 
L 351.01773 47.90625 
" style="fill: none; stroke: #000000; stroke-width: 0.8; stroke-linejoin: miter; stroke-linecap: square"/>
   </g>
   <g id="text_16">
    <!-- TM-align -->
    <g transform="translate(173.965428 41.90625) scale(0.12 -0.12)">
     <defs>
      <path id="DejaVuSans-2d" d="M 313 2009 
L 1997 2009 
L 1997 1497 
L 313 1497 
L 313 2009 
z
" transform="scale(0.015625)"/>
      <path id="DejaVuSans-61" d="M 2194 1759 
Q 1497 1759 1228 1600 
Q 959 1441 959 1056 
Q 959 750 1161 570 
Q 1363 391 1709 391 
Q 2188 391 2477 730 
Q 2766 1069 2766 1631 
L 2766 1759 
L 2194 1759 
z
M 3341 1997 
L 3341 0 
L 2766 0 
L 2766 531 
Q 2569 213 2275 61 
Q 1981 -91 1556 -91 
Q 1019 -91 701 211 
Q 384 513 384 1019 
Q 384 1609 779 1909 
Q 1175 2209 1959 2209 
L 2766 2209 
L 2766 2266 
Q 2766 2663 2505 2880 
Q 2244 3097 1772 3097 
Q 1472 3097 1187 3025 
Q 903 2953 641 2809 
L 641 3341 
Q 956 3463 1253 3523 
Q 1550 3584 1831 3584 
Q 2591 3584 2966 3190 
Q 3341 2797 3341 1997 
z
" transform="scale(0.015625)"/>
      <path id="DejaVuSans-6c" d="M 603 4863 
L 1178 4863 
L 1178 0 
L 603 0 
L 603 4863 
z
" transform="scale(0.015625)"/>
      <path id="DejaVuSans-69" d="M 603 3500 
L 1178 3500 
L 1178 0 
L 603 0 
L 603 3500 
z
M 603 4863 
L 1178 4863 
L 1178 4134 
L 603 4134 
L 603 4863 
z
" transform="scale(0.015625)"/>
      <path id="DejaVuSans-67" d="M 2906 1791 
Q 2906 2416 2648 2759 
Q 2391 3103 1925 3103 
Q 1463 3103 1205 2759 
Q 947 2416 947 1791 
Q 947 1169 1205 825 
Q 1463 481 1925 481 
Q 2391 481 2648 825 
Q 2906 1169 2906 1791 
z
M 3481 434 
Q 3481 -459 3084 -895 
Q 2688 -1331 1869 -1331 
Q 1566 -1331 1297 -1286 
Q 1028 -1241 775 -1147 
L 775 -588 
Q 1028 -725 1275 -790 
Q 1522 -856 1778 -856 
Q 2344 -856 2625 -561 
Q 2906 -266 2906 331 
L 2906 616 
Q 2728 306 2450 153 
Q 2172 0 1784 0 
Q 1141 0 747 490 
Q 353 981 353 1791 
Q 353 2603 747 3093 
Q 1141 3584 1784 3584 
Q 2172 3584 2450 3431 
Q 2728 3278 2906 2969 
L 2906 3500 
L 3481 3500 
L 3481 434 
z
" transform="scale(0.015625)"/>
      <path id="DejaVuSans-6e" d="M 3513 2113 
L 3513 0 
L 2938 0 
L 2938 2094 
Q 2938 2591 2744 2837 
Q 2550 3084 2163 3084 
Q 1697 3084 1428 2787 
Q 1159 2491 1159 1978 
L 1159 0 
L 581 0 
L 581 3500 
L 1159 3500 
L 1159 2956 
Q 1366 3272 1645 3428 
Q 1925 3584 2291 3584 
Q 2894 3584 3203 3211 
Q 3513 2838 3513 2113 
z
" transform="scale(0.015625)"/>
     </defs>
     <use xlink:href="#DejaVuSans-54"/>
     <use xlink:href="#DejaVuSans-4d" x="61.083984"/>
     <use xlink:href="#DejaVuSans-2d" x="147.363281"/>
     <use xlink:href="#DejaVuSans-61" x="183.447266"/>
     <use xlink:href="#DejaVuSans-6c" x="244.726562"/>
     <use xlink:href="#DejaVuSans-69" x="272.509766"/>
     <use xlink:href="#DejaVuSans-67" x="300.292969"/>
     <use xlink:href="#DejaVuSans-6e" x="363.769531"/>
    </g>
   </g>
   <g id="legend_1">
    <g id="patch_7">
     <path d="M 250.228668 129.296875 
L 344.01773 129.296875 
Q 346.01773 129.296875 346.01773 127.296875 
L 346.01773 54.90625 
Q 346.01773 52.90625 344.01773 52.90625 
L 250.228668 52.90625 
Q 248.228668 52.90625 248.228668 54.90625 
L 248.228668 127.296875 
Q 248.228668 129.296875 250.228668 129.296875 
z
" style="fill: #ffffff; opacity: 0.8; stroke: #cccccc; stroke-linejoin: miter"/>
    </g>
    <g id="line2d_19">
     <path d="M 252.228668 61.004687 
L 262.228668 61.004687 
L 272.228668 61.004687 
" style="fill: none; stroke: #000000; stroke-width: 1.5; stroke-linecap: square"/>
    </g>
    <g id="text_17">
     <!-- SCOP40 -->
     <g transform="translate(280.228668 64.504687) scale(0.1 -0.1)">
      <defs>
       <path id="DejaVuSans-53" d="M 3425 4513 
L 3425 3897 
Q 3066 4069 2747 4153 
Q 2428 4238 2131 4238 
Q 1616 4238 1336 4038 
Q 1056 3838 1056 3469 
Q 1056 3159 1242 3001 
Q 1428 2844 1947 2747 
L 2328 2669 
Q 3034 2534 3370 2195 
Q 3706 1856 3706 1288 
Q 3706 609 3251 259 
Q 2797 -91 1919 -91 
Q 1588 -91 1214 -16 
Q 841 59 441 206 
L 441 856 
Q 825 641 1194 531 
Q 1563 422 1919 422 
Q 2459 422 2753 634 
Q 3047 847 3047 1241 
Q 3047 1584 2836 1778 
Q 2625 1972 2144 2069 
L 1759 2144 
Q 1053 2284 737 2584 
Q 422 2884 422 3419 
Q 422 4038 858 4394 
Q 1294 4750 2059 4750 
Q 2388 4750 2728 4690 
Q 3069 4631 3425 4513 
z
" transform="scale(0.015625)"/>
       <path id="DejaVuSans-43" d="M 4122 4306 
L 4122 3641 
Q 3803 3938 3442 4084 
Q 3081 4231 2675 4231 
Q 1875 4231 1450 3742 
Q 1025 3253 1025 2328 
Q 1025 1406 1450 917 
Q 1875 428 2675 428 
Q 3081 428 3442 575 
Q 3803 722 4122 1019 
L 4122 359 
Q 3791 134 3420 21 
Q 3050 -91 2638 -91 
Q 1578 -91 968 557 
Q 359 1206 359 2328 
Q 359 3453 968 4101 
Q 1578 4750 2638 4750 
Q 3056 4750 3426 4639 
Q 3797 4528 4122 4306 
z
" transform="scale(0.015625)"/>
       <path id="DejaVuSans-4f" d="M 2522 4238 
Q 1834 4238 1429 3725 
Q 1025 3213 1025 2328 
Q 1025 1447 1429 934 
Q 1834 422 2522 422 
Q 3209 422 3611 934 
Q 4013 1447 4013 2328 
Q 4013 3213 3611 3725 
Q 3209 4238 2522 4238 
z
M 2522 4750 
Q 3503 4750 4090 4092 
Q 4678 3434 4678 2328 
Q 4678 1225 4090 567 
Q 3503 -91 2522 -91 
Q 1538 -91 948 565 
Q 359 1222 359 2328 
Q 359 3434 948 4092 
Q 1538 4750 2522 4750 
z
" transform="scale(0.015625)"/>
      </defs>
      <use xlink:href="#DejaVuSans-53"/>
      <use xlink:href="#DejaVuSans-43" x="63.476562"/>
      <use xlink:href="#DejaVuSans-4f" x="133.300781"/>
      <use xlink:href="#DejaVuSans-50" x="212.011719"/>
      <use xlink:href="#DejaVuSans-34" x="272.314453"/>
      <use xlink:href="#DejaVuSans-30" x="335.9375"/>
     </g>
    </g>
    <g id="line2d_20">
     <path d="M 252.228668 75.682812 
L 262.228668 75.682812 
L 272.228668 75.682812 
" style="fill: none; stroke: #00ffff; stroke-width: 1.5; stroke-linecap: square"/>
    </g>
    <g id="text_18">
     <!-- SCOP40c -->
     <g transform="translate(280.228668 79.182812) scale(0.1 -0.1)">
      <use xlink:href="#DejaVuSans-53"/>
      <use xlink:href="#DejaVuSans-43" x="63.476562"/>
      <use xlink:href="#DejaVuSans-4f" x="133.300781"/>
      <use xlink:href="#DejaVuSans-50" x="212.011719"/>
      <use xlink:href="#DejaVuSans-34" x="272.314453"/>
      <use xlink:href="#DejaVuSans-30" x="335.9375"/>
      <use xlink:href="#DejaVuSans-63" x="399.560547"/>
     </g>
    </g>
    <g id="line2d_21">
     <path d="M 252.228668 90.360937 
L 262.228668 90.360937 
L 272.228668 90.360937 
" style="fill: none; stroke: #ffa500; stroke-width: 1.5; stroke-linecap: square"/>
    </g>
    <g id="text_19">
     <!-- SCOP40/SF2 -->
     <g transform="translate(280.228668 93.860937) scale(0.1 -0.1)">
      <defs>
       <path id="DejaVuSans-2f" d="M 1625 4666 
L 2156 4666 
L 531 -594 
L 0 -594 
L 1625 4666 
z
" transform="scale(0.015625)"/>
      </defs>
      <use xlink:href="#DejaVuSans-53"/>
      <use xlink:href="#DejaVuSans-43" x="63.476562"/>
      <use xlink:href="#DejaVuSans-4f" x="133.300781"/>
      <use xlink:href="#DejaVuSans-50" x="212.011719"/>
      <use xlink:href="#DejaVuSans-34" x="272.314453"/>
      <use xlink:href="#DejaVuSans-30" x="335.9375"/>
      <use xlink:href="#DejaVuSans-2f" x="399.560547"/>
      <use xlink:href="#DejaVuSans-53" x="433.251953"/>
      <use xlink:href="#DejaVuSans-46" x="496.728516"/>
      <use xlink:href="#DejaVuSans-32" x="554.248047"/>
     </g>
    </g>
    <g id="line2d_22">
     <path d="M 252.228668 105.039062 
L 262.228668 105.039062 
L 272.228668 105.039062 
" style="fill: none; stroke-dasharray: 5.55,2.4; stroke-dashoffset: 0; stroke: #ffa500; stroke-width: 1.5"/>
    </g>
    <g id="text_20">
     <!-- SCOP40/SF4 -->
     <g transform="translate(280.228668 108.539062) scale(0.1 -0.1)">
      <use xlink:href="#DejaVuSans-53"/>
      <use xlink:href="#DejaVuSans-43" x="63.476562"/>
      <use xlink:href="#DejaVuSans-4f" x="133.300781"/>
      <use xlink:href="#DejaVuSans-50" x="212.011719"/>
      <use xlink:href="#DejaVuSans-34" x="272.314453"/>
      <use xlink:href="#DejaVuSans-30" x="335.9375"/>
      <use xlink:href="#DejaVuSans-2f" x="399.560547"/>
      <use xlink:href="#DejaVuSans-53" x="433.251953"/>
      <use xlink:href="#DejaVuSans-46" x="496.728516"/>
      <use xlink:href="#DejaVuSans-34" x="554.248047"/>
     </g>
    </g>
    <g id="line2d_23">
     <path d="M 252.228668 119.717187 
L 262.228668 119.717187 
L 272.228668 119.717187 
" style="fill: none; stroke-dasharray: 1.5,2.475; stroke-dashoffset: 0; stroke: #ffa500; stroke-width: 1.5"/>
    </g>
    <g id="text_21">
     <!-- SCOP40/SF8 -->
     <g transform="translate(280.228668 123.217187) scale(0.1 -0.1)">
      <use xlink:href="#DejaVuSans-53"/>
      <use xlink:href="#DejaVuSans-43" x="63.476562"/>
      <use xlink:href="#DejaVuSans-4f" x="133.300781"/>
      <use xlink:href="#DejaVuSans-50" x="212.011719"/>
      <use xlink:href="#DejaVuSans-34" x="272.314453"/>
      <use xlink:href="#DejaVuSans-30" x="335.9375"/>
      <use xlink:href="#DejaVuSans-2f" x="399.560547"/>
      <use xlink:href="#DejaVuSans-53" x="433.251953"/>
      <use xlink:href="#DejaVuSans-46" x="496.728516"/>
      <use xlink:href="#DejaVuSans-38" x="554.248047"/>
     </g>
    </g>
   </g>
  </g>
  <g id="axes_2">
   <g id="patch_8">
    <path d="M 418.418076 238.559481 
L 721.265806 238.559481 
L 721.265806 47.90625 
L 418.418076 47.90625 
z
" style="fill: #ffffff"/>
   </g>
   <g id="matplotlib.axis_3">
    <g id="xtick_8">
     <g id="line2d_24">
      <g>
       <use xlink:href="#mb84cceb76b" x="418.418076" y="238.559481" style="stroke: #000000; stroke-width: 0.8"/>
      </g>
     </g>
     <g id="text_22">
      <!-- 0.40 -->
      <g transform="translate(407.285264 253.157918) scale(0.1 -0.1)">
       <use xlink:href="#DejaVuSans-30"/>
       <use xlink:href="#DejaVuSans-2e" x="63.623047"/>
       <use xlink:href="#DejaVuSans-34" x="95.410156"/>
       <use xlink:href="#DejaVuSans-30" x="159.033203"/>
      </g>
     </g>
    </g>
    <g id="xtick_9">
     <g id="line2d_25">
      <g>
       <use xlink:href="#mb84cceb76b" x="468.892698" y="238.559481" style="stroke: #000000; stroke-width: 0.8"/>
      </g>
     </g>
     <g id="text_23">
      <!-- 0.45 -->
      <g transform="translate(457.759885 253.157918) scale(0.1 -0.1)">
       <use xlink:href="#DejaVuSans-30"/>
       <use xlink:href="#DejaVuSans-2e" x="63.623047"/>
       <use xlink:href="#DejaVuSans-34" x="95.410156"/>
       <use xlink:href="#DejaVuSans-35" x="159.033203"/>
      </g>
     </g>
    </g>
    <g id="xtick_10">
     <g id="line2d_26">
      <g>
       <use xlink:href="#mb84cceb76b" x="519.36732" y="238.559481" style="stroke: #000000; stroke-width: 0.8"/>
      </g>
     </g>
     <g id="text_24">
      <!-- 0.50 -->
      <g transform="translate(508.234507 253.157918) scale(0.1 -0.1)">
       <use xlink:href="#DejaVuSans-30"/>
       <use xlink:href="#DejaVuSans-2e" x="63.623047"/>
       <use xlink:href="#DejaVuSans-35" x="95.410156"/>
       <use xlink:href="#DejaVuSans-30" x="159.033203"/>
      </g>
     </g>
    </g>
    <g id="xtick_11">
     <g id="line2d_27">
      <g>
       <use xlink:href="#mb84cceb76b" x="569.841941" y="238.559481" style="stroke: #000000; stroke-width: 0.8"/>
      </g>
     </g>
     <g id="text_25">
      <!-- 0.55 -->
      <g transform="translate(558.709129 253.157918) scale(0.1 -0.1)">
       <use xlink:href="#DejaVuSans-30"/>
       <use xlink:href="#DejaVuSans-2e" x="63.623047"/>
       <use xlink:href="#DejaVuSans-35" x="95.410156"/>
       <use xlink:href="#DejaVuSans-35" x="159.033203"/>
      </g>
     </g>
    </g>
    <g id="xtick_12">
     <g id="line2d_28">
      <g>
       <use xlink:href="#mb84cceb76b" x="620.316563" y="238.559481" style="stroke: #000000; stroke-width: 0.8"/>
      </g>
     </g>
     <g id="text_26">
      <!-- 0.60 -->
      <g transform="translate(609.183751 253.157918) scale(0.1 -0.1)">
       <use xlink:href="#DejaVuSans-30"/>
       <use xlink:href="#DejaVuSans-2e" x="63.623047"/>
       <use xlink:href="#DejaVuSans-36" x="95.410156"/>
       <use xlink:href="#DejaVuSans-30" x="159.033203"/>
      </g>
     </g>
    </g>
    <g id="xtick_13">
     <g id="line2d_29">
      <g>
       <use xlink:href="#mb84cceb76b" x="670.791185" y="238.559481" style="stroke: #000000; stroke-width: 0.8"/>
      </g>
     </g>
     <g id="text_27">
      <!-- 0.65 -->
      <g transform="translate(659.658372 253.157918) scale(0.1 -0.1)">
       <use xlink:href="#DejaVuSans-30"/>
       <use xlink:href="#DejaVuSans-2e" x="63.623047"/>
       <use xlink:href="#DejaVuSans-36" x="95.410156"/>
       <use xlink:href="#DejaVuSans-35" x="159.033203"/>
      </g>
     </g>
    </g>
    <g id="xtick_14">
     <g id="line2d_30">
      <g>
       <use xlink:href="#mb84cceb76b" x="721.265806" y="238.559481" style="stroke: #000000; stroke-width: 0.8"/>
      </g>
     </g>
     <g id="text_28">
      <!-- 0.70 -->
      <g transform="translate(710.132994 253.157918) scale(0.1 -0.1)">
       <use xlink:href="#DejaVuSans-30"/>
       <use xlink:href="#DejaVuSans-2e" x="63.623047"/>
       <use xlink:href="#DejaVuSans-37" x="95.410156"/>
       <use xlink:href="#DejaVuSans-30" x="159.033203"/>
      </g>
     </g>
    </g>
    <g id="text_29">
     <!-- TM score -->
     <g transform="translate(547.452098 266.836043) scale(0.1 -0.1)">
      <use xlink:href="#DejaVuSans-54"/>
      <use xlink:href="#DejaVuSans-4d" x="61.083984"/>
      <use xlink:href="#DejaVuSans-20" x="147.363281"/>
      <use xlink:href="#DejaVuSans-73" x="179.150391"/>
      <use xlink:href="#DejaVuSans-63" x="231.25"/>
      <use xlink:href="#DejaVuSans-6f" x="286.230469"/>
      <use xlink:href="#DejaVuSans-72" x="347.412109"/>
      <use xlink:href="#DejaVuSans-65" x="386.275391"/>
     </g>
    </g>
   </g>
   <g id="matplotlib.axis_4">
    <g id="ytick_7">
     <g id="line2d_31">
      <g>
       <use xlink:href="#md7adb1564e" x="418.418076" y="238.559481" style="stroke: #000000; stroke-width: 0.8"/>
      </g>
     </g>
     <g id="text_30">
      <!-- $\mathdefault{10^{-3}}$ -->
      <g transform="translate(387.918076 242.358699) scale(0.1 -0.1)">
       <defs>
        <path id="DejaVuSans-2212" d="M 678 2272 
L 4684 2272 
L 4684 1741 
L 678 1741 
L 678 2272 
z
" transform="scale(0.015625)"/>
        <path id="DejaVuSans-33" d="M 2597 2516 
Q 3050 2419 3304 2112 
Q 3559 1806 3559 1356 
Q 3559 666 3084 287 
Q 2609 -91 1734 -91 
Q 1441 -91 1130 -33 
Q 819 25 488 141 
L 488 750 
Q 750 597 1062 519 
Q 1375 441 1716 441 
Q 2309 441 2620 675 
Q 2931 909 2931 1356 
Q 2931 1769 2642 2001 
Q 2353 2234 1838 2234 
L 1294 2234 
L 1294 2753 
L 1863 2753 
Q 2328 2753 2575 2939 
Q 2822 3125 2822 3475 
Q 2822 3834 2567 4026 
Q 2313 4219 1838 4219 
Q 1578 4219 1281 4162 
Q 984 4106 628 3988 
L 628 4550 
Q 988 4650 1302 4700 
Q 1616 4750 1894 4750 
Q 2613 4750 3031 4423 
Q 3450 4097 3450 3541 
Q 3450 3153 3228 2886 
Q 3006 2619 2597 2516 
z
" transform="scale(0.015625)"/>
       </defs>
       <use xlink:href="#DejaVuSans-31" transform="translate(0 0.765625)"/>
       <use xlink:href="#DejaVuSans-30" transform="translate(63.623047 0.765625)"/>
       <use xlink:href="#DejaVuSans-2212" transform="translate(128.203125 39.046875) scale(0.7)"/>
       <use xlink:href="#DejaVuSans-33" transform="translate(186.855469 39.046875) scale(0.7)"/>
      </g>
     </g>
    </g>
    <g id="ytick_8">
     <g id="line2d_32">
      <g>
       <use xlink:href="#md7adb1564e" x="418.418076" y="180.803801" style="stroke: #000000; stroke-width: 0.8"/>
      </g>
     </g>
     <g id="text_31">
      <!-- $\mathdefault{10^{-2}}$ -->
      <g transform="translate(387.918076 184.60302) scale(0.1 -0.1)">
       <use xlink:href="#DejaVuSans-31" transform="translate(0 0.765625)"/>
       <use xlink:href="#DejaVuSans-30" transform="translate(63.623047 0.765625)"/>
       <use xlink:href="#DejaVuSans-2212" transform="translate(128.203125 39.046875) scale(0.7)"/>
       <use xlink:href="#DejaVuSans-32" transform="translate(186.855469 39.046875) scale(0.7)"/>
      </g>
     </g>
    </g>
    <g id="ytick_9">
     <g id="line2d_33">
      <g>
       <use xlink:href="#md7adb1564e" x="418.418076" y="123.048121" style="stroke: #000000; stroke-width: 0.8"/>
      </g>
     </g>
     <g id="text_32">
      <!-- $\mathdefault{10^{-1}}$ -->
      <g transform="translate(387.918076 126.84734) scale(0.1 -0.1)">
       <use xlink:href="#DejaVuSans-31" transform="translate(0 0.684375)"/>
       <use xlink:href="#DejaVuSans-30" transform="translate(63.623047 0.684375)"/>
       <use xlink:href="#DejaVuSans-2212" transform="translate(128.203125 38.965625) scale(0.7)"/>
       <use xlink:href="#DejaVuSans-31" transform="translate(186.855469 38.965625) scale(0.7)"/>
      </g>
     </g>
    </g>
    <g id="ytick_10">
     <g id="line2d_34">
      <g>
       <use xlink:href="#md7adb1564e" x="418.418076" y="65.292442" style="stroke: #000000; stroke-width: 0.8"/>
      </g>
     </g>
     <g id="text_33">
      <!-- $\mathdefault{10^{0}}$ -->
      <g transform="translate(393.818076 69.091661) scale(0.1 -0.1)">
       <use xlink:href="#DejaVuSans-31" transform="translate(0 0.765625)"/>
       <use xlink:href="#DejaVuSans-30" transform="translate(63.623047 0.765625)"/>
       <use xlink:href="#DejaVuSans-30" transform="translate(128.203125 39.046875) scale(0.7)"/>
      </g>
     </g>
    </g>
    <g id="ytick_11">
     <g id="line2d_35">
      <defs>
       <path id="m3f3dd6c343" d="M 0 0 
L -2 0 
" style="stroke: #000000; stroke-width: 0.6"/>
      </defs>
      <g>
       <use xlink:href="#m3f3dd6c343" x="418.418076" y="221.173289" style="stroke: #000000; stroke-width: 0.6"/>
      </g>
     </g>
    </g>
    <g id="ytick_12">
     <g id="line2d_36">
      <g>
       <use xlink:href="#m3f3dd6c343" x="418.418076" y="211.003018" style="stroke: #000000; stroke-width: 0.6"/>
      </g>
     </g>
    </g>
    <g id="ytick_13">
     <g id="line2d_37">
      <g>
       <use xlink:href="#m3f3dd6c343" x="418.418076" y="203.787097" style="stroke: #000000; stroke-width: 0.6"/>
      </g>
     </g>
    </g>
    <g id="ytick_14">
     <g id="line2d_38">
      <g>
       <use xlink:href="#m3f3dd6c343" x="418.418076" y="198.189993" style="stroke: #000000; stroke-width: 0.6"/>
      </g>
     </g>
    </g>
    <g id="ytick_15">
     <g id="line2d_39">
      <g>
       <use xlink:href="#m3f3dd6c343" x="418.418076" y="193.616826" style="stroke: #000000; stroke-width: 0.6"/>
      </g>
     </g>
    </g>
    <g id="ytick_16">
     <g id="line2d_40">
      <g>
       <use xlink:href="#m3f3dd6c343" x="418.418076" y="189.750269" style="stroke: #000000; stroke-width: 0.6"/>
      </g>
     </g>
    </g>
    <g id="ytick_17">
     <g id="line2d_41">
      <g>
       <use xlink:href="#m3f3dd6c343" x="418.418076" y="186.400905" style="stroke: #000000; stroke-width: 0.6"/>
      </g>
     </g>
    </g>
    <g id="ytick_18">
     <g id="line2d_42">
      <g>
       <use xlink:href="#m3f3dd6c343" x="418.418076" y="183.446556" style="stroke: #000000; stroke-width: 0.6"/>
      </g>
     </g>
    </g>
    <g id="ytick_19">
     <g id="line2d_43">
      <g>
       <use xlink:href="#m3f3dd6c343" x="418.418076" y="163.417609" style="stroke: #000000; stroke-width: 0.6"/>
      </g>
     </g>
    </g>
    <g id="ytick_20">
     <g id="line2d_44">
      <g>
       <use xlink:href="#m3f3dd6c343" x="418.418076" y="153.247339" style="stroke: #000000; stroke-width: 0.6"/>
      </g>
     </g>
    </g>
    <g id="ytick_21">
     <g id="line2d_45">
      <g>
       <use xlink:href="#m3f3dd6c343" x="418.418076" y="146.031417" style="stroke: #000000; stroke-width: 0.6"/>
      </g>
     </g>
    </g>
    <g id="ytick_22">
     <g id="line2d_46">
      <g>
       <use xlink:href="#m3f3dd6c343" x="418.418076" y="140.434313" style="stroke: #000000; stroke-width: 0.6"/>
      </g>
     </g>
    </g>
    <g id="ytick_23">
     <g id="line2d_47">
      <g>
       <use xlink:href="#m3f3dd6c343" x="418.418076" y="135.861147" style="stroke: #000000; stroke-width: 0.6"/>
      </g>
     </g>
    </g>
    <g id="ytick_24">
     <g id="line2d_48">
      <g>
       <use xlink:href="#m3f3dd6c343" x="418.418076" y="131.994589" style="stroke: #000000; stroke-width: 0.6"/>
      </g>
     </g>
    </g>
    <g id="ytick_25">
     <g id="line2d_49">
      <g>
       <use xlink:href="#m3f3dd6c343" x="418.418076" y="128.645225" style="stroke: #000000; stroke-width: 0.6"/>
      </g>
     </g>
    </g>
    <g id="ytick_26">
     <g id="line2d_50">
      <g>
       <use xlink:href="#m3f3dd6c343" x="418.418076" y="125.690876" style="stroke: #000000; stroke-width: 0.6"/>
      </g>
     </g>
    </g>
    <g id="ytick_27">
     <g id="line2d_51">
      <g>
       <use xlink:href="#m3f3dd6c343" x="418.418076" y="105.66193" style="stroke: #000000; stroke-width: 0.6"/>
      </g>
     </g>
    </g>
    <g id="ytick_28">
     <g id="line2d_52">
      <g>
       <use xlink:href="#m3f3dd6c343" x="418.418076" y="95.491659" style="stroke: #000000; stroke-width: 0.6"/>
      </g>
     </g>
    </g>
    <g id="ytick_29">
     <g id="line2d_53">
      <g>
       <use xlink:href="#m3f3dd6c343" x="418.418076" y="88.275738" style="stroke: #000000; stroke-width: 0.6"/>
      </g>
     </g>
    </g>
    <g id="ytick_30">
     <g id="line2d_54">
      <g>
       <use xlink:href="#m3f3dd6c343" x="418.418076" y="82.678634" style="stroke: #000000; stroke-width: 0.6"/>
      </g>
     </g>
    </g>
    <g id="ytick_31">
     <g id="line2d_55">
      <g>
       <use xlink:href="#m3f3dd6c343" x="418.418076" y="78.105467" style="stroke: #000000; stroke-width: 0.6"/>
      </g>
     </g>
    </g>
    <g id="ytick_32">
     <g id="line2d_56">
      <g>
       <use xlink:href="#m3f3dd6c343" x="418.418076" y="74.23891" style="stroke: #000000; stroke-width: 0.6"/>
      </g>
     </g>
    </g>
    <g id="ytick_33">
     <g id="line2d_57">
      <g>
       <use xlink:href="#m3f3dd6c343" x="418.418076" y="70.889546" style="stroke: #000000; stroke-width: 0.6"/>
      </g>
     </g>
    </g>
    <g id="ytick_34">
     <g id="line2d_58">
      <g>
       <use xlink:href="#m3f3dd6c343" x="418.418076" y="67.935197" style="stroke: #000000; stroke-width: 0.6"/>
      </g>
     </g>
    </g>
    <g id="ytick_35">
     <g id="line2d_59">
      <g>
       <use xlink:href="#m3f3dd6c343" x="418.418076" y="47.90625" style="stroke: #000000; stroke-width: 0.6"/>
      </g>
     </g>
    </g>
    <g id="text_34">
     <!-- P(F|score) -->
     <g transform="translate(381.560264 168.14224) rotate(-90) scale(0.1 -0.1)">
      <use xlink:href="#DejaVuSans-50"/>
      <use xlink:href="#DejaVuSans-28" x="60.302734"/>
      <use xlink:href="#DejaVuSans-46" x="99.316406"/>
      <use xlink:href="#DejaVuSans-7c" x="156.835938"/>
      <use xlink:href="#DejaVuSans-73" x="190.527344"/>
      <use xlink:href="#DejaVuSans-63" x="242.626953"/>
      <use xlink:href="#DejaVuSans-6f" x="297.607422"/>
      <use xlink:href="#DejaVuSans-72" x="358.789062"/>
      <use xlink:href="#DejaVuSans-65" x="397.652344"/>
      <use xlink:href="#DejaVuSans-29" x="459.175781"/>
     </g>
    </g>
   </g>
   <g id="line2d_60">
    <path d="M 55.366426 281.519481 
L 55.404597 65.292442 
L 65.610566 65.292442 
L 75.806439 65.292442 
L 86.002313 65.292442 
L 96.198186 65.292442 
L 106.39406 65.292442 
L 116.579839 65.297458 
L 126.775712 65.292442 
L 136.971586 65.292442 
L 147.167459 65.294951 
L 157.363333 65.292442 
L 167.559206 65.294951 
L 177.75508 65.294951 
L 187.950954 65.294951 
L 198.146827 65.294951 
L 208.342701 65.294951 
L 218.538574 65.294951 
L 228.734448 65.294951 
L 238.930322 65.294951 
L 249.126195 65.294951 
L 259.322069 65.294951 
L 269.517942 65.297458 
L 279.713816 65.297458 
L 289.909689 65.297458 
L 300.105563 65.299968 
L 310.301437 65.302477 
L 320.49731 65.304987 
L 330.693184 65.312517 
L 340.889057 65.320049 
L 351.084931 65.332608 
L 361.280805 65.345171 
L 371.476678 65.362772 
L 381.672552 65.390457 
L 391.868425 65.435824 
L 402.064299 65.493913 
L 412.260172 65.582568 
L 422.456046 65.686821 
L 432.65192 65.832482 
L 442.847793 66.020273 
L 453.043667 66.279827 
L 463.23954 66.568471 
L 473.435414 66.91126 
L 483.631288 67.307677 
L 493.827161 67.776838 
L 504.023035 68.407838 
L 514.218908 68.99981 
L 524.515731 69.794475 
L 534.711605 70.503742 
L 544.907478 71.306866 
L 555.103352 72.219075 
L 565.299225 72.933338 
L 575.495099 73.791432 
L 585.690973 74.95494 
L 595.886846 76.67548 
L 606.08272 78.017829 
L 616.278593 80.406827 
L 626.474467 83.18026 
L 636.67034 87.473508 
L 646.866214 90.312726 
L 657.062088 93.755539 
L 667.257961 99.597643 
L 677.453835 105.549309 
L 687.649708 111.056057 
L 697.845582 116.332545 
L 708.041456 121.633934 
L 718.237329 125.306445 
L 728.433203 131.951627 
L 738.629076 137.355418 
L 744.225806 138.142264 
" clip-path="url(#p1a5411f003)" style="fill: none; stroke: #000000; stroke-width: 1.5; stroke-linecap: square"/>
   </g>
   <g id="line2d_61">
    <path d="M 55.366426 281.519481 
L 55.404597 65.292442 
L 65.610566 65.292442 
L 75.806439 65.292442 
L 86.002313 65.292442 
L 96.198186 65.292442 
L 106.39406 65.292442 
L 116.579839 65.304987 
L 126.775712 65.292442 
L 136.971586 65.292442 
L 147.167459 65.302477 
L 157.363333 65.292442 
L 167.559206 65.307496 
L 177.75508 65.302477 
L 187.950954 65.307496 
L 198.146827 65.297458 
L 208.342701 65.297458 
L 218.538574 65.297458 
L 228.734448 65.294951 
L 238.930322 65.294951 
L 249.126195 65.297458 
L 259.322069 65.297458 
L 269.517942 65.297458 
L 279.713816 65.299968 
L 289.909689 65.299968 
L 300.105563 65.302477 
L 310.301437 65.304987 
L 320.49731 65.310006 
L 330.693184 65.320049 
L 340.889057 65.330095 
L 351.084931 65.347685 
L 361.280805 65.367805 
L 371.476678 65.390457 
L 381.672552 65.425735 
L 391.868425 65.481273 
L 402.064299 65.552136 
L 412.260172 65.661352 
L 422.456046 65.801745 
L 432.65192 65.960954 
L 442.847793 66.199077 
L 453.043667 66.53155 
L 463.23954 66.943387 
L 473.435414 67.394808 
L 483.631288 67.971454 
L 493.827161 68.59026 
L 504.023035 69.280528 
L 514.218908 69.764477 
L 524.515731 70.411287 
L 534.711605 71.046806 
L 544.907478 71.828709 
L 555.103352 72.858615 
L 565.299225 74.049712 
L 575.495099 75.028789 
L 585.690973 76.206042 
L 595.886846 78.81351 
L 606.08272 80.558497 
L 616.278593 84.097587 
L 626.474467 88.038573 
L 636.67034 93.896367 
L 646.866214 98.688602 
L 657.062088 105.549309 
L 667.257961 112.055385 
L 677.453835 121.140945 
L 687.649708 126.913006 
L 697.845582 134.990179 
L 708.041456 145.707439 
L 718.237329 149.807213 
L 728.433203 162.039011 
L 738.629076 171.191516 
L 744.225806 173.263986 
" clip-path="url(#p1a5411f003)" style="fill: none; stroke: #00ffff; stroke-width: 1.5; stroke-linecap: square"/>
   </g>
   <g id="line2d_62">
    <path d="M 55.369484 281.519481 
L 55.404597 82.678634 
L 65.610566 65.292442 
L 75.806439 65.292442 
L 86.002313 65.292442 
L 96.198186 65.292442 
L 106.39406 65.292442 
L 116.579839 65.317537 
L 126.775712 65.292442 
L 136.971586 65.292442 
L 147.167459 65.292442 
L 157.363333 65.292442 
L 167.559206 65.292442 
L 177.75508 65.292442 
L 187.950954 65.292442 
L 198.146827 65.292442 
L 208.342701 65.292442 
L 218.538574 65.292442 
L 228.734448 65.292442 
L 238.930322 65.292442 
L 249.126195 65.292442 
L 259.322069 65.292442 
L 269.517942 65.292442 
L 279.713816 65.317537 
L 289.909689 65.317537 
L 300.105563 65.317537 
L 310.301437 65.317537 
L 320.49731 65.342657 
L 330.693184 65.367805 
L 340.889057 65.392975 
L 351.084931 65.418171 
L 361.280805 65.468641 
L 371.476678 65.519211 
L 381.672552 65.595259 
L 391.868425 65.697014 
L 402.064299 65.876088 
L 412.260172 66.082322 
L 422.456046 66.316379 
L 432.65192 66.658364 
L 442.847793 67.031947 
L 453.043667 67.548022 
L 463.23954 68.102977 
L 473.435414 68.814396 
L 483.631288 69.606093 
L 493.827161 70.547005 
L 504.023035 71.913482 
L 514.218908 73.393337 
L 524.515731 75.450174 
L 534.711605 77.649777 
L 544.907478 80.196927 
L 555.103352 83.598276 
L 565.299225 85.601649 
L 575.495099 88.975181 
L 585.690973 92.20508 
L 595.886846 96.255666 
L 606.08272 98.227487 
L 616.278593 101.510335 
L 626.474467 106.041025 
L 636.67034 110.035231 
L 646.866214 110.947439 
L 657.062088 112.711187 
L 667.257961 118.474955 
L 677.453835 124.600141 
L 687.649708 130.736683 
L 697.845582 133.661231 
L 708.041456 140.88992 
L 718.237329 143.527 
L 728.433203 152.668793 
L 738.629076 154.799357 
L 744.225806 156.239176 
" clip-path="url(#p1a5411f003)" style="fill: none; stroke: #ffa500; stroke-width: 1.5; stroke-linecap: square"/>
   </g>
   <g id="line2d_63">
    <path d="M 55.369484 281.519481 
L 55.404597 82.678634 
L 65.610566 72.508364 
L 75.806439 65.292442 
L 86.002313 65.292442 
L 96.198186 65.292442 
L 106.39406 65.292442 
L 116.579839 65.342657 
L 126.775712 65.292442 
L 136.971586 65.292442 
L 147.167459 65.292442 
L 157.363333 65.292442 
L 167.559206 65.317537 
L 177.75508 65.292442 
L 187.950954 65.317537 
L 198.146827 65.292442 
L 208.342701 65.292442 
L 218.538574 65.292442 
L 228.734448 65.292442 
L 238.930322 65.292442 
L 249.126195 65.292442 
L 259.322069 65.317537 
L 269.517942 65.317537 
L 279.713816 65.317537 
L 289.909689 65.317537 
L 300.105563 65.317537 
L 310.301437 65.342657 
L 320.49731 65.342657 
L 330.693184 65.367805 
L 340.889057 65.392975 
L 351.084931 65.443393 
L 361.280805 65.519211 
L 371.476678 65.595259 
L 381.672552 65.722519 
L 391.868425 65.901775 
L 402.064299 66.160098 
L 412.260172 66.526279 
L 422.456046 67.031947 
L 432.65192 67.740862 
L 442.847793 68.498883 
L 453.043667 69.606093 
L 463.23954 71.046806 
L 473.435414 72.275341 
L 483.631288 74.203104 
L 493.827161 75.752839 
L 504.023035 77.855883 
L 514.218908 79.304198 
L 524.515731 81.217078 
L 534.711605 82.578503 
L 544.907478 84.177342 
L 555.103352 86.17174 
L 565.299225 88.213109 
L 575.495099 90.096026 
L 585.690973 93.100996 
L 595.886846 97.222205 
L 606.08272 100.367643 
L 616.278593 104.200372 
L 626.474467 111.416295 
L 636.67034 116.467247 
L 646.866214 122.551413 
L 657.062088 129.02432 
L 667.257961 138.226739 
L 677.453835 146.474256 
L 687.649708 151.162569 
L 697.845582 161.37134 
L 708.041456 166.910715 
L 718.237329 171.31149 
L 728.433203 183.502357 
L 738.629076 225.39773 
L 744.225806 213.990109 
" clip-path="url(#p1a5411f003)" style="fill: none; stroke-dasharray: 5.55,2.4; stroke-dashoffset: 0; stroke: #ffa500; stroke-width: 1.5"/>
   </g>
   <g id="line2d_64">
    <path d="M 55.375607 281.519481 
L 55.404597 117.451018 
L 65.610566 100.064826 
L 75.806439 117.451018 
L 86.002313 100.064826 
L 96.198186 82.678634 
L 106.39406 77.08153 
L 116.579839 72.541829 
L 126.775712 68.641806 
L 136.971586 65.292442 
L 147.167459 65.292442 
L 157.363333 65.292442 
L 167.559206 65.317537 
L 177.75508 65.292442 
L 187.950954 65.317537 
L 198.146827 65.317537 
L 208.342701 65.317537 
L 218.538574 65.317537 
L 228.734448 65.317537 
L 238.930322 65.317537 
L 249.126195 65.317537 
L 259.322069 65.317537 
L 269.517942 65.317537 
L 279.713816 65.317537 
L 289.909689 65.317537 
L 300.105563 65.317537 
L 310.301437 65.317537 
L 320.49731 65.342657 
L 330.693184 65.342657 
L 340.889057 65.367805 
L 351.084931 65.418171 
L 361.280805 65.493913 
L 371.476678 65.595259 
L 381.672552 65.748049 
L 391.868425 66.082322 
L 402.064299 66.447361 
L 412.260172 67.085774 
L 422.456046 68.074936 
L 432.65192 69.25114 
L 442.847793 70.826917 
L 453.043667 72.878971 
L 463.23954 75.375074 
L 473.435414 77.814527 
L 483.631288 80.425162 
L 493.827161 83.23662 
L 504.023035 86.46172 
L 514.218908 89.23444 
L 524.515731 92.873999 
L 534.711605 95.913233 
L 544.907478 99.274747 
L 555.103352 102.485606 
L 565.299225 105.28848 
L 575.495099 107.213949 
L 585.690973 110.793082 
L 595.886846 112.217735 
L 606.08272 113.901789 
L 616.278593 116.856136 
L 626.474467 118.266796 
L 636.67034 123.401764 
L 646.866214 125.663023 
L 657.062088 130.064178 
L 667.257961 137.457679 
L 677.453835 143.985148 
L 687.649708 157.225625 
L 697.845582 160.352027 
L 708.041456 167.940661 
L 718.237329 169.330227 
L 728.433203 177.961182 
L 738.629076 186.058364 
L 744.225806 184.91847 
" clip-path="url(#p1a5411f003)" style="fill: none; stroke-dasharray: 1.5,2.475; stroke-dashoffset: 0; stroke: #ffa500; stroke-width: 1.5"/>
   </g>
   <g id="patch_9">
    <path d="M 418.418076 238.559481 
L 418.418076 47.90625 
" style="fill: none; stroke: #000000; stroke-width: 0.8; stroke-linejoin: miter; stroke-linecap: square"/>
   </g>
   <g id="patch_10">
    <path d="M 721.265806 238.559481 
L 721.265806 47.90625 
" style="fill: none; stroke: #000000; stroke-width: 0.8; stroke-linejoin: miter; stroke-linecap: square"/>
   </g>
   <g id="patch_11">
    <path d="M 418.418076 238.559481 
L 721.265806 238.559481 
" style="fill: none; stroke: #000000; stroke-width: 0.8; stroke-linejoin: miter; stroke-linecap: square"/>
   </g>
   <g id="patch_12">
    <path d="M 418.418076 47.90625 
L 721.265806 47.90625 
" style="fill: none; stroke: #000000; stroke-width: 0.8; stroke-linejoin: miter; stroke-linecap: square"/>
   </g>
   <g id="text_35">
    <!-- TM-align (logscale) -->
    <g transform="translate(513.017254 41.90625) scale(0.12 -0.12)">
     <use xlink:href="#DejaVuSans-54"/>
     <use xlink:href="#DejaVuSans-4d" x="61.083984"/>
     <use xlink:href="#DejaVuSans-2d" x="147.363281"/>
     <use xlink:href="#DejaVuSans-61" x="183.447266"/>
     <use xlink:href="#DejaVuSans-6c" x="244.726562"/>
     <use xlink:href="#DejaVuSans-69" x="272.509766"/>
     <use xlink:href="#DejaVuSans-67" x="300.292969"/>
     <use xlink:href="#DejaVuSans-6e" x="363.769531"/>
     <use xlink:href="#DejaVuSans-20" x="427.148438"/>
     <use xlink:href="#DejaVuSans-28" x="458.935547"/>
     <use xlink:href="#DejaVuSans-6c" x="497.949219"/>
     <use xlink:href="#DejaVuSans-6f" x="525.732422"/>
     <use xlink:href="#DejaVuSans-67" x="586.914062"/>
     <use xlink:href="#DejaVuSans-73" x="650.390625"/>
     <use xlink:href="#DejaVuSans-63" x="702.490234"/>
     <use xlink:href="#DejaVuSans-61" x="757.470703"/>
     <use xlink:href="#DejaVuSans-6c" x="818.75"/>
     <use xlink:href="#DejaVuSans-65" x="846.533203"/>
     <use xlink:href="#DejaVuSans-29" x="908.056641"/>
    </g>
   </g>
   <g id="legend_2">
    <g id="patch_13">
     <path d="M 425.418076 233.559481 
L 519.207139 233.559481 
Q 521.207139 233.559481 521.207139 231.559481 
L 521.207139 159.168856 
Q 521.207139 157.168856 519.207139 157.168856 
L 425.418076 157.168856 
Q 423.418076 157.168856 423.418076 159.168856 
L 423.418076 231.559481 
Q 423.418076 233.559481 425.418076 233.559481 
z
" style="fill: #ffffff; opacity: 0.8; stroke: #cccccc; stroke-linejoin: miter"/>
    </g>
    <g id="line2d_65">
     <path d="M 427.418076 165.267293 
L 437.418076 165.267293 
L 447.418076 165.267293 
" style="fill: none; stroke: #000000; stroke-width: 1.5; stroke-linecap: square"/>
    </g>
    <g id="text_36">
     <!-- SCOP40 -->
     <g transform="translate(455.418076 168.767293) scale(0.1 -0.1)">
      <use xlink:href="#DejaVuSans-53"/>
      <use xlink:href="#DejaVuSans-43" x="63.476562"/>
      <use xlink:href="#DejaVuSans-4f" x="133.300781"/>
      <use xlink:href="#DejaVuSans-50" x="212.011719"/>
      <use xlink:href="#DejaVuSans-34" x="272.314453"/>
      <use xlink:href="#DejaVuSans-30" x="335.9375"/>
     </g>
    </g>
    <g id="line2d_66">
     <path d="M 427.418076 179.945418 
L 437.418076 179.945418 
L 447.418076 179.945418 
" style="fill: none; stroke: #00ffff; stroke-width: 1.5; stroke-linecap: square"/>
    </g>
    <g id="text_37">
     <!-- SCOP40c -->
     <g transform="translate(455.418076 183.445418) scale(0.1 -0.1)">
      <use xlink:href="#DejaVuSans-53"/>
      <use xlink:href="#DejaVuSans-43" x="63.476562"/>
      <use xlink:href="#DejaVuSans-4f" x="133.300781"/>
      <use xlink:href="#DejaVuSans-50" x="212.011719"/>
      <use xlink:href="#DejaVuSans-34" x="272.314453"/>
      <use xlink:href="#DejaVuSans-30" x="335.9375"/>
      <use xlink:href="#DejaVuSans-63" x="399.560547"/>
     </g>
    </g>
    <g id="line2d_67">
     <path d="M 427.418076 194.623543 
L 437.418076 194.623543 
L 447.418076 194.623543 
" style="fill: none; stroke: #ffa500; stroke-width: 1.5; stroke-linecap: square"/>
    </g>
    <g id="text_38">
     <!-- SCOP40/SF2 -->
     <g transform="translate(455.418076 198.123543) scale(0.1 -0.1)">
      <use xlink:href="#DejaVuSans-53"/>
      <use xlink:href="#DejaVuSans-43" x="63.476562"/>
      <use xlink:href="#DejaVuSans-4f" x="133.300781"/>
      <use xlink:href="#DejaVuSans-50" x="212.011719"/>
      <use xlink:href="#DejaVuSans-34" x="272.314453"/>
      <use xlink:href="#DejaVuSans-30" x="335.9375"/>
      <use xlink:href="#DejaVuSans-2f" x="399.560547"/>
      <use xlink:href="#DejaVuSans-53" x="433.251953"/>
      <use xlink:href="#DejaVuSans-46" x="496.728516"/>
      <use xlink:href="#DejaVuSans-32" x="554.248047"/>
     </g>
    </g>
    <g id="line2d_68">
     <path d="M 427.418076 209.301668 
L 437.418076 209.301668 
L 447.418076 209.301668 
" style="fill: none; stroke-dasharray: 5.55,2.4; stroke-dashoffset: 0; stroke: #ffa500; stroke-width: 1.5"/>
    </g>
    <g id="text_39">
     <!-- SCOP40/SF4 -->
     <g transform="translate(455.418076 212.801668) scale(0.1 -0.1)">
      <use xlink:href="#DejaVuSans-53"/>
      <use xlink:href="#DejaVuSans-43" x="63.476562"/>
      <use xlink:href="#DejaVuSans-4f" x="133.300781"/>
      <use xlink:href="#DejaVuSans-50" x="212.011719"/>
      <use xlink:href="#DejaVuSans-34" x="272.314453"/>
      <use xlink:href="#DejaVuSans-30" x="335.9375"/>
      <use xlink:href="#DejaVuSans-2f" x="399.560547"/>
      <use xlink:href="#DejaVuSans-53" x="433.251953"/>
      <use xlink:href="#DejaVuSans-46" x="496.728516"/>
      <use xlink:href="#DejaVuSans-34" x="554.248047"/>
     </g>
    </g>
    <g id="line2d_69">
     <path d="M 427.418076 223.979793 
L 437.418076 223.979793 
L 447.418076 223.979793 
" style="fill: none; stroke-dasharray: 1.5,2.475; stroke-dashoffset: 0; stroke: #ffa500; stroke-width: 1.5"/>
    </g>
    <g id="text_40">
     <!-- SCOP40/SF8 -->
     <g transform="translate(455.418076 227.479793) scale(0.1 -0.1)">
      <use xlink:href="#DejaVuSans-53"/>
      <use xlink:href="#DejaVuSans-43" x="63.476562"/>
      <use xlink:href="#DejaVuSans-4f" x="133.300781"/>
      <use xlink:href="#DejaVuSans-50" x="212.011719"/>
      <use xlink:href="#DejaVuSans-34" x="272.314453"/>
      <use xlink:href="#DejaVuSans-30" x="335.9375"/>
      <use xlink:href="#DejaVuSans-2f" x="399.560547"/>
      <use xlink:href="#DejaVuSans-53" x="433.251953"/>
      <use xlink:href="#DejaVuSans-46" x="496.728516"/>
      <use xlink:href="#DejaVuSans-38" x="554.248047"/>
     </g>
    </g>
   </g>
  </g>
  <g id="text_41">
   <!-- ../plots/P_F_score.tm.svg -->
   <g transform="translate(297.447278 14.728515) scale(0.12 -0.12)">
    <defs>
     <path id="DejaVuSans-70" d="M 1159 525 
L 1159 -1331 
L 581 -1331 
L 581 3500 
L 1159 3500 
L 1159 2969 
Q 1341 3281 1617 3432 
Q 1894 3584 2278 3584 
Q 2916 3584 3314 3078 
Q 3713 2572 3713 1747 
Q 3713 922 3314 415 
Q 2916 -91 2278 -91 
Q 1894 -91 1617 61 
Q 1341 213 1159 525 
z
M 3116 1747 
Q 3116 2381 2855 2742 
Q 2594 3103 2138 3103 
Q 1681 3103 1420 2742 
Q 1159 2381 1159 1747 
Q 1159 1113 1420 752 
Q 1681 391 2138 391 
Q 2594 391 2855 752 
Q 3116 1113 3116 1747 
z
" transform="scale(0.015625)"/>
     <path id="DejaVuSans-74" d="M 1172 4494 
L 1172 3500 
L 2356 3500 
L 2356 3053 
L 1172 3053 
L 1172 1153 
Q 1172 725 1289 603 
Q 1406 481 1766 481 
L 2356 481 
L 2356 0 
L 1766 0 
Q 1100 0 847 248 
Q 594 497 594 1153 
L 594 3053 
L 172 3053 
L 172 3500 
L 594 3500 
L 594 4494 
L 1172 4494 
z
" transform="scale(0.015625)"/>
     <path id="DejaVuSans-5f" d="M 3263 -1063 
L 3263 -1509 
L -63 -1509 
L -63 -1063 
L 3263 -1063 
z
" transform="scale(0.015625)"/>
     <path id="DejaVuSans-6d" d="M 3328 2828 
Q 3544 3216 3844 3400 
Q 4144 3584 4550 3584 
Q 5097 3584 5394 3201 
Q 5691 2819 5691 2113 
L 5691 0 
L 5113 0 
L 5113 2094 
Q 5113 2597 4934 2840 
Q 4756 3084 4391 3084 
Q 3944 3084 3684 2787 
Q 3425 2491 3425 1978 
L 3425 0 
L 2847 0 
L 2847 2094 
Q 2847 2600 2669 2842 
Q 2491 3084 2119 3084 
Q 1678 3084 1418 2786 
Q 1159 2488 1159 1978 
L 1159 0 
L 581 0 
L 581 3500 
L 1159 3500 
L 1159 2956 
Q 1356 3278 1631 3431 
Q 1906 3584 2284 3584 
Q 2666 3584 2933 3390 
Q 3200 3197 3328 2828 
z
" transform="scale(0.015625)"/>
     <path id="DejaVuSans-76" d="M 191 3500 
L 800 3500 
L 1894 563 
L 2988 3500 
L 3597 3500 
L 2284 0 
L 1503 0 
L 191 3500 
z
" transform="scale(0.015625)"/>
    </defs>
    <use xlink:href="#DejaVuSans-2e"/>
    <use xlink:href="#DejaVuSans-2e" x="31.787109"/>
    <use xlink:href="#DejaVuSans-2f" x="63.574219"/>
    <use xlink:href="#DejaVuSans-70" x="97.265625"/>
    <use xlink:href="#DejaVuSans-6c" x="160.742188"/>
    <use xlink:href="#DejaVuSans-6f" x="188.525391"/>
    <use xlink:href="#DejaVuSans-74" x="249.707031"/>
    <use xlink:href="#DejaVuSans-73" x="288.916016"/>
    <use xlink:href="#DejaVuSans-2f" x="341.015625"/>
    <use xlink:href="#DejaVuSans-50" x="374.707031"/>
    <use xlink:href="#DejaVuSans-5f" x="435.009766"/>
    <use xlink:href="#DejaVuSans-46" x="485.009766"/>
    <use xlink:href="#DejaVuSans-5f" x="542.529297"/>
    <use xlink:href="#DejaVuSans-73" x="592.529297"/>
    <use xlink:href="#DejaVuSans-63" x="644.628906"/>
    <use xlink:href="#DejaVuSans-6f" x="699.609375"/>
    <use xlink:href="#DejaVuSans-72" x="760.791016"/>
    <use xlink:href="#DejaVuSans-65" x="799.654297"/>
    <use xlink:href="#DejaVuSans-2e" x="861.177734"/>
    <use xlink:href="#DejaVuSans-74" x="892.964844"/>
    <use xlink:href="#DejaVuSans-6d" x="932.173828"/>
    <use xlink:href="#DejaVuSans-2e" x="1029.585938"/>
    <use xlink:href="#DejaVuSans-73" x="1061.373047"/>
    <use xlink:href="#DejaVuSans-76" x="1113.472656"/>
    <use xlink:href="#DejaVuSans-67" x="1172.652344"/>
   </g>
  </g>
 </g>
 <defs>
  <clipPath id="pd98bbce91c">
   <rect x="48.17" y="47.90625" width="302.84773" height="190.653231"/>
  </clipPath>
  <clipPath id="p1a5411f003">
   <rect x="418.418076" y="47.90625" width="302.84773" height="190.653231"/>
  </clipPath>
 </defs>
</svg>
