<?xml version="1.0" encoding="utf-8" standalone="no"?>
<!DOCTYPE svg PUBLIC "-//W3C//DTD SVG 1.1//EN"
  "http://www.w3.org/Graphics/SVG/1.1/DTD/svg11.dtd">
<svg xmlns:xlink="http://www.w3.org/1999/xlink" width="743.225806pt" height="280.519481pt" viewBox="0 0 743.225806 280.519481" xmlns="http://www.w3.org/2000/svg" version="1.1">
 <metadata>
  <rdf:RDF xmlns:dc="http://purl.org/dc/elements/1.1/" xmlns:cc="http://creativecommons.org/ns#" xmlns:rdf="http://www.w3.org/1999/02/22-rdf-syntax-ns#">
   <cc:Work>
    <dc:type rdf:resource="http://purl.org/dc/dcmitype/StillImage"/>
    <dc:date>2025-05-30T08:16:34.189015</dc:date>
    <dc:format>image/svg+xml</dc:format>
    <dc:creator>
     <cc:Agent>
      <dc:title>Matplotlib v3.10.3, https://matplotlib.org/</dc:title>
     </cc:Agent>
    </dc:creator>
   </cc:Work>
  </rdf:RDF>
 </metadata>
 <defs>
  <style type="text/css">*{stroke-linejoin: round; stroke-linecap: butt}</style>
 </defs>
 <g id="figure_1">
  <g id="patch_1">
   <path d="M 0 280.519481 
L 743.225806 280.519481 
L 743.225806 0 
L 0 0 
z
" style="fill: #ffffff"/>
  </g>
  <g id="axes_1">
   <g id="patch_2">
    <path d="M 48.17 238.559481 
L 362.17773 238.559481 
L 362.17773 47.90625 
L 48.17 47.90625 
z
" style="fill: #ffffff"/>
   </g>
   <g id="matplotlib.axis_1">
    <g id="xtick_1">
     <g id="line2d_1">
      <defs>
       <path id="m498c9a5027" d="M 0 0 
L 0 3.5 
" style="stroke: #000000; stroke-width: 0.8"/>
      </defs>
      <g>
       <use xlink:href="#m498c9a5027" x="48.17" y="238.559481" style="stroke: #000000; stroke-width: 0.8"/>
      </g>
     </g>
     <g id="text_1">
      <!-- 20 -->
      <g transform="translate(41.8075 253.157918) scale(0.1 -0.1)">
       <defs>
        <path id="DejaVuSans-32" d="M 1228 531 
L 3431 531 
L 3431 0 
L 469 0 
L 469 531 
Q 828 903 1448 1529 
Q 2069 2156 2228 2338 
Q 2531 2678 2651 2914 
Q 2772 3150 2772 3378 
Q 2772 3750 2511 3984 
Q 2250 4219 1831 4219 
Q 1534 4219 1204 4116 
Q 875 4013 500 3803 
L 500 4441 
Q 881 4594 1212 4672 
Q 1544 4750 1819 4750 
Q 2544 4750 2975 4387 
Q 3406 4025 3406 3419 
Q 3406 3131 3298 2873 
Q 3191 2616 2906 2266 
Q 2828 2175 2409 1742 
Q 1991 1309 1228 531 
z
" transform="scale(0.015625)"/>
        <path id="DejaVuSans-30" d="M 2034 4250 
Q 1547 4250 1301 3770 
Q 1056 3291 1056 2328 
Q 1056 1369 1301 889 
Q 1547 409 2034 409 
Q 2525 409 2770 889 
Q 3016 1369 3016 2328 
Q 3016 3291 2770 3770 
Q 2525 4250 2034 4250 
z
M 2034 4750 
Q 2819 4750 3233 4129 
Q 3647 3509 3647 2328 
Q 3647 1150 3233 529 
Q 2819 -91 2034 -91 
Q 1250 -91 836 529 
Q 422 1150 422 2328 
Q 422 3509 836 4129 
Q 1250 4750 2034 4750 
z
" transform="scale(0.015625)"/>
       </defs>
       <use xlink:href="#DejaVuSans-32"/>
       <use xlink:href="#DejaVuSans-30" transform="translate(63.623047 0)"/>
      </g>
     </g>
    </g>
    <g id="xtick_2">
     <g id="line2d_2">
      <g>
       <use xlink:href="#m498c9a5027" x="96.478882" y="238.559481" style="stroke: #000000; stroke-width: 0.8"/>
      </g>
     </g>
     <g id="text_2">
      <!-- 40 -->
      <g transform="translate(90.116382 253.157918) scale(0.1 -0.1)">
       <defs>
        <path id="DejaVuSans-34" d="M 2419 4116 
L 825 1625 
L 2419 1625 
L 2419 4116 
z
M 2253 4666 
L 3047 4666 
L 3047 1625 
L 3713 1625 
L 3713 1100 
L 3047 1100 
L 3047 0 
L 2419 0 
L 2419 1100 
L 313 1100 
L 313 1709 
L 2253 4666 
z
" transform="scale(0.015625)"/>
       </defs>
       <use xlink:href="#DejaVuSans-34"/>
       <use xlink:href="#DejaVuSans-30" transform="translate(63.623047 0)"/>
      </g>
     </g>
    </g>
    <g id="xtick_3">
     <g id="line2d_3">
      <g>
       <use xlink:href="#m498c9a5027" x="144.787763" y="238.559481" style="stroke: #000000; stroke-width: 0.8"/>
      </g>
     </g>
     <g id="text_3">
      <!-- 60 -->
      <g transform="translate(138.425263 253.157918) scale(0.1 -0.1)">
       <defs>
        <path id="DejaVuSans-36" d="M 2113 2584 
Q 1688 2584 1439 2293 
Q 1191 2003 1191 1497 
Q 1191 994 1439 701 
Q 1688 409 2113 409 
Q 2538 409 2786 701 
Q 3034 994 3034 1497 
Q 3034 2003 2786 2293 
Q 2538 2584 2113 2584 
z
M 3366 4563 
L 3366 3988 
Q 3128 4100 2886 4159 
Q 2644 4219 2406 4219 
Q 1781 4219 1451 3797 
Q 1122 3375 1075 2522 
Q 1259 2794 1537 2939 
Q 1816 3084 2150 3084 
Q 2853 3084 3261 2657 
Q 3669 2231 3669 1497 
Q 3669 778 3244 343 
Q 2819 -91 2113 -91 
Q 1303 -91 875 529 
Q 447 1150 447 2328 
Q 447 3434 972 4092 
Q 1497 4750 2381 4750 
Q 2619 4750 2861 4703 
Q 3103 4656 3366 4563 
z
" transform="scale(0.015625)"/>
       </defs>
       <use xlink:href="#DejaVuSans-36"/>
       <use xlink:href="#DejaVuSans-30" transform="translate(63.623047 0)"/>
      </g>
     </g>
    </g>
    <g id="xtick_4">
     <g id="line2d_4">
      <g>
       <use xlink:href="#m498c9a5027" x="193.096645" y="238.559481" style="stroke: #000000; stroke-width: 0.8"/>
      </g>
     </g>
     <g id="text_4">
      <!-- 80 -->
      <g transform="translate(186.734145 253.157918) scale(0.1 -0.1)">
       <defs>
        <path id="DejaVuSans-38" d="M 2034 2216 
Q 1584 2216 1326 1975 
Q 1069 1734 1069 1313 
Q 1069 891 1326 650 
Q 1584 409 2034 409 
Q 2484 409 2743 651 
Q 3003 894 3003 1313 
Q 3003 1734 2745 1975 
Q 2488 2216 2034 2216 
z
M 1403 2484 
Q 997 2584 770 2862 
Q 544 3141 544 3541 
Q 544 4100 942 4425 
Q 1341 4750 2034 4750 
Q 2731 4750 3128 4425 
Q 3525 4100 3525 3541 
Q 3525 3141 3298 2862 
Q 3072 2584 2669 2484 
Q 3125 2378 3379 2068 
Q 3634 1759 3634 1313 
Q 3634 634 3220 271 
Q 2806 -91 2034 -91 
Q 1263 -91 848 271 
Q 434 634 434 1313 
Q 434 1759 690 2068 
Q 947 2378 1403 2484 
z
M 1172 3481 
Q 1172 3119 1398 2916 
Q 1625 2713 2034 2713 
Q 2441 2713 2670 2916 
Q 2900 3119 2900 3481 
Q 2900 3844 2670 4047 
Q 2441 4250 2034 4250 
Q 1625 4250 1398 4047 
Q 1172 3844 1172 3481 
z
" transform="scale(0.015625)"/>
       </defs>
       <use xlink:href="#DejaVuSans-38"/>
       <use xlink:href="#DejaVuSans-30" transform="translate(63.623047 0)"/>
      </g>
     </g>
    </g>
    <g id="xtick_5">
     <g id="line2d_5">
      <g>
       <use xlink:href="#m498c9a5027" x="241.405526" y="238.559481" style="stroke: #000000; stroke-width: 0.8"/>
      </g>
     </g>
     <g id="text_5">
      <!-- 100 -->
      <g transform="translate(231.861776 253.157918) scale(0.1 -0.1)">
       <defs>
        <path id="DejaVuSans-31" d="M 794 531 
L 1825 531 
L 1825 4091 
L 703 3866 
L 703 4441 
L 1819 4666 
L 2450 4666 
L 2450 531 
L 3481 531 
L 3481 0 
L 794 0 
L 794 531 
z
" transform="scale(0.015625)"/>
       </defs>
       <use xlink:href="#DejaVuSans-31"/>
       <use xlink:href="#DejaVuSans-30" transform="translate(63.623047 0)"/>
       <use xlink:href="#DejaVuSans-30" transform="translate(127.246094 0)"/>
      </g>
     </g>
    </g>
    <g id="xtick_6">
     <g id="line2d_6">
      <g>
       <use xlink:href="#m498c9a5027" x="289.714408" y="238.559481" style="stroke: #000000; stroke-width: 0.8"/>
      </g>
     </g>
     <g id="text_6">
      <!-- 120 -->
      <g transform="translate(280.170658 253.157918) scale(0.1 -0.1)">
       <use xlink:href="#DejaVuSans-31"/>
       <use xlink:href="#DejaVuSans-32" transform="translate(63.623047 0)"/>
       <use xlink:href="#DejaVuSans-30" transform="translate(127.246094 0)"/>
      </g>
     </g>
    </g>
    <g id="xtick_7">
     <g id="line2d_7">
      <g>
       <use xlink:href="#m498c9a5027" x="338.023289" y="238.559481" style="stroke: #000000; stroke-width: 0.8"/>
      </g>
     </g>
     <g id="text_7">
      <!-- 140 -->
      <g transform="translate(328.479539 253.157918) scale(0.1 -0.1)">
       <use xlink:href="#DejaVuSans-31"/>
       <use xlink:href="#DejaVuSans-34" transform="translate(63.623047 0)"/>
       <use xlink:href="#DejaVuSans-30" transform="translate(127.246094 0)"/>
      </g>
     </g>
    </g>
    <g id="text_8">
     <!-- Bits -->
     <g transform="translate(195.78949 266.836043) scale(0.1 -0.1)">
      <defs>
       <path id="DejaVuSans-42" d="M 1259 2228 
L 1259 519 
L 2272 519 
Q 2781 519 3026 730 
Q 3272 941 3272 1375 
Q 3272 1813 3026 2020 
Q 2781 2228 2272 2228 
L 1259 2228 
z
M 1259 4147 
L 1259 2741 
L 2194 2741 
Q 2656 2741 2882 2914 
Q 3109 3088 3109 3444 
Q 3109 3797 2882 3972 
Q 2656 4147 2194 4147 
L 1259 4147 
z
M 628 4666 
L 2241 4666 
Q 2963 4666 3353 4366 
Q 3744 4066 3744 3513 
Q 3744 3084 3544 2831 
Q 3344 2578 2956 2516 
Q 3422 2416 3680 2098 
Q 3938 1781 3938 1306 
Q 3938 681 3513 340 
Q 3088 0 2303 0 
L 628 0 
L 628 4666 
z
" transform="scale(0.015625)"/>
       <path id="DejaVuSans-69" d="M 603 3500 
L 1178 3500 
L 1178 0 
L 603 0 
L 603 3500 
z
M 603 4863 
L 1178 4863 
L 1178 4134 
L 603 4134 
L 603 4863 
z
" transform="scale(0.015625)"/>
       <path id="DejaVuSans-74" d="M 1172 4494 
L 1172 3500 
L 2356 3500 
L 2356 3053 
L 1172 3053 
L 1172 1153 
Q 1172 725 1289 603 
Q 1406 481 1766 481 
L 2356 481 
L 2356 0 
L 1766 0 
Q 1100 0 847 248 
Q 594 497 594 1153 
L 594 3053 
L 172 3053 
L 172 3500 
L 594 3500 
L 594 4494 
L 1172 4494 
z
" transform="scale(0.015625)"/>
       <path id="DejaVuSans-73" d="M 2834 3397 
L 2834 2853 
Q 2591 2978 2328 3040 
Q 2066 3103 1784 3103 
Q 1356 3103 1142 2972 
Q 928 2841 928 2578 
Q 928 2378 1081 2264 
Q 1234 2150 1697 2047 
L 1894 2003 
Q 2506 1872 2764 1633 
Q 3022 1394 3022 966 
Q 3022 478 2636 193 
Q 2250 -91 1575 -91 
Q 1294 -91 989 -36 
Q 684 19 347 128 
L 347 722 
Q 666 556 975 473 
Q 1284 391 1588 391 
Q 1994 391 2212 530 
Q 2431 669 2431 922 
Q 2431 1156 2273 1281 
Q 2116 1406 1581 1522 
L 1381 1569 
Q 847 1681 609 1914 
Q 372 2147 372 2553 
Q 372 3047 722 3315 
Q 1072 3584 1716 3584 
Q 2034 3584 2315 3537 
Q 2597 3491 2834 3397 
z
" transform="scale(0.015625)"/>
      </defs>
      <use xlink:href="#DejaVuSans-42"/>
      <use xlink:href="#DejaVuSans-69" transform="translate(68.603516 0)"/>
      <use xlink:href="#DejaVuSans-74" transform="translate(96.386719 0)"/>
      <use xlink:href="#DejaVuSans-73" transform="translate(135.595703 0)"/>
     </g>
    </g>
   </g>
   <g id="matplotlib.axis_2">
    <g id="ytick_1">
     <g id="line2d_8">
      <defs>
       <path id="mc581144d7a" d="M 0 0 
L -3.5 0 
" style="stroke: #000000; stroke-width: 0.8"/>
      </defs>
      <g>
       <use xlink:href="#mc581144d7a" x="48.17" y="229.893425" style="stroke: #000000; stroke-width: 0.8"/>
      </g>
     </g>
     <g id="text_9">
      <!-- 0.0 -->
      <g transform="translate(25.266875 233.692643) scale(0.1 -0.1)">
       <defs>
        <path id="DejaVuSans-2e" d="M 684 794 
L 1344 794 
L 1344 0 
L 684 0 
L 684 794 
z
" transform="scale(0.015625)"/>
       </defs>
       <use xlink:href="#DejaVuSans-30"/>
       <use xlink:href="#DejaVuSans-2e" transform="translate(63.623047 0)"/>
       <use xlink:href="#DejaVuSans-30" transform="translate(95.410156 0)"/>
      </g>
     </g>
    </g>
    <g id="ytick_2">
     <g id="line2d_9">
      <g>
       <use xlink:href="#mc581144d7a" x="48.17" y="195.229201" style="stroke: #000000; stroke-width: 0.8"/>
      </g>
     </g>
     <g id="text_10">
      <!-- 0.2 -->
      <g transform="translate(25.266875 199.02842) scale(0.1 -0.1)">
       <use xlink:href="#DejaVuSans-30"/>
       <use xlink:href="#DejaVuSans-2e" transform="translate(63.623047 0)"/>
       <use xlink:href="#DejaVuSans-32" transform="translate(95.410156 0)"/>
      </g>
     </g>
    </g>
    <g id="ytick_3">
     <g id="line2d_10">
      <g>
       <use xlink:href="#mc581144d7a" x="48.17" y="160.564977" style="stroke: #000000; stroke-width: 0.8"/>
      </g>
     </g>
     <g id="text_11">
      <!-- 0.4 -->
      <g transform="translate(25.266875 164.364196) scale(0.1 -0.1)">
       <use xlink:href="#DejaVuSans-30"/>
       <use xlink:href="#DejaVuSans-2e" transform="translate(63.623047 0)"/>
       <use xlink:href="#DejaVuSans-34" transform="translate(95.410156 0)"/>
      </g>
     </g>
    </g>
    <g id="ytick_4">
     <g id="line2d_11">
      <g>
       <use xlink:href="#mc581144d7a" x="48.17" y="125.900753" style="stroke: #000000; stroke-width: 0.8"/>
      </g>
     </g>
     <g id="text_12">
      <!-- 0.6 -->
      <g transform="translate(25.266875 129.699972) scale(0.1 -0.1)">
       <use xlink:href="#DejaVuSans-30"/>
       <use xlink:href="#DejaVuSans-2e" transform="translate(63.623047 0)"/>
       <use xlink:href="#DejaVuSans-36" transform="translate(95.410156 0)"/>
      </g>
     </g>
    </g>
    <g id="ytick_5">
     <g id="line2d_12">
      <g>
       <use xlink:href="#mc581144d7a" x="48.17" y="91.23653" style="stroke: #000000; stroke-width: 0.8"/>
      </g>
     </g>
     <g id="text_13">
      <!-- 0.8 -->
      <g transform="translate(25.266875 95.035748) scale(0.1 -0.1)">
       <use xlink:href="#DejaVuSans-30"/>
       <use xlink:href="#DejaVuSans-2e" transform="translate(63.623047 0)"/>
       <use xlink:href="#DejaVuSans-38" transform="translate(95.410156 0)"/>
      </g>
     </g>
    </g>
    <g id="ytick_6">
     <g id="line2d_13">
      <g>
       <use xlink:href="#mc581144d7a" x="48.17" y="56.572306" style="stroke: #000000; stroke-width: 0.8"/>
      </g>
     </g>
     <g id="text_14">
      <!-- 1.0 -->
      <g transform="translate(25.266875 60.371525) scale(0.1 -0.1)">
       <use xlink:href="#DejaVuSans-31"/>
       <use xlink:href="#DejaVuSans-2e" transform="translate(63.623047 0)"/>
       <use xlink:href="#DejaVuSans-30" transform="translate(95.410156 0)"/>
      </g>
     </g>
    </g>
    <g id="text_15">
     <!-- P(F|score) -->
     <g transform="translate(18.909062 168.14224) rotate(-90) scale(0.1 -0.1)">
      <defs>
       <path id="DejaVuSans-50" d="M 1259 4147 
L 1259 2394 
L 2053 2394 
Q 2494 2394 2734 2622 
Q 2975 2850 2975 3272 
Q 2975 3691 2734 3919 
Q 2494 4147 2053 4147 
L 1259 4147 
z
M 628 4666 
L 2053 4666 
Q 2838 4666 3239 4311 
Q 3641 3956 3641 3272 
Q 3641 2581 3239 2228 
Q 2838 1875 2053 1875 
L 1259 1875 
L 1259 0 
L 628 0 
L 628 4666 
z
" transform="scale(0.015625)"/>
       <path id="DejaVuSans-28" d="M 1984 4856 
Q 1566 4138 1362 3434 
Q 1159 2731 1159 2009 
Q 1159 1288 1364 580 
Q 1569 -128 1984 -844 
L 1484 -844 
Q 1016 -109 783 600 
Q 550 1309 550 2009 
Q 550 2706 781 3412 
Q 1013 4119 1484 4856 
L 1984 4856 
z
" transform="scale(0.015625)"/>
       <path id="DejaVuSans-46" d="M 628 4666 
L 3309 4666 
L 3309 4134 
L 1259 4134 
L 1259 2759 
L 3109 2759 
L 3109 2228 
L 1259 2228 
L 1259 0 
L 628 0 
L 628 4666 
z
" transform="scale(0.015625)"/>
       <path id="DejaVuSans-7c" d="M 1344 4891 
L 1344 -1509 
L 813 -1509 
L 813 4891 
L 1344 4891 
z
" transform="scale(0.015625)"/>
       <path id="DejaVuSans-63" d="M 3122 3366 
L 3122 2828 
Q 2878 2963 2633 3030 
Q 2388 3097 2138 3097 
Q 1578 3097 1268 2742 
Q 959 2388 959 1747 
Q 959 1106 1268 751 
Q 1578 397 2138 397 
Q 2388 397 2633 464 
Q 2878 531 3122 666 
L 3122 134 
Q 2881 22 2623 -34 
Q 2366 -91 2075 -91 
Q 1284 -91 818 406 
Q 353 903 353 1747 
Q 353 2603 823 3093 
Q 1294 3584 2113 3584 
Q 2378 3584 2631 3529 
Q 2884 3475 3122 3366 
z
" transform="scale(0.015625)"/>
       <path id="DejaVuSans-6f" d="M 1959 3097 
Q 1497 3097 1228 2736 
Q 959 2375 959 1747 
Q 959 1119 1226 758 
Q 1494 397 1959 397 
Q 2419 397 2687 759 
Q 2956 1122 2956 1747 
Q 2956 2369 2687 2733 
Q 2419 3097 1959 3097 
z
M 1959 3584 
Q 2709 3584 3137 3096 
Q 3566 2609 3566 1747 
Q 3566 888 3137 398 
Q 2709 -91 1959 -91 
Q 1206 -91 779 398 
Q 353 888 353 1747 
Q 353 2609 779 3096 
Q 1206 3584 1959 3584 
z
" transform="scale(0.015625)"/>
       <path id="DejaVuSans-72" d="M 2631 2963 
Q 2534 3019 2420 3045 
Q 2306 3072 2169 3072 
Q 1681 3072 1420 2755 
Q 1159 2438 1159 1844 
L 1159 0 
L 581 0 
L 581 3500 
L 1159 3500 
L 1159 2956 
Q 1341 3275 1631 3429 
Q 1922 3584 2338 3584 
Q 2397 3584 2469 3576 
Q 2541 3569 2628 3553 
L 2631 2963 
z
" transform="scale(0.015625)"/>
       <path id="DejaVuSans-65" d="M 3597 1894 
L 3597 1613 
L 953 1613 
Q 991 1019 1311 708 
Q 1631 397 2203 397 
Q 2534 397 2845 478 
Q 3156 559 3463 722 
L 3463 178 
Q 3153 47 2828 -22 
Q 2503 -91 2169 -91 
Q 1331 -91 842 396 
Q 353 884 353 1716 
Q 353 2575 817 3079 
Q 1281 3584 2069 3584 
Q 2775 3584 3186 3129 
Q 3597 2675 3597 1894 
z
M 3022 2063 
Q 3016 2534 2758 2815 
Q 2500 3097 2075 3097 
Q 1594 3097 1305 2825 
Q 1016 2553 972 2059 
L 3022 2063 
z
" transform="scale(0.015625)"/>
       <path id="DejaVuSans-29" d="M 513 4856 
L 1013 4856 
Q 1481 4119 1714 3412 
Q 1947 2706 1947 2009 
Q 1947 1309 1714 600 
Q 1481 -109 1013 -844 
L 513 -844 
Q 928 -128 1133 580 
Q 1338 1288 1338 2009 
Q 1338 2731 1133 3434 
Q 928 4138 513 4856 
z
" transform="scale(0.015625)"/>
      </defs>
      <use xlink:href="#DejaVuSans-50"/>
      <use xlink:href="#DejaVuSans-28" transform="translate(60.302734 0)"/>
      <use xlink:href="#DejaVuSans-46" transform="translate(99.316406 0)"/>
      <use xlink:href="#DejaVuSans-7c" transform="translate(156.835938 0)"/>
      <use xlink:href="#DejaVuSans-73" transform="translate(190.527344 0)"/>
      <use xlink:href="#DejaVuSans-63" transform="translate(242.626953 0)"/>
      <use xlink:href="#DejaVuSans-6f" transform="translate(297.607422 0)"/>
      <use xlink:href="#DejaVuSans-72" transform="translate(358.789062 0)"/>
      <use xlink:href="#DejaVuSans-65" transform="translate(397.652344 0)"/>
      <use xlink:href="#DejaVuSans-29" transform="translate(459.175781 0)"/>
     </g>
    </g>
   </g>
   <g id="line2d_14">
    <path d="M -1 56.586467 
L 5.716155 56.988273 
L 12.670218 57.074938 
L 19.624282 57.473581 
L 26.57593 57.993537 
L 33.532409 58.842817 
L 40.488888 60.246714 
L 47.445367 61.667945 
L 54.401846 63.262506 
L 61.33417 65.740996 
L 68.290649 68.618129 
L 75.247128 71.911229 
L 82.203607 75.84561 
L 89.160086 79.797336 
L 96.116565 83.541074 
L 103.073044 88.272741 
L 110.029523 92.883083 
L 116.961847 99.313289 
L 123.918326 105.01556 
L 130.874805 111.896403 
L 137.831284 115.640141 
L 144.787763 123.508924 
L 151.744242 127.876618 
L 158.700721 133.856197 
L 165.6572 137.894577 
L 172.613679 144.619432 
L 179.546003 151.933583 
L 186.502482 157.843838 
L 193.458961 163.338114 
L 200.41544 165.556626 
L 207.371919 170.530941 
L 214.328398 175.141284 
L 221.284877 176.978488 
L 228.241356 180.808885 
L 235.173681 186.129843 
L 242.130159 187.083109 
L 249.134947 189.180294 
L 256.139735 193.149348 
L 262.902979 193.790637 
L 269.907766 195.662503 
L 276.912554 198.140995 
L 283.917342 198.054336 
L 290.92213 202.69934 
L 297.685373 202.664676 
L 304.690161 205.333822 
L 311.694949 207.933639 
L 318.699737 206.807051 
L 325.46298 208.644256 
L 332.467768 209.892167 
L 339.472556 207.950971 
L 346.477344 209.978828 
L 353.482131 213.727764 
L 360.245375 214.048408 
L 367.250163 214.537173 
L 374.254951 214.367319 
L 381.259738 218.849402 
L 388.264526 215.774686 
L 395.02777 219.343368 
L 402.032557 217.842407 
L 409.037345 220.589547 
L 416.042133 220.506353 
L 423.046921 220.840862 
L 429.810164 220.605146 
L 436.814952 220.216906 
L 443.81974 221.697069 
L 450.824528 222.095708 
L 457.587771 221.629473 
L 464.592559 221.296697 
L 471.597347 222.431951 
L 478.602135 224.731922 
L 485.606923 222.91205 
L 492.370166 223.946777 
L 499.374954 224.610597 
L 506.379742 223.943311 
L 513.384529 224.955506 
L 520.389317 223.797721 
L 527.152561 224.603664 
L 534.157349 223.468411 
L 541.162136 224.724989 
L 548.166924 223.818519 
L 554.930168 225.127094 
L 561.934955 223.886115 
L 568.939743 225.93477 
L 575.944531 224.591532 
L 582.949319 225.120161 
L 589.712562 223.782122 
L 596.71735 225.555197 
L 603.722138 228.414649 
" clip-path="url(#p04c1d1233a)" style="fill: none; stroke: #000000; stroke-width: 1.5; stroke-linecap: square"/>
   </g>
   <g id="line2d_15">
    <path d="M -1 223.992933 
L 5.716155 56.572306 
L 12.670218 56.918944 
L 19.624282 57.768224 
L 26.57593 58.340185 
L 33.532409 59.120126 
L 40.488888 60.697351 
L 47.445367 62.56922 
L 54.401846 64.666402 
L 61.33417 67.994172 
L 68.290649 71.599251 
L 75.247128 75.966934 
L 82.203607 80.698601 
L 89.160086 84.650327 
L 96.116565 89.226 
L 103.073044 93.940341 
L 110.029523 99.295964 
L 116.961847 106.592786 
L 123.918326 111.70575 
L 130.874805 120.718456 
L 137.831284 123.820902 
L 144.787763 132.001653 
L 151.744242 137.998567 
L 158.700721 143.579508 
L 165.6572 148.25918 
L 172.613679 153.857451 
L 179.546003 162.176861 
L 186.502482 167.272506 
L 193.458961 172.766783 
L 200.41544 175.106619 
L 207.371919 180.184928 
L 214.328398 184.153979 
L 221.284877 186.771131 
L 228.241356 191.034831 
L 235.173681 196.251794 
L 242.130159 194.81323 
L 249.134947 197.829017 
L 256.139735 200.064861 
L 262.902979 201.399433 
L 269.907766 202.560684 
L 276.912554 205.628468 
L 283.917342 205.073841 
L 290.92213 207.621661 
L 297.685373 207.517669 
L 304.690161 209.042894 
L 311.694949 212.335995 
L 318.699737 211.625378 
L 325.46298 211.972021 
L 332.467768 213.6931 
L 339.472556 211.55605 
L 346.477344 213.518045 
L 353.482131 216.091863 
L 360.245375 216.528633 
L 367.250163 216.558098 
L 374.254951 217.038197 
L 381.259738 219.963858 
L 388.264526 218.029595 
L 395.02777 220.118113 
L 402.032557 219.159648 
L 409.037345 221.374691 
L 416.042133 221.083512 
L 423.046921 221.643339 
L 429.810164 221.130309 
L 436.814952 221.142441 
L 443.81974 222.111306 
L 450.824528 223.116569 
L 457.587771 222.477014 
L 464.592559 222.338357 
L 471.597347 222.726596 
L 478.602135 225.023101 
L 485.606923 223.347086 
L 492.370166 223.893048 
L 499.374954 225.061232 
L 506.379742 223.839318 
L 513.384529 225.295215 
L 520.389317 223.579336 
L 527.152561 225.111495 
L 534.157349 223.362685 
L 541.162136 225.030034 
L 548.166924 224.064636 
L 554.930168 225.250152 
L 561.934955 224.62273 
L 568.939743 225.721585 
L 575.944531 225.004036 
L 582.949319 225.064698 
L 589.712562 224.116632 
L 596.71735 225.517066 
L 603.722138 228.446367 
" clip-path="url(#p04c1d1233a)" style="fill: none; stroke-dasharray: 5.55,2.4; stroke-dashoffset: 0; stroke: #ff00ff; stroke-width: 1.5"/>
   </g>
   <g id="line2d_16">
    <path d="M -1 56.588237 
L 5.716155 57.040268 
L 12.670218 57.178927 
L 19.624282 57.733554 
L 26.57593 58.39218 
L 33.532409 59.362774 
L 40.488888 60.853335 
L 47.445367 62.482555 
L 54.401846 64.562413 
L 61.33417 67.59553 
L 68.290649 71.460592 
L 75.247128 75.516307 
L 82.203607 80.282633 
L 89.160086 85.08363 
L 96.116565 89.035356 
L 103.073044 94.685622 
L 110.029523 99.746602 
L 116.961847 106.263472 
L 123.918326 113.837602 
L 130.874805 119.418548 
L 137.831284 123.439594 
L 144.787763 132.590949 
L 151.744242 138.986496 
L 158.700721 146.179322 
L 165.6572 151.274967 
L 172.613679 159.369063 
L 179.546003 167.41116 
L 186.502482 174.517327 
L 193.458961 179.231664 
L 200.41544 182.888737 
L 207.371919 187.863052 
L 214.328398 193.461326 
L 221.284877 195.905154 
L 228.241356 201.711411 
L 235.173681 205.819122 
L 242.130159 205.767125 
L 249.134947 210.984091 
L 256.139735 214.278925 
L 262.902979 214.819687 
L 269.907766 216.265185 
L 276.912554 217.603224 
L 283.917342 219.632814 
L 290.92213 220.96392 
L 297.685373 221.63294 
L 304.690161 223.00391 
L 311.694949 224.310751 
L 318.699737 224.487539 
L 325.46298 225.075098 
L 332.467768 226.208617 
L 339.472556 225.725052 
L 346.477344 226.258881 
L 353.482131 227.661049 
L 360.245375 226.643653 
L 367.250163 227.111621 
L 374.254951 225.889707 
L 381.259738 228.471845 
L 388.264526 228.455033 
L 395.02777 228.630087 
L 402.032557 228.867017 
L 409.037345 228.701842 
L 416.042133 228.342201 
L 423.046921 228.315682 
L 429.810164 228.670644 
L 436.814952 227.993825 
L 443.81974 229.423724 
L 450.824528 229.24919 
L 457.587771 229.376581 
L 464.592559 229.125439 
L 471.597347 229.190261 
L 478.602135 229.693585 
L 485.606923 229.503452 
L 492.370166 229.893425 
L 499.374954 229.285934 
L 506.379742 229.893425 
L 513.384529 229.893425 
L 520.389317 229.427537 
L 527.152561 229.645055 
L 534.157349 229.893425 
L 541.162136 229.893425 
L 548.166924 229.624257 
L 554.930168 229.893425 
L 561.934955 229.893425 
L 568.939743 229.893425 
L 575.944531 229.893425 
L 582.949319 229.893425 
L 589.712562 229.893425 
L 596.71735 229.893425 
L 603.722138 229.893425 
" clip-path="url(#p04c1d1233a)" style="fill: none; stroke: #00ffff; stroke-width: 1.5; stroke-linecap: square"/>
   </g>
   <g id="line2d_17">
    <path d="M -1 140.323923 
L 5.716155 57.785559 
L 12.670218 57.785559 
L 19.624282 58.652164 
L 26.57593 59.865406 
L 33.532409 61.598616 
L 40.488888 64.025111 
L 47.445367 66.624936 
L 54.401846 69.398069 
L 61.33417 73.384455 
L 68.290649 77.890808 
L 75.247128 83.437074 
L 82.203607 88.636713 
L 89.160086 94.876276 
L 96.116565 99.729267 
L 103.073044 105.622181 
L 110.029523 110.995139 
L 116.961847 118.967911 
L 123.918326 125.72743 
L 130.874805 133.700202 
L 137.831284 139.07316 
L 144.787763 147.219251 
L 151.744242 151.032313 
L 158.700721 157.618519 
L 165.6572 163.338114 
L 172.613679 167.671143 
L 179.546003 175.297273 
L 186.502482 181.363511 
L 193.458961 187.256428 
L 200.41544 190.202888 
L 207.371919 193.495991 
L 214.328398 198.348982 
L 221.284877 198.695622 
L 228.241356 201.988725 
L 235.173681 206.668394 
L 242.130159 205.455146 
L 249.134947 209.441532 
L 256.139735 212.578645 
L 262.902979 212.387991 
L 269.907766 213.722564 
L 276.912554 215.074469 
L 283.917342 215.213125 
L 290.92213 216.617027 
L 297.685373 216.877009 
L 304.690161 218.332907 
L 311.694949 219.996788 
L 318.699737 218.956862 
L 325.46298 219.910128 
L 332.467768 219.944792 
L 339.472556 217.206318 
L 346.477344 219.407497 
L 353.482131 220.620745 
L 360.245375 220.690073 
L 367.250163 222.856587 
L 374.254951 221.054048 
L 381.259738 224.832448 
L 388.264526 222.527277 
L 395.02777 224.035171 
L 402.032557 223.792521 
L 409.037345 225.005769 
L 416.042133 224.936441 
L 423.046921 225.716386 
L 429.810164 222.735263 
L 436.814952 224.624462 
L 443.81974 223.671196 
L 450.824528 222.683266 
L 457.587771 224.052503 
L 464.592559 222.839255 
L 471.597347 223.913846 
L 478.602135 224.728455 
L 485.606923 224.087167 
L 492.370166 226.617656 
L 499.374954 224.676459 
L 506.379742 224.901776 
L 513.384529 226.444334 
L 520.389317 224.797784 
L 527.152561 224.815116 
L 534.157349 223.86185 
L 541.162136 226.045696 
L 548.166924 224.451142 
L 554.930168 224.745787 
L 561.934955 225.335079 
L 568.939743 225.595061 
L 575.944531 225.213754 
L 582.949319 225.664389 
L 589.712562 225.369743 
L 596.71735 226.704316 
L 603.722138 228.331801 
" clip-path="url(#p04c1d1233a)" style="fill: none; stroke: #ffa500; stroke-width: 1.5; stroke-linecap: square"/>
   </g>
   <g id="line2d_18">
    <path d="M -1 223.992933 
L 5.716155 56.572306 
L 12.670218 58.305515 
L 19.624282 59.518768 
L 26.57593 61.078659 
L 33.532409 64.025111 
L 40.488888 68.704783 
L 47.445367 73.211136 
L 54.401846 77.890808 
L 61.33417 85.170294 
L 68.290649 93.316385 
L 75.247128 102.155762 
L 82.203607 113.248316 
L 89.160086 121.047758 
L 96.116565 131.793674 
L 103.073044 142.886227 
L 110.029523 151.205637 
L 116.961847 164.204719 
L 123.918326 173.737382 
L 130.874805 184.13665 
L 137.831284 189.336283 
L 144.787763 195.749165 
L 151.744242 200.602156 
L 158.700721 207.36168 
L 165.6572 208.921569 
L 172.613679 211.868028 
L 179.546003 215.022473 
L 186.502482 215.958407 
L 193.458961 218.783541 
L 200.41544 219.320836 
L 207.371919 220.464756 
L 214.328398 222.05931 
L 221.284877 224.676459 
L 228.241356 224.884444 
L 235.173681 226.219017 
L 242.130159 224.347149 
L 249.134947 226.357674 
L 256.139735 226.860305 
L 262.902979 226.548327 
L 269.907766 226.184352 
L 276.912554 226.912301 
L 283.917342 227.362936 
L 290.92213 227.397601 
L 297.685373 226.842973 
L 304.690161 227.865568 
L 311.694949 228.388997 
L 318.699737 227.258944 
L 325.46298 226.946965 
L 332.467768 228.181012 
L 339.472556 228.30407 
L 346.477344 228.803235 
L 353.482131 228.685376 
L 360.245375 228.77897 
L 367.250163 228.808434 
L 374.254951 228.333535 
L 381.259738 229.479187 
L 388.264526 229.214006 
L 395.02777 229.295467 
L 402.032557 228.420195 
L 409.037345 229.175875 
L 416.042133 229.279868 
L 423.046921 228.527654 
L 429.810164 229.428924 
L 436.814952 228.108217 
L 443.81974 229.226138 
L 450.824528 229.06495 
L 457.587771 228.522455 
L 464.592559 228.910694 
L 471.597347 229.044151 
L 478.602135 229.468788 
L 485.606923 229.032019 
L 492.370166 228.454859 
L 499.374954 229.061483 
L 506.379742 228.591783 
L 513.384529 229.136011 
L 520.389317 228.349133 
L 527.152561 228.862164 
L 534.157349 228.841365 
L 541.162136 228.59005 
L 548.166924 228.706175 
L 554.930168 229.649042 
L 561.934955 228.539787 
L 568.939743 229.893425 
L 575.944531 228.794569 
L 582.949319 228.525921 
L 589.712562 229.019886 
L 596.71735 229.614378 
L 603.722138 229.692372 
" clip-path="url(#p04c1d1233a)" style="fill: none; stroke-dasharray: 5.55,2.4; stroke-dashoffset: 0; stroke: #ffa500; stroke-width: 1.5"/>
   </g>
   <g id="line2d_19">
    <path d="M -1 224.063739 
L 5.716155 58.652164 
L 12.670218 60.038725 
L 19.624282 61.945264 
L 26.57593 64.718397 
L 33.532409 69.744707 
L 40.488888 77.717479 
L 47.445367 84.650327 
L 54.401846 92.796418 
L 61.33417 104.235609 
L 68.290649 116.368097 
L 75.247128 126.074078 
L 82.203607 137.859907 
L 89.160086 146.352647 
L 96.116565 155.711985 
L 103.073044 162.991472 
L 110.029523 170.790925 
L 116.961847 177.377125 
L 123.918326 182.923402 
L 130.874805 188.642997 
L 137.831284 191.242814 
L 144.787763 198.17566 
L 151.744242 201.988725 
L 158.700721 203.721937 
L 165.6572 206.841716 
L 172.613679 208.574926 
L 179.546003 212.041349 
L 186.502482 216.062399 
L 193.458961 217.656953 
L 200.41544 218.696881 
L 207.371919 218.280909 
L 214.328398 220.586081 
L 221.284877 218.991526 
L 228.241356 220.82873 
L 235.173681 221.140708 
L 242.130159 221.452686 
L 249.134947 222.631269 
L 256.139735 224.295153 
L 262.902979 223.428547 
L 269.907766 223.965842 
L 276.912554 224.485806 
L 283.917342 225.213754 
L 290.92213 225.803046 
L 297.685373 225.248419 
L 304.690161 226.842973 
L 311.694949 226.600323 
L 318.699737 225.647057 
L 325.46298 227.016294 
L 332.467768 226.842973 
L 339.472556 226.756312 
L 346.477344 227.258944 
L 353.482131 227.154951 
L 360.245375 227.865568 
L 367.250163 227.830903 
L 374.254951 227.553589 
L 381.259738 228.404596 
L 388.264526 228.936692 
L 395.02777 228.702708 
L 402.032557 228.974823 
L 409.037345 229.207073 
L 416.042133 228.229542 
L 423.046921 228.328335 
L 429.810164 229.184541 
L 436.814952 229.456655 
L 443.81974 228.978289 
L 450.824528 229.229605 
L 457.587771 229.361329 
L 464.592559 228.522455 
L 471.597347 228.428861 
L 478.602135 229.018153 
L 485.606923 229.893425 
L 492.370166 229.444523 
L 499.374954 228.997354 
L 506.379742 229.323198 
L 513.384529 229.616111 
L 520.389317 229.501719 
L 527.152561 229.794112 
L 534.157349 228.801502 
L 541.162136 229.683706 
L 548.166924 229.458389 
L 554.930168 229.893425 
L 561.934955 229.193207 
L 568.939743 229.411592 
L 575.944531 229.382127 
L 582.949319 229.688906 
L 589.712562 229.323198 
L 596.71735 229.68024 
L 603.722138 229.823576 
" clip-path="url(#p04c1d1233a)" style="fill: none; stroke-dasharray: 1.5,2.475; stroke-dashoffset: 0; stroke: #ffa500; stroke-width: 1.5"/>
   </g>
   <g id="patch_3">
    <path d="M 48.17 238.559481 
L 48.17 47.90625 
" style="fill: none; stroke: #000000; stroke-width: 0.8; stroke-linejoin: miter; stroke-linecap: square"/>
   </g>
   <g id="patch_4">
    <path d="M 362.17773 238.559481 
L 362.17773 47.90625 
" style="fill: none; stroke: #000000; stroke-width: 0.8; stroke-linejoin: miter; stroke-linecap: square"/>
   </g>
   <g id="patch_5">
    <path d="M 48.17 238.559481 
L 362.17773 238.559481 
" style="fill: none; stroke: #000000; stroke-width: 0.8; stroke-linejoin: miter; stroke-linecap: square"/>
   </g>
   <g id="patch_6">
    <path d="M 48.17 47.90625 
L 362.17773 47.90625 
" style="fill: none; stroke: #000000; stroke-width: 0.8; stroke-linejoin: miter; stroke-linecap: square"/>
   </g>
   <g id="text_16">
    <!-- Foldseek -->
    <g transform="translate(178.80949 41.90625) scale(0.12 -0.12)">
     <defs>
      <path id="DejaVuSans-6c" d="M 603 4863 
L 1178 4863 
L 1178 0 
L 603 0 
L 603 4863 
z
" transform="scale(0.015625)"/>
      <path id="DejaVuSans-64" d="M 2906 2969 
L 2906 4863 
L 3481 4863 
L 3481 0 
L 2906 0 
L 2906 525 
Q 2725 213 2448 61 
Q 2172 -91 1784 -91 
Q 1150 -91 751 415 
Q 353 922 353 1747 
Q 353 2572 751 3078 
Q 1150 3584 1784 3584 
Q 2172 3584 2448 3432 
Q 2725 3281 2906 2969 
z
M 947 1747 
Q 947 1113 1208 752 
Q 1469 391 1925 391 
Q 2381 391 2643 752 
Q 2906 1113 2906 1747 
Q 2906 2381 2643 2742 
Q 2381 3103 1925 3103 
Q 1469 3103 1208 2742 
Q 947 2381 947 1747 
z
" transform="scale(0.015625)"/>
      <path id="DejaVuSans-6b" d="M 581 4863 
L 1159 4863 
L 1159 1991 
L 2875 3500 
L 3609 3500 
L 1753 1863 
L 3688 0 
L 2938 0 
L 1159 1709 
L 1159 0 
L 581 0 
L 581 4863 
z
" transform="scale(0.015625)"/>
     </defs>
     <use xlink:href="#DejaVuSans-46"/>
     <use xlink:href="#DejaVuSans-6f" transform="translate(53.894531 0)"/>
     <use xlink:href="#DejaVuSans-6c" transform="translate(115.076172 0)"/>
     <use xlink:href="#DejaVuSans-64" transform="translate(142.859375 0)"/>
     <use xlink:href="#DejaVuSans-73" transform="translate(206.335938 0)"/>
     <use xlink:href="#DejaVuSans-65" transform="translate(258.435547 0)"/>
     <use xlink:href="#DejaVuSans-65" transform="translate(319.958984 0)"/>
     <use xlink:href="#DejaVuSans-6b" transform="translate(381.482422 0)"/>
    </g>
   </g>
   <g id="legend_1">
    <g id="patch_7">
     <path d="M 261.388668 143.975 
L 355.17773 143.975 
Q 357.17773 143.975 357.17773 141.975 
L 357.17773 54.90625 
Q 357.17773 52.90625 355.17773 52.90625 
L 261.388668 52.90625 
Q 259.388668 52.90625 259.388668 54.90625 
L 259.388668 141.975 
Q 259.388668 143.975 261.388668 143.975 
z
" style="fill: #ffffff; opacity: 0.8; stroke: #cccccc; stroke-linejoin: miter"/>
    </g>
    <g id="line2d_20">
     <path d="M 263.388668 61.004687 
L 273.388668 61.004687 
L 283.388668 61.004687 
" style="fill: none; stroke: #000000; stroke-width: 1.5; stroke-linecap: square"/>
    </g>
    <g id="text_17">
     <!-- SCOP40 -->
     <g transform="translate(291.388668 64.504687) scale(0.1 -0.1)">
      <defs>
       <path id="DejaVuSans-53" d="M 3425 4513 
L 3425 3897 
Q 3066 4069 2747 4153 
Q 2428 4238 2131 4238 
Q 1616 4238 1336 4038 
Q 1056 3838 1056 3469 
Q 1056 3159 1242 3001 
Q 1428 2844 1947 2747 
L 2328 2669 
Q 3034 2534 3370 2195 
Q 3706 1856 3706 1288 
Q 3706 609 3251 259 
Q 2797 -91 1919 -91 
Q 1588 -91 1214 -16 
Q 841 59 441 206 
L 441 856 
Q 825 641 1194 531 
Q 1563 422 1919 422 
Q 2459 422 2753 634 
Q 3047 847 3047 1241 
Q 3047 1584 2836 1778 
Q 2625 1972 2144 2069 
L 1759 2144 
Q 1053 2284 737 2584 
Q 422 2884 422 3419 
Q 422 4038 858 4394 
Q 1294 4750 2059 4750 
Q 2388 4750 2728 4690 
Q 3069 4631 3425 4513 
z
" transform="scale(0.015625)"/>
       <path id="DejaVuSans-43" d="M 4122 4306 
L 4122 3641 
Q 3803 3938 3442 4084 
Q 3081 4231 2675 4231 
Q 1875 4231 1450 3742 
Q 1025 3253 1025 2328 
Q 1025 1406 1450 917 
Q 1875 428 2675 428 
Q 3081 428 3442 575 
Q 3803 722 4122 1019 
L 4122 359 
Q 3791 134 3420 21 
Q 3050 -91 2638 -91 
Q 1578 -91 968 557 
Q 359 1206 359 2328 
Q 359 3453 968 4101 
Q 1578 4750 2638 4750 
Q 3056 4750 3426 4639 
Q 3797 4528 4122 4306 
z
" transform="scale(0.015625)"/>
       <path id="DejaVuSans-4f" d="M 2522 4238 
Q 1834 4238 1429 3725 
Q 1025 3213 1025 2328 
Q 1025 1447 1429 934 
Q 1834 422 2522 422 
Q 3209 422 3611 934 
Q 4013 1447 4013 2328 
Q 4013 3213 3611 3725 
Q 3209 4238 2522 4238 
z
M 2522 4750 
Q 3503 4750 4090 4092 
Q 4678 3434 4678 2328 
Q 4678 1225 4090 567 
Q 3503 -91 2522 -91 
Q 1538 -91 948 565 
Q 359 1222 359 2328 
Q 359 3434 948 4092 
Q 1538 4750 2522 4750 
z
" transform="scale(0.015625)"/>
      </defs>
      <use xlink:href="#DejaVuSans-53"/>
      <use xlink:href="#DejaVuSans-43" transform="translate(63.476562 0)"/>
      <use xlink:href="#DejaVuSans-4f" transform="translate(133.300781 0)"/>
      <use xlink:href="#DejaVuSans-50" transform="translate(212.011719 0)"/>
      <use xlink:href="#DejaVuSans-34" transform="translate(272.314453 0)"/>
      <use xlink:href="#DejaVuSans-30" transform="translate(335.9375 0)"/>
     </g>
    </g>
    <g id="line2d_21">
     <path d="M 263.388668 75.682812 
L 273.388668 75.682812 
L 283.388668 75.682812 
" style="fill: none; stroke-dasharray: 5.55,2.4; stroke-dashoffset: 0; stroke: #ff00ff; stroke-width: 1.5"/>
    </g>
    <g id="text_18">
     <!-- SCOP40x8 -->
     <g transform="translate(291.388668 79.182812) scale(0.1 -0.1)">
      <defs>
       <path id="DejaVuSans-78" d="M 3513 3500 
L 2247 1797 
L 3578 0 
L 2900 0 
L 1881 1375 
L 863 0 
L 184 0 
L 1544 1831 
L 300 3500 
L 978 3500 
L 1906 2253 
L 2834 3500 
L 3513 3500 
z
" transform="scale(0.015625)"/>
      </defs>
      <use xlink:href="#DejaVuSans-53"/>
      <use xlink:href="#DejaVuSans-43" transform="translate(63.476562 0)"/>
      <use xlink:href="#DejaVuSans-4f" transform="translate(133.300781 0)"/>
      <use xlink:href="#DejaVuSans-50" transform="translate(212.011719 0)"/>
      <use xlink:href="#DejaVuSans-34" transform="translate(272.314453 0)"/>
      <use xlink:href="#DejaVuSans-30" transform="translate(335.9375 0)"/>
      <use xlink:href="#DejaVuSans-78" transform="translate(399.560547 0)"/>
      <use xlink:href="#DejaVuSans-38" transform="translate(458.740234 0)"/>
     </g>
    </g>
    <g id="line2d_22">
     <path d="M 263.388668 90.360937 
L 273.388668 90.360937 
L 283.388668 90.360937 
" style="fill: none; stroke: #00ffff; stroke-width: 1.5; stroke-linecap: square"/>
    </g>
    <g id="text_19">
     <!-- SCOP40c -->
     <g transform="translate(291.388668 93.860937) scale(0.1 -0.1)">
      <use xlink:href="#DejaVuSans-53"/>
      <use xlink:href="#DejaVuSans-43" transform="translate(63.476562 0)"/>
      <use xlink:href="#DejaVuSans-4f" transform="translate(133.300781 0)"/>
      <use xlink:href="#DejaVuSans-50" transform="translate(212.011719 0)"/>
      <use xlink:href="#DejaVuSans-34" transform="translate(272.314453 0)"/>
      <use xlink:href="#DejaVuSans-30" transform="translate(335.9375 0)"/>
      <use xlink:href="#DejaVuSans-63" transform="translate(399.560547 0)"/>
     </g>
    </g>
    <g id="line2d_23">
     <path d="M 263.388668 105.039062 
L 273.388668 105.039062 
L 283.388668 105.039062 
" style="fill: none; stroke: #ffa500; stroke-width: 1.5; stroke-linecap: square"/>
    </g>
    <g id="text_20">
     <!-- SCOP40/SF2 -->
     <g transform="translate(291.388668 108.539062) scale(0.1 -0.1)">
      <defs>
       <path id="DejaVuSans-2f" d="M 1625 4666 
L 2156 4666 
L 531 -594 
L 0 -594 
L 1625 4666 
z
" transform="scale(0.015625)"/>
      </defs>
      <use xlink:href="#DejaVuSans-53"/>
      <use xlink:href="#DejaVuSans-43" transform="translate(63.476562 0)"/>
      <use xlink:href="#DejaVuSans-4f" transform="translate(133.300781 0)"/>
      <use xlink:href="#DejaVuSans-50" transform="translate(212.011719 0)"/>
      <use xlink:href="#DejaVuSans-34" transform="translate(272.314453 0)"/>
      <use xlink:href="#DejaVuSans-30" transform="translate(335.9375 0)"/>
      <use xlink:href="#DejaVuSans-2f" transform="translate(399.560547 0)"/>
      <use xlink:href="#DejaVuSans-53" transform="translate(433.251953 0)"/>
      <use xlink:href="#DejaVuSans-46" transform="translate(496.728516 0)"/>
      <use xlink:href="#DejaVuSans-32" transform="translate(554.248047 0)"/>
     </g>
    </g>
    <g id="line2d_24">
     <path d="M 263.388668 119.717187 
L 273.388668 119.717187 
L 283.388668 119.717187 
" style="fill: none; stroke-dasharray: 5.55,2.4; stroke-dashoffset: 0; stroke: #ffa500; stroke-width: 1.5"/>
    </g>
    <g id="text_21">
     <!-- SCOP40/SF4 -->
     <g transform="translate(291.388668 123.217187) scale(0.1 -0.1)">
      <use xlink:href="#DejaVuSans-53"/>
      <use xlink:href="#DejaVuSans-43" transform="translate(63.476562 0)"/>
      <use xlink:href="#DejaVuSans-4f" transform="translate(133.300781 0)"/>
      <use xlink:href="#DejaVuSans-50" transform="translate(212.011719 0)"/>
      <use xlink:href="#DejaVuSans-34" transform="translate(272.314453 0)"/>
      <use xlink:href="#DejaVuSans-30" transform="translate(335.9375 0)"/>
      <use xlink:href="#DejaVuSans-2f" transform="translate(399.560547 0)"/>
      <use xlink:href="#DejaVuSans-53" transform="translate(433.251953 0)"/>
      <use xlink:href="#DejaVuSans-46" transform="translate(496.728516 0)"/>
      <use xlink:href="#DejaVuSans-34" transform="translate(554.248047 0)"/>
     </g>
    </g>
    <g id="line2d_25">
     <path d="M 263.388668 134.395312 
L 273.388668 134.395312 
L 283.388668 134.395312 
" style="fill: none; stroke-dasharray: 1.5,2.475; stroke-dashoffset: 0; stroke: #ffa500; stroke-width: 1.5"/>
    </g>
    <g id="text_22">
     <!-- SCOP40/SF8 -->
     <g transform="translate(291.388668 137.895312) scale(0.1 -0.1)">
      <use xlink:href="#DejaVuSans-53"/>
      <use xlink:href="#DejaVuSans-43" transform="translate(63.476562 0)"/>
      <use xlink:href="#DejaVuSans-4f" transform="translate(133.300781 0)"/>
      <use xlink:href="#DejaVuSans-50" transform="translate(212.011719 0)"/>
      <use xlink:href="#DejaVuSans-34" transform="translate(272.314453 0)"/>
      <use xlink:href="#DejaVuSans-30" transform="translate(335.9375 0)"/>
      <use xlink:href="#DejaVuSans-2f" transform="translate(399.560547 0)"/>
      <use xlink:href="#DejaVuSans-53" transform="translate(433.251953 0)"/>
      <use xlink:href="#DejaVuSans-46" transform="translate(496.728516 0)"/>
      <use xlink:href="#DejaVuSans-38" transform="translate(554.248047 0)"/>
     </g>
    </g>
   </g>
  </g>
  <g id="axes_2">
   <g id="patch_8">
    <path d="M 418.418076 238.559481 
L 732.425806 238.559481 
L 732.425806 47.90625 
L 418.418076 47.90625 
z
" style="fill: #ffffff"/>
   </g>
   <g id="matplotlib.axis_3">
    <g id="xtick_8">
     <g id="line2d_26">
      <g>
       <use xlink:href="#m498c9a5027" x="418.418076" y="238.559481" style="stroke: #000000; stroke-width: 0.8"/>
      </g>
     </g>
     <g id="text_23">
      <!-- 20 -->
      <g transform="translate(412.055576 253.157918) scale(0.1 -0.1)">
       <use xlink:href="#DejaVuSans-32"/>
       <use xlink:href="#DejaVuSans-30" transform="translate(63.623047 0)"/>
      </g>
     </g>
    </g>
    <g id="xtick_9">
     <g id="line2d_27">
      <g>
       <use xlink:href="#m498c9a5027" x="466.726958" y="238.559481" style="stroke: #000000; stroke-width: 0.8"/>
      </g>
     </g>
     <g id="text_24">
      <!-- 40 -->
      <g transform="translate(460.364458 253.157918) scale(0.1 -0.1)">
       <use xlink:href="#DejaVuSans-34"/>
       <use xlink:href="#DejaVuSans-30" transform="translate(63.623047 0)"/>
      </g>
     </g>
    </g>
    <g id="xtick_10">
     <g id="line2d_28">
      <g>
       <use xlink:href="#m498c9a5027" x="515.035839" y="238.559481" style="stroke: #000000; stroke-width: 0.8"/>
      </g>
     </g>
     <g id="text_25">
      <!-- 60 -->
      <g transform="translate(508.673339 253.157918) scale(0.1 -0.1)">
       <use xlink:href="#DejaVuSans-36"/>
       <use xlink:href="#DejaVuSans-30" transform="translate(63.623047 0)"/>
      </g>
     </g>
    </g>
    <g id="xtick_11">
     <g id="line2d_29">
      <g>
       <use xlink:href="#m498c9a5027" x="563.344721" y="238.559481" style="stroke: #000000; stroke-width: 0.8"/>
      </g>
     </g>
     <g id="text_26">
      <!-- 80 -->
      <g transform="translate(556.982221 253.157918) scale(0.1 -0.1)">
       <use xlink:href="#DejaVuSans-38"/>
       <use xlink:href="#DejaVuSans-30" transform="translate(63.623047 0)"/>
      </g>
     </g>
    </g>
    <g id="xtick_12">
     <g id="line2d_30">
      <g>
       <use xlink:href="#m498c9a5027" x="611.653603" y="238.559481" style="stroke: #000000; stroke-width: 0.8"/>
      </g>
     </g>
     <g id="text_27">
      <!-- 100 -->
      <g transform="translate(602.109853 253.157918) scale(0.1 -0.1)">
       <use xlink:href="#DejaVuSans-31"/>
       <use xlink:href="#DejaVuSans-30" transform="translate(63.623047 0)"/>
       <use xlink:href="#DejaVuSans-30" transform="translate(127.246094 0)"/>
      </g>
     </g>
    </g>
    <g id="xtick_13">
     <g id="line2d_31">
      <g>
       <use xlink:href="#m498c9a5027" x="659.962484" y="238.559481" style="stroke: #000000; stroke-width: 0.8"/>
      </g>
     </g>
     <g id="text_28">
      <!-- 120 -->
      <g transform="translate(650.418734 253.157918) scale(0.1 -0.1)">
       <use xlink:href="#DejaVuSans-31"/>
       <use xlink:href="#DejaVuSans-32" transform="translate(63.623047 0)"/>
       <use xlink:href="#DejaVuSans-30" transform="translate(127.246094 0)"/>
      </g>
     </g>
    </g>
    <g id="xtick_14">
     <g id="line2d_32">
      <g>
       <use xlink:href="#m498c9a5027" x="708.271366" y="238.559481" style="stroke: #000000; stroke-width: 0.8"/>
      </g>
     </g>
     <g id="text_29">
      <!-- 140 -->
      <g transform="translate(698.727616 253.157918) scale(0.1 -0.1)">
       <use xlink:href="#DejaVuSans-31"/>
       <use xlink:href="#DejaVuSans-34" transform="translate(63.623047 0)"/>
       <use xlink:href="#DejaVuSans-30" transform="translate(127.246094 0)"/>
      </g>
     </g>
    </g>
    <g id="text_30">
     <!-- Bits -->
     <g transform="translate(566.037566 266.836043) scale(0.1 -0.1)">
      <use xlink:href="#DejaVuSans-42"/>
      <use xlink:href="#DejaVuSans-69" transform="translate(68.603516 0)"/>
      <use xlink:href="#DejaVuSans-74" transform="translate(96.386719 0)"/>
      <use xlink:href="#DejaVuSans-73" transform="translate(135.595703 0)"/>
     </g>
    </g>
   </g>
   <g id="matplotlib.axis_4">
    <g id="ytick_7">
     <g id="line2d_33">
      <g>
       <use xlink:href="#mc581144d7a" x="418.418076" y="238.559481" style="stroke: #000000; stroke-width: 0.8"/>
      </g>
     </g>
     <g id="text_31">
      <!-- $\mathdefault{10^{-3}}$ -->
      <g transform="translate(387.918076 242.358699) scale(0.1 -0.1)">
       <defs>
        <path id="DejaVuSans-2212" d="M 678 2272 
L 4684 2272 
L 4684 1741 
L 678 1741 
L 678 2272 
z
" transform="scale(0.015625)"/>
        <path id="DejaVuSans-33" d="M 2597 2516 
Q 3050 2419 3304 2112 
Q 3559 1806 3559 1356 
Q 3559 666 3084 287 
Q 2609 -91 1734 -91 
Q 1441 -91 1130 -33 
Q 819 25 488 141 
L 488 750 
Q 750 597 1062 519 
Q 1375 441 1716 441 
Q 2309 441 2620 675 
Q 2931 909 2931 1356 
Q 2931 1769 2642 2001 
Q 2353 2234 1838 2234 
L 1294 2234 
L 1294 2753 
L 1863 2753 
Q 2328 2753 2575 2939 
Q 2822 3125 2822 3475 
Q 2822 3834 2567 4026 
Q 2313 4219 1838 4219 
Q 1578 4219 1281 4162 
Q 984 4106 628 3988 
L 628 4550 
Q 988 4650 1302 4700 
Q 1616 4750 1894 4750 
Q 2613 4750 3031 4423 
Q 3450 4097 3450 3541 
Q 3450 3153 3228 2886 
Q 3006 2619 2597 2516 
z
" transform="scale(0.015625)"/>
       </defs>
       <use xlink:href="#DejaVuSans-31" transform="translate(0 0.765625)"/>
       <use xlink:href="#DejaVuSans-30" transform="translate(63.623047 0.765625)"/>
       <use xlink:href="#DejaVuSans-2212" transform="translate(128.203125 39.046875) scale(0.7)"/>
       <use xlink:href="#DejaVuSans-33" transform="translate(186.855469 39.046875) scale(0.7)"/>
      </g>
     </g>
    </g>
    <g id="ytick_8">
     <g id="line2d_34">
      <g>
       <use xlink:href="#mc581144d7a" x="418.418076" y="180.803801" style="stroke: #000000; stroke-width: 0.8"/>
      </g>
     </g>
     <g id="text_32">
      <!-- $\mathdefault{10^{-2}}$ -->
      <g transform="translate(387.918076 184.60302) scale(0.1 -0.1)">
       <use xlink:href="#DejaVuSans-31" transform="translate(0 0.765625)"/>
       <use xlink:href="#DejaVuSans-30" transform="translate(63.623047 0.765625)"/>
       <use xlink:href="#DejaVuSans-2212" transform="translate(128.203125 39.046875) scale(0.7)"/>
       <use xlink:href="#DejaVuSans-32" transform="translate(186.855469 39.046875) scale(0.7)"/>
      </g>
     </g>
    </g>
    <g id="ytick_9">
     <g id="line2d_35">
      <g>
       <use xlink:href="#mc581144d7a" x="418.418076" y="123.048121" style="stroke: #000000; stroke-width: 0.8"/>
      </g>
     </g>
     <g id="text_33">
      <!-- $\mathdefault{10^{-1}}$ -->
      <g transform="translate(387.918076 126.84734) scale(0.1 -0.1)">
       <use xlink:href="#DejaVuSans-31" transform="translate(0 0.684375)"/>
       <use xlink:href="#DejaVuSans-30" transform="translate(63.623047 0.684375)"/>
       <use xlink:href="#DejaVuSans-2212" transform="translate(128.203125 38.965625) scale(0.7)"/>
       <use xlink:href="#DejaVuSans-31" transform="translate(186.855469 38.965625) scale(0.7)"/>
      </g>
     </g>
    </g>
    <g id="ytick_10">
     <g id="line2d_36">
      <g>
       <use xlink:href="#mc581144d7a" x="418.418076" y="65.292442" style="stroke: #000000; stroke-width: 0.8"/>
      </g>
     </g>
     <g id="text_34">
      <!-- $\mathdefault{10^{0}}$ -->
      <g transform="translate(393.818076 69.091661) scale(0.1 -0.1)">
       <use xlink:href="#DejaVuSans-31" transform="translate(0 0.765625)"/>
       <use xlink:href="#DejaVuSans-30" transform="translate(63.623047 0.765625)"/>
       <use xlink:href="#DejaVuSans-30" transform="translate(128.203125 39.046875) scale(0.7)"/>
      </g>
     </g>
    </g>
    <g id="ytick_11">
     <g id="line2d_37">
      <defs>
       <path id="m0447b454ae" d="M 0 0 
L -2 0 
" style="stroke: #000000; stroke-width: 0.6"/>
      </defs>
      <g>
       <use xlink:href="#m0447b454ae" x="418.418076" y="221.173289" style="stroke: #000000; stroke-width: 0.6"/>
      </g>
     </g>
    </g>
    <g id="ytick_12">
     <g id="line2d_38">
      <g>
       <use xlink:href="#m0447b454ae" x="418.418076" y="211.003018" style="stroke: #000000; stroke-width: 0.6"/>
      </g>
     </g>
    </g>
    <g id="ytick_13">
     <g id="line2d_39">
      <g>
       <use xlink:href="#m0447b454ae" x="418.418076" y="203.787097" style="stroke: #000000; stroke-width: 0.6"/>
      </g>
     </g>
    </g>
    <g id="ytick_14">
     <g id="line2d_40">
      <g>
       <use xlink:href="#m0447b454ae" x="418.418076" y="198.189993" style="stroke: #000000; stroke-width: 0.6"/>
      </g>
     </g>
    </g>
    <g id="ytick_15">
     <g id="line2d_41">
      <g>
       <use xlink:href="#m0447b454ae" x="418.418076" y="193.616826" style="stroke: #000000; stroke-width: 0.6"/>
      </g>
     </g>
    </g>
    <g id="ytick_16">
     <g id="line2d_42">
      <g>
       <use xlink:href="#m0447b454ae" x="418.418076" y="189.750269" style="stroke: #000000; stroke-width: 0.6"/>
      </g>
     </g>
    </g>
    <g id="ytick_17">
     <g id="line2d_43">
      <g>
       <use xlink:href="#m0447b454ae" x="418.418076" y="186.400905" style="stroke: #000000; stroke-width: 0.6"/>
      </g>
     </g>
    </g>
    <g id="ytick_18">
     <g id="line2d_44">
      <g>
       <use xlink:href="#m0447b454ae" x="418.418076" y="183.446556" style="stroke: #000000; stroke-width: 0.6"/>
      </g>
     </g>
    </g>
    <g id="ytick_19">
     <g id="line2d_45">
      <g>
       <use xlink:href="#m0447b454ae" x="418.418076" y="163.417609" style="stroke: #000000; stroke-width: 0.6"/>
      </g>
     </g>
    </g>
    <g id="ytick_20">
     <g id="line2d_46">
      <g>
       <use xlink:href="#m0447b454ae" x="418.418076" y="153.247339" style="stroke: #000000; stroke-width: 0.6"/>
      </g>
     </g>
    </g>
    <g id="ytick_21">
     <g id="line2d_47">
      <g>
       <use xlink:href="#m0447b454ae" x="418.418076" y="146.031417" style="stroke: #000000; stroke-width: 0.6"/>
      </g>
     </g>
    </g>
    <g id="ytick_22">
     <g id="line2d_48">
      <g>
       <use xlink:href="#m0447b454ae" x="418.418076" y="140.434313" style="stroke: #000000; stroke-width: 0.6"/>
      </g>
     </g>
    </g>
    <g id="ytick_23">
     <g id="line2d_49">
      <g>
       <use xlink:href="#m0447b454ae" x="418.418076" y="135.861147" style="stroke: #000000; stroke-width: 0.6"/>
      </g>
     </g>
    </g>
    <g id="ytick_24">
     <g id="line2d_50">
      <g>
       <use xlink:href="#m0447b454ae" x="418.418076" y="131.994589" style="stroke: #000000; stroke-width: 0.6"/>
      </g>
     </g>
    </g>
    <g id="ytick_25">
     <g id="line2d_51">
      <g>
       <use xlink:href="#m0447b454ae" x="418.418076" y="128.645225" style="stroke: #000000; stroke-width: 0.6"/>
      </g>
     </g>
    </g>
    <g id="ytick_26">
     <g id="line2d_52">
      <g>
       <use xlink:href="#m0447b454ae" x="418.418076" y="125.690876" style="stroke: #000000; stroke-width: 0.6"/>
      </g>
     </g>
    </g>
    <g id="ytick_27">
     <g id="line2d_53">
      <g>
       <use xlink:href="#m0447b454ae" x="418.418076" y="105.66193" style="stroke: #000000; stroke-width: 0.6"/>
      </g>
     </g>
    </g>
    <g id="ytick_28">
     <g id="line2d_54">
      <g>
       <use xlink:href="#m0447b454ae" x="418.418076" y="95.491659" style="stroke: #000000; stroke-width: 0.6"/>
      </g>
     </g>
    </g>
    <g id="ytick_29">
     <g id="line2d_55">
      <g>
       <use xlink:href="#m0447b454ae" x="418.418076" y="88.275738" style="stroke: #000000; stroke-width: 0.6"/>
      </g>
     </g>
    </g>
    <g id="ytick_30">
     <g id="line2d_56">
      <g>
       <use xlink:href="#m0447b454ae" x="418.418076" y="82.678634" style="stroke: #000000; stroke-width: 0.6"/>
      </g>
     </g>
    </g>
    <g id="ytick_31">
     <g id="line2d_57">
      <g>
       <use xlink:href="#m0447b454ae" x="418.418076" y="78.105467" style="stroke: #000000; stroke-width: 0.6"/>
      </g>
     </g>
    </g>
    <g id="ytick_32">
     <g id="line2d_58">
      <g>
       <use xlink:href="#m0447b454ae" x="418.418076" y="74.23891" style="stroke: #000000; stroke-width: 0.6"/>
      </g>
     </g>
    </g>
    <g id="ytick_33">
     <g id="line2d_59">
      <g>
       <use xlink:href="#m0447b454ae" x="418.418076" y="70.889546" style="stroke: #000000; stroke-width: 0.6"/>
      </g>
     </g>
    </g>
    <g id="ytick_34">
     <g id="line2d_60">
      <g>
       <use xlink:href="#m0447b454ae" x="418.418076" y="67.935197" style="stroke: #000000; stroke-width: 0.6"/>
      </g>
     </g>
    </g>
    <g id="ytick_35">
     <g id="line2d_61">
      <g>
       <use xlink:href="#m0447b454ae" x="418.418076" y="47.90625" style="stroke: #000000; stroke-width: 0.6"/>
      </g>
     </g>
    </g>
    <g id="text_35">
     <!-- P(F|score) -->
     <g transform="translate(381.560264 168.14224) rotate(-90) scale(0.1 -0.1)">
      <use xlink:href="#DejaVuSans-50"/>
      <use xlink:href="#DejaVuSans-28" transform="translate(60.302734 0)"/>
      <use xlink:href="#DejaVuSans-46" transform="translate(99.316406 0)"/>
      <use xlink:href="#DejaVuSans-7c" transform="translate(156.835938 0)"/>
      <use xlink:href="#DejaVuSans-73" transform="translate(190.527344 0)"/>
      <use xlink:href="#DejaVuSans-63" transform="translate(242.626953 0)"/>
      <use xlink:href="#DejaVuSans-6f" transform="translate(297.607422 0)"/>
      <use xlink:href="#DejaVuSans-72" transform="translate(358.789062 0)"/>
      <use xlink:href="#DejaVuSans-65" transform="translate(397.652344 0)"/>
      <use xlink:href="#DejaVuSans-29" transform="translate(459.175781 0)"/>
     </g>
    </g>
   </g>
   <g id="line2d_62">
    <path d="M 368.985345 281.519481 
L 369.011375 65.292442 
L 375.964231 65.352713 
L 382.918295 65.365288 
L 389.872358 65.423214 
L 396.824006 65.49897 
L 403.780485 65.623201 
L 410.736964 65.829919 
L 417.693443 66.040939 
L 424.649922 66.279827 
L 431.582247 66.655717 
L 438.538725 67.09925 
L 445.495204 67.616723 
L 452.451683 68.249298 
L 459.408162 68.901139 
L 466.364641 69.534699 
L 473.32112 70.359047 
L 480.277599 71.189189 
L 487.209924 72.39491 
L 494.166403 73.514888 
L 501.122882 74.936511 
L 508.07936 75.745226 
L 515.035839 77.535094 
L 521.992318 78.58663 
L 528.948797 80.101684 
L 535.905276 81.179245 
L 542.861755 83.083206 
L 549.79408 85.332539 
L 556.750559 87.310061 
L 563.707038 89.299674 
L 570.663517 90.150027 
L 577.619995 92.168437 
L 584.576474 94.196294 
L 591.532953 95.052396 
L 598.489432 96.937169 
L 605.421757 99.815242 
L 612.378236 100.367643 
L 619.383024 101.627521 
L 626.387811 104.200372 
L 633.151055 104.642007 
L 640.155843 105.977442 
L 647.16063 107.862682 
L 654.165418 107.794318 
L 661.170206 111.749785 
L 667.93345 111.717831 
L 674.938237 114.305653 
L 681.943025 117.112188 
L 688.947813 115.857294 
L 695.711056 117.937295 
L 702.715844 119.455382 
L 709.720632 117.131994 
L 716.72542 119.564297 
L 723.730208 124.795695 
L 730.493451 125.298212 
L 737.498239 126.084122 
L 744.225806 125.819124 
" clip-path="url(#p2296da01e6)" style="fill: none; stroke: #000000; stroke-width: 1.5; stroke-linecap: square"/>
   </g>
   <g id="line2d_63">
    <path d="M 375.938201 281.519481 
L 375.964231 65.292442 
L 382.918295 65.342657 
L 389.872358 65.466115 
L 396.824006 65.549603 
L 403.780485 65.663898 
L 410.736964 65.896636 
L 417.693443 66.175683 
L 424.649922 66.492051 
L 431.582247 67.002394 
L 438.538725 67.567239 
L 445.495204 68.269061 
L 452.451683 69.052205 
L 459.408162 69.725536 
L 466.364641 70.528453 
L 473.32112 71.383496 
L 480.277599 72.391583 
L 487.209924 73.833707 
L 494.166403 74.896016 
L 501.122882 76.885647 
L 508.07936 77.608759 
L 515.035839 79.621932 
L 521.992318 81.207613 
L 528.948797 82.779167 
L 535.905276 84.177342 
L 542.861755 85.959294 
L 549.79408 88.865802 
L 556.750559 90.828079 
L 563.707038 93.131418 
L 570.663517 94.180418 
L 577.619995 96.620327 
L 584.576474 98.707602 
L 591.532953 100.185515 
L 598.489432 102.796924 
L 605.421757 106.41301 
L 612.378236 105.362726 
L 619.383024 107.617436 
L 626.387811 109.430438 
L 633.151055 110.578566 
L 640.155843 111.622217 
L 647.16063 114.608397 
L 654.165418 114.041527 
L 661.170206 116.758347 
L 667.93345 116.641502 
L 674.938237 118.412325 
L 681.943025 122.724144 
L 688.947813 121.728946 
L 695.711056 122.209478 
L 702.715844 124.741966 
L 709.720632 121.633934 
L 716.72542 124.472383 
L 723.730208 128.761502 
L 730.493451 129.56812 
L 737.498239 129.62348 
L 744.225806 130.506777 
" clip-path="url(#p2296da01e6)" style="fill: none; stroke-dasharray: 5.55,2.4; stroke-dashoffset: 0; stroke: #ff00ff; stroke-width: 1.5"/>
   </g>
   <g id="line2d_64">
    <path d="M 368.985345 281.519481 
L 369.011375 65.292442 
L 375.964231 65.360257 
L 382.918295 65.380386 
L 389.872358 65.461063 
L 396.824006 65.557206 
L 403.780485 65.699564 
L 410.736964 65.919771 
L 417.693443 66.162695 
L 424.649922 66.476269 
L 431.582247 66.940708 
L 438.538725 67.545277 
L 445.495204 68.195737 
L 452.451683 68.982369 
L 459.408162 69.800477 
L 466.364641 70.494482 
L 473.32112 71.521376 
L 480.277599 72.478283 
L 487.209924 73.766805 
L 494.166403 75.352589 
L 501.122882 76.588758 
L 508.07936 77.518753 
L 515.035839 79.773385 
L 521.992318 81.478731 
L 528.948797 83.54629 
L 535.905276 85.121524 
L 542.861755 87.846746 
L 549.79408 90.883679 
L 556.750559 93.912064 
L 563.707038 96.143863 
L 570.663517 98.023181 
L 577.619995 100.828833 
L 584.576474 104.41425 
L 591.532953 106.15588 
L 598.489432 110.854712 
L 605.421757 114.806257 
L 612.378236 114.752139 
L 619.383024 120.863528 
L 626.387811 125.665806 
L 633.151055 126.549879 
L 640.155843 129.078491 
L 647.16063 131.670612 
L 654.165418 136.197836 
L 661.170206 139.683151 
L 667.93345 141.636553 
L 674.938237 146.188679 
L 681.943025 151.464452 
L 688.947813 152.271607 
L 695.711056 155.157693 
L 702.715844 161.885161 
L 709.720632 158.792241 
L 716.72542 162.229665 
L 723.730208 174.455535 
L 730.493451 165.036426 
L 737.498239 168.936451 
L 744.225806 160.164602 
" clip-path="url(#p2296da01e6)" style="fill: none; stroke: #00ffff; stroke-width: 1.5; stroke-linecap: square"/>
   </g>
   <g id="line2d_65">
    <path d="M 368.987431 281.519481 
L 369.011375 82.678634 
L 375.964231 65.468641 
L 382.918295 65.468641 
L 389.872358 65.595259 
L 396.824006 65.773604 
L 403.780485 66.030604 
L 410.736964 66.394886 
L 417.693443 66.79115 
L 424.649922 67.220847 
L 431.582247 67.851726 
L 438.538725 68.58454 
L 445.495204 69.516882 
L 452.451683 70.423595 
L 459.408162 71.55677 
L 466.364641 72.474942 
L 473.32112 73.637031 
L 480.277599 74.745654 
L 487.209924 76.48665 
L 494.166403 78.063697 
L 501.122882 80.060974 
L 508.07936 81.502655 
L 515.035839 83.859832 
L 521.992318 85.044225 
L 528.948797 87.231742 
L 535.905276 89.299674 
L 542.861755 90.988265 
L 549.79408 94.267857 
L 556.750559 97.222205 
L 563.707038 100.469398 
L 570.663517 102.265578 
L 577.619995 104.438128 
L 584.576474 108.027522 
L 591.532953 108.304683 
L 598.489432 111.102753 
L 605.421757 115.707097 
L 612.378236 114.42987 
L 619.383024 118.896527 
L 626.387811 123.073217 
L 633.151055 122.798537 
L 640.155843 124.787628 
L 647.16063 126.977464 
L 654.165418 127.213263 
L 661.170206 129.734567 
L 667.93345 130.230622 
L 674.938237 133.205855 
L 681.943025 137.103768 
L 688.947813 134.597561 
L 695.711056 136.885084 
L 702.715844 136.972329 
L 709.720632 130.873375 
L 716.72542 135.652988 
L 723.730208 138.737233 
L 730.493451 138.925474 
L 737.498239 145.657965 
L 744.225806 140.163993 
" clip-path="url(#p2296da01e6)" style="fill: none; stroke: #ffa500; stroke-width: 1.5; stroke-linecap: square"/>
   </g>
   <g id="line2d_66">
    <path d="M 375.938201 281.519481 
L 375.964231 65.292442 
L 382.918295 65.544534 
L 389.872358 65.722519 
L 396.824006 65.953228 
L 403.780485 66.394886 
L 410.736964 67.11273 
L 417.693443 67.823964 
L 424.649922 68.58454 
L 431.582247 69.815493 
L 438.538725 71.268641 
L 445.495204 72.946948 
L 452.451683 75.22555 
L 459.408162 76.961419 
L 466.364641 79.568698 
L 473.32112 82.578503 
L 480.277599 85.099414 
L 487.209924 89.62842 
L 494.166403 93.561247 
L 501.122882 98.6981 
L 508.07936 101.723809 
L 515.035839 106.041025 
L 521.992318 109.88637 
L 528.948797 116.467247 
L 535.905276 118.266796 
L 542.861755 122.064349 
L 549.79408 126.889609 
L 556.750559 128.520124 
L 563.707038 134.203168 
L 570.663517 135.446542 
L 577.619995 138.318786 
L 584.576474 142.965835 
L 591.532953 153.163869 
L 598.489432 154.184333 
L 605.421757 161.956052 
L 612.378236 151.62852 
L 619.383024 162.920899 
L 626.387811 166.766973 
L 633.151055 164.311244 
L 640.155843 161.720528 
L 647.16063 167.200695 
L 654.165418 171.31149 
L 661.170206 171.657468 
L 667.93345 166.62405 
L 674.938237 176.865681 
L 681.943025 184.354636 
L 688.947813 170.301301 
L 695.711056 167.494066 
L 702.715844 181.106618 
L 709.720632 182.977184 
L 716.72542 192.43287 
L 723.730208 189.857998 
L 730.493451 191.880706 
L 737.498239 192.552788 
L 744.225806 183.806944 
" clip-path="url(#p2296da01e6)" style="fill: none; stroke-dasharray: 5.55,2.4; stroke-dashoffset: 0; stroke: #ffa500; stroke-width: 1.5"/>
   </g>
   <g id="line2d_67">
    <path d="M 375.938237 281.519481 
L 375.964231 65.595259 
L 382.918295 65.799185 
L 389.872358 66.082322 
L 396.824006 66.499945 
L 403.780485 67.27508 
L 410.736964 68.555954 
L 417.693443 69.725536 
L 424.649922 71.173328 
L 431.582247 73.358714 
L 438.538725 75.905552 
L 445.495204 78.147308 
L 452.451683 81.169794 
L 459.408162 83.598276 
L 466.364641 86.578657 
L 473.32112 89.169373 
L 480.277599 92.278531 
L 487.209924 95.242075 
L 494.166403 98.041686 
L 501.122882 101.298663 
L 508.07936 102.931537 
L 515.035839 107.890081 
L 521.992318 111.102753 
L 528.948797 112.711187 
L 535.905276 115.894986 
L 542.861755 117.85559 
L 549.79408 122.306699 
L 556.750559 128.70801 
L 563.707038 131.780508 
L 570.663517 134.008272 
L 577.619995 133.093289 
L 584.576474 138.64364 
L 591.532953 134.677191 
L 598.489432 139.306248 
L 605.421757 140.184729 
L 612.378236 141.095098 
L 619.383024 144.867406 
L 626.387811 151.394464 
L 633.151055 147.784368 
L 640.155843 149.960759 
L 647.16063 152.263567 
L 654.165418 155.890093 
L 661.170206 159.266014 
L 667.93345 156.076586 
L 674.938237 166.62405 
L 681.943025 164.704198 
L 688.947813 158.32725 
L 695.711056 168.091309 
L 702.715844 166.62405 
L 709.720632 165.921399 
L 716.72542 170.301301 
L 723.730208 169.330227 
L 730.493451 176.865681 
L 737.498239 176.440534 
L 744.225806 173.401513 
" clip-path="url(#p2296da01e6)" style="fill: none; stroke-dasharray: 1.5,2.475; stroke-dashoffset: 0; stroke: #ffa500; stroke-width: 1.5"/>
   </g>
   <g id="patch_9">
    <path d="M 418.418076 238.559481 
L 418.418076 47.90625 
" style="fill: none; stroke: #000000; stroke-width: 0.8; stroke-linejoin: miter; stroke-linecap: square"/>
   </g>
   <g id="patch_10">
    <path d="M 732.425806 238.559481 
L 732.425806 47.90625 
" style="fill: none; stroke: #000000; stroke-width: 0.8; stroke-linejoin: miter; stroke-linecap: square"/>
   </g>
   <g id="patch_11">
    <path d="M 418.418076 238.559481 
L 732.425806 238.559481 
" style="fill: none; stroke: #000000; stroke-width: 0.8; stroke-linejoin: miter; stroke-linecap: square"/>
   </g>
   <g id="patch_12">
    <path d="M 418.418076 47.90625 
L 732.425806 47.90625 
" style="fill: none; stroke: #000000; stroke-width: 0.8; stroke-linejoin: miter; stroke-linecap: square"/>
   </g>
   <g id="text_36">
    <!-- Foldseek (logscale) -->
    <g transform="translate(517.861316 41.90625) scale(0.12 -0.12)">
     <defs>
      <path id="DejaVuSans-20" transform="scale(0.015625)"/>
      <path id="DejaVuSans-67" d="M 2906 1791 
Q 2906 2416 2648 2759 
Q 2391 3103 1925 3103 
Q 1463 3103 1205 2759 
Q 947 2416 947 1791 
Q 947 1169 1205 825 
Q 1463 481 1925 481 
Q 2391 481 2648 825 
Q 2906 1169 2906 1791 
z
M 3481 434 
Q 3481 -459 3084 -895 
Q 2688 -1331 1869 -1331 
Q 1566 -1331 1297 -1286 
Q 1028 -1241 775 -1147 
L 775 -588 
Q 1028 -725 1275 -790 
Q 1522 -856 1778 -856 
Q 2344 -856 2625 -561 
Q 2906 -266 2906 331 
L 2906 616 
Q 2728 306 2450 153 
Q 2172 0 1784 0 
Q 1141 0 747 490 
Q 353 981 353 1791 
Q 353 2603 747 3093 
Q 1141 3584 1784 3584 
Q 2172 3584 2450 3431 
Q 2728 3278 2906 2969 
L 2906 3500 
L 3481 3500 
L 3481 434 
z
" transform="scale(0.015625)"/>
      <path id="DejaVuSans-61" d="M 2194 1759 
Q 1497 1759 1228 1600 
Q 959 1441 959 1056 
Q 959 750 1161 570 
Q 1363 391 1709 391 
Q 2188 391 2477 730 
Q 2766 1069 2766 1631 
L 2766 1759 
L 2194 1759 
z
M 3341 1997 
L 3341 0 
L 2766 0 
L 2766 531 
Q 2569 213 2275 61 
Q 1981 -91 1556 -91 
Q 1019 -91 701 211 
Q 384 513 384 1019 
Q 384 1609 779 1909 
Q 1175 2209 1959 2209 
L 2766 2209 
L 2766 2266 
Q 2766 2663 2505 2880 
Q 2244 3097 1772 3097 
Q 1472 3097 1187 3025 
Q 903 2953 641 2809 
L 641 3341 
Q 956 3463 1253 3523 
Q 1550 3584 1831 3584 
Q 2591 3584 2966 3190 
Q 3341 2797 3341 1997 
z
" transform="scale(0.015625)"/>
     </defs>
     <use xlink:href="#DejaVuSans-46"/>
     <use xlink:href="#DejaVuSans-6f" transform="translate(53.894531 0)"/>
     <use xlink:href="#DejaVuSans-6c" transform="translate(115.076172 0)"/>
     <use xlink:href="#DejaVuSans-64" transform="translate(142.859375 0)"/>
     <use xlink:href="#DejaVuSans-73" transform="translate(206.335938 0)"/>
     <use xlink:href="#DejaVuSans-65" transform="translate(258.435547 0)"/>
     <use xlink:href="#DejaVuSans-65" transform="translate(319.958984 0)"/>
     <use xlink:href="#DejaVuSans-6b" transform="translate(381.482422 0)"/>
     <use xlink:href="#DejaVuSans-20" transform="translate(439.392578 0)"/>
     <use xlink:href="#DejaVuSans-28" transform="translate(471.179688 0)"/>
     <use xlink:href="#DejaVuSans-6c" transform="translate(510.193359 0)"/>
     <use xlink:href="#DejaVuSans-6f" transform="translate(537.976562 0)"/>
     <use xlink:href="#DejaVuSans-67" transform="translate(599.158203 0)"/>
     <use xlink:href="#DejaVuSans-73" transform="translate(662.634766 0)"/>
     <use xlink:href="#DejaVuSans-63" transform="translate(714.734375 0)"/>
     <use xlink:href="#DejaVuSans-61" transform="translate(769.714844 0)"/>
     <use xlink:href="#DejaVuSans-6c" transform="translate(830.994141 0)"/>
     <use xlink:href="#DejaVuSans-65" transform="translate(858.777344 0)"/>
     <use xlink:href="#DejaVuSans-29" transform="translate(920.300781 0)"/>
    </g>
   </g>
   <g id="legend_2">
    <g id="patch_13">
     <path d="M 425.418076 233.559481 
L 519.207139 233.559481 
Q 521.207139 233.559481 521.207139 231.559481 
L 521.207139 144.490731 
Q 521.207139 142.490731 519.207139 142.490731 
L 425.418076 142.490731 
Q 423.418076 142.490731 423.418076 144.490731 
L 423.418076 231.559481 
Q 423.418076 233.559481 425.418076 233.559481 
z
" style="fill: #ffffff; opacity: 0.8; stroke: #cccccc; stroke-linejoin: miter"/>
    </g>
    <g id="line2d_68">
     <path d="M 427.418076 150.589168 
L 437.418076 150.589168 
L 447.418076 150.589168 
" style="fill: none; stroke: #000000; stroke-width: 1.5; stroke-linecap: square"/>
    </g>
    <g id="text_37">
     <!-- SCOP40 -->
     <g transform="translate(455.418076 154.089168) scale(0.1 -0.1)">
      <use xlink:href="#DejaVuSans-53"/>
      <use xlink:href="#DejaVuSans-43" transform="translate(63.476562 0)"/>
      <use xlink:href="#DejaVuSans-4f" transform="translate(133.300781 0)"/>
      <use xlink:href="#DejaVuSans-50" transform="translate(212.011719 0)"/>
      <use xlink:href="#DejaVuSans-34" transform="translate(272.314453 0)"/>
      <use xlink:href="#DejaVuSans-30" transform="translate(335.9375 0)"/>
     </g>
    </g>
    <g id="line2d_69">
     <path d="M 427.418076 165.267293 
L 437.418076 165.267293 
L 447.418076 165.267293 
" style="fill: none; stroke-dasharray: 5.55,2.4; stroke-dashoffset: 0; stroke: #ff00ff; stroke-width: 1.5"/>
    </g>
    <g id="text_38">
     <!-- SCOP40x8 -->
     <g transform="translate(455.418076 168.767293) scale(0.1 -0.1)">
      <use xlink:href="#DejaVuSans-53"/>
      <use xlink:href="#DejaVuSans-43" transform="translate(63.476562 0)"/>
      <use xlink:href="#DejaVuSans-4f" transform="translate(133.300781 0)"/>
      <use xlink:href="#DejaVuSans-50" transform="translate(212.011719 0)"/>
      <use xlink:href="#DejaVuSans-34" transform="translate(272.314453 0)"/>
      <use xlink:href="#DejaVuSans-30" transform="translate(335.9375 0)"/>
      <use xlink:href="#DejaVuSans-78" transform="translate(399.560547 0)"/>
      <use xlink:href="#DejaVuSans-38" transform="translate(458.740234 0)"/>
     </g>
    </g>
    <g id="line2d_70">
     <path d="M 427.418076 179.945418 
L 437.418076 179.945418 
L 447.418076 179.945418 
" style="fill: none; stroke: #00ffff; stroke-width: 1.5; stroke-linecap: square"/>
    </g>
    <g id="text_39">
     <!-- SCOP40c -->
     <g transform="translate(455.418076 183.445418) scale(0.1 -0.1)">
      <use xlink:href="#DejaVuSans-53"/>
      <use xlink:href="#DejaVuSans-43" transform="translate(63.476562 0)"/>
      <use xlink:href="#DejaVuSans-4f" transform="translate(133.300781 0)"/>
      <use xlink:href="#DejaVuSans-50" transform="translate(212.011719 0)"/>
      <use xlink:href="#DejaVuSans-34" transform="translate(272.314453 0)"/>
      <use xlink:href="#DejaVuSans-30" transform="translate(335.9375 0)"/>
      <use xlink:href="#DejaVuSans-63" transform="translate(399.560547 0)"/>
     </g>
    </g>
    <g id="line2d_71">
     <path d="M 427.418076 194.623543 
L 437.418076 194.623543 
L 447.418076 194.623543 
" style="fill: none; stroke: #ffa500; stroke-width: 1.5; stroke-linecap: square"/>
    </g>
    <g id="text_40">
     <!-- SCOP40/SF2 -->
     <g transform="translate(455.418076 198.123543) scale(0.1 -0.1)">
      <use xlink:href="#DejaVuSans-53"/>
      <use xlink:href="#DejaVuSans-43" transform="translate(63.476562 0)"/>
      <use xlink:href="#DejaVuSans-4f" transform="translate(133.300781 0)"/>
      <use xlink:href="#DejaVuSans-50" transform="translate(212.011719 0)"/>
      <use xlink:href="#DejaVuSans-34" transform="translate(272.314453 0)"/>
      <use xlink:href="#DejaVuSans-30" transform="translate(335.9375 0)"/>
      <use xlink:href="#DejaVuSans-2f" transform="translate(399.560547 0)"/>
      <use xlink:href="#DejaVuSans-53" transform="translate(433.251953 0)"/>
      <use xlink:href="#DejaVuSans-46" transform="translate(496.728516 0)"/>
      <use xlink:href="#DejaVuSans-32" transform="translate(554.248047 0)"/>
     </g>
    </g>
    <g id="line2d_72">
     <path d="M 427.418076 209.301668 
L 437.418076 209.301668 
L 447.418076 209.301668 
" style="fill: none; stroke-dasharray: 5.55,2.4; stroke-dashoffset: 0; stroke: #ffa500; stroke-width: 1.5"/>
    </g>
    <g id="text_41">
     <!-- SCOP40/SF4 -->
     <g transform="translate(455.418076 212.801668) scale(0.1 -0.1)">
      <use xlink:href="#DejaVuSans-53"/>
      <use xlink:href="#DejaVuSans-43" transform="translate(63.476562 0)"/>
      <use xlink:href="#DejaVuSans-4f" transform="translate(133.300781 0)"/>
      <use xlink:href="#DejaVuSans-50" transform="translate(212.011719 0)"/>
      <use xlink:href="#DejaVuSans-34" transform="translate(272.314453 0)"/>
      <use xlink:href="#DejaVuSans-30" transform="translate(335.9375 0)"/>
      <use xlink:href="#DejaVuSans-2f" transform="translate(399.560547 0)"/>
      <use xlink:href="#DejaVuSans-53" transform="translate(433.251953 0)"/>
      <use xlink:href="#DejaVuSans-46" transform="translate(496.728516 0)"/>
      <use xlink:href="#DejaVuSans-34" transform="translate(554.248047 0)"/>
     </g>
    </g>
    <g id="line2d_73">
     <path d="M 427.418076 223.979793 
L 437.418076 223.979793 
L 447.418076 223.979793 
" style="fill: none; stroke-dasharray: 1.5,2.475; stroke-dashoffset: 0; stroke: #ffa500; stroke-width: 1.5"/>
    </g>
    <g id="text_42">
     <!-- SCOP40/SF8 -->
     <g transform="translate(455.418076 227.479793) scale(0.1 -0.1)">
      <use xlink:href="#DejaVuSans-53"/>
      <use xlink:href="#DejaVuSans-43" transform="translate(63.476562 0)"/>
      <use xlink:href="#DejaVuSans-4f" transform="translate(133.300781 0)"/>
      <use xlink:href="#DejaVuSans-50" transform="translate(212.011719 0)"/>
      <use xlink:href="#DejaVuSans-34" transform="translate(272.314453 0)"/>
      <use xlink:href="#DejaVuSans-30" transform="translate(335.9375 0)"/>
      <use xlink:href="#DejaVuSans-2f" transform="translate(399.560547 0)"/>
      <use xlink:href="#DejaVuSans-53" transform="translate(433.251953 0)"/>
      <use xlink:href="#DejaVuSans-46" transform="translate(496.728516 0)"/>
      <use xlink:href="#DejaVuSans-38" transform="translate(554.248047 0)"/>
     </g>
    </g>
   </g>
  </g>
  <g id="text_43">
   <!-- ../plots/P_F_score.foldseekb.svg -->
   <g transform="translate(276.591653 14.728515) scale(0.12 -0.12)">
    <defs>
     <path id="DejaVuSans-70" d="M 1159 525 
L 1159 -1331 
L 581 -1331 
L 581 3500 
L 1159 3500 
L 1159 2969 
Q 1341 3281 1617 3432 
Q 1894 3584 2278 3584 
Q 2916 3584 3314 3078 
Q 3713 2572 3713 1747 
Q 3713 922 3314 415 
Q 2916 -91 2278 -91 
Q 1894 -91 1617 61 
Q 1341 213 1159 525 
z
M 3116 1747 
Q 3116 2381 2855 2742 
Q 2594 3103 2138 3103 
Q 1681 3103 1420 2742 
Q 1159 2381 1159 1747 
Q 1159 1113 1420 752 
Q 1681 391 2138 391 
Q 2594 391 2855 752 
Q 3116 1113 3116 1747 
z
" transform="scale(0.015625)"/>
     <path id="DejaVuSans-5f" d="M 3263 -1063 
L 3263 -1509 
L -63 -1509 
L -63 -1063 
L 3263 -1063 
z
" transform="scale(0.015625)"/>
     <path id="DejaVuSans-66" d="M 2375 4863 
L 2375 4384 
L 1825 4384 
Q 1516 4384 1395 4259 
Q 1275 4134 1275 3809 
L 1275 3500 
L 2222 3500 
L 2222 3053 
L 1275 3053 
L 1275 0 
L 697 0 
L 697 3053 
L 147 3053 
L 147 3500 
L 697 3500 
L 697 3744 
Q 697 4328 969 4595 
Q 1241 4863 1831 4863 
L 2375 4863 
z
" transform="scale(0.015625)"/>
     <path id="DejaVuSans-62" d="M 3116 1747 
Q 3116 2381 2855 2742 
Q 2594 3103 2138 3103 
Q 1681 3103 1420 2742 
Q 1159 2381 1159 1747 
Q 1159 1113 1420 752 
Q 1681 391 2138 391 
Q 2594 391 2855 752 
Q 3116 1113 3116 1747 
z
M 1159 2969 
Q 1341 3281 1617 3432 
Q 1894 3584 2278 3584 
Q 2916 3584 3314 3078 
Q 3713 2572 3713 1747 
Q 3713 922 3314 415 
Q 2916 -91 2278 -91 
Q 1894 -91 1617 61 
Q 1341 213 1159 525 
L 1159 0 
L 581 0 
L 581 4863 
L 1159 4863 
L 1159 2969 
z
" transform="scale(0.015625)"/>
     <path id="DejaVuSans-76" d="M 191 3500 
L 800 3500 
L 1894 563 
L 2988 3500 
L 3597 3500 
L 2284 0 
L 1503 0 
L 191 3500 
z
" transform="scale(0.015625)"/>
    </defs>
    <use xlink:href="#DejaVuSans-2e"/>
    <use xlink:href="#DejaVuSans-2e" transform="translate(31.787109 0)"/>
    <use xlink:href="#DejaVuSans-2f" transform="translate(63.574219 0)"/>
    <use xlink:href="#DejaVuSans-70" transform="translate(97.265625 0)"/>
    <use xlink:href="#DejaVuSans-6c" transform="translate(160.742188 0)"/>
    <use xlink:href="#DejaVuSans-6f" transform="translate(188.525391 0)"/>
    <use xlink:href="#DejaVuSans-74" transform="translate(249.707031 0)"/>
    <use xlink:href="#DejaVuSans-73" transform="translate(288.916016 0)"/>
    <use xlink:href="#DejaVuSans-2f" transform="translate(341.015625 0)"/>
    <use xlink:href="#DejaVuSans-50" transform="translate(374.707031 0)"/>
    <use xlink:href="#DejaVuSans-5f" transform="translate(435.009766 0)"/>
    <use xlink:href="#DejaVuSans-46" transform="translate(485.009766 0)"/>
    <use xlink:href="#DejaVuSans-5f" transform="translate(542.529297 0)"/>
    <use xlink:href="#DejaVuSans-73" transform="translate(592.529297 0)"/>
    <use xlink:href="#DejaVuSans-63" transform="translate(644.628906 0)"/>
    <use xlink:href="#DejaVuSans-6f" transform="translate(699.609375 0)"/>
    <use xlink:href="#DejaVuSans-72" transform="translate(760.791016 0)"/>
    <use xlink:href="#DejaVuSans-65" transform="translate(799.654297 0)"/>
    <use xlink:href="#DejaVuSans-2e" transform="translate(861.177734 0)"/>
    <use xlink:href="#DejaVuSans-66" transform="translate(892.964844 0)"/>
    <use xlink:href="#DejaVuSans-6f" transform="translate(928.169922 0)"/>
    <use xlink:href="#DejaVuSans-6c" transform="translate(989.351562 0)"/>
    <use xlink:href="#DejaVuSans-64" transform="translate(1017.134766 0)"/>
    <use xlink:href="#DejaVuSans-73" transform="translate(1080.611328 0)"/>
    <use xlink:href="#DejaVuSans-65" transform="translate(1132.710938 0)"/>
    <use xlink:href="#DejaVuSans-65" transform="translate(1194.234375 0)"/>
    <use xlink:href="#DejaVuSans-6b" transform="translate(1255.757812 0)"/>
    <use xlink:href="#DejaVuSans-62" transform="translate(1313.667969 0)"/>
    <use xlink:href="#DejaVuSans-2e" transform="translate(1377.144531 0)"/>
    <use xlink:href="#DejaVuSans-73" transform="translate(1408.931641 0)"/>
    <use xlink:href="#DejaVuSans-76" transform="translate(1461.03125 0)"/>
    <use xlink:href="#DejaVuSans-67" transform="translate(1520.210938 0)"/>
   </g>
  </g>
 </g>
 <defs>
  <clipPath id="p04c1d1233a">
   <rect x="48.17" y="47.90625" width="314.00773" height="190.653231"/>
  </clipPath>
  <clipPath id="p2296da01e6">
   <rect x="418.418076" y="47.90625" width="314.00773" height="190.653231"/>
  </clipPath>
 </defs>
</svg>
