<?xml version="1.0" encoding="utf-8" standalone="no"?>
<!DOCTYPE svg PUBLIC "-//W3C//DTD SVG 1.1//EN"
  "http://www.w3.org/Graphics/SVG/1.1/DTD/svg11.dtd">
<svg xmlns:xlink="http://www.w3.org/1999/xlink" width="743.225806pt" height="280.519481pt" viewBox="0 0 743.225806 280.519481" xmlns="http://www.w3.org/2000/svg" version="1.1">
 <metadata>
  <rdf:RDF xmlns:dc="http://purl.org/dc/elements/1.1/" xmlns:cc="http://creativecommons.org/ns#" xmlns:rdf="http://www.w3.org/1999/02/22-rdf-syntax-ns#">
   <cc:Work>
    <dc:type rdf:resource="http://purl.org/dc/dcmitype/StillImage"/>
    <dc:date>2025-05-30T08:16:36.088813</dc:date>
    <dc:format>image/svg+xml</dc:format>
    <dc:creator>
     <cc:Agent>
      <dc:title>Matplotlib v3.10.3, https://matplotlib.org/</dc:title>
     </cc:Agent>
    </dc:creator>
   </cc:Work>
  </rdf:RDF>
 </metadata>
 <defs>
  <style type="text/css">*{stroke-linejoin: round; stroke-linecap: butt}</style>
 </defs>
 <g id="figure_1">
  <g id="patch_1">
   <path d="M 0 280.519481 
L 743.225806 280.519481 
L 743.225806 0 
L 0 0 
z
" style="fill: #ffffff"/>
  </g>
  <g id="axes_1">
   <g id="patch_2">
    <path d="M 48.17 238.559481 
L 355.838355 238.559481 
L 355.838355 47.90625 
L 48.17 47.90625 
z
" style="fill: #ffffff"/>
   </g>
   <g id="matplotlib.axis_1">
    <g id="xtick_1">
     <g id="line2d_1">
      <defs>
       <path id="m853a054bb8" d="M 0 0 
L 0 3.5 
" style="stroke: #000000; stroke-width: 0.8"/>
      </defs>
      <g>
       <use xlink:href="#m853a054bb8" x="88.300655" y="238.559481" style="stroke: #000000; stroke-width: 0.8"/>
      </g>
     </g>
     <g id="text_1">
      <!-- 5 -->
      <g transform="translate(85.119405 253.157918) scale(0.1 -0.1)">
       <defs>
        <path id="DejaVuSans-35" d="M 691 4666 
L 3169 4666 
L 3169 4134 
L 1269 4134 
L 1269 2991 
Q 1406 3038 1543 3061 
Q 1681 3084 1819 3084 
Q 2600 3084 3056 2656 
Q 3513 2228 3513 1497 
Q 3513 744 3044 326 
Q 2575 -91 1722 -91 
Q 1428 -91 1123 -41 
Q 819 9 494 109 
L 494 744 
Q 775 591 1075 516 
Q 1375 441 1709 441 
Q 2250 441 2565 725 
Q 2881 1009 2881 1497 
Q 2881 1984 2565 2268 
Q 2250 2553 1709 2553 
Q 1456 2553 1204 2497 
Q 953 2441 691 2322 
L 691 4666 
z
" transform="scale(0.015625)"/>
       </defs>
       <use xlink:href="#DejaVuSans-35"/>
      </g>
     </g>
    </g>
    <g id="xtick_2">
     <g id="line2d_2">
      <g>
       <use xlink:href="#m853a054bb8" x="155.18508" y="238.559481" style="stroke: #000000; stroke-width: 0.8"/>
      </g>
     </g>
     <g id="text_2">
      <!-- 10 -->
      <g transform="translate(148.82258 253.157918) scale(0.1 -0.1)">
       <defs>
        <path id="DejaVuSans-31" d="M 794 531 
L 1825 531 
L 1825 4091 
L 703 3866 
L 703 4441 
L 1819 4666 
L 2450 4666 
L 2450 531 
L 3481 531 
L 3481 0 
L 794 0 
L 794 531 
z
" transform="scale(0.015625)"/>
        <path id="DejaVuSans-30" d="M 2034 4250 
Q 1547 4250 1301 3770 
Q 1056 3291 1056 2328 
Q 1056 1369 1301 889 
Q 1547 409 2034 409 
Q 2525 409 2770 889 
Q 3016 1369 3016 2328 
Q 3016 3291 2770 3770 
Q 2525 4250 2034 4250 
z
M 2034 4750 
Q 2819 4750 3233 4129 
Q 3647 3509 3647 2328 
Q 3647 1150 3233 529 
Q 2819 -91 2034 -91 
Q 1250 -91 836 529 
Q 422 1150 422 2328 
Q 422 3509 836 4129 
Q 1250 4750 2034 4750 
z
" transform="scale(0.015625)"/>
       </defs>
       <use xlink:href="#DejaVuSans-31"/>
       <use xlink:href="#DejaVuSans-30" transform="translate(63.623047 0)"/>
      </g>
     </g>
    </g>
    <g id="xtick_3">
     <g id="line2d_3">
      <g>
       <use xlink:href="#m853a054bb8" x="222.069505" y="238.559481" style="stroke: #000000; stroke-width: 0.8"/>
      </g>
     </g>
     <g id="text_3">
      <!-- 15 -->
      <g transform="translate(215.707005 253.157918) scale(0.1 -0.1)">
       <use xlink:href="#DejaVuSans-31"/>
       <use xlink:href="#DejaVuSans-35" transform="translate(63.623047 0)"/>
      </g>
     </g>
    </g>
    <g id="xtick_4">
     <g id="line2d_4">
      <g>
       <use xlink:href="#m853a054bb8" x="288.95393" y="238.559481" style="stroke: #000000; stroke-width: 0.8"/>
      </g>
     </g>
     <g id="text_4">
      <!-- 20 -->
      <g transform="translate(282.59143 253.157918) scale(0.1 -0.1)">
       <defs>
        <path id="DejaVuSans-32" d="M 1228 531 
L 3431 531 
L 3431 0 
L 469 0 
L 469 531 
Q 828 903 1448 1529 
Q 2069 2156 2228 2338 
Q 2531 2678 2651 2914 
Q 2772 3150 2772 3378 
Q 2772 3750 2511 3984 
Q 2250 4219 1831 4219 
Q 1534 4219 1204 4116 
Q 875 4013 500 3803 
L 500 4441 
Q 881 4594 1212 4672 
Q 1544 4750 1819 4750 
Q 2544 4750 2975 4387 
Q 3406 4025 3406 3419 
Q 3406 3131 3298 2873 
Q 3191 2616 2906 2266 
Q 2828 2175 2409 1742 
Q 1991 1309 1228 531 
z
" transform="scale(0.015625)"/>
       </defs>
       <use xlink:href="#DejaVuSans-32"/>
       <use xlink:href="#DejaVuSans-30" transform="translate(63.623047 0)"/>
      </g>
     </g>
    </g>
    <g id="xtick_5">
     <g id="line2d_5">
      <g>
       <use xlink:href="#m853a054bb8" x="355.838355" y="238.559481" style="stroke: #000000; stroke-width: 0.8"/>
      </g>
     </g>
     <g id="text_5">
      <!-- 25 -->
      <g transform="translate(349.475855 253.157918) scale(0.1 -0.1)">
       <use xlink:href="#DejaVuSans-32"/>
       <use xlink:href="#DejaVuSans-35" transform="translate(63.623047 0)"/>
      </g>
     </g>
    </g>
    <g id="text_6">
     <!-- Z score -->
     <g transform="translate(183.557303 266.836043) scale(0.1 -0.1)">
      <defs>
       <path id="DejaVuSans-5a" d="M 359 4666 
L 4025 4666 
L 4025 4184 
L 1075 531 
L 4097 531 
L 4097 0 
L 288 0 
L 288 481 
L 3238 4134 
L 359 4134 
L 359 4666 
z
" transform="scale(0.015625)"/>
       <path id="DejaVuSans-20" transform="scale(0.015625)"/>
       <path id="DejaVuSans-73" d="M 2834 3397 
L 2834 2853 
Q 2591 2978 2328 3040 
Q 2066 3103 1784 3103 
Q 1356 3103 1142 2972 
Q 928 2841 928 2578 
Q 928 2378 1081 2264 
Q 1234 2150 1697 2047 
L 1894 2003 
Q 2506 1872 2764 1633 
Q 3022 1394 3022 966 
Q 3022 478 2636 193 
Q 2250 -91 1575 -91 
Q 1294 -91 989 -36 
Q 684 19 347 128 
L 347 722 
Q 666 556 975 473 
Q 1284 391 1588 391 
Q 1994 391 2212 530 
Q 2431 669 2431 922 
Q 2431 1156 2273 1281 
Q 2116 1406 1581 1522 
L 1381 1569 
Q 847 1681 609 1914 
Q 372 2147 372 2553 
Q 372 3047 722 3315 
Q 1072 3584 1716 3584 
Q 2034 3584 2315 3537 
Q 2597 3491 2834 3397 
z
" transform="scale(0.015625)"/>
       <path id="DejaVuSans-63" d="M 3122 3366 
L 3122 2828 
Q 2878 2963 2633 3030 
Q 2388 3097 2138 3097 
Q 1578 3097 1268 2742 
Q 959 2388 959 1747 
Q 959 1106 1268 751 
Q 1578 397 2138 397 
Q 2388 397 2633 464 
Q 2878 531 3122 666 
L 3122 134 
Q 2881 22 2623 -34 
Q 2366 -91 2075 -91 
Q 1284 -91 818 406 
Q 353 903 353 1747 
Q 353 2603 823 3093 
Q 1294 3584 2113 3584 
Q 2378 3584 2631 3529 
Q 2884 3475 3122 3366 
z
" transform="scale(0.015625)"/>
       <path id="DejaVuSans-6f" d="M 1959 3097 
Q 1497 3097 1228 2736 
Q 959 2375 959 1747 
Q 959 1119 1226 758 
Q 1494 397 1959 397 
Q 2419 397 2687 759 
Q 2956 1122 2956 1747 
Q 2956 2369 2687 2733 
Q 2419 3097 1959 3097 
z
M 1959 3584 
Q 2709 3584 3137 3096 
Q 3566 2609 3566 1747 
Q 3566 888 3137 398 
Q 2709 -91 1959 -91 
Q 1206 -91 779 398 
Q 353 888 353 1747 
Q 353 2609 779 3096 
Q 1206 3584 1959 3584 
z
" transform="scale(0.015625)"/>
       <path id="DejaVuSans-72" d="M 2631 2963 
Q 2534 3019 2420 3045 
Q 2306 3072 2169 3072 
Q 1681 3072 1420 2755 
Q 1159 2438 1159 1844 
L 1159 0 
L 581 0 
L 581 3500 
L 1159 3500 
L 1159 2956 
Q 1341 3275 1631 3429 
Q 1922 3584 2338 3584 
Q 2397 3584 2469 3576 
Q 2541 3569 2628 3553 
L 2631 2963 
z
" transform="scale(0.015625)"/>
       <path id="DejaVuSans-65" d="M 3597 1894 
L 3597 1613 
L 953 1613 
Q 991 1019 1311 708 
Q 1631 397 2203 397 
Q 2534 397 2845 478 
Q 3156 559 3463 722 
L 3463 178 
Q 3153 47 2828 -22 
Q 2503 -91 2169 -91 
Q 1331 -91 842 396 
Q 353 884 353 1716 
Q 353 2575 817 3079 
Q 1281 3584 2069 3584 
Q 2775 3584 3186 3129 
Q 3597 2675 3597 1894 
z
M 3022 2063 
Q 3016 2534 2758 2815 
Q 2500 3097 2075 3097 
Q 1594 3097 1305 2825 
Q 1016 2553 972 2059 
L 3022 2063 
z
" transform="scale(0.015625)"/>
      </defs>
      <use xlink:href="#DejaVuSans-5a"/>
      <use xlink:href="#DejaVuSans-20" transform="translate(68.505859 0)"/>
      <use xlink:href="#DejaVuSans-73" transform="translate(100.292969 0)"/>
      <use xlink:href="#DejaVuSans-63" transform="translate(152.392578 0)"/>
      <use xlink:href="#DejaVuSans-6f" transform="translate(207.373047 0)"/>
      <use xlink:href="#DejaVuSans-72" transform="translate(268.554688 0)"/>
      <use xlink:href="#DejaVuSans-65" transform="translate(307.417969 0)"/>
     </g>
    </g>
   </g>
   <g id="matplotlib.axis_2">
    <g id="ytick_1">
     <g id="line2d_6">
      <defs>
       <path id="m0614d3e260" d="M 0 0 
L -3.5 0 
" style="stroke: #000000; stroke-width: 0.8"/>
      </defs>
      <g>
       <use xlink:href="#m0614d3e260" x="48.17" y="229.893425" style="stroke: #000000; stroke-width: 0.8"/>
      </g>
     </g>
     <g id="text_7">
      <!-- 0.0 -->
      <g transform="translate(25.266875 233.692643) scale(0.1 -0.1)">
       <defs>
        <path id="DejaVuSans-2e" d="M 684 794 
L 1344 794 
L 1344 0 
L 684 0 
L 684 794 
z
" transform="scale(0.015625)"/>
       </defs>
       <use xlink:href="#DejaVuSans-30"/>
       <use xlink:href="#DejaVuSans-2e" transform="translate(63.623047 0)"/>
       <use xlink:href="#DejaVuSans-30" transform="translate(95.410156 0)"/>
      </g>
     </g>
    </g>
    <g id="ytick_2">
     <g id="line2d_7">
      <g>
       <use xlink:href="#m0614d3e260" x="48.17" y="194.879058" style="stroke: #000000; stroke-width: 0.8"/>
      </g>
     </g>
     <g id="text_8">
      <!-- 0.2 -->
      <g transform="translate(25.266875 198.678276) scale(0.1 -0.1)">
       <use xlink:href="#DejaVuSans-30"/>
       <use xlink:href="#DejaVuSans-2e" transform="translate(63.623047 0)"/>
       <use xlink:href="#DejaVuSans-32" transform="translate(95.410156 0)"/>
      </g>
     </g>
    </g>
    <g id="ytick_3">
     <g id="line2d_8">
      <g>
       <use xlink:href="#m0614d3e260" x="48.17" y="159.86469" style="stroke: #000000; stroke-width: 0.8"/>
      </g>
     </g>
     <g id="text_9">
      <!-- 0.4 -->
      <g transform="translate(25.266875 163.663909) scale(0.1 -0.1)">
       <defs>
        <path id="DejaVuSans-34" d="M 2419 4116 
L 825 1625 
L 2419 1625 
L 2419 4116 
z
M 2253 4666 
L 3047 4666 
L 3047 1625 
L 3713 1625 
L 3713 1100 
L 3047 1100 
L 3047 0 
L 2419 0 
L 2419 1100 
L 313 1100 
L 313 1709 
L 2253 4666 
z
" transform="scale(0.015625)"/>
       </defs>
       <use xlink:href="#DejaVuSans-30"/>
       <use xlink:href="#DejaVuSans-2e" transform="translate(63.623047 0)"/>
       <use xlink:href="#DejaVuSans-34" transform="translate(95.410156 0)"/>
      </g>
     </g>
    </g>
    <g id="ytick_4">
     <g id="line2d_9">
      <g>
       <use xlink:href="#m0614d3e260" x="48.17" y="124.850323" style="stroke: #000000; stroke-width: 0.8"/>
      </g>
     </g>
     <g id="text_10">
      <!-- 0.6 -->
      <g transform="translate(25.266875 128.649542) scale(0.1 -0.1)">
       <defs>
        <path id="DejaVuSans-36" d="M 2113 2584 
Q 1688 2584 1439 2293 
Q 1191 2003 1191 1497 
Q 1191 994 1439 701 
Q 1688 409 2113 409 
Q 2538 409 2786 701 
Q 3034 994 3034 1497 
Q 3034 2003 2786 2293 
Q 2538 2584 2113 2584 
z
M 3366 4563 
L 3366 3988 
Q 3128 4100 2886 4159 
Q 2644 4219 2406 4219 
Q 1781 4219 1451 3797 
Q 1122 3375 1075 2522 
Q 1259 2794 1537 2939 
Q 1816 3084 2150 3084 
Q 2853 3084 3261 2657 
Q 3669 2231 3669 1497 
Q 3669 778 3244 343 
Q 2819 -91 2113 -91 
Q 1303 -91 875 529 
Q 447 1150 447 2328 
Q 447 3434 972 4092 
Q 1497 4750 2381 4750 
Q 2619 4750 2861 4703 
Q 3103 4656 3366 4563 
z
" transform="scale(0.015625)"/>
       </defs>
       <use xlink:href="#DejaVuSans-30"/>
       <use xlink:href="#DejaVuSans-2e" transform="translate(63.623047 0)"/>
       <use xlink:href="#DejaVuSans-36" transform="translate(95.410156 0)"/>
      </g>
     </g>
    </g>
    <g id="ytick_5">
     <g id="line2d_10">
      <g>
       <use xlink:href="#m0614d3e260" x="48.17" y="89.835956" style="stroke: #000000; stroke-width: 0.8"/>
      </g>
     </g>
     <g id="text_11">
      <!-- 0.8 -->
      <g transform="translate(25.266875 93.635175) scale(0.1 -0.1)">
       <defs>
        <path id="DejaVuSans-38" d="M 2034 2216 
Q 1584 2216 1326 1975 
Q 1069 1734 1069 1313 
Q 1069 891 1326 650 
Q 1584 409 2034 409 
Q 2484 409 2743 651 
Q 3003 894 3003 1313 
Q 3003 1734 2745 1975 
Q 2488 2216 2034 2216 
z
M 1403 2484 
Q 997 2584 770 2862 
Q 544 3141 544 3541 
Q 544 4100 942 4425 
Q 1341 4750 2034 4750 
Q 2731 4750 3128 4425 
Q 3525 4100 3525 3541 
Q 3525 3141 3298 2862 
Q 3072 2584 2669 2484 
Q 3125 2378 3379 2068 
Q 3634 1759 3634 1313 
Q 3634 634 3220 271 
Q 2806 -91 2034 -91 
Q 1263 -91 848 271 
Q 434 634 434 1313 
Q 434 1759 690 2068 
Q 947 2378 1403 2484 
z
M 1172 3481 
Q 1172 3119 1398 2916 
Q 1625 2713 2034 2713 
Q 2441 2713 2670 2916 
Q 2900 3119 2900 3481 
Q 2900 3844 2670 4047 
Q 2441 4250 2034 4250 
Q 1625 4250 1398 4047 
Q 1172 3844 1172 3481 
z
" transform="scale(0.015625)"/>
       </defs>
       <use xlink:href="#DejaVuSans-30"/>
       <use xlink:href="#DejaVuSans-2e" transform="translate(63.623047 0)"/>
       <use xlink:href="#DejaVuSans-38" transform="translate(95.410156 0)"/>
      </g>
     </g>
    </g>
    <g id="ytick_6">
     <g id="line2d_11">
      <g>
       <use xlink:href="#m0614d3e260" x="48.17" y="54.821589" style="stroke: #000000; stroke-width: 0.8"/>
      </g>
     </g>
     <g id="text_12">
      <!-- 1.0 -->
      <g transform="translate(25.266875 58.620808) scale(0.1 -0.1)">
       <use xlink:href="#DejaVuSans-31"/>
       <use xlink:href="#DejaVuSans-2e" transform="translate(63.623047 0)"/>
       <use xlink:href="#DejaVuSans-30" transform="translate(95.410156 0)"/>
      </g>
     </g>
    </g>
    <g id="text_13">
     <!-- P(F|score) -->
     <g transform="translate(18.909062 168.14224) rotate(-90) scale(0.1 -0.1)">
      <defs>
       <path id="DejaVuSans-50" d="M 1259 4147 
L 1259 2394 
L 2053 2394 
Q 2494 2394 2734 2622 
Q 2975 2850 2975 3272 
Q 2975 3691 2734 3919 
Q 2494 4147 2053 4147 
L 1259 4147 
z
M 628 4666 
L 2053 4666 
Q 2838 4666 3239 4311 
Q 3641 3956 3641 3272 
Q 3641 2581 3239 2228 
Q 2838 1875 2053 1875 
L 1259 1875 
L 1259 0 
L 628 0 
L 628 4666 
z
" transform="scale(0.015625)"/>
       <path id="DejaVuSans-28" d="M 1984 4856 
Q 1566 4138 1362 3434 
Q 1159 2731 1159 2009 
Q 1159 1288 1364 580 
Q 1569 -128 1984 -844 
L 1484 -844 
Q 1016 -109 783 600 
Q 550 1309 550 2009 
Q 550 2706 781 3412 
Q 1013 4119 1484 4856 
L 1984 4856 
z
" transform="scale(0.015625)"/>
       <path id="DejaVuSans-46" d="M 628 4666 
L 3309 4666 
L 3309 4134 
L 1259 4134 
L 1259 2759 
L 3109 2759 
L 3109 2228 
L 1259 2228 
L 1259 0 
L 628 0 
L 628 4666 
z
" transform="scale(0.015625)"/>
       <path id="DejaVuSans-7c" d="M 1344 4891 
L 1344 -1509 
L 813 -1509 
L 813 4891 
L 1344 4891 
z
" transform="scale(0.015625)"/>
       <path id="DejaVuSans-29" d="M 513 4856 
L 1013 4856 
Q 1481 4119 1714 3412 
Q 1947 2706 1947 2009 
Q 1947 1309 1714 600 
Q 1481 -109 1013 -844 
L 513 -844 
Q 928 -128 1133 580 
Q 1338 1288 1338 2009 
Q 1338 2731 1133 3434 
Q 928 4138 513 4856 
z
" transform="scale(0.015625)"/>
      </defs>
      <use xlink:href="#DejaVuSans-50"/>
      <use xlink:href="#DejaVuSans-28" transform="translate(60.302734 0)"/>
      <use xlink:href="#DejaVuSans-46" transform="translate(99.316406 0)"/>
      <use xlink:href="#DejaVuSans-7c" transform="translate(156.835938 0)"/>
      <use xlink:href="#DejaVuSans-73" transform="translate(190.527344 0)"/>
      <use xlink:href="#DejaVuSans-63" transform="translate(242.626953 0)"/>
      <use xlink:href="#DejaVuSans-6f" transform="translate(297.607422 0)"/>
      <use xlink:href="#DejaVuSans-72" transform="translate(358.789062 0)"/>
      <use xlink:href="#DejaVuSans-65" transform="translate(397.652344 0)"/>
      <use xlink:href="#DejaVuSans-29" transform="translate(459.175781 0)"/>
     </g>
    </g>
   </g>
   <g id="line2d_12">
    <path d="M 48.17 56.782396 
L 58.710985 58.900762 
L 69.251971 62.297155 
L 79.792956 68.144554 
L 90.333942 76.723079 
L 100.86155 89.153176 
L 111.402535 107.868351 
L 121.943521 128.316743 
L 132.484506 144.300803 
L 143.025492 150.008148 
L 153.566477 152.406628 
L 164.147593 155.120243 
L 174.581563 162.525785 
L 185.149302 173.397744 
L 195.717042 182.869132 
L 206.284781 190.729855 
L 216.85252 198.870695 
L 227.28649 207.694316 
L 237.854229 209.97025 
L 248.421969 215.803643 
L 258.989708 215.485013 
L 269.557447 218.715088 
L 279.991417 218.195124 
L 290.559156 220.507823 
L 301.126895 222.778505 
L 311.694635 223.54532 
L 322.128605 224.196587 
L 332.696344 225.947306 
L 343.264083 226.553054 
L 353.831822 224.401421 
L 364.399562 225.835259 
L 374.833532 226.645842 
L 385.401271 227.22533 
L 395.96901 227.582476 
L 406.536749 225.728466 
L 417.104488 228.268583 
L 427.538459 228.648839 
L 438.106198 229.893425 
L 448.673937 229.000208 
L 459.241676 228.795724 
L 469.809415 228.84667 
L 480.243386 229.316563 
L 490.811125 229.893425 
L 501.378864 229.893425 
L 511.946603 228.357694 
L 522.380573 229.893425 
L 532.948313 228.22604 
L 543.516052 227.757548 
L 554.083791 229.893425 
L 564.65153 229.893425 
L 575.0855 229.893425 
L 585.65324 229.893425 
L 596.220979 229.893425 
L 606.788718 229.893425 
L 617.356457 229.893425 
L 627.790427 229.893425 
L 638.358166 229.893425 
L 648.925906 229.893425 
L 659.493645 229.893425 
L 669.927615 229.893425 
L 680.495354 229.893425 
L 691.063093 229.893425 
L 701.630833 229.893425 
L 712.198572 229.893425 
L 722.632542 229.893425 
L 733.200281 229.893425 
L 743.76802 229.893425 
L 744.225806 229.893425 
" clip-path="url(#pafc4b6c234)" style="fill: none; stroke: #000000; stroke-width: 1.5; stroke-linecap: square"/>
   </g>
   <g id="line2d_13">
    <path d="M 48.17 56.747376 
L 58.710985 58.848242 
L 69.251971 62.349675 
L 79.792956 68.127044 
L 90.333942 77.055708 
L 100.86155 90.886382 
L 111.402535 109.969217 
L 121.943521 132.028266 
L 132.484506 147.609662 
L 143.025492 153.387031 
L 153.566477 155.838037 
L 164.147593 158.639187 
L 174.581563 166.517422 
L 185.149302 176.496514 
L 195.717042 186.47561 
L 206.284781 193.828626 
L 216.85252 201.006571 
L 227.28649 205.733512 
L 237.854229 206.258726 
L 248.421969 212.386241 
L 258.989708 210.110308 
L 269.557447 214.749711 
L 279.991417 213.471686 
L 290.559156 217.813468 
L 301.126895 218.601292 
L 311.694635 220.649632 
L 322.128605 223.468288 
L 332.696344 223.450781 
L 343.264083 225.499121 
L 353.831822 223.293216 
L 364.399562 225.639179 
L 374.833532 223.993504 
L 385.401271 224.133561 
L 395.96901 225.796744 
L 406.536749 225.254021 
L 417.104488 228.382555 
L 427.538459 228.953289 
L 438.106198 229.893425 
L 448.673937 229.051329 
L 459.241676 228.771214 
L 469.809415 227.740041 
L 480.243386 229.893425 
L 490.811125 229.893425 
L 501.378864 229.893425 
L 511.946603 229.893425 
L 522.380573 229.893425 
L 532.948313 229.893425 
L 543.516052 226.532045 
L 554.083791 229.893425 
L 564.65153 229.893425 
L 575.0855 229.893425 
L 585.65324 229.893425 
L 596.220979 229.893425 
L 606.788718 229.893425 
L 617.356457 229.893425 
L 627.790427 229.893425 
L 638.358166 229.893425 
L 648.925906 229.893425 
L 659.493645 229.893425 
L 669.927615 229.893425 
L 680.495354 229.893425 
L 691.063093 229.893425 
L 701.630833 229.893425 
L 712.198572 229.893425 
L 722.632542 229.893425 
L 733.200281 229.893425 
L 743.76802 229.893425 
L 744.225806 229.893425 
" clip-path="url(#pafc4b6c234)" style="fill: none; stroke: #a9a9a9; stroke-width: 1.5; stroke-linecap: square"/>
   </g>
   <g id="line2d_14">
    <path d="M 48.17 56.747376 
L 58.710985 58.848242 
L 69.251971 62.524755 
L 79.792956 68.302124 
L 90.333942 78.106146 
L 100.86155 90.711313 
L 111.402535 109.969217 
L 121.943521 130.627699 
L 132.484506 148.835165 
L 143.025492 155.312823 
L 153.566477 161.090192 
L 164.147593 161.790481 
L 174.581563 167.217706 
L 185.149302 176.321444 
L 195.717042 184.024605 
L 206.284781 187.701113 
L 216.85252 197.855279 
L 227.28649 207.484229 
L 237.854229 209.41002 
L 248.421969 214.399567 
L 258.989708 212.876442 
L 269.557447 219.021463 
L 279.991417 213.69928 
L 290.559156 218.776363 
L 301.126895 220.877225 
L 311.694635 222.820523 
L 322.128605 216.763036 
L 332.696344 223.100637 
L 343.264083 227.37239 
L 353.831822 221.910149 
L 364.399562 225.254021 
L 374.833532 225.499121 
L 385.401271 221.454962 
L 395.96901 225.078949 
L 406.536749 227.162304 
L 417.104488 228.741452 
L 427.538459 226.514538 
L 438.106198 229.893425 
L 448.673937 229.893425 
L 459.241676 229.893425 
L 469.809415 229.893425 
L 480.243386 229.893425 
L 490.811125 229.893425 
L 501.378864 229.893425 
L 511.946603 229.893425 
L 522.380573 229.893425 
L 532.948313 229.893425 
L 543.516052 229.893425 
L 554.083791 229.893425 
L 564.65153 229.893425 
L 575.0855 229.893425 
L 585.65324 229.893425 
L 596.220979 229.893425 
L 606.788718 229.893425 
L 617.356457 229.893425 
L 627.790427 229.893425 
L 638.358166 229.893425 
L 648.925906 229.893425 
L 659.493645 229.893425 
L 669.927615 229.893425 
L 680.495354 229.893425 
L 691.063093 229.893425 
L 701.630833 229.893425 
L 712.198572 229.893425 
L 722.632542 229.893425 
L 733.200281 229.893425 
L 743.76802 229.893425 
L 744.225806 229.893425 
" clip-path="url(#pafc4b6c234)" style="fill: none; stroke-dasharray: 5.55,2.4; stroke-dashoffset: 0; stroke: #a9a9a9; stroke-width: 1.5"/>
   </g>
   <g id="line2d_15">
    <path d="M 48.17 56.572306 
L 58.710985 58.673172 
L 69.251971 61.474317 
L 79.792956 67.601836 
L 90.333942 75.304991 
L 100.86155 89.485815 
L 111.402535 108.043431 
L 121.943521 127.651474 
L 132.484506 137.980715 
L 143.025492 140.081571 
L 153.566477 140.78186 
L 164.147593 146.909373 
L 174.581563 153.387031 
L 185.149302 169.668711 
L 195.717042 178.597375 
L 206.284781 193.653554 
L 216.85252 198.90571 
L 227.28649 207.659301 
L 237.854229 201.881932 
L 248.421969 212.806414 
L 258.989708 214.609653 
L 269.557447 218.741349 
L 279.991417 217.288253 
L 290.559156 220.737168 
L 301.126895 217.74344 
L 311.694635 221.419948 
L 322.128605 222.540408 
L 332.696344 225.796744 
L 343.264083 218.986449 
L 353.831822 222.2778 
L 364.399562 225.2015 
L 374.833532 226.25193 
L 385.401271 219.861808 
L 395.96901 224.256111 
L 406.536749 221.945163 
L 417.104488 229.893425 
L 427.538459 226.25193 
L 438.106198 229.893425 
L 448.673937 229.893425 
L 459.241676 229.893425 
L 469.809415 229.893425 
L 480.243386 224.431183 
L 490.811125 229.893425 
L 501.378864 229.893425 
L 511.946603 229.893425 
L 522.380573 229.893425 
L 532.948313 229.893425 
L 543.516052 208.009445 
L 554.083791 229.893425 
L 564.65153 229.893425 
L 575.0855 229.893425 
L 585.65324 229.893425 
L 596.220979 229.893425 
L 606.788718 229.893425 
L 617.356457 229.893425 
L 627.790427 229.893425 
L 638.358166 229.893425 
L 648.925906 229.893425 
L 659.493645 229.893425 
L 669.927615 229.893425 
L 680.495354 229.893425 
L 691.063093 229.893425 
L 701.630833 229.893425 
L 712.198572 229.893425 
L 722.632542 229.893425 
L 733.200281 229.893425 
L 743.76802 229.893425 
L 744.225806 229.893425 
" clip-path="url(#pafc4b6c234)" style="fill: none; stroke-dasharray: 1.5,2.475; stroke-dashoffset: 0; stroke: #808080; stroke-width: 1.5"/>
   </g>
   <g id="patch_3">
    <path d="M 48.17 238.559481 
L 48.17 47.90625 
" style="fill: none; stroke: #000000; stroke-width: 0.8; stroke-linejoin: miter; stroke-linecap: square"/>
   </g>
   <g id="patch_4">
    <path d="M 355.838355 238.559481 
L 355.838355 47.90625 
" style="fill: none; stroke: #000000; stroke-width: 0.8; stroke-linejoin: miter; stroke-linecap: square"/>
   </g>
   <g id="patch_5">
    <path d="M 48.17 238.559481 
L 355.838355 238.559481 
" style="fill: none; stroke: #000000; stroke-width: 0.8; stroke-linejoin: miter; stroke-linecap: square"/>
   </g>
   <g id="patch_6">
    <path d="M 48.17 47.90625 
L 355.838355 47.90625 
" style="fill: none; stroke: #000000; stroke-width: 0.8; stroke-linejoin: miter; stroke-linecap: square"/>
   </g>
   <g id="text_14">
    <!-- DALI -->
    <g transform="translate(188.271678 41.90625) scale(0.12 -0.12)">
     <defs>
      <path id="DejaVuSans-44" d="M 1259 4147 
L 1259 519 
L 2022 519 
Q 2988 519 3436 956 
Q 3884 1394 3884 2338 
Q 3884 3275 3436 3711 
Q 2988 4147 2022 4147 
L 1259 4147 
z
M 628 4666 
L 1925 4666 
Q 3281 4666 3915 4102 
Q 4550 3538 4550 2338 
Q 4550 1131 3912 565 
Q 3275 0 1925 0 
L 628 0 
L 628 4666 
z
" transform="scale(0.015625)"/>
      <path id="DejaVuSans-41" d="M 2188 4044 
L 1331 1722 
L 3047 1722 
L 2188 4044 
z
M 1831 4666 
L 2547 4666 
L 4325 0 
L 3669 0 
L 3244 1197 
L 1141 1197 
L 716 0 
L 50 0 
L 1831 4666 
z
" transform="scale(0.015625)"/>
      <path id="DejaVuSans-4c" d="M 628 4666 
L 1259 4666 
L 1259 531 
L 3531 531 
L 3531 0 
L 628 0 
L 628 4666 
z
" transform="scale(0.015625)"/>
      <path id="DejaVuSans-49" d="M 628 4666 
L 1259 4666 
L 1259 0 
L 628 0 
L 628 4666 
z
" transform="scale(0.015625)"/>
     </defs>
     <use xlink:href="#DejaVuSans-44"/>
     <use xlink:href="#DejaVuSans-41" transform="translate(75.251953 0)"/>
     <use xlink:href="#DejaVuSans-4c" transform="translate(143.660156 0)"/>
     <use xlink:href="#DejaVuSans-49" transform="translate(199.373047 0)"/>
    </g>
   </g>
   <g id="legend_1">
    <g id="patch_7">
     <path d="M 267.149293 114.61875 
L 348.838355 114.61875 
Q 350.838355 114.61875 350.838355 112.61875 
L 350.838355 54.90625 
Q 350.838355 52.90625 348.838355 52.90625 
L 267.149293 52.90625 
Q 265.149293 52.90625 265.149293 54.90625 
L 265.149293 112.61875 
Q 265.149293 114.61875 267.149293 114.61875 
z
" style="fill: #ffffff; opacity: 0.8; stroke: #cccccc; stroke-linejoin: miter"/>
    </g>
    <g id="line2d_16">
     <path d="M 269.149293 61.004687 
L 279.149293 61.004687 
L 289.149293 61.004687 
" style="fill: none; stroke: #000000; stroke-width: 1.5; stroke-linecap: square"/>
    </g>
    <g id="text_15">
     <!-- SCOP40 -->
     <g transform="translate(297.149293 64.504687) scale(0.1 -0.1)">
      <defs>
       <path id="DejaVuSans-53" d="M 3425 4513 
L 3425 3897 
Q 3066 4069 2747 4153 
Q 2428 4238 2131 4238 
Q 1616 4238 1336 4038 
Q 1056 3838 1056 3469 
Q 1056 3159 1242 3001 
Q 1428 2844 1947 2747 
L 2328 2669 
Q 3034 2534 3370 2195 
Q 3706 1856 3706 1288 
Q 3706 609 3251 259 
Q 2797 -91 1919 -91 
Q 1588 -91 1214 -16 
Q 841 59 441 206 
L 441 856 
Q 825 641 1194 531 
Q 1563 422 1919 422 
Q 2459 422 2753 634 
Q 3047 847 3047 1241 
Q 3047 1584 2836 1778 
Q 2625 1972 2144 2069 
L 1759 2144 
Q 1053 2284 737 2584 
Q 422 2884 422 3419 
Q 422 4038 858 4394 
Q 1294 4750 2059 4750 
Q 2388 4750 2728 4690 
Q 3069 4631 3425 4513 
z
" transform="scale(0.015625)"/>
       <path id="DejaVuSans-43" d="M 4122 4306 
L 4122 3641 
Q 3803 3938 3442 4084 
Q 3081 4231 2675 4231 
Q 1875 4231 1450 3742 
Q 1025 3253 1025 2328 
Q 1025 1406 1450 917 
Q 1875 428 2675 428 
Q 3081 428 3442 575 
Q 3803 722 4122 1019 
L 4122 359 
Q 3791 134 3420 21 
Q 3050 -91 2638 -91 
Q 1578 -91 968 557 
Q 359 1206 359 2328 
Q 359 3453 968 4101 
Q 1578 4750 2638 4750 
Q 3056 4750 3426 4639 
Q 3797 4528 4122 4306 
z
" transform="scale(0.015625)"/>
       <path id="DejaVuSans-4f" d="M 2522 4238 
Q 1834 4238 1429 3725 
Q 1025 3213 1025 2328 
Q 1025 1447 1429 934 
Q 1834 422 2522 422 
Q 3209 422 3611 934 
Q 4013 1447 4013 2328 
Q 4013 3213 3611 3725 
Q 3209 4238 2522 4238 
z
M 2522 4750 
Q 3503 4750 4090 4092 
Q 4678 3434 4678 2328 
Q 4678 1225 4090 567 
Q 3503 -91 2522 -91 
Q 1538 -91 948 565 
Q 359 1222 359 2328 
Q 359 3434 948 4092 
Q 1538 4750 2522 4750 
z
" transform="scale(0.015625)"/>
      </defs>
      <use xlink:href="#DejaVuSans-53"/>
      <use xlink:href="#DejaVuSans-43" transform="translate(63.476562 0)"/>
      <use xlink:href="#DejaVuSans-4f" transform="translate(133.300781 0)"/>
      <use xlink:href="#DejaVuSans-50" transform="translate(212.011719 0)"/>
      <use xlink:href="#DejaVuSans-34" transform="translate(272.314453 0)"/>
      <use xlink:href="#DejaVuSans-30" transform="translate(335.9375 0)"/>
     </g>
    </g>
    <g id="line2d_17">
     <path d="M 269.149293 75.682812 
L 279.149293 75.682812 
L 289.149293 75.682812 
" style="fill: none; stroke: #a9a9a9; stroke-width: 1.5; stroke-linecap: square"/>
    </g>
    <g id="text_16">
     <!-- SCOP40/2 -->
     <g transform="translate(297.149293 79.182812) scale(0.1 -0.1)">
      <defs>
       <path id="DejaVuSans-2f" d="M 1625 4666 
L 2156 4666 
L 531 -594 
L 0 -594 
L 1625 4666 
z
" transform="scale(0.015625)"/>
      </defs>
      <use xlink:href="#DejaVuSans-53"/>
      <use xlink:href="#DejaVuSans-43" transform="translate(63.476562 0)"/>
      <use xlink:href="#DejaVuSans-4f" transform="translate(133.300781 0)"/>
      <use xlink:href="#DejaVuSans-50" transform="translate(212.011719 0)"/>
      <use xlink:href="#DejaVuSans-34" transform="translate(272.314453 0)"/>
      <use xlink:href="#DejaVuSans-30" transform="translate(335.9375 0)"/>
      <use xlink:href="#DejaVuSans-2f" transform="translate(399.560547 0)"/>
      <use xlink:href="#DejaVuSans-32" transform="translate(433.251953 0)"/>
     </g>
    </g>
    <g id="line2d_18">
     <path d="M 269.149293 90.360937 
L 279.149293 90.360937 
L 289.149293 90.360937 
" style="fill: none; stroke-dasharray: 5.55,2.4; stroke-dashoffset: 0; stroke: #a9a9a9; stroke-width: 1.5"/>
    </g>
    <g id="text_17">
     <!-- SCOP40/4 -->
     <g transform="translate(297.149293 93.860937) scale(0.1 -0.1)">
      <use xlink:href="#DejaVuSans-53"/>
      <use xlink:href="#DejaVuSans-43" transform="translate(63.476562 0)"/>
      <use xlink:href="#DejaVuSans-4f" transform="translate(133.300781 0)"/>
      <use xlink:href="#DejaVuSans-50" transform="translate(212.011719 0)"/>
      <use xlink:href="#DejaVuSans-34" transform="translate(272.314453 0)"/>
      <use xlink:href="#DejaVuSans-30" transform="translate(335.9375 0)"/>
      <use xlink:href="#DejaVuSans-2f" transform="translate(399.560547 0)"/>
      <use xlink:href="#DejaVuSans-34" transform="translate(433.251953 0)"/>
     </g>
    </g>
    <g id="line2d_19">
     <path d="M 269.149293 105.039062 
L 279.149293 105.039062 
L 289.149293 105.039062 
" style="fill: none; stroke-dasharray: 1.5,2.475; stroke-dashoffset: 0; stroke: #808080; stroke-width: 1.5"/>
    </g>
    <g id="text_18">
     <!-- SCOP40/8 -->
     <g transform="translate(297.149293 108.539062) scale(0.1 -0.1)">
      <use xlink:href="#DejaVuSans-53"/>
      <use xlink:href="#DejaVuSans-43" transform="translate(63.476562 0)"/>
      <use xlink:href="#DejaVuSans-4f" transform="translate(133.300781 0)"/>
      <use xlink:href="#DejaVuSans-50" transform="translate(212.011719 0)"/>
      <use xlink:href="#DejaVuSans-34" transform="translate(272.314453 0)"/>
      <use xlink:href="#DejaVuSans-30" transform="translate(335.9375 0)"/>
      <use xlink:href="#DejaVuSans-2f" transform="translate(399.560547 0)"/>
      <use xlink:href="#DejaVuSans-38" transform="translate(433.251953 0)"/>
     </g>
    </g>
   </g>
  </g>
  <g id="axes_2">
   <g id="patch_8">
    <path d="M 418.367451 238.559481 
L 726.035806 238.559481 
L 726.035806 47.90625 
L 418.367451 47.90625 
z
" style="fill: #ffffff"/>
   </g>
   <g id="matplotlib.axis_3">
    <g id="xtick_6">
     <g id="line2d_20">
      <g>
       <use xlink:href="#m853a054bb8" x="458.498106" y="238.559481" style="stroke: #000000; stroke-width: 0.8"/>
      </g>
     </g>
     <g id="text_19">
      <!-- 5 -->
      <g transform="translate(455.316856 253.157918) scale(0.1 -0.1)">
       <use xlink:href="#DejaVuSans-35"/>
      </g>
     </g>
    </g>
    <g id="xtick_7">
     <g id="line2d_21">
      <g>
       <use xlink:href="#m853a054bb8" x="525.382531" y="238.559481" style="stroke: #000000; stroke-width: 0.8"/>
      </g>
     </g>
     <g id="text_20">
      <!-- 10 -->
      <g transform="translate(519.020031 253.157918) scale(0.1 -0.1)">
       <use xlink:href="#DejaVuSans-31"/>
       <use xlink:href="#DejaVuSans-30" transform="translate(63.623047 0)"/>
      </g>
     </g>
    </g>
    <g id="xtick_8">
     <g id="line2d_22">
      <g>
       <use xlink:href="#m853a054bb8" x="592.266956" y="238.559481" style="stroke: #000000; stroke-width: 0.8"/>
      </g>
     </g>
     <g id="text_21">
      <!-- 15 -->
      <g transform="translate(585.904456 253.157918) scale(0.1 -0.1)">
       <use xlink:href="#DejaVuSans-31"/>
       <use xlink:href="#DejaVuSans-35" transform="translate(63.623047 0)"/>
      </g>
     </g>
    </g>
    <g id="xtick_9">
     <g id="line2d_23">
      <g>
       <use xlink:href="#m853a054bb8" x="659.151381" y="238.559481" style="stroke: #000000; stroke-width: 0.8"/>
      </g>
     </g>
     <g id="text_22">
      <!-- 20 -->
      <g transform="translate(652.788881 253.157918) scale(0.1 -0.1)">
       <use xlink:href="#DejaVuSans-32"/>
       <use xlink:href="#DejaVuSans-30" transform="translate(63.623047 0)"/>
      </g>
     </g>
    </g>
    <g id="xtick_10">
     <g id="line2d_24">
      <g>
       <use xlink:href="#m853a054bb8" x="726.035806" y="238.559481" style="stroke: #000000; stroke-width: 0.8"/>
      </g>
     </g>
     <g id="text_23">
      <!-- 25 -->
      <g transform="translate(719.673306 253.157918) scale(0.1 -0.1)">
       <use xlink:href="#DejaVuSans-32"/>
       <use xlink:href="#DejaVuSans-35" transform="translate(63.623047 0)"/>
      </g>
     </g>
    </g>
    <g id="text_24">
     <!-- Z score -->
     <g transform="translate(553.754754 266.836043) scale(0.1 -0.1)">
      <use xlink:href="#DejaVuSans-5a"/>
      <use xlink:href="#DejaVuSans-20" transform="translate(68.505859 0)"/>
      <use xlink:href="#DejaVuSans-73" transform="translate(100.292969 0)"/>
      <use xlink:href="#DejaVuSans-63" transform="translate(152.392578 0)"/>
      <use xlink:href="#DejaVuSans-6f" transform="translate(207.373047 0)"/>
      <use xlink:href="#DejaVuSans-72" transform="translate(268.554688 0)"/>
      <use xlink:href="#DejaVuSans-65" transform="translate(307.417969 0)"/>
     </g>
    </g>
   </g>
   <g id="matplotlib.axis_4">
    <g id="ytick_7">
     <g id="line2d_25">
      <g>
       <use xlink:href="#m0614d3e260" x="418.367451" y="238.559481" style="stroke: #000000; stroke-width: 0.8"/>
      </g>
     </g>
     <g id="text_25">
      <!-- $\mathdefault{10^{-2}}$ -->
      <g transform="translate(387.867451 242.358699) scale(0.1 -0.1)">
       <defs>
        <path id="DejaVuSans-2212" d="M 678 2272 
L 4684 2272 
L 4684 1741 
L 678 1741 
L 678 2272 
z
" transform="scale(0.015625)"/>
       </defs>
       <use xlink:href="#DejaVuSans-31" transform="translate(0 0.765625)"/>
       <use xlink:href="#DejaVuSans-30" transform="translate(63.623047 0.765625)"/>
       <use xlink:href="#DejaVuSans-2212" transform="translate(128.203125 39.046875) scale(0.7)"/>
       <use xlink:href="#DejaVuSans-32" transform="translate(186.855469 39.046875) scale(0.7)"/>
      </g>
     </g>
    </g>
    <g id="ytick_8">
     <g id="line2d_26">
      <g>
       <use xlink:href="#m0614d3e260" x="418.367451" y="155.703876" style="stroke: #000000; stroke-width: 0.8"/>
      </g>
     </g>
     <g id="text_26">
      <!-- $\mathdefault{10^{-1}}$ -->
      <g transform="translate(387.867451 159.503095) scale(0.1 -0.1)">
       <use xlink:href="#DejaVuSans-31" transform="translate(0 0.684375)"/>
       <use xlink:href="#DejaVuSans-30" transform="translate(63.623047 0.684375)"/>
       <use xlink:href="#DejaVuSans-2212" transform="translate(128.203125 38.965625) scale(0.7)"/>
       <use xlink:href="#DejaVuSans-31" transform="translate(186.855469 38.965625) scale(0.7)"/>
      </g>
     </g>
    </g>
    <g id="ytick_9">
     <g id="line2d_27">
      <g>
       <use xlink:href="#m0614d3e260" x="418.367451" y="72.848272" style="stroke: #000000; stroke-width: 0.8"/>
      </g>
     </g>
     <g id="text_27">
      <!-- $\mathdefault{10^{0}}$ -->
      <g transform="translate(393.767451 76.647491) scale(0.1 -0.1)">
       <use xlink:href="#DejaVuSans-31" transform="translate(0 0.765625)"/>
       <use xlink:href="#DejaVuSans-30" transform="translate(63.623047 0.765625)"/>
       <use xlink:href="#DejaVuSans-30" transform="translate(128.203125 39.046875) scale(0.7)"/>
      </g>
     </g>
    </g>
    <g id="ytick_10">
     <g id="line2d_28">
      <defs>
       <path id="m0c2c72f1f6" d="M 0 0 
L -2 0 
" style="stroke: #000000; stroke-width: 0.6"/>
      </defs>
      <g>
       <use xlink:href="#m0c2c72f1f6" x="418.367451" y="213.617458" style="stroke: #000000; stroke-width: 0.6"/>
      </g>
     </g>
    </g>
    <g id="ytick_11">
     <g id="line2d_29">
      <g>
       <use xlink:href="#m0c2c72f1f6" x="418.367451" y="199.027311" style="stroke: #000000; stroke-width: 0.6"/>
      </g>
     </g>
    </g>
    <g id="ytick_12">
     <g id="line2d_30">
      <g>
       <use xlink:href="#m0c2c72f1f6" x="418.367451" y="188.675436" style="stroke: #000000; stroke-width: 0.6"/>
      </g>
     </g>
    </g>
    <g id="ytick_13">
     <g id="line2d_31">
      <g>
       <use xlink:href="#m0c2c72f1f6" x="418.367451" y="180.645899" style="stroke: #000000; stroke-width: 0.6"/>
      </g>
     </g>
    </g>
    <g id="ytick_14">
     <g id="line2d_32">
      <g>
       <use xlink:href="#m0c2c72f1f6" x="418.367451" y="174.085289" style="stroke: #000000; stroke-width: 0.6"/>
      </g>
     </g>
    </g>
    <g id="ytick_15">
     <g id="line2d_33">
      <g>
       <use xlink:href="#m0c2c72f1f6" x="418.367451" y="168.538372" style="stroke: #000000; stroke-width: 0.6"/>
      </g>
     </g>
    </g>
    <g id="ytick_16">
     <g id="line2d_34">
      <g>
       <use xlink:href="#m0c2c72f1f6" x="418.367451" y="163.733414" style="stroke: #000000; stroke-width: 0.6"/>
      </g>
     </g>
    </g>
    <g id="ytick_17">
     <g id="line2d_35">
      <g>
       <use xlink:href="#m0c2c72f1f6" x="418.367451" y="159.495141" style="stroke: #000000; stroke-width: 0.6"/>
      </g>
     </g>
    </g>
    <g id="ytick_18">
     <g id="line2d_36">
      <g>
       <use xlink:href="#m0c2c72f1f6" x="418.367451" y="130.761854" style="stroke: #000000; stroke-width: 0.6"/>
      </g>
     </g>
    </g>
    <g id="ytick_19">
     <g id="line2d_37">
      <g>
       <use xlink:href="#m0c2c72f1f6" x="418.367451" y="116.171707" style="stroke: #000000; stroke-width: 0.6"/>
      </g>
     </g>
    </g>
    <g id="ytick_20">
     <g id="line2d_38">
      <g>
       <use xlink:href="#m0c2c72f1f6" x="418.367451" y="105.819832" style="stroke: #000000; stroke-width: 0.6"/>
      </g>
     </g>
    </g>
    <g id="ytick_21">
     <g id="line2d_39">
      <g>
       <use xlink:href="#m0c2c72f1f6" x="418.367451" y="97.790294" style="stroke: #000000; stroke-width: 0.6"/>
      </g>
     </g>
    </g>
    <g id="ytick_22">
     <g id="line2d_40">
      <g>
       <use xlink:href="#m0c2c72f1f6" x="418.367451" y="91.229684" style="stroke: #000000; stroke-width: 0.6"/>
      </g>
     </g>
    </g>
    <g id="ytick_23">
     <g id="line2d_41">
      <g>
       <use xlink:href="#m0c2c72f1f6" x="418.367451" y="85.682768" style="stroke: #000000; stroke-width: 0.6"/>
      </g>
     </g>
    </g>
    <g id="ytick_24">
     <g id="line2d_42">
      <g>
       <use xlink:href="#m0c2c72f1f6" x="418.367451" y="80.87781" style="stroke: #000000; stroke-width: 0.6"/>
      </g>
     </g>
    </g>
    <g id="ytick_25">
     <g id="line2d_43">
      <g>
       <use xlink:href="#m0c2c72f1f6" x="418.367451" y="76.639537" style="stroke: #000000; stroke-width: 0.6"/>
      </g>
     </g>
    </g>
    <g id="ytick_26">
     <g id="line2d_44">
      <g>
       <use xlink:href="#m0c2c72f1f6" x="418.367451" y="47.90625" style="stroke: #000000; stroke-width: 0.6"/>
      </g>
     </g>
    </g>
    <g id="text_28">
     <!-- P(F|score) -->
     <g transform="translate(381.509639 168.14224) rotate(-90) scale(0.1 -0.1)">
      <use xlink:href="#DejaVuSans-50"/>
      <use xlink:href="#DejaVuSans-28" transform="translate(60.302734 0)"/>
      <use xlink:href="#DejaVuSans-46" transform="translate(99.316406 0)"/>
      <use xlink:href="#DejaVuSans-7c" transform="translate(156.835938 0)"/>
      <use xlink:href="#DejaVuSans-73" transform="translate(190.527344 0)"/>
      <use xlink:href="#DejaVuSans-63" transform="translate(242.626953 0)"/>
      <use xlink:href="#DejaVuSans-6f" transform="translate(297.607422 0)"/>
      <use xlink:href="#DejaVuSans-72" transform="translate(358.789062 0)"/>
      <use xlink:href="#DejaVuSans-65" transform="translate(397.652344 0)"/>
      <use xlink:href="#DejaVuSans-29" transform="translate(459.175781 0)"/>
     </g>
    </g>
   </g>
   <g id="line2d_45">
    <path d="M 418.367451 73.253564 
L 428.908437 73.696615 
L 439.449422 74.418546 
L 449.990407 75.696436 
L 460.531393 77.657343 
L 471.059001 80.702815 
L 481.599987 85.837314 
L 492.140972 92.437182 
L 502.681957 98.598133 
L 513.222943 101.081281 
L 523.763928 102.17821 
L 534.345044 103.460968 
L 544.779015 107.213873 
L 555.346754 113.547031 
L 565.914493 120.150041 
L 576.482232 126.73209 
L 587.049971 135.117264 
L 597.483942 147.159868 
L 608.051681 151.052176 
L 618.61942 163.518156 
L 629.187159 162.713474 
L 639.754898 171.847387 
L 650.188868 170.211355 
L 660.756608 178.137378 
L 671.324347 188.104254 
L 681.892086 192.207751 
L 692.326056 196.102814 
L 702.893795 209.315272 
L 713.461535 215.31199 
L 724.029274 197.420471 
L 734.597013 208.307786 
L 744.225806 215.706953 
" clip-path="url(#p87077746b5)" style="fill: none; stroke: #000000; stroke-width: 1.5; stroke-linecap: square"/>
   </g>
   <g id="line2d_46">
    <path d="M 418.367451 73.246286 
L 428.908437 73.685564 
L 439.449422 74.429824 
L 449.990407 75.692541 
L 460.531393 77.735572 
L 471.059001 81.148704 
L 481.599987 86.462229 
L 492.140972 93.776618 
L 502.681957 100.016802 
L 513.222943 102.636399 
L 523.763928 103.808066 
L 534.345044 105.195563 
L 544.779015 109.411741 
L 555.346754 115.57692 
L 565.914493 123.021345 
L 576.482232 129.698218 
L 587.049971 137.684111 
L 597.483942 144.114111 
L 608.051681 144.904992 
L 618.61942 155.703876 
L 629.187159 151.30603 
L 639.754898 160.922446 
L 650.188868 158.007027 
L 660.756608 169.056133 
L 671.324347 171.482923 
L 681.892086 178.68521 
L 692.326056 191.773733 
L 702.893795 191.675817 
L 713.461535 205.444273 
L 724.029274 190.806369 
L 734.597013 206.60984 
L 744.225806 195.750466 
" clip-path="url(#p87077746b5)" style="fill: none; stroke: #a9a9a9; stroke-width: 1.5; stroke-linecap: square"/>
   </g>
   <g id="line2d_47">
    <path d="M 418.367451 73.246286 
L 428.908437 73.685564 
L 439.449422 74.467446 
L 449.990407 75.731507 
L 460.531393 77.983738 
L 471.059001 81.103413 
L 481.599987 86.462229 
L 492.140972 93.265298 
L 502.681957 100.556761 
L 513.222943 103.553764 
L 523.763928 106.455122 
L 534.345044 106.823246 
L 544.779015 109.811562 
L 555.346754 115.459135 
L 565.914493 121.045271 
L 576.482232 124.051624 
L 587.049971 133.958333 
L 597.483942 146.820928 
L 608.051681 150.054296 
L 618.61942 160.099923 
L 629.187159 156.725796 
L 639.754898 172.847396 
L 650.188868 158.509223 
L 660.756608 172.045177 
L 671.324347 179.582262 
L 681.892086 188.317388 
L 692.326056 166.055749 
L 702.893795 189.771471 
L 713.461535 225.438261 
L 724.029274 183.96055 
L 734.597013 203.491188 
L 744.225806 205.293555 
" clip-path="url(#p87077746b5)" style="fill: none; stroke-dasharray: 5.55,2.4; stroke-dashoffset: 0; stroke: #a9a9a9; stroke-width: 1.5"/>
   </g>
   <g id="line2d_48">
    <path d="M 418.367451 73.20992 
L 428.908437 73.648753 
L 439.449422 74.242311 
L 449.990407 75.575901 
L 460.531393 77.32573 
L 471.059001 80.787963 
L 481.599987 85.88898 
L 492.140972 92.202277 
L 502.681957 96.034644 
L 513.222943 96.866672 
L 523.763928 97.148347 
L 534.345044 99.711853 
L 544.779015 102.636399 
L 555.346754 111.247001 
L 565.914493 117.021276 
L 576.482232 129.523962 
L 587.049971 135.157901 
L 597.483942 147.103155 
L 608.051681 138.791393 
L 618.61942 156.578019 
L 629.187159 160.591176 
L 639.754898 171.932023 
L 650.188868 167.52468 
L 660.756608 179.02759 
L 671.324347 168.848135 
L 681.892086 181.816205 
L 692.326056 186.919784 
L 702.893795 207.967879 
L 713.461535 172.731693 
L 724.029274 185.657068 
L 734.597013 203.086115 
L 744.225806 211.502369 
" clip-path="url(#p87077746b5)" style="fill: none; stroke-dasharray: 1.5,2.475; stroke-dashoffset: 0; stroke: #808080; stroke-width: 1.5"/>
   </g>
   <g id="patch_9">
    <path d="M 418.367451 238.559481 
L 418.367451 47.90625 
" style="fill: none; stroke: #000000; stroke-width: 0.8; stroke-linejoin: miter; stroke-linecap: square"/>
   </g>
   <g id="patch_10">
    <path d="M 726.035806 238.559481 
L 726.035806 47.90625 
" style="fill: none; stroke: #000000; stroke-width: 0.8; stroke-linejoin: miter; stroke-linecap: square"/>
   </g>
   <g id="patch_11">
    <path d="M 418.367451 238.559481 
L 726.035806 238.559481 
" style="fill: none; stroke: #000000; stroke-width: 0.8; stroke-linejoin: miter; stroke-linecap: square"/>
   </g>
   <g id="patch_12">
    <path d="M 418.367451 47.90625 
L 726.035806 47.90625 
" style="fill: none; stroke: #000000; stroke-width: 0.8; stroke-linejoin: miter; stroke-linecap: square"/>
   </g>
   <g id="text_29">
    <!-- DALI (logscale) -->
    <g transform="translate(527.272879 41.90625) scale(0.12 -0.12)">
     <defs>
      <path id="DejaVuSans-6c" d="M 603 4863 
L 1178 4863 
L 1178 0 
L 603 0 
L 603 4863 
z
" transform="scale(0.015625)"/>
      <path id="DejaVuSans-67" d="M 2906 1791 
Q 2906 2416 2648 2759 
Q 2391 3103 1925 3103 
Q 1463 3103 1205 2759 
Q 947 2416 947 1791 
Q 947 1169 1205 825 
Q 1463 481 1925 481 
Q 2391 481 2648 825 
Q 2906 1169 2906 1791 
z
M 3481 434 
Q 3481 -459 3084 -895 
Q 2688 -1331 1869 -1331 
Q 1566 -1331 1297 -1286 
Q 1028 -1241 775 -1147 
L 775 -588 
Q 1028 -725 1275 -790 
Q 1522 -856 1778 -856 
Q 2344 -856 2625 -561 
Q 2906 -266 2906 331 
L 2906 616 
Q 2728 306 2450 153 
Q 2172 0 1784 0 
Q 1141 0 747 490 
Q 353 981 353 1791 
Q 353 2603 747 3093 
Q 1141 3584 1784 3584 
Q 2172 3584 2450 3431 
Q 2728 3278 2906 2969 
L 2906 3500 
L 3481 3500 
L 3481 434 
z
" transform="scale(0.015625)"/>
      <path id="DejaVuSans-61" d="M 2194 1759 
Q 1497 1759 1228 1600 
Q 959 1441 959 1056 
Q 959 750 1161 570 
Q 1363 391 1709 391 
Q 2188 391 2477 730 
Q 2766 1069 2766 1631 
L 2766 1759 
L 2194 1759 
z
M 3341 1997 
L 3341 0 
L 2766 0 
L 2766 531 
Q 2569 213 2275 61 
Q 1981 -91 1556 -91 
Q 1019 -91 701 211 
Q 384 513 384 1019 
Q 384 1609 779 1909 
Q 1175 2209 1959 2209 
L 2766 2209 
L 2766 2266 
Q 2766 2663 2505 2880 
Q 2244 3097 1772 3097 
Q 1472 3097 1187 3025 
Q 903 2953 641 2809 
L 641 3341 
Q 956 3463 1253 3523 
Q 1550 3584 1831 3584 
Q 2591 3584 2966 3190 
Q 3341 2797 3341 1997 
z
" transform="scale(0.015625)"/>
     </defs>
     <use xlink:href="#DejaVuSans-44"/>
     <use xlink:href="#DejaVuSans-41" transform="translate(75.251953 0)"/>
     <use xlink:href="#DejaVuSans-4c" transform="translate(143.660156 0)"/>
     <use xlink:href="#DejaVuSans-49" transform="translate(199.373047 0)"/>
     <use xlink:href="#DejaVuSans-20" transform="translate(228.865234 0)"/>
     <use xlink:href="#DejaVuSans-28" transform="translate(260.652344 0)"/>
     <use xlink:href="#DejaVuSans-6c" transform="translate(299.666016 0)"/>
     <use xlink:href="#DejaVuSans-6f" transform="translate(327.449219 0)"/>
     <use xlink:href="#DejaVuSans-67" transform="translate(388.630859 0)"/>
     <use xlink:href="#DejaVuSans-73" transform="translate(452.107422 0)"/>
     <use xlink:href="#DejaVuSans-63" transform="translate(504.207031 0)"/>
     <use xlink:href="#DejaVuSans-61" transform="translate(559.1875 0)"/>
     <use xlink:href="#DejaVuSans-6c" transform="translate(620.466797 0)"/>
     <use xlink:href="#DejaVuSans-65" transform="translate(648.25 0)"/>
     <use xlink:href="#DejaVuSans-29" transform="translate(709.773438 0)"/>
    </g>
   </g>
   <g id="legend_2">
    <g id="patch_13">
     <path d="M 637.346744 114.61875 
L 719.035806 114.61875 
Q 721.035806 114.61875 721.035806 112.61875 
L 721.035806 54.90625 
Q 721.035806 52.90625 719.035806 52.90625 
L 637.346744 52.90625 
Q 635.346744 52.90625 635.346744 54.90625 
L 635.346744 112.61875 
Q 635.346744 114.61875 637.346744 114.61875 
z
" style="fill: #ffffff; opacity: 0.8; stroke: #cccccc; stroke-linejoin: miter"/>
    </g>
    <g id="line2d_49">
     <path d="M 639.346744 61.004687 
L 649.346744 61.004687 
L 659.346744 61.004687 
" style="fill: none; stroke: #000000; stroke-width: 1.5; stroke-linecap: square"/>
    </g>
    <g id="text_30">
     <!-- SCOP40 -->
     <g transform="translate(667.346744 64.504687) scale(0.1 -0.1)">
      <use xlink:href="#DejaVuSans-53"/>
      <use xlink:href="#DejaVuSans-43" transform="translate(63.476562 0)"/>
      <use xlink:href="#DejaVuSans-4f" transform="translate(133.300781 0)"/>
      <use xlink:href="#DejaVuSans-50" transform="translate(212.011719 0)"/>
      <use xlink:href="#DejaVuSans-34" transform="translate(272.314453 0)"/>
      <use xlink:href="#DejaVuSans-30" transform="translate(335.9375 0)"/>
     </g>
    </g>
    <g id="line2d_50">
     <path d="M 639.346744 75.682812 
L 649.346744 75.682812 
L 659.346744 75.682812 
" style="fill: none; stroke: #a9a9a9; stroke-width: 1.5; stroke-linecap: square"/>
    </g>
    <g id="text_31">
     <!-- SCOP40/2 -->
     <g transform="translate(667.346744 79.182812) scale(0.1 -0.1)">
      <use xlink:href="#DejaVuSans-53"/>
      <use xlink:href="#DejaVuSans-43" transform="translate(63.476562 0)"/>
      <use xlink:href="#DejaVuSans-4f" transform="translate(133.300781 0)"/>
      <use xlink:href="#DejaVuSans-50" transform="translate(212.011719 0)"/>
      <use xlink:href="#DejaVuSans-34" transform="translate(272.314453 0)"/>
      <use xlink:href="#DejaVuSans-30" transform="translate(335.9375 0)"/>
      <use xlink:href="#DejaVuSans-2f" transform="translate(399.560547 0)"/>
      <use xlink:href="#DejaVuSans-32" transform="translate(433.251953 0)"/>
     </g>
    </g>
    <g id="line2d_51">
     <path d="M 639.346744 90.360937 
L 649.346744 90.360937 
L 659.346744 90.360937 
" style="fill: none; stroke-dasharray: 5.55,2.4; stroke-dashoffset: 0; stroke: #a9a9a9; stroke-width: 1.5"/>
    </g>
    <g id="text_32">
     <!-- SCOP40/4 -->
     <g transform="translate(667.346744 93.860937) scale(0.1 -0.1)">
      <use xlink:href="#DejaVuSans-53"/>
      <use xlink:href="#DejaVuSans-43" transform="translate(63.476562 0)"/>
      <use xlink:href="#DejaVuSans-4f" transform="translate(133.300781 0)"/>
      <use xlink:href="#DejaVuSans-50" transform="translate(212.011719 0)"/>
      <use xlink:href="#DejaVuSans-34" transform="translate(272.314453 0)"/>
      <use xlink:href="#DejaVuSans-30" transform="translate(335.9375 0)"/>
      <use xlink:href="#DejaVuSans-2f" transform="translate(399.560547 0)"/>
      <use xlink:href="#DejaVuSans-34" transform="translate(433.251953 0)"/>
     </g>
    </g>
    <g id="line2d_52">
     <path d="M 639.346744 105.039062 
L 649.346744 105.039062 
L 659.346744 105.039062 
" style="fill: none; stroke-dasharray: 1.5,2.475; stroke-dashoffset: 0; stroke: #808080; stroke-width: 1.5"/>
    </g>
    <g id="text_33">
     <!-- SCOP40/8 -->
     <g transform="translate(667.346744 108.539062) scale(0.1 -0.1)">
      <use xlink:href="#DejaVuSans-53"/>
      <use xlink:href="#DejaVuSans-43" transform="translate(63.476562 0)"/>
      <use xlink:href="#DejaVuSans-4f" transform="translate(133.300781 0)"/>
      <use xlink:href="#DejaVuSans-50" transform="translate(212.011719 0)"/>
      <use xlink:href="#DejaVuSans-34" transform="translate(272.314453 0)"/>
      <use xlink:href="#DejaVuSans-30" transform="translate(335.9375 0)"/>
      <use xlink:href="#DejaVuSans-2f" transform="translate(399.560547 0)"/>
      <use xlink:href="#DejaVuSans-38" transform="translate(433.251953 0)"/>
     </g>
    </g>
   </g>
  </g>
  <g id="text_34">
   <!-- ../plots/P_F_score.dali.dbsize.svg -->
   <g transform="translate(273.665716 14.728515) scale(0.12 -0.12)">
    <defs>
     <path id="DejaVuSans-70" d="M 1159 525 
L 1159 -1331 
L 581 -1331 
L 581 3500 
L 1159 3500 
L 1159 2969 
Q 1341 3281 1617 3432 
Q 1894 3584 2278 3584 
Q 2916 3584 3314 3078 
Q 3713 2572 3713 1747 
Q 3713 922 3314 415 
Q 2916 -91 2278 -91 
Q 1894 -91 1617 61 
Q 1341 213 1159 525 
z
M 3116 1747 
Q 3116 2381 2855 2742 
Q 2594 3103 2138 3103 
Q 1681 3103 1420 2742 
Q 1159 2381 1159 1747 
Q 1159 1113 1420 752 
Q 1681 391 2138 391 
Q 2594 391 2855 752 
Q 3116 1113 3116 1747 
z
" transform="scale(0.015625)"/>
     <path id="DejaVuSans-74" d="M 1172 4494 
L 1172 3500 
L 2356 3500 
L 2356 3053 
L 1172 3053 
L 1172 1153 
Q 1172 725 1289 603 
Q 1406 481 1766 481 
L 2356 481 
L 2356 0 
L 1766 0 
Q 1100 0 847 248 
Q 594 497 594 1153 
L 594 3053 
L 172 3053 
L 172 3500 
L 594 3500 
L 594 4494 
L 1172 4494 
z
" transform="scale(0.015625)"/>
     <path id="DejaVuSans-5f" d="M 3263 -1063 
L 3263 -1509 
L -63 -1509 
L -63 -1063 
L 3263 -1063 
z
" transform="scale(0.015625)"/>
     <path id="DejaVuSans-64" d="M 2906 2969 
L 2906 4863 
L 3481 4863 
L 3481 0 
L 2906 0 
L 2906 525 
Q 2725 213 2448 61 
Q 2172 -91 1784 -91 
Q 1150 -91 751 415 
Q 353 922 353 1747 
Q 353 2572 751 3078 
Q 1150 3584 1784 3584 
Q 2172 3584 2448 3432 
Q 2725 3281 2906 2969 
z
M 947 1747 
Q 947 1113 1208 752 
Q 1469 391 1925 391 
Q 2381 391 2643 752 
Q 2906 1113 2906 1747 
Q 2906 2381 2643 2742 
Q 2381 3103 1925 3103 
Q 1469 3103 1208 2742 
Q 947 2381 947 1747 
z
" transform="scale(0.015625)"/>
     <path id="DejaVuSans-69" d="M 603 3500 
L 1178 3500 
L 1178 0 
L 603 0 
L 603 3500 
z
M 603 4863 
L 1178 4863 
L 1178 4134 
L 603 4134 
L 603 4863 
z
" transform="scale(0.015625)"/>
     <path id="DejaVuSans-62" d="M 3116 1747 
Q 3116 2381 2855 2742 
Q 2594 3103 2138 3103 
Q 1681 3103 1420 2742 
Q 1159 2381 1159 1747 
Q 1159 1113 1420 752 
Q 1681 391 2138 391 
Q 2594 391 2855 752 
Q 3116 1113 3116 1747 
z
M 1159 2969 
Q 1341 3281 1617 3432 
Q 1894 3584 2278 3584 
Q 2916 3584 3314 3078 
Q 3713 2572 3713 1747 
Q 3713 922 3314 415 
Q 2916 -91 2278 -91 
Q 1894 -91 1617 61 
Q 1341 213 1159 525 
L 1159 0 
L 581 0 
L 581 4863 
L 1159 4863 
L 1159 2969 
z
" transform="scale(0.015625)"/>
     <path id="DejaVuSans-7a" d="M 353 3500 
L 3084 3500 
L 3084 2975 
L 922 459 
L 3084 459 
L 3084 0 
L 275 0 
L 275 525 
L 2438 3041 
L 353 3041 
L 353 3500 
z
" transform="scale(0.015625)"/>
     <path id="DejaVuSans-76" d="M 191 3500 
L 800 3500 
L 1894 563 
L 2988 3500 
L 3597 3500 
L 2284 0 
L 1503 0 
L 191 3500 
z
" transform="scale(0.015625)"/>
    </defs>
    <use xlink:href="#DejaVuSans-2e"/>
    <use xlink:href="#DejaVuSans-2e" transform="translate(31.787109 0)"/>
    <use xlink:href="#DejaVuSans-2f" transform="translate(63.574219 0)"/>
    <use xlink:href="#DejaVuSans-70" transform="translate(97.265625 0)"/>
    <use xlink:href="#DejaVuSans-6c" transform="translate(160.742188 0)"/>
    <use xlink:href="#DejaVuSans-6f" transform="translate(188.525391 0)"/>
    <use xlink:href="#DejaVuSans-74" transform="translate(249.707031 0)"/>
    <use xlink:href="#DejaVuSans-73" transform="translate(288.916016 0)"/>
    <use xlink:href="#DejaVuSans-2f" transform="translate(341.015625 0)"/>
    <use xlink:href="#DejaVuSans-50" transform="translate(374.707031 0)"/>
    <use xlink:href="#DejaVuSans-5f" transform="translate(435.009766 0)"/>
    <use xlink:href="#DejaVuSans-46" transform="translate(485.009766 0)"/>
    <use xlink:href="#DejaVuSans-5f" transform="translate(542.529297 0)"/>
    <use xlink:href="#DejaVuSans-73" transform="translate(592.529297 0)"/>
    <use xlink:href="#DejaVuSans-63" transform="translate(644.628906 0)"/>
    <use xlink:href="#DejaVuSans-6f" transform="translate(699.609375 0)"/>
    <use xlink:href="#DejaVuSans-72" transform="translate(760.791016 0)"/>
    <use xlink:href="#DejaVuSans-65" transform="translate(799.654297 0)"/>
    <use xlink:href="#DejaVuSans-2e" transform="translate(861.177734 0)"/>
    <use xlink:href="#DejaVuSans-64" transform="translate(892.964844 0)"/>
    <use xlink:href="#DejaVuSans-61" transform="translate(956.441406 0)"/>
    <use xlink:href="#DejaVuSans-6c" transform="translate(1017.720703 0)"/>
    <use xlink:href="#DejaVuSans-69" transform="translate(1045.503906 0)"/>
    <use xlink:href="#DejaVuSans-2e" transform="translate(1073.287109 0)"/>
    <use xlink:href="#DejaVuSans-64" transform="translate(1105.074219 0)"/>
    <use xlink:href="#DejaVuSans-62" transform="translate(1168.550781 0)"/>
    <use xlink:href="#DejaVuSans-73" transform="translate(1232.027344 0)"/>
    <use xlink:href="#DejaVuSans-69" transform="translate(1284.126953 0)"/>
    <use xlink:href="#DejaVuSans-7a" transform="translate(1311.910156 0)"/>
    <use xlink:href="#DejaVuSans-65" transform="translate(1364.400391 0)"/>
    <use xlink:href="#DejaVuSans-2e" transform="translate(1425.923828 0)"/>
    <use xlink:href="#DejaVuSans-73" transform="translate(1457.710938 0)"/>
    <use xlink:href="#DejaVuSans-76" transform="translate(1509.810547 0)"/>
    <use xlink:href="#DejaVuSans-67" transform="translate(1568.990234 0)"/>
   </g>
  </g>
 </g>
 <defs>
  <clipPath id="pafc4b6c234">
   <rect x="48.17" y="47.90625" width="307.668355" height="190.653231"/>
  </clipPath>
  <clipPath id="p87077746b5">
   <rect x="418.367451" y="47.90625" width="307.668355" height="190.653231"/>
  </clipPath>
 </defs>
</svg>
