<?xml version="1.0" encoding="utf-8" standalone="no"?>
<!DOCTYPE svg PUBLIC "-//W3C//DTD SVG 1.1//EN"
  "http://www.w3.org/Graphics/SVG/1.1/DTD/svg11.dtd">
<svg xmlns:xlink="http://www.w3.org/1999/xlink" width="743.225806pt" height="280.519481pt" viewBox="0 0 743.225806 280.519481" xmlns="http://www.w3.org/2000/svg" version="1.1">
 <metadata>
  <rdf:RDF xmlns:dc="http://purl.org/dc/elements/1.1/" xmlns:cc="http://creativecommons.org/ns#" xmlns:rdf="http://www.w3.org/1999/02/22-rdf-syntax-ns#">
   <cc:Work>
    <dc:type rdf:resource="http://purl.org/dc/dcmitype/StillImage"/>
    <dc:date>2025-05-30T08:16:37.502840</dc:date>
    <dc:format>image/svg+xml</dc:format>
    <dc:creator>
     <cc:Agent>
      <dc:title>Matplotlib v3.10.3, https://matplotlib.org/</dc:title>
     </cc:Agent>
    </dc:creator>
   </cc:Work>
  </rdf:RDF>
 </metadata>
 <defs>
  <style type="text/css">*{stroke-linejoin: round; stroke-linecap: butt}</style>
 </defs>
 <g id="figure_1">
  <g id="patch_1">
   <path d="M 0 280.519481 
L 743.225806 280.519481 
L 743.225806 0 
L 0 0 
z
" style="fill: #ffffff"/>
  </g>
  <g id="axes_1">
   <g id="patch_2">
    <path d="M 48.17 238.559481 
L 354.21273 238.559481 
L 354.21273 47.90625 
L 48.17 47.90625 
z
" style="fill: #ffffff"/>
   </g>
   <g id="matplotlib.axis_1">
    <g id="xtick_1">
     <g id="line2d_1">
      <defs>
       <path id="m8a0b2009be" d="M 0 0 
L 0 3.5 
" style="stroke: #000000; stroke-width: 0.8"/>
      </defs>
      <g>
       <use xlink:href="#m8a0b2009be" x="48.17" y="238.559481" style="stroke: #000000; stroke-width: 0.8"/>
      </g>
     </g>
     <g id="text_1">
      <!-- 0.4 -->
      <g transform="translate(40.218437 253.157918) scale(0.1 -0.1)">
       <defs>
        <path id="DejaVuSans-30" d="M 2034 4250 
Q 1547 4250 1301 3770 
Q 1056 3291 1056 2328 
Q 1056 1369 1301 889 
Q 1547 409 2034 409 
Q 2525 409 2770 889 
Q 3016 1369 3016 2328 
Q 3016 3291 2770 3770 
Q 2525 4250 2034 4250 
z
M 2034 4750 
Q 2819 4750 3233 4129 
Q 3647 3509 3647 2328 
Q 3647 1150 3233 529 
Q 2819 -91 2034 -91 
Q 1250 -91 836 529 
Q 422 1150 422 2328 
Q 422 3509 836 4129 
Q 1250 4750 2034 4750 
z
" transform="scale(0.015625)"/>
        <path id="DejaVuSans-2e" d="M 684 794 
L 1344 794 
L 1344 0 
L 684 0 
L 684 794 
z
" transform="scale(0.015625)"/>
        <path id="DejaVuSans-34" d="M 2419 4116 
L 825 1625 
L 2419 1625 
L 2419 4116 
z
M 2253 4666 
L 3047 4666 
L 3047 1625 
L 3713 1625 
L 3713 1100 
L 3047 1100 
L 3047 0 
L 2419 0 
L 2419 1100 
L 313 1100 
L 313 1709 
L 2253 4666 
z
" transform="scale(0.015625)"/>
       </defs>
       <use xlink:href="#DejaVuSans-30"/>
       <use xlink:href="#DejaVuSans-2e" transform="translate(63.623047 0)"/>
       <use xlink:href="#DejaVuSans-34" transform="translate(95.410156 0)"/>
      </g>
     </g>
    </g>
    <g id="xtick_2">
     <g id="line2d_2">
      <g>
       <use xlink:href="#m8a0b2009be" x="109.378546" y="238.559481" style="stroke: #000000; stroke-width: 0.8"/>
      </g>
     </g>
     <g id="text_2">
      <!-- 0.5 -->
      <g transform="translate(101.426984 253.157918) scale(0.1 -0.1)">
       <defs>
        <path id="DejaVuSans-35" d="M 691 4666 
L 3169 4666 
L 3169 4134 
L 1269 4134 
L 1269 2991 
Q 1406 3038 1543 3061 
Q 1681 3084 1819 3084 
Q 2600 3084 3056 2656 
Q 3513 2228 3513 1497 
Q 3513 744 3044 326 
Q 2575 -91 1722 -91 
Q 1428 -91 1123 -41 
Q 819 9 494 109 
L 494 744 
Q 775 591 1075 516 
Q 1375 441 1709 441 
Q 2250 441 2565 725 
Q 2881 1009 2881 1497 
Q 2881 1984 2565 2268 
Q 2250 2553 1709 2553 
Q 1456 2553 1204 2497 
Q 953 2441 691 2322 
L 691 4666 
z
" transform="scale(0.015625)"/>
       </defs>
       <use xlink:href="#DejaVuSans-30"/>
       <use xlink:href="#DejaVuSans-2e" transform="translate(63.623047 0)"/>
       <use xlink:href="#DejaVuSans-35" transform="translate(95.410156 0)"/>
      </g>
     </g>
    </g>
    <g id="xtick_3">
     <g id="line2d_3">
      <g>
       <use xlink:href="#m8a0b2009be" x="170.587092" y="238.559481" style="stroke: #000000; stroke-width: 0.8"/>
      </g>
     </g>
     <g id="text_3">
      <!-- 0.6 -->
      <g transform="translate(162.63553 253.157918) scale(0.1 -0.1)">
       <defs>
        <path id="DejaVuSans-36" d="M 2113 2584 
Q 1688 2584 1439 2293 
Q 1191 2003 1191 1497 
Q 1191 994 1439 701 
Q 1688 409 2113 409 
Q 2538 409 2786 701 
Q 3034 994 3034 1497 
Q 3034 2003 2786 2293 
Q 2538 2584 2113 2584 
z
M 3366 4563 
L 3366 3988 
Q 3128 4100 2886 4159 
Q 2644 4219 2406 4219 
Q 1781 4219 1451 3797 
Q 1122 3375 1075 2522 
Q 1259 2794 1537 2939 
Q 1816 3084 2150 3084 
Q 2853 3084 3261 2657 
Q 3669 2231 3669 1497 
Q 3669 778 3244 343 
Q 2819 -91 2113 -91 
Q 1303 -91 875 529 
Q 447 1150 447 2328 
Q 447 3434 972 4092 
Q 1497 4750 2381 4750 
Q 2619 4750 2861 4703 
Q 3103 4656 3366 4563 
z
" transform="scale(0.015625)"/>
       </defs>
       <use xlink:href="#DejaVuSans-30"/>
       <use xlink:href="#DejaVuSans-2e" transform="translate(63.623047 0)"/>
       <use xlink:href="#DejaVuSans-36" transform="translate(95.410156 0)"/>
      </g>
     </g>
    </g>
    <g id="xtick_4">
     <g id="line2d_4">
      <g>
       <use xlink:href="#m8a0b2009be" x="231.795638" y="238.559481" style="stroke: #000000; stroke-width: 0.8"/>
      </g>
     </g>
     <g id="text_4">
      <!-- 0.7 -->
      <g transform="translate(223.844076 253.157918) scale(0.1 -0.1)">
       <defs>
        <path id="DejaVuSans-37" d="M 525 4666 
L 3525 4666 
L 3525 4397 
L 1831 0 
L 1172 0 
L 2766 4134 
L 525 4134 
L 525 4666 
z
" transform="scale(0.015625)"/>
       </defs>
       <use xlink:href="#DejaVuSans-30"/>
       <use xlink:href="#DejaVuSans-2e" transform="translate(63.623047 0)"/>
       <use xlink:href="#DejaVuSans-37" transform="translate(95.410156 0)"/>
      </g>
     </g>
    </g>
    <g id="xtick_5">
     <g id="line2d_5">
      <g>
       <use xlink:href="#m8a0b2009be" x="293.004184" y="238.559481" style="stroke: #000000; stroke-width: 0.8"/>
      </g>
     </g>
     <g id="text_5">
      <!-- 0.8 -->
      <g transform="translate(285.052622 253.157918) scale(0.1 -0.1)">
       <defs>
        <path id="DejaVuSans-38" d="M 2034 2216 
Q 1584 2216 1326 1975 
Q 1069 1734 1069 1313 
Q 1069 891 1326 650 
Q 1584 409 2034 409 
Q 2484 409 2743 651 
Q 3003 894 3003 1313 
Q 3003 1734 2745 1975 
Q 2488 2216 2034 2216 
z
M 1403 2484 
Q 997 2584 770 2862 
Q 544 3141 544 3541 
Q 544 4100 942 4425 
Q 1341 4750 2034 4750 
Q 2731 4750 3128 4425 
Q 3525 4100 3525 3541 
Q 3525 3141 3298 2862 
Q 3072 2584 2669 2484 
Q 3125 2378 3379 2068 
Q 3634 1759 3634 1313 
Q 3634 634 3220 271 
Q 2806 -91 2034 -91 
Q 1263 -91 848 271 
Q 434 634 434 1313 
Q 434 1759 690 2068 
Q 947 2378 1403 2484 
z
M 1172 3481 
Q 1172 3119 1398 2916 
Q 1625 2713 2034 2713 
Q 2441 2713 2670 2916 
Q 2900 3119 2900 3481 
Q 2900 3844 2670 4047 
Q 2441 4250 2034 4250 
Q 1625 4250 1398 4047 
Q 1172 3844 1172 3481 
z
" transform="scale(0.015625)"/>
       </defs>
       <use xlink:href="#DejaVuSans-30"/>
       <use xlink:href="#DejaVuSans-2e" transform="translate(63.623047 0)"/>
       <use xlink:href="#DejaVuSans-38" transform="translate(95.410156 0)"/>
      </g>
     </g>
    </g>
    <g id="xtick_6">
     <g id="line2d_6">
      <g>
       <use xlink:href="#m8a0b2009be" x="354.21273" y="238.559481" style="stroke: #000000; stroke-width: 0.8"/>
      </g>
     </g>
     <g id="text_6">
      <!-- 0.9 -->
      <g transform="translate(346.261168 253.157918) scale(0.1 -0.1)">
       <defs>
        <path id="DejaVuSans-39" d="M 703 97 
L 703 672 
Q 941 559 1184 500 
Q 1428 441 1663 441 
Q 2288 441 2617 861 
Q 2947 1281 2994 2138 
Q 2813 1869 2534 1725 
Q 2256 1581 1919 1581 
Q 1219 1581 811 2004 
Q 403 2428 403 3163 
Q 403 3881 828 4315 
Q 1253 4750 1959 4750 
Q 2769 4750 3195 4129 
Q 3622 3509 3622 2328 
Q 3622 1225 3098 567 
Q 2575 -91 1691 -91 
Q 1453 -91 1209 -44 
Q 966 3 703 97 
z
M 1959 2075 
Q 2384 2075 2632 2365 
Q 2881 2656 2881 3163 
Q 2881 3666 2632 3958 
Q 2384 4250 1959 4250 
Q 1534 4250 1286 3958 
Q 1038 3666 1038 3163 
Q 1038 2656 1286 2365 
Q 1534 2075 1959 2075 
z
" transform="scale(0.015625)"/>
       </defs>
       <use xlink:href="#DejaVuSans-30"/>
       <use xlink:href="#DejaVuSans-2e" transform="translate(63.623047 0)"/>
       <use xlink:href="#DejaVuSans-39" transform="translate(95.410156 0)"/>
      </g>
     </g>
    </g>
    <g id="text_7">
     <!-- TM score -->
     <g transform="translate(178.801521 266.836043) scale(0.1 -0.1)">
      <defs>
       <path id="DejaVuSans-54" d="M -19 4666 
L 3928 4666 
L 3928 4134 
L 2272 4134 
L 2272 0 
L 1638 0 
L 1638 4134 
L -19 4134 
L -19 4666 
z
" transform="scale(0.015625)"/>
       <path id="DejaVuSans-4d" d="M 628 4666 
L 1569 4666 
L 2759 1491 
L 3956 4666 
L 4897 4666 
L 4897 0 
L 4281 0 
L 4281 4097 
L 3078 897 
L 2444 897 
L 1241 4097 
L 1241 0 
L 628 0 
L 628 4666 
z
" transform="scale(0.015625)"/>
       <path id="DejaVuSans-20" transform="scale(0.015625)"/>
       <path id="DejaVuSans-73" d="M 2834 3397 
L 2834 2853 
Q 2591 2978 2328 3040 
Q 2066 3103 1784 3103 
Q 1356 3103 1142 2972 
Q 928 2841 928 2578 
Q 928 2378 1081 2264 
Q 1234 2150 1697 2047 
L 1894 2003 
Q 2506 1872 2764 1633 
Q 3022 1394 3022 966 
Q 3022 478 2636 193 
Q 2250 -91 1575 -91 
Q 1294 -91 989 -36 
Q 684 19 347 128 
L 347 722 
Q 666 556 975 473 
Q 1284 391 1588 391 
Q 1994 391 2212 530 
Q 2431 669 2431 922 
Q 2431 1156 2273 1281 
Q 2116 1406 1581 1522 
L 1381 1569 
Q 847 1681 609 1914 
Q 372 2147 372 2553 
Q 372 3047 722 3315 
Q 1072 3584 1716 3584 
Q 2034 3584 2315 3537 
Q 2597 3491 2834 3397 
z
" transform="scale(0.015625)"/>
       <path id="DejaVuSans-63" d="M 3122 3366 
L 3122 2828 
Q 2878 2963 2633 3030 
Q 2388 3097 2138 3097 
Q 1578 3097 1268 2742 
Q 959 2388 959 1747 
Q 959 1106 1268 751 
Q 1578 397 2138 397 
Q 2388 397 2633 464 
Q 2878 531 3122 666 
L 3122 134 
Q 2881 22 2623 -34 
Q 2366 -91 2075 -91 
Q 1284 -91 818 406 
Q 353 903 353 1747 
Q 353 2603 823 3093 
Q 1294 3584 2113 3584 
Q 2378 3584 2631 3529 
Q 2884 3475 3122 3366 
z
" transform="scale(0.015625)"/>
       <path id="DejaVuSans-6f" d="M 1959 3097 
Q 1497 3097 1228 2736 
Q 959 2375 959 1747 
Q 959 1119 1226 758 
Q 1494 397 1959 397 
Q 2419 397 2687 759 
Q 2956 1122 2956 1747 
Q 2956 2369 2687 2733 
Q 2419 3097 1959 3097 
z
M 1959 3584 
Q 2709 3584 3137 3096 
Q 3566 2609 3566 1747 
Q 3566 888 3137 398 
Q 2709 -91 1959 -91 
Q 1206 -91 779 398 
Q 353 888 353 1747 
Q 353 2609 779 3096 
Q 1206 3584 1959 3584 
z
" transform="scale(0.015625)"/>
       <path id="DejaVuSans-72" d="M 2631 2963 
Q 2534 3019 2420 3045 
Q 2306 3072 2169 3072 
Q 1681 3072 1420 2755 
Q 1159 2438 1159 1844 
L 1159 0 
L 581 0 
L 581 3500 
L 1159 3500 
L 1159 2956 
Q 1341 3275 1631 3429 
Q 1922 3584 2338 3584 
Q 2397 3584 2469 3576 
Q 2541 3569 2628 3553 
L 2631 2963 
z
" transform="scale(0.015625)"/>
       <path id="DejaVuSans-65" d="M 3597 1894 
L 3597 1613 
L 953 1613 
Q 991 1019 1311 708 
Q 1631 397 2203 397 
Q 2534 397 2845 478 
Q 3156 559 3463 722 
L 3463 178 
Q 3153 47 2828 -22 
Q 2503 -91 2169 -91 
Q 1331 -91 842 396 
Q 353 884 353 1716 
Q 353 2575 817 3079 
Q 1281 3584 2069 3584 
Q 2775 3584 3186 3129 
Q 3597 2675 3597 1894 
z
M 3022 2063 
Q 3016 2534 2758 2815 
Q 2500 3097 2075 3097 
Q 1594 3097 1305 2825 
Q 1016 2553 972 2059 
L 3022 2063 
z
" transform="scale(0.015625)"/>
      </defs>
      <use xlink:href="#DejaVuSans-54"/>
      <use xlink:href="#DejaVuSans-4d" transform="translate(61.083984 0)"/>
      <use xlink:href="#DejaVuSans-20" transform="translate(147.363281 0)"/>
      <use xlink:href="#DejaVuSans-73" transform="translate(179.150391 0)"/>
      <use xlink:href="#DejaVuSans-63" transform="translate(231.25 0)"/>
      <use xlink:href="#DejaVuSans-6f" transform="translate(286.230469 0)"/>
      <use xlink:href="#DejaVuSans-72" transform="translate(347.412109 0)"/>
      <use xlink:href="#DejaVuSans-65" transform="translate(386.275391 0)"/>
     </g>
    </g>
   </g>
   <g id="matplotlib.axis_2">
    <g id="ytick_1">
     <g id="line2d_7">
      <defs>
       <path id="m2277cc9f6f" d="M 0 0 
L -3.5 0 
" style="stroke: #000000; stroke-width: 0.8"/>
      </defs>
      <g>
       <use xlink:href="#m2277cc9f6f" x="48.17" y="229.893425" style="stroke: #000000; stroke-width: 0.8"/>
      </g>
     </g>
     <g id="text_8">
      <!-- 0.0 -->
      <g transform="translate(25.266875 233.692643) scale(0.1 -0.1)">
       <use xlink:href="#DejaVuSans-30"/>
       <use xlink:href="#DejaVuSans-2e" transform="translate(63.623047 0)"/>
       <use xlink:href="#DejaVuSans-30" transform="translate(95.410156 0)"/>
      </g>
     </g>
    </g>
    <g id="ytick_2">
     <g id="line2d_8">
      <g>
       <use xlink:href="#m2277cc9f6f" x="48.17" y="195.229201" style="stroke: #000000; stroke-width: 0.8"/>
      </g>
     </g>
     <g id="text_9">
      <!-- 0.2 -->
      <g transform="translate(25.266875 199.02842) scale(0.1 -0.1)">
       <defs>
        <path id="DejaVuSans-32" d="M 1228 531 
L 3431 531 
L 3431 0 
L 469 0 
L 469 531 
Q 828 903 1448 1529 
Q 2069 2156 2228 2338 
Q 2531 2678 2651 2914 
Q 2772 3150 2772 3378 
Q 2772 3750 2511 3984 
Q 2250 4219 1831 4219 
Q 1534 4219 1204 4116 
Q 875 4013 500 3803 
L 500 4441 
Q 881 4594 1212 4672 
Q 1544 4750 1819 4750 
Q 2544 4750 2975 4387 
Q 3406 4025 3406 3419 
Q 3406 3131 3298 2873 
Q 3191 2616 2906 2266 
Q 2828 2175 2409 1742 
Q 1991 1309 1228 531 
z
" transform="scale(0.015625)"/>
       </defs>
       <use xlink:href="#DejaVuSans-30"/>
       <use xlink:href="#DejaVuSans-2e" transform="translate(63.623047 0)"/>
       <use xlink:href="#DejaVuSans-32" transform="translate(95.410156 0)"/>
      </g>
     </g>
    </g>
    <g id="ytick_3">
     <g id="line2d_9">
      <g>
       <use xlink:href="#m2277cc9f6f" x="48.17" y="160.564977" style="stroke: #000000; stroke-width: 0.8"/>
      </g>
     </g>
     <g id="text_10">
      <!-- 0.4 -->
      <g transform="translate(25.266875 164.364196) scale(0.1 -0.1)">
       <use xlink:href="#DejaVuSans-30"/>
       <use xlink:href="#DejaVuSans-2e" transform="translate(63.623047 0)"/>
       <use xlink:href="#DejaVuSans-34" transform="translate(95.410156 0)"/>
      </g>
     </g>
    </g>
    <g id="ytick_4">
     <g id="line2d_10">
      <g>
       <use xlink:href="#m2277cc9f6f" x="48.17" y="125.900753" style="stroke: #000000; stroke-width: 0.8"/>
      </g>
     </g>
     <g id="text_11">
      <!-- 0.6 -->
      <g transform="translate(25.266875 129.699972) scale(0.1 -0.1)">
       <use xlink:href="#DejaVuSans-30"/>
       <use xlink:href="#DejaVuSans-2e" transform="translate(63.623047 0)"/>
       <use xlink:href="#DejaVuSans-36" transform="translate(95.410156 0)"/>
      </g>
     </g>
    </g>
    <g id="ytick_5">
     <g id="line2d_11">
      <g>
       <use xlink:href="#m2277cc9f6f" x="48.17" y="91.23653" style="stroke: #000000; stroke-width: 0.8"/>
      </g>
     </g>
     <g id="text_12">
      <!-- 0.8 -->
      <g transform="translate(25.266875 95.035748) scale(0.1 -0.1)">
       <use xlink:href="#DejaVuSans-30"/>
       <use xlink:href="#DejaVuSans-2e" transform="translate(63.623047 0)"/>
       <use xlink:href="#DejaVuSans-38" transform="translate(95.410156 0)"/>
      </g>
     </g>
    </g>
    <g id="ytick_6">
     <g id="line2d_12">
      <g>
       <use xlink:href="#m2277cc9f6f" x="48.17" y="56.572306" style="stroke: #000000; stroke-width: 0.8"/>
      </g>
     </g>
     <g id="text_13">
      <!-- 1.0 -->
      <g transform="translate(25.266875 60.371525) scale(0.1 -0.1)">
       <defs>
        <path id="DejaVuSans-31" d="M 794 531 
L 1825 531 
L 1825 4091 
L 703 3866 
L 703 4441 
L 1819 4666 
L 2450 4666 
L 2450 531 
L 3481 531 
L 3481 0 
L 794 0 
L 794 531 
z
" transform="scale(0.015625)"/>
       </defs>
       <use xlink:href="#DejaVuSans-31"/>
       <use xlink:href="#DejaVuSans-2e" transform="translate(63.623047 0)"/>
       <use xlink:href="#DejaVuSans-30" transform="translate(95.410156 0)"/>
      </g>
     </g>
    </g>
    <g id="text_14">
     <!-- P(F|score) -->
     <g transform="translate(18.909062 168.14224) rotate(-90) scale(0.1 -0.1)">
      <defs>
       <path id="DejaVuSans-50" d="M 1259 4147 
L 1259 2394 
L 2053 2394 
Q 2494 2394 2734 2622 
Q 2975 2850 2975 3272 
Q 2975 3691 2734 3919 
Q 2494 4147 2053 4147 
L 1259 4147 
z
M 628 4666 
L 2053 4666 
Q 2838 4666 3239 4311 
Q 3641 3956 3641 3272 
Q 3641 2581 3239 2228 
Q 2838 1875 2053 1875 
L 1259 1875 
L 1259 0 
L 628 0 
L 628 4666 
z
" transform="scale(0.015625)"/>
       <path id="DejaVuSans-28" d="M 1984 4856 
Q 1566 4138 1362 3434 
Q 1159 2731 1159 2009 
Q 1159 1288 1364 580 
Q 1569 -128 1984 -844 
L 1484 -844 
Q 1016 -109 783 600 
Q 550 1309 550 2009 
Q 550 2706 781 3412 
Q 1013 4119 1484 4856 
L 1984 4856 
z
" transform="scale(0.015625)"/>
       <path id="DejaVuSans-46" d="M 628 4666 
L 3309 4666 
L 3309 4134 
L 1259 4134 
L 1259 2759 
L 3109 2759 
L 3109 2228 
L 1259 2228 
L 1259 0 
L 628 0 
L 628 4666 
z
" transform="scale(0.015625)"/>
       <path id="DejaVuSans-7c" d="M 1344 4891 
L 1344 -1509 
L 813 -1509 
L 813 4891 
L 1344 4891 
z
" transform="scale(0.015625)"/>
       <path id="DejaVuSans-29" d="M 513 4856 
L 1013 4856 
Q 1481 4119 1714 3412 
Q 1947 2706 1947 2009 
Q 1947 1309 1714 600 
Q 1481 -109 1013 -844 
L 513 -844 
Q 928 -128 1133 580 
Q 1338 1288 1338 2009 
Q 1338 2731 1133 3434 
Q 928 4138 513 4856 
z
" transform="scale(0.015625)"/>
      </defs>
      <use xlink:href="#DejaVuSans-50"/>
      <use xlink:href="#DejaVuSans-28" transform="translate(60.302734 0)"/>
      <use xlink:href="#DejaVuSans-46" transform="translate(99.316406 0)"/>
      <use xlink:href="#DejaVuSans-7c" transform="translate(156.835938 0)"/>
      <use xlink:href="#DejaVuSans-73" transform="translate(190.527344 0)"/>
      <use xlink:href="#DejaVuSans-63" transform="translate(242.626953 0)"/>
      <use xlink:href="#DejaVuSans-6f" transform="translate(297.607422 0)"/>
      <use xlink:href="#DejaVuSans-72" transform="translate(358.789062 0)"/>
      <use xlink:href="#DejaVuSans-65" transform="translate(397.652344 0)"/>
      <use xlink:href="#DejaVuSans-29" transform="translate(459.175781 0)"/>
     </g>
    </g>
   </g>
   <g id="line2d_13">
    <path d="M -1 56.744778 
L 1.161837 56.76296 
L 7.3439 56.849624 
L 13.525963 56.936279 
L 19.708026 57.057603 
L 25.890089 57.248257 
L 32.072152 57.560235 
L 38.254216 57.958878 
L 44.436279 58.565499 
L 50.618342 59.27612 
L 56.800405 60.264049 
L 62.982468 61.529286 
L 69.164531 63.262506 
L 75.346594 65.169034 
L 81.528658 67.404876 
L 87.710721 69.952696 
L 93.892784 72.916483 
L 100.074847 76.816214 
L 106.25691 80.386623 
L 112.500182 85.04897 
L 118.682245 89.087351 
L 124.864308 93.524364 
L 131.046371 98.39469 
L 137.228434 102.086433 
L 143.410498 106.384797 
L 149.592561 111.983068 
L 155.774624 119.799846 
L 161.956687 125.536776 
L 168.13875 135.017445 
L 174.320813 144.948745 
L 180.502877 158.311805 
L 186.68494 165.972594 
L 192.867003 174.170684 
L 199.049066 185.748535 
L 205.231129 195.073211 
L 211.413192 201.936728 
L 217.595255 207.240353 
L 223.777319 211.55605 
L 229.959382 214.053608 
L 236.141445 217.740148 
L 242.323508 220.095582 
L 248.505571 220.63981 
L 254.687634 223.6244 
L 260.869697 223.088837 
L 267.051761 225.716386 
L 273.233824 226.730314 
L 279.415887 226.342075 
L 285.59795 227.669715 
L 291.780013 227.44613 
L 297.962076 228.512402 
L 304.14414 229.124399 
L 310.326203 228.880883 
L 316.508266 229.718544 
L 322.690329 229.523904 
L 328.872392 229.689252 
L 335.054455 229.893425 
L 341.236518 229.650255 
L 347.418582 229.893425 
L 353.600645 229.893425 
L 359.782708 229.893425 
L 365.964771 229.893425 
L 372.146834 229.893425 
L 378.328897 229.893425 
L 384.51096 229.893425 
L 390.693024 229.893425 
L 396.875087 229.893425 
L 403.05715 229.893425 
L 409.239213 229.893425 
L 415.421276 229.893425 
" clip-path="url(#p0ea3f700cb)" style="fill: none; stroke: #000000; stroke-width: 1.5; stroke-linecap: square"/>
   </g>
   <g id="line2d_14">
    <path d="M -1 56.745625 
L 1.161837 56.745625 
L 7.3439 56.745625 
L 13.525963 56.918944 
L 19.708026 57.092273 
L 25.890089 57.265592 
L 32.072152 57.438911 
L 38.254216 57.785559 
L 44.436279 58.478834 
L 50.618342 59.17212 
L 56.800405 60.038725 
L 62.982468 61.251978 
L 69.164531 63.158506 
L 75.346594 64.891716 
L 81.528658 67.144892 
L 87.710721 70.437993 
L 93.892784 72.171202 
L 100.074847 76.504236 
L 106.25691 79.624018 
L 112.500182 84.650327 
L 118.682245 87.59679 
L 124.864308 92.276451 
L 131.046371 96.956123 
L 137.228434 100.075904 
L 143.410498 103.888972 
L 149.592561 110.128534 
L 155.774624 116.194768 
L 161.956687 122.780978 
L 168.13875 132.140312 
L 174.320813 142.712898 
L 180.502877 154.325419 
L 186.68494 164.378043 
L 192.867003 172.177491 
L 199.049066 183.963331 
L 205.231129 196.61577 
L 211.413192 200.255513 
L 217.595255 206.841716 
L 223.777319 211.174743 
L 229.959382 213.705232 
L 236.141445 216.911673 
L 242.323508 219.771471 
L 248.505571 220.152777 
L 254.687634 223.965842 
L 260.869697 222.752594 
L 267.051761 225.161758 
L 273.233824 226.392338 
L 279.415887 225.889707 
L 285.59795 227.31094 
L 291.780013 227.206947 
L 297.962076 229.05455 
L 304.14414 228.319669 
L 310.326203 229.893425 
L 316.508266 229.189741 
L 322.690329 229.162009 
L 328.872392 229.893425 
L 335.054455 229.893425 
L 341.236518 229.893425 
L 347.418582 229.893425 
L 353.600645 229.893425 
L 359.782708 229.893425 
L 365.964771 229.893425 
L 372.146834 229.893425 
L 378.328897 229.893425 
L 384.51096 229.893425 
L 390.693024 229.893425 
L 396.875087 229.893425 
L 403.05715 229.893425 
L 409.239213 229.893425 
L 415.421276 229.893425 
" clip-path="url(#p0ea3f700cb)" style="fill: none; stroke: #a9a9a9; stroke-width: 1.5; stroke-linecap: square"/>
   </g>
   <g id="line2d_15">
    <path d="M -1 56.745625 
L 1.161837 56.745625 
L 7.3439 56.918944 
L 13.525963 56.918944 
L 19.708026 57.092273 
L 25.890089 57.265592 
L 32.072152 57.438911 
L 38.254216 57.958878 
L 44.436279 58.478834 
L 50.618342 59.345439 
L 56.800405 60.212054 
L 62.982468 61.251978 
L 69.164531 62.985187 
L 75.346594 64.891716 
L 81.528658 67.49154 
L 87.710721 69.22475 
L 93.892784 73.037817 
L 100.074847 77.370841 
L 106.25691 80.83726 
L 112.500182 85.343613 
L 118.682245 90.023285 
L 124.864308 94.876276 
L 131.046371 101.115838 
L 137.228434 103.715653 
L 143.410498 109.781886 
L 149.592561 112.901667 
L 155.774624 123.647583 
L 161.956687 129.367179 
L 168.13875 141.326337 
L 174.320813 151.378956 
L 180.502877 166.631215 
L 186.68494 178.070411 
L 192.867003 185.176578 
L 199.049066 195.2292 
L 205.231129 205.455146 
L 211.413192 208.228285 
L 217.595255 213.757229 
L 223.777319 216.513034 
L 229.959382 220.014121 
L 236.141445 220.066117 
L 242.323508 222.215299 
L 248.505571 221.522014 
L 254.687634 224.416478 
L 260.869697 225.456404 
L 267.051761 226.444334 
L 273.233824 227.016294 
L 279.415887 226.496331 
L 285.59795 228.073553 
L 291.780013 228.583117 
L 297.962076 228.752972 
L 304.14414 229.323198 
L 310.326203 229.893425 
L 316.508266 229.893425 
L 322.690329 229.893425 
L 328.872392 229.893425 
L 335.054455 229.893425 
L 341.236518 229.893425 
L 347.418582 229.893425 
L 353.600645 229.893425 
L 359.782708 229.893425 
L 365.964771 229.893425 
L 372.146834 229.893425 
L 378.328897 229.893425 
L 384.51096 229.893425 
L 390.693024 229.893425 
L 396.875087 229.893425 
L 403.05715 229.893425 
L 409.239213 229.893425 
L 415.421276 229.893425 
" clip-path="url(#p0ea3f700cb)" style="fill: none; stroke-dasharray: 5.55,2.4; stroke-dashoffset: 0; stroke: #a9a9a9; stroke-width: 1.5"/>
   </g>
   <g id="line2d_16">
    <path d="M -1 56.745625 
L 1.161837 56.745625 
L 7.3439 56.918944 
L 13.525963 56.918944 
L 19.708026 57.092273 
L 25.890089 57.265592 
L 32.072152 57.438911 
L 38.254216 57.958878 
L 44.436279 58.652164 
L 50.618342 59.345439 
L 56.800405 60.385373 
L 62.982468 62.118583 
L 69.164531 62.985187 
L 75.346594 64.891716 
L 81.528658 66.798255 
L 87.710721 69.571388 
L 93.892784 72.171202 
L 100.074847 76.850874 
L 106.25691 79.970655 
L 112.500182 84.477008 
L 118.682245 88.116746 
L 124.864308 90.543242 
L 131.046371 95.569562 
L 137.228434 100.075904 
L 143.410498 105.102214 
L 149.592561 108.048677 
L 155.774624 114.981525 
L 161.956687 125.207474 
L 168.13875 131.620355 
L 174.320813 141.672975 
L 180.502877 156.57859 
L 186.68494 172.004172 
L 192.867003 174.95063 
L 199.049066 190.896174 
L 205.231129 197.309055 
L 211.413192 206.321751 
L 217.595255 210.828102 
L 223.777319 213.046612 
L 229.959382 218.402235 
L 236.141445 219.494158 
L 242.323508 215.958407 
L 248.505571 224.919109 
L 254.687634 222.509945 
L 260.869697 225.855043 
L 267.051761 227.744243 
L 273.233824 225.976367 
L 279.415887 225.681721 
L 285.59795 229.090948 
L 291.780013 227.952228 
L 297.962076 228.539787 
L 304.14414 229.893425 
L 310.326203 227.362936 
L 316.508266 229.893425 
L 322.690329 229.893425 
L 328.872392 229.893425 
L 335.054455 229.893425 
L 341.236518 229.893425 
L 347.418582 229.893425 
L 353.600645 229.893425 
L 359.782708 229.893425 
L 365.964771 229.893425 
L 372.146834 229.893425 
L 378.328897 229.893425 
L 384.51096 229.893425 
L 390.693024 229.893425 
L 396.875087 229.893425 
L 403.05715 229.893425 
L 409.239213 229.893425 
L 415.421276 229.893425 
" clip-path="url(#p0ea3f700cb)" style="fill: none; stroke-dasharray: 1.5,2.475; stroke-dashoffset: 0; stroke: #808080; stroke-width: 1.5"/>
   </g>
   <g id="patch_3">
    <path d="M 48.17 238.559481 
L 48.17 47.90625 
" style="fill: none; stroke: #000000; stroke-width: 0.8; stroke-linejoin: miter; stroke-linecap: square"/>
   </g>
   <g id="patch_4">
    <path d="M 354.21273 238.559481 
L 354.21273 47.90625 
" style="fill: none; stroke: #000000; stroke-width: 0.8; stroke-linejoin: miter; stroke-linecap: square"/>
   </g>
   <g id="patch_5">
    <path d="M 48.17 238.559481 
L 354.21273 238.559481 
" style="fill: none; stroke: #000000; stroke-width: 0.8; stroke-linejoin: miter; stroke-linecap: square"/>
   </g>
   <g id="patch_6">
    <path d="M 48.17 47.90625 
L 354.21273 47.90625 
" style="fill: none; stroke: #000000; stroke-width: 0.8; stroke-linejoin: miter; stroke-linecap: square"/>
   </g>
   <g id="text_15">
    <!-- TM-align -->
    <g transform="translate(175.562928 41.90625) scale(0.12 -0.12)">
     <defs>
      <path id="DejaVuSans-2d" d="M 313 2009 
L 1997 2009 
L 1997 1497 
L 313 1497 
L 313 2009 
z
" transform="scale(0.015625)"/>
      <path id="DejaVuSans-61" d="M 2194 1759 
Q 1497 1759 1228 1600 
Q 959 1441 959 1056 
Q 959 750 1161 570 
Q 1363 391 1709 391 
Q 2188 391 2477 730 
Q 2766 1069 2766 1631 
L 2766 1759 
L 2194 1759 
z
M 3341 1997 
L 3341 0 
L 2766 0 
L 2766 531 
Q 2569 213 2275 61 
Q 1981 -91 1556 -91 
Q 1019 -91 701 211 
Q 384 513 384 1019 
Q 384 1609 779 1909 
Q 1175 2209 1959 2209 
L 2766 2209 
L 2766 2266 
Q 2766 2663 2505 2880 
Q 2244 3097 1772 3097 
Q 1472 3097 1187 3025 
Q 903 2953 641 2809 
L 641 3341 
Q 956 3463 1253 3523 
Q 1550 3584 1831 3584 
Q 2591 3584 2966 3190 
Q 3341 2797 3341 1997 
z
" transform="scale(0.015625)"/>
      <path id="DejaVuSans-6c" d="M 603 4863 
L 1178 4863 
L 1178 0 
L 603 0 
L 603 4863 
z
" transform="scale(0.015625)"/>
      <path id="DejaVuSans-69" d="M 603 3500 
L 1178 3500 
L 1178 0 
L 603 0 
L 603 3500 
z
M 603 4863 
L 1178 4863 
L 1178 4134 
L 603 4134 
L 603 4863 
z
" transform="scale(0.015625)"/>
      <path id="DejaVuSans-67" d="M 2906 1791 
Q 2906 2416 2648 2759 
Q 2391 3103 1925 3103 
Q 1463 3103 1205 2759 
Q 947 2416 947 1791 
Q 947 1169 1205 825 
Q 1463 481 1925 481 
Q 2391 481 2648 825 
Q 2906 1169 2906 1791 
z
M 3481 434 
Q 3481 -459 3084 -895 
Q 2688 -1331 1869 -1331 
Q 1566 -1331 1297 -1286 
Q 1028 -1241 775 -1147 
L 775 -588 
Q 1028 -725 1275 -790 
Q 1522 -856 1778 -856 
Q 2344 -856 2625 -561 
Q 2906 -266 2906 331 
L 2906 616 
Q 2728 306 2450 153 
Q 2172 0 1784 0 
Q 1141 0 747 490 
Q 353 981 353 1791 
Q 353 2603 747 3093 
Q 1141 3584 1784 3584 
Q 2172 3584 2450 3431 
Q 2728 3278 2906 2969 
L 2906 3500 
L 3481 3500 
L 3481 434 
z
" transform="scale(0.015625)"/>
      <path id="DejaVuSans-6e" d="M 3513 2113 
L 3513 0 
L 2938 0 
L 2938 2094 
Q 2938 2591 2744 2837 
Q 2550 3084 2163 3084 
Q 1697 3084 1428 2787 
Q 1159 2491 1159 1978 
L 1159 0 
L 581 0 
L 581 3500 
L 1159 3500 
L 1159 2956 
Q 1366 3272 1645 3428 
Q 1925 3584 2291 3584 
Q 2894 3584 3203 3211 
Q 3513 2838 3513 2113 
z
" transform="scale(0.015625)"/>
     </defs>
     <use xlink:href="#DejaVuSans-54"/>
     <use xlink:href="#DejaVuSans-4d" transform="translate(61.083984 0)"/>
     <use xlink:href="#DejaVuSans-2d" transform="translate(147.363281 0)"/>
     <use xlink:href="#DejaVuSans-61" transform="translate(183.447266 0)"/>
     <use xlink:href="#DejaVuSans-6c" transform="translate(244.726562 0)"/>
     <use xlink:href="#DejaVuSans-69" transform="translate(272.509766 0)"/>
     <use xlink:href="#DejaVuSans-67" transform="translate(300.292969 0)"/>
     <use xlink:href="#DejaVuSans-6e" transform="translate(363.769531 0)"/>
    </g>
   </g>
   <g id="legend_1">
    <g id="patch_7">
     <path d="M 265.523668 114.61875 
L 347.21273 114.61875 
Q 349.21273 114.61875 349.21273 112.61875 
L 349.21273 54.90625 
Q 349.21273 52.90625 347.21273 52.90625 
L 265.523668 52.90625 
Q 263.523668 52.90625 263.523668 54.90625 
L 263.523668 112.61875 
Q 263.523668 114.61875 265.523668 114.61875 
z
" style="fill: #ffffff; opacity: 0.8; stroke: #cccccc; stroke-linejoin: miter"/>
    </g>
    <g id="line2d_17">
     <path d="M 267.523668 61.004687 
L 277.523668 61.004687 
L 287.523668 61.004687 
" style="fill: none; stroke: #000000; stroke-width: 1.5; stroke-linecap: square"/>
    </g>
    <g id="text_16">
     <!-- SCOP40 -->
     <g transform="translate(295.523668 64.504687) scale(0.1 -0.1)">
      <defs>
       <path id="DejaVuSans-53" d="M 3425 4513 
L 3425 3897 
Q 3066 4069 2747 4153 
Q 2428 4238 2131 4238 
Q 1616 4238 1336 4038 
Q 1056 3838 1056 3469 
Q 1056 3159 1242 3001 
Q 1428 2844 1947 2747 
L 2328 2669 
Q 3034 2534 3370 2195 
Q 3706 1856 3706 1288 
Q 3706 609 3251 259 
Q 2797 -91 1919 -91 
Q 1588 -91 1214 -16 
Q 841 59 441 206 
L 441 856 
Q 825 641 1194 531 
Q 1563 422 1919 422 
Q 2459 422 2753 634 
Q 3047 847 3047 1241 
Q 3047 1584 2836 1778 
Q 2625 1972 2144 2069 
L 1759 2144 
Q 1053 2284 737 2584 
Q 422 2884 422 3419 
Q 422 4038 858 4394 
Q 1294 4750 2059 4750 
Q 2388 4750 2728 4690 
Q 3069 4631 3425 4513 
z
" transform="scale(0.015625)"/>
       <path id="DejaVuSans-43" d="M 4122 4306 
L 4122 3641 
Q 3803 3938 3442 4084 
Q 3081 4231 2675 4231 
Q 1875 4231 1450 3742 
Q 1025 3253 1025 2328 
Q 1025 1406 1450 917 
Q 1875 428 2675 428 
Q 3081 428 3442 575 
Q 3803 722 4122 1019 
L 4122 359 
Q 3791 134 3420 21 
Q 3050 -91 2638 -91 
Q 1578 -91 968 557 
Q 359 1206 359 2328 
Q 359 3453 968 4101 
Q 1578 4750 2638 4750 
Q 3056 4750 3426 4639 
Q 3797 4528 4122 4306 
z
" transform="scale(0.015625)"/>
       <path id="DejaVuSans-4f" d="M 2522 4238 
Q 1834 4238 1429 3725 
Q 1025 3213 1025 2328 
Q 1025 1447 1429 934 
Q 1834 422 2522 422 
Q 3209 422 3611 934 
Q 4013 1447 4013 2328 
Q 4013 3213 3611 3725 
Q 3209 4238 2522 4238 
z
M 2522 4750 
Q 3503 4750 4090 4092 
Q 4678 3434 4678 2328 
Q 4678 1225 4090 567 
Q 3503 -91 2522 -91 
Q 1538 -91 948 565 
Q 359 1222 359 2328 
Q 359 3434 948 4092 
Q 1538 4750 2522 4750 
z
" transform="scale(0.015625)"/>
      </defs>
      <use xlink:href="#DejaVuSans-53"/>
      <use xlink:href="#DejaVuSans-43" transform="translate(63.476562 0)"/>
      <use xlink:href="#DejaVuSans-4f" transform="translate(133.300781 0)"/>
      <use xlink:href="#DejaVuSans-50" transform="translate(212.011719 0)"/>
      <use xlink:href="#DejaVuSans-34" transform="translate(272.314453 0)"/>
      <use xlink:href="#DejaVuSans-30" transform="translate(335.9375 0)"/>
     </g>
    </g>
    <g id="line2d_18">
     <path d="M 267.523668 75.682812 
L 277.523668 75.682812 
L 287.523668 75.682812 
" style="fill: none; stroke: #a9a9a9; stroke-width: 1.5; stroke-linecap: square"/>
    </g>
    <g id="text_17">
     <!-- SCOP40/2 -->
     <g transform="translate(295.523668 79.182812) scale(0.1 -0.1)">
      <defs>
       <path id="DejaVuSans-2f" d="M 1625 4666 
L 2156 4666 
L 531 -594 
L 0 -594 
L 1625 4666 
z
" transform="scale(0.015625)"/>
      </defs>
      <use xlink:href="#DejaVuSans-53"/>
      <use xlink:href="#DejaVuSans-43" transform="translate(63.476562 0)"/>
      <use xlink:href="#DejaVuSans-4f" transform="translate(133.300781 0)"/>
      <use xlink:href="#DejaVuSans-50" transform="translate(212.011719 0)"/>
      <use xlink:href="#DejaVuSans-34" transform="translate(272.314453 0)"/>
      <use xlink:href="#DejaVuSans-30" transform="translate(335.9375 0)"/>
      <use xlink:href="#DejaVuSans-2f" transform="translate(399.560547 0)"/>
      <use xlink:href="#DejaVuSans-32" transform="translate(433.251953 0)"/>
     </g>
    </g>
    <g id="line2d_19">
     <path d="M 267.523668 90.360937 
L 277.523668 90.360937 
L 287.523668 90.360937 
" style="fill: none; stroke-dasharray: 5.55,2.4; stroke-dashoffset: 0; stroke: #a9a9a9; stroke-width: 1.5"/>
    </g>
    <g id="text_18">
     <!-- SCOP40/4 -->
     <g transform="translate(295.523668 93.860937) scale(0.1 -0.1)">
      <use xlink:href="#DejaVuSans-53"/>
      <use xlink:href="#DejaVuSans-43" transform="translate(63.476562 0)"/>
      <use xlink:href="#DejaVuSans-4f" transform="translate(133.300781 0)"/>
      <use xlink:href="#DejaVuSans-50" transform="translate(212.011719 0)"/>
      <use xlink:href="#DejaVuSans-34" transform="translate(272.314453 0)"/>
      <use xlink:href="#DejaVuSans-30" transform="translate(335.9375 0)"/>
      <use xlink:href="#DejaVuSans-2f" transform="translate(399.560547 0)"/>
      <use xlink:href="#DejaVuSans-34" transform="translate(433.251953 0)"/>
     </g>
    </g>
    <g id="line2d_20">
     <path d="M 267.523668 105.039062 
L 277.523668 105.039062 
L 287.523668 105.039062 
" style="fill: none; stroke-dasharray: 1.5,2.475; stroke-dashoffset: 0; stroke: #808080; stroke-width: 1.5"/>
    </g>
    <g id="text_19">
     <!-- SCOP40/8 -->
     <g transform="translate(295.523668 108.539062) scale(0.1 -0.1)">
      <use xlink:href="#DejaVuSans-53"/>
      <use xlink:href="#DejaVuSans-43" transform="translate(63.476562 0)"/>
      <use xlink:href="#DejaVuSans-4f" transform="translate(133.300781 0)"/>
      <use xlink:href="#DejaVuSans-50" transform="translate(212.011719 0)"/>
      <use xlink:href="#DejaVuSans-34" transform="translate(272.314453 0)"/>
      <use xlink:href="#DejaVuSans-30" transform="translate(335.9375 0)"/>
      <use xlink:href="#DejaVuSans-2f" transform="translate(399.560547 0)"/>
      <use xlink:href="#DejaVuSans-38" transform="translate(433.251953 0)"/>
     </g>
    </g>
   </g>
  </g>
  <g id="axes_2">
   <g id="patch_8">
    <path d="M 418.418076 238.559481 
L 724.460806 238.559481 
L 724.460806 47.90625 
L 418.418076 47.90625 
z
" style="fill: #ffffff"/>
   </g>
   <g id="matplotlib.axis_3">
    <g id="xtick_7">
     <g id="line2d_21">
      <g>
       <use xlink:href="#m8a0b2009be" x="418.418076" y="238.559481" style="stroke: #000000; stroke-width: 0.8"/>
      </g>
     </g>
     <g id="text_20">
      <!-- 0.4 -->
      <g transform="translate(410.466514 253.157918) scale(0.1 -0.1)">
       <use xlink:href="#DejaVuSans-30"/>
       <use xlink:href="#DejaVuSans-2e" transform="translate(63.623047 0)"/>
       <use xlink:href="#DejaVuSans-34" transform="translate(95.410156 0)"/>
      </g>
     </g>
    </g>
    <g id="xtick_8">
     <g id="line2d_22">
      <g>
       <use xlink:href="#m8a0b2009be" x="479.626622" y="238.559481" style="stroke: #000000; stroke-width: 0.8"/>
      </g>
     </g>
     <g id="text_21">
      <!-- 0.5 -->
      <g transform="translate(471.67506 253.157918) scale(0.1 -0.1)">
       <use xlink:href="#DejaVuSans-30"/>
       <use xlink:href="#DejaVuSans-2e" transform="translate(63.623047 0)"/>
       <use xlink:href="#DejaVuSans-35" transform="translate(95.410156 0)"/>
      </g>
     </g>
    </g>
    <g id="xtick_9">
     <g id="line2d_23">
      <g>
       <use xlink:href="#m8a0b2009be" x="540.835168" y="238.559481" style="stroke: #000000; stroke-width: 0.8"/>
      </g>
     </g>
     <g id="text_22">
      <!-- 0.6 -->
      <g transform="translate(532.883606 253.157918) scale(0.1 -0.1)">
       <use xlink:href="#DejaVuSans-30"/>
       <use xlink:href="#DejaVuSans-2e" transform="translate(63.623047 0)"/>
       <use xlink:href="#DejaVuSans-36" transform="translate(95.410156 0)"/>
      </g>
     </g>
    </g>
    <g id="xtick_10">
     <g id="line2d_24">
      <g>
       <use xlink:href="#m8a0b2009be" x="602.043714" y="238.559481" style="stroke: #000000; stroke-width: 0.8"/>
      </g>
     </g>
     <g id="text_23">
      <!-- 0.7 -->
      <g transform="translate(594.092152 253.157918) scale(0.1 -0.1)">
       <use xlink:href="#DejaVuSans-30"/>
       <use xlink:href="#DejaVuSans-2e" transform="translate(63.623047 0)"/>
       <use xlink:href="#DejaVuSans-37" transform="translate(95.410156 0)"/>
      </g>
     </g>
    </g>
    <g id="xtick_11">
     <g id="line2d_25">
      <g>
       <use xlink:href="#m8a0b2009be" x="663.25226" y="238.559481" style="stroke: #000000; stroke-width: 0.8"/>
      </g>
     </g>
     <g id="text_24">
      <!-- 0.8 -->
      <g transform="translate(655.300698 253.157918) scale(0.1 -0.1)">
       <use xlink:href="#DejaVuSans-30"/>
       <use xlink:href="#DejaVuSans-2e" transform="translate(63.623047 0)"/>
       <use xlink:href="#DejaVuSans-38" transform="translate(95.410156 0)"/>
      </g>
     </g>
    </g>
    <g id="xtick_12">
     <g id="line2d_26">
      <g>
       <use xlink:href="#m8a0b2009be" x="724.460806" y="238.559481" style="stroke: #000000; stroke-width: 0.8"/>
      </g>
     </g>
     <g id="text_25">
      <!-- 0.9 -->
      <g transform="translate(716.509244 253.157918) scale(0.1 -0.1)">
       <use xlink:href="#DejaVuSans-30"/>
       <use xlink:href="#DejaVuSans-2e" transform="translate(63.623047 0)"/>
       <use xlink:href="#DejaVuSans-39" transform="translate(95.410156 0)"/>
      </g>
     </g>
    </g>
    <g id="text_26">
     <!-- TM score -->
     <g transform="translate(549.049598 266.836043) scale(0.1 -0.1)">
      <use xlink:href="#DejaVuSans-54"/>
      <use xlink:href="#DejaVuSans-4d" transform="translate(61.083984 0)"/>
      <use xlink:href="#DejaVuSans-20" transform="translate(147.363281 0)"/>
      <use xlink:href="#DejaVuSans-73" transform="translate(179.150391 0)"/>
      <use xlink:href="#DejaVuSans-63" transform="translate(231.25 0)"/>
      <use xlink:href="#DejaVuSans-6f" transform="translate(286.230469 0)"/>
      <use xlink:href="#DejaVuSans-72" transform="translate(347.412109 0)"/>
      <use xlink:href="#DejaVuSans-65" transform="translate(386.275391 0)"/>
     </g>
    </g>
   </g>
   <g id="matplotlib.axis_4">
    <g id="ytick_7">
     <g id="line2d_27">
      <g>
       <use xlink:href="#m2277cc9f6f" x="418.418076" y="238.559481" style="stroke: #000000; stroke-width: 0.8"/>
      </g>
     </g>
     <g id="text_27">
      <!-- $\mathdefault{10^{-3}}$ -->
      <g transform="translate(387.918076 242.358699) scale(0.1 -0.1)">
       <defs>
        <path id="DejaVuSans-2212" d="M 678 2272 
L 4684 2272 
L 4684 1741 
L 678 1741 
L 678 2272 
z
" transform="scale(0.015625)"/>
        <path id="DejaVuSans-33" d="M 2597 2516 
Q 3050 2419 3304 2112 
Q 3559 1806 3559 1356 
Q 3559 666 3084 287 
Q 2609 -91 1734 -91 
Q 1441 -91 1130 -33 
Q 819 25 488 141 
L 488 750 
Q 750 597 1062 519 
Q 1375 441 1716 441 
Q 2309 441 2620 675 
Q 2931 909 2931 1356 
Q 2931 1769 2642 2001 
Q 2353 2234 1838 2234 
L 1294 2234 
L 1294 2753 
L 1863 2753 
Q 2328 2753 2575 2939 
Q 2822 3125 2822 3475 
Q 2822 3834 2567 4026 
Q 2313 4219 1838 4219 
Q 1578 4219 1281 4162 
Q 984 4106 628 3988 
L 628 4550 
Q 988 4650 1302 4700 
Q 1616 4750 1894 4750 
Q 2613 4750 3031 4423 
Q 3450 4097 3450 3541 
Q 3450 3153 3228 2886 
Q 3006 2619 2597 2516 
z
" transform="scale(0.015625)"/>
       </defs>
       <use xlink:href="#DejaVuSans-31" transform="translate(0 0.765625)"/>
       <use xlink:href="#DejaVuSans-30" transform="translate(63.623047 0.765625)"/>
       <use xlink:href="#DejaVuSans-2212" transform="translate(128.203125 39.046875) scale(0.7)"/>
       <use xlink:href="#DejaVuSans-33" transform="translate(186.855469 39.046875) scale(0.7)"/>
      </g>
     </g>
    </g>
    <g id="ytick_8">
     <g id="line2d_28">
      <g>
       <use xlink:href="#m2277cc9f6f" x="418.418076" y="180.803801" style="stroke: #000000; stroke-width: 0.8"/>
      </g>
     </g>
     <g id="text_28">
      <!-- $\mathdefault{10^{-2}}$ -->
      <g transform="translate(387.918076 184.60302) scale(0.1 -0.1)">
       <use xlink:href="#DejaVuSans-31" transform="translate(0 0.765625)"/>
       <use xlink:href="#DejaVuSans-30" transform="translate(63.623047 0.765625)"/>
       <use xlink:href="#DejaVuSans-2212" transform="translate(128.203125 39.046875) scale(0.7)"/>
       <use xlink:href="#DejaVuSans-32" transform="translate(186.855469 39.046875) scale(0.7)"/>
      </g>
     </g>
    </g>
    <g id="ytick_9">
     <g id="line2d_29">
      <g>
       <use xlink:href="#m2277cc9f6f" x="418.418076" y="123.048121" style="stroke: #000000; stroke-width: 0.8"/>
      </g>
     </g>
     <g id="text_29">
      <!-- $\mathdefault{10^{-1}}$ -->
      <g transform="translate(387.918076 126.84734) scale(0.1 -0.1)">
       <use xlink:href="#DejaVuSans-31" transform="translate(0 0.684375)"/>
       <use xlink:href="#DejaVuSans-30" transform="translate(63.623047 0.684375)"/>
       <use xlink:href="#DejaVuSans-2212" transform="translate(128.203125 38.965625) scale(0.7)"/>
       <use xlink:href="#DejaVuSans-31" transform="translate(186.855469 38.965625) scale(0.7)"/>
      </g>
     </g>
    </g>
    <g id="ytick_10">
     <g id="line2d_30">
      <g>
       <use xlink:href="#m2277cc9f6f" x="418.418076" y="65.292442" style="stroke: #000000; stroke-width: 0.8"/>
      </g>
     </g>
     <g id="text_30">
      <!-- $\mathdefault{10^{0}}$ -->
      <g transform="translate(393.818076 69.091661) scale(0.1 -0.1)">
       <use xlink:href="#DejaVuSans-31" transform="translate(0 0.765625)"/>
       <use xlink:href="#DejaVuSans-30" transform="translate(63.623047 0.765625)"/>
       <use xlink:href="#DejaVuSans-30" transform="translate(128.203125 39.046875) scale(0.7)"/>
      </g>
     </g>
    </g>
    <g id="ytick_11">
     <g id="line2d_31">
      <defs>
       <path id="mec8fada8fc" d="M 0 0 
L -2 0 
" style="stroke: #000000; stroke-width: 0.6"/>
      </defs>
      <g>
       <use xlink:href="#mec8fada8fc" x="418.418076" y="221.173289" style="stroke: #000000; stroke-width: 0.6"/>
      </g>
     </g>
    </g>
    <g id="ytick_12">
     <g id="line2d_32">
      <g>
       <use xlink:href="#mec8fada8fc" x="418.418076" y="211.003018" style="stroke: #000000; stroke-width: 0.6"/>
      </g>
     </g>
    </g>
    <g id="ytick_13">
     <g id="line2d_33">
      <g>
       <use xlink:href="#mec8fada8fc" x="418.418076" y="203.787097" style="stroke: #000000; stroke-width: 0.6"/>
      </g>
     </g>
    </g>
    <g id="ytick_14">
     <g id="line2d_34">
      <g>
       <use xlink:href="#mec8fada8fc" x="418.418076" y="198.189993" style="stroke: #000000; stroke-width: 0.6"/>
      </g>
     </g>
    </g>
    <g id="ytick_15">
     <g id="line2d_35">
      <g>
       <use xlink:href="#mec8fada8fc" x="418.418076" y="193.616826" style="stroke: #000000; stroke-width: 0.6"/>
      </g>
     </g>
    </g>
    <g id="ytick_16">
     <g id="line2d_36">
      <g>
       <use xlink:href="#mec8fada8fc" x="418.418076" y="189.750269" style="stroke: #000000; stroke-width: 0.6"/>
      </g>
     </g>
    </g>
    <g id="ytick_17">
     <g id="line2d_37">
      <g>
       <use xlink:href="#mec8fada8fc" x="418.418076" y="186.400905" style="stroke: #000000; stroke-width: 0.6"/>
      </g>
     </g>
    </g>
    <g id="ytick_18">
     <g id="line2d_38">
      <g>
       <use xlink:href="#mec8fada8fc" x="418.418076" y="183.446556" style="stroke: #000000; stroke-width: 0.6"/>
      </g>
     </g>
    </g>
    <g id="ytick_19">
     <g id="line2d_39">
      <g>
       <use xlink:href="#mec8fada8fc" x="418.418076" y="163.417609" style="stroke: #000000; stroke-width: 0.6"/>
      </g>
     </g>
    </g>
    <g id="ytick_20">
     <g id="line2d_40">
      <g>
       <use xlink:href="#mec8fada8fc" x="418.418076" y="153.247339" style="stroke: #000000; stroke-width: 0.6"/>
      </g>
     </g>
    </g>
    <g id="ytick_21">
     <g id="line2d_41">
      <g>
       <use xlink:href="#mec8fada8fc" x="418.418076" y="146.031417" style="stroke: #000000; stroke-width: 0.6"/>
      </g>
     </g>
    </g>
    <g id="ytick_22">
     <g id="line2d_42">
      <g>
       <use xlink:href="#mec8fada8fc" x="418.418076" y="140.434313" style="stroke: #000000; stroke-width: 0.6"/>
      </g>
     </g>
    </g>
    <g id="ytick_23">
     <g id="line2d_43">
      <g>
       <use xlink:href="#mec8fada8fc" x="418.418076" y="135.861147" style="stroke: #000000; stroke-width: 0.6"/>
      </g>
     </g>
    </g>
    <g id="ytick_24">
     <g id="line2d_44">
      <g>
       <use xlink:href="#mec8fada8fc" x="418.418076" y="131.994589" style="stroke: #000000; stroke-width: 0.6"/>
      </g>
     </g>
    </g>
    <g id="ytick_25">
     <g id="line2d_45">
      <g>
       <use xlink:href="#mec8fada8fc" x="418.418076" y="128.645225" style="stroke: #000000; stroke-width: 0.6"/>
      </g>
     </g>
    </g>
    <g id="ytick_26">
     <g id="line2d_46">
      <g>
       <use xlink:href="#mec8fada8fc" x="418.418076" y="125.690876" style="stroke: #000000; stroke-width: 0.6"/>
      </g>
     </g>
    </g>
    <g id="ytick_27">
     <g id="line2d_47">
      <g>
       <use xlink:href="#mec8fada8fc" x="418.418076" y="105.66193" style="stroke: #000000; stroke-width: 0.6"/>
      </g>
     </g>
    </g>
    <g id="ytick_28">
     <g id="line2d_48">
      <g>
       <use xlink:href="#mec8fada8fc" x="418.418076" y="95.491659" style="stroke: #000000; stroke-width: 0.6"/>
      </g>
     </g>
    </g>
    <g id="ytick_29">
     <g id="line2d_49">
      <g>
       <use xlink:href="#mec8fada8fc" x="418.418076" y="88.275738" style="stroke: #000000; stroke-width: 0.6"/>
      </g>
     </g>
    </g>
    <g id="ytick_30">
     <g id="line2d_50">
      <g>
       <use xlink:href="#mec8fada8fc" x="418.418076" y="82.678634" style="stroke: #000000; stroke-width: 0.6"/>
      </g>
     </g>
    </g>
    <g id="ytick_31">
     <g id="line2d_51">
      <g>
       <use xlink:href="#mec8fada8fc" x="418.418076" y="78.105467" style="stroke: #000000; stroke-width: 0.6"/>
      </g>
     </g>
    </g>
    <g id="ytick_32">
     <g id="line2d_52">
      <g>
       <use xlink:href="#mec8fada8fc" x="418.418076" y="74.23891" style="stroke: #000000; stroke-width: 0.6"/>
      </g>
     </g>
    </g>
    <g id="ytick_33">
     <g id="line2d_53">
      <g>
       <use xlink:href="#mec8fada8fc" x="418.418076" y="70.889546" style="stroke: #000000; stroke-width: 0.6"/>
      </g>
     </g>
    </g>
    <g id="ytick_34">
     <g id="line2d_54">
      <g>
       <use xlink:href="#mec8fada8fc" x="418.418076" y="67.935197" style="stroke: #000000; stroke-width: 0.6"/>
      </g>
     </g>
    </g>
    <g id="ytick_35">
     <g id="line2d_55">
      <g>
       <use xlink:href="#mec8fada8fc" x="418.418076" y="47.90625" style="stroke: #000000; stroke-width: 0.6"/>
      </g>
     </g>
    </g>
    <g id="text_31">
     <!-- P(F|score) -->
     <g transform="translate(381.560264 168.14224) rotate(-90) scale(0.1 -0.1)">
      <use xlink:href="#DejaVuSans-50"/>
      <use xlink:href="#DejaVuSans-28" transform="translate(60.302734 0)"/>
      <use xlink:href="#DejaVuSans-46" transform="translate(99.316406 0)"/>
      <use xlink:href="#DejaVuSans-7c" transform="translate(156.835938 0)"/>
      <use xlink:href="#DejaVuSans-73" transform="translate(190.527344 0)"/>
      <use xlink:href="#DejaVuSans-63" transform="translate(242.626953 0)"/>
      <use xlink:href="#DejaVuSans-6f" transform="translate(297.607422 0)"/>
      <use xlink:href="#DejaVuSans-72" transform="translate(358.789062 0)"/>
      <use xlink:href="#DejaVuSans-65" transform="translate(397.652344 0)"/>
      <use xlink:href="#DejaVuSans-29" transform="translate(459.175781 0)"/>
     </g>
    </g>
   </g>
   <g id="line2d_56">
    <path d="M 198.289 281.519481 
L 198.312145 65.292442 
L 204.500329 65.292442 
L 210.682392 65.292442 
L 216.864455 65.292442 
L 223.046518 65.292442 
L 229.228581 65.292442 
L 235.404524 65.297458 
L 241.586587 65.292442 
L 247.76865 65.292442 
L 253.950713 65.294951 
L 260.132776 65.292442 
L 266.314839 65.294951 
L 272.496903 65.294951 
L 278.678966 65.294951 
L 284.861029 65.294951 
L 291.043092 65.294951 
L 297.225155 65.294951 
L 303.407218 65.294951 
L 309.589281 65.294951 
L 315.771345 65.294951 
L 321.953408 65.294951 
L 328.135471 65.297458 
L 334.317534 65.297458 
L 340.499597 65.297458 
L 346.68166 65.299968 
L 352.863723 65.302477 
L 359.045787 65.304987 
L 365.22785 65.312517 
L 371.409913 65.320049 
L 377.591976 65.332608 
L 383.774039 65.345171 
L 389.956102 65.362772 
L 396.138166 65.390457 
L 402.320229 65.435824 
L 408.502292 65.493913 
L 414.684355 65.582568 
L 420.866418 65.686821 
L 427.048481 65.832482 
L 433.230544 66.020273 
L 439.412608 66.279827 
L 445.594671 66.568471 
L 451.776734 66.91126 
L 457.958797 67.307677 
L 464.14086 67.776838 
L 470.322923 68.407838 
L 476.504986 68.99981 
L 482.748258 69.794475 
L 488.930321 70.503742 
L 495.112384 71.306866 
L 501.294448 72.219075 
L 507.476511 72.933338 
L 513.658574 73.791432 
L 519.840637 74.95494 
L 526.0227 76.67548 
L 532.204763 78.017829 
L 538.386827 80.406827 
L 544.56889 83.18026 
L 550.750953 87.473508 
L 556.933016 90.312726 
L 563.115079 93.755539 
L 569.297142 99.597643 
L 575.479205 105.549309 
L 581.661269 111.056057 
L 587.843332 116.332545 
L 594.025395 121.633934 
L 600.207458 125.306445 
L 606.389521 131.951627 
L 612.571584 137.355418 
L 618.753647 138.788859 
L 624.935711 148.556005 
L 631.117774 146.499798 
L 637.299837 158.740147 
L 643.4819 165.714387 
L 649.663963 162.810483 
L 655.846026 174.553096 
L 662.02809 172.149996 
L 668.210153 186.501437 
L 674.392216 201.186391 
L 680.574279 194.286198 
L 686.756342 238.334744 
L 692.938405 219.570153 
L 699.120468 234.450436 
L 699.125521 281.519481 
M 711.479071 281.519481 
L 711.484595 230.066065 
L 711.490118 281.519481 
" clip-path="url(#pcf7136a955)" style="fill: none; stroke: #000000; stroke-width: 1.5; stroke-linecap: square"/>
   </g>
   <g id="line2d_57">
    <path d="M 198.290855 281.519481 
L 198.312145 82.678634 
L 204.500329 65.292442 
L 210.682392 65.292442 
L 216.864455 65.292442 
L 223.046518 65.292442 
L 229.228581 65.292442 
L 235.404524 65.317537 
L 241.586587 65.292442 
L 247.76865 65.292442 
L 253.950713 65.292442 
L 260.132776 65.292442 
L 266.314839 65.292442 
L 272.496903 65.292442 
L 278.678966 65.292442 
L 284.861029 65.292442 
L 291.043092 65.292442 
L 297.225155 65.292442 
L 303.407218 65.292442 
L 309.589281 65.292442 
L 315.771345 65.292442 
L 321.953408 65.292442 
L 328.135471 65.292442 
L 334.317534 65.292442 
L 340.499597 65.292442 
L 346.68166 65.292442 
L 352.863723 65.292442 
L 359.045787 65.292442 
L 365.22785 65.317537 
L 371.409913 65.317537 
L 377.591976 65.317537 
L 383.774039 65.342657 
L 389.956102 65.367805 
L 396.138166 65.392975 
L 402.320229 65.418171 
L 408.502292 65.468641 
L 414.684355 65.569883 
L 420.866418 65.671537 
L 427.048481 65.799185 
L 433.230544 65.978993 
L 439.412608 66.264177 
L 445.594671 66.526279 
L 451.776734 66.871159 
L 457.958797 67.3839 
L 464.14086 67.658033 
L 470.322923 68.35677 
L 476.504986 68.872192 
L 482.748258 69.725536 
L 488.930321 70.239612 
L 495.112384 71.078376 
L 501.294448 71.946163 
L 507.476511 72.541829 
L 513.658574 73.289616 
L 519.840637 74.563497 
L 526.0227 75.867284 
L 532.204763 77.364046 
L 538.386827 79.657486 
L 544.56889 82.528585 
L 550.750953 86.114145 
L 556.933016 89.694691 
L 563.115079 92.873999 
L 569.297142 98.60327 
L 575.479205 106.685866 
L 581.661269 109.591272 
L 587.843332 115.894986 
L 594.025395 121.117709 
L 600.207458 124.760757 
L 606.389521 130.297509 
L 612.571584 136.539106 
L 618.753647 137.50227 
L 624.935711 149.960759 
L 631.117774 145.289994 
L 637.299837 155.612931 
L 643.4819 163.168026 
L 649.663963 159.803144 
L 655.846026 170.801311 
L 662.02809 169.811065 
L 668.210153 199.005771 
L 674.392216 183.224581 
L 674.402759 281.519481 
M 686.747962 281.519481 
L 686.756342 203.413645 
L 692.938405 202.444135 
L 692.946889 281.519481 
" clip-path="url(#pcf7136a955)" style="fill: none; stroke: #a9a9a9; stroke-width: 1.5; stroke-linecap: square"/>
   </g>
   <g id="line2d_58">
    <path d="M 204.479018 281.519481 
L 204.500329 82.678634 
L 210.682392 72.508364 
L 216.864455 65.292442 
L 223.046518 65.292442 
L 229.228581 65.292442 
L 235.404524 65.292442 
L 241.586587 65.292442 
L 247.76865 65.292442 
L 253.950713 65.292442 
L 260.132776 65.292442 
L 266.314839 65.292442 
L 272.496903 65.292442 
L 278.678966 65.292442 
L 284.861029 65.292442 
L 291.043092 65.292442 
L 297.225155 65.292442 
L 303.407218 65.292442 
L 309.589281 65.292442 
L 315.771345 65.292442 
L 321.953408 65.292442 
L 328.135471 65.292442 
L 334.317534 65.292442 
L 340.499597 65.292442 
L 346.68166 65.292442 
L 352.863723 65.292442 
L 359.045787 65.292442 
L 365.22785 65.317537 
L 371.409913 65.317537 
L 377.591976 65.342657 
L 383.774039 65.342657 
L 389.956102 65.367805 
L 396.138166 65.392975 
L 402.320229 65.418171 
L 408.502292 65.493913 
L 414.684355 65.569883 
L 420.866418 65.697014 
L 427.048481 65.824795 
L 433.230544 65.978993 
L 439.412608 66.238117 
L 445.594671 66.526279 
L 451.776734 66.924642 
L 457.958797 67.193775 
L 464.14086 67.796234 
L 470.322923 68.498883 
L 476.504986 69.075528 
L 482.748258 69.845551 
L 488.930321 70.671025 
L 495.112384 71.55677 
L 501.294448 72.743572 
L 507.476511 73.255138 
L 513.658574 74.491002 
L 519.840637 75.151118 
L 526.0227 77.567808 
L 532.204763 78.95582 
L 538.386827 82.132792 
L 544.56889 85.154723 
L 550.750953 90.572514 
L 556.933016 95.575409 
L 563.115079 99.274747 
L 569.297142 105.661929 
L 575.479205 114.42987 
L 581.661269 117.451018 
L 587.843332 124.841455 
L 594.025395 129.53886 
L 600.207458 137.147735 
L 606.389521 137.2801 
L 612.571584 143.470314 
L 618.753647 141.301969 
L 624.935711 151.944035 
L 631.117774 157.225625 
L 637.299837 163.543339 
L 643.4819 168.091309 
L 649.663963 163.924353 
L 655.846026 179.579999 
L 662.02809 187.819858 
L 668.210153 191.302289 
L 674.392216 208.688481 
L 674.400031 281.519481 
" clip-path="url(#pcf7136a955)" style="fill: none; stroke-dasharray: 5.55,2.4; stroke-dashoffset: 0; stroke: #a9a9a9; stroke-width: 1.5"/>
   </g>
   <g id="line2d_59">
    <path d="M 198.294567 281.519481 
L 198.312145 117.451018 
L 204.500329 117.451018 
L 210.682392 89.894556 
L 216.864455 89.894556 
L 223.046518 68.641806 
L 229.228581 65.292442 
L 235.404524 65.292442 
L 241.586587 65.292442 
L 247.76865 65.292442 
L 253.950713 65.292442 
L 260.132776 65.292442 
L 266.314839 65.292442 
L 272.496903 65.292442 
L 278.678966 65.292442 
L 284.861029 65.292442 
L 291.043092 65.292442 
L 297.225155 65.292442 
L 303.407218 65.292442 
L 309.589281 65.292442 
L 315.771345 65.292442 
L 321.953408 65.292442 
L 328.135471 65.292442 
L 334.317534 65.292442 
L 340.499597 65.292442 
L 346.68166 65.292442 
L 352.863723 65.292442 
L 359.045787 65.317537 
L 365.22785 65.317537 
L 371.409913 65.317537 
L 377.591976 65.342657 
L 383.774039 65.342657 
L 389.956102 65.367805 
L 396.138166 65.392975 
L 402.320229 65.418171 
L 408.502292 65.493913 
L 414.684355 65.595259 
L 420.866418 65.697014 
L 427.048481 65.850428 
L 433.230544 66.10822 
L 439.412608 66.238117 
L 445.594671 66.526279 
L 451.776734 66.817792 
L 457.958797 67.247949 
L 464.14086 67.658033 
L 470.322923 68.413518 
L 476.504986 68.930119 
L 482.748258 69.695622 
L 488.930321 70.331434 
L 495.112384 70.764443 
L 501.294448 71.685898 
L 507.476511 72.541829 
L 513.658574 73.5323 
L 519.840637 74.131641 
L 526.0227 75.60105 
L 532.204763 77.938804 
L 538.386827 79.524421 
L 544.56889 82.231156 
L 550.750953 86.873407 
L 556.933016 92.798789 
L 563.115079 94.109103 
L 569.297142 102.707581 
L 575.479205 107.213949 
L 581.661269 115.33549 
L 587.843332 120.657459 
L 594.025395 123.760465 
L 600.207458 133.35673 
L 606.389521 135.861147 
L 612.571584 128.520124 
L 618.753647 154.358521 
L 624.935711 144.451823 
L 631.117774 159.586911 
L 637.299837 175.408167 
L 643.4819 160.352027 
L 649.663963 158.532849 
L 655.846026 200.118399 
L 662.02809 177.961182 
L 668.210153 187.003814 
L 668.220291 281.519481 
M 680.562461 281.519481 
L 680.574279 171.31149 
L 680.586097 281.519481 
" clip-path="url(#pcf7136a955)" style="fill: none; stroke-dasharray: 1.5,2.475; stroke-dashoffset: 0; stroke: #808080; stroke-width: 1.5"/>
   </g>
   <g id="patch_9">
    <path d="M 418.418076 238.559481 
L 418.418076 47.90625 
" style="fill: none; stroke: #000000; stroke-width: 0.8; stroke-linejoin: miter; stroke-linecap: square"/>
   </g>
   <g id="patch_10">
    <path d="M 724.460806 238.559481 
L 724.460806 47.90625 
" style="fill: none; stroke: #000000; stroke-width: 0.8; stroke-linejoin: miter; stroke-linecap: square"/>
   </g>
   <g id="patch_11">
    <path d="M 418.418076 238.559481 
L 724.460806 238.559481 
" style="fill: none; stroke: #000000; stroke-width: 0.8; stroke-linejoin: miter; stroke-linecap: square"/>
   </g>
   <g id="patch_12">
    <path d="M 418.418076 47.90625 
L 724.460806 47.90625 
" style="fill: none; stroke: #000000; stroke-width: 0.8; stroke-linejoin: miter; stroke-linecap: square"/>
   </g>
   <g id="text_32">
    <!-- TM-align (logscale) -->
    <g transform="translate(514.614754 41.90625) scale(0.12 -0.12)">
     <use xlink:href="#DejaVuSans-54"/>
     <use xlink:href="#DejaVuSans-4d" transform="translate(61.083984 0)"/>
     <use xlink:href="#DejaVuSans-2d" transform="translate(147.363281 0)"/>
     <use xlink:href="#DejaVuSans-61" transform="translate(183.447266 0)"/>
     <use xlink:href="#DejaVuSans-6c" transform="translate(244.726562 0)"/>
     <use xlink:href="#DejaVuSans-69" transform="translate(272.509766 0)"/>
     <use xlink:href="#DejaVuSans-67" transform="translate(300.292969 0)"/>
     <use xlink:href="#DejaVuSans-6e" transform="translate(363.769531 0)"/>
     <use xlink:href="#DejaVuSans-20" transform="translate(427.148438 0)"/>
     <use xlink:href="#DejaVuSans-28" transform="translate(458.935547 0)"/>
     <use xlink:href="#DejaVuSans-6c" transform="translate(497.949219 0)"/>
     <use xlink:href="#DejaVuSans-6f" transform="translate(525.732422 0)"/>
     <use xlink:href="#DejaVuSans-67" transform="translate(586.914062 0)"/>
     <use xlink:href="#DejaVuSans-73" transform="translate(650.390625 0)"/>
     <use xlink:href="#DejaVuSans-63" transform="translate(702.490234 0)"/>
     <use xlink:href="#DejaVuSans-61" transform="translate(757.470703 0)"/>
     <use xlink:href="#DejaVuSans-6c" transform="translate(818.75 0)"/>
     <use xlink:href="#DejaVuSans-65" transform="translate(846.533203 0)"/>
     <use xlink:href="#DejaVuSans-29" transform="translate(908.056641 0)"/>
    </g>
   </g>
   <g id="legend_2">
    <g id="patch_13">
     <path d="M 635.771744 114.61875 
L 717.460806 114.61875 
Q 719.460806 114.61875 719.460806 112.61875 
L 719.460806 54.90625 
Q 719.460806 52.90625 717.460806 52.90625 
L 635.771744 52.90625 
Q 633.771744 52.90625 633.771744 54.90625 
L 633.771744 112.61875 
Q 633.771744 114.61875 635.771744 114.61875 
z
" style="fill: #ffffff; opacity: 0.8; stroke: #cccccc; stroke-linejoin: miter"/>
    </g>
    <g id="line2d_60">
     <path d="M 637.771744 61.004687 
L 647.771744 61.004687 
L 657.771744 61.004687 
" style="fill: none; stroke: #000000; stroke-width: 1.5; stroke-linecap: square"/>
    </g>
    <g id="text_33">
     <!-- SCOP40 -->
     <g transform="translate(665.771744 64.504687) scale(0.1 -0.1)">
      <use xlink:href="#DejaVuSans-53"/>
      <use xlink:href="#DejaVuSans-43" transform="translate(63.476562 0)"/>
      <use xlink:href="#DejaVuSans-4f" transform="translate(133.300781 0)"/>
      <use xlink:href="#DejaVuSans-50" transform="translate(212.011719 0)"/>
      <use xlink:href="#DejaVuSans-34" transform="translate(272.314453 0)"/>
      <use xlink:href="#DejaVuSans-30" transform="translate(335.9375 0)"/>
     </g>
    </g>
    <g id="line2d_61">
     <path d="M 637.771744 75.682812 
L 647.771744 75.682812 
L 657.771744 75.682812 
" style="fill: none; stroke: #a9a9a9; stroke-width: 1.5; stroke-linecap: square"/>
    </g>
    <g id="text_34">
     <!-- SCOP40/2 -->
     <g transform="translate(665.771744 79.182812) scale(0.1 -0.1)">
      <use xlink:href="#DejaVuSans-53"/>
      <use xlink:href="#DejaVuSans-43" transform="translate(63.476562 0)"/>
      <use xlink:href="#DejaVuSans-4f" transform="translate(133.300781 0)"/>
      <use xlink:href="#DejaVuSans-50" transform="translate(212.011719 0)"/>
      <use xlink:href="#DejaVuSans-34" transform="translate(272.314453 0)"/>
      <use xlink:href="#DejaVuSans-30" transform="translate(335.9375 0)"/>
      <use xlink:href="#DejaVuSans-2f" transform="translate(399.560547 0)"/>
      <use xlink:href="#DejaVuSans-32" transform="translate(433.251953 0)"/>
     </g>
    </g>
    <g id="line2d_62">
     <path d="M 637.771744 90.360937 
L 647.771744 90.360937 
L 657.771744 90.360937 
" style="fill: none; stroke-dasharray: 5.55,2.4; stroke-dashoffset: 0; stroke: #a9a9a9; stroke-width: 1.5"/>
    </g>
    <g id="text_35">
     <!-- SCOP40/4 -->
     <g transform="translate(665.771744 93.860937) scale(0.1 -0.1)">
      <use xlink:href="#DejaVuSans-53"/>
      <use xlink:href="#DejaVuSans-43" transform="translate(63.476562 0)"/>
      <use xlink:href="#DejaVuSans-4f" transform="translate(133.300781 0)"/>
      <use xlink:href="#DejaVuSans-50" transform="translate(212.011719 0)"/>
      <use xlink:href="#DejaVuSans-34" transform="translate(272.314453 0)"/>
      <use xlink:href="#DejaVuSans-30" transform="translate(335.9375 0)"/>
      <use xlink:href="#DejaVuSans-2f" transform="translate(399.560547 0)"/>
      <use xlink:href="#DejaVuSans-34" transform="translate(433.251953 0)"/>
     </g>
    </g>
    <g id="line2d_63">
     <path d="M 637.771744 105.039062 
L 647.771744 105.039062 
L 657.771744 105.039062 
" style="fill: none; stroke-dasharray: 1.5,2.475; stroke-dashoffset: 0; stroke: #808080; stroke-width: 1.5"/>
    </g>
    <g id="text_36">
     <!-- SCOP40/8 -->
     <g transform="translate(665.771744 108.539062) scale(0.1 -0.1)">
      <use xlink:href="#DejaVuSans-53"/>
      <use xlink:href="#DejaVuSans-43" transform="translate(63.476562 0)"/>
      <use xlink:href="#DejaVuSans-4f" transform="translate(133.300781 0)"/>
      <use xlink:href="#DejaVuSans-50" transform="translate(212.011719 0)"/>
      <use xlink:href="#DejaVuSans-34" transform="translate(272.314453 0)"/>
      <use xlink:href="#DejaVuSans-30" transform="translate(335.9375 0)"/>
      <use xlink:href="#DejaVuSans-2f" transform="translate(399.560547 0)"/>
      <use xlink:href="#DejaVuSans-38" transform="translate(433.251953 0)"/>
     </g>
    </g>
   </g>
  </g>
  <g id="text_37">
   <!-- ../plots/P_F_score.tm.dbsize.svg -->
   <g transform="translate(276.288841 14.728515) scale(0.12 -0.12)">
    <defs>
     <path id="DejaVuSans-70" d="M 1159 525 
L 1159 -1331 
L 581 -1331 
L 581 3500 
L 1159 3500 
L 1159 2969 
Q 1341 3281 1617 3432 
Q 1894 3584 2278 3584 
Q 2916 3584 3314 3078 
Q 3713 2572 3713 1747 
Q 3713 922 3314 415 
Q 2916 -91 2278 -91 
Q 1894 -91 1617 61 
Q 1341 213 1159 525 
z
M 3116 1747 
Q 3116 2381 2855 2742 
Q 2594 3103 2138 3103 
Q 1681 3103 1420 2742 
Q 1159 2381 1159 1747 
Q 1159 1113 1420 752 
Q 1681 391 2138 391 
Q 2594 391 2855 752 
Q 3116 1113 3116 1747 
z
" transform="scale(0.015625)"/>
     <path id="DejaVuSans-74" d="M 1172 4494 
L 1172 3500 
L 2356 3500 
L 2356 3053 
L 1172 3053 
L 1172 1153 
Q 1172 725 1289 603 
Q 1406 481 1766 481 
L 2356 481 
L 2356 0 
L 1766 0 
Q 1100 0 847 248 
Q 594 497 594 1153 
L 594 3053 
L 172 3053 
L 172 3500 
L 594 3500 
L 594 4494 
L 1172 4494 
z
" transform="scale(0.015625)"/>
     <path id="DejaVuSans-5f" d="M 3263 -1063 
L 3263 -1509 
L -63 -1509 
L -63 -1063 
L 3263 -1063 
z
" transform="scale(0.015625)"/>
     <path id="DejaVuSans-6d" d="M 3328 2828 
Q 3544 3216 3844 3400 
Q 4144 3584 4550 3584 
Q 5097 3584 5394 3201 
Q 5691 2819 5691 2113 
L 5691 0 
L 5113 0 
L 5113 2094 
Q 5113 2597 4934 2840 
Q 4756 3084 4391 3084 
Q 3944 3084 3684 2787 
Q 3425 2491 3425 1978 
L 3425 0 
L 2847 0 
L 2847 2094 
Q 2847 2600 2669 2842 
Q 2491 3084 2119 3084 
Q 1678 3084 1418 2786 
Q 1159 2488 1159 1978 
L 1159 0 
L 581 0 
L 581 3500 
L 1159 3500 
L 1159 2956 
Q 1356 3278 1631 3431 
Q 1906 3584 2284 3584 
Q 2666 3584 2933 3390 
Q 3200 3197 3328 2828 
z
" transform="scale(0.015625)"/>
     <path id="DejaVuSans-64" d="M 2906 2969 
L 2906 4863 
L 3481 4863 
L 3481 0 
L 2906 0 
L 2906 525 
Q 2725 213 2448 61 
Q 2172 -91 1784 -91 
Q 1150 -91 751 415 
Q 353 922 353 1747 
Q 353 2572 751 3078 
Q 1150 3584 1784 3584 
Q 2172 3584 2448 3432 
Q 2725 3281 2906 2969 
z
M 947 1747 
Q 947 1113 1208 752 
Q 1469 391 1925 391 
Q 2381 391 2643 752 
Q 2906 1113 2906 1747 
Q 2906 2381 2643 2742 
Q 2381 3103 1925 3103 
Q 1469 3103 1208 2742 
Q 947 2381 947 1747 
z
" transform="scale(0.015625)"/>
     <path id="DejaVuSans-62" d="M 3116 1747 
Q 3116 2381 2855 2742 
Q 2594 3103 2138 3103 
Q 1681 3103 1420 2742 
Q 1159 2381 1159 1747 
Q 1159 1113 1420 752 
Q 1681 391 2138 391 
Q 2594 391 2855 752 
Q 3116 1113 3116 1747 
z
M 1159 2969 
Q 1341 3281 1617 3432 
Q 1894 3584 2278 3584 
Q 2916 3584 3314 3078 
Q 3713 2572 3713 1747 
Q 3713 922 3314 415 
Q 2916 -91 2278 -91 
Q 1894 -91 1617 61 
Q 1341 213 1159 525 
L 1159 0 
L 581 0 
L 581 4863 
L 1159 4863 
L 1159 2969 
z
" transform="scale(0.015625)"/>
     <path id="DejaVuSans-7a" d="M 353 3500 
L 3084 3500 
L 3084 2975 
L 922 459 
L 3084 459 
L 3084 0 
L 275 0 
L 275 525 
L 2438 3041 
L 353 3041 
L 353 3500 
z
" transform="scale(0.015625)"/>
     <path id="DejaVuSans-76" d="M 191 3500 
L 800 3500 
L 1894 563 
L 2988 3500 
L 3597 3500 
L 2284 0 
L 1503 0 
L 191 3500 
z
" transform="scale(0.015625)"/>
    </defs>
    <use xlink:href="#DejaVuSans-2e"/>
    <use xlink:href="#DejaVuSans-2e" transform="translate(31.787109 0)"/>
    <use xlink:href="#DejaVuSans-2f" transform="translate(63.574219 0)"/>
    <use xlink:href="#DejaVuSans-70" transform="translate(97.265625 0)"/>
    <use xlink:href="#DejaVuSans-6c" transform="translate(160.742188 0)"/>
    <use xlink:href="#DejaVuSans-6f" transform="translate(188.525391 0)"/>
    <use xlink:href="#DejaVuSans-74" transform="translate(249.707031 0)"/>
    <use xlink:href="#DejaVuSans-73" transform="translate(288.916016 0)"/>
    <use xlink:href="#DejaVuSans-2f" transform="translate(341.015625 0)"/>
    <use xlink:href="#DejaVuSans-50" transform="translate(374.707031 0)"/>
    <use xlink:href="#DejaVuSans-5f" transform="translate(435.009766 0)"/>
    <use xlink:href="#DejaVuSans-46" transform="translate(485.009766 0)"/>
    <use xlink:href="#DejaVuSans-5f" transform="translate(542.529297 0)"/>
    <use xlink:href="#DejaVuSans-73" transform="translate(592.529297 0)"/>
    <use xlink:href="#DejaVuSans-63" transform="translate(644.628906 0)"/>
    <use xlink:href="#DejaVuSans-6f" transform="translate(699.609375 0)"/>
    <use xlink:href="#DejaVuSans-72" transform="translate(760.791016 0)"/>
    <use xlink:href="#DejaVuSans-65" transform="translate(799.654297 0)"/>
    <use xlink:href="#DejaVuSans-2e" transform="translate(861.177734 0)"/>
    <use xlink:href="#DejaVuSans-74" transform="translate(892.964844 0)"/>
    <use xlink:href="#DejaVuSans-6d" transform="translate(932.173828 0)"/>
    <use xlink:href="#DejaVuSans-2e" transform="translate(1029.585938 0)"/>
    <use xlink:href="#DejaVuSans-64" transform="translate(1061.373047 0)"/>
    <use xlink:href="#DejaVuSans-62" transform="translate(1124.849609 0)"/>
    <use xlink:href="#DejaVuSans-73" transform="translate(1188.326172 0)"/>
    <use xlink:href="#DejaVuSans-69" transform="translate(1240.425781 0)"/>
    <use xlink:href="#DejaVuSans-7a" transform="translate(1268.208984 0)"/>
    <use xlink:href="#DejaVuSans-65" transform="translate(1320.699219 0)"/>
    <use xlink:href="#DejaVuSans-2e" transform="translate(1382.222656 0)"/>
    <use xlink:href="#DejaVuSans-73" transform="translate(1414.009766 0)"/>
    <use xlink:href="#DejaVuSans-76" transform="translate(1466.109375 0)"/>
    <use xlink:href="#DejaVuSans-67" transform="translate(1525.289062 0)"/>
   </g>
  </g>
 </g>
 <defs>
  <clipPath id="p0ea3f700cb">
   <rect x="48.17" y="47.90625" width="306.04273" height="190.653231"/>
  </clipPath>
  <clipPath id="pcf7136a955">
   <rect x="418.418076" y="47.90625" width="306.04273" height="190.653231"/>
  </clipPath>
 </defs>
</svg>
