<?xml version="1.0" encoding="utf-8" standalone="no"?>
<!DOCTYPE svg PUBLIC "-//W3C//DTD SVG 1.1//EN"
  "http://www.w3.org/Graphics/SVG/1.1/DTD/svg11.dtd">
<svg xmlns:xlink="http://www.w3.org/1999/xlink" width="743.225806pt" height="280.519481pt" viewBox="0 0 743.225806 280.519481" xmlns="http://www.w3.org/2000/svg" version="1.1">
 <metadata>
  <rdf:RDF xmlns:dc="http://purl.org/dc/elements/1.1/" xmlns:cc="http://creativecommons.org/ns#" xmlns:rdf="http://www.w3.org/1999/02/22-rdf-syntax-ns#">
   <cc:Work>
    <dc:type rdf:resource="http://purl.org/dc/dcmitype/StillImage"/>
    <dc:date>2025-05-30T09:18:53.267207</dc:date>
    <dc:format>image/svg+xml</dc:format>
    <dc:creator>
     <cc:Agent>
      <dc:title>Matplotlib v3.9.2, https://matplotlib.org/</dc:title>
     </cc:Agent>
    </dc:creator>
   </cc:Work>
  </rdf:RDF>
 </metadata>
 <defs>
  <style type="text/css">*{stroke-linejoin: round; stroke-linecap: butt}</style>
 </defs>
 <g id="figure_1">
  <g id="patch_1">
   <path d="M 0 280.519481 
L 743.225806 280.519481 
L 743.225806 0 
L 0 0 
z
" style="fill: #ffffff"/>
  </g>
  <g id="axes_1">
   <g id="patch_2">
    <path d="M 48.17 238.559481 
L 352.643355 238.559481 
L 352.643355 47.90625 
L 48.17 47.90625 
z
" style="fill: #ffffff"/>
   </g>
   <g id="matplotlib.axis_1">
    <g id="xtick_1">
     <g id="line2d_1">
      <defs>
       <path id="m6d4ce91817" d="M 0 0 
L 0 3.5 
" style="stroke: #000000; stroke-width: 0.8"/>
      </defs>
      <g>
       <use xlink:href="#m6d4ce91817" x="66.080197" y="238.559481" style="stroke: #000000; stroke-width: 0.8"/>
      </g>
     </g>
     <g id="text_1">
      <!-- 40 -->
      <g transform="translate(59.717697 253.157918) scale(0.1 -0.1)">
       <defs>
        <path id="DejaVuSans-34" d="M 2419 4116 
L 825 1625 
L 2419 1625 
L 2419 4116 
z
M 2253 4666 
L 3047 4666 
L 3047 1625 
L 3713 1625 
L 3713 1100 
L 3047 1100 
L 3047 0 
L 2419 0 
L 2419 1100 
L 313 1100 
L 313 1709 
L 2253 4666 
z
" transform="scale(0.015625)"/>
        <path id="DejaVuSans-30" d="M 2034 4250 
Q 1547 4250 1301 3770 
Q 1056 3291 1056 2328 
Q 1056 1369 1301 889 
Q 1547 409 2034 409 
Q 2525 409 2770 889 
Q 3016 1369 3016 2328 
Q 3016 3291 2770 3770 
Q 2525 4250 2034 4250 
z
M 2034 4750 
Q 2819 4750 3233 4129 
Q 3647 3509 3647 2328 
Q 3647 1150 3233 529 
Q 2819 -91 2034 -91 
Q 1250 -91 836 529 
Q 422 1150 422 2328 
Q 422 3509 836 4129 
Q 1250 4750 2034 4750 
z
" transform="scale(0.015625)"/>
       </defs>
       <use xlink:href="#DejaVuSans-34"/>
       <use xlink:href="#DejaVuSans-30" x="63.623047"/>
      </g>
     </g>
    </g>
    <g id="xtick_2">
     <g id="line2d_2">
      <g>
       <use xlink:href="#m6d4ce91817" x="101.900592" y="238.559481" style="stroke: #000000; stroke-width: 0.8"/>
      </g>
     </g>
     <g id="text_2">
      <!-- 60 -->
      <g transform="translate(95.538092 253.157918) scale(0.1 -0.1)">
       <defs>
        <path id="DejaVuSans-36" d="M 2113 2584 
Q 1688 2584 1439 2293 
Q 1191 2003 1191 1497 
Q 1191 994 1439 701 
Q 1688 409 2113 409 
Q 2538 409 2786 701 
Q 3034 994 3034 1497 
Q 3034 2003 2786 2293 
Q 2538 2584 2113 2584 
z
M 3366 4563 
L 3366 3988 
Q 3128 4100 2886 4159 
Q 2644 4219 2406 4219 
Q 1781 4219 1451 3797 
Q 1122 3375 1075 2522 
Q 1259 2794 1537 2939 
Q 1816 3084 2150 3084 
Q 2853 3084 3261 2657 
Q 3669 2231 3669 1497 
Q 3669 778 3244 343 
Q 2819 -91 2113 -91 
Q 1303 -91 875 529 
Q 447 1150 447 2328 
Q 447 3434 972 4092 
Q 1497 4750 2381 4750 
Q 2619 4750 2861 4703 
Q 3103 4656 3366 4563 
z
" transform="scale(0.015625)"/>
       </defs>
       <use xlink:href="#DejaVuSans-36"/>
       <use xlink:href="#DejaVuSans-30" x="63.623047"/>
      </g>
     </g>
    </g>
    <g id="xtick_3">
     <g id="line2d_3">
      <g>
       <use xlink:href="#m6d4ce91817" x="137.720987" y="238.559481" style="stroke: #000000; stroke-width: 0.8"/>
      </g>
     </g>
     <g id="text_3">
      <!-- 80 -->
      <g transform="translate(131.358487 253.157918) scale(0.1 -0.1)">
       <defs>
        <path id="DejaVuSans-38" d="M 2034 2216 
Q 1584 2216 1326 1975 
Q 1069 1734 1069 1313 
Q 1069 891 1326 650 
Q 1584 409 2034 409 
Q 2484 409 2743 651 
Q 3003 894 3003 1313 
Q 3003 1734 2745 1975 
Q 2488 2216 2034 2216 
z
M 1403 2484 
Q 997 2584 770 2862 
Q 544 3141 544 3541 
Q 544 4100 942 4425 
Q 1341 4750 2034 4750 
Q 2731 4750 3128 4425 
Q 3525 4100 3525 3541 
Q 3525 3141 3298 2862 
Q 3072 2584 2669 2484 
Q 3125 2378 3379 2068 
Q 3634 1759 3634 1313 
Q 3634 634 3220 271 
Q 2806 -91 2034 -91 
Q 1263 -91 848 271 
Q 434 634 434 1313 
Q 434 1759 690 2068 
Q 947 2378 1403 2484 
z
M 1172 3481 
Q 1172 3119 1398 2916 
Q 1625 2713 2034 2713 
Q 2441 2713 2670 2916 
Q 2900 3119 2900 3481 
Q 2900 3844 2670 4047 
Q 2441 4250 2034 4250 
Q 1625 4250 1398 4047 
Q 1172 3844 1172 3481 
z
" transform="scale(0.015625)"/>
       </defs>
       <use xlink:href="#DejaVuSans-38"/>
       <use xlink:href="#DejaVuSans-30" x="63.623047"/>
      </g>
     </g>
    </g>
    <g id="xtick_4">
     <g id="line2d_4">
      <g>
       <use xlink:href="#m6d4ce91817" x="173.541382" y="238.559481" style="stroke: #000000; stroke-width: 0.8"/>
      </g>
     </g>
     <g id="text_4">
      <!-- 100 -->
      <g transform="translate(163.997632 253.157918) scale(0.1 -0.1)">
       <defs>
        <path id="DejaVuSans-31" d="M 794 531 
L 1825 531 
L 1825 4091 
L 703 3866 
L 703 4441 
L 1819 4666 
L 2450 4666 
L 2450 531 
L 3481 531 
L 3481 0 
L 794 0 
L 794 531 
z
" transform="scale(0.015625)"/>
       </defs>
       <use xlink:href="#DejaVuSans-31"/>
       <use xlink:href="#DejaVuSans-30" x="63.623047"/>
       <use xlink:href="#DejaVuSans-30" x="127.246094"/>
      </g>
     </g>
    </g>
    <g id="xtick_5">
     <g id="line2d_5">
      <g>
       <use xlink:href="#m6d4ce91817" x="209.361776" y="238.559481" style="stroke: #000000; stroke-width: 0.8"/>
      </g>
     </g>
     <g id="text_5">
      <!-- 120 -->
      <g transform="translate(199.818026 253.157918) scale(0.1 -0.1)">
       <defs>
        <path id="DejaVuSans-32" d="M 1228 531 
L 3431 531 
L 3431 0 
L 469 0 
L 469 531 
Q 828 903 1448 1529 
Q 2069 2156 2228 2338 
Q 2531 2678 2651 2914 
Q 2772 3150 2772 3378 
Q 2772 3750 2511 3984 
Q 2250 4219 1831 4219 
Q 1534 4219 1204 4116 
Q 875 4013 500 3803 
L 500 4441 
Q 881 4594 1212 4672 
Q 1544 4750 1819 4750 
Q 2544 4750 2975 4387 
Q 3406 4025 3406 3419 
Q 3406 3131 3298 2873 
Q 3191 2616 2906 2266 
Q 2828 2175 2409 1742 
Q 1991 1309 1228 531 
z
" transform="scale(0.015625)"/>
       </defs>
       <use xlink:href="#DejaVuSans-31"/>
       <use xlink:href="#DejaVuSans-32" x="63.623047"/>
       <use xlink:href="#DejaVuSans-30" x="127.246094"/>
      </g>
     </g>
    </g>
    <g id="xtick_6">
     <g id="line2d_6">
      <g>
       <use xlink:href="#m6d4ce91817" x="245.182171" y="238.559481" style="stroke: #000000; stroke-width: 0.8"/>
      </g>
     </g>
     <g id="text_6">
      <!-- 140 -->
      <g transform="translate(235.638421 253.157918) scale(0.1 -0.1)">
       <use xlink:href="#DejaVuSans-31"/>
       <use xlink:href="#DejaVuSans-34" x="63.623047"/>
       <use xlink:href="#DejaVuSans-30" x="127.246094"/>
      </g>
     </g>
    </g>
    <g id="xtick_7">
     <g id="line2d_7">
      <g>
       <use xlink:href="#m6d4ce91817" x="281.002566" y="238.559481" style="stroke: #000000; stroke-width: 0.8"/>
      </g>
     </g>
     <g id="text_7">
      <!-- 160 -->
      <g transform="translate(271.458816 253.157918) scale(0.1 -0.1)">
       <use xlink:href="#DejaVuSans-31"/>
       <use xlink:href="#DejaVuSans-36" x="63.623047"/>
       <use xlink:href="#DejaVuSans-30" x="127.246094"/>
      </g>
     </g>
    </g>
    <g id="xtick_8">
     <g id="line2d_8">
      <g>
       <use xlink:href="#m6d4ce91817" x="316.82296" y="238.559481" style="stroke: #000000; stroke-width: 0.8"/>
      </g>
     </g>
     <g id="text_8">
      <!-- 180 -->
      <g transform="translate(307.27921 253.157918) scale(0.1 -0.1)">
       <use xlink:href="#DejaVuSans-31"/>
       <use xlink:href="#DejaVuSans-38" x="63.623047"/>
       <use xlink:href="#DejaVuSans-30" x="127.246094"/>
      </g>
     </g>
    </g>
    <g id="xtick_9">
     <g id="line2d_9">
      <g>
       <use xlink:href="#m6d4ce91817" x="352.643355" y="238.559481" style="stroke: #000000; stroke-width: 0.8"/>
      </g>
     </g>
     <g id="text_9">
      <!-- 200 -->
      <g transform="translate(343.099605 253.157918) scale(0.1 -0.1)">
       <use xlink:href="#DejaVuSans-32"/>
       <use xlink:href="#DejaVuSans-30" x="63.623047"/>
       <use xlink:href="#DejaVuSans-30" x="127.246094"/>
      </g>
     </g>
    </g>
    <g id="text_10">
     <!-- Bits -->
     <g transform="translate(191.022303 266.836043) scale(0.1 -0.1)">
      <defs>
       <path id="DejaVuSans-42" d="M 1259 2228 
L 1259 519 
L 2272 519 
Q 2781 519 3026 730 
Q 3272 941 3272 1375 
Q 3272 1813 3026 2020 
Q 2781 2228 2272 2228 
L 1259 2228 
z
M 1259 4147 
L 1259 2741 
L 2194 2741 
Q 2656 2741 2882 2914 
Q 3109 3088 3109 3444 
Q 3109 3797 2882 3972 
Q 2656 4147 2194 4147 
L 1259 4147 
z
M 628 4666 
L 2241 4666 
Q 2963 4666 3353 4366 
Q 3744 4066 3744 3513 
Q 3744 3084 3544 2831 
Q 3344 2578 2956 2516 
Q 3422 2416 3680 2098 
Q 3938 1781 3938 1306 
Q 3938 681 3513 340 
Q 3088 0 2303 0 
L 628 0 
L 628 4666 
z
" transform="scale(0.015625)"/>
       <path id="DejaVuSans-69" d="M 603 3500 
L 1178 3500 
L 1178 0 
L 603 0 
L 603 3500 
z
M 603 4863 
L 1178 4863 
L 1178 4134 
L 603 4134 
L 603 4863 
z
" transform="scale(0.015625)"/>
       <path id="DejaVuSans-74" d="M 1172 4494 
L 1172 3500 
L 2356 3500 
L 2356 3053 
L 1172 3053 
L 1172 1153 
Q 1172 725 1289 603 
Q 1406 481 1766 481 
L 2356 481 
L 2356 0 
L 1766 0 
Q 1100 0 847 248 
Q 594 497 594 1153 
L 594 3053 
L 172 3053 
L 172 3500 
L 594 3500 
L 594 4494 
L 1172 4494 
z
" transform="scale(0.015625)"/>
       <path id="DejaVuSans-73" d="M 2834 3397 
L 2834 2853 
Q 2591 2978 2328 3040 
Q 2066 3103 1784 3103 
Q 1356 3103 1142 2972 
Q 928 2841 928 2578 
Q 928 2378 1081 2264 
Q 1234 2150 1697 2047 
L 1894 2003 
Q 2506 1872 2764 1633 
Q 3022 1394 3022 966 
Q 3022 478 2636 193 
Q 2250 -91 1575 -91 
Q 1294 -91 989 -36 
Q 684 19 347 128 
L 347 722 
Q 666 556 975 473 
Q 1284 391 1588 391 
Q 1994 391 2212 530 
Q 2431 669 2431 922 
Q 2431 1156 2273 1281 
Q 2116 1406 1581 1522 
L 1381 1569 
Q 847 1681 609 1914 
Q 372 2147 372 2553 
Q 372 3047 722 3315 
Q 1072 3584 1716 3584 
Q 2034 3584 2315 3537 
Q 2597 3491 2834 3397 
z
" transform="scale(0.015625)"/>
      </defs>
      <use xlink:href="#DejaVuSans-42"/>
      <use xlink:href="#DejaVuSans-69" x="68.603516"/>
      <use xlink:href="#DejaVuSans-74" x="96.386719"/>
      <use xlink:href="#DejaVuSans-73" x="135.595703"/>
     </g>
    </g>
   </g>
   <g id="matplotlib.axis_2">
    <g id="ytick_1">
     <g id="line2d_10">
      <defs>
       <path id="m6a0084c1ec" d="M 0 0 
L -3.5 0 
" style="stroke: #000000; stroke-width: 0.8"/>
      </defs>
      <g>
       <use xlink:href="#m6a0084c1ec" x="48.17" y="229.893425" style="stroke: #000000; stroke-width: 0.8"/>
      </g>
     </g>
     <g id="text_11">
      <!-- 0.0 -->
      <g transform="translate(25.266875 233.692643) scale(0.1 -0.1)">
       <defs>
        <path id="DejaVuSans-2e" d="M 684 794 
L 1344 794 
L 1344 0 
L 684 0 
L 684 794 
z
" transform="scale(0.015625)"/>
       </defs>
       <use xlink:href="#DejaVuSans-30"/>
       <use xlink:href="#DejaVuSans-2e" x="63.623047"/>
       <use xlink:href="#DejaVuSans-30" x="95.410156"/>
      </g>
     </g>
    </g>
    <g id="ytick_2">
     <g id="line2d_11">
      <g>
       <use xlink:href="#m6a0084c1ec" x="48.17" y="195.229201" style="stroke: #000000; stroke-width: 0.8"/>
      </g>
     </g>
     <g id="text_12">
      <!-- 0.2 -->
      <g transform="translate(25.266875 199.02842) scale(0.1 -0.1)">
       <use xlink:href="#DejaVuSans-30"/>
       <use xlink:href="#DejaVuSans-2e" x="63.623047"/>
       <use xlink:href="#DejaVuSans-32" x="95.410156"/>
      </g>
     </g>
    </g>
    <g id="ytick_3">
     <g id="line2d_12">
      <g>
       <use xlink:href="#m6a0084c1ec" x="48.17" y="160.564977" style="stroke: #000000; stroke-width: 0.8"/>
      </g>
     </g>
     <g id="text_13">
      <!-- 0.4 -->
      <g transform="translate(25.266875 164.364196) scale(0.1 -0.1)">
       <use xlink:href="#DejaVuSans-30"/>
       <use xlink:href="#DejaVuSans-2e" x="63.623047"/>
       <use xlink:href="#DejaVuSans-34" x="95.410156"/>
      </g>
     </g>
    </g>
    <g id="ytick_4">
     <g id="line2d_13">
      <g>
       <use xlink:href="#m6a0084c1ec" x="48.17" y="125.900753" style="stroke: #000000; stroke-width: 0.8"/>
      </g>
     </g>
     <g id="text_14">
      <!-- 0.6 -->
      <g transform="translate(25.266875 129.699972) scale(0.1 -0.1)">
       <use xlink:href="#DejaVuSans-30"/>
       <use xlink:href="#DejaVuSans-2e" x="63.623047"/>
       <use xlink:href="#DejaVuSans-36" x="95.410156"/>
      </g>
     </g>
    </g>
    <g id="ytick_5">
     <g id="line2d_14">
      <g>
       <use xlink:href="#m6a0084c1ec" x="48.17" y="91.23653" style="stroke: #000000; stroke-width: 0.8"/>
      </g>
     </g>
     <g id="text_15">
      <!-- 0.8 -->
      <g transform="translate(25.266875 95.035748) scale(0.1 -0.1)">
       <use xlink:href="#DejaVuSans-30"/>
       <use xlink:href="#DejaVuSans-2e" x="63.623047"/>
       <use xlink:href="#DejaVuSans-38" x="95.410156"/>
      </g>
     </g>
    </g>
    <g id="ytick_6">
     <g id="line2d_15">
      <g>
       <use xlink:href="#m6a0084c1ec" x="48.17" y="56.572306" style="stroke: #000000; stroke-width: 0.8"/>
      </g>
     </g>
     <g id="text_16">
      <!-- 1.0 -->
      <g transform="translate(25.266875 60.371525) scale(0.1 -0.1)">
       <use xlink:href="#DejaVuSans-31"/>
       <use xlink:href="#DejaVuSans-2e" x="63.623047"/>
       <use xlink:href="#DejaVuSans-30" x="95.410156"/>
      </g>
     </g>
    </g>
    <g id="text_17">
     <!-- P(F|score) -->
     <g transform="translate(18.909062 168.14224) rotate(-90) scale(0.1 -0.1)">
      <defs>
       <path id="DejaVuSans-50" d="M 1259 4147 
L 1259 2394 
L 2053 2394 
Q 2494 2394 2734 2622 
Q 2975 2850 2975 3272 
Q 2975 3691 2734 3919 
Q 2494 4147 2053 4147 
L 1259 4147 
z
M 628 4666 
L 2053 4666 
Q 2838 4666 3239 4311 
Q 3641 3956 3641 3272 
Q 3641 2581 3239 2228 
Q 2838 1875 2053 1875 
L 1259 1875 
L 1259 0 
L 628 0 
L 628 4666 
z
" transform="scale(0.015625)"/>
       <path id="DejaVuSans-28" d="M 1984 4856 
Q 1566 4138 1362 3434 
Q 1159 2731 1159 2009 
Q 1159 1288 1364 580 
Q 1569 -128 1984 -844 
L 1484 -844 
Q 1016 -109 783 600 
Q 550 1309 550 2009 
Q 550 2706 781 3412 
Q 1013 4119 1484 4856 
L 1984 4856 
z
" transform="scale(0.015625)"/>
       <path id="DejaVuSans-46" d="M 628 4666 
L 3309 4666 
L 3309 4134 
L 1259 4134 
L 1259 2759 
L 3109 2759 
L 3109 2228 
L 1259 2228 
L 1259 0 
L 628 0 
L 628 4666 
z
" transform="scale(0.015625)"/>
       <path id="DejaVuSans-7c" d="M 1344 4891 
L 1344 -1509 
L 813 -1509 
L 813 4891 
L 1344 4891 
z
" transform="scale(0.015625)"/>
       <path id="DejaVuSans-63" d="M 3122 3366 
L 3122 2828 
Q 2878 2963 2633 3030 
Q 2388 3097 2138 3097 
Q 1578 3097 1268 2742 
Q 959 2388 959 1747 
Q 959 1106 1268 751 
Q 1578 397 2138 397 
Q 2388 397 2633 464 
Q 2878 531 3122 666 
L 3122 134 
Q 2881 22 2623 -34 
Q 2366 -91 2075 -91 
Q 1284 -91 818 406 
Q 353 903 353 1747 
Q 353 2603 823 3093 
Q 1294 3584 2113 3584 
Q 2378 3584 2631 3529 
Q 2884 3475 3122 3366 
z
" transform="scale(0.015625)"/>
       <path id="DejaVuSans-6f" d="M 1959 3097 
Q 1497 3097 1228 2736 
Q 959 2375 959 1747 
Q 959 1119 1226 758 
Q 1494 397 1959 397 
Q 2419 397 2687 759 
Q 2956 1122 2956 1747 
Q 2956 2369 2687 2733 
Q 2419 3097 1959 3097 
z
M 1959 3584 
Q 2709 3584 3137 3096 
Q 3566 2609 3566 1747 
Q 3566 888 3137 398 
Q 2709 -91 1959 -91 
Q 1206 -91 779 398 
Q 353 888 353 1747 
Q 353 2609 779 3096 
Q 1206 3584 1959 3584 
z
" transform="scale(0.015625)"/>
       <path id="DejaVuSans-72" d="M 2631 2963 
Q 2534 3019 2420 3045 
Q 2306 3072 2169 3072 
Q 1681 3072 1420 2755 
Q 1159 2438 1159 1844 
L 1159 0 
L 581 0 
L 581 3500 
L 1159 3500 
L 1159 2956 
Q 1341 3275 1631 3429 
Q 1922 3584 2338 3584 
Q 2397 3584 2469 3576 
Q 2541 3569 2628 3553 
L 2631 2963 
z
" transform="scale(0.015625)"/>
       <path id="DejaVuSans-65" d="M 3597 1894 
L 3597 1613 
L 953 1613 
Q 991 1019 1311 708 
Q 1631 397 2203 397 
Q 2534 397 2845 478 
Q 3156 559 3463 722 
L 3463 178 
Q 3153 47 2828 -22 
Q 2503 -91 2169 -91 
Q 1331 -91 842 396 
Q 353 884 353 1716 
Q 353 2575 817 3079 
Q 1281 3584 2069 3584 
Q 2775 3584 3186 3129 
Q 3597 2675 3597 1894 
z
M 3022 2063 
Q 3016 2534 2758 2815 
Q 2500 3097 2075 3097 
Q 1594 3097 1305 2825 
Q 1016 2553 972 2059 
L 3022 2063 
z
" transform="scale(0.015625)"/>
       <path id="DejaVuSans-29" d="M 513 4856 
L 1013 4856 
Q 1481 4119 1714 3412 
Q 1947 2706 1947 2009 
Q 1947 1309 1714 600 
Q 1481 -109 1013 -844 
L 513 -844 
Q 928 -128 1133 580 
Q 1338 1288 1338 2009 
Q 1338 2731 1133 3434 
Q 928 4138 513 4856 
z
" transform="scale(0.015625)"/>
      </defs>
      <use xlink:href="#DejaVuSans-50"/>
      <use xlink:href="#DejaVuSans-28" x="60.302734"/>
      <use xlink:href="#DejaVuSans-46" x="99.316406"/>
      <use xlink:href="#DejaVuSans-7c" x="156.835938"/>
      <use xlink:href="#DejaVuSans-73" x="190.527344"/>
      <use xlink:href="#DejaVuSans-63" x="242.626953"/>
      <use xlink:href="#DejaVuSans-6f" x="297.607422"/>
      <use xlink:href="#DejaVuSans-72" x="358.789062"/>
      <use xlink:href="#DejaVuSans-65" x="397.652344"/>
      <use xlink:href="#DejaVuSans-29" x="459.175781"/>
     </g>
    </g>
   </g>
   <g id="line2d_16">
    <path d="M -1 56.587039 
L 3.937186 56.918944 
L 9.093531 57.768224 
L 14.248086 58.340185 
L 19.406223 59.120126 
L 24.56436 60.697351 
L 29.722497 62.56922 
L 34.880634 64.666402 
L 40.02086 67.994172 
L 45.178997 71.599251 
L 50.337134 75.966934 
L 55.495271 80.698601 
L 60.653408 84.650327 
L 65.811544 89.226 
L 70.969681 93.940341 
L 76.127818 99.295964 
L 81.268045 106.592786 
L 86.426182 111.70575 
L 91.584318 120.718456 
L 96.742455 123.820902 
L 101.900592 132.001653 
L 107.058729 137.998567 
L 112.216866 143.579508 
L 117.375003 148.25918 
L 122.533139 153.857451 
L 127.673366 162.176861 
L 132.831503 167.272506 
L 137.98964 172.766783 
L 143.147777 175.106619 
L 148.305913 180.184928 
L 153.46405 184.153979 
L 158.622187 186.771131 
L 163.780324 191.034831 
L 168.920551 196.251794 
L 174.078687 194.81323 
L 179.272645 197.829017 
L 184.466602 200.064861 
L 189.481457 201.399433 
L 194.675414 202.560684 
L 199.869372 205.628468 
L 205.063329 205.073841 
L 210.257286 207.621661 
L 215.272141 207.517669 
L 220.466099 209.042894 
L 225.660056 212.335995 
L 230.854013 211.625378 
L 235.868868 211.972021 
L 241.062826 213.6931 
L 246.256783 211.55605 
L 251.45074 213.518045 
L 256.644697 216.091863 
L 261.659553 216.528633 
L 266.85351 216.558098 
L 272.047467 217.038197 
L 277.241424 219.963858 
L 282.435381 218.029595 
L 287.450237 220.118113 
L 292.644194 219.159648 
L 297.838151 221.374691 
L 303.032108 221.083512 
L 308.226066 221.643339 
L 313.240921 221.130309 
L 318.434878 221.142441 
L 323.628835 222.111306 
L 328.822793 223.116569 
L 333.837648 222.477014 
L 339.031605 222.338357 
L 344.225562 222.726596 
L 349.41952 225.023101 
L 354.613477 223.347086 
L 359.628332 223.893048 
L 364.822289 225.061232 
L 370.016247 223.839318 
L 375.210204 225.295215 
L 380.404161 223.579336 
L 385.419016 225.111495 
L 390.612974 223.362685 
L 395.806931 225.030034 
L 401.000888 224.064636 
L 406.015743 225.250152 
L 411.209701 224.62273 
L 416.403658 225.721585 
L 421.597615 225.004036 
L 426.791572 225.064698 
L 431.806427 224.116632 
L 437.000385 225.517066 
L 442.194342 228.446367 
" clip-path="url(#p82c8a7f24f)" style="fill: none; stroke: #0000ff; stroke-width: 1.5; stroke-linecap: square"/>
   </g>
   <g id="line2d_17">
    <path d="M -1 56.587039 
L 3.937186 56.918944 
L 9.093531 57.768224 
L 14.248086 58.340185 
L 19.406223 59.120126 
L 24.56436 60.697351 
L 29.722497 62.56922 
L 34.880634 64.666402 
L 40.02086 67.994172 
L 45.178997 71.599251 
L 50.337134 75.966934 
L 55.495271 80.698601 
L 60.653408 84.650327 
L 65.811544 89.226 
L 70.969681 93.940341 
L 76.127818 99.295964 
L 81.268045 106.592786 
L 86.426182 111.70575 
L 91.584318 120.718456 
L 96.742455 123.820902 
L 101.900592 132.001653 
L 107.058729 137.998567 
L 112.216866 143.579508 
L 117.375003 148.25918 
L 122.533139 153.857451 
L 127.673366 162.176861 
L 132.831503 167.272506 
L 137.98964 172.766783 
L 143.147777 175.106619 
L 148.305913 180.184928 
L 153.46405 184.153979 
L 158.622187 186.771131 
L 163.780324 191.034831 
L 168.920551 196.251794 
L 174.078687 194.81323 
L 179.272645 197.829017 
L 184.466602 200.064861 
L 189.481457 201.399433 
L 194.675414 202.560684 
L 199.869372 205.628468 
L 205.063329 205.073841 
L 210.257286 207.621661 
L 215.272141 207.517669 
L 220.466099 209.042894 
L 225.660056 212.335995 
L 230.854013 211.625378 
L 235.868868 211.972021 
L 241.062826 213.6931 
L 246.256783 211.55605 
L 251.45074 213.518045 
L 256.644697 216.091863 
L 261.659553 216.528633 
L 266.85351 216.558098 
L 272.047467 217.038197 
L 277.241424 219.963858 
L 282.435381 218.029595 
L 287.450237 220.118113 
L 292.644194 219.159648 
L 297.838151 221.374691 
L 303.032108 221.083512 
L 308.226066 221.643339 
L 313.240921 221.130309 
L 318.434878 221.142441 
L 323.628835 222.111306 
L 328.822793 223.116569 
L 333.837648 222.477014 
L 339.031605 222.338357 
L 344.225562 222.726596 
L 349.41952 225.023101 
L 354.613477 223.347086 
L 359.628332 223.893048 
L 364.822289 225.061232 
L 370.016247 223.839318 
L 375.210204 225.295215 
L 380.404161 223.579336 
L 385.419016 225.111495 
L 390.612974 223.362685 
L 395.806931 225.030034 
L 401.000888 224.064636 
L 406.015743 225.250152 
L 411.209701 224.62273 
L 416.403658 225.721585 
L 421.597615 225.004036 
L 426.791572 225.064698 
L 431.806427 224.116632 
L 437.000385 225.517066 
L 442.194342 228.446367 
" clip-path="url(#p82c8a7f24f)" style="fill: none; stroke-dasharray: 5.55,2.4; stroke-dashoffset: 0; stroke: #0000ff; stroke-width: 1.5"/>
   </g>
   <g id="line2d_18">
    <path d="M -1 56.587039 
L 3.937186 56.918944 
L 9.093531 57.768224 
L 14.248086 58.340185 
L 19.406223 59.120126 
L 24.56436 60.697351 
L 29.722497 62.56922 
L 34.880634 64.666402 
L 40.02086 67.994172 
L 45.178997 71.599251 
L 50.337134 75.966934 
L 55.495271 80.698601 
L 60.653408 84.650327 
L 65.811544 89.226 
L 70.969681 93.940341 
L 76.127818 99.295964 
L 81.268045 106.592786 
L 86.426182 111.70575 
L 91.584318 120.718456 
L 96.742455 123.820902 
L 101.900592 132.001653 
L 107.058729 137.998567 
L 112.216866 143.579508 
L 117.375003 148.25918 
L 122.533139 153.857451 
L 127.673366 162.176861 
L 132.831503 167.272506 
L 137.98964 172.766783 
L 143.147777 175.106619 
L 148.305913 180.184928 
L 153.46405 184.153979 
L 158.622187 186.771131 
L 163.780324 191.034831 
L 168.920551 196.251794 
L 174.078687 194.81323 
L 179.272645 197.829017 
L 184.466602 200.064861 
L 189.481457 201.399433 
L 194.675414 202.560684 
L 199.869372 205.628468 
L 205.063329 205.073841 
L 210.257286 207.621661 
L 215.272141 207.517669 
L 220.466099 209.042894 
L 225.660056 212.335995 
L 230.854013 211.625378 
L 235.868868 211.972021 
L 241.062826 213.6931 
L 246.256783 211.55605 
L 251.45074 213.518045 
L 256.644697 216.091863 
L 261.659553 216.528633 
L 266.85351 216.558098 
L 272.047467 217.038197 
L 277.241424 219.963858 
L 282.435381 218.029595 
L 287.450237 220.118113 
L 292.644194 219.159648 
L 297.838151 221.374691 
L 303.032108 221.083512 
L 308.226066 221.643339 
L 313.240921 221.130309 
L 318.434878 221.142441 
L 323.628835 222.111306 
L 328.822793 223.116569 
L 333.837648 222.477014 
L 339.031605 222.338357 
L 344.225562 222.726596 
L 349.41952 225.023101 
L 354.613477 223.347086 
L 359.628332 223.893048 
L 364.822289 225.061232 
L 370.016247 223.839318 
L 375.210204 225.295215 
L 380.404161 223.579336 
L 385.419016 225.111495 
L 390.612974 223.362685 
L 395.806931 225.030034 
L 401.000888 224.064636 
L 406.015743 225.250152 
L 411.209701 224.62273 
L 416.403658 225.721585 
L 421.597615 225.004036 
L 426.791572 225.064698 
L 431.806427 224.116632 
L 437.000385 225.517066 
L 442.194342 228.446367 
" clip-path="url(#p82c8a7f24f)" style="fill: none; stroke-dasharray: 1.5,2.475; stroke-dashoffset: 0; stroke: #0000ff; stroke-width: 1.5"/>
   </g>
   <g id="line2d_19">
    <path d="M -1 56.991957 
L 3.937186 57.074938 
L 9.093531 57.473581 
L 14.248086 57.993537 
L 19.406223 58.842817 
L 24.56436 60.246714 
L 29.722497 61.667945 
L 34.880634 63.262506 
L 40.02086 65.740996 
L 45.178997 68.618129 
L 50.337134 71.911229 
L 55.495271 75.84561 
L 60.653408 79.797336 
L 65.811544 83.541074 
L 70.969681 88.272741 
L 76.127818 92.883083 
L 81.268045 99.313289 
L 86.426182 105.01556 
L 91.584318 111.896403 
L 96.742455 115.640141 
L 101.900592 123.508924 
L 107.058729 127.876618 
L 112.216866 133.856197 
L 117.375003 137.894577 
L 122.533139 144.619432 
L 127.673366 151.933583 
L 132.831503 157.843838 
L 137.98964 163.338114 
L 143.147777 165.556626 
L 148.305913 170.530941 
L 153.46405 175.141284 
L 158.622187 176.978488 
L 163.780324 180.808885 
L 168.920551 186.129843 
L 174.078687 187.083109 
L 179.272645 189.180294 
L 184.466602 193.149348 
L 189.481457 193.790637 
L 194.675414 195.662503 
L 199.869372 198.140995 
L 205.063329 198.054336 
L 210.257286 202.69934 
L 215.272141 202.664676 
L 220.466099 205.333822 
L 225.660056 207.933639 
L 230.854013 206.807051 
L 235.868868 208.644256 
L 241.062826 209.892167 
L 246.256783 207.950971 
L 251.45074 209.978828 
L 256.644697 213.727764 
L 261.659553 214.048408 
L 266.85351 214.537173 
L 272.047467 214.367319 
L 277.241424 218.849402 
L 282.435381 215.774686 
L 287.450237 219.343368 
L 292.644194 217.842407 
L 297.838151 220.589547 
L 303.032108 220.506353 
L 308.226066 220.840862 
L 313.240921 220.605146 
L 318.434878 220.216906 
L 323.628835 221.697069 
L 328.822793 222.095708 
L 333.837648 221.629473 
L 339.031605 221.296697 
L 344.225562 222.431951 
L 349.41952 224.731922 
L 354.613477 222.91205 
L 359.628332 223.946777 
L 364.822289 224.610597 
L 370.016247 223.943311 
L 375.210204 224.955506 
L 380.404161 223.797721 
L 385.419016 224.603664 
L 390.612974 223.468411 
L 395.806931 224.724989 
L 401.000888 223.818519 
L 406.015743 225.127094 
L 411.209701 223.886115 
L 416.403658 225.93477 
L 421.597615 224.591532 
L 426.791572 225.120161 
L 431.806427 223.782122 
L 437.000385 225.555197 
L 442.194342 228.414649 
" clip-path="url(#p82c8a7f24f)" style="fill: none; stroke: #000000; stroke-width: 1.5; stroke-linecap: square"/>
   </g>
   <g id="line2d_20">
    <path d="M -1 57.258225 
L 3.937186 57.092273 
L 9.093531 57.438911 
L 14.248086 57.958878 
L 19.406223 58.825482 
L 24.56436 60.212054 
L 29.722497 61.598616 
L 34.880634 63.158506 
L 40.02086 65.411683 
L 45.178997 68.358145 
L 50.337134 71.824564 
L 55.495271 75.290983 
L 60.653408 79.797336 
L 65.811544 83.783722 
L 70.969681 88.290076 
L 76.127818 93.663023 
L 81.268045 99.382619 
L 86.426182 105.448862 
L 91.584318 112.035063 
L 96.742455 115.674811 
L 101.900592 123.994221 
L 107.058729 128.327245 
L 112.216866 133.180236 
L 117.375003 136.993303 
L 122.533139 145.486042 
L 127.673366 150.512351 
L 132.831503 158.311805 
L 137.98964 160.7383 
L 143.147777 163.511438 
L 148.305913 173.21742 
L 153.46405 173.737382 
L 158.622187 176.163877 
L 163.780324 180.843549 
L 168.920551 183.443364 
L 174.078687 186.043183 
L 179.272645 186.736466 
L 184.466602 190.37621 
L 189.481457 192.282743 
L 194.675414 194.882557 
L 199.869372 198.17566 
L 205.063329 194.882557 
L 210.257286 202.85533 
L 215.272141 203.721937 
L 220.466099 205.281825 
L 225.660056 209.441532 
L 230.854013 206.148432 
L 235.868868 207.881642 
L 241.062826 210.134817 
L 246.256783 206.321751 
L 251.45074 207.36168 
L 256.644697 212.387991 
L 261.659553 215.611764 
L 266.85351 214.346521 
L 272.047467 215.24779 
L 277.241424 218.159585 
L 282.435381 213.982546 
L 287.450237 218.506227 
L 292.644194 217.223651 
L 297.838151 220.620745 
L 303.032108 218.85287 
L 308.226066 219.892796 
L 313.240921 221.868657 
L 318.434878 218.714213 
L 323.628835 221.314029 
L 328.822793 220.534084 
L 333.837648 222.769927 
L 339.031605 221.643339 
L 344.225562 221.48735 
L 349.41952 224.035171 
L 354.613477 221.747332 
L 359.628332 224.84978 
L 364.822289 222.977912 
L 370.016247 225.231086 
L 375.210204 224.191159 
L 380.404161 222.111306 
L 385.419016 224.104499 
L 390.612974 222.076642 
L 395.806931 225.387075 
L 401.000888 224.139164 
L 406.015743 224.329817 
L 411.209701 221.15804 
L 416.403658 226.132356 
L 421.597615 226.323009 
L 426.791572 225.629725 
L 431.806427 224.555134 
L 437.000385 224.867112 
L 442.194342 228.293671 
" clip-path="url(#p82c8a7f24f)" style="fill: none; stroke: #ffa500; stroke-width: 1.5; stroke-linecap: square"/>
   </g>
   <g id="line2d_21">
    <path d="M -1 56.594406 
L 3.937186 57.092273 
L 9.093531 57.438911 
L 14.248086 57.958878 
L 19.406223 58.652164 
L 24.56436 60.038725 
L 29.722497 61.425297 
L 34.880634 62.985187 
L 40.02086 65.065045 
L 45.178997 67.49154 
L 50.337134 70.611311 
L 55.495271 74.424379 
L 60.653408 79.450699 
L 65.811544 81.703865 
L 70.969681 86.556856 
L 76.127818 90.88989 
L 81.268045 96.436167 
L 86.426182 103.542334 
L 91.584318 108.568644 
L 96.742455 113.248316 
L 101.900592 117.40802 
L 107.058729 122.780978 
L 112.216866 129.367179 
L 117.375003 135.606731 
L 122.533139 138.379874 
L 127.673366 147.219251 
L 132.831503 154.152095 
L 137.98964 156.058628 
L 143.147777 156.925233 
L 148.305913 162.818153 
L 153.46405 169.92432 
L 158.622187 170.790925 
L 163.780324 175.297273 
L 168.920551 181.53683 
L 174.078687 184.13665 
L 179.272645 186.043183 
L 184.466602 190.202888 
L 189.481457 191.069493 
L 194.675414 190.202888 
L 199.869372 191.9361 
L 205.063329 192.282743 
L 210.257286 204.241899 
L 215.272141 195.749165 
L 220.466099 203.028651 
L 225.660056 210.134817 
L 230.854013 203.721937 
L 235.868868 207.015037 
L 241.062826 208.401606 
L 246.256783 203.895256 
L 251.45074 207.70832 
L 256.644697 213.202601 
L 261.659553 215.594432 
L 266.85351 215.282455 
L 272.047467 214.606501 
L 277.241424 217.604957 
L 282.435381 211.348065 
L 287.450237 215.698425 
L 292.644194 218.818205 
L 297.838151 216.946337 
L 303.032108 218.055592 
L 308.226066 222.648602 
L 313.240921 220.482088 
L 318.434878 213.237265 
L 323.628835 219.02619 
L 328.822793 223.983174 
L 333.837648 222.163303 
L 339.031605 217.37964 
L 344.225562 223.844518 
L 349.41952 223.913846 
L 354.613477 222.700598 
L 359.628332 224.069835 
L 364.822289 224.295153 
L 370.016247 222.596605 
L 375.210204 222.47528 
L 380.404161 223.653865 
L 385.419016 223.879182 
L 390.612974 224.121831 
L 395.806931 221.036715 
L 401.000888 226.08036 
L 406.015743 222.995244 
L 411.209701 226.340342 
L 416.403658 224.000506 
L 421.597615 223.081905 
L 426.791572 223.099237 
L 431.806427 220.984719 
L 437.000385 225.075098 
L 442.194342 228.766837 
" clip-path="url(#p82c8a7f24f)" style="fill: none; stroke-dasharray: 5.55,2.4; stroke-dashoffset: 0; stroke: #ffa500; stroke-width: 1.5"/>
   </g>
   <g id="line2d_22">
    <path d="M -1 56.594406 
L 3.937186 57.092273 
L 9.093531 57.61223 
L 14.248086 57.785559 
L 19.406223 58.825482 
L 24.56436 60.212054 
L 29.722497 61.945264 
L 34.880634 63.505154 
L 40.02086 65.585002 
L 45.178997 68.531464 
L 50.337134 72.344531 
L 55.495271 76.157588 
L 60.653408 79.450699 
L 65.811544 83.610404 
L 70.969681 87.076823 
L 76.127818 91.236528 
L 81.268045 98.342695 
L 86.426182 104.582258 
L 91.584318 113.768272 
L 96.742455 114.461558 
L 101.900592 119.661197 
L 107.058729 125.380793 
L 112.216866 132.48696 
L 117.375003 134.566807 
L 122.533139 145.486042 
L 127.673366 150.339033 
L 132.831503 155.018699 
L 137.98964 165.591291 
L 143.147777 168.017786 
L 148.305913 170.270958 
L 153.46405 177.723768 
L 158.622187 177.203806 
L 163.780324 182.750078 
L 168.920551 188.296357 
L 174.078687 183.616688 
L 179.272645 183.616688 
L 184.466602 198.002339 
L 189.481457 191.762779 
L 194.675414 191.242814 
L 199.869372 191.589457 
L 205.063329 199.908872 
L 210.257286 204.068577 
L 215.272141 202.162046 
L 220.466099 203.895256 
L 225.660056 201.815403 
L 230.854013 207.535001 
L 235.868868 201.46876 
L 241.062826 205.975111 
L 246.256783 201.642082 
L 251.45074 207.881642 
L 256.644697 211.348065 
L 261.659553 208.748248 
L 266.85351 213.341258 
L 272.047467 210.481459 
L 277.241424 213.202601 
L 282.435381 213.410586 
L 287.450237 216.513034 
L 292.644194 215.386447 
L 297.838151 216.14906 
L 303.032108 222.544609 
L 308.226066 227.917564 
L 313.240921 214.641166 
L 318.434878 216.114396 
L 323.628835 223.94851 
L 328.822793 221.366026 
L 333.837648 222.683266 
L 339.031605 223.185897 
L 344.225562 221.660672 
L 349.41952 223.723193 
L 354.613477 221.695336 
L 359.628332 222.007314 
L 364.822289 221.40069 
L 370.016247 222.544609 
L 375.210204 225.941703 
L 380.404161 224.832448 
L 385.419016 226.461666 
L 390.612974 222.96058 
L 395.806931 219.18218 
L 401.000888 222.423284 
L 406.015743 216.963669 
L 411.209701 220.863394 
L 416.403658 226.790977 
L 421.597615 226.115024 
L 426.791572 229.893425 
L 431.806427 217.310311 
L 437.000385 225.248419 
L 442.194342 228.373398 
" clip-path="url(#p82c8a7f24f)" style="fill: none; stroke-dasharray: 1.5,2.475; stroke-dashoffset: 0; stroke: #ffa500; stroke-width: 1.5"/>
   </g>
   <g id="patch_3">
    <path d="M 48.17 238.559481 
L 48.17 47.90625 
" style="fill: none; stroke: #000000; stroke-width: 0.8; stroke-linejoin: miter; stroke-linecap: square"/>
   </g>
   <g id="patch_4">
    <path d="M 352.643355 238.559481 
L 352.643355 47.90625 
" style="fill: none; stroke: #000000; stroke-width: 0.8; stroke-linejoin: miter; stroke-linecap: square"/>
   </g>
   <g id="patch_5">
    <path d="M 48.17 238.559481 
L 352.643355 238.559481 
" style="fill: none; stroke: #000000; stroke-width: 0.8; stroke-linejoin: miter; stroke-linecap: square"/>
   </g>
   <g id="patch_6">
    <path d="M 48.17 47.90625 
L 352.643355 47.90625 
" style="fill: none; stroke: #000000; stroke-width: 0.8; stroke-linejoin: miter; stroke-linecap: square"/>
   </g>
   <g id="text_18">
    <!-- P(F|score) Foldseek E-value -->
    <g transform="translate(118.14949 41.90625) scale(0.12 -0.12)">
     <defs>
      <path id="DejaVuSans-20" transform="scale(0.015625)"/>
      <path id="DejaVuSans-6c" d="M 603 4863 
L 1178 4863 
L 1178 0 
L 603 0 
L 603 4863 
z
" transform="scale(0.015625)"/>
      <path id="DejaVuSans-64" d="M 2906 2969 
L 2906 4863 
L 3481 4863 
L 3481 0 
L 2906 0 
L 2906 525 
Q 2725 213 2448 61 
Q 2172 -91 1784 -91 
Q 1150 -91 751 415 
Q 353 922 353 1747 
Q 353 2572 751 3078 
Q 1150 3584 1784 3584 
Q 2172 3584 2448 3432 
Q 2725 3281 2906 2969 
z
M 947 1747 
Q 947 1113 1208 752 
Q 1469 391 1925 391 
Q 2381 391 2643 752 
Q 2906 1113 2906 1747 
Q 2906 2381 2643 2742 
Q 2381 3103 1925 3103 
Q 1469 3103 1208 2742 
Q 947 2381 947 1747 
z
" transform="scale(0.015625)"/>
      <path id="DejaVuSans-6b" d="M 581 4863 
L 1159 4863 
L 1159 1991 
L 2875 3500 
L 3609 3500 
L 1753 1863 
L 3688 0 
L 2938 0 
L 1159 1709 
L 1159 0 
L 581 0 
L 581 4863 
z
" transform="scale(0.015625)"/>
      <path id="DejaVuSans-45" d="M 628 4666 
L 3578 4666 
L 3578 4134 
L 1259 4134 
L 1259 2753 
L 3481 2753 
L 3481 2222 
L 1259 2222 
L 1259 531 
L 3634 531 
L 3634 0 
L 628 0 
L 628 4666 
z
" transform="scale(0.015625)"/>
      <path id="DejaVuSans-2d" d="M 313 2009 
L 1997 2009 
L 1997 1497 
L 313 1497 
L 313 2009 
z
" transform="scale(0.015625)"/>
      <path id="DejaVuSans-76" d="M 191 3500 
L 800 3500 
L 1894 563 
L 2988 3500 
L 3597 3500 
L 2284 0 
L 1503 0 
L 191 3500 
z
" transform="scale(0.015625)"/>
      <path id="DejaVuSans-61" d="M 2194 1759 
Q 1497 1759 1228 1600 
Q 959 1441 959 1056 
Q 959 750 1161 570 
Q 1363 391 1709 391 
Q 2188 391 2477 730 
Q 2766 1069 2766 1631 
L 2766 1759 
L 2194 1759 
z
M 3341 1997 
L 3341 0 
L 2766 0 
L 2766 531 
Q 2569 213 2275 61 
Q 1981 -91 1556 -91 
Q 1019 -91 701 211 
Q 384 513 384 1019 
Q 384 1609 779 1909 
Q 1175 2209 1959 2209 
L 2766 2209 
L 2766 2266 
Q 2766 2663 2505 2880 
Q 2244 3097 1772 3097 
Q 1472 3097 1187 3025 
Q 903 2953 641 2809 
L 641 3341 
Q 956 3463 1253 3523 
Q 1550 3584 1831 3584 
Q 2591 3584 2966 3190 
Q 3341 2797 3341 1997 
z
" transform="scale(0.015625)"/>
      <path id="DejaVuSans-75" d="M 544 1381 
L 544 3500 
L 1119 3500 
L 1119 1403 
Q 1119 906 1312 657 
Q 1506 409 1894 409 
Q 2359 409 2629 706 
Q 2900 1003 2900 1516 
L 2900 3500 
L 3475 3500 
L 3475 0 
L 2900 0 
L 2900 538 
Q 2691 219 2414 64 
Q 2138 -91 1772 -91 
Q 1169 -91 856 284 
Q 544 659 544 1381 
z
M 1991 3584 
L 1991 3584 
z
" transform="scale(0.015625)"/>
     </defs>
     <use xlink:href="#DejaVuSans-50"/>
     <use xlink:href="#DejaVuSans-28" x="60.302734"/>
     <use xlink:href="#DejaVuSans-46" x="99.316406"/>
     <use xlink:href="#DejaVuSans-7c" x="156.835938"/>
     <use xlink:href="#DejaVuSans-73" x="190.527344"/>
     <use xlink:href="#DejaVuSans-63" x="242.626953"/>
     <use xlink:href="#DejaVuSans-6f" x="297.607422"/>
     <use xlink:href="#DejaVuSans-72" x="358.789062"/>
     <use xlink:href="#DejaVuSans-65" x="397.652344"/>
     <use xlink:href="#DejaVuSans-29" x="459.175781"/>
     <use xlink:href="#DejaVuSans-20" x="498.189453"/>
     <use xlink:href="#DejaVuSans-46" x="529.976562"/>
     <use xlink:href="#DejaVuSans-6f" x="583.871094"/>
     <use xlink:href="#DejaVuSans-6c" x="645.052734"/>
     <use xlink:href="#DejaVuSans-64" x="672.835938"/>
     <use xlink:href="#DejaVuSans-73" x="736.3125"/>
     <use xlink:href="#DejaVuSans-65" x="788.412109"/>
     <use xlink:href="#DejaVuSans-65" x="849.935547"/>
     <use xlink:href="#DejaVuSans-6b" x="911.458984"/>
     <use xlink:href="#DejaVuSans-20" x="969.369141"/>
     <use xlink:href="#DejaVuSans-45" x="1001.15625"/>
     <use xlink:href="#DejaVuSans-2d" x="1064.339844"/>
     <use xlink:href="#DejaVuSans-76" x="1097.798828"/>
     <use xlink:href="#DejaVuSans-61" x="1156.978516"/>
     <use xlink:href="#DejaVuSans-6c" x="1218.257812"/>
     <use xlink:href="#DejaVuSans-75" x="1246.041016"/>
     <use xlink:href="#DejaVuSans-65" x="1309.419922"/>
    </g>
   </g>
   <g id="legend_1">
    <g id="patch_7">
     <path d="M 261.404293 158.653125 
L 345.643355 158.653125 
Q 347.643355 158.653125 347.643355 156.653125 
L 347.643355 54.90625 
Q 347.643355 52.90625 345.643355 52.90625 
L 261.404293 52.90625 
Q 259.404293 52.90625 259.404293 54.90625 
L 259.404293 156.653125 
Q 259.404293 158.653125 261.404293 158.653125 
z
" style="fill: #ffffff; opacity: 0.8; stroke: #cccccc; stroke-linejoin: miter"/>
    </g>
    <g id="line2d_23">
     <path d="M 263.404293 61.004687 
L 273.404293 61.004687 
L 283.404293 61.004687 
" style="fill: none; stroke: #0000ff; stroke-width: 1.5; stroke-linecap: square"/>
    </g>
    <g id="text_19">
     <!-- SCOP40x8 -->
     <g transform="translate(291.404293 64.504687) scale(0.1 -0.1)">
      <defs>
       <path id="DejaVuSans-53" d="M 3425 4513 
L 3425 3897 
Q 3066 4069 2747 4153 
Q 2428 4238 2131 4238 
Q 1616 4238 1336 4038 
Q 1056 3838 1056 3469 
Q 1056 3159 1242 3001 
Q 1428 2844 1947 2747 
L 2328 2669 
Q 3034 2534 3370 2195 
Q 3706 1856 3706 1288 
Q 3706 609 3251 259 
Q 2797 -91 1919 -91 
Q 1588 -91 1214 -16 
Q 841 59 441 206 
L 441 856 
Q 825 641 1194 531 
Q 1563 422 1919 422 
Q 2459 422 2753 634 
Q 3047 847 3047 1241 
Q 3047 1584 2836 1778 
Q 2625 1972 2144 2069 
L 1759 2144 
Q 1053 2284 737 2584 
Q 422 2884 422 3419 
Q 422 4038 858 4394 
Q 1294 4750 2059 4750 
Q 2388 4750 2728 4690 
Q 3069 4631 3425 4513 
z
" transform="scale(0.015625)"/>
       <path id="DejaVuSans-43" d="M 4122 4306 
L 4122 3641 
Q 3803 3938 3442 4084 
Q 3081 4231 2675 4231 
Q 1875 4231 1450 3742 
Q 1025 3253 1025 2328 
Q 1025 1406 1450 917 
Q 1875 428 2675 428 
Q 3081 428 3442 575 
Q 3803 722 4122 1019 
L 4122 359 
Q 3791 134 3420 21 
Q 3050 -91 2638 -91 
Q 1578 -91 968 557 
Q 359 1206 359 2328 
Q 359 3453 968 4101 
Q 1578 4750 2638 4750 
Q 3056 4750 3426 4639 
Q 3797 4528 4122 4306 
z
" transform="scale(0.015625)"/>
       <path id="DejaVuSans-4f" d="M 2522 4238 
Q 1834 4238 1429 3725 
Q 1025 3213 1025 2328 
Q 1025 1447 1429 934 
Q 1834 422 2522 422 
Q 3209 422 3611 934 
Q 4013 1447 4013 2328 
Q 4013 3213 3611 3725 
Q 3209 4238 2522 4238 
z
M 2522 4750 
Q 3503 4750 4090 4092 
Q 4678 3434 4678 2328 
Q 4678 1225 4090 567 
Q 3503 -91 2522 -91 
Q 1538 -91 948 565 
Q 359 1222 359 2328 
Q 359 3434 948 4092 
Q 1538 4750 2522 4750 
z
" transform="scale(0.015625)"/>
       <path id="DejaVuSans-78" d="M 3513 3500 
L 2247 1797 
L 3578 0 
L 2900 0 
L 1881 1375 
L 863 0 
L 184 0 
L 1544 1831 
L 300 3500 
L 978 3500 
L 1906 2253 
L 2834 3500 
L 3513 3500 
z
" transform="scale(0.015625)"/>
      </defs>
      <use xlink:href="#DejaVuSans-53"/>
      <use xlink:href="#DejaVuSans-43" x="63.476562"/>
      <use xlink:href="#DejaVuSans-4f" x="133.300781"/>
      <use xlink:href="#DejaVuSans-50" x="212.011719"/>
      <use xlink:href="#DejaVuSans-34" x="272.314453"/>
      <use xlink:href="#DejaVuSans-30" x="335.9375"/>
      <use xlink:href="#DejaVuSans-78" x="399.560547"/>
      <use xlink:href="#DejaVuSans-38" x="458.740234"/>
     </g>
    </g>
    <g id="line2d_24">
     <path d="M 263.404293 75.682813 
L 273.404293 75.682813 
L 283.404293 75.682813 
" style="fill: none; stroke-dasharray: 5.55,2.4; stroke-dashoffset: 0; stroke: #0000ff; stroke-width: 1.5"/>
    </g>
    <g id="text_20">
     <!-- SCOP40x4 -->
     <g transform="translate(291.404293 79.182813) scale(0.1 -0.1)">
      <use xlink:href="#DejaVuSans-53"/>
      <use xlink:href="#DejaVuSans-43" x="63.476562"/>
      <use xlink:href="#DejaVuSans-4f" x="133.300781"/>
      <use xlink:href="#DejaVuSans-50" x="212.011719"/>
      <use xlink:href="#DejaVuSans-34" x="272.314453"/>
      <use xlink:href="#DejaVuSans-30" x="335.9375"/>
      <use xlink:href="#DejaVuSans-78" x="399.560547"/>
      <use xlink:href="#DejaVuSans-34" x="458.740234"/>
     </g>
    </g>
    <g id="line2d_25">
     <path d="M 263.404293 90.360937 
L 273.404293 90.360937 
L 283.404293 90.360937 
" style="fill: none; stroke-dasharray: 1.5,2.475; stroke-dashoffset: 0; stroke: #0000ff; stroke-width: 1.5"/>
    </g>
    <g id="text_21">
     <!-- SCOP40x2 -->
     <g transform="translate(291.404293 93.860937) scale(0.1 -0.1)">
      <use xlink:href="#DejaVuSans-53"/>
      <use xlink:href="#DejaVuSans-43" x="63.476562"/>
      <use xlink:href="#DejaVuSans-4f" x="133.300781"/>
      <use xlink:href="#DejaVuSans-50" x="212.011719"/>
      <use xlink:href="#DejaVuSans-34" x="272.314453"/>
      <use xlink:href="#DejaVuSans-30" x="335.9375"/>
      <use xlink:href="#DejaVuSans-78" x="399.560547"/>
      <use xlink:href="#DejaVuSans-32" x="458.740234"/>
     </g>
    </g>
    <g id="line2d_26">
     <path d="M 263.404293 105.039062 
L 273.404293 105.039062 
L 283.404293 105.039062 
" style="fill: none; stroke: #000000; stroke-width: 1.5; stroke-linecap: square"/>
    </g>
    <g id="text_22">
     <!-- SCOP40 -->
     <g transform="translate(291.404293 108.539062) scale(0.1 -0.1)">
      <use xlink:href="#DejaVuSans-53"/>
      <use xlink:href="#DejaVuSans-43" x="63.476562"/>
      <use xlink:href="#DejaVuSans-4f" x="133.300781"/>
      <use xlink:href="#DejaVuSans-50" x="212.011719"/>
      <use xlink:href="#DejaVuSans-34" x="272.314453"/>
      <use xlink:href="#DejaVuSans-30" x="335.9375"/>
     </g>
    </g>
    <g id="line2d_27">
     <path d="M 263.404293 119.717187 
L 273.404293 119.717187 
L 283.404293 119.717187 
" style="fill: none; stroke: #ffa500; stroke-width: 1.5; stroke-linecap: square"/>
    </g>
    <g id="text_23">
     <!-- SCOP40/2 -->
     <g transform="translate(291.404293 123.217187) scale(0.1 -0.1)">
      <defs>
       <path id="DejaVuSans-2f" d="M 1625 4666 
L 2156 4666 
L 531 -594 
L 0 -594 
L 1625 4666 
z
" transform="scale(0.015625)"/>
      </defs>
      <use xlink:href="#DejaVuSans-53"/>
      <use xlink:href="#DejaVuSans-43" x="63.476562"/>
      <use xlink:href="#DejaVuSans-4f" x="133.300781"/>
      <use xlink:href="#DejaVuSans-50" x="212.011719"/>
      <use xlink:href="#DejaVuSans-34" x="272.314453"/>
      <use xlink:href="#DejaVuSans-30" x="335.9375"/>
      <use xlink:href="#DejaVuSans-2f" x="399.560547"/>
      <use xlink:href="#DejaVuSans-32" x="433.251953"/>
     </g>
    </g>
    <g id="line2d_28">
     <path d="M 263.404293 134.395312 
L 273.404293 134.395312 
L 283.404293 134.395312 
" style="fill: none; stroke-dasharray: 5.55,2.4; stroke-dashoffset: 0; stroke: #ffa500; stroke-width: 1.5"/>
    </g>
    <g id="text_24">
     <!-- SCOP40/4 -->
     <g transform="translate(291.404293 137.895312) scale(0.1 -0.1)">
      <use xlink:href="#DejaVuSans-53"/>
      <use xlink:href="#DejaVuSans-43" x="63.476562"/>
      <use xlink:href="#DejaVuSans-4f" x="133.300781"/>
      <use xlink:href="#DejaVuSans-50" x="212.011719"/>
      <use xlink:href="#DejaVuSans-34" x="272.314453"/>
      <use xlink:href="#DejaVuSans-30" x="335.9375"/>
      <use xlink:href="#DejaVuSans-2f" x="399.560547"/>
      <use xlink:href="#DejaVuSans-34" x="433.251953"/>
     </g>
    </g>
    <g id="line2d_29">
     <path d="M 263.404293 149.073437 
L 273.404293 149.073437 
L 283.404293 149.073437 
" style="fill: none; stroke-dasharray: 1.5,2.475; stroke-dashoffset: 0; stroke: #ffa500; stroke-width: 1.5"/>
    </g>
    <g id="text_25">
     <!-- SCOP40/8 -->
     <g transform="translate(291.404293 152.573437) scale(0.1 -0.1)">
      <use xlink:href="#DejaVuSans-53"/>
      <use xlink:href="#DejaVuSans-43" x="63.476562"/>
      <use xlink:href="#DejaVuSans-4f" x="133.300781"/>
      <use xlink:href="#DejaVuSans-50" x="212.011719"/>
      <use xlink:href="#DejaVuSans-34" x="272.314453"/>
      <use xlink:href="#DejaVuSans-30" x="335.9375"/>
      <use xlink:href="#DejaVuSans-2f" x="399.560547"/>
      <use xlink:href="#DejaVuSans-38" x="433.251953"/>
     </g>
    </g>
   </g>
  </g>
  <g id="axes_2">
   <g id="patch_8">
    <path d="M 418.367451 238.559481 
L 722.840806 238.559481 
L 722.840806 47.90625 
L 418.367451 47.90625 
z
" style="fill: #ffffff"/>
   </g>
   <g id="matplotlib.axis_3">
    <g id="xtick_10">
     <g id="line2d_30">
      <g>
       <use xlink:href="#m6d4ce91817" x="436.277649" y="238.559481" style="stroke: #000000; stroke-width: 0.8"/>
      </g>
     </g>
     <g id="text_26">
      <!-- 40 -->
      <g transform="translate(429.915149 253.157918) scale(0.1 -0.1)">
       <use xlink:href="#DejaVuSans-34"/>
       <use xlink:href="#DejaVuSans-30" x="63.623047"/>
      </g>
     </g>
    </g>
    <g id="xtick_11">
     <g id="line2d_31">
      <g>
       <use xlink:href="#m6d4ce91817" x="472.098043" y="238.559481" style="stroke: #000000; stroke-width: 0.8"/>
      </g>
     </g>
     <g id="text_27">
      <!-- 60 -->
      <g transform="translate(465.735543 253.157918) scale(0.1 -0.1)">
       <use xlink:href="#DejaVuSans-36"/>
       <use xlink:href="#DejaVuSans-30" x="63.623047"/>
      </g>
     </g>
    </g>
    <g id="xtick_12">
     <g id="line2d_32">
      <g>
       <use xlink:href="#m6d4ce91817" x="507.918438" y="238.559481" style="stroke: #000000; stroke-width: 0.8"/>
      </g>
     </g>
     <g id="text_28">
      <!-- 80 -->
      <g transform="translate(501.555938 253.157918) scale(0.1 -0.1)">
       <use xlink:href="#DejaVuSans-38"/>
       <use xlink:href="#DejaVuSans-30" x="63.623047"/>
      </g>
     </g>
    </g>
    <g id="xtick_13">
     <g id="line2d_33">
      <g>
       <use xlink:href="#m6d4ce91817" x="543.738833" y="238.559481" style="stroke: #000000; stroke-width: 0.8"/>
      </g>
     </g>
     <g id="text_29">
      <!-- 100 -->
      <g transform="translate(534.195083 253.157918) scale(0.1 -0.1)">
       <use xlink:href="#DejaVuSans-31"/>
       <use xlink:href="#DejaVuSans-30" x="63.623047"/>
       <use xlink:href="#DejaVuSans-30" x="127.246094"/>
      </g>
     </g>
    </g>
    <g id="xtick_14">
     <g id="line2d_34">
      <g>
       <use xlink:href="#m6d4ce91817" x="579.559228" y="238.559481" style="stroke: #000000; stroke-width: 0.8"/>
      </g>
     </g>
     <g id="text_30">
      <!-- 120 -->
      <g transform="translate(570.015478 253.157918) scale(0.1 -0.1)">
       <use xlink:href="#DejaVuSans-31"/>
       <use xlink:href="#DejaVuSans-32" x="63.623047"/>
       <use xlink:href="#DejaVuSans-30" x="127.246094"/>
      </g>
     </g>
    </g>
    <g id="xtick_15">
     <g id="line2d_35">
      <g>
       <use xlink:href="#m6d4ce91817" x="615.379622" y="238.559481" style="stroke: #000000; stroke-width: 0.8"/>
      </g>
     </g>
     <g id="text_31">
      <!-- 140 -->
      <g transform="translate(605.835872 253.157918) scale(0.1 -0.1)">
       <use xlink:href="#DejaVuSans-31"/>
       <use xlink:href="#DejaVuSans-34" x="63.623047"/>
       <use xlink:href="#DejaVuSans-30" x="127.246094"/>
      </g>
     </g>
    </g>
    <g id="xtick_16">
     <g id="line2d_36">
      <g>
       <use xlink:href="#m6d4ce91817" x="651.200017" y="238.559481" style="stroke: #000000; stroke-width: 0.8"/>
      </g>
     </g>
     <g id="text_32">
      <!-- 160 -->
      <g transform="translate(641.656267 253.157918) scale(0.1 -0.1)">
       <use xlink:href="#DejaVuSans-31"/>
       <use xlink:href="#DejaVuSans-36" x="63.623047"/>
       <use xlink:href="#DejaVuSans-30" x="127.246094"/>
      </g>
     </g>
    </g>
    <g id="xtick_17">
     <g id="line2d_37">
      <g>
       <use xlink:href="#m6d4ce91817" x="687.020412" y="238.559481" style="stroke: #000000; stroke-width: 0.8"/>
      </g>
     </g>
     <g id="text_33">
      <!-- 180 -->
      <g transform="translate(677.476662 253.157918) scale(0.1 -0.1)">
       <use xlink:href="#DejaVuSans-31"/>
       <use xlink:href="#DejaVuSans-38" x="63.623047"/>
       <use xlink:href="#DejaVuSans-30" x="127.246094"/>
      </g>
     </g>
    </g>
    <g id="xtick_18">
     <g id="line2d_38">
      <g>
       <use xlink:href="#m6d4ce91817" x="722.840806" y="238.559481" style="stroke: #000000; stroke-width: 0.8"/>
      </g>
     </g>
     <g id="text_34">
      <!-- 200 -->
      <g transform="translate(713.297056 253.157918) scale(0.1 -0.1)">
       <use xlink:href="#DejaVuSans-32"/>
       <use xlink:href="#DejaVuSans-30" x="63.623047"/>
       <use xlink:href="#DejaVuSans-30" x="127.246094"/>
      </g>
     </g>
    </g>
    <g id="text_35">
     <!-- Bits -->
     <g transform="translate(561.219754 266.836043) scale(0.1 -0.1)">
      <use xlink:href="#DejaVuSans-42"/>
      <use xlink:href="#DejaVuSans-69" x="68.603516"/>
      <use xlink:href="#DejaVuSans-74" x="96.386719"/>
      <use xlink:href="#DejaVuSans-73" x="135.595703"/>
     </g>
    </g>
   </g>
   <g id="matplotlib.axis_4">
    <g id="ytick_7">
     <g id="line2d_39">
      <g>
       <use xlink:href="#m6a0084c1ec" x="418.367451" y="238.559481" style="stroke: #000000; stroke-width: 0.8"/>
      </g>
     </g>
     <g id="text_36">
      <!-- $\mathdefault{10^{-2}}$ -->
      <g transform="translate(387.867451 242.358699) scale(0.1 -0.1)">
       <defs>
        <path id="DejaVuSans-2212" d="M 678 2272 
L 4684 2272 
L 4684 1741 
L 678 1741 
L 678 2272 
z
" transform="scale(0.015625)"/>
       </defs>
       <use xlink:href="#DejaVuSans-31" transform="translate(0 0.765625)"/>
       <use xlink:href="#DejaVuSans-30" transform="translate(63.623047 0.765625)"/>
       <use xlink:href="#DejaVuSans-2212" transform="translate(128.203125 39.046875) scale(0.7)"/>
       <use xlink:href="#DejaVuSans-32" transform="translate(186.855469 39.046875) scale(0.7)"/>
      </g>
     </g>
    </g>
    <g id="ytick_8">
     <g id="line2d_40">
      <g>
       <use xlink:href="#m6a0084c1ec" x="418.367451" y="143.232865" style="stroke: #000000; stroke-width: 0.8"/>
      </g>
     </g>
     <g id="text_37">
      <!-- $\mathdefault{10^{-1}}$ -->
      <g transform="translate(387.867451 147.032084) scale(0.1 -0.1)">
       <use xlink:href="#DejaVuSans-31" transform="translate(0 0.684375)"/>
       <use xlink:href="#DejaVuSans-30" transform="translate(63.623047 0.684375)"/>
       <use xlink:href="#DejaVuSans-2212" transform="translate(128.203125 38.965625) scale(0.7)"/>
       <use xlink:href="#DejaVuSans-31" transform="translate(186.855469 38.965625) scale(0.7)"/>
      </g>
     </g>
    </g>
    <g id="ytick_9">
     <g id="line2d_41">
      <g>
       <use xlink:href="#m6a0084c1ec" x="418.367451" y="47.90625" style="stroke: #000000; stroke-width: 0.8"/>
      </g>
     </g>
     <g id="text_38">
      <!-- $\mathdefault{10^{0}}$ -->
      <g transform="translate(393.767451 51.705469) scale(0.1 -0.1)">
       <use xlink:href="#DejaVuSans-31" transform="translate(0 0.765625)"/>
       <use xlink:href="#DejaVuSans-30" transform="translate(63.623047 0.765625)"/>
       <use xlink:href="#DejaVuSans-30" transform="translate(128.203125 39.046875) scale(0.7)"/>
      </g>
     </g>
    </g>
    <g id="ytick_10">
     <g id="line2d_42">
      <defs>
       <path id="m549afcb5e3" d="M 0 0 
L -2 0 
" style="stroke: #000000; stroke-width: 0.6"/>
      </defs>
      <g>
       <use xlink:href="#m549afcb5e3" x="418.367451" y="209.86331" style="stroke: #000000; stroke-width: 0.6"/>
      </g>
     </g>
    </g>
    <g id="ytick_11">
     <g id="line2d_43">
      <g>
       <use xlink:href="#m549afcb5e3" x="418.367451" y="193.077126" style="stroke: #000000; stroke-width: 0.6"/>
      </g>
     </g>
    </g>
    <g id="ytick_12">
     <g id="line2d_44">
      <g>
       <use xlink:href="#m549afcb5e3" x="418.367451" y="181.167139" style="stroke: #000000; stroke-width: 0.6"/>
      </g>
     </g>
    </g>
    <g id="ytick_13">
     <g id="line2d_45">
      <g>
       <use xlink:href="#m549afcb5e3" x="418.367451" y="171.929036" style="stroke: #000000; stroke-width: 0.6"/>
      </g>
     </g>
    </g>
    <g id="ytick_14">
     <g id="line2d_46">
      <g>
       <use xlink:href="#m549afcb5e3" x="418.367451" y="164.380956" style="stroke: #000000; stroke-width: 0.6"/>
      </g>
     </g>
    </g>
    <g id="ytick_15">
     <g id="line2d_47">
      <g>
       <use xlink:href="#m549afcb5e3" x="418.367451" y="157.999145" style="stroke: #000000; stroke-width: 0.6"/>
      </g>
     </g>
    </g>
    <g id="ytick_16">
     <g id="line2d_48">
      <g>
       <use xlink:href="#m549afcb5e3" x="418.367451" y="152.470969" style="stroke: #000000; stroke-width: 0.6"/>
      </g>
     </g>
    </g>
    <g id="ytick_17">
     <g id="line2d_49">
      <g>
       <use xlink:href="#m549afcb5e3" x="418.367451" y="147.594772" style="stroke: #000000; stroke-width: 0.6"/>
      </g>
     </g>
    </g>
    <g id="ytick_18">
     <g id="line2d_50">
      <g>
       <use xlink:href="#m549afcb5e3" x="418.367451" y="114.536695" style="stroke: #000000; stroke-width: 0.6"/>
      </g>
     </g>
    </g>
    <g id="ytick_19">
     <g id="line2d_51">
      <g>
       <use xlink:href="#m549afcb5e3" x="418.367451" y="97.750511" style="stroke: #000000; stroke-width: 0.6"/>
      </g>
     </g>
    </g>
    <g id="ytick_20">
     <g id="line2d_52">
      <g>
       <use xlink:href="#m549afcb5e3" x="418.367451" y="85.840524" style="stroke: #000000; stroke-width: 0.6"/>
      </g>
     </g>
    </g>
    <g id="ytick_21">
     <g id="line2d_53">
      <g>
       <use xlink:href="#m549afcb5e3" x="418.367451" y="76.602421" style="stroke: #000000; stroke-width: 0.6"/>
      </g>
     </g>
    </g>
    <g id="ytick_22">
     <g id="line2d_54">
      <g>
       <use xlink:href="#m549afcb5e3" x="418.367451" y="69.05434" style="stroke: #000000; stroke-width: 0.6"/>
      </g>
     </g>
    </g>
    <g id="ytick_23">
     <g id="line2d_55">
      <g>
       <use xlink:href="#m549afcb5e3" x="418.367451" y="62.67253" style="stroke: #000000; stroke-width: 0.6"/>
      </g>
     </g>
    </g>
    <g id="ytick_24">
     <g id="line2d_56">
      <g>
       <use xlink:href="#m549afcb5e3" x="418.367451" y="57.144354" style="stroke: #000000; stroke-width: 0.6"/>
      </g>
     </g>
    </g>
    <g id="ytick_25">
     <g id="line2d_57">
      <g>
       <use xlink:href="#m549afcb5e3" x="418.367451" y="52.268157" style="stroke: #000000; stroke-width: 0.6"/>
      </g>
     </g>
    </g>
    <g id="text_39">
     <!-- P(F|score) -->
     <g transform="translate(381.509639 168.14224) rotate(-90) scale(0.1 -0.1)">
      <use xlink:href="#DejaVuSans-50"/>
      <use xlink:href="#DejaVuSans-28" x="60.302734"/>
      <use xlink:href="#DejaVuSans-46" x="99.316406"/>
      <use xlink:href="#DejaVuSans-7c" x="156.835938"/>
      <use xlink:href="#DejaVuSans-73" x="190.527344"/>
      <use xlink:href="#DejaVuSans-63" x="242.626953"/>
      <use xlink:href="#DejaVuSans-6f" x="297.607422"/>
      <use xlink:href="#DejaVuSans-72" x="358.789062"/>
      <use xlink:href="#DejaVuSans-65" x="397.652344"/>
      <use xlink:href="#DejaVuSans-29" x="459.175781"/>
     </g>
    </g>
   </g>
   <g id="line2d_58">
    <path d="M 368.965657 281.519481 
L 368.978291 47.90625 
L 374.134637 47.989131 
L 379.290983 48.192899 
L 384.445537 48.330698 
L 389.603674 48.519345 
L 394.761811 48.903481 
L 399.919948 49.364053 
L 405.078085 49.886223 
L 410.218311 50.728551 
L 415.376448 51.660837 
L 420.534585 52.819204 
L 425.692722 54.111796 
L 430.850859 55.223138 
L 436.008996 56.548365 
L 441.167133 57.959626 
L 446.325269 59.623488 
L 451.465496 62.003737 
L 456.623633 63.757092 
L 461.78177 67.04101 
L 466.939907 68.234516 
L 472.098043 71.557288 
L 477.25618 74.174478 
L 482.414317 76.768352 
L 487.572454 79.076061 
L 492.730591 82.017199 
L 497.870817 86.814435 
L 503.028954 90.053202 
L 508.187091 93.854898 
L 513.345228 95.586288 
L 518.503365 99.613394 
L 523.661502 103.058473 
L 528.819638 105.49779 
L 533.977775 109.80796 
L 539.118002 115.776364 
L 544.276139 114.042854 
L 549.470096 117.764288 
L 554.664053 120.756675 
L 559.678908 122.651677 
L 564.872866 124.374239 
L 570.066823 129.302974 
L 575.26078 128.367347 
L 580.454737 132.851499 
L 585.469593 132.658644 
L 590.66355 135.581414 
L 595.857507 142.698135 
L 601.051464 141.055546 
L 606.06632 141.848672 
L 611.260277 146.028581 
L 616.454234 140.898728 
L 621.648191 145.58363 
L 626.842149 152.662886 
L 631.857004 153.99422 
L 637.050961 154.085592 
L 642.244918 155.603564 
L 647.438876 166.294393 
L 652.632833 158.926159 
L 657.647688 166.942586 
L 662.841645 163.07023 
L 668.035603 172.638883 
L 673.22956 171.247441 
L 678.423517 173.965502 
L 683.438372 171.467934 
L 688.632329 171.525293 
L 693.826287 176.383044 
L 699.020244 182.109276 
L 704.035099 178.375758 
L 709.229056 177.608893 
L 714.423014 179.792957 
L 719.616971 195.785825 
L 724.810928 183.542013 
L 729.825783 187.147259 
L 735.019741 196.111228 
L 740.213698 186.7782 
L 744.225806 195.574819 
" clip-path="url(#pc1d9a3dd3c)" style="fill: none; stroke: #0000ff; stroke-width: 1.5; stroke-linecap: square"/>
   </g>
   <g id="line2d_59">
    <path d="M 368.965657 281.519481 
L 368.978291 47.90625 
L 374.134637 47.989131 
L 379.290983 48.192899 
L 384.445537 48.330698 
L 389.603674 48.519345 
L 394.761811 48.903481 
L 399.919948 49.364053 
L 405.078085 49.886223 
L 410.218311 50.728551 
L 415.376448 51.660837 
L 420.534585 52.819204 
L 425.692722 54.111796 
L 430.850859 55.223138 
L 436.008996 56.548365 
L 441.167133 57.959626 
L 446.325269 59.623488 
L 451.465496 62.003737 
L 456.623633 63.757092 
L 461.78177 67.04101 
L 466.939907 68.234516 
L 472.098043 71.557288 
L 477.25618 74.174478 
L 482.414317 76.768352 
L 487.572454 79.076061 
L 492.730591 82.017199 
L 497.870817 86.814435 
L 503.028954 90.053202 
L 508.187091 93.854898 
L 513.345228 95.586288 
L 518.503365 99.613394 
L 523.661502 103.058473 
L 528.819638 105.49779 
L 533.977775 109.80796 
L 539.118002 115.776364 
L 544.276139 114.042854 
L 549.470096 117.764288 
L 554.664053 120.756675 
L 559.678908 122.651677 
L 564.872866 124.374239 
L 570.066823 129.302974 
L 575.26078 128.367347 
L 580.454737 132.851499 
L 585.469593 132.658644 
L 590.66355 135.581414 
L 595.857507 142.698135 
L 601.051464 141.055546 
L 606.06632 141.848672 
L 611.260277 146.028581 
L 616.454234 140.898728 
L 621.648191 145.58363 
L 626.842149 152.662886 
L 631.857004 153.99422 
L 637.050961 154.085592 
L 642.244918 155.603564 
L 647.438876 166.294393 
L 652.632833 158.926159 
L 657.647688 166.942586 
L 662.841645 163.07023 
L 668.035603 172.638883 
L 673.22956 171.247441 
L 678.423517 173.965502 
L 683.438372 171.467934 
L 688.632329 171.525293 
L 693.826287 176.383044 
L 699.020244 182.109276 
L 704.035099 178.375758 
L 709.229056 177.608893 
L 714.423014 179.792957 
L 719.616971 195.785825 
L 724.810928 183.542013 
L 729.825783 187.147259 
L 735.019741 196.111228 
L 740.213698 186.7782 
L 744.225806 195.574819 
" clip-path="url(#pc1d9a3dd3c)" style="fill: none; stroke-dasharray: 5.55,2.4; stroke-dashoffset: 0; stroke: #0000ff; stroke-width: 1.5"/>
   </g>
   <g id="line2d_60">
    <path d="M 368.965657 281.519481 
L 368.978291 47.90625 
L 374.134637 47.989131 
L 379.290983 48.192899 
L 384.445537 48.330698 
L 389.603674 48.519345 
L 394.761811 48.903481 
L 399.919948 49.364053 
L 405.078085 49.886223 
L 410.218311 50.728551 
L 415.376448 51.660837 
L 420.534585 52.819204 
L 425.692722 54.111796 
L 430.850859 55.223138 
L 436.008996 56.548365 
L 441.167133 57.959626 
L 446.325269 59.623488 
L 451.465496 62.003737 
L 456.623633 63.757092 
L 461.78177 67.04101 
L 466.939907 68.234516 
L 472.098043 71.557288 
L 477.25618 74.174478 
L 482.414317 76.768352 
L 487.572454 79.076061 
L 492.730591 82.017199 
L 497.870817 86.814435 
L 503.028954 90.053202 
L 508.187091 93.854898 
L 513.345228 95.586288 
L 518.503365 99.613394 
L 523.661502 103.058473 
L 528.819638 105.49779 
L 533.977775 109.80796 
L 539.118002 115.776364 
L 544.276139 114.042854 
L 549.470096 117.764288 
L 554.664053 120.756675 
L 559.678908 122.651677 
L 564.872866 124.374239 
L 570.066823 129.302974 
L 575.26078 128.367347 
L 580.454737 132.851499 
L 585.469593 132.658644 
L 590.66355 135.581414 
L 595.857507 142.698135 
L 601.051464 141.055546 
L 606.06632 141.848672 
L 611.260277 146.028581 
L 616.454234 140.898728 
L 621.648191 145.58363 
L 626.842149 152.662886 
L 631.857004 153.99422 
L 637.050961 154.085592 
L 642.244918 155.603564 
L 647.438876 166.294393 
L 652.632833 158.926159 
L 657.647688 166.942586 
L 662.841645 163.07023 
L 668.035603 172.638883 
L 673.22956 171.247441 
L 678.423517 173.965502 
L 683.438372 171.467934 
L 688.632329 171.525293 
L 693.826287 176.383044 
L 699.020244 182.109276 
L 704.035099 178.375758 
L 709.229056 177.608893 
L 714.423014 179.792957 
L 719.616971 195.785825 
L 724.810928 183.542013 
L 729.825783 187.147259 
L 735.019741 196.111228 
L 740.213698 186.7782 
L 744.225806 195.574819 
" clip-path="url(#pc1d9a3dd3c)" style="fill: none; stroke-dasharray: 1.5,2.475; stroke-dashoffset: 0; stroke: #0000ff; stroke-width: 1.5"/>
   </g>
   <g id="line2d_61">
    <path d="M 363.810206 281.519481 
L 363.822841 47.90625 
L 368.978291 48.005728 
L 374.134637 48.026484 
L 379.290983 48.122092 
L 384.445537 48.247128 
L 389.603674 48.452173 
L 394.761811 48.793363 
L 399.919948 49.141655 
L 405.078085 49.535944 
L 410.218311 50.156356 
L 415.376448 50.888413 
L 420.534585 51.742511 
L 425.692722 52.786586 
L 430.850859 53.862458 
L 436.008996 54.90816 
L 441.167133 56.268758 
L 446.325269 57.63892 
L 451.465496 59.62898 
L 456.623633 61.477521 
L 461.78177 63.82393 
L 466.939907 65.158727 
L 472.098043 68.11293 
L 477.25618 69.848507 
L 482.414317 72.349125 
L 487.572454 74.127656 
L 492.730591 77.270173 
L 497.870817 80.98273 
L 503.028954 84.246661 
L 508.187091 87.530547 
L 513.345228 88.934066 
L 518.503365 92.265482 
L 523.661502 95.612491 
L 528.819638 97.0255 
L 533.977775 100.136347 
L 539.118002 104.88665 
L 544.276139 105.798395 
L 549.470096 107.877843 
L 554.664053 112.124373 
L 559.678908 112.853297 
L 564.872866 115.057453 
L 570.066823 118.16907 
L 575.26078 118.056234 
L 580.454737 124.584791 
L 585.469593 124.532052 
L 590.66355 128.80329 
L 595.857507 133.435519 
L 601.051464 131.364297 
L 606.06632 134.797369 
L 611.260277 137.302996 
L 616.454234 133.468208 
L 621.648191 137.482761 
L 626.842149 146.117262 
L 631.857004 146.946673 
L 637.050961 148.24383 
L 642.244918 147.788424 
L 647.438876 161.890592 
L 652.632833 151.722234 
L 657.647688 163.784969 
L 662.841645 158.278051 
L 668.035603 168.988925 
L 673.22956 168.620378 
L 678.423517 170.122594 
L 683.438372 169.058394 
L 688.632329 167.363116 
L 693.826287 174.236005 
L 699.020244 176.300144 
L 704.035099 173.895981 
L 709.229056 172.261565 
L 714.423014 178.124967 
L 719.616971 193.381843 
L 724.810928 180.878351 
L 729.825783 187.519638 
L 735.019741 192.419973 
L 740.213698 187.495511 
L 744.225806 193.45863 
" clip-path="url(#pc1d9a3dd3c)" style="fill: none; stroke: #000000; stroke-width: 1.5; stroke-linecap: square"/>
   </g>
   <g id="line2d_62">
    <path d="M 368.965666 281.519481 
L 368.978291 48.072182 
L 374.134637 48.030637 
L 379.290983 48.113768 
L 384.445537 48.238781 
L 389.603674 48.447977 
L 394.761811 48.784906 
L 399.919948 49.124597 
L 405.078085 49.510113 
L 410.218311 50.073385 
L 415.376448 50.821728 
L 420.534585 51.719807 
L 425.692722 52.6378 
L 430.850859 53.862458 
L 436.008996 54.976857 
L 441.167133 56.273826 
L 446.325269 57.875264 
L 451.465496 59.650967 
L 456.623633 61.62142 
L 461.78177 63.872608 
L 466.939907 65.171292 
L 472.098043 68.302217 
L 477.25618 70.031783 
L 482.414317 72.058752 
L 487.572454 73.724053 
L 492.730591 77.693057 
L 497.870817 80.234796 
L 503.028954 84.516433 
L 508.187091 85.944154 
L 513.345228 87.638502 
L 518.503365 94.182771 
L 523.661502 94.564337 
L 528.819638 96.393018 
L 533.977775 100.165595 
L 539.118002 102.420223 
L 544.276139 104.804752 
L 549.470096 105.464523 
L 554.664053 109.112148 
L 559.678908 111.159299 
L 564.872866 114.124751 
L 570.066823 118.214292 
L 575.26078 114.124751 
L 580.454737 124.82295 
L 585.469593 126.171601 
L 590.66355 128.715731 
L 595.857507 136.380597 
L 601.051464 130.199758 
L 606.06632 133.337607 
L 611.260277 137.808318 
L 616.454234 130.503051 
L 621.648191 132.371033 
L 626.842149 142.820922 
L 631.857004 151.247239 
L 637.050961 147.733003 
L 642.244918 150.205368 
L 647.438876 159.382275 
L 652.632833 146.774948 
L 657.647688 160.62374 
L 662.841645 156.205161 
L 668.035603 169.127979 
L 673.22956 161.903592 
L 678.423517 165.999166 
L 683.438372 175.111896 
L 688.632329 161.386895 
L 693.826287 172.345118 
L 699.020244 168.742861 
L 704.035099 180.044018 
L 709.229056 173.965502 
L 714.423014 173.19004 
L 719.616971 188.139644 
L 724.810928 174.490668 
L 729.825783 194.338131 
L 735.019741 181.270767 
L 740.213698 197.592649 
L 744.225806 191.153675 
" clip-path="url(#pc1d9a3dd3c)" style="fill: none; stroke: #ffa500; stroke-width: 1.5; stroke-linecap: square"/>
   </g>
   <g id="line2d_63">
    <path d="M 363.813305 281.519481 
L 363.822841 105.298591 
L 368.978291 47.90625 
L 374.134637 48.030637 
L 379.290983 48.113768 
L 384.445537 48.238781 
L 389.603674 48.406054 
L 394.761811 48.742638 
L 399.919948 49.081983 
L 405.078085 49.467101 
L 410.218311 49.986229 
L 415.376448 50.60022 
L 420.534585 51.403257 
L 425.692722 52.406386 
L 430.850859 53.766958 
L 436.008996 54.391689 
L 441.167133 55.770169 
L 446.325269 57.040984 
L 451.465496 58.726706 
L 456.623633 60.991972 
L 461.78177 62.67253 
L 466.939907 64.300993 
L 472.098043 65.804328 
L 477.25618 67.830613 
L 482.414317 70.45786 
L 487.572454 73.11071 
L 492.730591 74.34662 
L 497.870817 78.552005 
L 503.028954 82.177937 
L 508.187091 83.233379 
L 513.345228 83.722166 
L 518.503365 87.208369 
L 523.661502 91.844567 
L 528.819638 92.447195 
L 533.977775 95.730607 
L 539.118002 100.754923 
L 544.276139 103.04279 
L 549.470096 104.804752 
L 554.664053 108.930966 
L 559.678908 109.844906 
L 564.872866 108.930966 
L 570.066823 110.779481 
L 575.26078 111.159299 
L 580.454737 127.002392 
L 585.469593 115.162397 
L 590.66355 125.089188 
L 595.857507 137.808318 
L 601.051464 126.171601 
L 606.06632 131.738961 
L 611.260277 134.327293 
L 616.454234 126.44668 
L 621.648191 133.0129 
L 626.842149 144.793717 
L 631.857004 151.197026 
L 637.050961 150.303473 
L 642.244918 148.431159 
L 647.438876 157.470254 
L 652.632833 140.431809 
L 657.647688 151.499217 
L 662.841645 161.773809 
L 668.035603 155.308785 
L 673.22956 159.016978 
L 678.423517 179.344848 
L 683.438372 168.513501 
L 688.632329 144.879785 
L 693.826287 162.558662 
L 699.020244 187.773809 
L 704.035099 176.660587 
L 709.229056 156.718035 
L 714.423014 186.813772 
L 719.616971 187.291008 
L 724.810928 179.643049 
L 729.825783 188.38534 
L 735.019741 190.018929 
L 740.213698 179.04878 
L 744.225806 178.521425 
" clip-path="url(#pc1d9a3dd3c)" style="fill: none; stroke-dasharray: 5.55,2.4; stroke-dashoffset: 0; stroke: #ffa500; stroke-width: 1.5"/>
   </g>
   <g id="line2d_64">
    <path d="M 368.965657 281.519481 
L 368.978291 47.90625 
L 374.134637 48.030637 
L 379.290983 48.155396 
L 384.445537 48.197069 
L 389.603674 48.447977 
L 394.761811 48.784906 
L 399.919948 49.209959 
L 405.078085 49.596274 
L 410.218311 50.117032 
L 415.376448 50.866172 
L 420.534585 51.856216 
L 425.692722 52.870514 
L 430.850859 53.766958 
L 436.008996 54.927776 
L 441.167133 55.920624 
L 446.325269 57.144353 
L 451.465496 59.322396 
L 456.623633 61.33412 
L 461.78177 64.485949 
L 466.939907 64.733854 
L 472.098043 66.642019 
L 477.25618 68.847858 
L 482.414317 71.763042 
L 487.572454 72.656595 
L 492.730591 77.693057 
L 497.870817 80.144503 
L 503.028954 82.65435 
L 508.187091 88.956379 
L 513.345228 90.548876 
L 518.503365 92.084564 
L 523.661502 97.612741 
L 528.819638 97.202162 
L 533.977775 101.80688 
L 539.118002 106.988615 
L 544.276139 102.574992 
L 549.470096 102.574992 
L 554.664053 117.988678 
L 559.678908 110.59087 
L 564.872866 110.030141 
L 570.066823 110.403115 
L 575.26078 120.540738 
L 580.454737 126.723603 
L 585.469593 123.774799 
L 590.66355 126.44668 
L 595.857507 123.260508 
L 601.051464 132.690725 
L 606.06632 122.752527 
L 611.260277 129.898666 
L 616.454234 123.005738 
L 621.648191 133.337607 
L 626.842149 140.431809 
L 631.857004 135.000474 
L 637.050961 145.139076 
L 642.244918 138.541076 
L 647.438876 144.793717 
L 652.632833 145.312843 
L 657.647688 153.945926 
L 662.841645 150.599185 
L 668.035603 152.834811 
L 673.22956 178.754818 
L 678.423517 233.134933 
L 683.438372 148.525144 
L 688.632329 152.730531 
L 693.826287 187.531705 
L 699.020244 172.596791 
L 704.035099 179.543409 
L 709.229056 182.534984 
L 714.423014 174.05257 
L 719.616971 185.99162 
L 724.810928 174.227252 
L 729.825783 175.833482 
L 735.019741 172.765425 
L 740.213698 178.754818 
L 744.225806 198.59456 
" clip-path="url(#pc1d9a3dd3c)" style="fill: none; stroke-dasharray: 1.5,2.475; stroke-dashoffset: 0; stroke: #ffa500; stroke-width: 1.5"/>
   </g>
   <g id="patch_9">
    <path d="M 418.367451 238.559481 
L 418.367451 47.90625 
" style="fill: none; stroke: #000000; stroke-width: 0.8; stroke-linejoin: miter; stroke-linecap: square"/>
   </g>
   <g id="patch_10">
    <path d="M 722.840806 238.559481 
L 722.840806 47.90625 
" style="fill: none; stroke: #000000; stroke-width: 0.8; stroke-linejoin: miter; stroke-linecap: square"/>
   </g>
   <g id="patch_11">
    <path d="M 418.367451 238.559481 
L 722.840806 238.559481 
" style="fill: none; stroke: #000000; stroke-width: 0.8; stroke-linejoin: miter; stroke-linecap: square"/>
   </g>
   <g id="patch_12">
    <path d="M 418.367451 47.90625 
L 722.840806 47.90625 
" style="fill: none; stroke: #000000; stroke-width: 0.8; stroke-linejoin: miter; stroke-linecap: square"/>
   </g>
   <g id="text_40">
    <!-- P(F|score) Foldseek E-value (logscale) -->
    <g transform="translate(457.150691 41.90625) scale(0.12 -0.12)">
     <defs>
      <path id="DejaVuSans-67" d="M 2906 1791 
Q 2906 2416 2648 2759 
Q 2391 3103 1925 3103 
Q 1463 3103 1205 2759 
Q 947 2416 947 1791 
Q 947 1169 1205 825 
Q 1463 481 1925 481 
Q 2391 481 2648 825 
Q 2906 1169 2906 1791 
z
M 3481 434 
Q 3481 -459 3084 -895 
Q 2688 -1331 1869 -1331 
Q 1566 -1331 1297 -1286 
Q 1028 -1241 775 -1147 
L 775 -588 
Q 1028 -725 1275 -790 
Q 1522 -856 1778 -856 
Q 2344 -856 2625 -561 
Q 2906 -266 2906 331 
L 2906 616 
Q 2728 306 2450 153 
Q 2172 0 1784 0 
Q 1141 0 747 490 
Q 353 981 353 1791 
Q 353 2603 747 3093 
Q 1141 3584 1784 3584 
Q 2172 3584 2450 3431 
Q 2728 3278 2906 2969 
L 2906 3500 
L 3481 3500 
L 3481 434 
z
" transform="scale(0.015625)"/>
     </defs>
     <use xlink:href="#DejaVuSans-50"/>
     <use xlink:href="#DejaVuSans-28" x="60.302734"/>
     <use xlink:href="#DejaVuSans-46" x="99.316406"/>
     <use xlink:href="#DejaVuSans-7c" x="156.835938"/>
     <use xlink:href="#DejaVuSans-73" x="190.527344"/>
     <use xlink:href="#DejaVuSans-63" x="242.626953"/>
     <use xlink:href="#DejaVuSans-6f" x="297.607422"/>
     <use xlink:href="#DejaVuSans-72" x="358.789062"/>
     <use xlink:href="#DejaVuSans-65" x="397.652344"/>
     <use xlink:href="#DejaVuSans-29" x="459.175781"/>
     <use xlink:href="#DejaVuSans-20" x="498.189453"/>
     <use xlink:href="#DejaVuSans-46" x="529.976562"/>
     <use xlink:href="#DejaVuSans-6f" x="583.871094"/>
     <use xlink:href="#DejaVuSans-6c" x="645.052734"/>
     <use xlink:href="#DejaVuSans-64" x="672.835938"/>
     <use xlink:href="#DejaVuSans-73" x="736.3125"/>
     <use xlink:href="#DejaVuSans-65" x="788.412109"/>
     <use xlink:href="#DejaVuSans-65" x="849.935547"/>
     <use xlink:href="#DejaVuSans-6b" x="911.458984"/>
     <use xlink:href="#DejaVuSans-20" x="969.369141"/>
     <use xlink:href="#DejaVuSans-45" x="1001.15625"/>
     <use xlink:href="#DejaVuSans-2d" x="1064.339844"/>
     <use xlink:href="#DejaVuSans-76" x="1097.798828"/>
     <use xlink:href="#DejaVuSans-61" x="1156.978516"/>
     <use xlink:href="#DejaVuSans-6c" x="1218.257812"/>
     <use xlink:href="#DejaVuSans-75" x="1246.041016"/>
     <use xlink:href="#DejaVuSans-65" x="1309.419922"/>
     <use xlink:href="#DejaVuSans-20" x="1370.943359"/>
     <use xlink:href="#DejaVuSans-28" x="1402.730469"/>
     <use xlink:href="#DejaVuSans-6c" x="1441.744141"/>
     <use xlink:href="#DejaVuSans-6f" x="1469.527344"/>
     <use xlink:href="#DejaVuSans-67" x="1530.708984"/>
     <use xlink:href="#DejaVuSans-73" x="1594.185547"/>
     <use xlink:href="#DejaVuSans-63" x="1646.285156"/>
     <use xlink:href="#DejaVuSans-61" x="1701.265625"/>
     <use xlink:href="#DejaVuSans-6c" x="1762.544922"/>
     <use xlink:href="#DejaVuSans-65" x="1790.328125"/>
     <use xlink:href="#DejaVuSans-29" x="1851.851562"/>
    </g>
   </g>
   <g id="legend_2">
    <g id="patch_13">
     <path d="M 425.367451 233.559481 
L 509.606514 233.559481 
Q 511.606514 233.559481 511.606514 231.559481 
L 511.606514 129.812606 
Q 511.606514 127.812606 509.606514 127.812606 
L 425.367451 127.812606 
Q 423.367451 127.812606 423.367451 129.812606 
L 423.367451 231.559481 
Q 423.367451 233.559481 425.367451 233.559481 
z
" style="fill: #ffffff; opacity: 0.8; stroke: #cccccc; stroke-linejoin: miter"/>
    </g>
    <g id="line2d_65">
     <path d="M 427.367451 135.911043 
L 437.367451 135.911043 
L 447.367451 135.911043 
" style="fill: none; stroke: #0000ff; stroke-width: 1.5; stroke-linecap: square"/>
    </g>
    <g id="text_41">
     <!-- SCOP40x8 -->
     <g transform="translate(455.367451 139.411043) scale(0.1 -0.1)">
      <use xlink:href="#DejaVuSans-53"/>
      <use xlink:href="#DejaVuSans-43" x="63.476562"/>
      <use xlink:href="#DejaVuSans-4f" x="133.300781"/>
      <use xlink:href="#DejaVuSans-50" x="212.011719"/>
      <use xlink:href="#DejaVuSans-34" x="272.314453"/>
      <use xlink:href="#DejaVuSans-30" x="335.9375"/>
      <use xlink:href="#DejaVuSans-78" x="399.560547"/>
      <use xlink:href="#DejaVuSans-38" x="458.740234"/>
     </g>
    </g>
    <g id="line2d_66">
     <path d="M 427.367451 150.589168 
L 437.367451 150.589168 
L 447.367451 150.589168 
" style="fill: none; stroke-dasharray: 5.55,2.4; stroke-dashoffset: 0; stroke: #0000ff; stroke-width: 1.5"/>
    </g>
    <g id="text_42">
     <!-- SCOP40x4 -->
     <g transform="translate(455.367451 154.089168) scale(0.1 -0.1)">
      <use xlink:href="#DejaVuSans-53"/>
      <use xlink:href="#DejaVuSans-43" x="63.476562"/>
      <use xlink:href="#DejaVuSans-4f" x="133.300781"/>
      <use xlink:href="#DejaVuSans-50" x="212.011719"/>
      <use xlink:href="#DejaVuSans-34" x="272.314453"/>
      <use xlink:href="#DejaVuSans-30" x="335.9375"/>
      <use xlink:href="#DejaVuSans-78" x="399.560547"/>
      <use xlink:href="#DejaVuSans-34" x="458.740234"/>
     </g>
    </g>
    <g id="line2d_67">
     <path d="M 427.367451 165.267293 
L 437.367451 165.267293 
L 447.367451 165.267293 
" style="fill: none; stroke-dasharray: 1.5,2.475; stroke-dashoffset: 0; stroke: #0000ff; stroke-width: 1.5"/>
    </g>
    <g id="text_43">
     <!-- SCOP40x2 -->
     <g transform="translate(455.367451 168.767293) scale(0.1 -0.1)">
      <use xlink:href="#DejaVuSans-53"/>
      <use xlink:href="#DejaVuSans-43" x="63.476562"/>
      <use xlink:href="#DejaVuSans-4f" x="133.300781"/>
      <use xlink:href="#DejaVuSans-50" x="212.011719"/>
      <use xlink:href="#DejaVuSans-34" x="272.314453"/>
      <use xlink:href="#DejaVuSans-30" x="335.9375"/>
      <use xlink:href="#DejaVuSans-78" x="399.560547"/>
      <use xlink:href="#DejaVuSans-32" x="458.740234"/>
     </g>
    </g>
    <g id="line2d_68">
     <path d="M 427.367451 179.945418 
L 437.367451 179.945418 
L 447.367451 179.945418 
" style="fill: none; stroke: #000000; stroke-width: 1.5; stroke-linecap: square"/>
    </g>
    <g id="text_44">
     <!-- SCOP40 -->
     <g transform="translate(455.367451 183.445418) scale(0.1 -0.1)">
      <use xlink:href="#DejaVuSans-53"/>
      <use xlink:href="#DejaVuSans-43" x="63.476562"/>
      <use xlink:href="#DejaVuSans-4f" x="133.300781"/>
      <use xlink:href="#DejaVuSans-50" x="212.011719"/>
      <use xlink:href="#DejaVuSans-34" x="272.314453"/>
      <use xlink:href="#DejaVuSans-30" x="335.9375"/>
     </g>
    </g>
    <g id="line2d_69">
     <path d="M 427.367451 194.623543 
L 437.367451 194.623543 
L 447.367451 194.623543 
" style="fill: none; stroke: #ffa500; stroke-width: 1.5; stroke-linecap: square"/>
    </g>
    <g id="text_45">
     <!-- SCOP40/2 -->
     <g transform="translate(455.367451 198.123543) scale(0.1 -0.1)">
      <use xlink:href="#DejaVuSans-53"/>
      <use xlink:href="#DejaVuSans-43" x="63.476562"/>
      <use xlink:href="#DejaVuSans-4f" x="133.300781"/>
      <use xlink:href="#DejaVuSans-50" x="212.011719"/>
      <use xlink:href="#DejaVuSans-34" x="272.314453"/>
      <use xlink:href="#DejaVuSans-30" x="335.9375"/>
      <use xlink:href="#DejaVuSans-2f" x="399.560547"/>
      <use xlink:href="#DejaVuSans-32" x="433.251953"/>
     </g>
    </g>
    <g id="line2d_70">
     <path d="M 427.367451 209.301668 
L 437.367451 209.301668 
L 447.367451 209.301668 
" style="fill: none; stroke-dasharray: 5.55,2.4; stroke-dashoffset: 0; stroke: #ffa500; stroke-width: 1.5"/>
    </g>
    <g id="text_46">
     <!-- SCOP40/4 -->
     <g transform="translate(455.367451 212.801668) scale(0.1 -0.1)">
      <use xlink:href="#DejaVuSans-53"/>
      <use xlink:href="#DejaVuSans-43" x="63.476562"/>
      <use xlink:href="#DejaVuSans-4f" x="133.300781"/>
      <use xlink:href="#DejaVuSans-50" x="212.011719"/>
      <use xlink:href="#DejaVuSans-34" x="272.314453"/>
      <use xlink:href="#DejaVuSans-30" x="335.9375"/>
      <use xlink:href="#DejaVuSans-2f" x="399.560547"/>
      <use xlink:href="#DejaVuSans-34" x="433.251953"/>
     </g>
    </g>
    <g id="line2d_71">
     <path d="M 427.367451 223.979793 
L 437.367451 223.979793 
L 447.367451 223.979793 
" style="fill: none; stroke-dasharray: 1.5,2.475; stroke-dashoffset: 0; stroke: #ffa500; stroke-width: 1.5"/>
    </g>
    <g id="text_47">
     <!-- SCOP40/8 -->
     <g transform="translate(455.367451 227.479793) scale(0.1 -0.1)">
      <use xlink:href="#DejaVuSans-53"/>
      <use xlink:href="#DejaVuSans-43" x="63.476562"/>
      <use xlink:href="#DejaVuSans-4f" x="133.300781"/>
      <use xlink:href="#DejaVuSans-50" x="212.011719"/>
      <use xlink:href="#DejaVuSans-34" x="272.314453"/>
      <use xlink:href="#DejaVuSans-30" x="335.9375"/>
      <use xlink:href="#DejaVuSans-2f" x="399.560547"/>
      <use xlink:href="#DejaVuSans-38" x="433.251953"/>
     </g>
    </g>
   </g>
  </g>
  <g id="text_48">
   <!-- ../plots/P_F_score.foldseekb.dbsize.svg -->
   <g transform="translate(255.433216 14.728515) scale(0.12 -0.12)">
    <defs>
     <path id="DejaVuSans-70" d="M 1159 525 
L 1159 -1331 
L 581 -1331 
L 581 3500 
L 1159 3500 
L 1159 2969 
Q 1341 3281 1617 3432 
Q 1894 3584 2278 3584 
Q 2916 3584 3314 3078 
Q 3713 2572 3713 1747 
Q 3713 922 3314 415 
Q 2916 -91 2278 -91 
Q 1894 -91 1617 61 
Q 1341 213 1159 525 
z
M 3116 1747 
Q 3116 2381 2855 2742 
Q 2594 3103 2138 3103 
Q 1681 3103 1420 2742 
Q 1159 2381 1159 1747 
Q 1159 1113 1420 752 
Q 1681 391 2138 391 
Q 2594 391 2855 752 
Q 3116 1113 3116 1747 
z
" transform="scale(0.015625)"/>
     <path id="DejaVuSans-5f" d="M 3263 -1063 
L 3263 -1509 
L -63 -1509 
L -63 -1063 
L 3263 -1063 
z
" transform="scale(0.015625)"/>
     <path id="DejaVuSans-66" d="M 2375 4863 
L 2375 4384 
L 1825 4384 
Q 1516 4384 1395 4259 
Q 1275 4134 1275 3809 
L 1275 3500 
L 2222 3500 
L 2222 3053 
L 1275 3053 
L 1275 0 
L 697 0 
L 697 3053 
L 147 3053 
L 147 3500 
L 697 3500 
L 697 3744 
Q 697 4328 969 4595 
Q 1241 4863 1831 4863 
L 2375 4863 
z
" transform="scale(0.015625)"/>
     <path id="DejaVuSans-62" d="M 3116 1747 
Q 3116 2381 2855 2742 
Q 2594 3103 2138 3103 
Q 1681 3103 1420 2742 
Q 1159 2381 1159 1747 
Q 1159 1113 1420 752 
Q 1681 391 2138 391 
Q 2594 391 2855 752 
Q 3116 1113 3116 1747 
z
M 1159 2969 
Q 1341 3281 1617 3432 
Q 1894 3584 2278 3584 
Q 2916 3584 3314 3078 
Q 3713 2572 3713 1747 
Q 3713 922 3314 415 
Q 2916 -91 2278 -91 
Q 1894 -91 1617 61 
Q 1341 213 1159 525 
L 1159 0 
L 581 0 
L 581 4863 
L 1159 4863 
L 1159 2969 
z
" transform="scale(0.015625)"/>
     <path id="DejaVuSans-7a" d="M 353 3500 
L 3084 3500 
L 3084 2975 
L 922 459 
L 3084 459 
L 3084 0 
L 275 0 
L 275 525 
L 2438 3041 
L 353 3041 
L 353 3500 
z
" transform="scale(0.015625)"/>
    </defs>
    <use xlink:href="#DejaVuSans-2e"/>
    <use xlink:href="#DejaVuSans-2e" x="31.787109"/>
    <use xlink:href="#DejaVuSans-2f" x="63.574219"/>
    <use xlink:href="#DejaVuSans-70" x="97.265625"/>
    <use xlink:href="#DejaVuSans-6c" x="160.742188"/>
    <use xlink:href="#DejaVuSans-6f" x="188.525391"/>
    <use xlink:href="#DejaVuSans-74" x="249.707031"/>
    <use xlink:href="#DejaVuSans-73" x="288.916016"/>
    <use xlink:href="#DejaVuSans-2f" x="341.015625"/>
    <use xlink:href="#DejaVuSans-50" x="374.707031"/>
    <use xlink:href="#DejaVuSans-5f" x="435.009766"/>
    <use xlink:href="#DejaVuSans-46" x="485.009766"/>
    <use xlink:href="#DejaVuSans-5f" x="542.529297"/>
    <use xlink:href="#DejaVuSans-73" x="592.529297"/>
    <use xlink:href="#DejaVuSans-63" x="644.628906"/>
    <use xlink:href="#DejaVuSans-6f" x="699.609375"/>
    <use xlink:href="#DejaVuSans-72" x="760.791016"/>
    <use xlink:href="#DejaVuSans-65" x="799.654297"/>
    <use xlink:href="#DejaVuSans-2e" x="861.177734"/>
    <use xlink:href="#DejaVuSans-66" x="892.964844"/>
    <use xlink:href="#DejaVuSans-6f" x="928.169922"/>
    <use xlink:href="#DejaVuSans-6c" x="989.351562"/>
    <use xlink:href="#DejaVuSans-64" x="1017.134766"/>
    <use xlink:href="#DejaVuSans-73" x="1080.611328"/>
    <use xlink:href="#DejaVuSans-65" x="1132.710938"/>
    <use xlink:href="#DejaVuSans-65" x="1194.234375"/>
    <use xlink:href="#DejaVuSans-6b" x="1255.757812"/>
    <use xlink:href="#DejaVuSans-62" x="1313.667969"/>
    <use xlink:href="#DejaVuSans-2e" x="1377.144531"/>
    <use xlink:href="#DejaVuSans-64" x="1408.931641"/>
    <use xlink:href="#DejaVuSans-62" x="1472.408203"/>
    <use xlink:href="#DejaVuSans-73" x="1535.884766"/>
    <use xlink:href="#DejaVuSans-69" x="1587.984375"/>
    <use xlink:href="#DejaVuSans-7a" x="1615.767578"/>
    <use xlink:href="#DejaVuSans-65" x="1668.257812"/>
    <use xlink:href="#DejaVuSans-2e" x="1729.78125"/>
    <use xlink:href="#DejaVuSans-73" x="1761.568359"/>
    <use xlink:href="#DejaVuSans-76" x="1813.667969"/>
    <use xlink:href="#DejaVuSans-67" x="1872.847656"/>
   </g>
  </g>
 </g>
 <defs>
  <clipPath id="p82c8a7f24f">
   <rect x="48.17" y="47.90625" width="304.473355" height="190.653231"/>
  </clipPath>
  <clipPath id="pc1d9a3dd3c">
   <rect x="418.367451" y="47.90625" width="304.473355" height="190.653231"/>
  </clipPath>
 </defs>
</svg>
