<?xml version="1.0" encoding="utf-8" standalone="no"?>
<!DOCTYPE svg PUBLIC "-//W3C//DTD SVG 1.1//EN"
  "http://www.w3.org/Graphics/SVG/1.1/DTD/svg11.dtd">
<svg xmlns:xlink="http://www.w3.org/1999/xlink" width="743.225806pt" height="280.519481pt" viewBox="0 0 743.225806 280.519481" xmlns="http://www.w3.org/2000/svg" version="1.1">
 <metadata>
  <rdf:RDF xmlns:dc="http://purl.org/dc/elements/1.1/" xmlns:cc="http://creativecommons.org/ns#" xmlns:rdf="http://www.w3.org/1999/02/22-rdf-syntax-ns#">
   <cc:Work>
    <dc:type rdf:resource="http://purl.org/dc/dcmitype/StillImage"/>
    <dc:date>2025-05-30T08:16:32.296340</dc:date>
    <dc:format>image/svg+xml</dc:format>
    <dc:creator>
     <cc:Agent>
      <dc:title>Matplotlib v3.10.3, https://matplotlib.org/</dc:title>
     </cc:Agent>
    </dc:creator>
   </cc:Work>
  </rdf:RDF>
 </metadata>
 <defs>
  <style type="text/css">*{stroke-linejoin: round; stroke-linecap: butt}</style>
 </defs>
 <g id="figure_1">
  <g id="patch_1">
   <path d="M 0 280.519481 
L 743.225806 280.519481 
L 743.225806 0 
L 0 0 
z
" style="fill: #ffffff"/>
  </g>
  <g id="axes_1">
   <g id="patch_2">
    <path d="M 40.12 252.639481 
L 362.17773 252.639481 
L 362.17773 47.90625 
L 40.12 47.90625 
z
" style="fill: #ffffff"/>
   </g>
   <g id="matplotlib.axis_1">
    <g id="xtick_1">
     <g id="line2d_1">
      <defs>
       <path id="m198d434966" d="M 0 0 
L 0 3.5 
" style="stroke: #000000; stroke-width: 0.8"/>
      </defs>
      <g>
       <use xlink:href="#m198d434966" x="40.12" y="252.639481" style="stroke: #000000; stroke-width: 0.8"/>
      </g>
     </g>
     <g id="text_1">
      <!-- −2 -->
      <g transform="translate(32.748906 267.237918) scale(0.1 -0.1)">
       <defs>
        <path id="DejaVuSans-2212" d="M 678 2272 
L 4684 2272 
L 4684 1741 
L 678 1741 
L 678 2272 
z
" transform="scale(0.015625)"/>
        <path id="DejaVuSans-32" d="M 1228 531 
L 3431 531 
L 3431 0 
L 469 0 
L 469 531 
Q 828 903 1448 1529 
Q 2069 2156 2228 2338 
Q 2531 2678 2651 2914 
Q 2772 3150 2772 3378 
Q 2772 3750 2511 3984 
Q 2250 4219 1831 4219 
Q 1534 4219 1204 4116 
Q 875 4013 500 3803 
L 500 4441 
Q 881 4594 1212 4672 
Q 1544 4750 1819 4750 
Q 2544 4750 2975 4387 
Q 3406 4025 3406 3419 
Q 3406 3131 3298 2873 
Q 3191 2616 2906 2266 
Q 2828 2175 2409 1742 
Q 1991 1309 1228 531 
z
" transform="scale(0.015625)"/>
       </defs>
       <use xlink:href="#DejaVuSans-2212"/>
       <use xlink:href="#DejaVuSans-32" transform="translate(83.789062 0)"/>
      </g>
     </g>
    </g>
    <g id="xtick_2">
     <g id="line2d_2">
      <g>
       <use xlink:href="#m198d434966" x="93.796288" y="252.639481" style="stroke: #000000; stroke-width: 0.8"/>
      </g>
     </g>
     <g id="text_2">
      <!-- −1 -->
      <g transform="translate(86.425195 267.237918) scale(0.1 -0.1)">
       <defs>
        <path id="DejaVuSans-31" d="M 794 531 
L 1825 531 
L 1825 4091 
L 703 3866 
L 703 4441 
L 1819 4666 
L 2450 4666 
L 2450 531 
L 3481 531 
L 3481 0 
L 794 0 
L 794 531 
z
" transform="scale(0.015625)"/>
       </defs>
       <use xlink:href="#DejaVuSans-2212"/>
       <use xlink:href="#DejaVuSans-31" transform="translate(83.789062 0)"/>
      </g>
     </g>
    </g>
    <g id="xtick_3">
     <g id="line2d_3">
      <g>
       <use xlink:href="#m198d434966" x="147.472577" y="252.639481" style="stroke: #000000; stroke-width: 0.8"/>
      </g>
     </g>
     <g id="text_3">
      <!-- 0 -->
      <g transform="translate(144.291327 267.237918) scale(0.1 -0.1)">
       <defs>
        <path id="DejaVuSans-30" d="M 2034 4250 
Q 1547 4250 1301 3770 
Q 1056 3291 1056 2328 
Q 1056 1369 1301 889 
Q 1547 409 2034 409 
Q 2525 409 2770 889 
Q 3016 1369 3016 2328 
Q 3016 3291 2770 3770 
Q 2525 4250 2034 4250 
z
M 2034 4750 
Q 2819 4750 3233 4129 
Q 3647 3509 3647 2328 
Q 3647 1150 3233 529 
Q 2819 -91 2034 -91 
Q 1250 -91 836 529 
Q 422 1150 422 2328 
Q 422 3509 836 4129 
Q 1250 4750 2034 4750 
z
" transform="scale(0.015625)"/>
       </defs>
       <use xlink:href="#DejaVuSans-30"/>
      </g>
     </g>
    </g>
    <g id="xtick_4">
     <g id="line2d_4">
      <g>
       <use xlink:href="#m198d434966" x="201.148865" y="252.639481" style="stroke: #000000; stroke-width: 0.8"/>
      </g>
     </g>
     <g id="text_4">
      <!-- 1 -->
      <g transform="translate(197.967615 267.237918) scale(0.1 -0.1)">
       <use xlink:href="#DejaVuSans-31"/>
      </g>
     </g>
    </g>
    <g id="xtick_5">
     <g id="line2d_5">
      <g>
       <use xlink:href="#m198d434966" x="254.825153" y="252.639481" style="stroke: #000000; stroke-width: 0.8"/>
      </g>
     </g>
     <g id="text_5">
      <!-- 2 -->
      <g transform="translate(251.643903 267.237918) scale(0.1 -0.1)">
       <use xlink:href="#DejaVuSans-32"/>
      </g>
     </g>
    </g>
    <g id="xtick_6">
     <g id="line2d_6">
      <g>
       <use xlink:href="#m198d434966" x="308.501442" y="252.639481" style="stroke: #000000; stroke-width: 0.8"/>
      </g>
     </g>
     <g id="text_6">
      <!-- 3 -->
      <g transform="translate(305.320192 267.237918) scale(0.1 -0.1)">
       <defs>
        <path id="DejaVuSans-33" d="M 2597 2516 
Q 3050 2419 3304 2112 
Q 3559 1806 3559 1356 
Q 3559 666 3084 287 
Q 2609 -91 1734 -91 
Q 1441 -91 1130 -33 
Q 819 25 488 141 
L 488 750 
Q 750 597 1062 519 
Q 1375 441 1716 441 
Q 2309 441 2620 675 
Q 2931 909 2931 1356 
Q 2931 1769 2642 2001 
Q 2353 2234 1838 2234 
L 1294 2234 
L 1294 2753 
L 1863 2753 
Q 2328 2753 2575 2939 
Q 2822 3125 2822 3475 
Q 2822 3834 2567 4026 
Q 2313 4219 1838 4219 
Q 1578 4219 1281 4162 
Q 984 4106 628 3988 
L 628 4550 
Q 988 4650 1302 4700 
Q 1616 4750 1894 4750 
Q 2613 4750 3031 4423 
Q 3450 4097 3450 3541 
Q 3450 3153 3228 2886 
Q 3006 2619 2597 2516 
z
" transform="scale(0.015625)"/>
       </defs>
       <use xlink:href="#DejaVuSans-33"/>
      </g>
     </g>
    </g>
    <g id="xtick_7">
     <g id="line2d_7">
      <g>
       <use xlink:href="#m198d434966" x="362.17773" y="252.639481" style="stroke: #000000; stroke-width: 0.8"/>
      </g>
     </g>
     <g id="text_7">
      <!-- 4 -->
      <g transform="translate(358.99648 267.237918) scale(0.1 -0.1)">
       <defs>
        <path id="DejaVuSans-34" d="M 2419 4116 
L 825 1625 
L 2419 1625 
L 2419 4116 
z
M 2253 4666 
L 3047 4666 
L 3047 1625 
L 3713 1625 
L 3713 1100 
L 3047 1100 
L 3047 0 
L 2419 0 
L 2419 1100 
L 313 1100 
L 313 1709 
L 2253 4666 
z
" transform="scale(0.015625)"/>
       </defs>
       <use xlink:href="#DejaVuSans-34"/>
      </g>
     </g>
    </g>
   </g>
   <g id="matplotlib.axis_2">
    <g id="ytick_1">
     <g id="line2d_8">
      <defs>
       <path id="mc586a375f6" d="M 0 0 
L -3.5 0 
" style="stroke: #000000; stroke-width: 0.8"/>
      </defs>
      <g>
       <use xlink:href="#mc586a375f6" x="40.12" y="243.333425" style="stroke: #000000; stroke-width: 0.8"/>
      </g>
     </g>
     <g id="text_8">
      <!-- 0.00 -->
      <g transform="translate(10.854375 247.132643) scale(0.1 -0.1)">
       <defs>
        <path id="DejaVuSans-2e" d="M 684 794 
L 1344 794 
L 1344 0 
L 684 0 
L 684 794 
z
" transform="scale(0.015625)"/>
       </defs>
       <use xlink:href="#DejaVuSans-30"/>
       <use xlink:href="#DejaVuSans-2e" transform="translate(63.623047 0)"/>
       <use xlink:href="#DejaVuSans-30" transform="translate(95.410156 0)"/>
       <use xlink:href="#DejaVuSans-30" transform="translate(159.033203 0)"/>
      </g>
     </g>
    </g>
    <g id="ytick_2">
     <g id="line2d_9">
      <g>
       <use xlink:href="#mc586a375f6" x="40.12" y="208.229479" style="stroke: #000000; stroke-width: 0.8"/>
      </g>
     </g>
     <g id="text_9">
      <!-- 0.05 -->
      <g transform="translate(10.854375 212.028698) scale(0.1 -0.1)">
       <defs>
        <path id="DejaVuSans-35" d="M 691 4666 
L 3169 4666 
L 3169 4134 
L 1269 4134 
L 1269 2991 
Q 1406 3038 1543 3061 
Q 1681 3084 1819 3084 
Q 2600 3084 3056 2656 
Q 3513 2228 3513 1497 
Q 3513 744 3044 326 
Q 2575 -91 1722 -91 
Q 1428 -91 1123 -41 
Q 819 9 494 109 
L 494 744 
Q 775 591 1075 516 
Q 1375 441 1709 441 
Q 2250 441 2565 725 
Q 2881 1009 2881 1497 
Q 2881 1984 2565 2268 
Q 2250 2553 1709 2553 
Q 1456 2553 1204 2497 
Q 953 2441 691 2322 
L 691 4666 
z
" transform="scale(0.015625)"/>
       </defs>
       <use xlink:href="#DejaVuSans-30"/>
       <use xlink:href="#DejaVuSans-2e" transform="translate(63.623047 0)"/>
       <use xlink:href="#DejaVuSans-30" transform="translate(95.410156 0)"/>
       <use xlink:href="#DejaVuSans-35" transform="translate(159.033203 0)"/>
      </g>
     </g>
    </g>
    <g id="ytick_3">
     <g id="line2d_10">
      <g>
       <use xlink:href="#mc586a375f6" x="40.12" y="173.125534" style="stroke: #000000; stroke-width: 0.8"/>
      </g>
     </g>
     <g id="text_10">
      <!-- 0.10 -->
      <g transform="translate(10.854375 176.924753) scale(0.1 -0.1)">
       <use xlink:href="#DejaVuSans-30"/>
       <use xlink:href="#DejaVuSans-2e" transform="translate(63.623047 0)"/>
       <use xlink:href="#DejaVuSans-31" transform="translate(95.410156 0)"/>
       <use xlink:href="#DejaVuSans-30" transform="translate(159.033203 0)"/>
      </g>
     </g>
    </g>
    <g id="ytick_4">
     <g id="line2d_11">
      <g>
       <use xlink:href="#mc586a375f6" x="40.12" y="138.021589" style="stroke: #000000; stroke-width: 0.8"/>
      </g>
     </g>
     <g id="text_11">
      <!-- 0.15 -->
      <g transform="translate(10.854375 141.820808) scale(0.1 -0.1)">
       <use xlink:href="#DejaVuSans-30"/>
       <use xlink:href="#DejaVuSans-2e" transform="translate(63.623047 0)"/>
       <use xlink:href="#DejaVuSans-31" transform="translate(95.410156 0)"/>
       <use xlink:href="#DejaVuSans-35" transform="translate(159.033203 0)"/>
      </g>
     </g>
    </g>
    <g id="ytick_5">
     <g id="line2d_12">
      <g>
       <use xlink:href="#mc586a375f6" x="40.12" y="102.917644" style="stroke: #000000; stroke-width: 0.8"/>
      </g>
     </g>
     <g id="text_12">
      <!-- 0.20 -->
      <g transform="translate(10.854375 106.716863) scale(0.1 -0.1)">
       <use xlink:href="#DejaVuSans-30"/>
       <use xlink:href="#DejaVuSans-2e" transform="translate(63.623047 0)"/>
       <use xlink:href="#DejaVuSans-32" transform="translate(95.410156 0)"/>
       <use xlink:href="#DejaVuSans-30" transform="translate(159.033203 0)"/>
      </g>
     </g>
    </g>
    <g id="ytick_6">
     <g id="line2d_13">
      <g>
       <use xlink:href="#mc586a375f6" x="40.12" y="67.813699" style="stroke: #000000; stroke-width: 0.8"/>
      </g>
     </g>
     <g id="text_13">
      <!-- 0.25 -->
      <g transform="translate(10.854375 71.612918) scale(0.1 -0.1)">
       <use xlink:href="#DejaVuSans-30"/>
       <use xlink:href="#DejaVuSans-2e" transform="translate(63.623047 0)"/>
       <use xlink:href="#DejaVuSans-32" transform="translate(95.410156 0)"/>
       <use xlink:href="#DejaVuSans-35" transform="translate(159.033203 0)"/>
      </g>
     </g>
    </g>
   </g>
   <g id="line2d_14">
    <path d="M -1 243.333425 
L 10.866423 243.333425 
L 23.856085 243.333425 
L 36.845746 243.333425 
L 49.889084 243.333425 
L 62.878746 243.333425 
L 75.922084 243.333425 
L 88.911746 145.955085 
L 101.928246 88.805858 
L 114.939378 129.877478 
L 127.955878 160.137073 
L 140.967011 180.967755 
L 153.978143 196.525824 
L 166.989275 207.857377 
L 180.005775 216.233178 
L 193.016907 223.134615 
L 206.033407 228.245749 
L 219.023069 232.156328 
L 232.066407 235.027831 
L 245.056069 237.362244 
L 258.099407 238.861182 
L 271.089069 240.003464 
L 284.078731 240.816472 
L 297.122069 241.453257 
L 310.11173 241.821147 
L 323.155069 242.134976 
L 336.14473 242.320325 
L 349.188068 242.489526 
L 362.17773 242.601156 
L 375.167392 242.748733 
L 388.21073 242.873774 
L 401.200392 242.907824 
L 414.24373 242.991582 
L 427.233392 243.072532 
L 440.27673 243.118659 
L 453.266391 243.151516 
L 466.256053 243.175106 
L 479.299391 243.211193 
L 492.289053 243.213229 
L 505.332391 243.244892 
L 518.322053 243.258092 
L 531.365391 243.262866 
L 544.355053 243.272512 
L 557.344715 243.290141 
L 570.388053 243.29335 
L 583.377714 243.29415 
L 596.421053 243.306177 
L 609.410714 243.310179 
L 622.400376 243.311787 
L 635.443714 243.317396 
L 648.433376 243.320598 
L 661.476714 243.321405 
L 674.466376 243.327814 
L 687.456038 243.321405 
L 700.338347 243.327012 
L 713.757419 243.329417 
L 726.639728 243.327814 
L 739.522037 243.327012 
L 744.225806 243.327891 
" clip-path="url(#pb0d84545e0)" style="fill: none; stroke-dasharray: 9.6,2.4,1.5,2.4; stroke-dashoffset: 0; stroke: #000000; stroke-width: 1.5"/>
   </g>
   <g id="line2d_15">
    <path d="M -1 243.333425 
L 10.866423 243.333425 
L 23.856085 243.333425 
L 36.845746 243.333425 
L 49.889084 243.333425 
L 62.878746 243.333425 
L 75.922084 243.333425 
L 88.911746 145.955085 
L 101.928246 88.805858 
L 114.939378 129.877478 
L 127.955878 160.137073 
L 140.967011 180.967755 
L 153.978143 196.525824 
L 166.989275 207.857377 
L 180.005775 216.233178 
L 193.016907 223.134615 
L 206.033407 228.245749 
L 219.023069 232.156328 
L 232.066407 235.027831 
L 245.056069 237.362244 
L 258.099407 238.861182 
L 271.089069 240.003464 
L 284.078731 240.816472 
L 297.122069 241.453257 
L 310.11173 241.821147 
L 323.155069 242.134976 
L 336.14473 242.320325 
L 349.188068 242.489526 
L 362.17773 242.601156 
L 375.167392 242.748733 
L 388.21073 242.873774 
L 401.200392 242.907824 
L 414.24373 242.991582 
L 427.233392 243.072532 
L 440.27673 243.118659 
L 453.266391 243.151516 
L 466.256053 243.175106 
L 479.299391 243.211193 
L 492.289053 243.213229 
L 505.332391 243.244892 
L 518.322053 243.258092 
L 531.365391 243.262866 
L 544.355053 243.272512 
L 557.344715 243.290141 
L 570.388053 243.29335 
L 583.377714 243.29415 
L 596.421053 243.306177 
L 609.410714 243.310179 
L 622.400376 243.311787 
L 635.443714 243.317396 
L 648.433376 243.320598 
L 661.476714 243.321405 
L 674.466376 243.327814 
L 687.456038 243.321405 
L 700.338347 243.327012 
L 713.757419 243.329417 
L 726.639728 243.327814 
L 739.522037 243.327012 
L 744.225806 243.327891 
" clip-path="url(#pb0d84545e0)" style="fill: none; stroke-dasharray: 9.6,2.4,1.5,2.4; stroke-dashoffset: 0; stroke: #008000; stroke-width: 1.5"/>
   </g>
   <g id="line2d_16">
    <path d="M -1 243.333425 
L 10.866423 243.333425 
L 23.856085 243.333425 
L 36.845746 243.333425 
L 49.889084 243.333425 
L 62.878746 243.333425 
L 75.922084 243.333425 
L 88.911746 128.192481 
L 101.928246 68.937023 
L 114.939378 123.628975 
L 127.955878 160.347701 
L 140.967011 184.604524 
L 153.978143 201.349107 
L 166.989275 212.996595 
L 180.005775 221.379417 
L 193.016907 227.466441 
L 206.033407 232.156328 
L 219.023069 235.287601 
L 232.066407 237.616396 
L 245.056069 239.271898 
L 258.099407 240.460518 
L 271.089069 241.221571 
L 284.078731 241.786043 
L 297.122069 242.211503 
L 310.11173 242.474782 
L 323.155069 242.660271 
L 336.14473 242.805672 
L 349.188068 242.901646 
L 362.17773 242.997199 
L 375.167392 243.043255 
L 388.21073 243.10883 
L 401.200392 243.152499 
L 414.24373 243.182758 
L 427.233392 243.21716 
L 440.27673 243.242295 
L 453.266391 243.259706 
L 466.256053 243.273629 
L 479.299391 243.282896 
L 492.289053 243.295695 
L 505.332391 243.297899 
L 518.322053 243.307392 
L 531.365391 243.311358 
L 544.355053 243.313127 
L 557.344715 243.317761 
L 570.388053 243.32217 
L 583.377714 243.32151 
L 596.421053 243.32217 
L 609.410714 243.327026 
L 622.400376 243.327026 
L 635.443714 243.327247 
L 648.433376 243.329674 
L 661.476714 243.330115 
L 674.466376 243.329895 
L 687.456038 243.33188 
L 700.338347 243.330557 
L 713.757419 243.331439 
L 726.639728 243.3321 
L 739.522037 243.33188 
L 744.225806 243.33188 
" clip-path="url(#pb0d84545e0)" style="fill: none; stroke: #000000; stroke-width: 1.5; stroke-linecap: square"/>
   </g>
   <g id="line2d_17">
    <path d="M -1 243.333425 
L 10.866423 243.333425 
L 23.856085 243.333425 
L 36.845746 243.333425 
L 49.889084 243.333425 
L 62.878746 243.333425 
L 75.922084 243.333425 
L 88.911746 119.205876 
L 101.928246 57.212306 
L 114.939378 118.644214 
L 127.955878 159.996661 
L 140.967011 187.04776 
L 153.978143 204.698023 
L 166.989275 216.584218 
L 180.005775 224.616 
L 193.016907 230.078175 
L 206.033407 234.164274 
L 219.023069 236.943805 
L 232.066407 238.814845 
L 245.056069 240.237257 
L 258.099407 241.210338 
L 271.089069 241.836592 
L 284.078731 242.318921 
L 297.122069 242.6159 
L 310.11173 242.844707 
L 323.155069 242.968133 
L 336.14473 243.102651 
L 349.188068 243.157554 
L 362.17773 243.216809 
L 375.167392 243.242435 
L 388.21073 243.280628 
L 401.200392 243.295611 
L 414.24373 243.309884 
L 427.233392 243.3188 
L 440.27673 243.325217 
L 453.266391 243.326647 
L 466.256053 243.328074 
L 479.299391 243.330571 
L 492.289053 243.331284 
L 505.332391 243.331284 
L 518.322053 243.332711 
L 531.365391 243.331998 
L 544.355053 243.333425 
L 557.344715 243.333068 
L 570.388053 243.333425 
L 583.377714 243.333068 
L 596.421053 243.333068 
L 609.410714 243.333425 
L 622.400376 243.333425 
L 635.443714 243.333068 
L 648.433376 243.333425 
L 661.476714 243.333425 
L 674.466376 243.333425 
L 687.456038 243.333425 
L 700.338347 243.333425 
L 713.757419 243.333425 
L 726.639728 243.333425 
L 739.522037 243.333425 
L 744.225806 243.333425 
" clip-path="url(#pb0d84545e0)" style="fill: none; stroke: #00ffff; stroke-width: 1.5; stroke-linecap: square"/>
   </g>
   <g id="line2d_18">
    <path d="M -1 243.333425 
L 10.866423 243.333425 
L 23.856085 243.333425 
L 36.845746 243.333425 
L 49.889084 243.333425 
L 62.878746 243.333425 
L 75.922084 243.333425 
L 88.911746 128.894562 
L 101.933614 69.91994 
L 114.944746 123.98001 
L 127.955878 160.488114 
L 140.967011 184.077966 
L 153.978143 201.068276 
L 166.994643 212.8632 
L 180.005775 221.288148 
L 193.016907 227.396233 
L 206.033407 232.100162 
L 219.023069 235.119102 
L 232.066407 237.50617 
L 245.056069 239.219242 
L 258.099407 240.405756 
L 271.089069 241.178042 
L 284.078731 241.774809 
L 297.122069 242.22414 
L 310.11173 242.469867 
L 323.155069 242.63275 
L 336.14473 242.790016 
L 349.188068 242.881988 
L 362.17773 242.973258 
L 375.167392 243.038551 
L 388.21073 243.080676 
L 401.200392 243.151586 
L 414.24373 243.179669 
L 427.233392 243.211965 
L 440.27673 243.233027 
L 453.266391 243.251281 
L 466.256053 243.259706 
L 479.299391 243.271431 
L 492.289053 243.293336 
L 505.332391 243.297689 
L 518.322053 243.306816 
L 531.365391 243.312924 
L 544.355053 243.311169 
L 557.344715 243.316715 
L 570.388053 243.322051 
L 583.377714 243.321138 
L 596.421053 243.322121 
L 609.410714 243.326404 
L 622.454052 243.327267 
L 635.443714 243.322542 
L 648.433376 243.329507 
L 661.476714 243.329058 
L 674.466376 243.32778 
L 687.456038 243.332105 
L 700.338347 243.332105 
L 713.757419 243.330827 
L 726.639728 243.332977 
L 739.522037 243.330806 
L 744.225806 243.331598 
" clip-path="url(#pb0d84545e0)" style="fill: none; stroke: #ff00ff; stroke-width: 1.5; stroke-linecap: square"/>
   </g>
   <g id="line2d_19">
    <path d="M -1 243.333425 
L 10.866423 243.333425 
L 23.856085 243.333425 
L 36.845746 243.333425 
L 49.889084 243.333425 
L 62.878746 243.333425 
L 75.922084 243.333425 
L 88.911746 128.192481 
L 101.933614 68.515779 
L 114.944746 123.27793 
L 127.955878 160.488114 
L 140.967011 184.639629 
L 153.978143 201.559729 
L 166.994643 213.495071 
L 180.005775 221.84981 
L 193.016907 227.396233 
L 206.033407 232.100162 
L 219.023069 235.189309 
L 232.066407 237.618503 
L 245.056069 239.268388 
L 258.099407 240.44788 
L 271.089069 241.24825 
L 284.078731 241.767789 
L 297.122069 242.266265 
L 310.11173 242.483909 
L 323.155069 242.647494 
L 336.14473 242.846182 
L 349.188068 242.926921 
L 362.17773 243.00766 
L 375.167392 243.035743 
L 388.21073 243.105249 
L 401.200392 243.141757 
L 414.24373 243.172649 
L 427.233392 243.213369 
L 440.27673 243.228113 
L 453.266391 243.26111 
L 466.256053 243.271782 
L 479.299391 243.292142 
L 492.289053 243.290177 
L 505.332391 243.297338 
L 518.322053 243.300146 
L 531.365391 243.307026 
L 544.355053 243.316785 
L 557.344715 243.31847 
L 570.388053 243.325491 
L 583.377714 243.321138 
L 596.421053 243.31847 
L 609.410714 243.328082 
L 622.454052 243.323806 
L 635.443714 243.329051 
L 648.433376 243.332519 
L 661.476714 243.331662 
L 674.466376 243.328973 
L 687.456038 243.330792 
L 700.338347 243.330736 
L 713.757419 243.329086 
L 726.639728 243.333425 
L 739.522037 243.331641 
L 744.225806 243.330659 
" clip-path="url(#pb0d84545e0)" style="fill: none; stroke-dasharray: 5.55,2.4; stroke-dashoffset: 0; stroke: #ff00ff; stroke-width: 1.5"/>
   </g>
   <g id="line2d_20">
    <path d="M -1 243.333425 
L 10.866423 243.333425 
L 23.856085 243.333425 
L 36.845746 243.333425 
L 49.889084 243.333425 
L 62.878746 243.333425 
L 75.922084 243.333425 
L 88.911746 125.384171 
L 101.933614 68.515779 
L 114.944746 121.873779 
L 127.955878 160.488114 
L 140.967011 184.148176 
L 153.978143 201.700144 
L 166.994643 213.916318 
L 180.005775 221.990226 
L 193.016907 228.238728 
L 206.033407 232.802241 
L 219.023069 235.82118 
L 232.066407 237.829126 
L 245.056069 239.500074 
L 258.099407 240.876148 
L 271.089069 241.465895 
L 284.078731 241.901184 
L 297.122069 242.287327 
L 310.11173 242.497951 
L 323.155069 242.693129 
L 336.14473 242.79493 
L 349.188068 242.905859 
L 362.17773 242.959217 
L 375.167392 243.06172 
L 388.21073 243.119291 
L 401.200392 243.15299 
L 414.24373 243.223198 
L 427.233392 243.183882 
L 440.27673 243.250579 
L 453.266391 243.248473 
L 466.256053 243.267148 
L 479.299391 243.276416 
L 492.289053 243.307448 
L 505.332391 243.303376 
L 518.322053 243.312011 
L 531.365391 243.324578 
L 544.355053 243.318681 
L 557.344715 243.326404 
L 570.388053 243.326404 
L 583.377714 243.326053 
L 596.421053 243.320787 
L 609.410714 243.320928 
L 622.454052 243.326263 
L 635.443714 243.329886 
L 648.433376 243.324298 
L 661.476714 243.33148 
L 674.466376 243.333425 
L 687.456038 243.333425 
L 700.338347 243.33148 
L 713.757419 243.329725 
L 726.639728 243.331571 
L 739.522037 243.333425 
L 744.225806 243.333425 
" clip-path="url(#pb0d84545e0)" style="fill: none; stroke-dasharray: 1.5,2.475; stroke-dashoffset: 0; stroke: #ff00ff; stroke-width: 1.5"/>
   </g>
   <g id="line2d_21">
    <path d="M -1 243.333425 
L 10.866423 243.333425 
L 23.856085 243.333425 
L 36.845746 243.333425 
L 49.889084 243.333425 
L 62.878746 243.333425 
L 75.922084 243.333425 
L 88.911746 138.021585 
L 101.933614 80.451124 
L 114.944746 127.490401 
L 127.955878 159.786033 
L 140.967011 181.971731 
L 153.978143 198.330169 
L 166.994643 209.774053 
L 180.005775 218.479832 
L 193.016907 224.938957 
L 206.033407 230.064134 
L 219.023069 233.50432 
L 232.066407 236.312636 
L 245.056069 238.194207 
L 258.099407 239.605386 
L 271.089069 240.539151 
L 284.078731 241.262292 
L 297.122069 241.837997 
L 310.11173 242.217119 
L 323.155069 242.49093 
L 336.14473 242.661535 
L 349.188068 242.775272 
L 362.17773 242.929027 
L 375.167392 242.962025 
L 388.21073 243.072251 
L 401.200392 243.102441 
L 414.24373 243.136842 
L 427.233392 243.195115 
L 440.27673 243.227411 
L 453.266391 243.249175 
L 466.256053 243.262515 
L 479.299391 243.282524 
L 492.289053 243.288772 
L 505.332391 243.299725 
L 518.322053 243.304078 
L 531.365391 243.310045 
L 544.355053 243.305271 
L 557.344715 243.318189 
L 570.388053 243.318119 
L 583.377714 243.318189 
L 596.421053 243.315943 
L 609.410714 243.325632 
L 622.454052 243.325421 
L 635.443714 243.327787 
L 648.433376 243.328173 
L 661.476714 243.330349 
L 674.466376 243.328945 
L 687.456038 243.331887 
L 700.338347 243.329191 
L 713.757419 243.330413 
L 726.639728 243.332652 
L 739.522037 243.332336 
L 744.225806 243.33189 
" clip-path="url(#pb0d84545e0)" style="fill: none; stroke: #ffa500; stroke-width: 1.5; stroke-linecap: square"/>
   </g>
   <g id="line2d_22">
    <path d="M -1 243.333425 
L 10.866423 243.333425 
L 23.856085 243.333425 
L 36.845746 243.333425 
L 49.889084 243.333425 
L 62.878746 243.333425 
L 75.922084 243.333425 
L 88.911746 118.363378 
L 101.933614 62.197077 
L 114.944746 123.27793 
L 127.955878 163.29643 
L 140.967011 188.150025 
L 153.978143 205.140332 
L 166.994643 216.303387 
L 180.005775 224.096463 
L 193.016907 229.432262 
L 206.033407 233.153281 
L 219.023069 235.82118 
L 232.066407 237.68871 
L 245.056069 239.11393 
L 258.099407 240.202153 
L 271.089069 240.904232 
L 284.078731 241.458874 
L 297.122069 241.908204 
L 310.11173 242.238181 
L 323.155069 242.441784 
L 336.14473 242.561138 
L 349.188068 242.738764 
L 362.17773 242.881988 
L 375.167392 242.912879 
L 388.21073 243.037849 
L 401.200392 243.077166 
L 414.24373 243.09542 
L 427.233392 243.160713 
L 440.27673 243.20003 
L 453.266391 243.226709 
L 466.256053 243.251983 
L 479.299391 243.247771 
L 492.289053 243.290036 
L 505.332391 243.277118 
L 518.322053 243.292142 
L 531.365391 243.299233 
L 544.355053 243.306605 
L 557.344715 243.317487 
L 570.388053 243.317347 
L 583.377714 243.317558 
L 596.421053 243.322472 
L 609.410714 243.326593 
L 622.454052 243.329577 
L 635.443714 243.324649 
L 648.433376 243.330399 
L 661.476714 243.333425 
L 674.466376 243.326334 
L 687.456038 243.333425 
L 700.338347 243.333425 
L 713.757419 243.329872 
L 726.639728 243.333425 
L 739.522037 243.330686 
L 744.225806 243.331686 
" clip-path="url(#pb0d84545e0)" style="fill: none; stroke-dasharray: 5.55,2.4; stroke-dashoffset: 0; stroke: #ffa500; stroke-width: 1.5"/>
   </g>
   <g id="line2d_23">
    <path d="M -1 243.333425 
L 10.866423 243.333425 
L 23.856085 243.333425 
L 36.845746 243.333425 
L 49.889084 243.333425 
L 62.878746 243.333425 
L 75.922084 243.333425 
L 88.911746 121.171699 
L 101.933614 61.494987 
L 114.944746 122.575849 
L 127.955878 162.594349 
L 140.967011 187.518154 
L 153.978143 204.017005 
L 166.994643 215.390685 
L 180.005775 223.464591 
L 193.016907 228.589768 
L 206.033407 232.942657 
L 219.023069 235.961596 
L 232.066407 237.86423 
L 245.056069 239.303492 
L 258.099407 240.433839 
L 271.089069 241.135918 
L 284.078731 241.697581 
L 297.122069 242.097766 
L 310.11173 242.462847 
L 323.155069 242.561138 
L 336.14473 242.786505 
L 349.188068 242.932538 
L 362.17773 242.999937 
L 375.167392 243.108057 
L 388.21073 243.158607 
L 401.200392 243.193711 
L 414.24373 243.214773 
L 427.233392 243.269325 
L 440.27673 243.289896 
L 453.266391 243.282032 
L 466.256053 243.278662 
L 479.299391 243.282243 
L 492.289053 243.308571 
L 505.332391 243.302463 
L 518.322053 243.299093 
L 531.365391 243.312643 
L 544.355053 243.308431 
L 557.344715 243.318751 
L 570.388053 243.331515 
L 583.377714 243.329605 
L 596.421053 243.324438 
L 609.410714 243.333425 
L 622.454052 243.329605 
L 635.443714 243.329605 
L 648.433376 243.329605 
L 661.476714 243.333425 
L 674.466376 243.333425 
L 687.456038 243.333425 
L 700.338347 243.333425 
L 713.757419 243.333425 
L 726.639728 243.333425 
L 739.522037 243.333425 
L 744.225806 243.333425 
" clip-path="url(#pb0d84545e0)" style="fill: none; stroke-dasharray: 1.5,2.475; stroke-dashoffset: 0; stroke: #008000; stroke-width: 1.5"/>
   </g>
   <g id="patch_3">
    <path d="M 40.12 252.639481 
L 40.12 47.90625 
" style="fill: none; stroke: #000000; stroke-width: 0.8; stroke-linejoin: miter; stroke-linecap: square"/>
   </g>
   <g id="patch_4">
    <path d="M 362.17773 252.639481 
L 362.17773 47.90625 
" style="fill: none; stroke: #000000; stroke-width: 0.8; stroke-linejoin: miter; stroke-linecap: square"/>
   </g>
   <g id="patch_5">
    <path d="M 40.12 252.639481 
L 362.17773 252.639481 
" style="fill: none; stroke: #000000; stroke-width: 0.8; stroke-linejoin: miter; stroke-linecap: square"/>
   </g>
   <g id="patch_6">
    <path d="M 40.12 47.90625 
L 362.17773 47.90625 
" style="fill: none; stroke: #000000; stroke-width: 0.8; stroke-linejoin: miter; stroke-linecap: square"/>
   </g>
   <g id="text_14">
    <!-- P(score|F) Foldseek -->
    <g transform="translate(142.986365 41.90625) scale(0.12 -0.12)">
     <defs>
      <path id="DejaVuSans-50" d="M 1259 4147 
L 1259 2394 
L 2053 2394 
Q 2494 2394 2734 2622 
Q 2975 2850 2975 3272 
Q 2975 3691 2734 3919 
Q 2494 4147 2053 4147 
L 1259 4147 
z
M 628 4666 
L 2053 4666 
Q 2838 4666 3239 4311 
Q 3641 3956 3641 3272 
Q 3641 2581 3239 2228 
Q 2838 1875 2053 1875 
L 1259 1875 
L 1259 0 
L 628 0 
L 628 4666 
z
" transform="scale(0.015625)"/>
      <path id="DejaVuSans-28" d="M 1984 4856 
Q 1566 4138 1362 3434 
Q 1159 2731 1159 2009 
Q 1159 1288 1364 580 
Q 1569 -128 1984 -844 
L 1484 -844 
Q 1016 -109 783 600 
Q 550 1309 550 2009 
Q 550 2706 781 3412 
Q 1013 4119 1484 4856 
L 1984 4856 
z
" transform="scale(0.015625)"/>
      <path id="DejaVuSans-73" d="M 2834 3397 
L 2834 2853 
Q 2591 2978 2328 3040 
Q 2066 3103 1784 3103 
Q 1356 3103 1142 2972 
Q 928 2841 928 2578 
Q 928 2378 1081 2264 
Q 1234 2150 1697 2047 
L 1894 2003 
Q 2506 1872 2764 1633 
Q 3022 1394 3022 966 
Q 3022 478 2636 193 
Q 2250 -91 1575 -91 
Q 1294 -91 989 -36 
Q 684 19 347 128 
L 347 722 
Q 666 556 975 473 
Q 1284 391 1588 391 
Q 1994 391 2212 530 
Q 2431 669 2431 922 
Q 2431 1156 2273 1281 
Q 2116 1406 1581 1522 
L 1381 1569 
Q 847 1681 609 1914 
Q 372 2147 372 2553 
Q 372 3047 722 3315 
Q 1072 3584 1716 3584 
Q 2034 3584 2315 3537 
Q 2597 3491 2834 3397 
z
" transform="scale(0.015625)"/>
      <path id="DejaVuSans-63" d="M 3122 3366 
L 3122 2828 
Q 2878 2963 2633 3030 
Q 2388 3097 2138 3097 
Q 1578 3097 1268 2742 
Q 959 2388 959 1747 
Q 959 1106 1268 751 
Q 1578 397 2138 397 
Q 2388 397 2633 464 
Q 2878 531 3122 666 
L 3122 134 
Q 2881 22 2623 -34 
Q 2366 -91 2075 -91 
Q 1284 -91 818 406 
Q 353 903 353 1747 
Q 353 2603 823 3093 
Q 1294 3584 2113 3584 
Q 2378 3584 2631 3529 
Q 2884 3475 3122 3366 
z
" transform="scale(0.015625)"/>
      <path id="DejaVuSans-6f" d="M 1959 3097 
Q 1497 3097 1228 2736 
Q 959 2375 959 1747 
Q 959 1119 1226 758 
Q 1494 397 1959 397 
Q 2419 397 2687 759 
Q 2956 1122 2956 1747 
Q 2956 2369 2687 2733 
Q 2419 3097 1959 3097 
z
M 1959 3584 
Q 2709 3584 3137 3096 
Q 3566 2609 3566 1747 
Q 3566 888 3137 398 
Q 2709 -91 1959 -91 
Q 1206 -91 779 398 
Q 353 888 353 1747 
Q 353 2609 779 3096 
Q 1206 3584 1959 3584 
z
" transform="scale(0.015625)"/>
      <path id="DejaVuSans-72" d="M 2631 2963 
Q 2534 3019 2420 3045 
Q 2306 3072 2169 3072 
Q 1681 3072 1420 2755 
Q 1159 2438 1159 1844 
L 1159 0 
L 581 0 
L 581 3500 
L 1159 3500 
L 1159 2956 
Q 1341 3275 1631 3429 
Q 1922 3584 2338 3584 
Q 2397 3584 2469 3576 
Q 2541 3569 2628 3553 
L 2631 2963 
z
" transform="scale(0.015625)"/>
      <path id="DejaVuSans-65" d="M 3597 1894 
L 3597 1613 
L 953 1613 
Q 991 1019 1311 708 
Q 1631 397 2203 397 
Q 2534 397 2845 478 
Q 3156 559 3463 722 
L 3463 178 
Q 3153 47 2828 -22 
Q 2503 -91 2169 -91 
Q 1331 -91 842 396 
Q 353 884 353 1716 
Q 353 2575 817 3079 
Q 1281 3584 2069 3584 
Q 2775 3584 3186 3129 
Q 3597 2675 3597 1894 
z
M 3022 2063 
Q 3016 2534 2758 2815 
Q 2500 3097 2075 3097 
Q 1594 3097 1305 2825 
Q 1016 2553 972 2059 
L 3022 2063 
z
" transform="scale(0.015625)"/>
      <path id="DejaVuSans-7c" d="M 1344 4891 
L 1344 -1509 
L 813 -1509 
L 813 4891 
L 1344 4891 
z
" transform="scale(0.015625)"/>
      <path id="DejaVuSans-46" d="M 628 4666 
L 3309 4666 
L 3309 4134 
L 1259 4134 
L 1259 2759 
L 3109 2759 
L 3109 2228 
L 1259 2228 
L 1259 0 
L 628 0 
L 628 4666 
z
" transform="scale(0.015625)"/>
      <path id="DejaVuSans-29" d="M 513 4856 
L 1013 4856 
Q 1481 4119 1714 3412 
Q 1947 2706 1947 2009 
Q 1947 1309 1714 600 
Q 1481 -109 1013 -844 
L 513 -844 
Q 928 -128 1133 580 
Q 1338 1288 1338 2009 
Q 1338 2731 1133 3434 
Q 928 4138 513 4856 
z
" transform="scale(0.015625)"/>
      <path id="DejaVuSans-20" transform="scale(0.015625)"/>
      <path id="DejaVuSans-6c" d="M 603 4863 
L 1178 4863 
L 1178 0 
L 603 0 
L 603 4863 
z
" transform="scale(0.015625)"/>
      <path id="DejaVuSans-64" d="M 2906 2969 
L 2906 4863 
L 3481 4863 
L 3481 0 
L 2906 0 
L 2906 525 
Q 2725 213 2448 61 
Q 2172 -91 1784 -91 
Q 1150 -91 751 415 
Q 353 922 353 1747 
Q 353 2572 751 3078 
Q 1150 3584 1784 3584 
Q 2172 3584 2448 3432 
Q 2725 3281 2906 2969 
z
M 947 1747 
Q 947 1113 1208 752 
Q 1469 391 1925 391 
Q 2381 391 2643 752 
Q 2906 1113 2906 1747 
Q 2906 2381 2643 2742 
Q 2381 3103 1925 3103 
Q 1469 3103 1208 2742 
Q 947 2381 947 1747 
z
" transform="scale(0.015625)"/>
      <path id="DejaVuSans-6b" d="M 581 4863 
L 1159 4863 
L 1159 1991 
L 2875 3500 
L 3609 3500 
L 1753 1863 
L 3688 0 
L 2938 0 
L 1159 1709 
L 1159 0 
L 581 0 
L 581 4863 
z
" transform="scale(0.015625)"/>
     </defs>
     <use xlink:href="#DejaVuSans-50"/>
     <use xlink:href="#DejaVuSans-28" transform="translate(60.302734 0)"/>
     <use xlink:href="#DejaVuSans-73" transform="translate(99.316406 0)"/>
     <use xlink:href="#DejaVuSans-63" transform="translate(151.416016 0)"/>
     <use xlink:href="#DejaVuSans-6f" transform="translate(206.396484 0)"/>
     <use xlink:href="#DejaVuSans-72" transform="translate(267.578125 0)"/>
     <use xlink:href="#DejaVuSans-65" transform="translate(306.441406 0)"/>
     <use xlink:href="#DejaVuSans-7c" transform="translate(367.964844 0)"/>
     <use xlink:href="#DejaVuSans-46" transform="translate(401.65625 0)"/>
     <use xlink:href="#DejaVuSans-29" transform="translate(459.175781 0)"/>
     <use xlink:href="#DejaVuSans-20" transform="translate(498.189453 0)"/>
     <use xlink:href="#DejaVuSans-46" transform="translate(529.976562 0)"/>
     <use xlink:href="#DejaVuSans-6f" transform="translate(583.871094 0)"/>
     <use xlink:href="#DejaVuSans-6c" transform="translate(645.052734 0)"/>
     <use xlink:href="#DejaVuSans-64" transform="translate(672.835938 0)"/>
     <use xlink:href="#DejaVuSans-73" transform="translate(736.3125 0)"/>
     <use xlink:href="#DejaVuSans-65" transform="translate(788.412109 0)"/>
     <use xlink:href="#DejaVuSans-65" transform="translate(849.935547 0)"/>
     <use xlink:href="#DejaVuSans-6b" transform="translate(911.458984 0)"/>
    </g>
   </g>
   <g id="legend_1">
    <g id="patch_7">
     <path d="M 261.388668 202.6875 
L 355.17773 202.6875 
Q 357.17773 202.6875 357.17773 200.6875 
L 357.17773 54.90625 
Q 357.17773 52.90625 355.17773 52.90625 
L 261.388668 52.90625 
Q 259.388668 52.90625 259.388668 54.90625 
L 259.388668 200.6875 
Q 259.388668 202.6875 261.388668 202.6875 
z
" style="fill: #ffffff; opacity: 0.8; stroke: #cccccc; stroke-linejoin: miter"/>
    </g>
    <g id="line2d_24">
     <path d="M 263.388668 61.004687 
L 273.388668 61.004687 
L 283.388668 61.004687 
" style="fill: none; stroke-dasharray: 9.6,2.4,1.5,2.4; stroke-dashoffset: 0; stroke: #000000; stroke-width: 1.5"/>
    </g>
    <g id="text_15">
     <!-- SCOP40x8 -->
     <g transform="translate(291.388668 64.504687) scale(0.1 -0.1)">
      <defs>
       <path id="DejaVuSans-53" d="M 3425 4513 
L 3425 3897 
Q 3066 4069 2747 4153 
Q 2428 4238 2131 4238 
Q 1616 4238 1336 4038 
Q 1056 3838 1056 3469 
Q 1056 3159 1242 3001 
Q 1428 2844 1947 2747 
L 2328 2669 
Q 3034 2534 3370 2195 
Q 3706 1856 3706 1288 
Q 3706 609 3251 259 
Q 2797 -91 1919 -91 
Q 1588 -91 1214 -16 
Q 841 59 441 206 
L 441 856 
Q 825 641 1194 531 
Q 1563 422 1919 422 
Q 2459 422 2753 634 
Q 3047 847 3047 1241 
Q 3047 1584 2836 1778 
Q 2625 1972 2144 2069 
L 1759 2144 
Q 1053 2284 737 2584 
Q 422 2884 422 3419 
Q 422 4038 858 4394 
Q 1294 4750 2059 4750 
Q 2388 4750 2728 4690 
Q 3069 4631 3425 4513 
z
" transform="scale(0.015625)"/>
       <path id="DejaVuSans-43" d="M 4122 4306 
L 4122 3641 
Q 3803 3938 3442 4084 
Q 3081 4231 2675 4231 
Q 1875 4231 1450 3742 
Q 1025 3253 1025 2328 
Q 1025 1406 1450 917 
Q 1875 428 2675 428 
Q 3081 428 3442 575 
Q 3803 722 4122 1019 
L 4122 359 
Q 3791 134 3420 21 
Q 3050 -91 2638 -91 
Q 1578 -91 968 557 
Q 359 1206 359 2328 
Q 359 3453 968 4101 
Q 1578 4750 2638 4750 
Q 3056 4750 3426 4639 
Q 3797 4528 4122 4306 
z
" transform="scale(0.015625)"/>
       <path id="DejaVuSans-4f" d="M 2522 4238 
Q 1834 4238 1429 3725 
Q 1025 3213 1025 2328 
Q 1025 1447 1429 934 
Q 1834 422 2522 422 
Q 3209 422 3611 934 
Q 4013 1447 4013 2328 
Q 4013 3213 3611 3725 
Q 3209 4238 2522 4238 
z
M 2522 4750 
Q 3503 4750 4090 4092 
Q 4678 3434 4678 2328 
Q 4678 1225 4090 567 
Q 3503 -91 2522 -91 
Q 1538 -91 948 565 
Q 359 1222 359 2328 
Q 359 3434 948 4092 
Q 1538 4750 2522 4750 
z
" transform="scale(0.015625)"/>
       <path id="DejaVuSans-78" d="M 3513 3500 
L 2247 1797 
L 3578 0 
L 2900 0 
L 1881 1375 
L 863 0 
L 184 0 
L 1544 1831 
L 300 3500 
L 978 3500 
L 1906 2253 
L 2834 3500 
L 3513 3500 
z
" transform="scale(0.015625)"/>
       <path id="DejaVuSans-38" d="M 2034 2216 
Q 1584 2216 1326 1975 
Q 1069 1734 1069 1313 
Q 1069 891 1326 650 
Q 1584 409 2034 409 
Q 2484 409 2743 651 
Q 3003 894 3003 1313 
Q 3003 1734 2745 1975 
Q 2488 2216 2034 2216 
z
M 1403 2484 
Q 997 2584 770 2862 
Q 544 3141 544 3541 
Q 544 4100 942 4425 
Q 1341 4750 2034 4750 
Q 2731 4750 3128 4425 
Q 3525 4100 3525 3541 
Q 3525 3141 3298 2862 
Q 3072 2584 2669 2484 
Q 3125 2378 3379 2068 
Q 3634 1759 3634 1313 
Q 3634 634 3220 271 
Q 2806 -91 2034 -91 
Q 1263 -91 848 271 
Q 434 634 434 1313 
Q 434 1759 690 2068 
Q 947 2378 1403 2484 
z
M 1172 3481 
Q 1172 3119 1398 2916 
Q 1625 2713 2034 2713 
Q 2441 2713 2670 2916 
Q 2900 3119 2900 3481 
Q 2900 3844 2670 4047 
Q 2441 4250 2034 4250 
Q 1625 4250 1398 4047 
Q 1172 3844 1172 3481 
z
" transform="scale(0.015625)"/>
      </defs>
      <use xlink:href="#DejaVuSans-53"/>
      <use xlink:href="#DejaVuSans-43" transform="translate(63.476562 0)"/>
      <use xlink:href="#DejaVuSans-4f" transform="translate(133.300781 0)"/>
      <use xlink:href="#DejaVuSans-50" transform="translate(212.011719 0)"/>
      <use xlink:href="#DejaVuSans-34" transform="translate(272.314453 0)"/>
      <use xlink:href="#DejaVuSans-30" transform="translate(335.9375 0)"/>
      <use xlink:href="#DejaVuSans-78" transform="translate(399.560547 0)"/>
      <use xlink:href="#DejaVuSans-38" transform="translate(458.740234 0)"/>
     </g>
    </g>
    <g id="line2d_25">
     <path d="M 263.388668 75.682813 
L 273.388668 75.682813 
L 283.388668 75.682813 
" style="fill: none; stroke-dasharray: 9.6,2.4,1.5,2.4; stroke-dashoffset: 0; stroke: #008000; stroke-width: 1.5"/>
    </g>
    <g id="text_16">
     <!-- SCOP40x4 -->
     <g transform="translate(291.388668 79.182813) scale(0.1 -0.1)">
      <use xlink:href="#DejaVuSans-53"/>
      <use xlink:href="#DejaVuSans-43" transform="translate(63.476562 0)"/>
      <use xlink:href="#DejaVuSans-4f" transform="translate(133.300781 0)"/>
      <use xlink:href="#DejaVuSans-50" transform="translate(212.011719 0)"/>
      <use xlink:href="#DejaVuSans-34" transform="translate(272.314453 0)"/>
      <use xlink:href="#DejaVuSans-30" transform="translate(335.9375 0)"/>
      <use xlink:href="#DejaVuSans-78" transform="translate(399.560547 0)"/>
      <use xlink:href="#DejaVuSans-34" transform="translate(458.740234 0)"/>
     </g>
    </g>
    <g id="line2d_26">
     <path d="M 263.388668 90.360938 
L 273.388668 90.360938 
L 283.388668 90.360938 
" style="fill: none; stroke: #000000; stroke-width: 1.5; stroke-linecap: square"/>
    </g>
    <g id="text_17">
     <!-- SCOP40 -->
     <g transform="translate(291.388668 93.860938) scale(0.1 -0.1)">
      <use xlink:href="#DejaVuSans-53"/>
      <use xlink:href="#DejaVuSans-43" transform="translate(63.476562 0)"/>
      <use xlink:href="#DejaVuSans-4f" transform="translate(133.300781 0)"/>
      <use xlink:href="#DejaVuSans-50" transform="translate(212.011719 0)"/>
      <use xlink:href="#DejaVuSans-34" transform="translate(272.314453 0)"/>
      <use xlink:href="#DejaVuSans-30" transform="translate(335.9375 0)"/>
     </g>
    </g>
    <g id="line2d_27">
     <path d="M 263.388668 105.039062 
L 273.388668 105.039062 
L 283.388668 105.039062 
" style="fill: none; stroke: #00ffff; stroke-width: 1.5; stroke-linecap: square"/>
    </g>
    <g id="text_18">
     <!-- SCOP40c -->
     <g transform="translate(291.388668 108.539062) scale(0.1 -0.1)">
      <use xlink:href="#DejaVuSans-53"/>
      <use xlink:href="#DejaVuSans-43" transform="translate(63.476562 0)"/>
      <use xlink:href="#DejaVuSans-4f" transform="translate(133.300781 0)"/>
      <use xlink:href="#DejaVuSans-50" transform="translate(212.011719 0)"/>
      <use xlink:href="#DejaVuSans-34" transform="translate(272.314453 0)"/>
      <use xlink:href="#DejaVuSans-30" transform="translate(335.9375 0)"/>
      <use xlink:href="#DejaVuSans-63" transform="translate(399.560547 0)"/>
     </g>
    </g>
    <g id="line2d_28">
     <path d="M 263.388668 119.717188 
L 273.388668 119.717188 
L 283.388668 119.717188 
" style="fill: none; stroke: #ff00ff; stroke-width: 1.5; stroke-linecap: square"/>
    </g>
    <g id="text_19">
     <!-- SCOP40/N2 -->
     <g transform="translate(291.388668 123.217188) scale(0.1 -0.1)">
      <defs>
       <path id="DejaVuSans-2f" d="M 1625 4666 
L 2156 4666 
L 531 -594 
L 0 -594 
L 1625 4666 
z
" transform="scale(0.015625)"/>
       <path id="DejaVuSans-4e" d="M 628 4666 
L 1478 4666 
L 3547 763 
L 3547 4666 
L 4159 4666 
L 4159 0 
L 3309 0 
L 1241 3903 
L 1241 0 
L 628 0 
L 628 4666 
z
" transform="scale(0.015625)"/>
      </defs>
      <use xlink:href="#DejaVuSans-53"/>
      <use xlink:href="#DejaVuSans-43" transform="translate(63.476562 0)"/>
      <use xlink:href="#DejaVuSans-4f" transform="translate(133.300781 0)"/>
      <use xlink:href="#DejaVuSans-50" transform="translate(212.011719 0)"/>
      <use xlink:href="#DejaVuSans-34" transform="translate(272.314453 0)"/>
      <use xlink:href="#DejaVuSans-30" transform="translate(335.9375 0)"/>
      <use xlink:href="#DejaVuSans-2f" transform="translate(399.560547 0)"/>
      <use xlink:href="#DejaVuSans-4e" transform="translate(433.251953 0)"/>
      <use xlink:href="#DejaVuSans-32" transform="translate(508.056641 0)"/>
     </g>
    </g>
    <g id="line2d_29">
     <path d="M 263.388668 134.395312 
L 273.388668 134.395312 
L 283.388668 134.395312 
" style="fill: none; stroke-dasharray: 5.55,2.4; stroke-dashoffset: 0; stroke: #ff00ff; stroke-width: 1.5"/>
    </g>
    <g id="text_20">
     <!-- SCOP40/N4 -->
     <g transform="translate(291.388668 137.895312) scale(0.1 -0.1)">
      <use xlink:href="#DejaVuSans-53"/>
      <use xlink:href="#DejaVuSans-43" transform="translate(63.476562 0)"/>
      <use xlink:href="#DejaVuSans-4f" transform="translate(133.300781 0)"/>
      <use xlink:href="#DejaVuSans-50" transform="translate(212.011719 0)"/>
      <use xlink:href="#DejaVuSans-34" transform="translate(272.314453 0)"/>
      <use xlink:href="#DejaVuSans-30" transform="translate(335.9375 0)"/>
      <use xlink:href="#DejaVuSans-2f" transform="translate(399.560547 0)"/>
      <use xlink:href="#DejaVuSans-4e" transform="translate(433.251953 0)"/>
      <use xlink:href="#DejaVuSans-34" transform="translate(508.056641 0)"/>
     </g>
    </g>
    <g id="line2d_30">
     <path d="M 263.388668 149.073438 
L 273.388668 149.073438 
L 283.388668 149.073438 
" style="fill: none; stroke-dasharray: 1.5,2.475; stroke-dashoffset: 0; stroke: #ff00ff; stroke-width: 1.5"/>
    </g>
    <g id="text_21">
     <!-- SCOP40/N8 -->
     <g transform="translate(291.388668 152.573438) scale(0.1 -0.1)">
      <use xlink:href="#DejaVuSans-53"/>
      <use xlink:href="#DejaVuSans-43" transform="translate(63.476562 0)"/>
      <use xlink:href="#DejaVuSans-4f" transform="translate(133.300781 0)"/>
      <use xlink:href="#DejaVuSans-50" transform="translate(212.011719 0)"/>
      <use xlink:href="#DejaVuSans-34" transform="translate(272.314453 0)"/>
      <use xlink:href="#DejaVuSans-30" transform="translate(335.9375 0)"/>
      <use xlink:href="#DejaVuSans-2f" transform="translate(399.560547 0)"/>
      <use xlink:href="#DejaVuSans-4e" transform="translate(433.251953 0)"/>
      <use xlink:href="#DejaVuSans-38" transform="translate(508.056641 0)"/>
     </g>
    </g>
    <g id="line2d_31">
     <path d="M 263.388668 163.751562 
L 273.388668 163.751562 
L 283.388668 163.751562 
" style="fill: none; stroke: #ffa500; stroke-width: 1.5; stroke-linecap: square"/>
    </g>
    <g id="text_22">
     <!-- SCOP40/SF4 -->
     <g transform="translate(291.388668 167.251562) scale(0.1 -0.1)">
      <use xlink:href="#DejaVuSans-53"/>
      <use xlink:href="#DejaVuSans-43" transform="translate(63.476562 0)"/>
      <use xlink:href="#DejaVuSans-4f" transform="translate(133.300781 0)"/>
      <use xlink:href="#DejaVuSans-50" transform="translate(212.011719 0)"/>
      <use xlink:href="#DejaVuSans-34" transform="translate(272.314453 0)"/>
      <use xlink:href="#DejaVuSans-30" transform="translate(335.9375 0)"/>
      <use xlink:href="#DejaVuSans-2f" transform="translate(399.560547 0)"/>
      <use xlink:href="#DejaVuSans-53" transform="translate(433.251953 0)"/>
      <use xlink:href="#DejaVuSans-46" transform="translate(496.728516 0)"/>
      <use xlink:href="#DejaVuSans-34" transform="translate(554.248047 0)"/>
     </g>
    </g>
    <g id="line2d_32">
     <path d="M 263.388668 178.429688 
L 273.388668 178.429688 
L 283.388668 178.429688 
" style="fill: none; stroke-dasharray: 5.55,2.4; stroke-dashoffset: 0; stroke: #ffa500; stroke-width: 1.5"/>
    </g>
    <g id="text_23">
     <!-- SCOP40/SF4 -->
     <g transform="translate(291.388668 181.929688) scale(0.1 -0.1)">
      <use xlink:href="#DejaVuSans-53"/>
      <use xlink:href="#DejaVuSans-43" transform="translate(63.476562 0)"/>
      <use xlink:href="#DejaVuSans-4f" transform="translate(133.300781 0)"/>
      <use xlink:href="#DejaVuSans-50" transform="translate(212.011719 0)"/>
      <use xlink:href="#DejaVuSans-34" transform="translate(272.314453 0)"/>
      <use xlink:href="#DejaVuSans-30" transform="translate(335.9375 0)"/>
      <use xlink:href="#DejaVuSans-2f" transform="translate(399.560547 0)"/>
      <use xlink:href="#DejaVuSans-53" transform="translate(433.251953 0)"/>
      <use xlink:href="#DejaVuSans-46" transform="translate(496.728516 0)"/>
      <use xlink:href="#DejaVuSans-34" transform="translate(554.248047 0)"/>
     </g>
    </g>
    <g id="line2d_33">
     <path d="M 263.388668 193.107812 
L 273.388668 193.107812 
L 283.388668 193.107812 
" style="fill: none; stroke-dasharray: 1.5,2.475; stroke-dashoffset: 0; stroke: #008000; stroke-width: 1.5"/>
    </g>
    <g id="text_24">
     <!-- SCOP40/SF8 -->
     <g transform="translate(291.388668 196.607812) scale(0.1 -0.1)">
      <use xlink:href="#DejaVuSans-53"/>
      <use xlink:href="#DejaVuSans-43" transform="translate(63.476562 0)"/>
      <use xlink:href="#DejaVuSans-4f" transform="translate(133.300781 0)"/>
      <use xlink:href="#DejaVuSans-50" transform="translate(212.011719 0)"/>
      <use xlink:href="#DejaVuSans-34" transform="translate(272.314453 0)"/>
      <use xlink:href="#DejaVuSans-30" transform="translate(335.9375 0)"/>
      <use xlink:href="#DejaVuSans-2f" transform="translate(399.560547 0)"/>
      <use xlink:href="#DejaVuSans-53" transform="translate(433.251953 0)"/>
      <use xlink:href="#DejaVuSans-46" transform="translate(496.728516 0)"/>
      <use xlink:href="#DejaVuSans-38" transform="translate(554.248047 0)"/>
     </g>
    </g>
   </g>
  </g>
  <g id="axes_2">
   <g id="patch_8">
    <path d="M 407.173076 252.639481 
L 729.230806 252.639481 
L 729.230806 47.90625 
L 407.173076 47.90625 
z
" style="fill: #ffffff"/>
   </g>
   <g id="matplotlib.axis_3">
    <g id="xtick_8">
     <g id="line2d_34">
      <g>
       <use xlink:href="#m198d434966" x="407.173076" y="252.639481" style="stroke: #000000; stroke-width: 0.8"/>
      </g>
     </g>
     <g id="text_25">
      <!-- −2 -->
      <g transform="translate(399.801983 267.237918) scale(0.1 -0.1)">
       <use xlink:href="#DejaVuSans-2212"/>
       <use xlink:href="#DejaVuSans-32" transform="translate(83.789062 0)"/>
      </g>
     </g>
    </g>
    <g id="xtick_9">
     <g id="line2d_35">
      <g>
       <use xlink:href="#m198d434966" x="460.849365" y="252.639481" style="stroke: #000000; stroke-width: 0.8"/>
      </g>
     </g>
     <g id="text_26">
      <!-- −1 -->
      <g transform="translate(453.478271 267.237918) scale(0.1 -0.1)">
       <use xlink:href="#DejaVuSans-2212"/>
       <use xlink:href="#DejaVuSans-31" transform="translate(83.789062 0)"/>
      </g>
     </g>
    </g>
    <g id="xtick_10">
     <g id="line2d_36">
      <g>
       <use xlink:href="#m198d434966" x="514.525653" y="252.639481" style="stroke: #000000; stroke-width: 0.8"/>
      </g>
     </g>
     <g id="text_27">
      <!-- 0 -->
      <g transform="translate(511.344403 267.237918) scale(0.1 -0.1)">
       <use xlink:href="#DejaVuSans-30"/>
      </g>
     </g>
    </g>
    <g id="xtick_11">
     <g id="line2d_37">
      <g>
       <use xlink:href="#m198d434966" x="568.201941" y="252.639481" style="stroke: #000000; stroke-width: 0.8"/>
      </g>
     </g>
     <g id="text_28">
      <!-- 1 -->
      <g transform="translate(565.020691 267.237918) scale(0.1 -0.1)">
       <use xlink:href="#DejaVuSans-31"/>
      </g>
     </g>
    </g>
    <g id="xtick_12">
     <g id="line2d_38">
      <g>
       <use xlink:href="#m198d434966" x="621.87823" y="252.639481" style="stroke: #000000; stroke-width: 0.8"/>
      </g>
     </g>
     <g id="text_29">
      <!-- 2 -->
      <g transform="translate(618.69698 267.237918) scale(0.1 -0.1)">
       <use xlink:href="#DejaVuSans-32"/>
      </g>
     </g>
    </g>
    <g id="xtick_13">
     <g id="line2d_39">
      <g>
       <use xlink:href="#m198d434966" x="675.554518" y="252.639481" style="stroke: #000000; stroke-width: 0.8"/>
      </g>
     </g>
     <g id="text_30">
      <!-- 3 -->
      <g transform="translate(672.373268 267.237918) scale(0.1 -0.1)">
       <use xlink:href="#DejaVuSans-33"/>
      </g>
     </g>
    </g>
    <g id="xtick_14">
     <g id="line2d_40">
      <g>
       <use xlink:href="#m198d434966" x="729.230806" y="252.639481" style="stroke: #000000; stroke-width: 0.8"/>
      </g>
     </g>
     <g id="text_31">
      <!-- 4 -->
      <g transform="translate(726.049556 267.237918) scale(0.1 -0.1)">
       <use xlink:href="#DejaVuSans-34"/>
      </g>
     </g>
    </g>
   </g>
   <g id="matplotlib.axis_4">
    <g id="ytick_7">
     <g id="line2d_41">
      <g>
       <use xlink:href="#mc586a375f6" x="407.173076" y="252.639481" style="stroke: #000000; stroke-width: 0.8"/>
      </g>
     </g>
     <g id="text_32">
      <!-- $\mathdefault{10^{-3}}$ -->
      <g transform="translate(376.673076 256.438699) scale(0.1 -0.1)">
       <use xlink:href="#DejaVuSans-31" transform="translate(0 0.765625)"/>
       <use xlink:href="#DejaVuSans-30" transform="translate(63.623047 0.765625)"/>
       <use xlink:href="#DejaVuSans-2212" transform="translate(128.203125 39.046875) scale(0.7)"/>
       <use xlink:href="#DejaVuSans-33" transform="translate(186.855469 39.046875) scale(0.7)"/>
      </g>
     </g>
    </g>
    <g id="ytick_8">
     <g id="line2d_42">
      <g>
       <use xlink:href="#mc586a375f6" x="407.173076" y="190.618466" style="stroke: #000000; stroke-width: 0.8"/>
      </g>
     </g>
     <g id="text_33">
      <!-- $\mathdefault{10^{-2}}$ -->
      <g transform="translate(376.673076 194.417684) scale(0.1 -0.1)">
       <use xlink:href="#DejaVuSans-31" transform="translate(0 0.765625)"/>
       <use xlink:href="#DejaVuSans-30" transform="translate(63.623047 0.765625)"/>
       <use xlink:href="#DejaVuSans-2212" transform="translate(128.203125 39.046875) scale(0.7)"/>
       <use xlink:href="#DejaVuSans-32" transform="translate(186.855469 39.046875) scale(0.7)"/>
      </g>
     </g>
    </g>
    <g id="ytick_9">
     <g id="line2d_43">
      <g>
       <use xlink:href="#mc586a375f6" x="407.173076" y="128.597451" style="stroke: #000000; stroke-width: 0.8"/>
      </g>
     </g>
     <g id="text_34">
      <!-- $\mathdefault{10^{-1}}$ -->
      <g transform="translate(376.673076 132.396669) scale(0.1 -0.1)">
       <use xlink:href="#DejaVuSans-31" transform="translate(0 0.684375)"/>
       <use xlink:href="#DejaVuSans-30" transform="translate(63.623047 0.684375)"/>
       <use xlink:href="#DejaVuSans-2212" transform="translate(128.203125 38.965625) scale(0.7)"/>
       <use xlink:href="#DejaVuSans-31" transform="translate(186.855469 38.965625) scale(0.7)"/>
      </g>
     </g>
    </g>
    <g id="ytick_10">
     <g id="line2d_44">
      <g>
       <use xlink:href="#mc586a375f6" x="407.173076" y="66.576436" style="stroke: #000000; stroke-width: 0.8"/>
      </g>
     </g>
     <g id="text_35">
      <!-- $\mathdefault{10^{0}}$ -->
      <g transform="translate(382.573076 70.375655) scale(0.1 -0.1)">
       <use xlink:href="#DejaVuSans-31" transform="translate(0 0.765625)"/>
       <use xlink:href="#DejaVuSans-30" transform="translate(63.623047 0.765625)"/>
       <use xlink:href="#DejaVuSans-30" transform="translate(128.203125 39.046875) scale(0.7)"/>
      </g>
     </g>
    </g>
    <g id="ytick_11">
     <g id="line2d_45">
      <defs>
       <path id="md6789ef8a5" d="M 0 0 
L -2 0 
" style="stroke: #000000; stroke-width: 0.6"/>
      </defs>
      <g>
       <use xlink:href="#md6789ef8a5" x="407.173076" y="233.969295" style="stroke: #000000; stroke-width: 0.6"/>
      </g>
     </g>
    </g>
    <g id="ytick_12">
     <g id="line2d_46">
      <g>
       <use xlink:href="#md6789ef8a5" x="407.173076" y="223.047936" style="stroke: #000000; stroke-width: 0.6"/>
      </g>
     </g>
    </g>
    <g id="ytick_13">
     <g id="line2d_47">
      <g>
       <use xlink:href="#md6789ef8a5" x="407.173076" y="215.299109" style="stroke: #000000; stroke-width: 0.6"/>
      </g>
     </g>
    </g>
    <g id="ytick_14">
     <g id="line2d_48">
      <g>
       <use xlink:href="#md6789ef8a5" x="407.173076" y="209.288651" style="stroke: #000000; stroke-width: 0.6"/>
      </g>
     </g>
    </g>
    <g id="ytick_15">
     <g id="line2d_49">
      <g>
       <use xlink:href="#md6789ef8a5" x="407.173076" y="204.37775" style="stroke: #000000; stroke-width: 0.6"/>
      </g>
     </g>
    </g>
    <g id="ytick_16">
     <g id="line2d_50">
      <g>
       <use xlink:href="#md6789ef8a5" x="407.173076" y="200.225642" style="stroke: #000000; stroke-width: 0.6"/>
      </g>
     </g>
    </g>
    <g id="ytick_17">
     <g id="line2d_51">
      <g>
       <use xlink:href="#md6789ef8a5" x="407.173076" y="196.628923" style="stroke: #000000; stroke-width: 0.6"/>
      </g>
     </g>
    </g>
    <g id="ytick_18">
     <g id="line2d_52">
      <g>
       <use xlink:href="#md6789ef8a5" x="407.173076" y="193.456392" style="stroke: #000000; stroke-width: 0.6"/>
      </g>
     </g>
    </g>
    <g id="ytick_19">
     <g id="line2d_53">
      <g>
       <use xlink:href="#md6789ef8a5" x="407.173076" y="171.94828" style="stroke: #000000; stroke-width: 0.6"/>
      </g>
     </g>
    </g>
    <g id="ytick_20">
     <g id="line2d_54">
      <g>
       <use xlink:href="#md6789ef8a5" x="407.173076" y="161.026921" style="stroke: #000000; stroke-width: 0.6"/>
      </g>
     </g>
    </g>
    <g id="ytick_21">
     <g id="line2d_55">
      <g>
       <use xlink:href="#md6789ef8a5" x="407.173076" y="153.278094" style="stroke: #000000; stroke-width: 0.6"/>
      </g>
     </g>
    </g>
    <g id="ytick_22">
     <g id="line2d_56">
      <g>
       <use xlink:href="#md6789ef8a5" x="407.173076" y="147.267637" style="stroke: #000000; stroke-width: 0.6"/>
      </g>
     </g>
    </g>
    <g id="ytick_23">
     <g id="line2d_57">
      <g>
       <use xlink:href="#md6789ef8a5" x="407.173076" y="142.356735" style="stroke: #000000; stroke-width: 0.6"/>
      </g>
     </g>
    </g>
    <g id="ytick_24">
     <g id="line2d_58">
      <g>
       <use xlink:href="#md6789ef8a5" x="407.173076" y="138.204628" style="stroke: #000000; stroke-width: 0.6"/>
      </g>
     </g>
    </g>
    <g id="ytick_25">
     <g id="line2d_59">
      <g>
       <use xlink:href="#md6789ef8a5" x="407.173076" y="134.607908" style="stroke: #000000; stroke-width: 0.6"/>
      </g>
     </g>
    </g>
    <g id="ytick_26">
     <g id="line2d_60">
      <g>
       <use xlink:href="#md6789ef8a5" x="407.173076" y="131.435377" style="stroke: #000000; stroke-width: 0.6"/>
      </g>
     </g>
    </g>
    <g id="ytick_27">
     <g id="line2d_61">
      <g>
       <use xlink:href="#md6789ef8a5" x="407.173076" y="109.927265" style="stroke: #000000; stroke-width: 0.6"/>
      </g>
     </g>
    </g>
    <g id="ytick_28">
     <g id="line2d_62">
      <g>
       <use xlink:href="#md6789ef8a5" x="407.173076" y="99.005906" style="stroke: #000000; stroke-width: 0.6"/>
      </g>
     </g>
    </g>
    <g id="ytick_29">
     <g id="line2d_63">
      <g>
       <use xlink:href="#md6789ef8a5" x="407.173076" y="91.257079" style="stroke: #000000; stroke-width: 0.6"/>
      </g>
     </g>
    </g>
    <g id="ytick_30">
     <g id="line2d_64">
      <g>
       <use xlink:href="#md6789ef8a5" x="407.173076" y="85.246622" style="stroke: #000000; stroke-width: 0.6"/>
      </g>
     </g>
    </g>
    <g id="ytick_31">
     <g id="line2d_65">
      <g>
       <use xlink:href="#md6789ef8a5" x="407.173076" y="80.33572" style="stroke: #000000; stroke-width: 0.6"/>
      </g>
     </g>
    </g>
    <g id="ytick_32">
     <g id="line2d_66">
      <g>
       <use xlink:href="#md6789ef8a5" x="407.173076" y="76.183613" style="stroke: #000000; stroke-width: 0.6"/>
      </g>
     </g>
    </g>
    <g id="ytick_33">
     <g id="line2d_67">
      <g>
       <use xlink:href="#md6789ef8a5" x="407.173076" y="72.586893" style="stroke: #000000; stroke-width: 0.6"/>
      </g>
     </g>
    </g>
    <g id="ytick_34">
     <g id="line2d_68">
      <g>
       <use xlink:href="#md6789ef8a5" x="407.173076" y="69.414362" style="stroke: #000000; stroke-width: 0.6"/>
      </g>
     </g>
    </g>
    <g id="ytick_35">
     <g id="line2d_69">
      <g>
       <use xlink:href="#md6789ef8a5" x="407.173076" y="47.90625" style="stroke: #000000; stroke-width: 0.6"/>
      </g>
     </g>
    </g>
   </g>
   <g id="line2d_70">
    <path d="M 455.93092 281.519481 
L 455.964822 119.785726 
L 468.981322 107.347808 
L 481.992455 115.669707 
L 495.008955 124.025363 
L 508.020087 131.787832 
L 521.031219 139.517462 
L 534.042351 146.983623 
L 547.058851 154.237725 
L 560.069984 162.15455 
L 573.086484 170.012826 
L 586.076145 178.093752 
L 599.119483 186.091877 
L 612.109145 194.980136 
L 625.152483 202.765936 
L 638.142145 210.709979 
L 651.131807 218.2495 
L 664.175145 226.106236 
L 677.164807 231.971243 
L 690.208145 238.236122 
L 703.197807 242.76162 
L 716.241145 247.683725 
L 729.230806 251.505468 
L 742.220468 257.567626 
L 744.225806 258.564057 
" clip-path="url(#pc8d99ef76d)" style="fill: none; stroke-dasharray: 9.6,2.4,1.5,2.4; stroke-dashoffset: 0; stroke: #000000; stroke-width: 1.5"/>
   </g>
   <g id="line2d_71">
    <path d="M 455.93092 281.519481 
L 455.964822 119.785726 
L 468.981322 107.347808 
L 481.992455 115.669707 
L 495.008955 124.025363 
L 508.020087 131.787832 
L 521.031219 139.517462 
L 534.042351 146.983623 
L 547.058851 154.237725 
L 560.069984 162.15455 
L 573.086484 170.012826 
L 586.076145 178.093752 
L 599.119483 186.091877 
L 612.109145 194.980136 
L 625.152483 202.765936 
L 638.142145 210.709979 
L 651.131807 218.2495 
L 664.175145 226.106236 
L 677.164807 231.971243 
L 690.208145 238.236122 
L 703.197807 242.76162 
L 716.241145 247.683725 
L 729.230806 251.505468 
L 742.220468 257.567626 
L 744.225806 258.564057 
" clip-path="url(#pc8d99ef76d)" style="fill: none; stroke-dasharray: 9.6,2.4,1.5,2.4; stroke-dashoffset: 0; stroke: #008000; stroke-width: 1.5"/>
   </g>
   <g id="line2d_72">
    <path d="M 455.929976 281.519481 
L 455.964822 115.272616 
L 468.981322 104.089748 
L 481.992455 114.22567 
L 495.008955 124.093642 
L 508.020087 133.406191 
L 521.031219 142.44667 
L 534.042351 151.198885 
L 547.058851 159.910131 
L 560.069984 168.6563 
L 573.086484 178.093752 
L 586.076145 186.947776 
L 599.119483 196.151705 
L 612.109145 205.360652 
L 625.152483 214.686612 
L 638.142145 222.976203 
L 651.131807 231.353149 
L 664.175145 240.013443 
L 677.164807 247.217203 
L 690.208145 253.772726 
L 703.197807 260.327323 
L 716.241145 265.733659 
L 729.230806 272.47102 
L 742.220468 276.439089 
L 744.225806 277.499911 
" clip-path="url(#pc8d99ef76d)" style="fill: none; stroke: #000000; stroke-width: 1.5; stroke-linecap: square"/>
   </g>
   <g id="line2d_73">
    <path d="M 455.929553 281.519481 
L 455.964822 113.24835 
L 468.981322 102.337149 
L 481.992455 113.126746 
L 495.008955 123.979942 
L 508.020087 134.550732 
L 521.031219 144.685732 
L 534.042351 154.588909 
L 547.058851 164.206186 
L 560.069984 173.500542 
L 573.086484 183.427553 
L 586.076145 193.155801 
L 599.119483 202.488293 
L 612.109145 212.670745 
L 625.152483 222.833311 
L 638.142145 232.247765 
L 651.131807 242.724315 
L 664.175145 252.053327 
L 677.164807 262.397145 
L 690.208145 270.237706 
L 702.054735 281.519481 
" clip-path="url(#pc8d99ef76d)" style="fill: none; stroke: #00ffff; stroke-width: 1.5; stroke-linecap: square"/>
   </g>
   <g id="line2d_74">
    <path d="M 455.930011 281.519481 
L 455.964822 115.43736 
L 468.98669 104.241988 
L 481.997822 114.304774 
L 495.008955 124.139256 
L 508.020087 133.165768 
L 521.031219 142.267101 
L 534.047719 151.080705 
L 547.058851 159.798386 
L 560.069984 168.53738 
L 573.086484 177.958736 
L 586.076145 186.38951 
L 599.119483 195.637325 
L 612.109145 205.013691 
L 625.152483 214.178012 
L 638.142145 222.426663 
L 651.131807 231.158319 
L 664.175145 240.318566 
L 677.164807 247.063473 
L 690.208145 252.693404 
L 703.197807 259.539879 
L 716.241145 264.53443 
L 729.230806 270.618295 
L 742.220468 276.005942 
L 744.225806 276.644305 
" clip-path="url(#pc8d99ef76d)" style="fill: none; stroke: #ff00ff; stroke-width: 1.5; stroke-linecap: square"/>
   </g>
   <g id="line2d_75">
    <path d="M 455.929976 281.519481 
L 455.964822 115.272616 
L 468.98669 104.024765 
L 481.997822 114.146795 
L 495.008955 124.139256 
L 508.020087 133.422297 
L 521.031219 142.582137 
L 534.047719 151.645146 
L 547.058851 160.49353 
L 560.069984 168.53738 
L 573.086484 177.958736 
L 586.076145 186.620716 
L 599.119483 196.161632 
L 612.109145 205.337383 
L 625.152483 214.568387 
L 638.142145 223.318645 
L 651.131807 231.03726 
L 664.175145 241.361356 
L 677.164807 247.505047 
L 690.208145 253.26623 
L 703.197807 262.478528 
L 716.241145 267.358398 
L 729.230806 273.322373 
L 742.220468 275.750628 
L 744.225806 276.851797 
" clip-path="url(#pc8d99ef76d)" style="fill: none; stroke-dasharray: 5.55,2.4; stroke-dashoffset: 0; stroke: #ff00ff; stroke-width: 1.5"/>
   </g>
   <g id="line2d_76">
    <path d="M 455.929841 281.519481 
L 455.964822 114.623541 
L 468.98669 104.024765 
L 481.997822 113.833591 
L 495.008955 124.139256 
L 508.020087 133.197701 
L 521.031219 142.672828 
L 534.047719 152.02812 
L 547.058851 160.670155 
L 560.069984 170.000294 
L 573.086484 179.697108 
L 586.076145 188.796053 
L 599.119483 197.17309 
L 612.109145 206.918044 
L 625.152483 218.895827 
L 638.142145 226.28789 
L 651.131807 233.435904 
L 664.175145 241.898291 
L 677.164807 247.953982 
L 690.208145 255.120641 
L 703.197807 259.784588 
L 716.241145 265.997735 
L 729.230806 269.588137 
L 742.220468 278.210064 
L 744.225806 279.196128 
" clip-path="url(#pc8d99ef76d)" style="fill: none; stroke-dasharray: 1.5,2.475; stroke-dashoffset: 0; stroke: #ff00ff; stroke-width: 1.5"/>
   </g>
   <g id="line2d_77">
    <path d="M 455.930479 281.519481 
L 455.964822 117.676091 
L 468.98669 105.929516 
L 481.997822 115.108875 
L 495.008955 123.911951 
L 508.020087 132.224972 
L 521.031219 140.576313 
L 534.047719 148.479658 
L 547.058851 156.568727 
L 560.069984 164.674995 
L 573.086484 173.472025 
L 586.076145 181.555456 
L 599.119483 190.618466 
L 612.109145 199.021626 
L 625.152483 207.668383 
L 638.142145 215.434123 
L 651.131807 223.500641 
L 664.175145 232.273045 
L 677.164807 240.148626 
L 690.208145 247.728578 
L 703.197807 253.823341 
L 716.241145 258.818812 
L 729.230806 267.49832 
L 742.220468 269.79104 
L 744.225806 271.24912 
" clip-path="url(#pc8d99ef76d)" style="fill: none; stroke: #ffa500; stroke-width: 1.5; stroke-linecap: square"/>
   </g>
   <g id="line2d_78">
    <path d="M 455.929515 281.519481 
L 455.964822 113.066148 
L 468.98669 103.06838 
L 481.997822 114.146795 
L 495.008955 125.068154 
L 508.020087 135.083452 
L 521.031219 144.995875 
L 534.047719 154.307597 
L 547.058851 163.468731 
L 560.069984 172.21899 
L 573.086484 180.610259 
L 586.076145 188.796053 
L 599.119483 196.494582 
L 612.109145 204.332895 
L 625.152483 212.367074 
L 638.142145 219.205433 
L 651.131807 226.186818 
L 664.175145 233.568263 
L 677.164807 240.661697 
L 690.208145 246.201468 
L 703.197807 250.072264 
L 716.241145 257.112225 
L 729.230806 264.53443 
L 742.220468 266.443694 
L 744.225806 267.903986 
" clip-path="url(#pc8d99ef76d)" style="fill: none; stroke-dasharray: 5.55,2.4; stroke-dashoffset: 0; stroke: #ffa500; stroke-width: 1.5"/>
   </g>
   <g id="line2d_79">
    <path d="M 455.929643 281.519481 
L 455.964822 113.678343 
L 468.98669 102.96418 
L 481.997822 113.989737 
L 495.008955 124.832909 
L 508.020087 134.776783 
L 521.031219 144.215084 
L 534.047719 153.413109 
L 547.058851 162.598212 
L 560.069984 170.634098 
L 573.086484 180.058661 
L 586.076145 189.304284 
L 599.119483 197.345422 
L 612.109145 205.570995 
L 625.152483 214.437635 
L 638.142145 221.905317 
L 651.131807 229.855693 
L 664.175145 237.412535 
L 677.164807 246.845373 
L 690.208145 250.072264 
L 703.197807 259.366438 
L 716.241145 267.733157 
L 729.230806 272.691271 
L 740.095093 281.519481 
" clip-path="url(#pc8d99ef76d)" style="fill: none; stroke-dasharray: 1.5,2.475; stroke-dashoffset: 0; stroke: #008000; stroke-width: 1.5"/>
   </g>
   <g id="patch_9">
    <path d="M 407.173076 252.639481 
L 407.173076 47.90625 
" style="fill: none; stroke: #000000; stroke-width: 0.8; stroke-linejoin: miter; stroke-linecap: square"/>
   </g>
   <g id="patch_10">
    <path d="M 729.230806 252.639481 
L 729.230806 47.90625 
" style="fill: none; stroke: #000000; stroke-width: 0.8; stroke-linejoin: miter; stroke-linecap: square"/>
   </g>
   <g id="patch_11">
    <path d="M 407.173076 252.639481 
L 729.230806 252.639481 
" style="fill: none; stroke: #000000; stroke-width: 0.8; stroke-linejoin: miter; stroke-linecap: square"/>
   </g>
   <g id="patch_12">
    <path d="M 407.173076 47.90625 
L 729.230806 47.90625 
" style="fill: none; stroke: #000000; stroke-width: 0.8; stroke-linejoin: miter; stroke-linecap: square"/>
   </g>
   <g id="text_36">
    <!-- P(score|F) Foldseek (logscale) -->
    <g transform="translate(478.843191 41.90625) scale(0.12 -0.12)">
     <defs>
      <path id="DejaVuSans-67" d="M 2906 1791 
Q 2906 2416 2648 2759 
Q 2391 3103 1925 3103 
Q 1463 3103 1205 2759 
Q 947 2416 947 1791 
Q 947 1169 1205 825 
Q 1463 481 1925 481 
Q 2391 481 2648 825 
Q 2906 1169 2906 1791 
z
M 3481 434 
Q 3481 -459 3084 -895 
Q 2688 -1331 1869 -1331 
Q 1566 -1331 1297 -1286 
Q 1028 -1241 775 -1147 
L 775 -588 
Q 1028 -725 1275 -790 
Q 1522 -856 1778 -856 
Q 2344 -856 2625 -561 
Q 2906 -266 2906 331 
L 2906 616 
Q 2728 306 2450 153 
Q 2172 0 1784 0 
Q 1141 0 747 490 
Q 353 981 353 1791 
Q 353 2603 747 3093 
Q 1141 3584 1784 3584 
Q 2172 3584 2450 3431 
Q 2728 3278 2906 2969 
L 2906 3500 
L 3481 3500 
L 3481 434 
z
" transform="scale(0.015625)"/>
      <path id="DejaVuSans-61" d="M 2194 1759 
Q 1497 1759 1228 1600 
Q 959 1441 959 1056 
Q 959 750 1161 570 
Q 1363 391 1709 391 
Q 2188 391 2477 730 
Q 2766 1069 2766 1631 
L 2766 1759 
L 2194 1759 
z
M 3341 1997 
L 3341 0 
L 2766 0 
L 2766 531 
Q 2569 213 2275 61 
Q 1981 -91 1556 -91 
Q 1019 -91 701 211 
Q 384 513 384 1019 
Q 384 1609 779 1909 
Q 1175 2209 1959 2209 
L 2766 2209 
L 2766 2266 
Q 2766 2663 2505 2880 
Q 2244 3097 1772 3097 
Q 1472 3097 1187 3025 
Q 903 2953 641 2809 
L 641 3341 
Q 956 3463 1253 3523 
Q 1550 3584 1831 3584 
Q 2591 3584 2966 3190 
Q 3341 2797 3341 1997 
z
" transform="scale(0.015625)"/>
     </defs>
     <use xlink:href="#DejaVuSans-50"/>
     <use xlink:href="#DejaVuSans-28" transform="translate(60.302734 0)"/>
     <use xlink:href="#DejaVuSans-73" transform="translate(99.316406 0)"/>
     <use xlink:href="#DejaVuSans-63" transform="translate(151.416016 0)"/>
     <use xlink:href="#DejaVuSans-6f" transform="translate(206.396484 0)"/>
     <use xlink:href="#DejaVuSans-72" transform="translate(267.578125 0)"/>
     <use xlink:href="#DejaVuSans-65" transform="translate(306.441406 0)"/>
     <use xlink:href="#DejaVuSans-7c" transform="translate(367.964844 0)"/>
     <use xlink:href="#DejaVuSans-46" transform="translate(401.65625 0)"/>
     <use xlink:href="#DejaVuSans-29" transform="translate(459.175781 0)"/>
     <use xlink:href="#DejaVuSans-20" transform="translate(498.189453 0)"/>
     <use xlink:href="#DejaVuSans-46" transform="translate(529.976562 0)"/>
     <use xlink:href="#DejaVuSans-6f" transform="translate(583.871094 0)"/>
     <use xlink:href="#DejaVuSans-6c" transform="translate(645.052734 0)"/>
     <use xlink:href="#DejaVuSans-64" transform="translate(672.835938 0)"/>
     <use xlink:href="#DejaVuSans-73" transform="translate(736.3125 0)"/>
     <use xlink:href="#DejaVuSans-65" transform="translate(788.412109 0)"/>
     <use xlink:href="#DejaVuSans-65" transform="translate(849.935547 0)"/>
     <use xlink:href="#DejaVuSans-6b" transform="translate(911.458984 0)"/>
     <use xlink:href="#DejaVuSans-20" transform="translate(969.369141 0)"/>
     <use xlink:href="#DejaVuSans-28" transform="translate(1001.15625 0)"/>
     <use xlink:href="#DejaVuSans-6c" transform="translate(1040.169922 0)"/>
     <use xlink:href="#DejaVuSans-6f" transform="translate(1067.953125 0)"/>
     <use xlink:href="#DejaVuSans-67" transform="translate(1129.134766 0)"/>
     <use xlink:href="#DejaVuSans-73" transform="translate(1192.611328 0)"/>
     <use xlink:href="#DejaVuSans-63" transform="translate(1244.710938 0)"/>
     <use xlink:href="#DejaVuSans-61" transform="translate(1299.691406 0)"/>
     <use xlink:href="#DejaVuSans-6c" transform="translate(1360.970703 0)"/>
     <use xlink:href="#DejaVuSans-65" transform="translate(1388.753906 0)"/>
     <use xlink:href="#DejaVuSans-29" transform="translate(1450.277344 0)"/>
    </g>
   </g>
   <g id="legend_2">
    <g id="patch_13">
     <path d="M 628.441744 202.6875 
L 722.230806 202.6875 
Q 724.230806 202.6875 724.230806 200.6875 
L 724.230806 54.90625 
Q 724.230806 52.90625 722.230806 52.90625 
L 628.441744 52.90625 
Q 626.441744 52.90625 626.441744 54.90625 
L 626.441744 200.6875 
Q 626.441744 202.6875 628.441744 202.6875 
z
" style="fill: #ffffff; opacity: 0.8; stroke: #cccccc; stroke-linejoin: miter"/>
    </g>
    <g id="line2d_80">
     <path d="M 630.441744 61.004687 
L 640.441744 61.004687 
L 650.441744 61.004687 
" style="fill: none; stroke-dasharray: 9.6,2.4,1.5,2.4; stroke-dashoffset: 0; stroke: #000000; stroke-width: 1.5"/>
    </g>
    <g id="text_37">
     <!-- SCOP40x8 -->
     <g transform="translate(658.441744 64.504687) scale(0.1 -0.1)">
      <use xlink:href="#DejaVuSans-53"/>
      <use xlink:href="#DejaVuSans-43" transform="translate(63.476562 0)"/>
      <use xlink:href="#DejaVuSans-4f" transform="translate(133.300781 0)"/>
      <use xlink:href="#DejaVuSans-50" transform="translate(212.011719 0)"/>
      <use xlink:href="#DejaVuSans-34" transform="translate(272.314453 0)"/>
      <use xlink:href="#DejaVuSans-30" transform="translate(335.9375 0)"/>
      <use xlink:href="#DejaVuSans-78" transform="translate(399.560547 0)"/>
      <use xlink:href="#DejaVuSans-38" transform="translate(458.740234 0)"/>
     </g>
    </g>
    <g id="line2d_81">
     <path d="M 630.441744 75.682813 
L 640.441744 75.682813 
L 650.441744 75.682813 
" style="fill: none; stroke-dasharray: 9.6,2.4,1.5,2.4; stroke-dashoffset: 0; stroke: #008000; stroke-width: 1.5"/>
    </g>
    <g id="text_38">
     <!-- SCOP40x4 -->
     <g transform="translate(658.441744 79.182813) scale(0.1 -0.1)">
      <use xlink:href="#DejaVuSans-53"/>
      <use xlink:href="#DejaVuSans-43" transform="translate(63.476562 0)"/>
      <use xlink:href="#DejaVuSans-4f" transform="translate(133.300781 0)"/>
      <use xlink:href="#DejaVuSans-50" transform="translate(212.011719 0)"/>
      <use xlink:href="#DejaVuSans-34" transform="translate(272.314453 0)"/>
      <use xlink:href="#DejaVuSans-30" transform="translate(335.9375 0)"/>
      <use xlink:href="#DejaVuSans-78" transform="translate(399.560547 0)"/>
      <use xlink:href="#DejaVuSans-34" transform="translate(458.740234 0)"/>
     </g>
    </g>
    <g id="line2d_82">
     <path d="M 630.441744 90.360938 
L 640.441744 90.360938 
L 650.441744 90.360938 
" style="fill: none; stroke: #000000; stroke-width: 1.5; stroke-linecap: square"/>
    </g>
    <g id="text_39">
     <!-- SCOP40 -->
     <g transform="translate(658.441744 93.860938) scale(0.1 -0.1)">
      <use xlink:href="#DejaVuSans-53"/>
      <use xlink:href="#DejaVuSans-43" transform="translate(63.476562 0)"/>
      <use xlink:href="#DejaVuSans-4f" transform="translate(133.300781 0)"/>
      <use xlink:href="#DejaVuSans-50" transform="translate(212.011719 0)"/>
      <use xlink:href="#DejaVuSans-34" transform="translate(272.314453 0)"/>
      <use xlink:href="#DejaVuSans-30" transform="translate(335.9375 0)"/>
     </g>
    </g>
    <g id="line2d_83">
     <path d="M 630.441744 105.039062 
L 640.441744 105.039062 
L 650.441744 105.039062 
" style="fill: none; stroke: #00ffff; stroke-width: 1.5; stroke-linecap: square"/>
    </g>
    <g id="text_40">
     <!-- SCOP40c -->
     <g transform="translate(658.441744 108.539062) scale(0.1 -0.1)">
      <use xlink:href="#DejaVuSans-53"/>
      <use xlink:href="#DejaVuSans-43" transform="translate(63.476562 0)"/>
      <use xlink:href="#DejaVuSans-4f" transform="translate(133.300781 0)"/>
      <use xlink:href="#DejaVuSans-50" transform="translate(212.011719 0)"/>
      <use xlink:href="#DejaVuSans-34" transform="translate(272.314453 0)"/>
      <use xlink:href="#DejaVuSans-30" transform="translate(335.9375 0)"/>
      <use xlink:href="#DejaVuSans-63" transform="translate(399.560547 0)"/>
     </g>
    </g>
    <g id="line2d_84">
     <path d="M 630.441744 119.717188 
L 640.441744 119.717188 
L 650.441744 119.717188 
" style="fill: none; stroke: #ff00ff; stroke-width: 1.5; stroke-linecap: square"/>
    </g>
    <g id="text_41">
     <!-- SCOP40/N2 -->
     <g transform="translate(658.441744 123.217188) scale(0.1 -0.1)">
      <use xlink:href="#DejaVuSans-53"/>
      <use xlink:href="#DejaVuSans-43" transform="translate(63.476562 0)"/>
      <use xlink:href="#DejaVuSans-4f" transform="translate(133.300781 0)"/>
      <use xlink:href="#DejaVuSans-50" transform="translate(212.011719 0)"/>
      <use xlink:href="#DejaVuSans-34" transform="translate(272.314453 0)"/>
      <use xlink:href="#DejaVuSans-30" transform="translate(335.9375 0)"/>
      <use xlink:href="#DejaVuSans-2f" transform="translate(399.560547 0)"/>
      <use xlink:href="#DejaVuSans-4e" transform="translate(433.251953 0)"/>
      <use xlink:href="#DejaVuSans-32" transform="translate(508.056641 0)"/>
     </g>
    </g>
    <g id="line2d_85">
     <path d="M 630.441744 134.395312 
L 640.441744 134.395312 
L 650.441744 134.395312 
" style="fill: none; stroke-dasharray: 5.55,2.4; stroke-dashoffset: 0; stroke: #ff00ff; stroke-width: 1.5"/>
    </g>
    <g id="text_42">
     <!-- SCOP40/N4 -->
     <g transform="translate(658.441744 137.895312) scale(0.1 -0.1)">
      <use xlink:href="#DejaVuSans-53"/>
      <use xlink:href="#DejaVuSans-43" transform="translate(63.476562 0)"/>
      <use xlink:href="#DejaVuSans-4f" transform="translate(133.300781 0)"/>
      <use xlink:href="#DejaVuSans-50" transform="translate(212.011719 0)"/>
      <use xlink:href="#DejaVuSans-34" transform="translate(272.314453 0)"/>
      <use xlink:href="#DejaVuSans-30" transform="translate(335.9375 0)"/>
      <use xlink:href="#DejaVuSans-2f" transform="translate(399.560547 0)"/>
      <use xlink:href="#DejaVuSans-4e" transform="translate(433.251953 0)"/>
      <use xlink:href="#DejaVuSans-34" transform="translate(508.056641 0)"/>
     </g>
    </g>
    <g id="line2d_86">
     <path d="M 630.441744 149.073438 
L 640.441744 149.073438 
L 650.441744 149.073438 
" style="fill: none; stroke-dasharray: 1.5,2.475; stroke-dashoffset: 0; stroke: #ff00ff; stroke-width: 1.5"/>
    </g>
    <g id="text_43">
     <!-- SCOP40/N8 -->
     <g transform="translate(658.441744 152.573438) scale(0.1 -0.1)">
      <use xlink:href="#DejaVuSans-53"/>
      <use xlink:href="#DejaVuSans-43" transform="translate(63.476562 0)"/>
      <use xlink:href="#DejaVuSans-4f" transform="translate(133.300781 0)"/>
      <use xlink:href="#DejaVuSans-50" transform="translate(212.011719 0)"/>
      <use xlink:href="#DejaVuSans-34" transform="translate(272.314453 0)"/>
      <use xlink:href="#DejaVuSans-30" transform="translate(335.9375 0)"/>
      <use xlink:href="#DejaVuSans-2f" transform="translate(399.560547 0)"/>
      <use xlink:href="#DejaVuSans-4e" transform="translate(433.251953 0)"/>
      <use xlink:href="#DejaVuSans-38" transform="translate(508.056641 0)"/>
     </g>
    </g>
    <g id="line2d_87">
     <path d="M 630.441744 163.751562 
L 640.441744 163.751562 
L 650.441744 163.751562 
" style="fill: none; stroke: #ffa500; stroke-width: 1.5; stroke-linecap: square"/>
    </g>
    <g id="text_44">
     <!-- SCOP40/SF4 -->
     <g transform="translate(658.441744 167.251562) scale(0.1 -0.1)">
      <use xlink:href="#DejaVuSans-53"/>
      <use xlink:href="#DejaVuSans-43" transform="translate(63.476562 0)"/>
      <use xlink:href="#DejaVuSans-4f" transform="translate(133.300781 0)"/>
      <use xlink:href="#DejaVuSans-50" transform="translate(212.011719 0)"/>
      <use xlink:href="#DejaVuSans-34" transform="translate(272.314453 0)"/>
      <use xlink:href="#DejaVuSans-30" transform="translate(335.9375 0)"/>
      <use xlink:href="#DejaVuSans-2f" transform="translate(399.560547 0)"/>
      <use xlink:href="#DejaVuSans-53" transform="translate(433.251953 0)"/>
      <use xlink:href="#DejaVuSans-46" transform="translate(496.728516 0)"/>
      <use xlink:href="#DejaVuSans-34" transform="translate(554.248047 0)"/>
     </g>
    </g>
    <g id="line2d_88">
     <path d="M 630.441744 178.429688 
L 640.441744 178.429688 
L 650.441744 178.429688 
" style="fill: none; stroke-dasharray: 5.55,2.4; stroke-dashoffset: 0; stroke: #ffa500; stroke-width: 1.5"/>
    </g>
    <g id="text_45">
     <!-- SCOP40/SF4 -->
     <g transform="translate(658.441744 181.929688) scale(0.1 -0.1)">
      <use xlink:href="#DejaVuSans-53"/>
      <use xlink:href="#DejaVuSans-43" transform="translate(63.476562 0)"/>
      <use xlink:href="#DejaVuSans-4f" transform="translate(133.300781 0)"/>
      <use xlink:href="#DejaVuSans-50" transform="translate(212.011719 0)"/>
      <use xlink:href="#DejaVuSans-34" transform="translate(272.314453 0)"/>
      <use xlink:href="#DejaVuSans-30" transform="translate(335.9375 0)"/>
      <use xlink:href="#DejaVuSans-2f" transform="translate(399.560547 0)"/>
      <use xlink:href="#DejaVuSans-53" transform="translate(433.251953 0)"/>
      <use xlink:href="#DejaVuSans-46" transform="translate(496.728516 0)"/>
      <use xlink:href="#DejaVuSans-34" transform="translate(554.248047 0)"/>
     </g>
    </g>
    <g id="line2d_89">
     <path d="M 630.441744 193.107812 
L 640.441744 193.107812 
L 650.441744 193.107812 
" style="fill: none; stroke-dasharray: 1.5,2.475; stroke-dashoffset: 0; stroke: #008000; stroke-width: 1.5"/>
    </g>
    <g id="text_46">
     <!-- SCOP40/SF8 -->
     <g transform="translate(658.441744 196.607812) scale(0.1 -0.1)">
      <use xlink:href="#DejaVuSans-53"/>
      <use xlink:href="#DejaVuSans-43" transform="translate(63.476562 0)"/>
      <use xlink:href="#DejaVuSans-4f" transform="translate(133.300781 0)"/>
      <use xlink:href="#DejaVuSans-50" transform="translate(212.011719 0)"/>
      <use xlink:href="#DejaVuSans-34" transform="translate(272.314453 0)"/>
      <use xlink:href="#DejaVuSans-30" transform="translate(335.9375 0)"/>
      <use xlink:href="#DejaVuSans-2f" transform="translate(399.560547 0)"/>
      <use xlink:href="#DejaVuSans-53" transform="translate(433.251953 0)"/>
      <use xlink:href="#DejaVuSans-46" transform="translate(496.728516 0)"/>
      <use xlink:href="#DejaVuSans-38" transform="translate(554.248047 0)"/>
     </g>
    </g>
   </g>
  </g>
  <g id="text_47">
   <!-- ../plots/P_score_F.foldseek.svg -->
   <g transform="translate(281.368216 14.728515) scale(0.12 -0.12)">
    <defs>
     <path id="DejaVuSans-70" d="M 1159 525 
L 1159 -1331 
L 581 -1331 
L 581 3500 
L 1159 3500 
L 1159 2969 
Q 1341 3281 1617 3432 
Q 1894 3584 2278 3584 
Q 2916 3584 3314 3078 
Q 3713 2572 3713 1747 
Q 3713 922 3314 415 
Q 2916 -91 2278 -91 
Q 1894 -91 1617 61 
Q 1341 213 1159 525 
z
M 3116 1747 
Q 3116 2381 2855 2742 
Q 2594 3103 2138 3103 
Q 1681 3103 1420 2742 
Q 1159 2381 1159 1747 
Q 1159 1113 1420 752 
Q 1681 391 2138 391 
Q 2594 391 2855 752 
Q 3116 1113 3116 1747 
z
" transform="scale(0.015625)"/>
     <path id="DejaVuSans-74" d="M 1172 4494 
L 1172 3500 
L 2356 3500 
L 2356 3053 
L 1172 3053 
L 1172 1153 
Q 1172 725 1289 603 
Q 1406 481 1766 481 
L 2356 481 
L 2356 0 
L 1766 0 
Q 1100 0 847 248 
Q 594 497 594 1153 
L 594 3053 
L 172 3053 
L 172 3500 
L 594 3500 
L 594 4494 
L 1172 4494 
z
" transform="scale(0.015625)"/>
     <path id="DejaVuSans-5f" d="M 3263 -1063 
L 3263 -1509 
L -63 -1509 
L -63 -1063 
L 3263 -1063 
z
" transform="scale(0.015625)"/>
     <path id="DejaVuSans-66" d="M 2375 4863 
L 2375 4384 
L 1825 4384 
Q 1516 4384 1395 4259 
Q 1275 4134 1275 3809 
L 1275 3500 
L 2222 3500 
L 2222 3053 
L 1275 3053 
L 1275 0 
L 697 0 
L 697 3053 
L 147 3053 
L 147 3500 
L 697 3500 
L 697 3744 
Q 697 4328 969 4595 
Q 1241 4863 1831 4863 
L 2375 4863 
z
" transform="scale(0.015625)"/>
     <path id="DejaVuSans-76" d="M 191 3500 
L 800 3500 
L 1894 563 
L 2988 3500 
L 3597 3500 
L 2284 0 
L 1503 0 
L 191 3500 
z
" transform="scale(0.015625)"/>
    </defs>
    <use xlink:href="#DejaVuSans-2e"/>
    <use xlink:href="#DejaVuSans-2e" transform="translate(31.787109 0)"/>
    <use xlink:href="#DejaVuSans-2f" transform="translate(63.574219 0)"/>
    <use xlink:href="#DejaVuSans-70" transform="translate(97.265625 0)"/>
    <use xlink:href="#DejaVuSans-6c" transform="translate(160.742188 0)"/>
    <use xlink:href="#DejaVuSans-6f" transform="translate(188.525391 0)"/>
    <use xlink:href="#DejaVuSans-74" transform="translate(249.707031 0)"/>
    <use xlink:href="#DejaVuSans-73" transform="translate(288.916016 0)"/>
    <use xlink:href="#DejaVuSans-2f" transform="translate(341.015625 0)"/>
    <use xlink:href="#DejaVuSans-50" transform="translate(374.707031 0)"/>
    <use xlink:href="#DejaVuSans-5f" transform="translate(435.009766 0)"/>
    <use xlink:href="#DejaVuSans-73" transform="translate(485.009766 0)"/>
    <use xlink:href="#DejaVuSans-63" transform="translate(537.109375 0)"/>
    <use xlink:href="#DejaVuSans-6f" transform="translate(592.089844 0)"/>
    <use xlink:href="#DejaVuSans-72" transform="translate(653.271484 0)"/>
    <use xlink:href="#DejaVuSans-65" transform="translate(692.134766 0)"/>
    <use xlink:href="#DejaVuSans-5f" transform="translate(753.658203 0)"/>
    <use xlink:href="#DejaVuSans-46" transform="translate(803.658203 0)"/>
    <use xlink:href="#DejaVuSans-2e" transform="translate(845.052734 0)"/>
    <use xlink:href="#DejaVuSans-66" transform="translate(876.839844 0)"/>
    <use xlink:href="#DejaVuSans-6f" transform="translate(912.044922 0)"/>
    <use xlink:href="#DejaVuSans-6c" transform="translate(973.226562 0)"/>
    <use xlink:href="#DejaVuSans-64" transform="translate(1001.009766 0)"/>
    <use xlink:href="#DejaVuSans-73" transform="translate(1064.486328 0)"/>
    <use xlink:href="#DejaVuSans-65" transform="translate(1116.585938 0)"/>
    <use xlink:href="#DejaVuSans-65" transform="translate(1178.109375 0)"/>
    <use xlink:href="#DejaVuSans-6b" transform="translate(1239.632812 0)"/>
    <use xlink:href="#DejaVuSans-2e" transform="translate(1297.542969 0)"/>
    <use xlink:href="#DejaVuSans-73" transform="translate(1329.330078 0)"/>
    <use xlink:href="#DejaVuSans-76" transform="translate(1381.429688 0)"/>
    <use xlink:href="#DejaVuSans-67" transform="translate(1440.609375 0)"/>
   </g>
  </g>
 </g>
 <defs>
  <clipPath id="pb0d84545e0">
   <rect x="40.12" y="47.90625" width="322.05773" height="204.733231"/>
  </clipPath>
  <clipPath id="pc8d99ef76d">
   <rect x="407.173076" y="47.90625" width="322.05773" height="204.733231"/>
  </clipPath>
 </defs>
</svg>
