<?xml version="1.0" encoding="utf-8" standalone="no"?>
<!DOCTYPE svg PUBLIC "-//W3C//DTD SVG 1.1//EN"
  "http://www.w3.org/Graphics/SVG/1.1/DTD/svg11.dtd">
<svg xmlns:xlink="http://www.w3.org/1999/xlink" width="743.225806pt" height="280.519481pt" viewBox="0 0 743.225806 280.519481" xmlns="http://www.w3.org/2000/svg" version="1.1">
 <metadata>
  <rdf:RDF xmlns:dc="http://purl.org/dc/elements/1.1/" xmlns:cc="http://creativecommons.org/ns#" xmlns:rdf="http://www.w3.org/1999/02/22-rdf-syntax-ns#">
   <cc:Work>
    <dc:type rdf:resource="http://purl.org/dc/dcmitype/StillImage"/>
    <dc:date>2025-05-30T08:16:33.698956</dc:date>
    <dc:format>image/svg+xml</dc:format>
    <dc:creator>
     <cc:Agent>
      <dc:title>Matplotlib v3.10.3, https://matplotlib.org/</dc:title>
     </cc:Agent>
    </dc:creator>
   </cc:Work>
  </rdf:RDF>
 </metadata>
 <defs>
  <style type="text/css">*{stroke-linejoin: round; stroke-linecap: butt}</style>
 </defs>
 <g id="figure_1">
  <g id="patch_1">
   <path d="M 0 280.519481 
L 743.225806 280.519481 
L 743.225806 0 
L 0 0 
z
" style="fill: #ffffff"/>
  </g>
  <g id="axes_1">
   <g id="patch_2">
    <path d="M 54.56 238.559481 
L 358.98273 238.559481 
L 358.98273 47.90625 
L 54.56 47.90625 
z
" style="fill: #ffffff"/>
   </g>
   <g id="matplotlib.axis_1">
    <g id="xtick_1">
     <g id="line2d_1">
      <defs>
       <path id="maa67eb270a" d="M 0 0 
L 0 3.5 
" style="stroke: #000000; stroke-width: 0.8"/>
      </defs>
      <g>
       <use xlink:href="#maa67eb270a" x="54.56" y="238.559481" style="stroke: #000000; stroke-width: 0.8"/>
      </g>
     </g>
     <g id="text_1">
      <!-- −10 -->
      <g transform="translate(44.007656 253.157918) scale(0.1 -0.1)">
       <defs>
        <path id="DejaVuSans-2212" d="M 678 2272 
L 4684 2272 
L 4684 1741 
L 678 1741 
L 678 2272 
z
" transform="scale(0.015625)"/>
        <path id="DejaVuSans-31" d="M 794 531 
L 1825 531 
L 1825 4091 
L 703 3866 
L 703 4441 
L 1819 4666 
L 2450 4666 
L 2450 531 
L 3481 531 
L 3481 0 
L 794 0 
L 794 531 
z
" transform="scale(0.015625)"/>
        <path id="DejaVuSans-30" d="M 2034 4250 
Q 1547 4250 1301 3770 
Q 1056 3291 1056 2328 
Q 1056 1369 1301 889 
Q 1547 409 2034 409 
Q 2525 409 2770 889 
Q 3016 1369 3016 2328 
Q 3016 3291 2770 3770 
Q 2525 4250 2034 4250 
z
M 2034 4750 
Q 2819 4750 3233 4129 
Q 3647 3509 3647 2328 
Q 3647 1150 3233 529 
Q 2819 -91 2034 -91 
Q 1250 -91 836 529 
Q 422 1150 422 2328 
Q 422 3509 836 4129 
Q 1250 4750 2034 4750 
z
" transform="scale(0.015625)"/>
       </defs>
       <use xlink:href="#DejaVuSans-2212"/>
       <use xlink:href="#DejaVuSans-31" transform="translate(83.789062 0)"/>
       <use xlink:href="#DejaVuSans-30" transform="translate(147.412109 0)"/>
      </g>
     </g>
    </g>
    <g id="xtick_2">
     <g id="line2d_2">
      <g>
       <use xlink:href="#maa67eb270a" x="105.297122" y="238.559481" style="stroke: #000000; stroke-width: 0.8"/>
      </g>
     </g>
     <g id="text_2">
      <!-- 0 -->
      <g transform="translate(102.115872 253.157918) scale(0.1 -0.1)">
       <use xlink:href="#DejaVuSans-30"/>
      </g>
     </g>
    </g>
    <g id="xtick_3">
     <g id="line2d_3">
      <g>
       <use xlink:href="#maa67eb270a" x="156.034243" y="238.559481" style="stroke: #000000; stroke-width: 0.8"/>
      </g>
     </g>
     <g id="text_3">
      <!-- 10 -->
      <g transform="translate(149.671743 253.157918) scale(0.1 -0.1)">
       <use xlink:href="#DejaVuSans-31"/>
       <use xlink:href="#DejaVuSans-30" transform="translate(63.623047 0)"/>
      </g>
     </g>
    </g>
    <g id="xtick_4">
     <g id="line2d_4">
      <g>
       <use xlink:href="#maa67eb270a" x="206.771365" y="238.559481" style="stroke: #000000; stroke-width: 0.8"/>
      </g>
     </g>
     <g id="text_4">
      <!-- 20 -->
      <g transform="translate(200.408865 253.157918) scale(0.1 -0.1)">
       <defs>
        <path id="DejaVuSans-32" d="M 1228 531 
L 3431 531 
L 3431 0 
L 469 0 
L 469 531 
Q 828 903 1448 1529 
Q 2069 2156 2228 2338 
Q 2531 2678 2651 2914 
Q 2772 3150 2772 3378 
Q 2772 3750 2511 3984 
Q 2250 4219 1831 4219 
Q 1534 4219 1204 4116 
Q 875 4013 500 3803 
L 500 4441 
Q 881 4594 1212 4672 
Q 1544 4750 1819 4750 
Q 2544 4750 2975 4387 
Q 3406 4025 3406 3419 
Q 3406 3131 3298 2873 
Q 3191 2616 2906 2266 
Q 2828 2175 2409 1742 
Q 1991 1309 1228 531 
z
" transform="scale(0.015625)"/>
       </defs>
       <use xlink:href="#DejaVuSans-32"/>
       <use xlink:href="#DejaVuSans-30" transform="translate(63.623047 0)"/>
      </g>
     </g>
    </g>
    <g id="xtick_5">
     <g id="line2d_5">
      <g>
       <use xlink:href="#maa67eb270a" x="257.508487" y="238.559481" style="stroke: #000000; stroke-width: 0.8"/>
      </g>
     </g>
     <g id="text_5">
      <!-- 30 -->
      <g transform="translate(251.145987 253.157918) scale(0.1 -0.1)">
       <defs>
        <path id="DejaVuSans-33" d="M 2597 2516 
Q 3050 2419 3304 2112 
Q 3559 1806 3559 1356 
Q 3559 666 3084 287 
Q 2609 -91 1734 -91 
Q 1441 -91 1130 -33 
Q 819 25 488 141 
L 488 750 
Q 750 597 1062 519 
Q 1375 441 1716 441 
Q 2309 441 2620 675 
Q 2931 909 2931 1356 
Q 2931 1769 2642 2001 
Q 2353 2234 1838 2234 
L 1294 2234 
L 1294 2753 
L 1863 2753 
Q 2328 2753 2575 2939 
Q 2822 3125 2822 3475 
Q 2822 3834 2567 4026 
Q 2313 4219 1838 4219 
Q 1578 4219 1281 4162 
Q 984 4106 628 3988 
L 628 4550 
Q 988 4650 1302 4700 
Q 1616 4750 1894 4750 
Q 2613 4750 3031 4423 
Q 3450 4097 3450 3541 
Q 3450 3153 3228 2886 
Q 3006 2619 2597 2516 
z
" transform="scale(0.015625)"/>
       </defs>
       <use xlink:href="#DejaVuSans-33"/>
       <use xlink:href="#DejaVuSans-30" transform="translate(63.623047 0)"/>
      </g>
     </g>
    </g>
    <g id="xtick_6">
     <g id="line2d_6">
      <g>
       <use xlink:href="#maa67eb270a" x="308.245608" y="238.559481" style="stroke: #000000; stroke-width: 0.8"/>
      </g>
     </g>
     <g id="text_6">
      <!-- 40 -->
      <g transform="translate(301.883108 253.157918) scale(0.1 -0.1)">
       <defs>
        <path id="DejaVuSans-34" d="M 2419 4116 
L 825 1625 
L 2419 1625 
L 2419 4116 
z
M 2253 4666 
L 3047 4666 
L 3047 1625 
L 3713 1625 
L 3713 1100 
L 3047 1100 
L 3047 0 
L 2419 0 
L 2419 1100 
L 313 1100 
L 313 1709 
L 2253 4666 
z
" transform="scale(0.015625)"/>
       </defs>
       <use xlink:href="#DejaVuSans-34"/>
       <use xlink:href="#DejaVuSans-30" transform="translate(63.623047 0)"/>
      </g>
     </g>
    </g>
    <g id="xtick_7">
     <g id="line2d_7">
      <g>
       <use xlink:href="#maa67eb270a" x="358.98273" y="238.559481" style="stroke: #000000; stroke-width: 0.8"/>
      </g>
     </g>
     <g id="text_7">
      <!-- 50 -->
      <g transform="translate(352.62023 253.157918) scale(0.1 -0.1)">
       <defs>
        <path id="DejaVuSans-35" d="M 691 4666 
L 3169 4666 
L 3169 4134 
L 1269 4134 
L 1269 2991 
Q 1406 3038 1543 3061 
Q 1681 3084 1819 3084 
Q 2600 3084 3056 2656 
Q 3513 2228 3513 1497 
Q 3513 744 3044 326 
Q 2575 -91 1722 -91 
Q 1428 -91 1123 -41 
Q 819 9 494 109 
L 494 744 
Q 775 591 1075 516 
Q 1375 441 1709 441 
Q 2250 441 2565 725 
Q 2881 1009 2881 1497 
Q 2881 1984 2565 2268 
Q 2250 2553 1709 2553 
Q 1456 2553 1204 2497 
Q 953 2441 691 2322 
L 691 4666 
z
" transform="scale(0.015625)"/>
       </defs>
       <use xlink:href="#DejaVuSans-35"/>
       <use xlink:href="#DejaVuSans-30" transform="translate(63.623047 0)"/>
      </g>
     </g>
    </g>
    <g id="text_8">
     <!-- Bits -->
     <g transform="translate(197.38699 266.836043) scale(0.1 -0.1)">
      <defs>
       <path id="DejaVuSans-42" d="M 1259 2228 
L 1259 519 
L 2272 519 
Q 2781 519 3026 730 
Q 3272 941 3272 1375 
Q 3272 1813 3026 2020 
Q 2781 2228 2272 2228 
L 1259 2228 
z
M 1259 4147 
L 1259 2741 
L 2194 2741 
Q 2656 2741 2882 2914 
Q 3109 3088 3109 3444 
Q 3109 3797 2882 3972 
Q 2656 4147 2194 4147 
L 1259 4147 
z
M 628 4666 
L 2241 4666 
Q 2963 4666 3353 4366 
Q 3744 4066 3744 3513 
Q 3744 3084 3544 2831 
Q 3344 2578 2956 2516 
Q 3422 2416 3680 2098 
Q 3938 1781 3938 1306 
Q 3938 681 3513 340 
Q 3088 0 2303 0 
L 628 0 
L 628 4666 
z
" transform="scale(0.015625)"/>
       <path id="DejaVuSans-69" d="M 603 3500 
L 1178 3500 
L 1178 0 
L 603 0 
L 603 3500 
z
M 603 4863 
L 1178 4863 
L 1178 4134 
L 603 4134 
L 603 4863 
z
" transform="scale(0.015625)"/>
       <path id="DejaVuSans-74" d="M 1172 4494 
L 1172 3500 
L 2356 3500 
L 2356 3053 
L 1172 3053 
L 1172 1153 
Q 1172 725 1289 603 
Q 1406 481 1766 481 
L 2356 481 
L 2356 0 
L 1766 0 
Q 1100 0 847 248 
Q 594 497 594 1153 
L 594 3053 
L 172 3053 
L 172 3500 
L 594 3500 
L 594 4494 
L 1172 4494 
z
" transform="scale(0.015625)"/>
       <path id="DejaVuSans-73" d="M 2834 3397 
L 2834 2853 
Q 2591 2978 2328 3040 
Q 2066 3103 1784 3103 
Q 1356 3103 1142 2972 
Q 928 2841 928 2578 
Q 928 2378 1081 2264 
Q 1234 2150 1697 2047 
L 1894 2003 
Q 2506 1872 2764 1633 
Q 3022 1394 3022 966 
Q 3022 478 2636 193 
Q 2250 -91 1575 -91 
Q 1294 -91 989 -36 
Q 684 19 347 128 
L 347 722 
Q 666 556 975 473 
Q 1284 391 1588 391 
Q 1994 391 2212 530 
Q 2431 669 2431 922 
Q 2431 1156 2273 1281 
Q 2116 1406 1581 1522 
L 1381 1569 
Q 847 1681 609 1914 
Q 372 2147 372 2553 
Q 372 3047 722 3315 
Q 1072 3584 1716 3584 
Q 2034 3584 2315 3537 
Q 2597 3491 2834 3397 
z
" transform="scale(0.015625)"/>
      </defs>
      <use xlink:href="#DejaVuSans-42"/>
      <use xlink:href="#DejaVuSans-69" transform="translate(68.603516 0)"/>
      <use xlink:href="#DejaVuSans-74" transform="translate(96.386719 0)"/>
      <use xlink:href="#DejaVuSans-73" transform="translate(135.595703 0)"/>
     </g>
    </g>
   </g>
   <g id="matplotlib.axis_2">
    <g id="ytick_1">
     <g id="line2d_8">
      <defs>
       <path id="m314cd65414" d="M 0 0 
L -3.5 0 
" style="stroke: #000000; stroke-width: 0.8"/>
      </defs>
      <g>
       <use xlink:href="#m314cd65414" x="54.56" y="229.893425" style="stroke: #000000; stroke-width: 0.8"/>
      </g>
     </g>
     <g id="text_9">
      <!-- 0.00 -->
      <g transform="translate(25.294375 233.692643) scale(0.1 -0.1)">
       <defs>
        <path id="DejaVuSans-2e" d="M 684 794 
L 1344 794 
L 1344 0 
L 684 0 
L 684 794 
z
" transform="scale(0.015625)"/>
       </defs>
       <use xlink:href="#DejaVuSans-30"/>
       <use xlink:href="#DejaVuSans-2e" transform="translate(63.623047 0)"/>
       <use xlink:href="#DejaVuSans-30" transform="translate(95.410156 0)"/>
       <use xlink:href="#DejaVuSans-30" transform="translate(159.033203 0)"/>
      </g>
     </g>
    </g>
    <g id="ytick_2">
     <g id="line2d_9">
      <g>
       <use xlink:href="#m314cd65414" x="54.56" y="189.340986" style="stroke: #000000; stroke-width: 0.8"/>
      </g>
     </g>
     <g id="text_10">
      <!-- 0.05 -->
      <g transform="translate(25.294375 193.140205) scale(0.1 -0.1)">
       <use xlink:href="#DejaVuSans-30"/>
       <use xlink:href="#DejaVuSans-2e" transform="translate(63.623047 0)"/>
       <use xlink:href="#DejaVuSans-30" transform="translate(95.410156 0)"/>
       <use xlink:href="#DejaVuSans-35" transform="translate(159.033203 0)"/>
      </g>
     </g>
    </g>
    <g id="ytick_3">
     <g id="line2d_10">
      <g>
       <use xlink:href="#m314cd65414" x="54.56" y="148.788548" style="stroke: #000000; stroke-width: 0.8"/>
      </g>
     </g>
     <g id="text_11">
      <!-- 0.10 -->
      <g transform="translate(25.294375 152.587767) scale(0.1 -0.1)">
       <use xlink:href="#DejaVuSans-30"/>
       <use xlink:href="#DejaVuSans-2e" transform="translate(63.623047 0)"/>
       <use xlink:href="#DejaVuSans-31" transform="translate(95.410156 0)"/>
       <use xlink:href="#DejaVuSans-30" transform="translate(159.033203 0)"/>
      </g>
     </g>
    </g>
    <g id="ytick_4">
     <g id="line2d_11">
      <g>
       <use xlink:href="#m314cd65414" x="54.56" y="108.23611" style="stroke: #000000; stroke-width: 0.8"/>
      </g>
     </g>
     <g id="text_12">
      <!-- 0.15 -->
      <g transform="translate(25.294375 112.035328) scale(0.1 -0.1)">
       <use xlink:href="#DejaVuSans-30"/>
       <use xlink:href="#DejaVuSans-2e" transform="translate(63.623047 0)"/>
       <use xlink:href="#DejaVuSans-31" transform="translate(95.410156 0)"/>
       <use xlink:href="#DejaVuSans-35" transform="translate(159.033203 0)"/>
      </g>
     </g>
    </g>
    <g id="ytick_5">
     <g id="line2d_12">
      <g>
       <use xlink:href="#m314cd65414" x="54.56" y="67.683671" style="stroke: #000000; stroke-width: 0.8"/>
      </g>
     </g>
     <g id="text_13">
      <!-- 0.20 -->
      <g transform="translate(25.294375 71.48289) scale(0.1 -0.1)">
       <use xlink:href="#DejaVuSans-30"/>
       <use xlink:href="#DejaVuSans-2e" transform="translate(63.623047 0)"/>
       <use xlink:href="#DejaVuSans-32" transform="translate(95.410156 0)"/>
       <use xlink:href="#DejaVuSans-30" transform="translate(159.033203 0)"/>
      </g>
     </g>
    </g>
    <g id="text_14">
     <!-- P(score|F) -->
     <g transform="translate(18.936563 168.14224) rotate(-90) scale(0.1 -0.1)">
      <defs>
       <path id="DejaVuSans-50" d="M 1259 4147 
L 1259 2394 
L 2053 2394 
Q 2494 2394 2734 2622 
Q 2975 2850 2975 3272 
Q 2975 3691 2734 3919 
Q 2494 4147 2053 4147 
L 1259 4147 
z
M 628 4666 
L 2053 4666 
Q 2838 4666 3239 4311 
Q 3641 3956 3641 3272 
Q 3641 2581 3239 2228 
Q 2838 1875 2053 1875 
L 1259 1875 
L 1259 0 
L 628 0 
L 628 4666 
z
" transform="scale(0.015625)"/>
       <path id="DejaVuSans-28" d="M 1984 4856 
Q 1566 4138 1362 3434 
Q 1159 2731 1159 2009 
Q 1159 1288 1364 580 
Q 1569 -128 1984 -844 
L 1484 -844 
Q 1016 -109 783 600 
Q 550 1309 550 2009 
Q 550 2706 781 3412 
Q 1013 4119 1484 4856 
L 1984 4856 
z
" transform="scale(0.015625)"/>
       <path id="DejaVuSans-63" d="M 3122 3366 
L 3122 2828 
Q 2878 2963 2633 3030 
Q 2388 3097 2138 3097 
Q 1578 3097 1268 2742 
Q 959 2388 959 1747 
Q 959 1106 1268 751 
Q 1578 397 2138 397 
Q 2388 397 2633 464 
Q 2878 531 3122 666 
L 3122 134 
Q 2881 22 2623 -34 
Q 2366 -91 2075 -91 
Q 1284 -91 818 406 
Q 353 903 353 1747 
Q 353 2603 823 3093 
Q 1294 3584 2113 3584 
Q 2378 3584 2631 3529 
Q 2884 3475 3122 3366 
z
" transform="scale(0.015625)"/>
       <path id="DejaVuSans-6f" d="M 1959 3097 
Q 1497 3097 1228 2736 
Q 959 2375 959 1747 
Q 959 1119 1226 758 
Q 1494 397 1959 397 
Q 2419 397 2687 759 
Q 2956 1122 2956 1747 
Q 2956 2369 2687 2733 
Q 2419 3097 1959 3097 
z
M 1959 3584 
Q 2709 3584 3137 3096 
Q 3566 2609 3566 1747 
Q 3566 888 3137 398 
Q 2709 -91 1959 -91 
Q 1206 -91 779 398 
Q 353 888 353 1747 
Q 353 2609 779 3096 
Q 1206 3584 1959 3584 
z
" transform="scale(0.015625)"/>
       <path id="DejaVuSans-72" d="M 2631 2963 
Q 2534 3019 2420 3045 
Q 2306 3072 2169 3072 
Q 1681 3072 1420 2755 
Q 1159 2438 1159 1844 
L 1159 0 
L 581 0 
L 581 3500 
L 1159 3500 
L 1159 2956 
Q 1341 3275 1631 3429 
Q 1922 3584 2338 3584 
Q 2397 3584 2469 3576 
Q 2541 3569 2628 3553 
L 2631 2963 
z
" transform="scale(0.015625)"/>
       <path id="DejaVuSans-65" d="M 3597 1894 
L 3597 1613 
L 953 1613 
Q 991 1019 1311 708 
Q 1631 397 2203 397 
Q 2534 397 2845 478 
Q 3156 559 3463 722 
L 3463 178 
Q 3153 47 2828 -22 
Q 2503 -91 2169 -91 
Q 1331 -91 842 396 
Q 353 884 353 1716 
Q 353 2575 817 3079 
Q 1281 3584 2069 3584 
Q 2775 3584 3186 3129 
Q 3597 2675 3597 1894 
z
M 3022 2063 
Q 3016 2534 2758 2815 
Q 2500 3097 2075 3097 
Q 1594 3097 1305 2825 
Q 1016 2553 972 2059 
L 3022 2063 
z
" transform="scale(0.015625)"/>
       <path id="DejaVuSans-7c" d="M 1344 4891 
L 1344 -1509 
L 813 -1509 
L 813 4891 
L 1344 4891 
z
" transform="scale(0.015625)"/>
       <path id="DejaVuSans-46" d="M 628 4666 
L 3309 4666 
L 3309 4134 
L 1259 4134 
L 1259 2759 
L 3109 2759 
L 3109 2228 
L 1259 2228 
L 1259 0 
L 628 0 
L 628 4666 
z
" transform="scale(0.015625)"/>
       <path id="DejaVuSans-29" d="M 513 4856 
L 1013 4856 
Q 1481 4119 1714 3412 
Q 1947 2706 1947 2009 
Q 1947 1309 1714 600 
Q 1481 -109 1013 -844 
L 513 -844 
Q 928 -128 1133 580 
Q 1338 1288 1338 2009 
Q 1338 2731 1133 3434 
Q 928 4138 513 4856 
z
" transform="scale(0.015625)"/>
      </defs>
      <use xlink:href="#DejaVuSans-50"/>
      <use xlink:href="#DejaVuSans-28" transform="translate(60.302734 0)"/>
      <use xlink:href="#DejaVuSans-73" transform="translate(99.316406 0)"/>
      <use xlink:href="#DejaVuSans-63" transform="translate(151.416016 0)"/>
      <use xlink:href="#DejaVuSans-6f" transform="translate(206.396484 0)"/>
      <use xlink:href="#DejaVuSans-72" transform="translate(267.578125 0)"/>
      <use xlink:href="#DejaVuSans-65" transform="translate(306.441406 0)"/>
      <use xlink:href="#DejaVuSans-7c" transform="translate(367.964844 0)"/>
      <use xlink:href="#DejaVuSans-46" transform="translate(401.65625 0)"/>
      <use xlink:href="#DejaVuSans-29" transform="translate(459.175781 0)"/>
     </g>
    </g>
   </g>
   <g id="line2d_13">
    <path d="M -1 229.893425 
L 0.727914 229.893425 
L 15.340205 229.893425 
L 29.952496 229.893425 
L 44.564787 229.893425 
L 59.172004 229.893425 
L 73.779222 229.893425 
L 88.386439 229.893425 
L 102.99112 229.893425 
L 117.5958 229.887407 
L 132.203017 225.545392 
L 146.810235 185.877809 
L 161.412378 130.783267 
L 176.024669 107.587267 
L 190.63696 119.104161 
L 205.249251 168.96744 
L 219.861542 156.469179 
L 234.423096 174.190593 
L 249.035387 186.680747 
L 263.647678 196.194349 
L 278.25997 203.047709 
L 292.872261 207.954556 
L 307.484552 217.557373 
L 322.096843 214.069864 
L 336.709134 216.786876 
L 351.270688 219.106476 
L 365.882979 220.704242 
L 380.49527 222.51207 
L 395.107561 223.382325 
L 409.719852 226.282636 
L 424.332143 225.186908 
L 438.944434 225.939562 
L 453.556725 226.458633 
L 468.169016 226.967161 
L 482.73057 227.497587 
L 497.342861 228.500043 
L 511.955152 228.074242 
L 526.567443 228.290792 
L 541.179734 228.513831 
L 555.792025 228.694695 
L 570.404316 228.836628 
L 585.016607 228.982617 
L 599.578161 229.405984 
L 614.190452 229.147179 
L 628.904218 229.237448 
L 643.617983 229.294384 
L 657.824377 229.325853 
L 672.538142 229.387006 
L 687.251908 229.467948 
L 701.965673 229.60315 
L 716.679438 229.507365 
L 730.885832 229.523505 
L 744.225806 229.552918 
" clip-path="url(#p5b38bbb4ed)" style="fill: none; stroke-dasharray: 9.6,2.4,1.5,2.4; stroke-dashoffset: 0; stroke: #000000; stroke-width: 1.5"/>
   </g>
   <g id="line2d_14">
    <path d="M -1 229.893425 
L 0.727914 229.893425 
L 15.340205 229.893425 
L 29.952496 229.893425 
L 44.564787 229.893425 
L 59.172004 229.893425 
L 73.779222 229.893425 
L 88.386439 229.893425 
L 102.99112 229.893425 
L 117.5958 229.887407 
L 132.203017 225.545392 
L 146.810235 185.877809 
L 161.412378 130.783267 
L 176.024669 107.587267 
L 190.63696 119.104161 
L 205.249251 168.96744 
L 219.861542 156.469179 
L 234.423096 174.190593 
L 249.035387 186.680747 
L 263.647678 196.194349 
L 278.25997 203.047709 
L 292.872261 207.954556 
L 307.484552 217.557373 
L 322.096843 214.069864 
L 336.709134 216.786876 
L 351.270688 219.106476 
L 365.882979 220.704242 
L 380.49527 222.51207 
L 395.107561 223.382325 
L 409.719852 226.282636 
L 424.332143 225.186908 
L 438.944434 225.939562 
L 453.556725 226.458633 
L 468.169016 226.967161 
L 482.73057 227.497587 
L 497.342861 228.500043 
L 511.955152 228.074242 
L 526.567443 228.290792 
L 541.179734 228.513831 
L 555.792025 228.694695 
L 570.404316 228.836628 
L 585.016607 228.982617 
L 599.578161 229.405984 
L 614.190452 229.147179 
L 628.904218 229.237448 
L 643.617983 229.294384 
L 657.824377 229.325853 
L 672.538142 229.387006 
L 687.251908 229.467948 
L 701.965673 229.60315 
L 716.679438 229.507365 
L 730.885832 229.523505 
L 744.225806 229.552918 
" clip-path="url(#p5b38bbb4ed)" style="fill: none; stroke-dasharray: 9.6,2.4,1.5,2.4; stroke-dashoffset: 0; stroke: #008000; stroke-width: 1.5"/>
   </g>
   <g id="line2d_15">
    <path d="M -1 229.893425 
L 0.727914 229.893425 
L 15.340205 229.893425 
L 29.952496 229.893425 
L 44.564787 229.893425 
L 59.172004 229.893425 
L 73.779222 229.893425 
L 88.386439 229.893425 
L 102.99112 229.89317 
L 117.5958 229.680849 
L 132.203017 200.330698 
L 146.810235 107.506161 
L 161.412378 70.684552 
L 176.024669 97.77358 
L 190.63696 135.568452 
L 205.249251 183.363557 
L 219.861542 177.459122 
L 234.423096 191.960675 
L 249.035387 201.685149 
L 263.647678 208.514179 
L 278.25997 213.453467 
L 292.872261 216.957197 
L 307.484552 222.838923 
L 322.096843 221.109766 
L 336.709134 222.831623 
L 351.270688 224.255014 
L 365.882979 225.285856 
L 380.49527 226.178821 
L 395.107561 226.739256 
L 409.719852 228.169135 
L 424.332143 227.638709 
L 438.944434 228.046666 
L 453.556725 228.297281 
L 468.169016 228.587636 
L 482.73057 228.810674 
L 497.342861 229.27865 
L 511.955152 229.108897 
L 526.567443 229.192516 
L 541.179734 229.297223 
L 555.792025 229.379057 
L 570.404316 229.437453 
L 585.016607 229.496092 
L 599.578161 229.678578 
L 614.190452 229.584983 
L 628.904218 229.614343 
L 643.617983 229.652786 
L 657.824377 229.65895 
L 672.538142 229.688229 
L 687.251908 229.71321 
L 701.965673 229.774687 
L 716.679438 229.745327 
L 730.885832 229.754492 
L 744.225806 229.769566 
" clip-path="url(#p5b38bbb4ed)" style="fill: none; stroke: #d2691e; stroke-width: 1.5; stroke-linecap: square"/>
   </g>
   <g id="line2d_16">
    <path d="M -1 229.893425 
L 0.727914 229.893425 
L 15.340205 229.893425 
L 29.952496 229.893425 
L 44.564787 229.893425 
L 59.172004 229.893425 
L 73.779222 229.893425 
L 88.386439 229.893425 
L 102.99112 229.89317 
L 117.5958 229.680849 
L 132.203017 200.330698 
L 146.810235 107.506161 
L 161.412378 70.684552 
L 176.024669 97.77358 
L 190.63696 135.568452 
L 205.249251 183.363557 
L 219.861542 177.459122 
L 234.423096 191.960675 
L 249.035387 201.685149 
L 263.647678 208.514179 
L 278.25997 213.453467 
L 292.872261 216.957197 
L 307.484552 222.838923 
L 322.096843 221.109766 
L 336.709134 222.831623 
L 351.270688 224.255014 
L 365.882979 225.285856 
L 380.49527 226.178821 
L 395.107561 226.739256 
L 409.719852 228.169135 
L 424.332143 227.638709 
L 438.944434 228.046666 
L 453.556725 228.297281 
L 468.169016 228.587636 
L 482.73057 228.810674 
L 497.342861 229.27865 
L 511.955152 229.108897 
L 526.567443 229.192516 
L 541.179734 229.297223 
L 555.792025 229.379057 
L 570.404316 229.437453 
L 585.016607 229.496092 
L 599.578161 229.678578 
L 614.190452 229.584983 
L 628.904218 229.614343 
L 643.617983 229.652786 
L 657.824377 229.65895 
L 672.538142 229.688229 
L 687.251908 229.71321 
L 701.965673 229.774687 
L 716.679438 229.745327 
L 730.885832 229.754492 
L 744.225806 229.769566 
" clip-path="url(#p5b38bbb4ed)" style="fill: none; stroke: #000000; stroke-width: 1.5; stroke-linecap: square"/>
   </g>
   <g id="line2d_17">
    <path d="M -1 229.893425 
L 0.727914 229.893425 
L 15.340205 229.893425 
L 29.952496 229.893425 
L 44.564787 229.893425 
L 59.172004 229.893425 
L 73.779222 229.893425 
L 88.386439 229.893425 
L 102.99112 229.893012 
L 117.5958 229.585632 
L 132.203017 190.954974 
L 146.810235 84.634585 
L 161.412378 56.572306 
L 176.024669 95.097122 
L 190.63696 139.137066 
L 205.249251 187.021387 
L 219.861542 183.590651 
L 234.423096 197.686678 
L 249.035387 206.746093 
L 263.647678 212.812738 
L 278.25997 216.900423 
L 292.872261 219.755315 
L 307.484552 224.319897 
L 322.096843 223.021409 
L 336.709134 224.305299 
L 351.270688 225.448066 
L 365.882979 226.304534 
L 380.49527 226.944451 
L 395.107561 227.35322 
L 409.719852 228.52113 
L 424.332143 228.11155 
L 438.944434 228.4749 
L 453.556725 228.654142 
L 468.169016 228.912056 
L 482.73057 229.097705 
L 497.342861 229.449619 
L 511.955152 229.335018 
L 526.567443 229.405498 
L 541.179734 229.492848 
L 555.792025 229.569086 
L 570.404316 229.619777 
L 585.016607 229.669251 
L 599.578161 229.780527 
L 614.190452 229.7257 
L 628.904218 229.767306 
L 643.617983 229.790827 
L 657.824377 229.798207 
L 672.538142 229.811833 
L 687.251908 229.825021 
L 701.965673 229.855516 
L 716.679438 229.845208 
L 730.885832 229.851388 
L 744.225806 229.858116 
" clip-path="url(#p5b38bbb4ed)" style="fill: none; stroke: #00ffff; stroke-width: 1.5; stroke-linecap: square"/>
   </g>
   <g id="line2d_18">
    <path d="M -1 229.893425 
L 0.727914 229.893425 
L 15.340205 229.893425 
L 29.952496 229.893425 
L 44.564787 229.893425 
L 59.172004 229.893425 
L 73.779222 229.893425 
L 88.386439 229.893425 
L 102.99112 229.893425 
L 117.5958 229.659843 
L 132.203017 200.938983 
L 146.810235 109.858206 
L 161.412378 71.738921 
L 176.024669 98.503524 
L 190.63696 135.00072 
L 205.249251 182.933701 
L 219.861542 176.688625 
L 234.423096 191.287502 
L 249.035387 201.263402 
L 263.647678 208.076212 
L 278.25997 213.266924 
L 292.872261 216.835539 
L 307.484552 222.764306 
L 322.096843 220.971888 
L 336.709134 222.748085 
L 351.270688 224.143089 
L 365.882979 225.1569 
L 380.49527 226.089606 
L 395.107561 226.697892 
L 409.719852 228.141559 
L 424.332143 227.614378 
L 438.944434 227.98746 
L 453.556725 228.246996 
L 468.169016 228.620078 
L 482.73057 228.774177 
L 497.342861 229.265673 
L 511.955152 229.066155 
L 526.567443 229.168347 
L 541.179734 229.311092 
L 555.792025 229.360566 
L 570.404316 229.420583 
L 585.016607 229.500877 
L 599.578161 229.667142 
L 614.190452 229.57306 
L 628.904218 229.593337 
L 643.617983 229.633889 
L 657.824377 229.661465 
L 672.538142 229.685796 
L 687.251908 229.719049 
L 701.965673 229.769334 
L 716.679438 229.757168 
L 730.885832 229.767712 
L 744.225806 229.775065 
" clip-path="url(#p5b38bbb4ed)" style="fill: none; stroke: #ff00ff; stroke-width: 1.5; stroke-linecap: square"/>
   </g>
   <g id="line2d_19">
    <path d="M -1 229.893425 
L 0.727914 229.893425 
L 15.340205 229.893425 
L 29.952496 229.893425 
L 44.564787 229.893425 
L 59.172004 229.893425 
L 73.779222 229.893425 
L 88.386439 229.893425 
L 102.99112 229.892419 
L 117.5958 229.638755 
L 132.203017 199.397991 
L 146.810235 106.614016 
L 161.412378 70.92787 
L 176.024669 98.503524 
L 190.63696 135.81177 
L 205.249251 183.906961 
L 219.861542 177.824095 
L 234.423096 192.260762 
L 249.035387 202.317765 
L 263.647678 208.887261 
L 278.25997 213.591345 
L 292.872261 216.997748 
L 307.484552 222.910295 
L 322.096843 221.134098 
L 336.709134 222.894074 
L 351.270688 224.183641 
L 365.882979 225.367772 
L 380.49527 226.057164 
L 395.107561 226.641119 
L 409.719852 227.995571 
L 424.332143 227.500831 
L 438.944434 227.890134 
L 453.556725 228.190222 
L 468.169016 228.465979 
L 482.73057 228.709293 
L 497.342861 229.234042 
L 511.955152 228.98505 
L 526.567443 229.074265 
L 541.179734 229.174024 
L 555.792025 229.323257 
L 570.404316 229.388952 
L 585.016607 229.432749 
L 599.578161 229.642811 
L 614.190452 229.553595 
L 628.904218 229.562517 
L 643.617983 229.624156 
L 657.824377 229.624967 
L 672.538142 229.644433 
L 687.251908 229.659843 
L 701.965673 229.745003 
L 716.679438 229.75068 
L 730.885832 229.709317 
L 744.225806 229.748289 
" clip-path="url(#p5b38bbb4ed)" style="fill: none; stroke-dasharray: 5.55,2.4; stroke-dashoffset: 0; stroke: #ff00ff; stroke-width: 1.5"/>
   </g>
   <g id="line2d_20">
    <path d="M -1 229.893425 
L 0.727914 229.893425 
L 15.340205 229.893425 
L 29.952496 229.893425 
L 44.564787 229.893425 
L 59.172004 229.893425 
L 73.779222 229.893425 
L 88.386439 229.893425 
L 102.99112 229.893425 
L 117.5958 229.65011 
L 132.203017 200.85788 
L 146.810235 107.425066 
L 161.412378 70.11682 
L 176.024669 98.503524 
L 190.63696 137.433865 
L 205.249251 183.420329 
L 219.861542 177.824095 
L 234.423096 191.936343 
L 249.035387 201.506718 
L 263.647678 208.319528 
L 278.25997 213.429134 
L 292.872261 216.835539 
L 307.484552 222.602096 
L 322.096843 220.566364 
L 336.709134 222.739974 
L 351.270688 224.070094 
L 365.882979 225.075795 
L 380.49527 226.308589 
L 395.107561 226.770887 
L 409.719852 228.109117 
L 424.332143 227.525162 
L 438.944434 227.946907 
L 453.556725 228.165891 
L 468.169016 228.555194 
L 482.73057 228.766067 
L 497.342861 229.284327 
L 511.955152 229.122928 
L 526.567443 229.126984 
L 541.179734 229.277028 
L 555.792025 229.365432 
L 570.404316 229.417339 
L 585.016607 229.498444 
L 599.578161 229.677686 
L 614.190452 229.520342 
L 628.904218 229.566572 
L 643.617983 229.650921 
L 657.824377 229.625778 
L 672.538142 229.640377 
L 687.251908 229.654165 
L 701.965673 229.770145 
L 716.679438 229.748247 
L 730.885832 229.749869 
L 744.225806 229.752075 
" clip-path="url(#p5b38bbb4ed)" style="fill: none; stroke-dasharray: 1.5,2.475; stroke-dashoffset: 0; stroke: #ff00ff; stroke-width: 1.5"/>
   </g>
   <g id="line2d_21">
    <path d="M -1 229.893425 
L 0.727914 229.893425 
L 15.340205 229.893425 
L 29.952496 229.893425 
L 44.564787 229.893425 
L 59.172004 229.893425 
L 73.779222 229.893425 
L 88.386439 229.893425 
L 102.99112 229.892957 
L 117.5958 229.713372 
L 132.203017 201.912243 
L 146.810235 109.047155 
L 161.412378 71.738921 
L 176.024669 97.692474 
L 190.63696 135.81177 
L 205.249251 183.014807 
L 219.861542 177.175257 
L 234.423096 191.611921 
L 249.035387 201.344508 
L 263.647678 208.238423 
L 278.25997 213.104715 
L 292.872261 216.754434 
L 307.484552 222.699422 
L 322.096843 220.809679 
L 336.709134 222.553433 
L 351.270688 223.964658 
L 365.882979 224.978469 
L 380.49527 225.951727 
L 395.107561 226.584346 
L 409.719852 228.076675 
L 424.332143 227.476499 
L 438.944434 227.938797 
L 453.556725 228.255106 
L 468.169016 228.506531 
L 482.73057 228.749846 
L 497.342861 229.267295 
L 511.955152 229.118062 
L 526.567443 229.199978 
L 541.179734 229.328935 
L 555.792025 229.418961 
L 570.404316 229.467624 
L 585.016607 229.523586 
L 599.578161 229.705261 
L 614.190452 229.603069 
L 628.904218 229.659843 
L 643.617983 229.70445 
L 657.824377 229.702828 
L 672.538142 229.723104 
L 687.251908 229.745003 
L 701.965673 229.799343 
L 716.679438 229.764468 
L 730.885832 229.775823 
L 744.225806 229.789794 
" clip-path="url(#p5b38bbb4ed)" style="fill: none; stroke: #ffa500; stroke-width: 1.5; stroke-linecap: square"/>
   </g>
   <g id="line2d_22">
    <path d="M -1 229.893425 
L 0.727914 229.893425 
L 15.340205 229.893425 
L 29.952496 229.893425 
L 44.564787 229.893425 
L 59.172004 229.893425 
L 73.779222 229.893425 
L 88.386439 229.893425 
L 102.99112 229.893425 
L 117.5958 229.629023 
L 132.203017 195.180536 
L 146.810235 98.503524 
L 161.412378 65.25053 
L 176.024669 94.448284 
L 190.63696 132.567575 
L 205.249251 181.636022 
L 219.861542 176.526413 
L 234.423096 192.341866 
L 249.035387 202.642187 
L 263.647678 209.941626 
L 278.25997 215.375652 
L 292.872261 218.863161 
L 307.484552 224.256636 
L 322.096843 223.16983 
L 336.709134 224.65405 
L 351.270688 226.105827 
L 365.882979 227.030422 
L 380.49527 227.776587 
L 395.107561 228.198333 
L 409.719852 228.98505 
L 424.332143 228.790398 
L 438.944434 229.103463 
L 453.556725 229.206466 
L 468.169016 229.35651 
L 482.73057 229.46438 
L 497.342861 229.629834 
L 511.955152 229.586037 
L 526.567443 229.616857 
L 541.179734 229.659843 
L 555.792025 229.70445 
L 570.404316 229.7742 
L 585.016607 229.779067 
L 599.578161 229.842815 
L 614.190452 229.775823 
L 628.904218 229.823837 
L 643.617983 229.83657 
L 657.824377 229.820268 
L 672.538142 229.825378 
L 687.251908 229.83949 
L 701.965673 229.859198 
L 716.679438 229.842491 
L 730.885832 229.839571 
L 744.225806 229.852954 
" clip-path="url(#p5b38bbb4ed)" style="fill: none; stroke-dasharray: 5.55,2.4; stroke-dashoffset: 0; stroke: #ffa500; stroke-width: 1.5"/>
   </g>
   <g id="line2d_23">
    <path d="M -1 229.893425 
L 0.727914 229.893425 
L 15.340205 229.893425 
L 29.952496 229.893425 
L 44.564787 229.893425 
L 59.172004 229.893425 
L 73.779222 229.893425 
L 88.386439 229.893425 
L 102.99112 229.893425 
L 117.5958 229.684174 
L 132.203017 198.343628 
L 146.810235 101.747713 
L 161.412378 65.25053 
L 176.024669 96.070373 
L 190.63696 135.81177 
L 205.249251 184.718008 
L 219.861542 179.040664 
L 234.423096 193.477335 
L 249.035387 203.534341 
L 263.647678 209.373891 
L 278.25997 214.483499 
L 292.872261 217.565483 
L 307.484552 223.259046 
L 322.096843 221.458517 
L 336.709134 223.291488 
L 351.270688 224.65405 
L 365.882979 225.578645 
L 380.49527 226.357252 
L 395.107561 226.900655 
L 409.719852 228.31999 
L 424.332143 227.930687 
L 438.944434 228.31999 
L 453.556725 228.571415 
L 468.169016 228.806619 
L 482.73057 229.041823 
L 497.342861 229.427883 
L 511.955152 229.349211 
L 526.567443 229.435182 
L 541.179734 229.430316 
L 555.792025 229.550351 
L 570.404316 229.556028 
L 585.016607 229.604691 
L 599.578161 229.729593 
L 614.190452 229.642811 
L 628.904218 229.69634 
L 643.617983 229.744192 
L 657.824377 229.723915 
L 672.538142 229.74257 
L 687.251908 229.757979 
L 701.965673 229.822052 
L 716.679438 229.799343 
L 730.885832 229.797721 
L 744.225806 229.824781 
" clip-path="url(#p5b38bbb4ed)" style="fill: none; stroke-dasharray: 1.5,2.475; stroke-dashoffset: 0; stroke: #ffa500; stroke-width: 1.5"/>
   </g>
   <g id="patch_3">
    <path d="M 54.56 238.559481 
L 54.56 47.90625 
" style="fill: none; stroke: #000000; stroke-width: 0.8; stroke-linejoin: miter; stroke-linecap: square"/>
   </g>
   <g id="patch_4">
    <path d="M 358.98273 238.559481 
L 358.98273 47.90625 
" style="fill: none; stroke: #000000; stroke-width: 0.8; stroke-linejoin: miter; stroke-linecap: square"/>
   </g>
   <g id="patch_5">
    <path d="M 54.56 238.559481 
L 358.98273 238.559481 
" style="fill: none; stroke: #000000; stroke-width: 0.8; stroke-linejoin: miter; stroke-linecap: square"/>
   </g>
   <g id="patch_6">
    <path d="M 54.56 47.90625 
L 358.98273 47.90625 
" style="fill: none; stroke: #000000; stroke-width: 0.8; stroke-linejoin: miter; stroke-linecap: square"/>
   </g>
   <g id="text_15">
    <!-- Foldseek -->
    <g transform="translate(180.40699 41.90625) scale(0.12 -0.12)">
     <defs>
      <path id="DejaVuSans-6c" d="M 603 4863 
L 1178 4863 
L 1178 0 
L 603 0 
L 603 4863 
z
" transform="scale(0.015625)"/>
      <path id="DejaVuSans-64" d="M 2906 2969 
L 2906 4863 
L 3481 4863 
L 3481 0 
L 2906 0 
L 2906 525 
Q 2725 213 2448 61 
Q 2172 -91 1784 -91 
Q 1150 -91 751 415 
Q 353 922 353 1747 
Q 353 2572 751 3078 
Q 1150 3584 1784 3584 
Q 2172 3584 2448 3432 
Q 2725 3281 2906 2969 
z
M 947 1747 
Q 947 1113 1208 752 
Q 1469 391 1925 391 
Q 2381 391 2643 752 
Q 2906 1113 2906 1747 
Q 2906 2381 2643 2742 
Q 2381 3103 1925 3103 
Q 1469 3103 1208 2742 
Q 947 2381 947 1747 
z
" transform="scale(0.015625)"/>
      <path id="DejaVuSans-6b" d="M 581 4863 
L 1159 4863 
L 1159 1991 
L 2875 3500 
L 3609 3500 
L 1753 1863 
L 3688 0 
L 2938 0 
L 1159 1709 
L 1159 0 
L 581 0 
L 581 4863 
z
" transform="scale(0.015625)"/>
     </defs>
     <use xlink:href="#DejaVuSans-46"/>
     <use xlink:href="#DejaVuSans-6f" transform="translate(53.894531 0)"/>
     <use xlink:href="#DejaVuSans-6c" transform="translate(115.076172 0)"/>
     <use xlink:href="#DejaVuSans-64" transform="translate(142.859375 0)"/>
     <use xlink:href="#DejaVuSans-73" transform="translate(206.335938 0)"/>
     <use xlink:href="#DejaVuSans-65" transform="translate(258.435547 0)"/>
     <use xlink:href="#DejaVuSans-65" transform="translate(319.958984 0)"/>
     <use xlink:href="#DejaVuSans-6b" transform="translate(381.482422 0)"/>
    </g>
   </g>
   <g id="legend_1">
    <g id="patch_7">
     <path d="M 61.56 217.365625 
L 155.349063 217.365625 
Q 157.349063 217.365625 157.349063 215.365625 
L 157.349063 54.90625 
Q 157.349063 52.90625 155.349063 52.90625 
L 61.56 52.90625 
Q 59.56 52.90625 59.56 54.90625 
L 59.56 215.365625 
Q 59.56 217.365625 61.56 217.365625 
z
" style="fill: #ffffff; opacity: 0.8; stroke: #cccccc; stroke-linejoin: miter"/>
    </g>
    <g id="line2d_24">
     <path d="M 63.56 61.004687 
L 73.56 61.004687 
L 83.56 61.004687 
" style="fill: none; stroke-dasharray: 9.6,2.4,1.5,2.4; stroke-dashoffset: 0; stroke: #000000; stroke-width: 1.5"/>
    </g>
    <g id="text_16">
     <!-- SCOP40x8 -->
     <g transform="translate(91.56 64.504687) scale(0.1 -0.1)">
      <defs>
       <path id="DejaVuSans-53" d="M 3425 4513 
L 3425 3897 
Q 3066 4069 2747 4153 
Q 2428 4238 2131 4238 
Q 1616 4238 1336 4038 
Q 1056 3838 1056 3469 
Q 1056 3159 1242 3001 
Q 1428 2844 1947 2747 
L 2328 2669 
Q 3034 2534 3370 2195 
Q 3706 1856 3706 1288 
Q 3706 609 3251 259 
Q 2797 -91 1919 -91 
Q 1588 -91 1214 -16 
Q 841 59 441 206 
L 441 856 
Q 825 641 1194 531 
Q 1563 422 1919 422 
Q 2459 422 2753 634 
Q 3047 847 3047 1241 
Q 3047 1584 2836 1778 
Q 2625 1972 2144 2069 
L 1759 2144 
Q 1053 2284 737 2584 
Q 422 2884 422 3419 
Q 422 4038 858 4394 
Q 1294 4750 2059 4750 
Q 2388 4750 2728 4690 
Q 3069 4631 3425 4513 
z
" transform="scale(0.015625)"/>
       <path id="DejaVuSans-43" d="M 4122 4306 
L 4122 3641 
Q 3803 3938 3442 4084 
Q 3081 4231 2675 4231 
Q 1875 4231 1450 3742 
Q 1025 3253 1025 2328 
Q 1025 1406 1450 917 
Q 1875 428 2675 428 
Q 3081 428 3442 575 
Q 3803 722 4122 1019 
L 4122 359 
Q 3791 134 3420 21 
Q 3050 -91 2638 -91 
Q 1578 -91 968 557 
Q 359 1206 359 2328 
Q 359 3453 968 4101 
Q 1578 4750 2638 4750 
Q 3056 4750 3426 4639 
Q 3797 4528 4122 4306 
z
" transform="scale(0.015625)"/>
       <path id="DejaVuSans-4f" d="M 2522 4238 
Q 1834 4238 1429 3725 
Q 1025 3213 1025 2328 
Q 1025 1447 1429 934 
Q 1834 422 2522 422 
Q 3209 422 3611 934 
Q 4013 1447 4013 2328 
Q 4013 3213 3611 3725 
Q 3209 4238 2522 4238 
z
M 2522 4750 
Q 3503 4750 4090 4092 
Q 4678 3434 4678 2328 
Q 4678 1225 4090 567 
Q 3503 -91 2522 -91 
Q 1538 -91 948 565 
Q 359 1222 359 2328 
Q 359 3434 948 4092 
Q 1538 4750 2522 4750 
z
" transform="scale(0.015625)"/>
       <path id="DejaVuSans-78" d="M 3513 3500 
L 2247 1797 
L 3578 0 
L 2900 0 
L 1881 1375 
L 863 0 
L 184 0 
L 1544 1831 
L 300 3500 
L 978 3500 
L 1906 2253 
L 2834 3500 
L 3513 3500 
z
" transform="scale(0.015625)"/>
       <path id="DejaVuSans-38" d="M 2034 2216 
Q 1584 2216 1326 1975 
Q 1069 1734 1069 1313 
Q 1069 891 1326 650 
Q 1584 409 2034 409 
Q 2484 409 2743 651 
Q 3003 894 3003 1313 
Q 3003 1734 2745 1975 
Q 2488 2216 2034 2216 
z
M 1403 2484 
Q 997 2584 770 2862 
Q 544 3141 544 3541 
Q 544 4100 942 4425 
Q 1341 4750 2034 4750 
Q 2731 4750 3128 4425 
Q 3525 4100 3525 3541 
Q 3525 3141 3298 2862 
Q 3072 2584 2669 2484 
Q 3125 2378 3379 2068 
Q 3634 1759 3634 1313 
Q 3634 634 3220 271 
Q 2806 -91 2034 -91 
Q 1263 -91 848 271 
Q 434 634 434 1313 
Q 434 1759 690 2068 
Q 947 2378 1403 2484 
z
M 1172 3481 
Q 1172 3119 1398 2916 
Q 1625 2713 2034 2713 
Q 2441 2713 2670 2916 
Q 2900 3119 2900 3481 
Q 2900 3844 2670 4047 
Q 2441 4250 2034 4250 
Q 1625 4250 1398 4047 
Q 1172 3844 1172 3481 
z
" transform="scale(0.015625)"/>
      </defs>
      <use xlink:href="#DejaVuSans-53"/>
      <use xlink:href="#DejaVuSans-43" transform="translate(63.476562 0)"/>
      <use xlink:href="#DejaVuSans-4f" transform="translate(133.300781 0)"/>
      <use xlink:href="#DejaVuSans-50" transform="translate(212.011719 0)"/>
      <use xlink:href="#DejaVuSans-34" transform="translate(272.314453 0)"/>
      <use xlink:href="#DejaVuSans-30" transform="translate(335.9375 0)"/>
      <use xlink:href="#DejaVuSans-78" transform="translate(399.560547 0)"/>
      <use xlink:href="#DejaVuSans-38" transform="translate(458.740234 0)"/>
     </g>
    </g>
    <g id="line2d_25">
     <path d="M 63.56 75.682813 
L 73.56 75.682813 
L 83.56 75.682813 
" style="fill: none; stroke-dasharray: 9.6,2.4,1.5,2.4; stroke-dashoffset: 0; stroke: #008000; stroke-width: 1.5"/>
    </g>
    <g id="text_17">
     <!-- SCOP40x4 -->
     <g transform="translate(91.56 79.182813) scale(0.1 -0.1)">
      <use xlink:href="#DejaVuSans-53"/>
      <use xlink:href="#DejaVuSans-43" transform="translate(63.476562 0)"/>
      <use xlink:href="#DejaVuSans-4f" transform="translate(133.300781 0)"/>
      <use xlink:href="#DejaVuSans-50" transform="translate(212.011719 0)"/>
      <use xlink:href="#DejaVuSans-34" transform="translate(272.314453 0)"/>
      <use xlink:href="#DejaVuSans-30" transform="translate(335.9375 0)"/>
      <use xlink:href="#DejaVuSans-78" transform="translate(399.560547 0)"/>
      <use xlink:href="#DejaVuSans-34" transform="translate(458.740234 0)"/>
     </g>
    </g>
    <g id="line2d_26">
     <path d="M 63.56 90.360938 
L 73.56 90.360938 
L 83.56 90.360938 
" style="fill: none; stroke: #d2691e; stroke-width: 1.5; stroke-linecap: square"/>
    </g>
    <g id="text_18">
     <!-- CATH40 -->
     <g transform="translate(91.56 93.860938) scale(0.1 -0.1)">
      <defs>
       <path id="DejaVuSans-41" d="M 2188 4044 
L 1331 1722 
L 3047 1722 
L 2188 4044 
z
M 1831 4666 
L 2547 4666 
L 4325 0 
L 3669 0 
L 3244 1197 
L 1141 1197 
L 716 0 
L 50 0 
L 1831 4666 
z
" transform="scale(0.015625)"/>
       <path id="DejaVuSans-54" d="M -19 4666 
L 3928 4666 
L 3928 4134 
L 2272 4134 
L 2272 0 
L 1638 0 
L 1638 4134 
L -19 4134 
L -19 4666 
z
" transform="scale(0.015625)"/>
       <path id="DejaVuSans-48" d="M 628 4666 
L 1259 4666 
L 1259 2753 
L 3553 2753 
L 3553 4666 
L 4184 4666 
L 4184 0 
L 3553 0 
L 3553 2222 
L 1259 2222 
L 1259 0 
L 628 0 
L 628 4666 
z
" transform="scale(0.015625)"/>
      </defs>
      <use xlink:href="#DejaVuSans-43"/>
      <use xlink:href="#DejaVuSans-41" transform="translate(69.824219 0)"/>
      <use xlink:href="#DejaVuSans-54" transform="translate(130.482422 0)"/>
      <use xlink:href="#DejaVuSans-48" transform="translate(191.566406 0)"/>
      <use xlink:href="#DejaVuSans-34" transform="translate(266.761719 0)"/>
      <use xlink:href="#DejaVuSans-30" transform="translate(330.384766 0)"/>
     </g>
    </g>
    <g id="line2d_27">
     <path d="M 63.56 105.039062 
L 73.56 105.039062 
L 83.56 105.039062 
" style="fill: none; stroke: #000000; stroke-width: 1.5; stroke-linecap: square"/>
    </g>
    <g id="text_19">
     <!-- SCOP40 -->
     <g transform="translate(91.56 108.539062) scale(0.1 -0.1)">
      <use xlink:href="#DejaVuSans-53"/>
      <use xlink:href="#DejaVuSans-43" transform="translate(63.476562 0)"/>
      <use xlink:href="#DejaVuSans-4f" transform="translate(133.300781 0)"/>
      <use xlink:href="#DejaVuSans-50" transform="translate(212.011719 0)"/>
      <use xlink:href="#DejaVuSans-34" transform="translate(272.314453 0)"/>
      <use xlink:href="#DejaVuSans-30" transform="translate(335.9375 0)"/>
     </g>
    </g>
    <g id="line2d_28">
     <path d="M 63.56 119.717188 
L 73.56 119.717188 
L 83.56 119.717188 
" style="fill: none; stroke: #00ffff; stroke-width: 1.5; stroke-linecap: square"/>
    </g>
    <g id="text_20">
     <!-- SCOP40c -->
     <g transform="translate(91.56 123.217188) scale(0.1 -0.1)">
      <use xlink:href="#DejaVuSans-53"/>
      <use xlink:href="#DejaVuSans-43" transform="translate(63.476562 0)"/>
      <use xlink:href="#DejaVuSans-4f" transform="translate(133.300781 0)"/>
      <use xlink:href="#DejaVuSans-50" transform="translate(212.011719 0)"/>
      <use xlink:href="#DejaVuSans-34" transform="translate(272.314453 0)"/>
      <use xlink:href="#DejaVuSans-30" transform="translate(335.9375 0)"/>
      <use xlink:href="#DejaVuSans-63" transform="translate(399.560547 0)"/>
     </g>
    </g>
    <g id="line2d_29">
     <path d="M 63.56 134.395312 
L 73.56 134.395312 
L 83.56 134.395312 
" style="fill: none; stroke: #ff00ff; stroke-width: 1.5; stroke-linecap: square"/>
    </g>
    <g id="text_21">
     <!-- SCOP40/N2 -->
     <g transform="translate(91.56 137.895312) scale(0.1 -0.1)">
      <defs>
       <path id="DejaVuSans-2f" d="M 1625 4666 
L 2156 4666 
L 531 -594 
L 0 -594 
L 1625 4666 
z
" transform="scale(0.015625)"/>
       <path id="DejaVuSans-4e" d="M 628 4666 
L 1478 4666 
L 3547 763 
L 3547 4666 
L 4159 4666 
L 4159 0 
L 3309 0 
L 1241 3903 
L 1241 0 
L 628 0 
L 628 4666 
z
" transform="scale(0.015625)"/>
      </defs>
      <use xlink:href="#DejaVuSans-53"/>
      <use xlink:href="#DejaVuSans-43" transform="translate(63.476562 0)"/>
      <use xlink:href="#DejaVuSans-4f" transform="translate(133.300781 0)"/>
      <use xlink:href="#DejaVuSans-50" transform="translate(212.011719 0)"/>
      <use xlink:href="#DejaVuSans-34" transform="translate(272.314453 0)"/>
      <use xlink:href="#DejaVuSans-30" transform="translate(335.9375 0)"/>
      <use xlink:href="#DejaVuSans-2f" transform="translate(399.560547 0)"/>
      <use xlink:href="#DejaVuSans-4e" transform="translate(433.251953 0)"/>
      <use xlink:href="#DejaVuSans-32" transform="translate(508.056641 0)"/>
     </g>
    </g>
    <g id="line2d_30">
     <path d="M 63.56 149.073438 
L 73.56 149.073438 
L 83.56 149.073438 
" style="fill: none; stroke-dasharray: 5.55,2.4; stroke-dashoffset: 0; stroke: #ff00ff; stroke-width: 1.5"/>
    </g>
    <g id="text_22">
     <!-- SCOP40/N4 -->
     <g transform="translate(91.56 152.573438) scale(0.1 -0.1)">
      <use xlink:href="#DejaVuSans-53"/>
      <use xlink:href="#DejaVuSans-43" transform="translate(63.476562 0)"/>
      <use xlink:href="#DejaVuSans-4f" transform="translate(133.300781 0)"/>
      <use xlink:href="#DejaVuSans-50" transform="translate(212.011719 0)"/>
      <use xlink:href="#DejaVuSans-34" transform="translate(272.314453 0)"/>
      <use xlink:href="#DejaVuSans-30" transform="translate(335.9375 0)"/>
      <use xlink:href="#DejaVuSans-2f" transform="translate(399.560547 0)"/>
      <use xlink:href="#DejaVuSans-4e" transform="translate(433.251953 0)"/>
      <use xlink:href="#DejaVuSans-34" transform="translate(508.056641 0)"/>
     </g>
    </g>
    <g id="line2d_31">
     <path d="M 63.56 163.751562 
L 73.56 163.751562 
L 83.56 163.751562 
" style="fill: none; stroke-dasharray: 1.5,2.475; stroke-dashoffset: 0; stroke: #ff00ff; stroke-width: 1.5"/>
    </g>
    <g id="text_23">
     <!-- SCOP40/N8 -->
     <g transform="translate(91.56 167.251562) scale(0.1 -0.1)">
      <use xlink:href="#DejaVuSans-53"/>
      <use xlink:href="#DejaVuSans-43" transform="translate(63.476562 0)"/>
      <use xlink:href="#DejaVuSans-4f" transform="translate(133.300781 0)"/>
      <use xlink:href="#DejaVuSans-50" transform="translate(212.011719 0)"/>
      <use xlink:href="#DejaVuSans-34" transform="translate(272.314453 0)"/>
      <use xlink:href="#DejaVuSans-30" transform="translate(335.9375 0)"/>
      <use xlink:href="#DejaVuSans-2f" transform="translate(399.560547 0)"/>
      <use xlink:href="#DejaVuSans-4e" transform="translate(433.251953 0)"/>
      <use xlink:href="#DejaVuSans-38" transform="translate(508.056641 0)"/>
     </g>
    </g>
    <g id="line2d_32">
     <path d="M 63.56 178.429688 
L 73.56 178.429688 
L 83.56 178.429688 
" style="fill: none; stroke: #ffa500; stroke-width: 1.5; stroke-linecap: square"/>
    </g>
    <g id="text_24">
     <!-- SCOP40/SF2 -->
     <g transform="translate(91.56 181.929688) scale(0.1 -0.1)">
      <use xlink:href="#DejaVuSans-53"/>
      <use xlink:href="#DejaVuSans-43" transform="translate(63.476562 0)"/>
      <use xlink:href="#DejaVuSans-4f" transform="translate(133.300781 0)"/>
      <use xlink:href="#DejaVuSans-50" transform="translate(212.011719 0)"/>
      <use xlink:href="#DejaVuSans-34" transform="translate(272.314453 0)"/>
      <use xlink:href="#DejaVuSans-30" transform="translate(335.9375 0)"/>
      <use xlink:href="#DejaVuSans-2f" transform="translate(399.560547 0)"/>
      <use xlink:href="#DejaVuSans-53" transform="translate(433.251953 0)"/>
      <use xlink:href="#DejaVuSans-46" transform="translate(496.728516 0)"/>
      <use xlink:href="#DejaVuSans-32" transform="translate(554.248047 0)"/>
     </g>
    </g>
    <g id="line2d_33">
     <path d="M 63.56 193.107812 
L 73.56 193.107812 
L 83.56 193.107812 
" style="fill: none; stroke-dasharray: 5.55,2.4; stroke-dashoffset: 0; stroke: #ffa500; stroke-width: 1.5"/>
    </g>
    <g id="text_25">
     <!-- SCOP40/SF4 -->
     <g transform="translate(91.56 196.607812) scale(0.1 -0.1)">
      <use xlink:href="#DejaVuSans-53"/>
      <use xlink:href="#DejaVuSans-43" transform="translate(63.476562 0)"/>
      <use xlink:href="#DejaVuSans-4f" transform="translate(133.300781 0)"/>
      <use xlink:href="#DejaVuSans-50" transform="translate(212.011719 0)"/>
      <use xlink:href="#DejaVuSans-34" transform="translate(272.314453 0)"/>
      <use xlink:href="#DejaVuSans-30" transform="translate(335.9375 0)"/>
      <use xlink:href="#DejaVuSans-2f" transform="translate(399.560547 0)"/>
      <use xlink:href="#DejaVuSans-53" transform="translate(433.251953 0)"/>
      <use xlink:href="#DejaVuSans-46" transform="translate(496.728516 0)"/>
      <use xlink:href="#DejaVuSans-34" transform="translate(554.248047 0)"/>
     </g>
    </g>
    <g id="line2d_34">
     <path d="M 63.56 207.785937 
L 73.56 207.785937 
L 83.56 207.785937 
" style="fill: none; stroke-dasharray: 1.5,2.475; stroke-dashoffset: 0; stroke: #ffa500; stroke-width: 1.5"/>
    </g>
    <g id="text_26">
     <!-- SCOP40/SF8 -->
     <g transform="translate(91.56 211.285937) scale(0.1 -0.1)">
      <use xlink:href="#DejaVuSans-53"/>
      <use xlink:href="#DejaVuSans-43" transform="translate(63.476562 0)"/>
      <use xlink:href="#DejaVuSans-4f" transform="translate(133.300781 0)"/>
      <use xlink:href="#DejaVuSans-50" transform="translate(212.011719 0)"/>
      <use xlink:href="#DejaVuSans-34" transform="translate(272.314453 0)"/>
      <use xlink:href="#DejaVuSans-30" transform="translate(335.9375 0)"/>
      <use xlink:href="#DejaVuSans-2f" transform="translate(399.560547 0)"/>
      <use xlink:href="#DejaVuSans-53" transform="translate(433.251953 0)"/>
      <use xlink:href="#DejaVuSans-46" transform="translate(496.728516 0)"/>
      <use xlink:href="#DejaVuSans-38" transform="translate(554.248047 0)"/>
     </g>
    </g>
   </g>
  </g>
  <g id="axes_2">
   <g id="patch_8">
    <path d="M 421.613076 238.559481 
L 726.035806 238.559481 
L 726.035806 47.90625 
L 421.613076 47.90625 
z
" style="fill: #ffffff"/>
   </g>
   <g id="matplotlib.axis_3">
    <g id="xtick_8">
     <g id="line2d_35">
      <g>
       <use xlink:href="#maa67eb270a" x="421.613076" y="238.559481" style="stroke: #000000; stroke-width: 0.8"/>
      </g>
     </g>
     <g id="text_27">
      <!-- −10 -->
      <g transform="translate(411.060733 253.157918) scale(0.1 -0.1)">
       <use xlink:href="#DejaVuSans-2212"/>
       <use xlink:href="#DejaVuSans-31" transform="translate(83.789062 0)"/>
       <use xlink:href="#DejaVuSans-30" transform="translate(147.412109 0)"/>
      </g>
     </g>
    </g>
    <g id="xtick_9">
     <g id="line2d_36">
      <g>
       <use xlink:href="#maa67eb270a" x="472.350198" y="238.559481" style="stroke: #000000; stroke-width: 0.8"/>
      </g>
     </g>
     <g id="text_28">
      <!-- 0 -->
      <g transform="translate(469.168948 253.157918) scale(0.1 -0.1)">
       <use xlink:href="#DejaVuSans-30"/>
      </g>
     </g>
    </g>
    <g id="xtick_10">
     <g id="line2d_37">
      <g>
       <use xlink:href="#maa67eb270a" x="523.08732" y="238.559481" style="stroke: #000000; stroke-width: 0.8"/>
      </g>
     </g>
     <g id="text_29">
      <!-- 10 -->
      <g transform="translate(516.72482 253.157918) scale(0.1 -0.1)">
       <use xlink:href="#DejaVuSans-31"/>
       <use xlink:href="#DejaVuSans-30" transform="translate(63.623047 0)"/>
      </g>
     </g>
    </g>
    <g id="xtick_11">
     <g id="line2d_38">
      <g>
       <use xlink:href="#maa67eb270a" x="573.824441" y="238.559481" style="stroke: #000000; stroke-width: 0.8"/>
      </g>
     </g>
     <g id="text_30">
      <!-- 20 -->
      <g transform="translate(567.461941 253.157918) scale(0.1 -0.1)">
       <use xlink:href="#DejaVuSans-32"/>
       <use xlink:href="#DejaVuSans-30" transform="translate(63.623047 0)"/>
      </g>
     </g>
    </g>
    <g id="xtick_12">
     <g id="line2d_39">
      <g>
       <use xlink:href="#maa67eb270a" x="624.561563" y="238.559481" style="stroke: #000000; stroke-width: 0.8"/>
      </g>
     </g>
     <g id="text_31">
      <!-- 30 -->
      <g transform="translate(618.199063 253.157918) scale(0.1 -0.1)">
       <use xlink:href="#DejaVuSans-33"/>
       <use xlink:href="#DejaVuSans-30" transform="translate(63.623047 0)"/>
      </g>
     </g>
    </g>
    <g id="xtick_13">
     <g id="line2d_40">
      <g>
       <use xlink:href="#maa67eb270a" x="675.298685" y="238.559481" style="stroke: #000000; stroke-width: 0.8"/>
      </g>
     </g>
     <g id="text_32">
      <!-- 40 -->
      <g transform="translate(668.936185 253.157918) scale(0.1 -0.1)">
       <use xlink:href="#DejaVuSans-34"/>
       <use xlink:href="#DejaVuSans-30" transform="translate(63.623047 0)"/>
      </g>
     </g>
    </g>
    <g id="xtick_14">
     <g id="line2d_41">
      <g>
       <use xlink:href="#maa67eb270a" x="726.035806" y="238.559481" style="stroke: #000000; stroke-width: 0.8"/>
      </g>
     </g>
     <g id="text_33">
      <!-- 50 -->
      <g transform="translate(719.673306 253.157918) scale(0.1 -0.1)">
       <use xlink:href="#DejaVuSans-35"/>
       <use xlink:href="#DejaVuSans-30" transform="translate(63.623047 0)"/>
      </g>
     </g>
    </g>
    <g id="text_34">
     <!-- Bits -->
     <g transform="translate(564.440066 266.836043) scale(0.1 -0.1)">
      <use xlink:href="#DejaVuSans-42"/>
      <use xlink:href="#DejaVuSans-69" transform="translate(68.603516 0)"/>
      <use xlink:href="#DejaVuSans-74" transform="translate(96.386719 0)"/>
      <use xlink:href="#DejaVuSans-73" transform="translate(135.595703 0)"/>
     </g>
    </g>
   </g>
   <g id="matplotlib.axis_4">
    <g id="ytick_6">
     <g id="line2d_42">
      <g>
       <use xlink:href="#m314cd65414" x="421.613076" y="238.559481" style="stroke: #000000; stroke-width: 0.8"/>
      </g>
     </g>
     <g id="text_35">
      <!-- $\mathdefault{10^{-3}}$ -->
      <g transform="translate(391.113076 242.358699) scale(0.1 -0.1)">
       <use xlink:href="#DejaVuSans-31" transform="translate(0 0.765625)"/>
       <use xlink:href="#DejaVuSans-30" transform="translate(63.623047 0.765625)"/>
       <use xlink:href="#DejaVuSans-2212" transform="translate(128.203125 39.046875) scale(0.7)"/>
       <use xlink:href="#DejaVuSans-33" transform="translate(186.855469 39.046875) scale(0.7)"/>
      </g>
     </g>
    </g>
    <g id="ytick_7">
     <g id="line2d_43">
      <g>
       <use xlink:href="#m314cd65414" x="421.613076" y="180.803801" style="stroke: #000000; stroke-width: 0.8"/>
      </g>
     </g>
     <g id="text_36">
      <!-- $\mathdefault{10^{-2}}$ -->
      <g transform="translate(391.113076 184.60302) scale(0.1 -0.1)">
       <use xlink:href="#DejaVuSans-31" transform="translate(0 0.765625)"/>
       <use xlink:href="#DejaVuSans-30" transform="translate(63.623047 0.765625)"/>
       <use xlink:href="#DejaVuSans-2212" transform="translate(128.203125 39.046875) scale(0.7)"/>
       <use xlink:href="#DejaVuSans-32" transform="translate(186.855469 39.046875) scale(0.7)"/>
      </g>
     </g>
    </g>
    <g id="ytick_8">
     <g id="line2d_44">
      <g>
       <use xlink:href="#m314cd65414" x="421.613076" y="123.048121" style="stroke: #000000; stroke-width: 0.8"/>
      </g>
     </g>
     <g id="text_37">
      <!-- $\mathdefault{10^{-1}}$ -->
      <g transform="translate(391.113076 126.84734) scale(0.1 -0.1)">
       <use xlink:href="#DejaVuSans-31" transform="translate(0 0.684375)"/>
       <use xlink:href="#DejaVuSans-30" transform="translate(63.623047 0.684375)"/>
       <use xlink:href="#DejaVuSans-2212" transform="translate(128.203125 38.965625) scale(0.7)"/>
       <use xlink:href="#DejaVuSans-31" transform="translate(186.855469 38.965625) scale(0.7)"/>
      </g>
     </g>
    </g>
    <g id="ytick_9">
     <g id="line2d_45">
      <g>
       <use xlink:href="#m314cd65414" x="421.613076" y="65.292442" style="stroke: #000000; stroke-width: 0.8"/>
      </g>
     </g>
     <g id="text_38">
      <!-- $\mathdefault{10^{0}}$ -->
      <g transform="translate(397.013076 69.091661) scale(0.1 -0.1)">
       <use xlink:href="#DejaVuSans-31" transform="translate(0 0.765625)"/>
       <use xlink:href="#DejaVuSans-30" transform="translate(63.623047 0.765625)"/>
       <use xlink:href="#DejaVuSans-30" transform="translate(128.203125 39.046875) scale(0.7)"/>
      </g>
     </g>
    </g>
    <g id="ytick_10">
     <g id="line2d_46">
      <defs>
       <path id="md77560f850" d="M 0 0 
L -2 0 
" style="stroke: #000000; stroke-width: 0.6"/>
      </defs>
      <g>
       <use xlink:href="#md77560f850" x="421.613076" y="221.173289" style="stroke: #000000; stroke-width: 0.6"/>
      </g>
     </g>
    </g>
    <g id="ytick_11">
     <g id="line2d_47">
      <g>
       <use xlink:href="#md77560f850" x="421.613076" y="211.003018" style="stroke: #000000; stroke-width: 0.6"/>
      </g>
     </g>
    </g>
    <g id="ytick_12">
     <g id="line2d_48">
      <g>
       <use xlink:href="#md77560f850" x="421.613076" y="203.787097" style="stroke: #000000; stroke-width: 0.6"/>
      </g>
     </g>
    </g>
    <g id="ytick_13">
     <g id="line2d_49">
      <g>
       <use xlink:href="#md77560f850" x="421.613076" y="198.189993" style="stroke: #000000; stroke-width: 0.6"/>
      </g>
     </g>
    </g>
    <g id="ytick_14">
     <g id="line2d_50">
      <g>
       <use xlink:href="#md77560f850" x="421.613076" y="193.616826" style="stroke: #000000; stroke-width: 0.6"/>
      </g>
     </g>
    </g>
    <g id="ytick_15">
     <g id="line2d_51">
      <g>
       <use xlink:href="#md77560f850" x="421.613076" y="189.750269" style="stroke: #000000; stroke-width: 0.6"/>
      </g>
     </g>
    </g>
    <g id="ytick_16">
     <g id="line2d_52">
      <g>
       <use xlink:href="#md77560f850" x="421.613076" y="186.400905" style="stroke: #000000; stroke-width: 0.6"/>
      </g>
     </g>
    </g>
    <g id="ytick_17">
     <g id="line2d_53">
      <g>
       <use xlink:href="#md77560f850" x="421.613076" y="183.446556" style="stroke: #000000; stroke-width: 0.6"/>
      </g>
     </g>
    </g>
    <g id="ytick_18">
     <g id="line2d_54">
      <g>
       <use xlink:href="#md77560f850" x="421.613076" y="163.417609" style="stroke: #000000; stroke-width: 0.6"/>
      </g>
     </g>
    </g>
    <g id="ytick_19">
     <g id="line2d_55">
      <g>
       <use xlink:href="#md77560f850" x="421.613076" y="153.247339" style="stroke: #000000; stroke-width: 0.6"/>
      </g>
     </g>
    </g>
    <g id="ytick_20">
     <g id="line2d_56">
      <g>
       <use xlink:href="#md77560f850" x="421.613076" y="146.031417" style="stroke: #000000; stroke-width: 0.6"/>
      </g>
     </g>
    </g>
    <g id="ytick_21">
     <g id="line2d_57">
      <g>
       <use xlink:href="#md77560f850" x="421.613076" y="140.434313" style="stroke: #000000; stroke-width: 0.6"/>
      </g>
     </g>
    </g>
    <g id="ytick_22">
     <g id="line2d_58">
      <g>
       <use xlink:href="#md77560f850" x="421.613076" y="135.861147" style="stroke: #000000; stroke-width: 0.6"/>
      </g>
     </g>
    </g>
    <g id="ytick_23">
     <g id="line2d_59">
      <g>
       <use xlink:href="#md77560f850" x="421.613076" y="131.994589" style="stroke: #000000; stroke-width: 0.6"/>
      </g>
     </g>
    </g>
    <g id="ytick_24">
     <g id="line2d_60">
      <g>
       <use xlink:href="#md77560f850" x="421.613076" y="128.645225" style="stroke: #000000; stroke-width: 0.6"/>
      </g>
     </g>
    </g>
    <g id="ytick_25">
     <g id="line2d_61">
      <g>
       <use xlink:href="#md77560f850" x="421.613076" y="125.690876" style="stroke: #000000; stroke-width: 0.6"/>
      </g>
     </g>
    </g>
    <g id="ytick_26">
     <g id="line2d_62">
      <g>
       <use xlink:href="#md77560f850" x="421.613076" y="105.66193" style="stroke: #000000; stroke-width: 0.6"/>
      </g>
     </g>
    </g>
    <g id="ytick_27">
     <g id="line2d_63">
      <g>
       <use xlink:href="#md77560f850" x="421.613076" y="95.491659" style="stroke: #000000; stroke-width: 0.6"/>
      </g>
     </g>
    </g>
    <g id="ytick_28">
     <g id="line2d_64">
      <g>
       <use xlink:href="#md77560f850" x="421.613076" y="88.275738" style="stroke: #000000; stroke-width: 0.6"/>
      </g>
     </g>
    </g>
    <g id="ytick_29">
     <g id="line2d_65">
      <g>
       <use xlink:href="#md77560f850" x="421.613076" y="82.678634" style="stroke: #000000; stroke-width: 0.6"/>
      </g>
     </g>
    </g>
    <g id="ytick_30">
     <g id="line2d_66">
      <g>
       <use xlink:href="#md77560f850" x="421.613076" y="78.105467" style="stroke: #000000; stroke-width: 0.6"/>
      </g>
     </g>
    </g>
    <g id="ytick_31">
     <g id="line2d_67">
      <g>
       <use xlink:href="#md77560f850" x="421.613076" y="74.23891" style="stroke: #000000; stroke-width: 0.6"/>
      </g>
     </g>
    </g>
    <g id="ytick_32">
     <g id="line2d_68">
      <g>
       <use xlink:href="#md77560f850" x="421.613076" y="70.889546" style="stroke: #000000; stroke-width: 0.6"/>
      </g>
     </g>
    </g>
    <g id="ytick_33">
     <g id="line2d_69">
      <g>
       <use xlink:href="#md77560f850" x="421.613076" y="67.935197" style="stroke: #000000; stroke-width: 0.6"/>
      </g>
     </g>
    </g>
    <g id="ytick_34">
     <g id="line2d_70">
      <g>
       <use xlink:href="#md77560f850" x="421.613076" y="47.90625" style="stroke: #000000; stroke-width: 0.6"/>
      </g>
     </g>
    </g>
    <g id="text_39">
     <!-- P(score|F) -->
     <g transform="translate(384.755264 168.14224) rotate(-90) scale(0.1 -0.1)">
      <use xlink:href="#DejaVuSans-50"/>
      <use xlink:href="#DejaVuSans-28" transform="translate(60.302734 0)"/>
      <use xlink:href="#DejaVuSans-73" transform="translate(99.316406 0)"/>
      <use xlink:href="#DejaVuSans-63" transform="translate(151.416016 0)"/>
      <use xlink:href="#DejaVuSans-6f" transform="translate(206.396484 0)"/>
      <use xlink:href="#DejaVuSans-72" transform="translate(267.578125 0)"/>
      <use xlink:href="#DejaVuSans-65" transform="translate(306.441406 0)"/>
      <use xlink:href="#DejaVuSans-7c" transform="translate(367.964844 0)"/>
      <use xlink:href="#DejaVuSans-46" transform="translate(401.65625 0)"/>
      <use xlink:href="#DejaVuSans-29" transform="translate(459.175781 0)"/>
     </g>
    </g>
   </g>
   <g id="line2d_71">
    <path d="M 491.729467 281.519481 
L 499.256094 196.441393 
L 513.863311 138.3788 
L 528.465455 118.019265 
L 543.077746 112.74443 
L 557.690037 115.225074 
L 572.302328 130.223942 
L 586.914619 125.543599 
L 601.476173 132.472098 
L 616.088464 138.840591 
L 630.700755 145.077811 
L 645.313046 150.780781 
L 659.925337 155.843687 
L 674.537628 170.284805 
L 689.149919 164.039796 
L 703.76221 168.765129 
L 718.323764 173.650666 
L 732.936055 177.671715 
L 744.225806 181.917204 
" clip-path="url(#pc83f8f89ce)" style="fill: none; stroke-dasharray: 9.6,2.4,1.5,2.4; stroke-dashoffset: 0; stroke: #000000; stroke-width: 1.5"/>
   </g>
   <g id="line2d_72">
    <path d="M 491.729467 281.519481 
L 499.256094 196.441393 
L 513.863311 138.3788 
L 528.465455 118.019265 
L 543.077746 112.74443 
L 557.690037 115.225074 
L 572.302328 130.223942 
L 586.914619 125.543599 
L 601.476173 132.472098 
L 616.088464 138.840591 
L 630.700755 145.077811 
L 645.313046 150.780781 
L 659.925337 155.843687 
L 674.537628 170.284805 
L 689.149919 164.039796 
L 703.76221 168.765129 
L 718.323764 173.650666 
L 732.936055 177.671715 
L 744.225806 181.917204 
" clip-path="url(#pc83f8f89ce)" style="fill: none; stroke-dasharray: 9.6,2.4,1.5,2.4; stroke-dashoffset: 0; stroke: #008000; stroke-width: 1.5"/>
   </g>
   <g id="line2d_73">
    <path d="M 483.837478 281.519481 
L 484.648876 272.146314 
L 499.256094 148.362579 
L 513.863311 112.727802 
L 528.465455 106.130311 
L 543.077746 110.808475 
L 557.690037 119.26052 
L 572.302328 136.985442 
L 586.914619 133.988865 
L 601.476173 142.109381 
L 616.088464 149.538944 
L 630.700755 156.491813 
L 645.313046 163.081255 
L 659.925337 169.09322 
L 674.537628 184.302676 
L 689.149919 178.803811 
L 703.76221 184.276734 
L 718.323764 189.922859 
L 732.936055 194.987163 
L 744.225806 199.162081 
" clip-path="url(#pc83f8f89ce)" style="fill: none; stroke: #d2691e; stroke-width: 1.5; stroke-linecap: square"/>
   </g>
   <g id="line2d_74">
    <path d="M 483.837478 281.519481 
L 484.648876 272.146314 
L 499.256094 148.362579 
L 513.863311 112.727802 
L 528.465455 106.130311 
L 543.077746 110.808475 
L 557.690037 119.26052 
L 572.302328 136.985442 
L 586.914619 133.988865 
L 601.476173 142.109381 
L 616.088464 149.538944 
L 630.700755 156.491813 
L 645.313046 163.081255 
L 659.925337 169.09322 
L 674.537628 184.302676 
L 689.149919 178.803811 
L 703.76221 184.276734 
L 718.323764 189.922859 
L 732.936055 194.987163 
L 744.225806 199.162081 
" clip-path="url(#pc83f8f89ce)" style="fill: none; stroke: #000000; stroke-width: 1.5; stroke-linecap: square"/>
   </g>
   <g id="line2d_75">
    <path d="M 483.006903 281.519481 
L 484.648876 262.86239 
L 499.256094 141.453026 
L 513.863311 108.430413 
L 528.465455 104.000038 
L 543.077746 110.305427 
L 557.690037 120.227906 
L 572.302328 139.039101 
L 586.914619 137.108162 
L 601.476173 146.213931 
L 616.088464 154.498747 
L 630.700755 162.122244 
L 645.313046 168.983379 
L 659.925337 175.206697 
L 674.537628 190.213174 
L 689.149919 184.960062 
L 703.76221 190.14756 
L 718.323764 195.88613 
L 732.936055 201.254321 
L 744.225806 205.060207 
" clip-path="url(#pc83f8f89ce)" style="fill: none; stroke: #00ffff; stroke-width: 1.5; stroke-linecap: square"/>
   </g>
   <g id="line2d_76">
    <path d="M 484.645898 281.519481 
L 484.648876 269.782634 
L 499.256094 148.884072 
L 513.863311 113.21454 
L 528.465455 106.296976 
L 543.077746 110.947439 
L 557.690037 119.110001 
L 572.302328 136.754782 
L 586.914619 133.622965 
L 601.476173 141.66815 
L 616.088464 149.1667 
L 630.700755 155.983165 
L 645.313046 162.798244 
L 659.925337 168.858431 
L 674.537628 184.038761 
L 689.149919 178.413138 
L 703.76221 183.981756 
L 718.323764 189.429829 
L 732.936055 194.294785 
L 744.225806 198.5447 
" clip-path="url(#pc83f8f89ce)" style="fill: none; stroke: #ff00ff; stroke-width: 1.5; stroke-linecap: square"/>
   </g>
   <g id="line2d_77">
    <path d="M 483.185967 281.519481 
L 484.648876 267.61465 
L 499.256094 147.583437 
L 513.863311 112.545622 
L 528.465455 106.168674 
L 543.077746 110.947439 
L 557.690037 119.325307 
L 572.302328 137.2801 
L 586.914619 134.164067 
L 601.476173 142.308602 
L 616.088464 150.107874 
L 630.700755 156.933392 
L 645.313046 163.292507 
L 659.925337 169.171972 
L 674.537628 184.557738 
L 689.149919 178.873389 
L 703.76221 184.499541 
L 718.323764 189.607345 
L 732.936055 195.437114 
L 744.225806 198.639858 
" clip-path="url(#pc83f8f89ce)" style="fill: none; stroke-dasharray: 5.55,2.4; stroke-dashoffset: 0; stroke: #ff00ff; stroke-width: 1.5"/>
   </g>
   <g id="line2d_78">
    <path d="M 484.645638 281.519481 
L 484.648876 268.758697 
L 499.256094 148.813911 
L 513.863311 112.711187 
L 528.465455 106.041025 
L 543.077746 110.947439 
L 557.690037 119.761543 
L 572.302328 137.016065 
L 586.914619 134.164067 
L 601.476173 142.093297 
L 616.088464 149.380781 
L 630.700755 156.264474 
L 645.313046 163.044157 
L 659.925337 168.858431 
L 674.537628 183.474441 
L 689.149919 177.298156 
L 703.76221 183.9533 
L 718.323764 189.113431 
L 732.936055 193.868918 
L 744.225806 199.596939 
" clip-path="url(#pc83f8f89ce)" style="fill: none; stroke-dasharray: 1.5,2.475; stroke-dashoffset: 0; stroke: #ff00ff; stroke-width: 1.5"/>
   </g>
   <g id="line2d_79">
    <path d="M 484.139585 281.519481 
L 484.648876 276.311308 
L 499.256094 149.741694 
L 513.863311 113.04563 
L 528.465455 106.296976 
L 543.077746 110.793082 
L 557.690037 119.325307 
L 572.302328 136.798142 
L 586.914619 133.853439 
L 601.476173 141.879822 
L 616.088464 149.237858 
L 630.700755 156.170354 
L 645.313046 162.554719 
L 659.925337 168.703118 
L 674.537628 183.811508 
L 689.149919 177.961182 
L 703.76221 183.30759 
L 718.323764 188.663346 
L 732.936055 193.367242 
L 744.225806 197.643767 
" clip-path="url(#pc83f8f89ce)" style="fill: none; stroke: #ffa500; stroke-width: 1.5; stroke-linecap: square"/>
   </g>
   <g id="line2d_80">
    <path d="M 484.645109 281.519481 
L 484.648876 266.673928 
L 499.256094 144.334336 
L 513.863311 110.947439 
L 528.465455 105.28848 
L 543.077746 110.184981 
L 557.690037 118.474955 
L 572.302328 136.071047 
L 586.914619 133.546607 
L 601.476173 142.362718 
L 616.088464 150.404719 
L 630.700755 158.225079 
L 645.313046 166.200103 
L 659.925337 173.09117 
L 674.537628 189.930077 
L 689.149919 185.507739 
L 703.76221 191.763952 
L 718.323764 199.902628 
L 732.936055 206.922379 
L 744.225806 212.774008 
" clip-path="url(#pc83f8f89ce)" style="fill: none; stroke-dasharray: 5.55,2.4; stroke-dashoffset: 0; stroke: #ffa500; stroke-width: 1.5"/>
   </g>
   <g id="line2d_81">
    <path d="M 484.646598 281.519481 
L 484.648876 272.541786 
L 499.256094 146.730861 
L 513.863311 111.574545 
L 528.465455 105.28848 
L 543.077746 110.487187 
L 557.690037 119.325307 
L 572.302328 137.726427 
L 586.914619 134.757071 
L 601.476173 143.13287 
L 616.088464 151.239631 
L 630.700755 157.521302 
L 645.313046 164.704198 
L 659.925337 170.301301 
L 674.537628 185.842794 
L 689.149919 179.820029 
L 703.76221 185.965751 
L 718.323764 191.763952 
L 732.936055 196.633961 
L 744.225806 200.490527 
" clip-path="url(#pc83f8f89ce)" style="fill: none; stroke-dasharray: 1.5,2.475; stroke-dashoffset: 0; stroke: #ffa500; stroke-width: 1.5"/>
   </g>
   <g id="patch_9">
    <path d="M 421.613076 238.559481 
L 421.613076 47.90625 
" style="fill: none; stroke: #000000; stroke-width: 0.8; stroke-linejoin: miter; stroke-linecap: square"/>
   </g>
   <g id="patch_10">
    <path d="M 726.035806 238.559481 
L 726.035806 47.90625 
" style="fill: none; stroke: #000000; stroke-width: 0.8; stroke-linejoin: miter; stroke-linecap: square"/>
   </g>
   <g id="patch_11">
    <path d="M 421.613076 238.559481 
L 726.035806 238.559481 
" style="fill: none; stroke: #000000; stroke-width: 0.8; stroke-linejoin: miter; stroke-linecap: square"/>
   </g>
   <g id="patch_12">
    <path d="M 421.613076 47.90625 
L 726.035806 47.90625 
" style="fill: none; stroke: #000000; stroke-width: 0.8; stroke-linejoin: miter; stroke-linecap: square"/>
   </g>
   <g id="text_40">
    <!-- Foldseek (logscale) -->
    <g transform="translate(516.263816 41.90625) scale(0.12 -0.12)">
     <defs>
      <path id="DejaVuSans-20" transform="scale(0.015625)"/>
      <path id="DejaVuSans-67" d="M 2906 1791 
Q 2906 2416 2648 2759 
Q 2391 3103 1925 3103 
Q 1463 3103 1205 2759 
Q 947 2416 947 1791 
Q 947 1169 1205 825 
Q 1463 481 1925 481 
Q 2391 481 2648 825 
Q 2906 1169 2906 1791 
z
M 3481 434 
Q 3481 -459 3084 -895 
Q 2688 -1331 1869 -1331 
Q 1566 -1331 1297 -1286 
Q 1028 -1241 775 -1147 
L 775 -588 
Q 1028 -725 1275 -790 
Q 1522 -856 1778 -856 
Q 2344 -856 2625 -561 
Q 2906 -266 2906 331 
L 2906 616 
Q 2728 306 2450 153 
Q 2172 0 1784 0 
Q 1141 0 747 490 
Q 353 981 353 1791 
Q 353 2603 747 3093 
Q 1141 3584 1784 3584 
Q 2172 3584 2450 3431 
Q 2728 3278 2906 2969 
L 2906 3500 
L 3481 3500 
L 3481 434 
z
" transform="scale(0.015625)"/>
      <path id="DejaVuSans-61" d="M 2194 1759 
Q 1497 1759 1228 1600 
Q 959 1441 959 1056 
Q 959 750 1161 570 
Q 1363 391 1709 391 
Q 2188 391 2477 730 
Q 2766 1069 2766 1631 
L 2766 1759 
L 2194 1759 
z
M 3341 1997 
L 3341 0 
L 2766 0 
L 2766 531 
Q 2569 213 2275 61 
Q 1981 -91 1556 -91 
Q 1019 -91 701 211 
Q 384 513 384 1019 
Q 384 1609 779 1909 
Q 1175 2209 1959 2209 
L 2766 2209 
L 2766 2266 
Q 2766 2663 2505 2880 
Q 2244 3097 1772 3097 
Q 1472 3097 1187 3025 
Q 903 2953 641 2809 
L 641 3341 
Q 956 3463 1253 3523 
Q 1550 3584 1831 3584 
Q 2591 3584 2966 3190 
Q 3341 2797 3341 1997 
z
" transform="scale(0.015625)"/>
     </defs>
     <use xlink:href="#DejaVuSans-46"/>
     <use xlink:href="#DejaVuSans-6f" transform="translate(53.894531 0)"/>
     <use xlink:href="#DejaVuSans-6c" transform="translate(115.076172 0)"/>
     <use xlink:href="#DejaVuSans-64" transform="translate(142.859375 0)"/>
     <use xlink:href="#DejaVuSans-73" transform="translate(206.335938 0)"/>
     <use xlink:href="#DejaVuSans-65" transform="translate(258.435547 0)"/>
     <use xlink:href="#DejaVuSans-65" transform="translate(319.958984 0)"/>
     <use xlink:href="#DejaVuSans-6b" transform="translate(381.482422 0)"/>
     <use xlink:href="#DejaVuSans-20" transform="translate(439.392578 0)"/>
     <use xlink:href="#DejaVuSans-28" transform="translate(471.179688 0)"/>
     <use xlink:href="#DejaVuSans-6c" transform="translate(510.193359 0)"/>
     <use xlink:href="#DejaVuSans-6f" transform="translate(537.976562 0)"/>
     <use xlink:href="#DejaVuSans-67" transform="translate(599.158203 0)"/>
     <use xlink:href="#DejaVuSans-73" transform="translate(662.634766 0)"/>
     <use xlink:href="#DejaVuSans-63" transform="translate(714.734375 0)"/>
     <use xlink:href="#DejaVuSans-61" transform="translate(769.714844 0)"/>
     <use xlink:href="#DejaVuSans-6c" transform="translate(830.994141 0)"/>
     <use xlink:href="#DejaVuSans-65" transform="translate(858.777344 0)"/>
     <use xlink:href="#DejaVuSans-29" transform="translate(920.300781 0)"/>
    </g>
   </g>
   <g id="legend_2">
    <g id="patch_13">
     <path d="M 428.613076 217.365625 
L 522.402139 217.365625 
Q 524.402139 217.365625 524.402139 215.365625 
L 524.402139 54.90625 
Q 524.402139 52.90625 522.402139 52.90625 
L 428.613076 52.90625 
Q 426.613076 52.90625 426.613076 54.90625 
L 426.613076 215.365625 
Q 426.613076 217.365625 428.613076 217.365625 
z
" style="fill: #ffffff; opacity: 0.8; stroke: #cccccc; stroke-linejoin: miter"/>
    </g>
    <g id="line2d_82">
     <path d="M 430.613076 61.004687 
L 440.613076 61.004687 
L 450.613076 61.004687 
" style="fill: none; stroke-dasharray: 9.6,2.4,1.5,2.4; stroke-dashoffset: 0; stroke: #000000; stroke-width: 1.5"/>
    </g>
    <g id="text_41">
     <!-- SCOP40x8 -->
     <g transform="translate(458.613076 64.504687) scale(0.1 -0.1)">
      <use xlink:href="#DejaVuSans-53"/>
      <use xlink:href="#DejaVuSans-43" transform="translate(63.476562 0)"/>
      <use xlink:href="#DejaVuSans-4f" transform="translate(133.300781 0)"/>
      <use xlink:href="#DejaVuSans-50" transform="translate(212.011719 0)"/>
      <use xlink:href="#DejaVuSans-34" transform="translate(272.314453 0)"/>
      <use xlink:href="#DejaVuSans-30" transform="translate(335.9375 0)"/>
      <use xlink:href="#DejaVuSans-78" transform="translate(399.560547 0)"/>
      <use xlink:href="#DejaVuSans-38" transform="translate(458.740234 0)"/>
     </g>
    </g>
    <g id="line2d_83">
     <path d="M 430.613076 75.682813 
L 440.613076 75.682813 
L 450.613076 75.682813 
" style="fill: none; stroke-dasharray: 9.6,2.4,1.5,2.4; stroke-dashoffset: 0; stroke: #008000; stroke-width: 1.5"/>
    </g>
    <g id="text_42">
     <!-- SCOP40x4 -->
     <g transform="translate(458.613076 79.182813) scale(0.1 -0.1)">
      <use xlink:href="#DejaVuSans-53"/>
      <use xlink:href="#DejaVuSans-43" transform="translate(63.476562 0)"/>
      <use xlink:href="#DejaVuSans-4f" transform="translate(133.300781 0)"/>
      <use xlink:href="#DejaVuSans-50" transform="translate(212.011719 0)"/>
      <use xlink:href="#DejaVuSans-34" transform="translate(272.314453 0)"/>
      <use xlink:href="#DejaVuSans-30" transform="translate(335.9375 0)"/>
      <use xlink:href="#DejaVuSans-78" transform="translate(399.560547 0)"/>
      <use xlink:href="#DejaVuSans-34" transform="translate(458.740234 0)"/>
     </g>
    </g>
    <g id="line2d_84">
     <path d="M 430.613076 90.360938 
L 440.613076 90.360938 
L 450.613076 90.360938 
" style="fill: none; stroke: #d2691e; stroke-width: 1.5; stroke-linecap: square"/>
    </g>
    <g id="text_43">
     <!-- CATH40 -->
     <g transform="translate(458.613076 93.860938) scale(0.1 -0.1)">
      <use xlink:href="#DejaVuSans-43"/>
      <use xlink:href="#DejaVuSans-41" transform="translate(69.824219 0)"/>
      <use xlink:href="#DejaVuSans-54" transform="translate(130.482422 0)"/>
      <use xlink:href="#DejaVuSans-48" transform="translate(191.566406 0)"/>
      <use xlink:href="#DejaVuSans-34" transform="translate(266.761719 0)"/>
      <use xlink:href="#DejaVuSans-30" transform="translate(330.384766 0)"/>
     </g>
    </g>
    <g id="line2d_85">
     <path d="M 430.613076 105.039062 
L 440.613076 105.039062 
L 450.613076 105.039062 
" style="fill: none; stroke: #000000; stroke-width: 1.5; stroke-linecap: square"/>
    </g>
    <g id="text_44">
     <!-- SCOP40 -->
     <g transform="translate(458.613076 108.539062) scale(0.1 -0.1)">
      <use xlink:href="#DejaVuSans-53"/>
      <use xlink:href="#DejaVuSans-43" transform="translate(63.476562 0)"/>
      <use xlink:href="#DejaVuSans-4f" transform="translate(133.300781 0)"/>
      <use xlink:href="#DejaVuSans-50" transform="translate(212.011719 0)"/>
      <use xlink:href="#DejaVuSans-34" transform="translate(272.314453 0)"/>
      <use xlink:href="#DejaVuSans-30" transform="translate(335.9375 0)"/>
     </g>
    </g>
    <g id="line2d_86">
     <path d="M 430.613076 119.717188 
L 440.613076 119.717188 
L 450.613076 119.717188 
" style="fill: none; stroke: #00ffff; stroke-width: 1.5; stroke-linecap: square"/>
    </g>
    <g id="text_45">
     <!-- SCOP40c -->
     <g transform="translate(458.613076 123.217188) scale(0.1 -0.1)">
      <use xlink:href="#DejaVuSans-53"/>
      <use xlink:href="#DejaVuSans-43" transform="translate(63.476562 0)"/>
      <use xlink:href="#DejaVuSans-4f" transform="translate(133.300781 0)"/>
      <use xlink:href="#DejaVuSans-50" transform="translate(212.011719 0)"/>
      <use xlink:href="#DejaVuSans-34" transform="translate(272.314453 0)"/>
      <use xlink:href="#DejaVuSans-30" transform="translate(335.9375 0)"/>
      <use xlink:href="#DejaVuSans-63" transform="translate(399.560547 0)"/>
     </g>
    </g>
    <g id="line2d_87">
     <path d="M 430.613076 134.395312 
L 440.613076 134.395312 
L 450.613076 134.395312 
" style="fill: none; stroke: #ff00ff; stroke-width: 1.5; stroke-linecap: square"/>
    </g>
    <g id="text_46">
     <!-- SCOP40/N2 -->
     <g transform="translate(458.613076 137.895312) scale(0.1 -0.1)">
      <use xlink:href="#DejaVuSans-53"/>
      <use xlink:href="#DejaVuSans-43" transform="translate(63.476562 0)"/>
      <use xlink:href="#DejaVuSans-4f" transform="translate(133.300781 0)"/>
      <use xlink:href="#DejaVuSans-50" transform="translate(212.011719 0)"/>
      <use xlink:href="#DejaVuSans-34" transform="translate(272.314453 0)"/>
      <use xlink:href="#DejaVuSans-30" transform="translate(335.9375 0)"/>
      <use xlink:href="#DejaVuSans-2f" transform="translate(399.560547 0)"/>
      <use xlink:href="#DejaVuSans-4e" transform="translate(433.251953 0)"/>
      <use xlink:href="#DejaVuSans-32" transform="translate(508.056641 0)"/>
     </g>
    </g>
    <g id="line2d_88">
     <path d="M 430.613076 149.073438 
L 440.613076 149.073438 
L 450.613076 149.073438 
" style="fill: none; stroke-dasharray: 5.55,2.4; stroke-dashoffset: 0; stroke: #ff00ff; stroke-width: 1.5"/>
    </g>
    <g id="text_47">
     <!-- SCOP40/N4 -->
     <g transform="translate(458.613076 152.573438) scale(0.1 -0.1)">
      <use xlink:href="#DejaVuSans-53"/>
      <use xlink:href="#DejaVuSans-43" transform="translate(63.476562 0)"/>
      <use xlink:href="#DejaVuSans-4f" transform="translate(133.300781 0)"/>
      <use xlink:href="#DejaVuSans-50" transform="translate(212.011719 0)"/>
      <use xlink:href="#DejaVuSans-34" transform="translate(272.314453 0)"/>
      <use xlink:href="#DejaVuSans-30" transform="translate(335.9375 0)"/>
      <use xlink:href="#DejaVuSans-2f" transform="translate(399.560547 0)"/>
      <use xlink:href="#DejaVuSans-4e" transform="translate(433.251953 0)"/>
      <use xlink:href="#DejaVuSans-34" transform="translate(508.056641 0)"/>
     </g>
    </g>
    <g id="line2d_89">
     <path d="M 430.613076 163.751562 
L 440.613076 163.751562 
L 450.613076 163.751562 
" style="fill: none; stroke-dasharray: 1.5,2.475; stroke-dashoffset: 0; stroke: #ff00ff; stroke-width: 1.5"/>
    </g>
    <g id="text_48">
     <!-- SCOP40/N8 -->
     <g transform="translate(458.613076 167.251562) scale(0.1 -0.1)">
      <use xlink:href="#DejaVuSans-53"/>
      <use xlink:href="#DejaVuSans-43" transform="translate(63.476562 0)"/>
      <use xlink:href="#DejaVuSans-4f" transform="translate(133.300781 0)"/>
      <use xlink:href="#DejaVuSans-50" transform="translate(212.011719 0)"/>
      <use xlink:href="#DejaVuSans-34" transform="translate(272.314453 0)"/>
      <use xlink:href="#DejaVuSans-30" transform="translate(335.9375 0)"/>
      <use xlink:href="#DejaVuSans-2f" transform="translate(399.560547 0)"/>
      <use xlink:href="#DejaVuSans-4e" transform="translate(433.251953 0)"/>
      <use xlink:href="#DejaVuSans-38" transform="translate(508.056641 0)"/>
     </g>
    </g>
    <g id="line2d_90">
     <path d="M 430.613076 178.429688 
L 440.613076 178.429688 
L 450.613076 178.429688 
" style="fill: none; stroke: #ffa500; stroke-width: 1.5; stroke-linecap: square"/>
    </g>
    <g id="text_49">
     <!-- SCOP40/SF2 -->
     <g transform="translate(458.613076 181.929688) scale(0.1 -0.1)">
      <use xlink:href="#DejaVuSans-53"/>
      <use xlink:href="#DejaVuSans-43" transform="translate(63.476562 0)"/>
      <use xlink:href="#DejaVuSans-4f" transform="translate(133.300781 0)"/>
      <use xlink:href="#DejaVuSans-50" transform="translate(212.011719 0)"/>
      <use xlink:href="#DejaVuSans-34" transform="translate(272.314453 0)"/>
      <use xlink:href="#DejaVuSans-30" transform="translate(335.9375 0)"/>
      <use xlink:href="#DejaVuSans-2f" transform="translate(399.560547 0)"/>
      <use xlink:href="#DejaVuSans-53" transform="translate(433.251953 0)"/>
      <use xlink:href="#DejaVuSans-46" transform="translate(496.728516 0)"/>
      <use xlink:href="#DejaVuSans-32" transform="translate(554.248047 0)"/>
     </g>
    </g>
    <g id="line2d_91">
     <path d="M 430.613076 193.107812 
L 440.613076 193.107812 
L 450.613076 193.107812 
" style="fill: none; stroke-dasharray: 5.55,2.4; stroke-dashoffset: 0; stroke: #ffa500; stroke-width: 1.5"/>
    </g>
    <g id="text_50">
     <!-- SCOP40/SF4 -->
     <g transform="translate(458.613076 196.607812) scale(0.1 -0.1)">
      <use xlink:href="#DejaVuSans-53"/>
      <use xlink:href="#DejaVuSans-43" transform="translate(63.476562 0)"/>
      <use xlink:href="#DejaVuSans-4f" transform="translate(133.300781 0)"/>
      <use xlink:href="#DejaVuSans-50" transform="translate(212.011719 0)"/>
      <use xlink:href="#DejaVuSans-34" transform="translate(272.314453 0)"/>
      <use xlink:href="#DejaVuSans-30" transform="translate(335.9375 0)"/>
      <use xlink:href="#DejaVuSans-2f" transform="translate(399.560547 0)"/>
      <use xlink:href="#DejaVuSans-53" transform="translate(433.251953 0)"/>
      <use xlink:href="#DejaVuSans-46" transform="translate(496.728516 0)"/>
      <use xlink:href="#DejaVuSans-34" transform="translate(554.248047 0)"/>
     </g>
    </g>
    <g id="line2d_92">
     <path d="M 430.613076 207.785937 
L 440.613076 207.785937 
L 450.613076 207.785937 
" style="fill: none; stroke-dasharray: 1.5,2.475; stroke-dashoffset: 0; stroke: #ffa500; stroke-width: 1.5"/>
    </g>
    <g id="text_51">
     <!-- SCOP40/SF8 -->
     <g transform="translate(458.613076 211.285937) scale(0.1 -0.1)">
      <use xlink:href="#DejaVuSans-53"/>
      <use xlink:href="#DejaVuSans-43" transform="translate(63.476562 0)"/>
      <use xlink:href="#DejaVuSans-4f" transform="translate(133.300781 0)"/>
      <use xlink:href="#DejaVuSans-50" transform="translate(212.011719 0)"/>
      <use xlink:href="#DejaVuSans-34" transform="translate(272.314453 0)"/>
      <use xlink:href="#DejaVuSans-30" transform="translate(335.9375 0)"/>
      <use xlink:href="#DejaVuSans-2f" transform="translate(399.560547 0)"/>
      <use xlink:href="#DejaVuSans-53" transform="translate(433.251953 0)"/>
      <use xlink:href="#DejaVuSans-46" transform="translate(496.728516 0)"/>
      <use xlink:href="#DejaVuSans-38" transform="translate(554.248047 0)"/>
     </g>
    </g>
   </g>
  </g>
  <g id="text_52">
   <!-- ../plots/P_score_F.foldseekb.svg -->
   <g transform="translate(277.559153 14.728515) scale(0.12 -0.12)">
    <defs>
     <path id="DejaVuSans-70" d="M 1159 525 
L 1159 -1331 
L 581 -1331 
L 581 3500 
L 1159 3500 
L 1159 2969 
Q 1341 3281 1617 3432 
Q 1894 3584 2278 3584 
Q 2916 3584 3314 3078 
Q 3713 2572 3713 1747 
Q 3713 922 3314 415 
Q 2916 -91 2278 -91 
Q 1894 -91 1617 61 
Q 1341 213 1159 525 
z
M 3116 1747 
Q 3116 2381 2855 2742 
Q 2594 3103 2138 3103 
Q 1681 3103 1420 2742 
Q 1159 2381 1159 1747 
Q 1159 1113 1420 752 
Q 1681 391 2138 391 
Q 2594 391 2855 752 
Q 3116 1113 3116 1747 
z
" transform="scale(0.015625)"/>
     <path id="DejaVuSans-5f" d="M 3263 -1063 
L 3263 -1509 
L -63 -1509 
L -63 -1063 
L 3263 -1063 
z
" transform="scale(0.015625)"/>
     <path id="DejaVuSans-66" d="M 2375 4863 
L 2375 4384 
L 1825 4384 
Q 1516 4384 1395 4259 
Q 1275 4134 1275 3809 
L 1275 3500 
L 2222 3500 
L 2222 3053 
L 1275 3053 
L 1275 0 
L 697 0 
L 697 3053 
L 147 3053 
L 147 3500 
L 697 3500 
L 697 3744 
Q 697 4328 969 4595 
Q 1241 4863 1831 4863 
L 2375 4863 
z
" transform="scale(0.015625)"/>
     <path id="DejaVuSans-62" d="M 3116 1747 
Q 3116 2381 2855 2742 
Q 2594 3103 2138 3103 
Q 1681 3103 1420 2742 
Q 1159 2381 1159 1747 
Q 1159 1113 1420 752 
Q 1681 391 2138 391 
Q 2594 391 2855 752 
Q 3116 1113 3116 1747 
z
M 1159 2969 
Q 1341 3281 1617 3432 
Q 1894 3584 2278 3584 
Q 2916 3584 3314 3078 
Q 3713 2572 3713 1747 
Q 3713 922 3314 415 
Q 2916 -91 2278 -91 
Q 1894 -91 1617 61 
Q 1341 213 1159 525 
L 1159 0 
L 581 0 
L 581 4863 
L 1159 4863 
L 1159 2969 
z
" transform="scale(0.015625)"/>
     <path id="DejaVuSans-76" d="M 191 3500 
L 800 3500 
L 1894 563 
L 2988 3500 
L 3597 3500 
L 2284 0 
L 1503 0 
L 191 3500 
z
" transform="scale(0.015625)"/>
    </defs>
    <use xlink:href="#DejaVuSans-2e"/>
    <use xlink:href="#DejaVuSans-2e" transform="translate(31.787109 0)"/>
    <use xlink:href="#DejaVuSans-2f" transform="translate(63.574219 0)"/>
    <use xlink:href="#DejaVuSans-70" transform="translate(97.265625 0)"/>
    <use xlink:href="#DejaVuSans-6c" transform="translate(160.742188 0)"/>
    <use xlink:href="#DejaVuSans-6f" transform="translate(188.525391 0)"/>
    <use xlink:href="#DejaVuSans-74" transform="translate(249.707031 0)"/>
    <use xlink:href="#DejaVuSans-73" transform="translate(288.916016 0)"/>
    <use xlink:href="#DejaVuSans-2f" transform="translate(341.015625 0)"/>
    <use xlink:href="#DejaVuSans-50" transform="translate(374.707031 0)"/>
    <use xlink:href="#DejaVuSans-5f" transform="translate(435.009766 0)"/>
    <use xlink:href="#DejaVuSans-73" transform="translate(485.009766 0)"/>
    <use xlink:href="#DejaVuSans-63" transform="translate(537.109375 0)"/>
    <use xlink:href="#DejaVuSans-6f" transform="translate(592.089844 0)"/>
    <use xlink:href="#DejaVuSans-72" transform="translate(653.271484 0)"/>
    <use xlink:href="#DejaVuSans-65" transform="translate(692.134766 0)"/>
    <use xlink:href="#DejaVuSans-5f" transform="translate(753.658203 0)"/>
    <use xlink:href="#DejaVuSans-46" transform="translate(803.658203 0)"/>
    <use xlink:href="#DejaVuSans-2e" transform="translate(845.052734 0)"/>
    <use xlink:href="#DejaVuSans-66" transform="translate(876.839844 0)"/>
    <use xlink:href="#DejaVuSans-6f" transform="translate(912.044922 0)"/>
    <use xlink:href="#DejaVuSans-6c" transform="translate(973.226562 0)"/>
    <use xlink:href="#DejaVuSans-64" transform="translate(1001.009766 0)"/>
    <use xlink:href="#DejaVuSans-73" transform="translate(1064.486328 0)"/>
    <use xlink:href="#DejaVuSans-65" transform="translate(1116.585938 0)"/>
    <use xlink:href="#DejaVuSans-65" transform="translate(1178.109375 0)"/>
    <use xlink:href="#DejaVuSans-6b" transform="translate(1239.632812 0)"/>
    <use xlink:href="#DejaVuSans-62" transform="translate(1297.542969 0)"/>
    <use xlink:href="#DejaVuSans-2e" transform="translate(1361.019531 0)"/>
    <use xlink:href="#DejaVuSans-73" transform="translate(1392.806641 0)"/>
    <use xlink:href="#DejaVuSans-76" transform="translate(1444.90625 0)"/>
    <use xlink:href="#DejaVuSans-67" transform="translate(1504.085938 0)"/>
   </g>
  </g>
 </g>
 <defs>
  <clipPath id="p5b38bbb4ed">
   <rect x="54.56" y="47.90625" width="304.42273" height="190.653231"/>
  </clipPath>
  <clipPath id="pc83f8f89ce">
   <rect x="421.613076" y="47.90625" width="304.42273" height="190.653231"/>
  </clipPath>
 </defs>
</svg>
