<?xml version="1.0" encoding="utf-8" standalone="no"?>
<!DOCTYPE svg PUBLIC "-//W3C//DTD SVG 1.1//EN"
  "http://www.w3.org/Graphics/SVG/1.1/DTD/svg11.dtd">
<svg xmlns:xlink="http://www.w3.org/1999/xlink" width="743.225806pt" height="280.519481pt" viewBox="0 0 743.225806 280.519481" xmlns="http://www.w3.org/2000/svg" version="1.1">
 <metadata>
  <rdf:RDF xmlns:dc="http://purl.org/dc/elements/1.1/" xmlns:cc="http://creativecommons.org/ns#" xmlns:rdf="http://www.w3.org/1999/02/22-rdf-syntax-ns#">
   <cc:Work>
    <dc:type rdf:resource="http://purl.org/dc/dcmitype/StillImage"/>
    <dc:date>2025-05-30T08:16:36.568167</dc:date>
    <dc:format>image/svg+xml</dc:format>
    <dc:creator>
     <cc:Agent>
      <dc:title>Matplotlib v3.10.3, https://matplotlib.org/</dc:title>
     </cc:Agent>
    </dc:creator>
   </cc:Work>
  </rdf:RDF>
 </metadata>
 <defs>
  <style type="text/css">*{stroke-linejoin: round; stroke-linecap: butt}</style>
 </defs>
 <g id="figure_1">
  <g id="patch_1">
   <path d="M 0 280.519481 
L 743.225806 280.519481 
L 743.225806 0 
L 0 0 
z
" style="fill: #ffffff"/>
  </g>
  <g id="axes_1">
   <g id="patch_2">
    <path d="M 54.56 238.559481 
L 354.21273 238.559481 
L 354.21273 47.90625 
L 54.56 47.90625 
z
" style="fill: #ffffff"/>
   </g>
   <g id="matplotlib.axis_1">
    <g id="xtick_1">
     <g id="line2d_1">
      <defs>
       <path id="ma845b8cbf2" d="M 0 0 
L 0 3.5 
" style="stroke: #000000; stroke-width: 0.8"/>
      </defs>
      <g>
       <use xlink:href="#ma845b8cbf2" x="54.56" y="238.559481" style="stroke: #000000; stroke-width: 0.8"/>
      </g>
     </g>
     <g id="text_1">
      <!-- 0.20 -->
      <g transform="translate(43.427188 253.157918) scale(0.1 -0.1)">
       <defs>
        <path id="DejaVuSans-30" d="M 2034 4250 
Q 1547 4250 1301 3770 
Q 1056 3291 1056 2328 
Q 1056 1369 1301 889 
Q 1547 409 2034 409 
Q 2525 409 2770 889 
Q 3016 1369 3016 2328 
Q 3016 3291 2770 3770 
Q 2525 4250 2034 4250 
z
M 2034 4750 
Q 2819 4750 3233 4129 
Q 3647 3509 3647 2328 
Q 3647 1150 3233 529 
Q 2819 -91 2034 -91 
Q 1250 -91 836 529 
Q 422 1150 422 2328 
Q 422 3509 836 4129 
Q 1250 4750 2034 4750 
z
" transform="scale(0.015625)"/>
        <path id="DejaVuSans-2e" d="M 684 794 
L 1344 794 
L 1344 0 
L 684 0 
L 684 794 
z
" transform="scale(0.015625)"/>
        <path id="DejaVuSans-32" d="M 1228 531 
L 3431 531 
L 3431 0 
L 469 0 
L 469 531 
Q 828 903 1448 1529 
Q 2069 2156 2228 2338 
Q 2531 2678 2651 2914 
Q 2772 3150 2772 3378 
Q 2772 3750 2511 3984 
Q 2250 4219 1831 4219 
Q 1534 4219 1204 4116 
Q 875 4013 500 3803 
L 500 4441 
Q 881 4594 1212 4672 
Q 1544 4750 1819 4750 
Q 2544 4750 2975 4387 
Q 3406 4025 3406 3419 
Q 3406 3131 3298 2873 
Q 3191 2616 2906 2266 
Q 2828 2175 2409 1742 
Q 1991 1309 1228 531 
z
" transform="scale(0.015625)"/>
       </defs>
       <use xlink:href="#DejaVuSans-30"/>
       <use xlink:href="#DejaVuSans-2e" transform="translate(63.623047 0)"/>
       <use xlink:href="#DejaVuSans-32" transform="translate(95.410156 0)"/>
       <use xlink:href="#DejaVuSans-30" transform="translate(159.033203 0)"/>
      </g>
     </g>
    </g>
    <g id="xtick_2">
     <g id="line2d_2">
      <g>
       <use xlink:href="#ma845b8cbf2" x="92.016591" y="238.559481" style="stroke: #000000; stroke-width: 0.8"/>
      </g>
     </g>
     <g id="text_2">
      <!-- 0.25 -->
      <g transform="translate(80.883779 253.157918) scale(0.1 -0.1)">
       <defs>
        <path id="DejaVuSans-35" d="M 691 4666 
L 3169 4666 
L 3169 4134 
L 1269 4134 
L 1269 2991 
Q 1406 3038 1543 3061 
Q 1681 3084 1819 3084 
Q 2600 3084 3056 2656 
Q 3513 2228 3513 1497 
Q 3513 744 3044 326 
Q 2575 -91 1722 -91 
Q 1428 -91 1123 -41 
Q 819 9 494 109 
L 494 744 
Q 775 591 1075 516 
Q 1375 441 1709 441 
Q 2250 441 2565 725 
Q 2881 1009 2881 1497 
Q 2881 1984 2565 2268 
Q 2250 2553 1709 2553 
Q 1456 2553 1204 2497 
Q 953 2441 691 2322 
L 691 4666 
z
" transform="scale(0.015625)"/>
       </defs>
       <use xlink:href="#DejaVuSans-30"/>
       <use xlink:href="#DejaVuSans-2e" transform="translate(63.623047 0)"/>
       <use xlink:href="#DejaVuSans-32" transform="translate(95.410156 0)"/>
       <use xlink:href="#DejaVuSans-35" transform="translate(159.033203 0)"/>
      </g>
     </g>
    </g>
    <g id="xtick_3">
     <g id="line2d_3">
      <g>
       <use xlink:href="#ma845b8cbf2" x="129.473183" y="238.559481" style="stroke: #000000; stroke-width: 0.8"/>
      </g>
     </g>
     <g id="text_3">
      <!-- 0.30 -->
      <g transform="translate(118.34037 253.157918) scale(0.1 -0.1)">
       <defs>
        <path id="DejaVuSans-33" d="M 2597 2516 
Q 3050 2419 3304 2112 
Q 3559 1806 3559 1356 
Q 3559 666 3084 287 
Q 2609 -91 1734 -91 
Q 1441 -91 1130 -33 
Q 819 25 488 141 
L 488 750 
Q 750 597 1062 519 
Q 1375 441 1716 441 
Q 2309 441 2620 675 
Q 2931 909 2931 1356 
Q 2931 1769 2642 2001 
Q 2353 2234 1838 2234 
L 1294 2234 
L 1294 2753 
L 1863 2753 
Q 2328 2753 2575 2939 
Q 2822 3125 2822 3475 
Q 2822 3834 2567 4026 
Q 2313 4219 1838 4219 
Q 1578 4219 1281 4162 
Q 984 4106 628 3988 
L 628 4550 
Q 988 4650 1302 4700 
Q 1616 4750 1894 4750 
Q 2613 4750 3031 4423 
Q 3450 4097 3450 3541 
Q 3450 3153 3228 2886 
Q 3006 2619 2597 2516 
z
" transform="scale(0.015625)"/>
       </defs>
       <use xlink:href="#DejaVuSans-30"/>
       <use xlink:href="#DejaVuSans-2e" transform="translate(63.623047 0)"/>
       <use xlink:href="#DejaVuSans-33" transform="translate(95.410156 0)"/>
       <use xlink:href="#DejaVuSans-30" transform="translate(159.033203 0)"/>
      </g>
     </g>
    </g>
    <g id="xtick_4">
     <g id="line2d_4">
      <g>
       <use xlink:href="#ma845b8cbf2" x="166.929774" y="238.559481" style="stroke: #000000; stroke-width: 0.8"/>
      </g>
     </g>
     <g id="text_4">
      <!-- 0.35 -->
      <g transform="translate(155.796961 253.157918) scale(0.1 -0.1)">
       <use xlink:href="#DejaVuSans-30"/>
       <use xlink:href="#DejaVuSans-2e" transform="translate(63.623047 0)"/>
       <use xlink:href="#DejaVuSans-33" transform="translate(95.410156 0)"/>
       <use xlink:href="#DejaVuSans-35" transform="translate(159.033203 0)"/>
      </g>
     </g>
    </g>
    <g id="xtick_5">
     <g id="line2d_5">
      <g>
       <use xlink:href="#ma845b8cbf2" x="204.386365" y="238.559481" style="stroke: #000000; stroke-width: 0.8"/>
      </g>
     </g>
     <g id="text_5">
      <!-- 0.40 -->
      <g transform="translate(193.253553 253.157918) scale(0.1 -0.1)">
       <defs>
        <path id="DejaVuSans-34" d="M 2419 4116 
L 825 1625 
L 2419 1625 
L 2419 4116 
z
M 2253 4666 
L 3047 4666 
L 3047 1625 
L 3713 1625 
L 3713 1100 
L 3047 1100 
L 3047 0 
L 2419 0 
L 2419 1100 
L 313 1100 
L 313 1709 
L 2253 4666 
z
" transform="scale(0.015625)"/>
       </defs>
       <use xlink:href="#DejaVuSans-30"/>
       <use xlink:href="#DejaVuSans-2e" transform="translate(63.623047 0)"/>
       <use xlink:href="#DejaVuSans-34" transform="translate(95.410156 0)"/>
       <use xlink:href="#DejaVuSans-30" transform="translate(159.033203 0)"/>
      </g>
     </g>
    </g>
    <g id="xtick_6">
     <g id="line2d_6">
      <g>
       <use xlink:href="#ma845b8cbf2" x="241.842956" y="238.559481" style="stroke: #000000; stroke-width: 0.8"/>
      </g>
     </g>
     <g id="text_6">
      <!-- 0.45 -->
      <g transform="translate(230.710144 253.157918) scale(0.1 -0.1)">
       <use xlink:href="#DejaVuSans-30"/>
       <use xlink:href="#DejaVuSans-2e" transform="translate(63.623047 0)"/>
       <use xlink:href="#DejaVuSans-34" transform="translate(95.410156 0)"/>
       <use xlink:href="#DejaVuSans-35" transform="translate(159.033203 0)"/>
      </g>
     </g>
    </g>
    <g id="xtick_7">
     <g id="line2d_7">
      <g>
       <use xlink:href="#ma845b8cbf2" x="279.299548" y="238.559481" style="stroke: #000000; stroke-width: 0.8"/>
      </g>
     </g>
     <g id="text_7">
      <!-- 0.50 -->
      <g transform="translate(268.166735 253.157918) scale(0.1 -0.1)">
       <use xlink:href="#DejaVuSans-30"/>
       <use xlink:href="#DejaVuSans-2e" transform="translate(63.623047 0)"/>
       <use xlink:href="#DejaVuSans-35" transform="translate(95.410156 0)"/>
       <use xlink:href="#DejaVuSans-30" transform="translate(159.033203 0)"/>
      </g>
     </g>
    </g>
    <g id="xtick_8">
     <g id="line2d_8">
      <g>
       <use xlink:href="#ma845b8cbf2" x="316.756139" y="238.559481" style="stroke: #000000; stroke-width: 0.8"/>
      </g>
     </g>
     <g id="text_8">
      <!-- 0.55 -->
      <g transform="translate(305.623326 253.157918) scale(0.1 -0.1)">
       <use xlink:href="#DejaVuSans-30"/>
       <use xlink:href="#DejaVuSans-2e" transform="translate(63.623047 0)"/>
       <use xlink:href="#DejaVuSans-35" transform="translate(95.410156 0)"/>
       <use xlink:href="#DejaVuSans-35" transform="translate(159.033203 0)"/>
      </g>
     </g>
    </g>
    <g id="xtick_9">
     <g id="line2d_9">
      <g>
       <use xlink:href="#ma845b8cbf2" x="354.21273" y="238.559481" style="stroke: #000000; stroke-width: 0.8"/>
      </g>
     </g>
     <g id="text_9">
      <!-- 0.60 -->
      <g transform="translate(343.079918 253.157918) scale(0.1 -0.1)">
       <defs>
        <path id="DejaVuSans-36" d="M 2113 2584 
Q 1688 2584 1439 2293 
Q 1191 2003 1191 1497 
Q 1191 994 1439 701 
Q 1688 409 2113 409 
Q 2538 409 2786 701 
Q 3034 994 3034 1497 
Q 3034 2003 2786 2293 
Q 2538 2584 2113 2584 
z
M 3366 4563 
L 3366 3988 
Q 3128 4100 2886 4159 
Q 2644 4219 2406 4219 
Q 1781 4219 1451 3797 
Q 1122 3375 1075 2522 
Q 1259 2794 1537 2939 
Q 1816 3084 2150 3084 
Q 2853 3084 3261 2657 
Q 3669 2231 3669 1497 
Q 3669 778 3244 343 
Q 2819 -91 2113 -91 
Q 1303 -91 875 529 
Q 447 1150 447 2328 
Q 447 3434 972 4092 
Q 1497 4750 2381 4750 
Q 2619 4750 2861 4703 
Q 3103 4656 3366 4563 
z
" transform="scale(0.015625)"/>
       </defs>
       <use xlink:href="#DejaVuSans-30"/>
       <use xlink:href="#DejaVuSans-2e" transform="translate(63.623047 0)"/>
       <use xlink:href="#DejaVuSans-36" transform="translate(95.410156 0)"/>
       <use xlink:href="#DejaVuSans-30" transform="translate(159.033203 0)"/>
      </g>
     </g>
    </g>
    <g id="text_10">
     <!-- TM score -->
     <g transform="translate(181.996521 266.836043) scale(0.1 -0.1)">
      <defs>
       <path id="DejaVuSans-54" d="M -19 4666 
L 3928 4666 
L 3928 4134 
L 2272 4134 
L 2272 0 
L 1638 0 
L 1638 4134 
L -19 4134 
L -19 4666 
z
" transform="scale(0.015625)"/>
       <path id="DejaVuSans-4d" d="M 628 4666 
L 1569 4666 
L 2759 1491 
L 3956 4666 
L 4897 4666 
L 4897 0 
L 4281 0 
L 4281 4097 
L 3078 897 
L 2444 897 
L 1241 4097 
L 1241 0 
L 628 0 
L 628 4666 
z
" transform="scale(0.015625)"/>
       <path id="DejaVuSans-20" transform="scale(0.015625)"/>
       <path id="DejaVuSans-73" d="M 2834 3397 
L 2834 2853 
Q 2591 2978 2328 3040 
Q 2066 3103 1784 3103 
Q 1356 3103 1142 2972 
Q 928 2841 928 2578 
Q 928 2378 1081 2264 
Q 1234 2150 1697 2047 
L 1894 2003 
Q 2506 1872 2764 1633 
Q 3022 1394 3022 966 
Q 3022 478 2636 193 
Q 2250 -91 1575 -91 
Q 1294 -91 989 -36 
Q 684 19 347 128 
L 347 722 
Q 666 556 975 473 
Q 1284 391 1588 391 
Q 1994 391 2212 530 
Q 2431 669 2431 922 
Q 2431 1156 2273 1281 
Q 2116 1406 1581 1522 
L 1381 1569 
Q 847 1681 609 1914 
Q 372 2147 372 2553 
Q 372 3047 722 3315 
Q 1072 3584 1716 3584 
Q 2034 3584 2315 3537 
Q 2597 3491 2834 3397 
z
" transform="scale(0.015625)"/>
       <path id="DejaVuSans-63" d="M 3122 3366 
L 3122 2828 
Q 2878 2963 2633 3030 
Q 2388 3097 2138 3097 
Q 1578 3097 1268 2742 
Q 959 2388 959 1747 
Q 959 1106 1268 751 
Q 1578 397 2138 397 
Q 2388 397 2633 464 
Q 2878 531 3122 666 
L 3122 134 
Q 2881 22 2623 -34 
Q 2366 -91 2075 -91 
Q 1284 -91 818 406 
Q 353 903 353 1747 
Q 353 2603 823 3093 
Q 1294 3584 2113 3584 
Q 2378 3584 2631 3529 
Q 2884 3475 3122 3366 
z
" transform="scale(0.015625)"/>
       <path id="DejaVuSans-6f" d="M 1959 3097 
Q 1497 3097 1228 2736 
Q 959 2375 959 1747 
Q 959 1119 1226 758 
Q 1494 397 1959 397 
Q 2419 397 2687 759 
Q 2956 1122 2956 1747 
Q 2956 2369 2687 2733 
Q 2419 3097 1959 3097 
z
M 1959 3584 
Q 2709 3584 3137 3096 
Q 3566 2609 3566 1747 
Q 3566 888 3137 398 
Q 2709 -91 1959 -91 
Q 1206 -91 779 398 
Q 353 888 353 1747 
Q 353 2609 779 3096 
Q 1206 3584 1959 3584 
z
" transform="scale(0.015625)"/>
       <path id="DejaVuSans-72" d="M 2631 2963 
Q 2534 3019 2420 3045 
Q 2306 3072 2169 3072 
Q 1681 3072 1420 2755 
Q 1159 2438 1159 1844 
L 1159 0 
L 581 0 
L 581 3500 
L 1159 3500 
L 1159 2956 
Q 1341 3275 1631 3429 
Q 1922 3584 2338 3584 
Q 2397 3584 2469 3576 
Q 2541 3569 2628 3553 
L 2631 2963 
z
" transform="scale(0.015625)"/>
       <path id="DejaVuSans-65" d="M 3597 1894 
L 3597 1613 
L 953 1613 
Q 991 1019 1311 708 
Q 1631 397 2203 397 
Q 2534 397 2845 478 
Q 3156 559 3463 722 
L 3463 178 
Q 3153 47 2828 -22 
Q 2503 -91 2169 -91 
Q 1331 -91 842 396 
Q 353 884 353 1716 
Q 353 2575 817 3079 
Q 1281 3584 2069 3584 
Q 2775 3584 3186 3129 
Q 3597 2675 3597 1894 
z
M 3022 2063 
Q 3016 2534 2758 2815 
Q 2500 3097 2075 3097 
Q 1594 3097 1305 2825 
Q 1016 2553 972 2059 
L 3022 2063 
z
" transform="scale(0.015625)"/>
      </defs>
      <use xlink:href="#DejaVuSans-54"/>
      <use xlink:href="#DejaVuSans-4d" transform="translate(61.083984 0)"/>
      <use xlink:href="#DejaVuSans-20" transform="translate(147.363281 0)"/>
      <use xlink:href="#DejaVuSans-73" transform="translate(179.150391 0)"/>
      <use xlink:href="#DejaVuSans-63" transform="translate(231.25 0)"/>
      <use xlink:href="#DejaVuSans-6f" transform="translate(286.230469 0)"/>
      <use xlink:href="#DejaVuSans-72" transform="translate(347.412109 0)"/>
      <use xlink:href="#DejaVuSans-65" transform="translate(386.275391 0)"/>
     </g>
    </g>
   </g>
   <g id="matplotlib.axis_2">
    <g id="ytick_1">
     <g id="line2d_10">
      <defs>
       <path id="m827a79682b" d="M 0 0 
L -3.5 0 
" style="stroke: #000000; stroke-width: 0.8"/>
      </defs>
      <g>
       <use xlink:href="#m827a79682b" x="54.56" y="229.893425" style="stroke: #000000; stroke-width: 0.8"/>
      </g>
     </g>
     <g id="text_11">
      <!-- 0.00 -->
      <g transform="translate(25.294375 233.692643) scale(0.1 -0.1)">
       <use xlink:href="#DejaVuSans-30"/>
       <use xlink:href="#DejaVuSans-2e" transform="translate(63.623047 0)"/>
       <use xlink:href="#DejaVuSans-30" transform="translate(95.410156 0)"/>
       <use xlink:href="#DejaVuSans-30" transform="translate(159.033203 0)"/>
      </g>
     </g>
    </g>
    <g id="ytick_2">
     <g id="line2d_11">
      <g>
       <use xlink:href="#m827a79682b" x="54.56" y="197.527203" style="stroke: #000000; stroke-width: 0.8"/>
      </g>
     </g>
     <g id="text_12">
      <!-- 0.02 -->
      <g transform="translate(25.294375 201.326422) scale(0.1 -0.1)">
       <use xlink:href="#DejaVuSans-30"/>
       <use xlink:href="#DejaVuSans-2e" transform="translate(63.623047 0)"/>
       <use xlink:href="#DejaVuSans-30" transform="translate(95.410156 0)"/>
       <use xlink:href="#DejaVuSans-32" transform="translate(159.033203 0)"/>
      </g>
     </g>
    </g>
    <g id="ytick_3">
     <g id="line2d_12">
      <g>
       <use xlink:href="#m827a79682b" x="54.56" y="165.160982" style="stroke: #000000; stroke-width: 0.8"/>
      </g>
     </g>
     <g id="text_13">
      <!-- 0.04 -->
      <g transform="translate(25.294375 168.960201) scale(0.1 -0.1)">
       <use xlink:href="#DejaVuSans-30"/>
       <use xlink:href="#DejaVuSans-2e" transform="translate(63.623047 0)"/>
       <use xlink:href="#DejaVuSans-30" transform="translate(95.410156 0)"/>
       <use xlink:href="#DejaVuSans-34" transform="translate(159.033203 0)"/>
      </g>
     </g>
    </g>
    <g id="ytick_4">
     <g id="line2d_13">
      <g>
       <use xlink:href="#m827a79682b" x="54.56" y="132.794761" style="stroke: #000000; stroke-width: 0.8"/>
      </g>
     </g>
     <g id="text_14">
      <!-- 0.06 -->
      <g transform="translate(25.294375 136.59398) scale(0.1 -0.1)">
       <use xlink:href="#DejaVuSans-30"/>
       <use xlink:href="#DejaVuSans-2e" transform="translate(63.623047 0)"/>
       <use xlink:href="#DejaVuSans-30" transform="translate(95.410156 0)"/>
       <use xlink:href="#DejaVuSans-36" transform="translate(159.033203 0)"/>
      </g>
     </g>
    </g>
    <g id="ytick_5">
     <g id="line2d_14">
      <g>
       <use xlink:href="#m827a79682b" x="54.56" y="100.42854" style="stroke: #000000; stroke-width: 0.8"/>
      </g>
     </g>
     <g id="text_15">
      <!-- 0.08 -->
      <g transform="translate(25.294375 104.227758) scale(0.1 -0.1)">
       <defs>
        <path id="DejaVuSans-38" d="M 2034 2216 
Q 1584 2216 1326 1975 
Q 1069 1734 1069 1313 
Q 1069 891 1326 650 
Q 1584 409 2034 409 
Q 2484 409 2743 651 
Q 3003 894 3003 1313 
Q 3003 1734 2745 1975 
Q 2488 2216 2034 2216 
z
M 1403 2484 
Q 997 2584 770 2862 
Q 544 3141 544 3541 
Q 544 4100 942 4425 
Q 1341 4750 2034 4750 
Q 2731 4750 3128 4425 
Q 3525 4100 3525 3541 
Q 3525 3141 3298 2862 
Q 3072 2584 2669 2484 
Q 3125 2378 3379 2068 
Q 3634 1759 3634 1313 
Q 3634 634 3220 271 
Q 2806 -91 2034 -91 
Q 1263 -91 848 271 
Q 434 634 434 1313 
Q 434 1759 690 2068 
Q 947 2378 1403 2484 
z
M 1172 3481 
Q 1172 3119 1398 2916 
Q 1625 2713 2034 2713 
Q 2441 2713 2670 2916 
Q 2900 3119 2900 3481 
Q 2900 3844 2670 4047 
Q 2441 4250 2034 4250 
Q 1625 4250 1398 4047 
Q 1172 3844 1172 3481 
z
" transform="scale(0.015625)"/>
       </defs>
       <use xlink:href="#DejaVuSans-30"/>
       <use xlink:href="#DejaVuSans-2e" transform="translate(63.623047 0)"/>
       <use xlink:href="#DejaVuSans-30" transform="translate(95.410156 0)"/>
       <use xlink:href="#DejaVuSans-38" transform="translate(159.033203 0)"/>
      </g>
     </g>
    </g>
    <g id="ytick_6">
     <g id="line2d_15">
      <g>
       <use xlink:href="#m827a79682b" x="54.56" y="68.062318" style="stroke: #000000; stroke-width: 0.8"/>
      </g>
     </g>
     <g id="text_16">
      <!-- 0.10 -->
      <g transform="translate(25.294375 71.861537) scale(0.1 -0.1)">
       <defs>
        <path id="DejaVuSans-31" d="M 794 531 
L 1825 531 
L 1825 4091 
L 703 3866 
L 703 4441 
L 1819 4666 
L 2450 4666 
L 2450 531 
L 3481 531 
L 3481 0 
L 794 0 
L 794 531 
z
" transform="scale(0.015625)"/>
       </defs>
       <use xlink:href="#DejaVuSans-30"/>
       <use xlink:href="#DejaVuSans-2e" transform="translate(63.623047 0)"/>
       <use xlink:href="#DejaVuSans-31" transform="translate(95.410156 0)"/>
       <use xlink:href="#DejaVuSans-30" transform="translate(159.033203 0)"/>
      </g>
     </g>
    </g>
    <g id="text_17">
     <!-- P(score|F) -->
     <g transform="translate(18.936563 168.14224) rotate(-90) scale(0.1 -0.1)">
      <defs>
       <path id="DejaVuSans-50" d="M 1259 4147 
L 1259 2394 
L 2053 2394 
Q 2494 2394 2734 2622 
Q 2975 2850 2975 3272 
Q 2975 3691 2734 3919 
Q 2494 4147 2053 4147 
L 1259 4147 
z
M 628 4666 
L 2053 4666 
Q 2838 4666 3239 4311 
Q 3641 3956 3641 3272 
Q 3641 2581 3239 2228 
Q 2838 1875 2053 1875 
L 1259 1875 
L 1259 0 
L 628 0 
L 628 4666 
z
" transform="scale(0.015625)"/>
       <path id="DejaVuSans-28" d="M 1984 4856 
Q 1566 4138 1362 3434 
Q 1159 2731 1159 2009 
Q 1159 1288 1364 580 
Q 1569 -128 1984 -844 
L 1484 -844 
Q 1016 -109 783 600 
Q 550 1309 550 2009 
Q 550 2706 781 3412 
Q 1013 4119 1484 4856 
L 1984 4856 
z
" transform="scale(0.015625)"/>
       <path id="DejaVuSans-7c" d="M 1344 4891 
L 1344 -1509 
L 813 -1509 
L 813 4891 
L 1344 4891 
z
" transform="scale(0.015625)"/>
       <path id="DejaVuSans-46" d="M 628 4666 
L 3309 4666 
L 3309 4134 
L 1259 4134 
L 1259 2759 
L 3109 2759 
L 3109 2228 
L 1259 2228 
L 1259 0 
L 628 0 
L 628 4666 
z
" transform="scale(0.015625)"/>
       <path id="DejaVuSans-29" d="M 513 4856 
L 1013 4856 
Q 1481 4119 1714 3412 
Q 1947 2706 1947 2009 
Q 1947 1309 1714 600 
Q 1481 -109 1013 -844 
L 513 -844 
Q 928 -128 1133 580 
Q 1338 1288 1338 2009 
Q 1338 2731 1133 3434 
Q 928 4138 513 4856 
z
" transform="scale(0.015625)"/>
      </defs>
      <use xlink:href="#DejaVuSans-50"/>
      <use xlink:href="#DejaVuSans-28" transform="translate(60.302734 0)"/>
      <use xlink:href="#DejaVuSans-73" transform="translate(99.316406 0)"/>
      <use xlink:href="#DejaVuSans-63" transform="translate(151.416016 0)"/>
      <use xlink:href="#DejaVuSans-6f" transform="translate(206.396484 0)"/>
      <use xlink:href="#DejaVuSans-72" transform="translate(267.578125 0)"/>
      <use xlink:href="#DejaVuSans-65" transform="translate(306.441406 0)"/>
      <use xlink:href="#DejaVuSans-7c" transform="translate(367.964844 0)"/>
      <use xlink:href="#DejaVuSans-46" transform="translate(401.65625 0)"/>
      <use xlink:href="#DejaVuSans-29" transform="translate(459.175781 0)"/>
     </g>
    </g>
   </g>
   <g id="line2d_16">
    <path d="M -1 228.975848 
L 3.094644 228.664155 
L 10.660875 227.747544 
L 18.227106 226.282973 
L 25.793338 224.06265 
L 33.359569 220.580045 
L 40.925801 215.038948 
L 48.492032 206.444097 
L 56.058264 193.060665 
L 63.624495 173.738033 
L 71.190727 148.298179 
L 78.756958 119.670264 
L 86.323189 93.162321 
L 93.889421 74.762131 
L 101.455652 69.276046 
L 109.021884 76.542267 
L 116.588115 93.453615 
L 124.154347 115.349365 
L 131.720578 137.374581 
L 139.286809 157.117979 
L 146.853041 173.624748 
L 154.419272 186.781618 
L 161.985504 196.798964 
L 169.551735 204.485942 
L 177.117967 210.279494 
L 184.684198 214.681301 
L 192.25043 218.055479 
L 199.816661 220.748349 
L 207.382892 222.759909 
L 214.949124 224.355564 
L 222.515355 225.572534 
L 230.081587 226.48688 
L 237.647818 227.160097 
L 245.21405 227.687667 
L 252.780281 228.085771 
L 260.346512 228.390337 
L 267.912744 228.644736 
L 275.478975 228.84573 
L 283.12012 229.005781 
L 290.686351 229.138321 
L 298.252583 229.247718 
L 305.818814 229.341904 
L 313.385046 229.422172 
L 320.951277 229.487552 
L 328.517509 229.563775 
L 336.08374 229.622357 
L 343.649971 229.671069 
L 351.216203 229.723178 
L 358.782434 229.767569 
L 366.348666 229.804159 
L 373.914897 229.823837 
L 381.481129 229.841477 
L 389.04736 229.855847 
L 396.613591 229.86724 
L 404.179823 229.874118 
L 411.746054 229.879544 
L 419.312286 229.883266 
L 426.878517 229.885361 
L 434.444749 229.887403 
L 442.01098 229.889083 
L 449.577212 229.889651 
L 457.143443 229.891125 
L 464.709674 229.891125 
L 472.275906 229.892106 
L 479.842137 229.892546 
L 487.408369 229.892546 
L 494.9746 229.892908 
L 502.540832 229.892933 
L 510.107063 229.893166 
L 517.673294 229.893295 
L 525.239526 229.89327 
L 532.805757 229.893399 
L 540.371989 229.893373 
L 547.93822 229.893399 
L 555.504452 229.893425 
L 563.070683 229.893399 
L 570.636915 229.893425 
L 578.203146 229.893425 
L 585.769377 229.893425 
L 593.335609 229.893425 
L 600.90184 229.893425 
L 608.468072 229.893425 
L 616.034303 229.893425 
L 623.600535 229.893425 
L 631.166766 229.893425 
L 638.732997 229.893425 
L 646.299229 229.893425 
L 653.86546 229.893425 
" clip-path="url(#p20d9981d71)" style="fill: none; stroke: #000000; stroke-width: 1.5; stroke-linecap: square"/>
   </g>
   <g id="line2d_17">
    <path d="M -1 229.574204 
L 3.094644 229.505192 
L 10.660875 229.313746 
L 18.227106 228.97649 
L 25.793338 228.3269 
L 33.359569 226.935152 
L 40.925801 223.873308 
L 48.492032 217.689741 
L 56.058264 205.893872 
L 63.624495 186.441773 
L 71.190727 158.606821 
L 78.756958 125.010684 
L 86.323189 92.06187 
L 93.889421 66.929503 
L 101.455652 56.572306 
L 109.021884 61.750905 
L 116.588115 79.244852 
L 124.154347 103.30913 
L 131.720578 128.198758 
L 139.286809 150.709464 
L 146.853041 169.643704 
L 154.419272 184.596897 
L 161.985504 195.908893 
L 169.551735 204.405025 
L 177.117967 210.700255 
L 184.684198 215.365847 
L 192.25043 218.782101 
L 199.816661 221.457169 
L 207.382892 223.412089 
L 214.949124 224.964049 
L 222.515355 226.14218 
L 230.081587 226.995029 
L 237.647818 227.631026 
L 245.21405 228.097099 
L 252.780281 228.469311 
L 260.346512 228.72905 
L 267.912744 228.924218 
L 275.478975 229.073103 
L 283.12012 229.17716 
L 290.686351 229.27523 
L 298.252583 229.349348 
L 305.818814 229.412948 
L 313.385046 229.476224 
L 320.951277 229.523155 
L 328.517509 229.581252 
L 336.08374 229.640968 
L 343.649971 229.685633 
L 351.216203 229.739038 
L 358.782434 229.785451 
L 366.348666 229.820067 
L 373.914897 229.840166 
L 381.481129 229.858696 
L 389.04736 229.867305 
L 396.613591 229.876643 
L 404.179823 229.880431 
L 411.746054 229.885058 
L 419.312286 229.88833 
L 426.878517 229.889405 
L 434.444749 229.890994 
L 442.01098 229.891929 
L 449.577212 229.892256 
L 457.143443 229.89291 
L 464.709674 229.892864 
L 472.275906 229.892957 
L 479.842137 229.893331 
L 487.408369 229.893097 
L 494.9746 229.893425 
L 502.540832 229.893425 
L 510.107063 229.893425 
L 517.673294 229.893425 
L 525.239526 229.893425 
L 532.805757 229.893425 
L 540.371989 229.893425 
L 547.93822 229.893425 
L 555.504452 229.893425 
L 563.070683 229.893425 
L 570.636915 229.893425 
L 578.203146 229.893425 
L 585.769377 229.893425 
L 593.335609 229.893425 
L 600.90184 229.893425 
L 608.468072 229.893425 
L 616.034303 229.893425 
L 623.600535 229.893425 
L 631.166766 229.893425 
L 638.732997 229.893425 
L 646.299229 229.893425 
L 653.86546 229.893425 
" clip-path="url(#p20d9981d71)" style="fill: none; stroke: #00ffff; stroke-width: 1.5; stroke-linecap: square"/>
   </g>
   <g id="line2d_18">
    <path d="M -1 228.928414 
L 3.094644 228.605249 
L 10.660875 227.692522 
L 18.227106 226.300774 
L 25.793338 224.19697 
L 33.359569 220.911798 
L 40.925801 215.587554 
L 48.492032 207.075238 
L 56.058264 193.805089 
L 63.624495 174.385356 
L 71.190727 148.654209 
L 78.756958 119.362777 
L 86.323189 92.660651 
L 93.889421 74.050072 
L 101.455652 68.547818 
L 109.021884 75.992042 
L 116.588115 92.822472 
L 124.154347 114.831514 
L 131.720578 137.164199 
L 139.286809 157.231258 
L 146.853041 173.738033 
L 154.419272 186.846351 
L 161.985504 197.041709 
L 169.551735 204.647773 
L 177.117967 210.311861 
L 184.684198 214.697483 
L 192.25043 218.11212 
L 199.816661 220.8147 
L 207.382892 222.837588 
L 214.949124 224.423533 
L 222.515355 225.6049 
L 230.081587 226.527338 
L 237.647818 227.207028 
L 245.21405 227.708705 
L 252.780281 228.113282 
L 260.346512 228.41267 
L 267.912744 228.655417 
L 275.478975 228.857706 
L 283.12012 229.008208 
L 290.686351 229.126345 
L 298.252583 229.242864 
L 305.818814 229.333489 
L 313.385046 229.396603 
L 320.951277 229.472664 
L 328.517509 229.553579 
L 336.08374 229.615075 
L 343.649971 229.660388 
L 351.216203 229.718647 
L 358.782434 229.765578 
L 366.348666 229.800048 
L 373.914897 229.82141 
L 381.481129 229.840344 
L 389.04736 229.854423 
L 396.613591 229.868826 
L 404.179823 229.873034 
L 411.746054 229.87941 
L 419.312286 229.882873 
L 426.878517 229.884993 
L 434.444749 229.886644 
L 442.01098 229.889088 
L 449.577212 229.889492 
L 457.143443 229.891305 
L 464.709674 229.890884 
L 472.275906 229.891924 
L 479.842137 229.892442 
L 487.408369 229.892494 
L 494.9746 229.892805 
L 502.540832 229.892908 
L 510.107063 229.893269 
L 517.673294 229.893166 
L 525.239526 229.893425 
L 532.805757 229.893321 
L 540.371989 229.893321 
L 547.93822 229.893425 
L 555.504452 229.893425 
L 563.070683 229.893425 
L 570.636915 229.893425 
L 578.203146 229.893425 
L 585.769377 229.893425 
L 593.335609 229.893425 
L 600.90184 229.893425 
L 608.468072 229.893425 
L 616.034303 229.893425 
L 623.600535 229.893425 
L 631.166766 229.893425 
L 638.732997 229.893425 
L 646.299229 229.893425 
L 653.86546 229.893425 
" clip-path="url(#p20d9981d71)" style="fill: none; stroke: #a9a9a9; stroke-width: 1.5; stroke-linecap: square"/>
   </g>
   <g id="line2d_19">
    <path d="M -1 229.092549 
L 3.094644 228.781645 
L 10.660875 227.854353 
L 18.227106 226.349324 
L 25.793338 224.213153 
L 33.359569 220.879432 
L 40.925801 215.652287 
L 48.492032 207.398901 
L 56.058264 194.290581 
L 63.624495 175.194513 
L 71.190727 149.787027 
L 78.756958 120.981091 
L 86.323189 94.440787 
L 93.889421 75.344719 
L 101.455652 69.033307 
L 109.021884 75.830208 
L 116.588115 92.336983 
L 124.154347 114.022357 
L 131.720578 136.031386 
L 139.286809 156.098439 
L 146.853041 172.605214 
L 154.419272 186.037194 
L 161.985504 196.070724 
L 169.551735 204.000446 
L 177.117967 209.826367 
L 184.684198 214.325273 
L 192.25043 217.837007 
L 199.816661 220.539587 
L 207.382892 222.659574 
L 214.949124 224.245519 
L 222.515355 225.475435 
L 230.081587 226.414056 
L 237.647818 227.10993 
L 245.21405 227.643972 
L 252.780281 228.064733 
L 260.346512 228.372212 
L 267.912744 228.648943 
L 275.478975 228.870652 
L 283.12012 229.030865 
L 290.686351 229.145765 
L 298.252583 229.26552 
L 305.818814 229.372328 
L 313.385046 229.448389 
L 320.951277 229.517976 
L 328.517509 229.579472 
L 336.08374 229.647441 
L 343.649971 229.687899 
L 351.216203 229.745996 
L 358.782434 229.783541 
L 366.348666 229.817688 
L 373.914897 229.839535 
L 381.481129 229.853129 
L 389.04736 229.864619 
L 396.613591 229.875623 
L 404.179823 229.878212 
L 411.746054 229.883909 
L 419.312286 229.886175 
L 426.878517 229.888246 
L 434.444749 229.888667 
L 442.01098 229.89022 
L 449.577212 229.890317 
L 457.143443 229.89145 
L 464.709674 229.89208 
L 472.275906 229.892287 
L 479.842137 229.8927 
L 487.408369 229.892598 
L 494.9746 229.89301 
L 502.540832 229.893114 
L 510.107063 229.893217 
L 517.673294 229.893321 
L 525.239526 229.893425 
L 532.805757 229.893425 
L 540.371989 229.893425 
L 547.93822 229.893425 
L 555.504452 229.893425 
L 563.070683 229.893425 
L 570.636915 229.893425 
L 578.203146 229.893425 
L 585.769377 229.893425 
L 593.335609 229.893425 
L 600.90184 229.893425 
L 608.468072 229.893425 
L 616.034303 229.893425 
L 623.600535 229.893425 
L 631.166766 229.893425 
L 638.732997 229.893425 
L 646.299229 229.893425 
L 653.86546 229.893425 
" clip-path="url(#p20d9981d71)" style="fill: none; stroke-dasharray: 5.55,2.4; stroke-dashoffset: 0; stroke: #a9a9a9; stroke-width: 1.5"/>
   </g>
   <g id="line2d_20">
    <path d="M -1 229.005446 
L 3.094644 228.712057 
L 10.660875 227.83817 
L 18.227106 226.397873 
L 25.793338 224.213153 
L 33.359569 220.8147 
L 40.925801 215.085878 
L 48.492032 205.942421 
L 56.058264 191.863116 
L 63.624495 172.119718 
L 71.190727 146.226743 
L 78.756958 117.906296 
L 86.323189 91.68966 
L 93.889421 73.888238 
L 101.455652 69.518797 
L 109.021884 77.124855 
L 116.588115 94.764454 
L 124.154347 117.097139 
L 131.720578 138.944341 
L 139.286809 158.525904 
L 146.853041 174.870846 
L 154.419272 187.655505 
L 161.985504 197.365373 
L 169.551735 204.647773 
L 177.117967 210.473692 
L 184.684198 214.778399 
L 192.25043 218.063571 
L 199.816661 220.749967 
L 207.382892 222.691941 
L 214.949124 224.261702 
L 222.515355 225.491619 
L 230.081587 226.349324 
L 237.647818 227.029014 
L 245.21405 227.546874 
L 252.780281 228.016184 
L 260.346512 228.291297 
L 267.912744 228.585829 
L 275.478975 228.768698 
L 283.12012 228.962896 
L 290.686351 229.081032 
L 298.252583 229.197551 
L 305.818814 229.312451 
L 313.385046 229.398221 
L 320.951277 229.472664 
L 328.517509 229.551961 
L 336.08374 229.594037 
L 343.649971 229.666861 
L 351.216203 229.710555 
L 358.782434 229.76137 
L 366.348666 229.799724 
L 373.914897 229.83112 
L 381.481129 229.845361 
L 389.04736 229.860735 
L 396.613591 229.86737 
L 404.179823 229.877905 
L 411.746054 229.881837 
L 419.312286 229.884945 
L 426.878517 229.88721 
L 434.444749 229.888667 
L 442.01098 229.887841 
L 449.577212 229.891353 
L 457.143443 229.890317 
L 464.709674 229.891976 
L 472.275906 229.892596 
L 479.842137 229.89239 
L 487.408369 229.89239 
L 494.9746 229.893217 
L 502.540832 229.89301 
L 510.107063 229.893217 
L 517.673294 229.893425 
L 525.239526 229.89301 
L 532.805757 229.893425 
L 540.371989 229.893425 
L 547.93822 229.893425 
L 555.504452 229.893425 
L 563.070683 229.893425 
L 570.636915 229.893425 
L 578.203146 229.893425 
L 585.769377 229.893425 
L 593.335609 229.893425 
L 600.90184 229.893425 
L 608.468072 229.893425 
L 616.034303 229.893425 
L 623.600535 229.893425 
L 631.166766 229.893425 
L 638.732997 229.893425 
L 646.299229 229.893425 
L 653.86546 229.893425 
" clip-path="url(#p20d9981d71)" style="fill: none; stroke-dasharray: 5.55,2.4; stroke-dashoffset: 0; stroke: #808080; stroke-width: 1.5"/>
   </g>
   <g id="line2d_21">
    <path d="M -1 229.148638 
L 3.094644 228.898163 
L 10.660875 228.178015 
L 18.227106 227.012831 
L 25.793338 225.297421 
L 33.359569 222.319729 
L 40.925801 217.205866 
L 48.492032 208.69355 
L 56.058264 194.937905 
L 63.624495 174.547184 
L 71.190727 147.845051 
L 78.756958 117.744463 
L 86.323189 90.233179 
L 93.889421 71.460767 
L 101.455652 66.444002 
L 109.021884 73.56457 
L 116.588115 91.527826 
L 124.154347 114.346012 
L 131.720578 136.840537 
L 139.286809 157.231258 
L 146.853041 173.899861 
L 154.419272 187.170013 
L 161.985504 197.365373 
L 169.551735 205.133265 
L 177.117967 210.797353 
L 184.684198 215.344808 
L 192.25043 218.58143 
L 199.816661 221.089812 
L 207.382892 223.128884 
L 214.949124 224.714829 
L 222.515355 225.86383 
L 230.081587 226.737718 
L 237.647818 227.417409 
L 245.21405 227.886719 
L 252.780281 228.296152 
L 260.346512 228.563173 
L 267.912744 228.80592 
L 275.478975 228.972606 
L 283.12012 229.116635 
L 290.686351 229.223444 
L 298.252583 229.296268 
L 305.818814 229.369092 
L 313.385046 229.443534 
L 320.951277 229.506648 
L 328.517509 229.579472 
L 336.08374 229.645823 
L 343.649971 229.691136 
L 351.216203 229.732726 
L 358.782434 229.785645 
L 366.348666 229.811538 
L 373.914897 229.836784 
L 381.481129 229.854261 
L 389.04736 229.867693 
L 396.613591 229.875947 
L 404.179823 229.879086 
L 411.746054 229.884799 
L 419.312286 229.887485 
L 426.878517 229.888764 
L 434.444749 229.890528 
L 442.01098 229.892937 
L 449.577212 229.892475 
L 457.143443 229.892937 
L 464.709674 229.893072 
L 472.275906 229.893174 
L 479.842137 229.893425 
L 487.408369 229.893299 
L 494.9746 229.893299 
L 502.540832 229.893306 
L 510.107063 229.893299 
L 517.673294 229.893306 
L 525.239526 229.893299 
L 532.805757 229.893425 
L 540.371989 229.893425 
L 547.93822 229.893425 
L 555.504452 229.893425 
L 563.070683 229.893425 
L 570.636915 229.893425 
L 578.203146 229.893425 
L 585.769377 229.893425 
L 593.335609 229.893425 
L 600.90184 229.893425 
L 608.468072 229.893425 
L 616.034303 229.893425 
L 623.600535 229.893425 
L 631.166766 229.893425 
L 638.732997 229.893425 
L 646.299229 229.893425 
L 653.86546 229.893425 
" clip-path="url(#p20d9981d71)" style="fill: none; stroke: #ffa500; stroke-width: 1.5; stroke-linecap: square"/>
   </g>
   <g id="line2d_22">
    <path d="M -1 229.148638 
L 3.094644 228.898163 
L 10.660875 228.178015 
L 18.227106 227.012831 
L 25.793338 225.297421 
L 33.359569 222.319729 
L 40.925801 217.205866 
L 48.492032 208.69355 
L 56.058264 194.937905 
L 63.624495 174.547184 
L 71.190727 147.845051 
L 78.756958 117.744463 
L 86.323189 90.233179 
L 93.889421 71.460767 
L 101.455652 66.444002 
L 109.021884 73.56457 
L 116.588115 91.527826 
L 124.154347 114.346012 
L 131.720578 136.840537 
L 139.286809 157.231258 
L 146.853041 173.899861 
L 154.419272 187.170013 
L 161.985504 197.365373 
L 169.551735 205.133265 
L 177.117967 210.797353 
L 184.684198 215.344808 
L 192.25043 218.58143 
L 199.816661 221.089812 
L 207.382892 223.128884 
L 214.949124 224.714829 
L 222.515355 225.86383 
L 230.081587 226.737718 
L 237.647818 227.417409 
L 245.21405 227.886719 
L 252.780281 228.296152 
L 260.346512 228.563173 
L 267.912744 228.80592 
L 275.478975 228.972606 
L 283.12012 229.116635 
L 290.686351 229.223444 
L 298.252583 229.296268 
L 305.818814 229.369092 
L 313.385046 229.443534 
L 320.951277 229.506648 
L 328.517509 229.579472 
L 336.08374 229.645823 
L 343.649971 229.691136 
L 351.216203 229.732726 
L 358.782434 229.785645 
L 366.348666 229.811538 
L 373.914897 229.836784 
L 381.481129 229.854261 
L 389.04736 229.867693 
L 396.613591 229.875947 
L 404.179823 229.879086 
L 411.746054 229.884799 
L 419.312286 229.887485 
L 426.878517 229.888764 
L 434.444749 229.890528 
L 442.01098 229.892937 
L 449.577212 229.892475 
L 457.143443 229.892937 
L 464.709674 229.893072 
L 472.275906 229.893174 
L 479.842137 229.893425 
L 487.408369 229.893299 
L 494.9746 229.893299 
L 502.540832 229.893306 
L 510.107063 229.893299 
L 517.673294 229.893306 
L 525.239526 229.893299 
L 532.805757 229.893425 
L 540.371989 229.893425 
L 547.93822 229.893425 
L 555.504452 229.893425 
L 563.070683 229.893425 
L 570.636915 229.893425 
L 578.203146 229.893425 
L 585.769377 229.893425 
L 593.335609 229.893425 
L 600.90184 229.893425 
L 608.468072 229.893425 
L 616.034303 229.893425 
L 623.600535 229.893425 
L 631.166766 229.893425 
L 638.732997 229.893425 
L 646.299229 229.893425 
L 653.86546 229.893425 
" clip-path="url(#p20d9981d71)" style="fill: none; stroke-dasharray: 5.55,2.4; stroke-dashoffset: 0; stroke: #ffa500; stroke-width: 1.5"/>
   </g>
   <g id="line2d_23">
    <path d="M -1 229.206269 
L 3.094644 228.932148 
L 10.660875 228.032367 
L 18.227106 226.624436 
L 25.793338 224.439716 
L 33.359569 220.76615 
L 40.925801 214.810765 
L 48.492032 205.78059 
L 56.058264 192.024947 
L 63.624495 173.090703 
L 71.190727 148.168713 
L 78.756958 120.495602 
L 86.323189 94.602621 
L 93.889421 75.506552 
L 101.455652 68.062316 
L 109.021884 74.050072 
L 116.588115 90.071345 
L 124.154347 112.404042 
L 131.720578 134.898567 
L 139.286809 155.127454 
L 146.853041 172.605214 
L 154.419272 186.522689 
L 161.985504 197.203542 
L 169.551735 205.295096 
L 177.117967 211.282847 
L 184.684198 215.797936 
L 192.25043 219.147839 
L 199.816661 221.850418 
L 207.382892 223.857124 
L 214.949124 225.248872 
L 222.515355 226.414056 
L 230.081587 227.239394 
L 237.647818 227.886719 
L 245.21405 228.333373 
L 252.780281 228.639233 
L 260.346512 228.873889 
L 267.912744 229.087506 
L 275.478975 229.239627 
L 283.12012 229.362619 
L 290.686351 229.453244 
L 298.252583 229.522831 
L 305.818814 229.572999 
L 313.385046 229.615075 
L 320.951277 229.631258 
L 328.517509 229.668479 
L 336.08374 229.678189 
L 343.649971 229.702464 
L 351.216203 229.728357 
L 358.782434 229.745187 
L 366.348666 229.782894 
L 373.914897 229.800372 
L 381.481129 229.822704 
L 389.04736 229.835489 
L 396.613591 229.849892 
L 404.179823 229.865913 
L 411.746054 229.874329 
L 419.312286 229.879976 
L 426.878517 229.881546 
L 434.444749 229.883731 
L 442.01098 229.887841 
L 449.577212 229.887728 
L 457.143443 229.890997 
L 464.709674 229.891483 
L 472.275906 229.892452 
L 479.842137 229.892598 
L 487.408369 229.893046 
L 494.9746 229.893256 
L 502.540832 229.893256 
L 510.107063 229.893425 
L 517.673294 229.893425 
L 525.239526 229.893213 
L 532.805757 229.893425 
L 540.371989 229.893425 
L 547.93822 229.893425 
L 555.504452 229.893425 
L 563.070683 229.893425 
L 570.636915 229.893425 
L 578.203146 229.893425 
L 585.769377 229.893425 
L 593.335609 229.893425 
L 600.90184 229.893425 
L 608.468072 229.893425 
L 616.034303 229.893425 
L 623.600535 229.893425 
L 631.166766 229.893425 
L 638.732997 229.893425 
L 646.299229 229.893425 
L 653.86546 229.893425 
" clip-path="url(#p20d9981d71)" style="fill: none; stroke-dasharray: 1.5,2.475; stroke-dashoffset: 0; stroke: #ffa500; stroke-width: 1.5"/>
   </g>
   <g id="patch_3">
    <path d="M 54.56 238.559481 
L 54.56 47.90625 
" style="fill: none; stroke: #000000; stroke-width: 0.8; stroke-linejoin: miter; stroke-linecap: square"/>
   </g>
   <g id="patch_4">
    <path d="M 354.21273 238.559481 
L 354.21273 47.90625 
" style="fill: none; stroke: #000000; stroke-width: 0.8; stroke-linejoin: miter; stroke-linecap: square"/>
   </g>
   <g id="patch_5">
    <path d="M 54.56 238.559481 
L 354.21273 238.559481 
" style="fill: none; stroke: #000000; stroke-width: 0.8; stroke-linejoin: miter; stroke-linecap: square"/>
   </g>
   <g id="patch_6">
    <path d="M 54.56 47.90625 
L 354.21273 47.90625 
" style="fill: none; stroke: #000000; stroke-width: 0.8; stroke-linejoin: miter; stroke-linecap: square"/>
   </g>
   <g id="text_18">
    <!-- TM-align -->
    <g transform="translate(178.757928 41.90625) scale(0.12 -0.12)">
     <defs>
      <path id="DejaVuSans-2d" d="M 313 2009 
L 1997 2009 
L 1997 1497 
L 313 1497 
L 313 2009 
z
" transform="scale(0.015625)"/>
      <path id="DejaVuSans-61" d="M 2194 1759 
Q 1497 1759 1228 1600 
Q 959 1441 959 1056 
Q 959 750 1161 570 
Q 1363 391 1709 391 
Q 2188 391 2477 730 
Q 2766 1069 2766 1631 
L 2766 1759 
L 2194 1759 
z
M 3341 1997 
L 3341 0 
L 2766 0 
L 2766 531 
Q 2569 213 2275 61 
Q 1981 -91 1556 -91 
Q 1019 -91 701 211 
Q 384 513 384 1019 
Q 384 1609 779 1909 
Q 1175 2209 1959 2209 
L 2766 2209 
L 2766 2266 
Q 2766 2663 2505 2880 
Q 2244 3097 1772 3097 
Q 1472 3097 1187 3025 
Q 903 2953 641 2809 
L 641 3341 
Q 956 3463 1253 3523 
Q 1550 3584 1831 3584 
Q 2591 3584 2966 3190 
Q 3341 2797 3341 1997 
z
" transform="scale(0.015625)"/>
      <path id="DejaVuSans-6c" d="M 603 4863 
L 1178 4863 
L 1178 0 
L 603 0 
L 603 4863 
z
" transform="scale(0.015625)"/>
      <path id="DejaVuSans-69" d="M 603 3500 
L 1178 3500 
L 1178 0 
L 603 0 
L 603 3500 
z
M 603 4863 
L 1178 4863 
L 1178 4134 
L 603 4134 
L 603 4863 
z
" transform="scale(0.015625)"/>
      <path id="DejaVuSans-67" d="M 2906 1791 
Q 2906 2416 2648 2759 
Q 2391 3103 1925 3103 
Q 1463 3103 1205 2759 
Q 947 2416 947 1791 
Q 947 1169 1205 825 
Q 1463 481 1925 481 
Q 2391 481 2648 825 
Q 2906 1169 2906 1791 
z
M 3481 434 
Q 3481 -459 3084 -895 
Q 2688 -1331 1869 -1331 
Q 1566 -1331 1297 -1286 
Q 1028 -1241 775 -1147 
L 775 -588 
Q 1028 -725 1275 -790 
Q 1522 -856 1778 -856 
Q 2344 -856 2625 -561 
Q 2906 -266 2906 331 
L 2906 616 
Q 2728 306 2450 153 
Q 2172 0 1784 0 
Q 1141 0 747 490 
Q 353 981 353 1791 
Q 353 2603 747 3093 
Q 1141 3584 1784 3584 
Q 2172 3584 2450 3431 
Q 2728 3278 2906 2969 
L 2906 3500 
L 3481 3500 
L 3481 434 
z
" transform="scale(0.015625)"/>
      <path id="DejaVuSans-6e" d="M 3513 2113 
L 3513 0 
L 2938 0 
L 2938 2094 
Q 2938 2591 2744 2837 
Q 2550 3084 2163 3084 
Q 1697 3084 1428 2787 
Q 1159 2491 1159 1978 
L 1159 0 
L 581 0 
L 581 3500 
L 1159 3500 
L 1159 2956 
Q 1366 3272 1645 3428 
Q 1925 3584 2291 3584 
Q 2894 3584 3203 3211 
Q 3513 2838 3513 2113 
z
" transform="scale(0.015625)"/>
     </defs>
     <use xlink:href="#DejaVuSans-54"/>
     <use xlink:href="#DejaVuSans-4d" transform="translate(61.083984 0)"/>
     <use xlink:href="#DejaVuSans-2d" transform="translate(147.363281 0)"/>
     <use xlink:href="#DejaVuSans-61" transform="translate(183.447266 0)"/>
     <use xlink:href="#DejaVuSans-6c" transform="translate(244.726562 0)"/>
     <use xlink:href="#DejaVuSans-69" transform="translate(272.509766 0)"/>
     <use xlink:href="#DejaVuSans-67" transform="translate(300.292969 0)"/>
     <use xlink:href="#DejaVuSans-6e" transform="translate(363.769531 0)"/>
    </g>
   </g>
   <g id="legend_1">
    <g id="patch_7">
     <path d="M 253.423668 173.33125 
L 347.21273 173.33125 
Q 349.21273 173.33125 349.21273 171.33125 
L 349.21273 54.90625 
Q 349.21273 52.90625 347.21273 52.90625 
L 253.423668 52.90625 
Q 251.423668 52.90625 251.423668 54.90625 
L 251.423668 171.33125 
Q 251.423668 173.33125 253.423668 173.33125 
z
" style="fill: #ffffff; opacity: 0.8; stroke: #cccccc; stroke-linejoin: miter"/>
    </g>
    <g id="line2d_24">
     <path d="M 255.423668 61.004687 
L 265.423668 61.004687 
L 275.423668 61.004687 
" style="fill: none; stroke: #000000; stroke-width: 1.5; stroke-linecap: square"/>
    </g>
    <g id="text_19">
     <!-- SCOP40 -->
     <g transform="translate(283.423668 64.504687) scale(0.1 -0.1)">
      <defs>
       <path id="DejaVuSans-53" d="M 3425 4513 
L 3425 3897 
Q 3066 4069 2747 4153 
Q 2428 4238 2131 4238 
Q 1616 4238 1336 4038 
Q 1056 3838 1056 3469 
Q 1056 3159 1242 3001 
Q 1428 2844 1947 2747 
L 2328 2669 
Q 3034 2534 3370 2195 
Q 3706 1856 3706 1288 
Q 3706 609 3251 259 
Q 2797 -91 1919 -91 
Q 1588 -91 1214 -16 
Q 841 59 441 206 
L 441 856 
Q 825 641 1194 531 
Q 1563 422 1919 422 
Q 2459 422 2753 634 
Q 3047 847 3047 1241 
Q 3047 1584 2836 1778 
Q 2625 1972 2144 2069 
L 1759 2144 
Q 1053 2284 737 2584 
Q 422 2884 422 3419 
Q 422 4038 858 4394 
Q 1294 4750 2059 4750 
Q 2388 4750 2728 4690 
Q 3069 4631 3425 4513 
z
" transform="scale(0.015625)"/>
       <path id="DejaVuSans-43" d="M 4122 4306 
L 4122 3641 
Q 3803 3938 3442 4084 
Q 3081 4231 2675 4231 
Q 1875 4231 1450 3742 
Q 1025 3253 1025 2328 
Q 1025 1406 1450 917 
Q 1875 428 2675 428 
Q 3081 428 3442 575 
Q 3803 722 4122 1019 
L 4122 359 
Q 3791 134 3420 21 
Q 3050 -91 2638 -91 
Q 1578 -91 968 557 
Q 359 1206 359 2328 
Q 359 3453 968 4101 
Q 1578 4750 2638 4750 
Q 3056 4750 3426 4639 
Q 3797 4528 4122 4306 
z
" transform="scale(0.015625)"/>
       <path id="DejaVuSans-4f" d="M 2522 4238 
Q 1834 4238 1429 3725 
Q 1025 3213 1025 2328 
Q 1025 1447 1429 934 
Q 1834 422 2522 422 
Q 3209 422 3611 934 
Q 4013 1447 4013 2328 
Q 4013 3213 3611 3725 
Q 3209 4238 2522 4238 
z
M 2522 4750 
Q 3503 4750 4090 4092 
Q 4678 3434 4678 2328 
Q 4678 1225 4090 567 
Q 3503 -91 2522 -91 
Q 1538 -91 948 565 
Q 359 1222 359 2328 
Q 359 3434 948 4092 
Q 1538 4750 2522 4750 
z
" transform="scale(0.015625)"/>
      </defs>
      <use xlink:href="#DejaVuSans-53"/>
      <use xlink:href="#DejaVuSans-43" transform="translate(63.476562 0)"/>
      <use xlink:href="#DejaVuSans-4f" transform="translate(133.300781 0)"/>
      <use xlink:href="#DejaVuSans-50" transform="translate(212.011719 0)"/>
      <use xlink:href="#DejaVuSans-34" transform="translate(272.314453 0)"/>
      <use xlink:href="#DejaVuSans-30" transform="translate(335.9375 0)"/>
     </g>
    </g>
    <g id="line2d_25">
     <path d="M 255.423668 75.682813 
L 265.423668 75.682813 
L 275.423668 75.682813 
" style="fill: none; stroke: #00ffff; stroke-width: 1.5; stroke-linecap: square"/>
    </g>
    <g id="text_20">
     <!-- SCOP40c -->
     <g transform="translate(283.423668 79.182813) scale(0.1 -0.1)">
      <use xlink:href="#DejaVuSans-53"/>
      <use xlink:href="#DejaVuSans-43" transform="translate(63.476562 0)"/>
      <use xlink:href="#DejaVuSans-4f" transform="translate(133.300781 0)"/>
      <use xlink:href="#DejaVuSans-50" transform="translate(212.011719 0)"/>
      <use xlink:href="#DejaVuSans-34" transform="translate(272.314453 0)"/>
      <use xlink:href="#DejaVuSans-30" transform="translate(335.9375 0)"/>
      <use xlink:href="#DejaVuSans-63" transform="translate(399.560547 0)"/>
     </g>
    </g>
    <g id="line2d_26">
     <path d="M 255.423668 90.360937 
L 265.423668 90.360937 
L 275.423668 90.360937 
" style="fill: none; stroke: #a9a9a9; stroke-width: 1.5; stroke-linecap: square"/>
    </g>
    <g id="text_21">
     <!-- SCOP40/N2 -->
     <g transform="translate(283.423668 93.860937) scale(0.1 -0.1)">
      <defs>
       <path id="DejaVuSans-2f" d="M 1625 4666 
L 2156 4666 
L 531 -594 
L 0 -594 
L 1625 4666 
z
" transform="scale(0.015625)"/>
       <path id="DejaVuSans-4e" d="M 628 4666 
L 1478 4666 
L 3547 763 
L 3547 4666 
L 4159 4666 
L 4159 0 
L 3309 0 
L 1241 3903 
L 1241 0 
L 628 0 
L 628 4666 
z
" transform="scale(0.015625)"/>
      </defs>
      <use xlink:href="#DejaVuSans-53"/>
      <use xlink:href="#DejaVuSans-43" transform="translate(63.476562 0)"/>
      <use xlink:href="#DejaVuSans-4f" transform="translate(133.300781 0)"/>
      <use xlink:href="#DejaVuSans-50" transform="translate(212.011719 0)"/>
      <use xlink:href="#DejaVuSans-34" transform="translate(272.314453 0)"/>
      <use xlink:href="#DejaVuSans-30" transform="translate(335.9375 0)"/>
      <use xlink:href="#DejaVuSans-2f" transform="translate(399.560547 0)"/>
      <use xlink:href="#DejaVuSans-4e" transform="translate(433.251953 0)"/>
      <use xlink:href="#DejaVuSans-32" transform="translate(508.056641 0)"/>
     </g>
    </g>
    <g id="line2d_27">
     <path d="M 255.423668 105.039062 
L 265.423668 105.039062 
L 275.423668 105.039062 
" style="fill: none; stroke-dasharray: 5.55,2.4; stroke-dashoffset: 0; stroke: #a9a9a9; stroke-width: 1.5"/>
    </g>
    <g id="text_22">
     <!-- SCOP40/N4 -->
     <g transform="translate(283.423668 108.539062) scale(0.1 -0.1)">
      <use xlink:href="#DejaVuSans-53"/>
      <use xlink:href="#DejaVuSans-43" transform="translate(63.476562 0)"/>
      <use xlink:href="#DejaVuSans-4f" transform="translate(133.300781 0)"/>
      <use xlink:href="#DejaVuSans-50" transform="translate(212.011719 0)"/>
      <use xlink:href="#DejaVuSans-34" transform="translate(272.314453 0)"/>
      <use xlink:href="#DejaVuSans-30" transform="translate(335.9375 0)"/>
      <use xlink:href="#DejaVuSans-2f" transform="translate(399.560547 0)"/>
      <use xlink:href="#DejaVuSans-4e" transform="translate(433.251953 0)"/>
      <use xlink:href="#DejaVuSans-34" transform="translate(508.056641 0)"/>
     </g>
    </g>
    <g id="line2d_28">
     <path d="M 255.423668 119.717187 
L 265.423668 119.717187 
L 275.423668 119.717187 
" style="fill: none; stroke-dasharray: 5.55,2.4; stroke-dashoffset: 0; stroke: #808080; stroke-width: 1.5"/>
    </g>
    <g id="text_23">
     <!-- SCOP40/N8 -->
     <g transform="translate(283.423668 123.217187) scale(0.1 -0.1)">
      <use xlink:href="#DejaVuSans-53"/>
      <use xlink:href="#DejaVuSans-43" transform="translate(63.476562 0)"/>
      <use xlink:href="#DejaVuSans-4f" transform="translate(133.300781 0)"/>
      <use xlink:href="#DejaVuSans-50" transform="translate(212.011719 0)"/>
      <use xlink:href="#DejaVuSans-34" transform="translate(272.314453 0)"/>
      <use xlink:href="#DejaVuSans-30" transform="translate(335.9375 0)"/>
      <use xlink:href="#DejaVuSans-2f" transform="translate(399.560547 0)"/>
      <use xlink:href="#DejaVuSans-4e" transform="translate(433.251953 0)"/>
      <use xlink:href="#DejaVuSans-38" transform="translate(508.056641 0)"/>
     </g>
    </g>
    <g id="line2d_29">
     <path d="M 255.423668 134.395312 
L 265.423668 134.395312 
L 275.423668 134.395312 
" style="fill: none; stroke: #ffa500; stroke-width: 1.5; stroke-linecap: square"/>
    </g>
    <g id="text_24">
     <!-- SCOP40/SF2 -->
     <g transform="translate(283.423668 137.895312) scale(0.1 -0.1)">
      <use xlink:href="#DejaVuSans-53"/>
      <use xlink:href="#DejaVuSans-43" transform="translate(63.476562 0)"/>
      <use xlink:href="#DejaVuSans-4f" transform="translate(133.300781 0)"/>
      <use xlink:href="#DejaVuSans-50" transform="translate(212.011719 0)"/>
      <use xlink:href="#DejaVuSans-34" transform="translate(272.314453 0)"/>
      <use xlink:href="#DejaVuSans-30" transform="translate(335.9375 0)"/>
      <use xlink:href="#DejaVuSans-2f" transform="translate(399.560547 0)"/>
      <use xlink:href="#DejaVuSans-53" transform="translate(433.251953 0)"/>
      <use xlink:href="#DejaVuSans-46" transform="translate(496.728516 0)"/>
      <use xlink:href="#DejaVuSans-32" transform="translate(554.248047 0)"/>
     </g>
    </g>
    <g id="line2d_30">
     <path d="M 255.423668 149.073437 
L 265.423668 149.073437 
L 275.423668 149.073437 
" style="fill: none; stroke-dasharray: 5.55,2.4; stroke-dashoffset: 0; stroke: #ffa500; stroke-width: 1.5"/>
    </g>
    <g id="text_25">
     <!-- SCOP40/SF4 -->
     <g transform="translate(283.423668 152.573437) scale(0.1 -0.1)">
      <use xlink:href="#DejaVuSans-53"/>
      <use xlink:href="#DejaVuSans-43" transform="translate(63.476562 0)"/>
      <use xlink:href="#DejaVuSans-4f" transform="translate(133.300781 0)"/>
      <use xlink:href="#DejaVuSans-50" transform="translate(212.011719 0)"/>
      <use xlink:href="#DejaVuSans-34" transform="translate(272.314453 0)"/>
      <use xlink:href="#DejaVuSans-30" transform="translate(335.9375 0)"/>
      <use xlink:href="#DejaVuSans-2f" transform="translate(399.560547 0)"/>
      <use xlink:href="#DejaVuSans-53" transform="translate(433.251953 0)"/>
      <use xlink:href="#DejaVuSans-46" transform="translate(496.728516 0)"/>
      <use xlink:href="#DejaVuSans-34" transform="translate(554.248047 0)"/>
     </g>
    </g>
    <g id="line2d_31">
     <path d="M 255.423668 163.751562 
L 265.423668 163.751562 
L 275.423668 163.751562 
" style="fill: none; stroke-dasharray: 1.5,2.475; stroke-dashoffset: 0; stroke: #ffa500; stroke-width: 1.5"/>
    </g>
    <g id="text_26">
     <!-- SCOP40/SF8 -->
     <g transform="translate(283.423668 167.251562) scale(0.1 -0.1)">
      <use xlink:href="#DejaVuSans-53"/>
      <use xlink:href="#DejaVuSans-43" transform="translate(63.476562 0)"/>
      <use xlink:href="#DejaVuSans-4f" transform="translate(133.300781 0)"/>
      <use xlink:href="#DejaVuSans-50" transform="translate(212.011719 0)"/>
      <use xlink:href="#DejaVuSans-34" transform="translate(272.314453 0)"/>
      <use xlink:href="#DejaVuSans-30" transform="translate(335.9375 0)"/>
      <use xlink:href="#DejaVuSans-2f" transform="translate(399.560547 0)"/>
      <use xlink:href="#DejaVuSans-53" transform="translate(433.251953 0)"/>
      <use xlink:href="#DejaVuSans-46" transform="translate(496.728516 0)"/>
      <use xlink:href="#DejaVuSans-38" transform="translate(554.248047 0)"/>
     </g>
    </g>
   </g>
  </g>
  <g id="axes_2">
   <g id="patch_8">
    <path d="M 421.613076 238.559481 
L 721.265806 238.559481 
L 721.265806 47.90625 
L 421.613076 47.90625 
z
" style="fill: #ffffff"/>
   </g>
   <g id="matplotlib.axis_3">
    <g id="xtick_10">
     <g id="line2d_32">
      <g>
       <use xlink:href="#ma845b8cbf2" x="421.613076" y="238.559481" style="stroke: #000000; stroke-width: 0.8"/>
      </g>
     </g>
     <g id="text_27">
      <!-- 0.20 -->
      <g transform="translate(410.480264 253.157918) scale(0.1 -0.1)">
       <use xlink:href="#DejaVuSans-30"/>
       <use xlink:href="#DejaVuSans-2e" transform="translate(63.623047 0)"/>
       <use xlink:href="#DejaVuSans-32" transform="translate(95.410156 0)"/>
       <use xlink:href="#DejaVuSans-30" transform="translate(159.033203 0)"/>
      </g>
     </g>
    </g>
    <g id="xtick_11">
     <g id="line2d_33">
      <g>
       <use xlink:href="#ma845b8cbf2" x="459.069668" y="238.559481" style="stroke: #000000; stroke-width: 0.8"/>
      </g>
     </g>
     <g id="text_28">
      <!-- 0.25 -->
      <g transform="translate(447.936855 253.157918) scale(0.1 -0.1)">
       <use xlink:href="#DejaVuSans-30"/>
       <use xlink:href="#DejaVuSans-2e" transform="translate(63.623047 0)"/>
       <use xlink:href="#DejaVuSans-32" transform="translate(95.410156 0)"/>
       <use xlink:href="#DejaVuSans-35" transform="translate(159.033203 0)"/>
      </g>
     </g>
    </g>
    <g id="xtick_12">
     <g id="line2d_34">
      <g>
       <use xlink:href="#ma845b8cbf2" x="496.526259" y="238.559481" style="stroke: #000000; stroke-width: 0.8"/>
      </g>
     </g>
     <g id="text_29">
      <!-- 0.30 -->
      <g transform="translate(485.393446 253.157918) scale(0.1 -0.1)">
       <use xlink:href="#DejaVuSans-30"/>
       <use xlink:href="#DejaVuSans-2e" transform="translate(63.623047 0)"/>
       <use xlink:href="#DejaVuSans-33" transform="translate(95.410156 0)"/>
       <use xlink:href="#DejaVuSans-30" transform="translate(159.033203 0)"/>
      </g>
     </g>
    </g>
    <g id="xtick_13">
     <g id="line2d_35">
      <g>
       <use xlink:href="#ma845b8cbf2" x="533.98285" y="238.559481" style="stroke: #000000; stroke-width: 0.8"/>
      </g>
     </g>
     <g id="text_30">
      <!-- 0.35 -->
      <g transform="translate(522.850038 253.157918) scale(0.1 -0.1)">
       <use xlink:href="#DejaVuSans-30"/>
       <use xlink:href="#DejaVuSans-2e" transform="translate(63.623047 0)"/>
       <use xlink:href="#DejaVuSans-33" transform="translate(95.410156 0)"/>
       <use xlink:href="#DejaVuSans-35" transform="translate(159.033203 0)"/>
      </g>
     </g>
    </g>
    <g id="xtick_14">
     <g id="line2d_36">
      <g>
       <use xlink:href="#ma845b8cbf2" x="571.439441" y="238.559481" style="stroke: #000000; stroke-width: 0.8"/>
      </g>
     </g>
     <g id="text_31">
      <!-- 0.40 -->
      <g transform="translate(560.306629 253.157918) scale(0.1 -0.1)">
       <use xlink:href="#DejaVuSans-30"/>
       <use xlink:href="#DejaVuSans-2e" transform="translate(63.623047 0)"/>
       <use xlink:href="#DejaVuSans-34" transform="translate(95.410156 0)"/>
       <use xlink:href="#DejaVuSans-30" transform="translate(159.033203 0)"/>
      </g>
     </g>
    </g>
    <g id="xtick_15">
     <g id="line2d_37">
      <g>
       <use xlink:href="#ma845b8cbf2" x="608.896033" y="238.559481" style="stroke: #000000; stroke-width: 0.8"/>
      </g>
     </g>
     <g id="text_32">
      <!-- 0.45 -->
      <g transform="translate(597.76322 253.157918) scale(0.1 -0.1)">
       <use xlink:href="#DejaVuSans-30"/>
       <use xlink:href="#DejaVuSans-2e" transform="translate(63.623047 0)"/>
       <use xlink:href="#DejaVuSans-34" transform="translate(95.410156 0)"/>
       <use xlink:href="#DejaVuSans-35" transform="translate(159.033203 0)"/>
      </g>
     </g>
    </g>
    <g id="xtick_16">
     <g id="line2d_38">
      <g>
       <use xlink:href="#ma845b8cbf2" x="646.352624" y="238.559481" style="stroke: #000000; stroke-width: 0.8"/>
      </g>
     </g>
     <g id="text_33">
      <!-- 0.50 -->
      <g transform="translate(635.219811 253.157918) scale(0.1 -0.1)">
       <use xlink:href="#DejaVuSans-30"/>
       <use xlink:href="#DejaVuSans-2e" transform="translate(63.623047 0)"/>
       <use xlink:href="#DejaVuSans-35" transform="translate(95.410156 0)"/>
       <use xlink:href="#DejaVuSans-30" transform="translate(159.033203 0)"/>
      </g>
     </g>
    </g>
    <g id="xtick_17">
     <g id="line2d_39">
      <g>
       <use xlink:href="#ma845b8cbf2" x="683.809215" y="238.559481" style="stroke: #000000; stroke-width: 0.8"/>
      </g>
     </g>
     <g id="text_34">
      <!-- 0.55 -->
      <g transform="translate(672.676403 253.157918) scale(0.1 -0.1)">
       <use xlink:href="#DejaVuSans-30"/>
       <use xlink:href="#DejaVuSans-2e" transform="translate(63.623047 0)"/>
       <use xlink:href="#DejaVuSans-35" transform="translate(95.410156 0)"/>
       <use xlink:href="#DejaVuSans-35" transform="translate(159.033203 0)"/>
      </g>
     </g>
    </g>
    <g id="xtick_18">
     <g id="line2d_40">
      <g>
       <use xlink:href="#ma845b8cbf2" x="721.265806" y="238.559481" style="stroke: #000000; stroke-width: 0.8"/>
      </g>
     </g>
     <g id="text_35">
      <!-- 0.60 -->
      <g transform="translate(710.132994 253.157918) scale(0.1 -0.1)">
       <use xlink:href="#DejaVuSans-30"/>
       <use xlink:href="#DejaVuSans-2e" transform="translate(63.623047 0)"/>
       <use xlink:href="#DejaVuSans-36" transform="translate(95.410156 0)"/>
       <use xlink:href="#DejaVuSans-30" transform="translate(159.033203 0)"/>
      </g>
     </g>
    </g>
    <g id="text_36">
     <!-- TM score -->
     <g transform="translate(549.049598 266.836043) scale(0.1 -0.1)">
      <use xlink:href="#DejaVuSans-54"/>
      <use xlink:href="#DejaVuSans-4d" transform="translate(61.083984 0)"/>
      <use xlink:href="#DejaVuSans-20" transform="translate(147.363281 0)"/>
      <use xlink:href="#DejaVuSans-73" transform="translate(179.150391 0)"/>
      <use xlink:href="#DejaVuSans-63" transform="translate(231.25 0)"/>
      <use xlink:href="#DejaVuSans-6f" transform="translate(286.230469 0)"/>
      <use xlink:href="#DejaVuSans-72" transform="translate(347.412109 0)"/>
      <use xlink:href="#DejaVuSans-65" transform="translate(386.275391 0)"/>
     </g>
    </g>
   </g>
   <g id="matplotlib.axis_4">
    <g id="ytick_7">
     <g id="line2d_41">
      <g>
       <use xlink:href="#m827a79682b" x="421.613076" y="238.559481" style="stroke: #000000; stroke-width: 0.8"/>
      </g>
     </g>
     <g id="text_37">
      <!-- $\mathdefault{10^{-3}}$ -->
      <g transform="translate(391.113076 242.358699) scale(0.1 -0.1)">
       <defs>
        <path id="DejaVuSans-2212" d="M 678 2272 
L 4684 2272 
L 4684 1741 
L 678 1741 
L 678 2272 
z
" transform="scale(0.015625)"/>
       </defs>
       <use xlink:href="#DejaVuSans-31" transform="translate(0 0.765625)"/>
       <use xlink:href="#DejaVuSans-30" transform="translate(63.623047 0.765625)"/>
       <use xlink:href="#DejaVuSans-2212" transform="translate(128.203125 39.046875) scale(0.7)"/>
       <use xlink:href="#DejaVuSans-33" transform="translate(186.855469 39.046875) scale(0.7)"/>
      </g>
     </g>
    </g>
    <g id="ytick_8">
     <g id="line2d_42">
      <g>
       <use xlink:href="#m827a79682b" x="421.613076" y="180.803801" style="stroke: #000000; stroke-width: 0.8"/>
      </g>
     </g>
     <g id="text_38">
      <!-- $\mathdefault{10^{-2}}$ -->
      <g transform="translate(391.113076 184.60302) scale(0.1 -0.1)">
       <use xlink:href="#DejaVuSans-31" transform="translate(0 0.765625)"/>
       <use xlink:href="#DejaVuSans-30" transform="translate(63.623047 0.765625)"/>
       <use xlink:href="#DejaVuSans-2212" transform="translate(128.203125 39.046875) scale(0.7)"/>
       <use xlink:href="#DejaVuSans-32" transform="translate(186.855469 39.046875) scale(0.7)"/>
      </g>
     </g>
    </g>
    <g id="ytick_9">
     <g id="line2d_43">
      <g>
       <use xlink:href="#m827a79682b" x="421.613076" y="123.048121" style="stroke: #000000; stroke-width: 0.8"/>
      </g>
     </g>
     <g id="text_39">
      <!-- $\mathdefault{10^{-1}}$ -->
      <g transform="translate(391.113076 126.84734) scale(0.1 -0.1)">
       <use xlink:href="#DejaVuSans-31" transform="translate(0 0.684375)"/>
       <use xlink:href="#DejaVuSans-30" transform="translate(63.623047 0.684375)"/>
       <use xlink:href="#DejaVuSans-2212" transform="translate(128.203125 38.965625) scale(0.7)"/>
       <use xlink:href="#DejaVuSans-31" transform="translate(186.855469 38.965625) scale(0.7)"/>
      </g>
     </g>
    </g>
    <g id="ytick_10">
     <g id="line2d_44">
      <g>
       <use xlink:href="#m827a79682b" x="421.613076" y="65.292442" style="stroke: #000000; stroke-width: 0.8"/>
      </g>
     </g>
     <g id="text_40">
      <!-- $\mathdefault{10^{0}}$ -->
      <g transform="translate(397.013076 69.091661) scale(0.1 -0.1)">
       <use xlink:href="#DejaVuSans-31" transform="translate(0 0.765625)"/>
       <use xlink:href="#DejaVuSans-30" transform="translate(63.623047 0.765625)"/>
       <use xlink:href="#DejaVuSans-30" transform="translate(128.203125 39.046875) scale(0.7)"/>
      </g>
     </g>
    </g>
    <g id="ytick_11">
     <g id="line2d_45">
      <defs>
       <path id="m5f85e437c7" d="M 0 0 
L -2 0 
" style="stroke: #000000; stroke-width: 0.6"/>
      </defs>
      <g>
       <use xlink:href="#m5f85e437c7" x="421.613076" y="221.173289" style="stroke: #000000; stroke-width: 0.6"/>
      </g>
     </g>
    </g>
    <g id="ytick_12">
     <g id="line2d_46">
      <g>
       <use xlink:href="#m5f85e437c7" x="421.613076" y="211.003018" style="stroke: #000000; stroke-width: 0.6"/>
      </g>
     </g>
    </g>
    <g id="ytick_13">
     <g id="line2d_47">
      <g>
       <use xlink:href="#m5f85e437c7" x="421.613076" y="203.787097" style="stroke: #000000; stroke-width: 0.6"/>
      </g>
     </g>
    </g>
    <g id="ytick_14">
     <g id="line2d_48">
      <g>
       <use xlink:href="#m5f85e437c7" x="421.613076" y="198.189993" style="stroke: #000000; stroke-width: 0.6"/>
      </g>
     </g>
    </g>
    <g id="ytick_15">
     <g id="line2d_49">
      <g>
       <use xlink:href="#m5f85e437c7" x="421.613076" y="193.616826" style="stroke: #000000; stroke-width: 0.6"/>
      </g>
     </g>
    </g>
    <g id="ytick_16">
     <g id="line2d_50">
      <g>
       <use xlink:href="#m5f85e437c7" x="421.613076" y="189.750269" style="stroke: #000000; stroke-width: 0.6"/>
      </g>
     </g>
    </g>
    <g id="ytick_17">
     <g id="line2d_51">
      <g>
       <use xlink:href="#m5f85e437c7" x="421.613076" y="186.400905" style="stroke: #000000; stroke-width: 0.6"/>
      </g>
     </g>
    </g>
    <g id="ytick_18">
     <g id="line2d_52">
      <g>
       <use xlink:href="#m5f85e437c7" x="421.613076" y="183.446556" style="stroke: #000000; stroke-width: 0.6"/>
      </g>
     </g>
    </g>
    <g id="ytick_19">
     <g id="line2d_53">
      <g>
       <use xlink:href="#m5f85e437c7" x="421.613076" y="163.417609" style="stroke: #000000; stroke-width: 0.6"/>
      </g>
     </g>
    </g>
    <g id="ytick_20">
     <g id="line2d_54">
      <g>
       <use xlink:href="#m5f85e437c7" x="421.613076" y="153.247339" style="stroke: #000000; stroke-width: 0.6"/>
      </g>
     </g>
    </g>
    <g id="ytick_21">
     <g id="line2d_55">
      <g>
       <use xlink:href="#m5f85e437c7" x="421.613076" y="146.031417" style="stroke: #000000; stroke-width: 0.6"/>
      </g>
     </g>
    </g>
    <g id="ytick_22">
     <g id="line2d_56">
      <g>
       <use xlink:href="#m5f85e437c7" x="421.613076" y="140.434313" style="stroke: #000000; stroke-width: 0.6"/>
      </g>
     </g>
    </g>
    <g id="ytick_23">
     <g id="line2d_57">
      <g>
       <use xlink:href="#m5f85e437c7" x="421.613076" y="135.861147" style="stroke: #000000; stroke-width: 0.6"/>
      </g>
     </g>
    </g>
    <g id="ytick_24">
     <g id="line2d_58">
      <g>
       <use xlink:href="#m5f85e437c7" x="421.613076" y="131.994589" style="stroke: #000000; stroke-width: 0.6"/>
      </g>
     </g>
    </g>
    <g id="ytick_25">
     <g id="line2d_59">
      <g>
       <use xlink:href="#m5f85e437c7" x="421.613076" y="128.645225" style="stroke: #000000; stroke-width: 0.6"/>
      </g>
     </g>
    </g>
    <g id="ytick_26">
     <g id="line2d_60">
      <g>
       <use xlink:href="#m5f85e437c7" x="421.613076" y="125.690876" style="stroke: #000000; stroke-width: 0.6"/>
      </g>
     </g>
    </g>
    <g id="ytick_27">
     <g id="line2d_61">
      <g>
       <use xlink:href="#m5f85e437c7" x="421.613076" y="105.66193" style="stroke: #000000; stroke-width: 0.6"/>
      </g>
     </g>
    </g>
    <g id="ytick_28">
     <g id="line2d_62">
      <g>
       <use xlink:href="#m5f85e437c7" x="421.613076" y="95.491659" style="stroke: #000000; stroke-width: 0.6"/>
      </g>
     </g>
    </g>
    <g id="ytick_29">
     <g id="line2d_63">
      <g>
       <use xlink:href="#m5f85e437c7" x="421.613076" y="88.275738" style="stroke: #000000; stroke-width: 0.6"/>
      </g>
     </g>
    </g>
    <g id="ytick_30">
     <g id="line2d_64">
      <g>
       <use xlink:href="#m5f85e437c7" x="421.613076" y="82.678634" style="stroke: #000000; stroke-width: 0.6"/>
      </g>
     </g>
    </g>
    <g id="ytick_31">
     <g id="line2d_65">
      <g>
       <use xlink:href="#m5f85e437c7" x="421.613076" y="78.105467" style="stroke: #000000; stroke-width: 0.6"/>
      </g>
     </g>
    </g>
    <g id="ytick_32">
     <g id="line2d_66">
      <g>
       <use xlink:href="#m5f85e437c7" x="421.613076" y="74.23891" style="stroke: #000000; stroke-width: 0.6"/>
      </g>
     </g>
    </g>
    <g id="ytick_33">
     <g id="line2d_67">
      <g>
       <use xlink:href="#m5f85e437c7" x="421.613076" y="70.889546" style="stroke: #000000; stroke-width: 0.6"/>
      </g>
     </g>
    </g>
    <g id="ytick_34">
     <g id="line2d_68">
      <g>
       <use xlink:href="#m5f85e437c7" x="421.613076" y="67.935197" style="stroke: #000000; stroke-width: 0.6"/>
      </g>
     </g>
    </g>
    <g id="ytick_35">
     <g id="line2d_69">
      <g>
       <use xlink:href="#m5f85e437c7" x="421.613076" y="47.90625" style="stroke: #000000; stroke-width: 0.6"/>
      </g>
     </g>
    </g>
    <g id="text_41">
     <!-- P(score|F) -->
     <g transform="translate(384.755264 168.14224) rotate(-90) scale(0.1 -0.1)">
      <use xlink:href="#DejaVuSans-50"/>
      <use xlink:href="#DejaVuSans-28" transform="translate(60.302734 0)"/>
      <use xlink:href="#DejaVuSans-73" transform="translate(99.316406 0)"/>
      <use xlink:href="#DejaVuSans-63" transform="translate(151.416016 0)"/>
      <use xlink:href="#DejaVuSans-6f" transform="translate(206.396484 0)"/>
      <use xlink:href="#DejaVuSans-72" transform="translate(267.578125 0)"/>
      <use xlink:href="#DejaVuSans-65" transform="translate(306.441406 0)"/>
      <use xlink:href="#DejaVuSans-7c" transform="translate(367.964844 0)"/>
      <use xlink:href="#DejaVuSans-46" transform="translate(401.65625 0)"/>
      <use xlink:href="#DejaVuSans-29" transform="translate(459.175781 0)"/>
     </g>
    </g>
   </g>
   <g id="line2d_70">
    <path d="M 354.59203 281.519481 
L 355.015257 280.268418 
L 362.581488 261.311826 
L 370.14772 245.456377 
L 377.713951 231.481897 
L 385.280183 218.431651 
L 392.846414 206.408958 
L 400.412646 194.662547 
L 407.978877 182.95258 
L 415.545109 171.501187 
L 423.11134 160.175074 
L 430.677571 149.596706 
L 438.243803 140.224496 
L 445.810034 132.681142 
L 453.376266 127.27553 
L 460.942497 124.108665 
L 468.508729 123.236952 
L 476.07496 124.398157 
L 483.641191 127.329024 
L 491.207423 131.716639 
L 498.773654 137.073038 
L 506.339886 143.093797 
L 513.906117 149.546156 
L 521.472349 156.226783 
L 529.03858 162.859498 
L 536.604811 169.489484 
L 544.171043 175.98105 
L 551.737274 182.35582 
L 559.303506 188.646194 
L 566.869737 195.119973 
L 574.435969 201.35087 
L 582.0022 207.701776 
L 589.568432 213.926032 
L 597.134663 219.889836 
L 604.700894 225.412575 
L 612.267126 230.791581 
L 619.833357 235.784137 
L 627.399589 240.412156 
L 634.96582 245.06322 
L 642.532052 249.465331 
L 650.173196 253.623512 
L 657.739428 257.679802 
L 665.305659 261.605561 
L 672.871891 265.560284 
L 680.438122 269.505472 
L 688.004353 273.251728 
L 695.570585 278.469174 
L 700.273109 281.519481 
" clip-path="url(#p4418cee344)" style="fill: none; stroke: #000000; stroke-width: 1.5; stroke-linecap: square"/>
   </g>
   <g id="line2d_71">
    <path d="M 364.7289 281.519481 
L 370.14772 274.366256 
L 377.713951 264.311261 
L 385.280183 252.80916 
L 392.846414 239.375259 
L 400.412646 223.428868 
L 407.978877 205.607386 
L 415.545109 187.882976 
L 423.11134 170.919428 
L 430.677571 156.029832 
L 438.243803 143.612267 
L 445.810034 133.926864 
L 453.376266 127.074463 
L 460.942497 122.873153 
L 468.508729 121.32761 
L 476.07496 122.088479 
L 483.641191 124.844149 
L 491.207423 129.209623 
L 498.773654 134.701128 
L 506.339886 140.976916 
L 513.906117 147.831486 
L 521.472349 154.986845 
L 529.03858 162.193807 
L 536.604811 169.409728 
L 544.171043 176.52499 
L 551.737274 183.51074 
L 559.303506 190.235084 
L 566.869737 197.143592 
L 574.435969 203.755763 
L 582.0022 210.621332 
L 589.568432 217.472107 
L 597.134663 223.941773 
L 604.700894 230.155614 
L 612.267126 235.941822 
L 619.833357 241.765921 
L 627.399589 246.816764 
L 634.96582 251.418533 
L 642.532052 255.601893 
L 650.173196 259.004332 
L 657.739428 262.697695 
L 665.305659 265.901152 
L 672.871891 269.019238 
L 680.438122 272.561235 
L 688.004353 275.554534 
L 695.570585 279.835603 
L 697.962955 281.519481 
" clip-path="url(#p4418cee344)" style="fill: none; stroke: #00ffff; stroke-width: 1.5; stroke-linecap: square"/>
   </g>
   <g id="line2d_72">
    <path d="M 354.460569 281.519481 
L 355.015257 279.822604 
L 362.581488 259.90437 
L 370.14772 244.282313 
L 377.713951 230.84685 
L 385.280183 218.55563 
L 392.846414 206.993537 
L 400.412646 195.572334 
L 407.978877 183.896486 
L 415.545109 172.185549 
L 423.11134 160.687218 
L 430.677571 149.887526 
L 438.243803 140.334181 
L 445.810034 132.611266 
L 453.376266 127.183668 
L 460.942497 123.993797 
L 468.508729 123.123484 
L 476.07496 124.30832 
L 483.641191 127.213263 
L 491.207423 131.603495 
L 498.773654 137.016065 
L 506.339886 143.13287 
L 513.906117 149.596706 
L 521.472349 156.264474 
L 529.03858 163.044157 
L 536.604811 169.649759 
L 544.171043 176.022476 
L 551.737274 182.382518 
L 559.303506 188.766497 
L 566.869737 195.302622 
L 574.435969 201.625503 
L 582.0022 208.011538 
L 589.568432 214.114628 
L 597.134663 220.189516 
L 604.700894 225.846989 
L 612.267126 231.031965 
L 619.833357 236.168818 
L 627.399589 240.787632 
L 634.96582 245.278693 
L 642.532052 249.753688 
L 650.173196 253.692202 
L 657.739428 257.285123 
L 665.305659 261.417673 
L 672.871891 265.180455 
L 680.438122 268.180151 
L 688.004353 272.348092 
L 695.570585 277.705166 
L 701.334641 281.519481 
" clip-path="url(#p4418cee344)" style="fill: none; stroke: #a9a9a9; stroke-width: 1.5; stroke-linecap: square"/>
   </g>
   <g id="line2d_73">
    <path d="M 356.867919 281.519481 
L 362.581488 266.216476 
L 370.14772 247.976155 
L 377.713951 232.762511 
L 385.280183 218.8969 
L 392.846414 207.064898 
L 400.412646 195.482107 
L 407.978877 184.010242 
L 415.545109 172.543885 
L 423.11134 161.026947 
L 430.677571 150.255859 
L 438.243803 140.686406 
L 445.810034 132.981229 
L 453.376266 127.511165 
L 460.942497 124.20304 
L 468.508729 123.199073 
L 476.07496 124.281958 
L 483.641191 127.124579 
L 491.207423 131.427719 
L 498.773654 136.711499 
L 506.339886 142.744838 
L 513.906117 149.095745 
L 521.472349 155.797365 
L 529.03858 162.313535 
L 536.604811 169.014712 
L 544.171043 175.408167 
L 551.737274 181.775537 
L 559.303506 188.187503 
L 566.869737 194.553821 
L 574.435969 201.000527 
L 582.0022 207.208229 
L 589.568432 213.36861 
L 597.134663 219.359271 
L 604.700894 224.956376 
L 612.267126 230.299564 
L 619.833357 235.493899 
L 627.399589 240.1115 
L 634.96582 245.147883 
L 642.532052 250.069202 
L 650.173196 254.342537 
L 657.739428 257.928311 
L 665.305659 262.306785 
L 672.871891 266.983599 
L 680.438122 270.941202 
L 688.004353 275.206152 
L 695.570585 279.692976 
L 697.828831 281.519481 
" clip-path="url(#p4418cee344)" style="fill: none; stroke-dasharray: 5.55,2.4; stroke-dashoffset: 0; stroke: #a9a9a9; stroke-width: 1.5"/>
   </g>
   <g id="line2d_74">
    <path d="M 355.644291 281.519481 
L 362.581488 261.858289 
L 370.14772 246.453361 
L 377.713951 232.564226 
L 385.280183 219.242878 
L 392.846414 207.064898 
L 400.412646 195.302622 
L 407.978877 183.031951 
L 415.545109 170.97022 
L 423.11134 159.372525 
L 430.677571 148.884072 
L 438.243803 139.59567 
L 445.810034 132.282902 
L 453.376266 127.006819 
L 460.942497 123.967763 
L 468.508729 123.27489 
L 476.07496 124.49363 
L 483.641191 127.571173 
L 491.207423 132.102318 
L 498.773654 137.50227 
L 506.339886 143.583812 
L 513.906117 150.107874 
L 521.472349 156.740445 
L 529.03858 163.292507 
L 536.604811 169.649759 
L 544.171043 176.230634 
L 551.737274 182.516436 
L 559.303506 188.663346 
L 566.869737 195.124411 
L 574.435969 201.113008 
L 582.0022 207.280204 
L 589.568432 213.460658 
L 597.134663 218.8969 
L 604.700894 224.237616 
L 612.267126 229.239562 
L 619.833357 234.836666 
L 627.399589 238.811574 
L 634.96582 243.907001 
L 642.532052 247.685756 
L 650.173196 252.440027 
L 657.739428 255.845542 
L 665.305659 259.72876 
L 672.871891 264.255303 
L 680.438122 268.261989 
L 688.004353 272.348092 
L 695.570585 277.586006 
L 703.136816 280.884476 
L 703.824074 281.519481 
" clip-path="url(#p4418cee344)" style="fill: none; stroke-dasharray: 5.55,2.4; stroke-dashoffset: 0; stroke: #808080; stroke-width: 1.5"/>
   </g>
   <g id="line2d_75">
    <path d="M 356.641932 281.519481 
L 362.581488 266.444159 
L 370.14772 250.753141 
L 377.713951 237.097922 
L 385.280183 224.096302 
L 392.846414 212.377772 
L 400.412646 199.848977 
L 407.978877 186.907648 
L 415.545109 174.030717 
L 423.11134 161.487197 
L 430.677571 149.960759 
L 438.243803 140.085587 
L 445.810034 132.246681 
L 453.376266 126.743861 
L 460.942497 123.580473 
L 468.508729 122.798537 
L 476.07496 123.915777 
L 483.641191 126.977464 
L 491.207423 131.49788 
L 498.773654 136.928668 
L 506.339886 143.13287 
L 513.906117 149.669094 
L 521.472349 156.45378 
L 529.03858 163.292507 
L 536.604811 170.136822 
L 544.171043 176.652206 
L 551.737274 183.474441 
L 559.303506 189.786127 
L 566.869737 196.074466 
L 574.435969 202.683021 
L 582.0022 209.384201 
L 589.568432 215.676717 
L 597.134663 221.808335 
L 604.700894 227.892501 
L 612.267126 233.163847 
L 619.833357 238.887699 
L 627.399589 243.476117 
L 634.96582 248.529886 
L 642.532052 252.703137 
L 650.173196 256.96961 
L 657.739428 260.679886 
L 665.305659 263.566168 
L 672.871891 266.828287 
L 680.438122 270.669052 
L 688.004353 274.460532 
L 695.570585 279.692976 
L 697.891202 281.519481 
" clip-path="url(#p4418cee344)" style="fill: none; stroke: #ffa500; stroke-width: 1.5; stroke-linecap: square"/>
   </g>
   <g id="line2d_76">
    <path d="M 356.641932 281.519481 
L 362.581488 266.444159 
L 370.14772 250.753141 
L 377.713951 237.097922 
L 385.280183 224.096302 
L 392.846414 212.377772 
L 400.412646 199.848977 
L 407.978877 186.907648 
L 415.545109 174.030717 
L 423.11134 161.487197 
L 430.677571 149.960759 
L 438.243803 140.085587 
L 445.810034 132.246681 
L 453.376266 126.743861 
L 460.942497 123.580473 
L 468.508729 122.798537 
L 476.07496 123.915777 
L 483.641191 126.977464 
L 491.207423 131.49788 
L 498.773654 136.928668 
L 506.339886 143.13287 
L 513.906117 149.669094 
L 521.472349 156.45378 
L 529.03858 163.292507 
L 536.604811 170.136822 
L 544.171043 176.652206 
L 551.737274 183.474441 
L 559.303506 189.786127 
L 566.869737 196.074466 
L 574.435969 202.683021 
L 582.0022 209.384201 
L 589.568432 215.676717 
L 597.134663 221.808335 
L 604.700894 227.892501 
L 612.267126 233.163847 
L 619.833357 238.887699 
L 627.399589 243.476117 
L 634.96582 248.529886 
L 642.532052 252.703137 
L 650.173196 256.96961 
L 657.739428 260.679886 
L 665.305659 263.566168 
L 672.871891 266.828287 
L 680.438122 270.669052 
L 688.004353 274.460532 
L 695.570585 279.692976 
L 697.891202 281.519481 
" clip-path="url(#p4418cee344)" style="fill: none; stroke-dasharray: 5.55,2.4; stroke-dashoffset: 0; stroke: #ffa500; stroke-width: 1.5"/>
   </g>
   <g id="line2d_77">
    <path d="M 358.790396 281.519481 
L 362.581488 270.399823 
L 370.14772 251.624599 
L 377.713951 235.053835 
L 385.280183 220.923705 
L 392.846414 208.085857 
L 400.412646 195.168845 
L 407.978877 182.570205 
L 415.545109 170.801311 
L 423.11134 159.479489 
L 430.677571 149.309217 
L 438.243803 140.184729 
L 445.810034 132.869667 
L 453.376266 127.541151 
L 460.942497 124.229319 
L 468.508729 123.048121 
L 476.07496 123.993797 
L 483.641191 126.714813 
L 491.207423 131.079822 
L 498.773654 136.410586 
L 506.339886 142.416952 
L 513.906117 149.095745 
L 521.472349 156.076586 
L 529.03858 163.168026 
L 536.604811 170.301301 
L 544.171043 177.298156 
L 551.737274 184.268094 
L 559.303506 191.074605 
L 566.869737 198.340943 
L 574.435969 205.540048 
L 582.0022 212.114201 
L 589.568432 219.359271 
L 597.134663 226.151028 
L 604.700894 233.163847 
L 612.267126 239.479122 
L 619.833357 244.952935 
L 627.399589 250.148702 
L 634.96582 256.046205 
L 642.532052 261.293193 
L 650.173196 266.520516 
L 657.739428 271.216337 
L 665.305659 275.532618 
L 672.871891 279.181061 
L 677.882668 281.519481 
" clip-path="url(#p4418cee344)" style="fill: none; stroke-dasharray: 1.5,2.475; stroke-dashoffset: 0; stroke: #ffa500; stroke-width: 1.5"/>
   </g>
   <g id="patch_9">
    <path d="M 421.613076 238.559481 
L 421.613076 47.90625 
" style="fill: none; stroke: #000000; stroke-width: 0.8; stroke-linejoin: miter; stroke-linecap: square"/>
   </g>
   <g id="patch_10">
    <path d="M 721.265806 238.559481 
L 721.265806 47.90625 
" style="fill: none; stroke: #000000; stroke-width: 0.8; stroke-linejoin: miter; stroke-linecap: square"/>
   </g>
   <g id="patch_11">
    <path d="M 421.613076 238.559481 
L 721.265806 238.559481 
" style="fill: none; stroke: #000000; stroke-width: 0.8; stroke-linejoin: miter; stroke-linecap: square"/>
   </g>
   <g id="patch_12">
    <path d="M 421.613076 47.90625 
L 721.265806 47.90625 
" style="fill: none; stroke: #000000; stroke-width: 0.8; stroke-linejoin: miter; stroke-linecap: square"/>
   </g>
   <g id="text_42">
    <!-- TM-align (logscale) -->
    <g transform="translate(514.614754 41.90625) scale(0.12 -0.12)">
     <use xlink:href="#DejaVuSans-54"/>
     <use xlink:href="#DejaVuSans-4d" transform="translate(61.083984 0)"/>
     <use xlink:href="#DejaVuSans-2d" transform="translate(147.363281 0)"/>
     <use xlink:href="#DejaVuSans-61" transform="translate(183.447266 0)"/>
     <use xlink:href="#DejaVuSans-6c" transform="translate(244.726562 0)"/>
     <use xlink:href="#DejaVuSans-69" transform="translate(272.509766 0)"/>
     <use xlink:href="#DejaVuSans-67" transform="translate(300.292969 0)"/>
     <use xlink:href="#DejaVuSans-6e" transform="translate(363.769531 0)"/>
     <use xlink:href="#DejaVuSans-20" transform="translate(427.148438 0)"/>
     <use xlink:href="#DejaVuSans-28" transform="translate(458.935547 0)"/>
     <use xlink:href="#DejaVuSans-6c" transform="translate(497.949219 0)"/>
     <use xlink:href="#DejaVuSans-6f" transform="translate(525.732422 0)"/>
     <use xlink:href="#DejaVuSans-67" transform="translate(586.914062 0)"/>
     <use xlink:href="#DejaVuSans-73" transform="translate(650.390625 0)"/>
     <use xlink:href="#DejaVuSans-63" transform="translate(702.490234 0)"/>
     <use xlink:href="#DejaVuSans-61" transform="translate(757.470703 0)"/>
     <use xlink:href="#DejaVuSans-6c" transform="translate(818.75 0)"/>
     <use xlink:href="#DejaVuSans-65" transform="translate(846.533203 0)"/>
     <use xlink:href="#DejaVuSans-29" transform="translate(908.056641 0)"/>
    </g>
   </g>
   <g id="legend_2">
    <g id="patch_13">
     <path d="M 620.476744 173.33125 
L 714.265806 173.33125 
Q 716.265806 173.33125 716.265806 171.33125 
L 716.265806 54.90625 
Q 716.265806 52.90625 714.265806 52.90625 
L 620.476744 52.90625 
Q 618.476744 52.90625 618.476744 54.90625 
L 618.476744 171.33125 
Q 618.476744 173.33125 620.476744 173.33125 
z
" style="fill: #ffffff; opacity: 0.8; stroke: #cccccc; stroke-linejoin: miter"/>
    </g>
    <g id="line2d_78">
     <path d="M 622.476744 61.004687 
L 632.476744 61.004687 
L 642.476744 61.004687 
" style="fill: none; stroke: #000000; stroke-width: 1.5; stroke-linecap: square"/>
    </g>
    <g id="text_43">
     <!-- SCOP40 -->
     <g transform="translate(650.476744 64.504687) scale(0.1 -0.1)">
      <use xlink:href="#DejaVuSans-53"/>
      <use xlink:href="#DejaVuSans-43" transform="translate(63.476562 0)"/>
      <use xlink:href="#DejaVuSans-4f" transform="translate(133.300781 0)"/>
      <use xlink:href="#DejaVuSans-50" transform="translate(212.011719 0)"/>
      <use xlink:href="#DejaVuSans-34" transform="translate(272.314453 0)"/>
      <use xlink:href="#DejaVuSans-30" transform="translate(335.9375 0)"/>
     </g>
    </g>
    <g id="line2d_79">
     <path d="M 622.476744 75.682813 
L 632.476744 75.682813 
L 642.476744 75.682813 
" style="fill: none; stroke: #00ffff; stroke-width: 1.5; stroke-linecap: square"/>
    </g>
    <g id="text_44">
     <!-- SCOP40c -->
     <g transform="translate(650.476744 79.182813) scale(0.1 -0.1)">
      <use xlink:href="#DejaVuSans-53"/>
      <use xlink:href="#DejaVuSans-43" transform="translate(63.476562 0)"/>
      <use xlink:href="#DejaVuSans-4f" transform="translate(133.300781 0)"/>
      <use xlink:href="#DejaVuSans-50" transform="translate(212.011719 0)"/>
      <use xlink:href="#DejaVuSans-34" transform="translate(272.314453 0)"/>
      <use xlink:href="#DejaVuSans-30" transform="translate(335.9375 0)"/>
      <use xlink:href="#DejaVuSans-63" transform="translate(399.560547 0)"/>
     </g>
    </g>
    <g id="line2d_80">
     <path d="M 622.476744 90.360937 
L 632.476744 90.360937 
L 642.476744 90.360937 
" style="fill: none; stroke: #a9a9a9; stroke-width: 1.5; stroke-linecap: square"/>
    </g>
    <g id="text_45">
     <!-- SCOP40/N2 -->
     <g transform="translate(650.476744 93.860937) scale(0.1 -0.1)">
      <use xlink:href="#DejaVuSans-53"/>
      <use xlink:href="#DejaVuSans-43" transform="translate(63.476562 0)"/>
      <use xlink:href="#DejaVuSans-4f" transform="translate(133.300781 0)"/>
      <use xlink:href="#DejaVuSans-50" transform="translate(212.011719 0)"/>
      <use xlink:href="#DejaVuSans-34" transform="translate(272.314453 0)"/>
      <use xlink:href="#DejaVuSans-30" transform="translate(335.9375 0)"/>
      <use xlink:href="#DejaVuSans-2f" transform="translate(399.560547 0)"/>
      <use xlink:href="#DejaVuSans-4e" transform="translate(433.251953 0)"/>
      <use xlink:href="#DejaVuSans-32" transform="translate(508.056641 0)"/>
     </g>
    </g>
    <g id="line2d_81">
     <path d="M 622.476744 105.039062 
L 632.476744 105.039062 
L 642.476744 105.039062 
" style="fill: none; stroke-dasharray: 5.55,2.4; stroke-dashoffset: 0; stroke: #a9a9a9; stroke-width: 1.5"/>
    </g>
    <g id="text_46">
     <!-- SCOP40/N4 -->
     <g transform="translate(650.476744 108.539062) scale(0.1 -0.1)">
      <use xlink:href="#DejaVuSans-53"/>
      <use xlink:href="#DejaVuSans-43" transform="translate(63.476562 0)"/>
      <use xlink:href="#DejaVuSans-4f" transform="translate(133.300781 0)"/>
      <use xlink:href="#DejaVuSans-50" transform="translate(212.011719 0)"/>
      <use xlink:href="#DejaVuSans-34" transform="translate(272.314453 0)"/>
      <use xlink:href="#DejaVuSans-30" transform="translate(335.9375 0)"/>
      <use xlink:href="#DejaVuSans-2f" transform="translate(399.560547 0)"/>
      <use xlink:href="#DejaVuSans-4e" transform="translate(433.251953 0)"/>
      <use xlink:href="#DejaVuSans-34" transform="translate(508.056641 0)"/>
     </g>
    </g>
    <g id="line2d_82">
     <path d="M 622.476744 119.717187 
L 632.476744 119.717187 
L 642.476744 119.717187 
" style="fill: none; stroke-dasharray: 5.55,2.4; stroke-dashoffset: 0; stroke: #808080; stroke-width: 1.5"/>
    </g>
    <g id="text_47">
     <!-- SCOP40/N8 -->
     <g transform="translate(650.476744 123.217187) scale(0.1 -0.1)">
      <use xlink:href="#DejaVuSans-53"/>
      <use xlink:href="#DejaVuSans-43" transform="translate(63.476562 0)"/>
      <use xlink:href="#DejaVuSans-4f" transform="translate(133.300781 0)"/>
      <use xlink:href="#DejaVuSans-50" transform="translate(212.011719 0)"/>
      <use xlink:href="#DejaVuSans-34" transform="translate(272.314453 0)"/>
      <use xlink:href="#DejaVuSans-30" transform="translate(335.9375 0)"/>
      <use xlink:href="#DejaVuSans-2f" transform="translate(399.560547 0)"/>
      <use xlink:href="#DejaVuSans-4e" transform="translate(433.251953 0)"/>
      <use xlink:href="#DejaVuSans-38" transform="translate(508.056641 0)"/>
     </g>
    </g>
    <g id="line2d_83">
     <path d="M 622.476744 134.395312 
L 632.476744 134.395312 
L 642.476744 134.395312 
" style="fill: none; stroke: #ffa500; stroke-width: 1.5; stroke-linecap: square"/>
    </g>
    <g id="text_48">
     <!-- SCOP40/SF2 -->
     <g transform="translate(650.476744 137.895312) scale(0.1 -0.1)">
      <use xlink:href="#DejaVuSans-53"/>
      <use xlink:href="#DejaVuSans-43" transform="translate(63.476562 0)"/>
      <use xlink:href="#DejaVuSans-4f" transform="translate(133.300781 0)"/>
      <use xlink:href="#DejaVuSans-50" transform="translate(212.011719 0)"/>
      <use xlink:href="#DejaVuSans-34" transform="translate(272.314453 0)"/>
      <use xlink:href="#DejaVuSans-30" transform="translate(335.9375 0)"/>
      <use xlink:href="#DejaVuSans-2f" transform="translate(399.560547 0)"/>
      <use xlink:href="#DejaVuSans-53" transform="translate(433.251953 0)"/>
      <use xlink:href="#DejaVuSans-46" transform="translate(496.728516 0)"/>
      <use xlink:href="#DejaVuSans-32" transform="translate(554.248047 0)"/>
     </g>
    </g>
    <g id="line2d_84">
     <path d="M 622.476744 149.073437 
L 632.476744 149.073437 
L 642.476744 149.073437 
" style="fill: none; stroke-dasharray: 5.55,2.4; stroke-dashoffset: 0; stroke: #ffa500; stroke-width: 1.5"/>
    </g>
    <g id="text_49">
     <!-- SCOP40/SF4 -->
     <g transform="translate(650.476744 152.573437) scale(0.1 -0.1)">
      <use xlink:href="#DejaVuSans-53"/>
      <use xlink:href="#DejaVuSans-43" transform="translate(63.476562 0)"/>
      <use xlink:href="#DejaVuSans-4f" transform="translate(133.300781 0)"/>
      <use xlink:href="#DejaVuSans-50" transform="translate(212.011719 0)"/>
      <use xlink:href="#DejaVuSans-34" transform="translate(272.314453 0)"/>
      <use xlink:href="#DejaVuSans-30" transform="translate(335.9375 0)"/>
      <use xlink:href="#DejaVuSans-2f" transform="translate(399.560547 0)"/>
      <use xlink:href="#DejaVuSans-53" transform="translate(433.251953 0)"/>
      <use xlink:href="#DejaVuSans-46" transform="translate(496.728516 0)"/>
      <use xlink:href="#DejaVuSans-34" transform="translate(554.248047 0)"/>
     </g>
    </g>
    <g id="line2d_85">
     <path d="M 622.476744 163.751562 
L 632.476744 163.751562 
L 642.476744 163.751562 
" style="fill: none; stroke-dasharray: 1.5,2.475; stroke-dashoffset: 0; stroke: #ffa500; stroke-width: 1.5"/>
    </g>
    <g id="text_50">
     <!-- SCOP40/SF8 -->
     <g transform="translate(650.476744 167.251562) scale(0.1 -0.1)">
      <use xlink:href="#DejaVuSans-53"/>
      <use xlink:href="#DejaVuSans-43" transform="translate(63.476562 0)"/>
      <use xlink:href="#DejaVuSans-4f" transform="translate(133.300781 0)"/>
      <use xlink:href="#DejaVuSans-50" transform="translate(212.011719 0)"/>
      <use xlink:href="#DejaVuSans-34" transform="translate(272.314453 0)"/>
      <use xlink:href="#DejaVuSans-30" transform="translate(335.9375 0)"/>
      <use xlink:href="#DejaVuSans-2f" transform="translate(399.560547 0)"/>
      <use xlink:href="#DejaVuSans-53" transform="translate(433.251953 0)"/>
      <use xlink:href="#DejaVuSans-46" transform="translate(496.728516 0)"/>
      <use xlink:href="#DejaVuSans-38" transform="translate(554.248047 0)"/>
     </g>
    </g>
   </g>
  </g>
  <g id="text_51">
   <!-- ../plots/P_score_F.tm.svg -->
   <g transform="translate(298.414778 14.728515) scale(0.12 -0.12)">
    <defs>
     <path id="DejaVuSans-70" d="M 1159 525 
L 1159 -1331 
L 581 -1331 
L 581 3500 
L 1159 3500 
L 1159 2969 
Q 1341 3281 1617 3432 
Q 1894 3584 2278 3584 
Q 2916 3584 3314 3078 
Q 3713 2572 3713 1747 
Q 3713 922 3314 415 
Q 2916 -91 2278 -91 
Q 1894 -91 1617 61 
Q 1341 213 1159 525 
z
M 3116 1747 
Q 3116 2381 2855 2742 
Q 2594 3103 2138 3103 
Q 1681 3103 1420 2742 
Q 1159 2381 1159 1747 
Q 1159 1113 1420 752 
Q 1681 391 2138 391 
Q 2594 391 2855 752 
Q 3116 1113 3116 1747 
z
" transform="scale(0.015625)"/>
     <path id="DejaVuSans-74" d="M 1172 4494 
L 1172 3500 
L 2356 3500 
L 2356 3053 
L 1172 3053 
L 1172 1153 
Q 1172 725 1289 603 
Q 1406 481 1766 481 
L 2356 481 
L 2356 0 
L 1766 0 
Q 1100 0 847 248 
Q 594 497 594 1153 
L 594 3053 
L 172 3053 
L 172 3500 
L 594 3500 
L 594 4494 
L 1172 4494 
z
" transform="scale(0.015625)"/>
     <path id="DejaVuSans-5f" d="M 3263 -1063 
L 3263 -1509 
L -63 -1509 
L -63 -1063 
L 3263 -1063 
z
" transform="scale(0.015625)"/>
     <path id="DejaVuSans-6d" d="M 3328 2828 
Q 3544 3216 3844 3400 
Q 4144 3584 4550 3584 
Q 5097 3584 5394 3201 
Q 5691 2819 5691 2113 
L 5691 0 
L 5113 0 
L 5113 2094 
Q 5113 2597 4934 2840 
Q 4756 3084 4391 3084 
Q 3944 3084 3684 2787 
Q 3425 2491 3425 1978 
L 3425 0 
L 2847 0 
L 2847 2094 
Q 2847 2600 2669 2842 
Q 2491 3084 2119 3084 
Q 1678 3084 1418 2786 
Q 1159 2488 1159 1978 
L 1159 0 
L 581 0 
L 581 3500 
L 1159 3500 
L 1159 2956 
Q 1356 3278 1631 3431 
Q 1906 3584 2284 3584 
Q 2666 3584 2933 3390 
Q 3200 3197 3328 2828 
z
" transform="scale(0.015625)"/>
     <path id="DejaVuSans-76" d="M 191 3500 
L 800 3500 
L 1894 563 
L 2988 3500 
L 3597 3500 
L 2284 0 
L 1503 0 
L 191 3500 
z
" transform="scale(0.015625)"/>
    </defs>
    <use xlink:href="#DejaVuSans-2e"/>
    <use xlink:href="#DejaVuSans-2e" transform="translate(31.787109 0)"/>
    <use xlink:href="#DejaVuSans-2f" transform="translate(63.574219 0)"/>
    <use xlink:href="#DejaVuSans-70" transform="translate(97.265625 0)"/>
    <use xlink:href="#DejaVuSans-6c" transform="translate(160.742188 0)"/>
    <use xlink:href="#DejaVuSans-6f" transform="translate(188.525391 0)"/>
    <use xlink:href="#DejaVuSans-74" transform="translate(249.707031 0)"/>
    <use xlink:href="#DejaVuSans-73" transform="translate(288.916016 0)"/>
    <use xlink:href="#DejaVuSans-2f" transform="translate(341.015625 0)"/>
    <use xlink:href="#DejaVuSans-50" transform="translate(374.707031 0)"/>
    <use xlink:href="#DejaVuSans-5f" transform="translate(435.009766 0)"/>
    <use xlink:href="#DejaVuSans-73" transform="translate(485.009766 0)"/>
    <use xlink:href="#DejaVuSans-63" transform="translate(537.109375 0)"/>
    <use xlink:href="#DejaVuSans-6f" transform="translate(592.089844 0)"/>
    <use xlink:href="#DejaVuSans-72" transform="translate(653.271484 0)"/>
    <use xlink:href="#DejaVuSans-65" transform="translate(692.134766 0)"/>
    <use xlink:href="#DejaVuSans-5f" transform="translate(753.658203 0)"/>
    <use xlink:href="#DejaVuSans-46" transform="translate(803.658203 0)"/>
    <use xlink:href="#DejaVuSans-2e" transform="translate(845.052734 0)"/>
    <use xlink:href="#DejaVuSans-74" transform="translate(876.839844 0)"/>
    <use xlink:href="#DejaVuSans-6d" transform="translate(916.048828 0)"/>
    <use xlink:href="#DejaVuSans-2e" transform="translate(1013.460938 0)"/>
    <use xlink:href="#DejaVuSans-73" transform="translate(1045.248047 0)"/>
    <use xlink:href="#DejaVuSans-76" transform="translate(1097.347656 0)"/>
    <use xlink:href="#DejaVuSans-67" transform="translate(1156.527344 0)"/>
   </g>
  </g>
 </g>
 <defs>
  <clipPath id="p20d9981d71">
   <rect x="54.56" y="47.90625" width="299.65273" height="190.653231"/>
  </clipPath>
  <clipPath id="p4418cee344">
   <rect x="421.613076" y="47.90625" width="299.65273" height="190.653231"/>
  </clipPath>
 </defs>
</svg>
