<?xml version="1.0" encoding="utf-8" standalone="no"?>
<!DOCTYPE svg PUBLIC "-//W3C//DTD SVG 1.1//EN"
  "http://www.w3.org/Graphics/SVG/1.1/DTD/svg11.dtd">
<svg xmlns:xlink="http://www.w3.org/1999/xlink" width="743.225806pt" height="280.519481pt" viewBox="0 0 743.225806 280.519481" xmlns="http://www.w3.org/2000/svg" version="1.1">
 <metadata>
  <rdf:RDF xmlns:dc="http://purl.org/dc/elements/1.1/" xmlns:cc="http://creativecommons.org/ns#" xmlns:rdf="http://www.w3.org/1999/02/22-rdf-syntax-ns#">
   <cc:Work>
    <dc:type rdf:resource="http://purl.org/dc/dcmitype/StillImage"/>
    <dc:date>2025-05-30T08:16:29.468175</dc:date>
    <dc:format>image/svg+xml</dc:format>
    <dc:creator>
     <cc:Agent>
      <dc:title>Matplotlib v3.10.3, https://matplotlib.org/</dc:title>
     </cc:Agent>
    </dc:creator>
   </cc:Work>
  </rdf:RDF>
 </metadata>
 <defs>
  <style type="text/css">*{stroke-linejoin: round; stroke-linecap: butt}</style>
 </defs>
 <g id="figure_1">
  <g id="patch_1">
   <path d="M 0 280.519481 
L 743.225806 280.519481 
L 743.225806 0 
L 0 0 
z
" style="fill: #ffffff"/>
  </g>
  <g id="axes_1">
   <g id="patch_2">
    <path d="M 40.12 252.639481 
L 362.11023 252.639481 
L 362.11023 47.90625 
L 40.12 47.90625 
z
" style="fill: #ffffff"/>
   </g>
   <g id="matplotlib.axis_1">
    <g id="xtick_1">
     <g id="line2d_1">
      <defs>
       <path id="me59e459702" d="M 0 0 
L 0 3.5 
" style="stroke: #000000; stroke-width: 0.8"/>
      </defs>
      <g>
       <use xlink:href="#me59e459702" x="40.12" y="252.639481" style="stroke: #000000; stroke-width: 0.8"/>
      </g>
     </g>
     <g id="text_1">
      <!-- −4 -->
      <g transform="translate(32.748906 267.237918) scale(0.1 -0.1)">
       <defs>
        <path id="DejaVuSans-2212" d="M 678 2272 
L 4684 2272 
L 4684 1741 
L 678 1741 
L 678 2272 
z
" transform="scale(0.015625)"/>
        <path id="DejaVuSans-34" d="M 2419 4116 
L 825 1625 
L 2419 1625 
L 2419 4116 
z
M 2253 4666 
L 3047 4666 
L 3047 1625 
L 3713 1625 
L 3713 1100 
L 3047 1100 
L 3047 0 
L 2419 0 
L 2419 1100 
L 313 1100 
L 313 1709 
L 2253 4666 
z
" transform="scale(0.015625)"/>
       </defs>
       <use xlink:href="#DejaVuSans-2212"/>
       <use xlink:href="#DejaVuSans-34" transform="translate(83.789062 0)"/>
      </g>
     </g>
    </g>
    <g id="xtick_2">
     <g id="line2d_2">
      <g>
       <use xlink:href="#me59e459702" x="93.785038" y="252.639481" style="stroke: #000000; stroke-width: 0.8"/>
      </g>
     </g>
     <g id="text_2">
      <!-- −3 -->
      <g transform="translate(86.413945 267.237918) scale(0.1 -0.1)">
       <defs>
        <path id="DejaVuSans-33" d="M 2597 2516 
Q 3050 2419 3304 2112 
Q 3559 1806 3559 1356 
Q 3559 666 3084 287 
Q 2609 -91 1734 -91 
Q 1441 -91 1130 -33 
Q 819 25 488 141 
L 488 750 
Q 750 597 1062 519 
Q 1375 441 1716 441 
Q 2309 441 2620 675 
Q 2931 909 2931 1356 
Q 2931 1769 2642 2001 
Q 2353 2234 1838 2234 
L 1294 2234 
L 1294 2753 
L 1863 2753 
Q 2328 2753 2575 2939 
Q 2822 3125 2822 3475 
Q 2822 3834 2567 4026 
Q 2313 4219 1838 4219 
Q 1578 4219 1281 4162 
Q 984 4106 628 3988 
L 628 4550 
Q 988 4650 1302 4700 
Q 1616 4750 1894 4750 
Q 2613 4750 3031 4423 
Q 3450 4097 3450 3541 
Q 3450 3153 3228 2886 
Q 3006 2619 2597 2516 
z
" transform="scale(0.015625)"/>
       </defs>
       <use xlink:href="#DejaVuSans-2212"/>
       <use xlink:href="#DejaVuSans-33" transform="translate(83.789062 0)"/>
      </g>
     </g>
    </g>
    <g id="xtick_3">
     <g id="line2d_3">
      <g>
       <use xlink:href="#me59e459702" x="147.450077" y="252.639481" style="stroke: #000000; stroke-width: 0.8"/>
      </g>
     </g>
     <g id="text_3">
      <!-- −2 -->
      <g transform="translate(140.078983 267.237918) scale(0.1 -0.1)">
       <defs>
        <path id="DejaVuSans-32" d="M 1228 531 
L 3431 531 
L 3431 0 
L 469 0 
L 469 531 
Q 828 903 1448 1529 
Q 2069 2156 2228 2338 
Q 2531 2678 2651 2914 
Q 2772 3150 2772 3378 
Q 2772 3750 2511 3984 
Q 2250 4219 1831 4219 
Q 1534 4219 1204 4116 
Q 875 4013 500 3803 
L 500 4441 
Q 881 4594 1212 4672 
Q 1544 4750 1819 4750 
Q 2544 4750 2975 4387 
Q 3406 4025 3406 3419 
Q 3406 3131 3298 2873 
Q 3191 2616 2906 2266 
Q 2828 2175 2409 1742 
Q 1991 1309 1228 531 
z
" transform="scale(0.015625)"/>
       </defs>
       <use xlink:href="#DejaVuSans-2212"/>
       <use xlink:href="#DejaVuSans-32" transform="translate(83.789062 0)"/>
      </g>
     </g>
    </g>
    <g id="xtick_4">
     <g id="line2d_4">
      <g>
       <use xlink:href="#me59e459702" x="201.115115" y="252.639481" style="stroke: #000000; stroke-width: 0.8"/>
      </g>
     </g>
     <g id="text_4">
      <!-- −1 -->
      <g transform="translate(193.744021 267.237918) scale(0.1 -0.1)">
       <defs>
        <path id="DejaVuSans-31" d="M 794 531 
L 1825 531 
L 1825 4091 
L 703 3866 
L 703 4441 
L 1819 4666 
L 2450 4666 
L 2450 531 
L 3481 531 
L 3481 0 
L 794 0 
L 794 531 
z
" transform="scale(0.015625)"/>
       </defs>
       <use xlink:href="#DejaVuSans-2212"/>
       <use xlink:href="#DejaVuSans-31" transform="translate(83.789062 0)"/>
      </g>
     </g>
    </g>
    <g id="xtick_5">
     <g id="line2d_5">
      <g>
       <use xlink:href="#me59e459702" x="254.780153" y="252.639481" style="stroke: #000000; stroke-width: 0.8"/>
      </g>
     </g>
     <g id="text_5">
      <!-- 0 -->
      <g transform="translate(251.598903 267.237918) scale(0.1 -0.1)">
       <defs>
        <path id="DejaVuSans-30" d="M 2034 4250 
Q 1547 4250 1301 3770 
Q 1056 3291 1056 2328 
Q 1056 1369 1301 889 
Q 1547 409 2034 409 
Q 2525 409 2770 889 
Q 3016 1369 3016 2328 
Q 3016 3291 2770 3770 
Q 2525 4250 2034 4250 
z
M 2034 4750 
Q 2819 4750 3233 4129 
Q 3647 3509 3647 2328 
Q 3647 1150 3233 529 
Q 2819 -91 2034 -91 
Q 1250 -91 836 529 
Q 422 1150 422 2328 
Q 422 3509 836 4129 
Q 1250 4750 2034 4750 
z
" transform="scale(0.015625)"/>
       </defs>
       <use xlink:href="#DejaVuSans-30"/>
      </g>
     </g>
    </g>
    <g id="xtick_6">
     <g id="line2d_6">
      <g>
       <use xlink:href="#me59e459702" x="308.445192" y="252.639481" style="stroke: #000000; stroke-width: 0.8"/>
      </g>
     </g>
     <g id="text_6">
      <!-- 1 -->
      <g transform="translate(305.263942 267.237918) scale(0.1 -0.1)">
       <use xlink:href="#DejaVuSans-31"/>
      </g>
     </g>
    </g>
    <g id="xtick_7">
     <g id="line2d_7">
      <g>
       <use xlink:href="#me59e459702" x="362.11023" y="252.639481" style="stroke: #000000; stroke-width: 0.8"/>
      </g>
     </g>
     <g id="text_7">
      <!-- 2 -->
      <g transform="translate(358.92898 267.237918) scale(0.1 -0.1)">
       <use xlink:href="#DejaVuSans-32"/>
      </g>
     </g>
    </g>
   </g>
   <g id="matplotlib.axis_2">
    <g id="ytick_1">
     <g id="line2d_8">
      <defs>
       <path id="m43f57ea357" d="M 0 0 
L -3.5 0 
" style="stroke: #000000; stroke-width: 0.8"/>
      </defs>
      <g>
       <use xlink:href="#m43f57ea357" x="40.12" y="243.333425" style="stroke: #000000; stroke-width: 0.8"/>
      </g>
     </g>
     <g id="text_8">
      <!-- 0.00 -->
      <g transform="translate(10.854375 247.132643) scale(0.1 -0.1)">
       <defs>
        <path id="DejaVuSans-2e" d="M 684 794 
L 1344 794 
L 1344 0 
L 684 0 
L 684 794 
z
" transform="scale(0.015625)"/>
       </defs>
       <use xlink:href="#DejaVuSans-30"/>
       <use xlink:href="#DejaVuSans-2e" transform="translate(63.623047 0)"/>
       <use xlink:href="#DejaVuSans-30" transform="translate(95.410156 0)"/>
       <use xlink:href="#DejaVuSans-30" transform="translate(159.033203 0)"/>
      </g>
     </g>
    </g>
    <g id="ytick_2">
     <g id="line2d_9">
      <g>
       <use xlink:href="#m43f57ea357" x="40.12" y="218.746752" style="stroke: #000000; stroke-width: 0.8"/>
      </g>
     </g>
     <g id="text_9">
      <!-- 0.05 -->
      <g transform="translate(10.854375 222.545971) scale(0.1 -0.1)">
       <defs>
        <path id="DejaVuSans-35" d="M 691 4666 
L 3169 4666 
L 3169 4134 
L 1269 4134 
L 1269 2991 
Q 1406 3038 1543 3061 
Q 1681 3084 1819 3084 
Q 2600 3084 3056 2656 
Q 3513 2228 3513 1497 
Q 3513 744 3044 326 
Q 2575 -91 1722 -91 
Q 1428 -91 1123 -41 
Q 819 9 494 109 
L 494 744 
Q 775 591 1075 516 
Q 1375 441 1709 441 
Q 2250 441 2565 725 
Q 2881 1009 2881 1497 
Q 2881 1984 2565 2268 
Q 2250 2553 1709 2553 
Q 1456 2553 1204 2497 
Q 953 2441 691 2322 
L 691 4666 
z
" transform="scale(0.015625)"/>
       </defs>
       <use xlink:href="#DejaVuSans-30"/>
       <use xlink:href="#DejaVuSans-2e" transform="translate(63.623047 0)"/>
       <use xlink:href="#DejaVuSans-30" transform="translate(95.410156 0)"/>
       <use xlink:href="#DejaVuSans-35" transform="translate(159.033203 0)"/>
      </g>
     </g>
    </g>
    <g id="ytick_3">
     <g id="line2d_10">
      <g>
       <use xlink:href="#m43f57ea357" x="40.12" y="194.160079" style="stroke: #000000; stroke-width: 0.8"/>
      </g>
     </g>
     <g id="text_10">
      <!-- 0.10 -->
      <g transform="translate(10.854375 197.959298) scale(0.1 -0.1)">
       <use xlink:href="#DejaVuSans-30"/>
       <use xlink:href="#DejaVuSans-2e" transform="translate(63.623047 0)"/>
       <use xlink:href="#DejaVuSans-31" transform="translate(95.410156 0)"/>
       <use xlink:href="#DejaVuSans-30" transform="translate(159.033203 0)"/>
      </g>
     </g>
    </g>
    <g id="ytick_4">
     <g id="line2d_11">
      <g>
       <use xlink:href="#m43f57ea357" x="40.12" y="169.573407" style="stroke: #000000; stroke-width: 0.8"/>
      </g>
     </g>
     <g id="text_11">
      <!-- 0.15 -->
      <g transform="translate(10.854375 173.372626) scale(0.1 -0.1)">
       <use xlink:href="#DejaVuSans-30"/>
       <use xlink:href="#DejaVuSans-2e" transform="translate(63.623047 0)"/>
       <use xlink:href="#DejaVuSans-31" transform="translate(95.410156 0)"/>
       <use xlink:href="#DejaVuSans-35" transform="translate(159.033203 0)"/>
      </g>
     </g>
    </g>
    <g id="ytick_5">
     <g id="line2d_12">
      <g>
       <use xlink:href="#m43f57ea357" x="40.12" y="144.986734" style="stroke: #000000; stroke-width: 0.8"/>
      </g>
     </g>
     <g id="text_12">
      <!-- 0.20 -->
      <g transform="translate(10.854375 148.785953) scale(0.1 -0.1)">
       <use xlink:href="#DejaVuSans-30"/>
       <use xlink:href="#DejaVuSans-2e" transform="translate(63.623047 0)"/>
       <use xlink:href="#DejaVuSans-32" transform="translate(95.410156 0)"/>
       <use xlink:href="#DejaVuSans-30" transform="translate(159.033203 0)"/>
      </g>
     </g>
    </g>
    <g id="ytick_6">
     <g id="line2d_13">
      <g>
       <use xlink:href="#m43f57ea357" x="40.12" y="120.400062" style="stroke: #000000; stroke-width: 0.8"/>
      </g>
     </g>
     <g id="text_13">
      <!-- 0.25 -->
      <g transform="translate(10.854375 124.19928) scale(0.1 -0.1)">
       <use xlink:href="#DejaVuSans-30"/>
       <use xlink:href="#DejaVuSans-2e" transform="translate(63.623047 0)"/>
       <use xlink:href="#DejaVuSans-32" transform="translate(95.410156 0)"/>
       <use xlink:href="#DejaVuSans-35" transform="translate(159.033203 0)"/>
      </g>
     </g>
    </g>
    <g id="ytick_7">
     <g id="line2d_14">
      <g>
       <use xlink:href="#m43f57ea357" x="40.12" y="95.813389" style="stroke: #000000; stroke-width: 0.8"/>
      </g>
     </g>
     <g id="text_14">
      <!-- 0.30 -->
      <g transform="translate(10.854375 99.612608) scale(0.1 -0.1)">
       <use xlink:href="#DejaVuSans-30"/>
       <use xlink:href="#DejaVuSans-2e" transform="translate(63.623047 0)"/>
       <use xlink:href="#DejaVuSans-33" transform="translate(95.410156 0)"/>
       <use xlink:href="#DejaVuSans-30" transform="translate(159.033203 0)"/>
      </g>
     </g>
    </g>
    <g id="ytick_8">
     <g id="line2d_15">
      <g>
       <use xlink:href="#m43f57ea357" x="40.12" y="71.226716" style="stroke: #000000; stroke-width: 0.8"/>
      </g>
     </g>
     <g id="text_15">
      <!-- 0.35 -->
      <g transform="translate(10.854375 75.025935) scale(0.1 -0.1)">
       <use xlink:href="#DejaVuSans-30"/>
       <use xlink:href="#DejaVuSans-2e" transform="translate(63.623047 0)"/>
       <use xlink:href="#DejaVuSans-33" transform="translate(95.410156 0)"/>
       <use xlink:href="#DejaVuSans-35" transform="translate(159.033203 0)"/>
      </g>
     </g>
    </g>
   </g>
   <g id="line2d_16">
    <path d="M 40.12 243.333425 
L 53.106939 243.333425 
L 66.147544 243.333425 
L 79.134483 243.333425 
L 92.175087 243.333425 
L 105.162026 243.333425 
L 118.202631 243.333425 
L 131.18957 243.333425 
L 144.176509 243.333425 
L 157.217114 243.333425 
L 170.204053 243.333425 
L 183.244657 243.333425 
L 196.231597 84.355998 
L 209.245368 68.817221 
L 222.253774 164.557726 
L 235.267545 203.547272 
L 248.275951 224.495117 
L 261.284356 233.665945 
L 274.292761 238.428875 
L 287.306533 240.668229 
L 300.314938 241.974765 
L 313.32871 242.520589 
L 326.31565 242.778258 
L 339.356254 243.020584 
L 352.343193 243.167809 
L 365.383797 243.173906 
L 378.370737 243.229128 
L 391.357676 243.28435 
L 404.39828 243.308887 
L 417.38522 243.327288 
L 430.425824 243.308887 
L 443.412763 243.315019 
L 456.453368 243.324224 
L 469.440307 243.324224 
L 482.427246 243.327288 
L 495.46785 243.333425 
L 508.45479 243.327288 
L 521.495394 243.333425 
L 534.482333 243.333425 
L 547.522938 243.333425 
L 560.509877 243.333425 
L 573.496816 243.333425 
L 586.537421 243.333425 
L 599.52436 243.333425 
L 612.564964 243.333425 
L 625.551903 243.333425 
L 638.592508 243.333425 
L 651.579447 243.333425 
L 664.566386 243.333425 
L 677.606991 243.333425 
L 690.59393 243.333425 
L 703.634534 243.333425 
L 716.621474 243.333425 
L 729.608413 243.333425 
L 742.649017 243.333425 
L 744.225806 243.333425 
" clip-path="url(#pb2f0633887)" style="fill: none; stroke-dasharray: 9.6,2.4,1.5,2.4; stroke-dashoffset: 0; stroke: #000000; stroke-width: 1.5"/>
   </g>
   <g id="line2d_17">
    <path d="M 40.12 243.333425 
L 53.106939 243.333425 
L 66.147544 243.333425 
L 79.134483 243.333425 
L 92.175087 243.333425 
L 105.162026 243.333425 
L 118.202631 243.333425 
L 131.18957 243.333425 
L 144.176509 243.333425 
L 157.217114 243.333425 
L 170.204053 243.333425 
L 183.244657 243.333425 
L 196.231597 84.355998 
L 209.245368 68.817221 
L 222.253774 164.557726 
L 235.267545 203.547272 
L 248.275951 224.495117 
L 261.284356 233.665945 
L 274.292761 238.428875 
L 287.306533 240.668229 
L 300.314938 241.974765 
L 313.32871 242.520589 
L 326.31565 242.778258 
L 339.356254 243.020584 
L 352.343193 243.167809 
L 365.383797 243.173906 
L 378.370737 243.229128 
L 391.357676 243.28435 
L 404.39828 243.308887 
L 417.38522 243.327288 
L 430.425824 243.308887 
L 443.412763 243.315019 
L 456.453368 243.324224 
L 469.440307 243.324224 
L 482.427246 243.327288 
L 495.46785 243.333425 
L 508.45479 243.327288 
L 521.495394 243.333425 
L 534.482333 243.333425 
L 547.522938 243.333425 
L 560.509877 243.333425 
L 573.496816 243.333425 
L 586.537421 243.333425 
L 599.52436 243.333425 
L 612.564964 243.333425 
L 625.551903 243.333425 
L 638.592508 243.333425 
L 651.579447 243.333425 
L 664.566386 243.333425 
L 677.606991 243.333425 
L 690.59393 243.333425 
L 703.634534 243.333425 
L 716.621474 243.333425 
L 729.608413 243.333425 
L 742.649017 243.333425 
L 744.225806 243.333425 
" clip-path="url(#pb2f0633887)" style="fill: none; stroke-dasharray: 9.6,2.4,1.5,2.4; stroke-dashoffset: 0; stroke: #008000; stroke-width: 1.5"/>
   </g>
   <g id="line2d_18">
    <path d="M 40.12 243.333425 
L 53.106939 243.333425 
L 66.147544 243.333425 
L 79.134483 243.333425 
L 92.175087 243.333425 
L 105.162026 243.333425 
L 118.202631 243.333425 
L 131.18957 243.333425 
L 144.176509 243.333425 
L 157.217114 243.333425 
L 170.204053 243.333425 
L 183.244657 243.333425 
L 196.231597 80.963045 
L 209.245368 65.670133 
L 222.253774 165.590369 
L 235.267545 206.18788 
L 248.275951 226.383373 
L 261.284356 234.855939 
L 274.292761 238.924051 
L 287.306533 240.718878 
L 300.314938 241.924117 
L 313.32871 242.453713 
L 326.31565 242.772848 
L 339.356254 242.949872 
L 352.343193 243.085984 
L 365.383797 243.154237 
L 378.370737 243.211327 
L 391.357676 243.22067 
L 404.39828 243.246879 
L 417.38522 243.269155 
L 430.425824 243.293565 
L 443.412763 243.288175 
L 456.453368 243.296795 
L 469.440307 243.299667 
L 482.427246 243.309364 
L 495.46785 243.311877 
L 508.45479 243.312595 
L 521.495394 243.318343 
L 534.482333 243.321215 
L 547.522938 243.325522 
L 560.509877 243.32624 
L 573.496816 243.327681 
L 586.537421 243.325522 
L 599.52436 243.332706 
L 612.564964 243.33127 
L 625.551903 243.327681 
L 638.592508 243.327681 
L 651.579447 243.329115 
L 664.566386 243.329833 
L 677.606991 243.33127 
L 690.59393 243.329115 
L 703.634534 243.333425 
L 716.621474 243.329833 
L 729.608413 243.33127 
L 742.649017 243.331988 
L 744.225806 243.332163 
" clip-path="url(#pb2f0633887)" style="fill: none; stroke: #d2691e; stroke-width: 1.5; stroke-linecap: square"/>
   </g>
   <g id="line2d_19">
    <path d="M 40.12 243.333425 
L 53.106939 243.333425 
L 66.147544 243.333425 
L 79.134483 243.333425 
L 92.175087 243.333425 
L 105.162026 243.333425 
L 118.202631 243.333425 
L 131.18957 243.333425 
L 144.176509 243.333425 
L 157.217114 243.333425 
L 170.204053 243.333425 
L 183.244657 243.333425 
L 196.231597 84.503513 
L 209.245368 68.817221 
L 222.253774 164.656074 
L 235.267545 203.478428 
L 248.275951 224.455778 
L 261.284356 233.577433 
L 274.292761 238.41609 
L 287.306533 240.684948 
L 300.314938 241.981649 
L 313.32871 242.479284 
L 326.31565 242.79891 
L 339.356254 243.029238 
L 352.343193 243.164465 
L 365.383797 243.176758 
L 378.370737 243.22898 
L 391.357676 243.284266 
L 404.39828 243.308848 
L 417.38522 243.327278 
L 430.425824 243.308848 
L 443.412763 243.314989 
L 456.453368 243.327278 
L 469.440307 243.321136 
L 482.427246 243.327278 
L 495.46785 243.333425 
L 508.45479 243.327278 
L 521.495394 243.333425 
L 534.482333 243.333425 
L 547.522938 243.333425 
L 560.509877 243.333425 
L 573.496816 243.333425 
L 586.537421 243.333425 
L 599.52436 243.333425 
L 612.564964 243.333425 
L 625.551903 243.333425 
L 638.592508 243.333425 
L 651.579447 243.333425 
L 664.566386 243.333425 
L 677.606991 243.333425 
L 690.59393 243.333425 
L 703.634534 243.333425 
L 716.621474 243.333425 
L 729.608413 243.333425 
L 742.649017 243.333425 
L 744.225806 243.333425 
" clip-path="url(#pb2f0633887)" style="fill: none; stroke: #000000; stroke-width: 1.5; stroke-linecap: square"/>
   </g>
   <g id="line2d_20">
    <path d="M 40.12 243.333425 
L 53.106939 243.333425 
L 66.147544 243.333425 
L 79.134483 243.333425 
L 92.175087 243.333425 
L 105.162026 243.333425 
L 118.202631 243.333425 
L 131.18957 243.333425 
L 144.176509 243.333425 
L 157.217114 243.333425 
L 170.204053 243.333425 
L 183.244657 243.333425 
L 196.231597 57.212306 
L 209.245368 61.195348 
L 222.253774 174.490741 
L 235.267545 212.447648 
L 248.275951 231.27612 
L 261.284356 237.545722 
L 274.292761 240.578242 
L 287.306533 241.901988 
L 300.314938 242.482234 
L 313.32871 242.88457 
L 326.31565 243.085788 
L 339.356254 243.248306 
L 352.343193 243.29473 
L 365.383797 243.29473 
L 378.370737 243.317945 
L 391.357676 243.317945 
L 404.39828 243.333425 
L 417.38522 243.333425 
L 430.425824 243.333425 
L 443.412763 243.333425 
L 456.453368 243.333425 
L 469.440307 243.333425 
L 482.427246 243.333425 
L 495.46785 243.333425 
L 508.45479 243.333425 
L 521.495394 243.333425 
L 534.482333 243.333425 
L 547.522938 243.333425 
L 560.509877 243.333425 
L 573.496816 243.333425 
L 586.537421 243.333425 
L 599.52436 243.333425 
L 612.564964 243.333425 
L 625.551903 243.333425 
L 638.592508 243.333425 
L 651.579447 243.333425 
L 664.566386 243.333425 
L 677.606991 243.333425 
L 690.59393 243.333425 
L 703.634534 243.333425 
L 716.621474 243.333425 
L 729.608413 243.333425 
L 742.649017 243.333425 
L 744.225806 243.333425 
" clip-path="url(#pb2f0633887)" style="fill: none; stroke: #00ffff; stroke-width: 1.5; stroke-linecap: square"/>
   </g>
   <g id="line2d_21">
    <path d="M 40.12 243.333425 
L 53.106939 243.333425 
L 66.147544 243.333425 
L 79.134483 243.333425 
L 92.175087 243.333425 
L 105.162026 243.333425 
L 118.202631 243.333425 
L 131.18957 243.333425 
L 144.176509 243.333425 
L 157.217114 243.333425 
L 170.204053 243.333425 
L 183.244657 243.333425 
L 196.231597 100.976591 
L 209.245368 81.307257 
L 222.253774 156.985027 
L 235.267545 197.479281 
L 248.275951 219.169643 
L 261.284356 229.225592 
L 274.292761 236.026265 
L 287.306533 238.027621 
L 300.314938 241.408288 
L 313.32871 241.722506 
L 326.31565 242.861951 
L 339.356254 243.136977 
L 352.343193 243.294135 
L 365.383797 243.333425 
L 378.370737 243.333425 
L 391.357676 243.333425 
L 404.39828 243.333425 
L 417.38522 243.333425 
L 430.425824 243.333425 
L 443.412763 243.333425 
L 456.453368 243.333425 
L 469.440307 243.333425 
L 482.427246 243.333425 
L 495.46785 243.333425 
L 508.45479 243.333425 
L 521.495394 243.333425 
L 534.482333 243.333425 
L 547.522938 243.333425 
L 560.509877 243.333425 
L 573.496816 243.333425 
L 586.537421 243.333425 
L 599.52436 243.333425 
L 612.564964 243.333425 
L 625.551903 243.333425 
L 638.592508 243.333425 
L 651.579447 243.333425 
L 664.566386 243.333425 
L 677.606991 243.333425 
L 690.59393 243.333425 
L 703.634534 243.333425 
L 716.621474 243.333425 
L 729.608413 243.333425 
L 742.649017 243.333425 
L 744.225806 243.333425 
" clip-path="url(#pb2f0633887)" style="fill: none; stroke: #0000ff; stroke-width: 1.5; stroke-linecap: square"/>
   </g>
   <g id="line2d_22">
    <path d="M 40.12 243.333425 
L 53.106939 243.333425 
L 66.147544 243.333425 
L 79.134483 243.333425 
L 92.175087 243.333425 
L 105.162026 243.333425 
L 118.202631 243.333425 
L 131.18957 243.333425 
L 144.176509 243.333425 
L 157.217114 243.333425 
L 170.204053 243.333425 
L 183.244657 243.333425 
L 196.231597 84.503513 
L 209.250735 68.768054 
L 222.25914 164.656074 
L 235.267545 202.912936 
L 248.275951 224.401687 
L 261.284356 233.597102 
L 274.298128 238.543941 
L 287.306533 240.973104 
L 300.314938 242.099174 
L 313.32871 242.630246 
L 326.31565 242.817104 
L 339.356254 243.034942 
L 352.343193 243.131322 
L 365.383797 243.175578 
L 378.370737 243.181479 
L 391.357676 243.308887 
L 404.39828 243.308887 
L 417.38522 243.320935 
L 430.425824 243.29684 
L 443.412763 243.333425 
L 456.453368 243.321377 
L 469.440307 243.321377 
L 482.427246 243.333425 
L 495.46785 243.333425 
L 508.45479 243.333425 
L 521.495394 243.333425 
L 534.482333 243.333425 
L 547.522938 243.333425 
L 560.509877 243.333425 
L 573.496816 243.333425 
L 586.537421 243.333425 
L 599.52436 243.333425 
L 612.564964 243.333425 
L 625.551903 243.333425 
L 638.592508 243.333425 
L 651.579447 243.333425 
L 664.566386 243.333425 
L 677.606991 243.333425 
L 690.59393 243.333425 
L 703.634534 243.333425 
L 716.621474 243.333425 
L 729.662078 243.333425 
L 742.649017 243.333425 
L 744.225806 243.333425 
" clip-path="url(#pb2f0633887)" style="fill: none; stroke: #ff00ff; stroke-width: 1.5; stroke-linecap: square"/>
   </g>
   <g id="line2d_23">
    <path d="M 40.12 243.333425 
L 53.106939 243.333425 
L 66.147544 243.333425 
L 79.134483 243.333425 
L 92.175087 243.333425 
L 105.162026 243.333425 
L 118.202631 243.333425 
L 131.18957 243.333425 
L 144.176509 243.333425 
L 157.217114 243.333425 
L 170.204053 243.333425 
L 183.244657 243.333425 
L 196.231597 85.486982 
L 209.250735 71.226719 
L 222.25914 163.672605 
L 235.267545 202.96211 
L 248.275951 224.500033 
L 261.284356 232.023555 
L 274.298128 237.67849 
L 287.306533 240.481371 
L 300.314938 242.138512 
L 313.32871 242.531899 
L 326.31565 242.826939 
L 339.356254 242.943972 
L 352.343193 243.157384 
L 365.383797 243.216392 
L 378.370737 243.195247 
L 391.357676 243.333425 
L 404.39828 243.333425 
L 417.38522 243.333425 
L 430.425824 243.305838 
L 443.412763 243.333425 
L 456.453368 243.333425 
L 469.440307 243.333425 
L 482.427246 243.333425 
L 495.46785 243.333425 
L 508.45479 243.333425 
L 521.495394 243.333425 
L 534.482333 243.333425 
L 547.522938 243.333425 
L 560.509877 243.333425 
L 573.496816 243.333425 
L 586.537421 243.333425 
L 599.52436 243.333425 
L 612.564964 243.333425 
L 625.551903 243.333425 
L 638.592508 243.333425 
L 651.579447 243.333425 
L 664.566386 243.333425 
L 677.606991 243.333425 
L 690.59393 243.333425 
L 703.634534 243.333425 
L 716.621474 243.333425 
L 729.662078 243.333425 
L 742.649017 243.333425 
L 744.225806 243.333425 
" clip-path="url(#pb2f0633887)" style="fill: none; stroke-dasharray: 5.55,2.4; stroke-dashoffset: 0; stroke: #ff00ff; stroke-width: 1.5"/>
   </g>
   <g id="line2d_24">
    <path d="M 40.12 243.333425 
L 53.106939 243.333425 
L 66.147544 243.333425 
L 79.134483 243.333425 
L 92.175087 243.333425 
L 105.162026 243.333425 
L 118.202631 243.333425 
L 131.18957 243.333425 
L 144.176509 243.333425 
L 157.217114 243.333425 
L 170.204053 243.333425 
L 183.244657 243.333425 
L 196.231597 79.094456 
L 209.250735 67.784586 
L 222.25914 164.16434 
L 235.267545 205.814161 
L 248.275951 226.811181 
L 261.284356 234.875609 
L 274.298128 238.829146 
L 287.306533 241.041947 
L 300.314938 242.379462 
L 313.32871 242.546651 
L 326.31565 242.522064 
L 339.356254 242.842675 
L 352.343193 243.236061 
L 365.383797 243.020682 
L 378.370737 243.165252 
L 391.357676 243.282776 
L 404.39828 243.333425 
L 417.38522 243.333425 
L 430.425824 243.333425 
L 443.412763 243.285628 
L 456.453368 243.333425 
L 469.440307 243.333425 
L 482.427246 243.333425 
L 495.46785 243.333425 
L 508.45479 243.333425 
L 521.495394 243.333425 
L 534.482333 243.333425 
L 547.522938 243.333425 
L 560.509877 243.333425 
L 573.496816 243.333425 
L 586.537421 243.333425 
L 599.52436 243.333425 
L 612.564964 243.333425 
L 625.551903 243.333425 
L 638.592508 243.333425 
L 651.579447 243.333425 
L 664.566386 243.333425 
L 677.606991 243.333425 
L 690.59393 243.333425 
L 703.634534 243.333425 
L 716.621474 243.333425 
L 729.662078 243.333425 
L 742.649017 243.333425 
L 744.225806 243.333425 
" clip-path="url(#pb2f0633887)" style="fill: none; stroke-dasharray: 1.5,2.475; stroke-dashoffset: 0; stroke: #ff00ff; stroke-width: 1.5"/>
   </g>
   <g id="line2d_25">
    <path d="M 40.12 243.333425 
L 53.106939 243.333425 
L 66.147544 243.333425 
L 79.134483 243.333425 
L 92.175087 243.333425 
L 105.162026 243.333425 
L 118.202631 243.333425 
L 131.18957 243.333425 
L 144.176509 243.333425 
L 157.217114 243.333425 
L 170.204053 243.333425 
L 183.244657 243.333425 
L 196.231597 76.635791 
L 209.250735 64.342452 
L 222.25914 167.606473 
L 235.267545 206.404244 
L 248.275951 227.892995 
L 261.284356 235.02313 
L 274.298128 239.399557 
L 287.306533 240.919013 
L 300.314938 241.853307 
L 313.32871 242.408966 
L 326.31565 242.91791 
L 339.356254 242.998062 
L 352.343193 243.207049 
L 365.383797 243.22721 
L 378.370737 243.198198 
L 391.357676 243.306625 
L 404.39828 243.30333 
L 417.38522 243.318378 
L 430.425824 243.30333 
L 443.412763 243.333425 
L 456.453368 243.318378 
L 469.440307 243.333425 
L 482.427246 243.333425 
L 495.46785 243.333425 
L 508.45479 243.333425 
L 521.495394 243.333425 
L 534.482333 243.333425 
L 547.522938 243.333425 
L 560.509877 243.333425 
L 573.496816 243.333425 
L 586.537421 243.333425 
L 599.52436 243.333425 
L 612.564964 243.333425 
L 625.551903 243.333425 
L 638.592508 243.333425 
L 651.579447 243.333425 
L 664.566386 243.333425 
L 677.606991 243.333425 
L 690.59393 243.333425 
L 703.634534 243.333425 
L 716.621474 243.333425 
L 729.662078 243.333425 
L 742.649017 243.333425 
L 744.225806 243.333425 
" clip-path="url(#pb2f0633887)" style="fill: none; stroke: #ffa500; stroke-width: 1.5; stroke-linecap: square"/>
   </g>
   <g id="line2d_26">
    <path d="M 40.12 243.333425 
L 53.106939 243.333425 
L 66.147544 243.333425 
L 79.134483 243.333425 
L 92.175087 243.333425 
L 105.162026 243.333425 
L 118.202631 243.333425 
L 131.18957 243.333425 
L 144.176509 243.333425 
L 157.217114 243.333425 
L 170.204053 243.333425 
L 183.244657 243.333425 
L 196.231597 74.668853 
L 209.250735 63.358983 
L 222.25914 164.16434 
L 235.267545 207.928618 
L 248.275951 228.630595 
L 261.284356 236.547503 
L 274.298128 240.151909 
L 287.306533 241.602523 
L 300.314938 242.458139 
L 313.32871 242.65975 
L 326.31565 242.973967 
L 339.356254 243.183938 
L 352.343193 243.284989 
L 365.383797 243.229669 
L 378.370737 243.333425 
L 391.357676 243.234094 
L 404.39828 243.333425 
L 417.38522 243.333425 
L 430.425824 243.333425 
L 443.412763 243.333425 
L 456.453368 243.333425 
L 469.440307 243.333425 
L 482.427246 243.333425 
L 495.46785 243.333425 
L 508.45479 243.333425 
L 521.495394 243.333425 
L 534.482333 243.333425 
L 547.522938 243.333425 
L 560.509877 243.333425 
L 573.496816 243.333425 
L 586.537421 243.333425 
L 599.52436 243.333425 
L 612.564964 243.333425 
L 625.551903 243.333425 
L 638.592508 243.333425 
L 651.579447 243.333425 
L 664.566386 243.333425 
L 677.606991 243.333425 
L 690.59393 243.333425 
L 703.634534 243.333425 
L 716.621474 243.333425 
L 729.662078 243.333425 
L 742.649017 243.333425 
L 744.225806 243.333425 
" clip-path="url(#pb2f0633887)" style="fill: none; stroke-dasharray: 5.55,2.4; stroke-dashoffset: 0; stroke: #ffa500; stroke-width: 1.5"/>
   </g>
   <g id="line2d_27">
    <path d="M 40.12 243.333425 
L 53.106939 243.333425 
L 66.147544 243.333425 
L 79.134483 243.333425 
L 92.175087 243.333425 
L 105.162026 243.333425 
L 118.202631 243.333425 
L 131.18957 243.333425 
L 144.176509 243.333425 
L 157.217114 243.333425 
L 170.204053 243.333425 
L 183.244657 243.333425 
L 196.231597 61.883787 
L 209.250735 70.734978 
L 222.25914 172.032076 
L 235.267545 210.387282 
L 248.275951 227.450435 
L 261.284356 235.760729 
L 274.298128 238.366917 
L 287.306533 241.361574 
L 300.314938 241.799216 
L 313.32871 242.867753 
L 326.31565 243.07674 
L 339.356254 243.289857 
L 352.343193 243.07969 
L 365.383797 242.870212 
L 378.370737 243.206066 
L 391.357676 243.333425 
L 404.39828 243.204099 
L 417.38522 243.333425 
L 430.425824 243.333425 
L 443.412763 243.333425 
L 456.453368 243.333425 
L 469.440307 243.333425 
L 482.427246 243.333425 
L 495.46785 243.333425 
L 508.45479 243.333425 
L 521.495394 243.333425 
L 534.482333 243.333425 
L 547.522938 243.333425 
L 560.509877 243.333425 
L 573.496816 243.333425 
L 586.537421 243.333425 
L 599.52436 243.333425 
L 612.564964 243.333425 
L 625.551903 243.333425 
L 638.592508 243.333425 
L 651.579447 243.333425 
L 664.566386 243.333425 
L 677.606991 243.333425 
L 690.59393 243.333425 
L 703.634534 243.333425 
L 716.621474 243.333425 
L 729.662078 243.333425 
L 742.649017 243.333425 
L 744.225806 243.333425 
" clip-path="url(#pb2f0633887)" style="fill: none; stroke-dasharray: 1.5,2.475; stroke-dashoffset: 0; stroke: #008000; stroke-width: 1.5"/>
   </g>
   <g id="patch_3">
    <path d="M 40.12 252.639481 
L 40.12 47.90625 
" style="fill: none; stroke: #000000; stroke-width: 0.8; stroke-linejoin: miter; stroke-linecap: square"/>
   </g>
   <g id="patch_4">
    <path d="M 362.11023 252.639481 
L 362.11023 47.90625 
" style="fill: none; stroke: #000000; stroke-width: 0.8; stroke-linejoin: miter; stroke-linecap: square"/>
   </g>
   <g id="patch_5">
    <path d="M 40.12 252.639481 
L 362.11023 252.639481 
" style="fill: none; stroke: #000000; stroke-width: 0.8; stroke-linejoin: miter; stroke-linecap: square"/>
   </g>
   <g id="patch_6">
    <path d="M 40.12 47.90625 
L 362.11023 47.90625 
" style="fill: none; stroke: #000000; stroke-width: 0.8; stroke-linejoin: miter; stroke-linecap: square"/>
   </g>
   <g id="text_16">
    <!-- Reseek P(score|F) -->
    <g transform="translate(147.742303 41.90625) scale(0.12 -0.12)">
     <defs>
      <path id="DejaVuSans-52" d="M 2841 2188 
Q 3044 2119 3236 1894 
Q 3428 1669 3622 1275 
L 4263 0 
L 3584 0 
L 2988 1197 
Q 2756 1666 2539 1819 
Q 2322 1972 1947 1972 
L 1259 1972 
L 1259 0 
L 628 0 
L 628 4666 
L 2053 4666 
Q 2853 4666 3247 4331 
Q 3641 3997 3641 3322 
Q 3641 2881 3436 2590 
Q 3231 2300 2841 2188 
z
M 1259 4147 
L 1259 2491 
L 2053 2491 
Q 2509 2491 2742 2702 
Q 2975 2913 2975 3322 
Q 2975 3731 2742 3939 
Q 2509 4147 2053 4147 
L 1259 4147 
z
" transform="scale(0.015625)"/>
      <path id="DejaVuSans-65" d="M 3597 1894 
L 3597 1613 
L 953 1613 
Q 991 1019 1311 708 
Q 1631 397 2203 397 
Q 2534 397 2845 478 
Q 3156 559 3463 722 
L 3463 178 
Q 3153 47 2828 -22 
Q 2503 -91 2169 -91 
Q 1331 -91 842 396 
Q 353 884 353 1716 
Q 353 2575 817 3079 
Q 1281 3584 2069 3584 
Q 2775 3584 3186 3129 
Q 3597 2675 3597 1894 
z
M 3022 2063 
Q 3016 2534 2758 2815 
Q 2500 3097 2075 3097 
Q 1594 3097 1305 2825 
Q 1016 2553 972 2059 
L 3022 2063 
z
" transform="scale(0.015625)"/>
      <path id="DejaVuSans-73" d="M 2834 3397 
L 2834 2853 
Q 2591 2978 2328 3040 
Q 2066 3103 1784 3103 
Q 1356 3103 1142 2972 
Q 928 2841 928 2578 
Q 928 2378 1081 2264 
Q 1234 2150 1697 2047 
L 1894 2003 
Q 2506 1872 2764 1633 
Q 3022 1394 3022 966 
Q 3022 478 2636 193 
Q 2250 -91 1575 -91 
Q 1294 -91 989 -36 
Q 684 19 347 128 
L 347 722 
Q 666 556 975 473 
Q 1284 391 1588 391 
Q 1994 391 2212 530 
Q 2431 669 2431 922 
Q 2431 1156 2273 1281 
Q 2116 1406 1581 1522 
L 1381 1569 
Q 847 1681 609 1914 
Q 372 2147 372 2553 
Q 372 3047 722 3315 
Q 1072 3584 1716 3584 
Q 2034 3584 2315 3537 
Q 2597 3491 2834 3397 
z
" transform="scale(0.015625)"/>
      <path id="DejaVuSans-6b" d="M 581 4863 
L 1159 4863 
L 1159 1991 
L 2875 3500 
L 3609 3500 
L 1753 1863 
L 3688 0 
L 2938 0 
L 1159 1709 
L 1159 0 
L 581 0 
L 581 4863 
z
" transform="scale(0.015625)"/>
      <path id="DejaVuSans-20" transform="scale(0.015625)"/>
      <path id="DejaVuSans-50" d="M 1259 4147 
L 1259 2394 
L 2053 2394 
Q 2494 2394 2734 2622 
Q 2975 2850 2975 3272 
Q 2975 3691 2734 3919 
Q 2494 4147 2053 4147 
L 1259 4147 
z
M 628 4666 
L 2053 4666 
Q 2838 4666 3239 4311 
Q 3641 3956 3641 3272 
Q 3641 2581 3239 2228 
Q 2838 1875 2053 1875 
L 1259 1875 
L 1259 0 
L 628 0 
L 628 4666 
z
" transform="scale(0.015625)"/>
      <path id="DejaVuSans-28" d="M 1984 4856 
Q 1566 4138 1362 3434 
Q 1159 2731 1159 2009 
Q 1159 1288 1364 580 
Q 1569 -128 1984 -844 
L 1484 -844 
Q 1016 -109 783 600 
Q 550 1309 550 2009 
Q 550 2706 781 3412 
Q 1013 4119 1484 4856 
L 1984 4856 
z
" transform="scale(0.015625)"/>
      <path id="DejaVuSans-63" d="M 3122 3366 
L 3122 2828 
Q 2878 2963 2633 3030 
Q 2388 3097 2138 3097 
Q 1578 3097 1268 2742 
Q 959 2388 959 1747 
Q 959 1106 1268 751 
Q 1578 397 2138 397 
Q 2388 397 2633 464 
Q 2878 531 3122 666 
L 3122 134 
Q 2881 22 2623 -34 
Q 2366 -91 2075 -91 
Q 1284 -91 818 406 
Q 353 903 353 1747 
Q 353 2603 823 3093 
Q 1294 3584 2113 3584 
Q 2378 3584 2631 3529 
Q 2884 3475 3122 3366 
z
" transform="scale(0.015625)"/>
      <path id="DejaVuSans-6f" d="M 1959 3097 
Q 1497 3097 1228 2736 
Q 959 2375 959 1747 
Q 959 1119 1226 758 
Q 1494 397 1959 397 
Q 2419 397 2687 759 
Q 2956 1122 2956 1747 
Q 2956 2369 2687 2733 
Q 2419 3097 1959 3097 
z
M 1959 3584 
Q 2709 3584 3137 3096 
Q 3566 2609 3566 1747 
Q 3566 888 3137 398 
Q 2709 -91 1959 -91 
Q 1206 -91 779 398 
Q 353 888 353 1747 
Q 353 2609 779 3096 
Q 1206 3584 1959 3584 
z
" transform="scale(0.015625)"/>
      <path id="DejaVuSans-72" d="M 2631 2963 
Q 2534 3019 2420 3045 
Q 2306 3072 2169 3072 
Q 1681 3072 1420 2755 
Q 1159 2438 1159 1844 
L 1159 0 
L 581 0 
L 581 3500 
L 1159 3500 
L 1159 2956 
Q 1341 3275 1631 3429 
Q 1922 3584 2338 3584 
Q 2397 3584 2469 3576 
Q 2541 3569 2628 3553 
L 2631 2963 
z
" transform="scale(0.015625)"/>
      <path id="DejaVuSans-7c" d="M 1344 4891 
L 1344 -1509 
L 813 -1509 
L 813 4891 
L 1344 4891 
z
" transform="scale(0.015625)"/>
      <path id="DejaVuSans-46" d="M 628 4666 
L 3309 4666 
L 3309 4134 
L 1259 4134 
L 1259 2759 
L 3109 2759 
L 3109 2228 
L 1259 2228 
L 1259 0 
L 628 0 
L 628 4666 
z
" transform="scale(0.015625)"/>
      <path id="DejaVuSans-29" d="M 513 4856 
L 1013 4856 
Q 1481 4119 1714 3412 
Q 1947 2706 1947 2009 
Q 1947 1309 1714 600 
Q 1481 -109 1013 -844 
L 513 -844 
Q 928 -128 1133 580 
Q 1338 1288 1338 2009 
Q 1338 2731 1133 3434 
Q 928 4138 513 4856 
z
" transform="scale(0.015625)"/>
     </defs>
     <use xlink:href="#DejaVuSans-52"/>
     <use xlink:href="#DejaVuSans-65" transform="translate(64.982422 0)"/>
     <use xlink:href="#DejaVuSans-73" transform="translate(126.505859 0)"/>
     <use xlink:href="#DejaVuSans-65" transform="translate(178.605469 0)"/>
     <use xlink:href="#DejaVuSans-65" transform="translate(240.128906 0)"/>
     <use xlink:href="#DejaVuSans-6b" transform="translate(301.652344 0)"/>
     <use xlink:href="#DejaVuSans-20" transform="translate(359.5625 0)"/>
     <use xlink:href="#DejaVuSans-50" transform="translate(391.349609 0)"/>
     <use xlink:href="#DejaVuSans-28" transform="translate(451.652344 0)"/>
     <use xlink:href="#DejaVuSans-73" transform="translate(490.666016 0)"/>
     <use xlink:href="#DejaVuSans-63" transform="translate(542.765625 0)"/>
     <use xlink:href="#DejaVuSans-6f" transform="translate(597.746094 0)"/>
     <use xlink:href="#DejaVuSans-72" transform="translate(658.927734 0)"/>
     <use xlink:href="#DejaVuSans-65" transform="translate(697.791016 0)"/>
     <use xlink:href="#DejaVuSans-7c" transform="translate(759.314453 0)"/>
     <use xlink:href="#DejaVuSans-46" transform="translate(793.005859 0)"/>
     <use xlink:href="#DejaVuSans-29" transform="translate(850.525391 0)"/>
    </g>
   </g>
   <g id="legend_1">
    <g id="patch_7">
     <path d="M 47.12 232.04375 
L 140.909063 232.04375 
Q 142.909063 232.04375 142.909063 230.04375 
L 142.909063 54.90625 
Q 142.909063 52.90625 140.909063 52.90625 
L 47.12 52.90625 
Q 45.12 52.90625 45.12 54.90625 
L 45.12 230.04375 
Q 45.12 232.04375 47.12 232.04375 
z
" style="fill: #ffffff; opacity: 0.8; stroke: #cccccc; stroke-linejoin: miter"/>
    </g>
    <g id="line2d_28">
     <path d="M 49.12 61.004687 
L 59.12 61.004687 
L 69.12 61.004687 
" style="fill: none; stroke-dasharray: 9.6,2.4,1.5,2.4; stroke-dashoffset: 0; stroke: #000000; stroke-width: 1.5"/>
    </g>
    <g id="text_17">
     <!-- SCOP40x8 -->
     <g transform="translate(77.12 64.504687) scale(0.1 -0.1)">
      <defs>
       <path id="DejaVuSans-53" d="M 3425 4513 
L 3425 3897 
Q 3066 4069 2747 4153 
Q 2428 4238 2131 4238 
Q 1616 4238 1336 4038 
Q 1056 3838 1056 3469 
Q 1056 3159 1242 3001 
Q 1428 2844 1947 2747 
L 2328 2669 
Q 3034 2534 3370 2195 
Q 3706 1856 3706 1288 
Q 3706 609 3251 259 
Q 2797 -91 1919 -91 
Q 1588 -91 1214 -16 
Q 841 59 441 206 
L 441 856 
Q 825 641 1194 531 
Q 1563 422 1919 422 
Q 2459 422 2753 634 
Q 3047 847 3047 1241 
Q 3047 1584 2836 1778 
Q 2625 1972 2144 2069 
L 1759 2144 
Q 1053 2284 737 2584 
Q 422 2884 422 3419 
Q 422 4038 858 4394 
Q 1294 4750 2059 4750 
Q 2388 4750 2728 4690 
Q 3069 4631 3425 4513 
z
" transform="scale(0.015625)"/>
       <path id="DejaVuSans-43" d="M 4122 4306 
L 4122 3641 
Q 3803 3938 3442 4084 
Q 3081 4231 2675 4231 
Q 1875 4231 1450 3742 
Q 1025 3253 1025 2328 
Q 1025 1406 1450 917 
Q 1875 428 2675 428 
Q 3081 428 3442 575 
Q 3803 722 4122 1019 
L 4122 359 
Q 3791 134 3420 21 
Q 3050 -91 2638 -91 
Q 1578 -91 968 557 
Q 359 1206 359 2328 
Q 359 3453 968 4101 
Q 1578 4750 2638 4750 
Q 3056 4750 3426 4639 
Q 3797 4528 4122 4306 
z
" transform="scale(0.015625)"/>
       <path id="DejaVuSans-4f" d="M 2522 4238 
Q 1834 4238 1429 3725 
Q 1025 3213 1025 2328 
Q 1025 1447 1429 934 
Q 1834 422 2522 422 
Q 3209 422 3611 934 
Q 4013 1447 4013 2328 
Q 4013 3213 3611 3725 
Q 3209 4238 2522 4238 
z
M 2522 4750 
Q 3503 4750 4090 4092 
Q 4678 3434 4678 2328 
Q 4678 1225 4090 567 
Q 3503 -91 2522 -91 
Q 1538 -91 948 565 
Q 359 1222 359 2328 
Q 359 3434 948 4092 
Q 1538 4750 2522 4750 
z
" transform="scale(0.015625)"/>
       <path id="DejaVuSans-78" d="M 3513 3500 
L 2247 1797 
L 3578 0 
L 2900 0 
L 1881 1375 
L 863 0 
L 184 0 
L 1544 1831 
L 300 3500 
L 978 3500 
L 1906 2253 
L 2834 3500 
L 3513 3500 
z
" transform="scale(0.015625)"/>
       <path id="DejaVuSans-38" d="M 2034 2216 
Q 1584 2216 1326 1975 
Q 1069 1734 1069 1313 
Q 1069 891 1326 650 
Q 1584 409 2034 409 
Q 2484 409 2743 651 
Q 3003 894 3003 1313 
Q 3003 1734 2745 1975 
Q 2488 2216 2034 2216 
z
M 1403 2484 
Q 997 2584 770 2862 
Q 544 3141 544 3541 
Q 544 4100 942 4425 
Q 1341 4750 2034 4750 
Q 2731 4750 3128 4425 
Q 3525 4100 3525 3541 
Q 3525 3141 3298 2862 
Q 3072 2584 2669 2484 
Q 3125 2378 3379 2068 
Q 3634 1759 3634 1313 
Q 3634 634 3220 271 
Q 2806 -91 2034 -91 
Q 1263 -91 848 271 
Q 434 634 434 1313 
Q 434 1759 690 2068 
Q 947 2378 1403 2484 
z
M 1172 3481 
Q 1172 3119 1398 2916 
Q 1625 2713 2034 2713 
Q 2441 2713 2670 2916 
Q 2900 3119 2900 3481 
Q 2900 3844 2670 4047 
Q 2441 4250 2034 4250 
Q 1625 4250 1398 4047 
Q 1172 3844 1172 3481 
z
" transform="scale(0.015625)"/>
      </defs>
      <use xlink:href="#DejaVuSans-53"/>
      <use xlink:href="#DejaVuSans-43" transform="translate(63.476562 0)"/>
      <use xlink:href="#DejaVuSans-4f" transform="translate(133.300781 0)"/>
      <use xlink:href="#DejaVuSans-50" transform="translate(212.011719 0)"/>
      <use xlink:href="#DejaVuSans-34" transform="translate(272.314453 0)"/>
      <use xlink:href="#DejaVuSans-30" transform="translate(335.9375 0)"/>
      <use xlink:href="#DejaVuSans-78" transform="translate(399.560547 0)"/>
      <use xlink:href="#DejaVuSans-38" transform="translate(458.740234 0)"/>
     </g>
    </g>
    <g id="line2d_29">
     <path d="M 49.12 75.682813 
L 59.12 75.682813 
L 69.12 75.682813 
" style="fill: none; stroke-dasharray: 9.6,2.4,1.5,2.4; stroke-dashoffset: 0; stroke: #008000; stroke-width: 1.5"/>
    </g>
    <g id="text_18">
     <!-- SCOP40x4 -->
     <g transform="translate(77.12 79.182813) scale(0.1 -0.1)">
      <use xlink:href="#DejaVuSans-53"/>
      <use xlink:href="#DejaVuSans-43" transform="translate(63.476562 0)"/>
      <use xlink:href="#DejaVuSans-4f" transform="translate(133.300781 0)"/>
      <use xlink:href="#DejaVuSans-50" transform="translate(212.011719 0)"/>
      <use xlink:href="#DejaVuSans-34" transform="translate(272.314453 0)"/>
      <use xlink:href="#DejaVuSans-30" transform="translate(335.9375 0)"/>
      <use xlink:href="#DejaVuSans-78" transform="translate(399.560547 0)"/>
      <use xlink:href="#DejaVuSans-34" transform="translate(458.740234 0)"/>
     </g>
    </g>
    <g id="line2d_30">
     <path d="M 49.12 90.360938 
L 59.12 90.360938 
L 69.12 90.360938 
" style="fill: none; stroke: #d2691e; stroke-width: 1.5; stroke-linecap: square"/>
    </g>
    <g id="text_19">
     <!-- CATH40 -->
     <g transform="translate(77.12 93.860938) scale(0.1 -0.1)">
      <defs>
       <path id="DejaVuSans-41" d="M 2188 4044 
L 1331 1722 
L 3047 1722 
L 2188 4044 
z
M 1831 4666 
L 2547 4666 
L 4325 0 
L 3669 0 
L 3244 1197 
L 1141 1197 
L 716 0 
L 50 0 
L 1831 4666 
z
" transform="scale(0.015625)"/>
       <path id="DejaVuSans-54" d="M -19 4666 
L 3928 4666 
L 3928 4134 
L 2272 4134 
L 2272 0 
L 1638 0 
L 1638 4134 
L -19 4134 
L -19 4666 
z
" transform="scale(0.015625)"/>
       <path id="DejaVuSans-48" d="M 628 4666 
L 1259 4666 
L 1259 2753 
L 3553 2753 
L 3553 4666 
L 4184 4666 
L 4184 0 
L 3553 0 
L 3553 2222 
L 1259 2222 
L 1259 0 
L 628 0 
L 628 4666 
z
" transform="scale(0.015625)"/>
      </defs>
      <use xlink:href="#DejaVuSans-43"/>
      <use xlink:href="#DejaVuSans-41" transform="translate(69.824219 0)"/>
      <use xlink:href="#DejaVuSans-54" transform="translate(130.482422 0)"/>
      <use xlink:href="#DejaVuSans-48" transform="translate(191.566406 0)"/>
      <use xlink:href="#DejaVuSans-34" transform="translate(266.761719 0)"/>
      <use xlink:href="#DejaVuSans-30" transform="translate(330.384766 0)"/>
     </g>
    </g>
    <g id="line2d_31">
     <path d="M 49.12 105.039062 
L 59.12 105.039062 
L 69.12 105.039062 
" style="fill: none; stroke: #000000; stroke-width: 1.5; stroke-linecap: square"/>
    </g>
    <g id="text_20">
     <!-- SCOP40 -->
     <g transform="translate(77.12 108.539062) scale(0.1 -0.1)">
      <use xlink:href="#DejaVuSans-53"/>
      <use xlink:href="#DejaVuSans-43" transform="translate(63.476562 0)"/>
      <use xlink:href="#DejaVuSans-4f" transform="translate(133.300781 0)"/>
      <use xlink:href="#DejaVuSans-50" transform="translate(212.011719 0)"/>
      <use xlink:href="#DejaVuSans-34" transform="translate(272.314453 0)"/>
      <use xlink:href="#DejaVuSans-30" transform="translate(335.9375 0)"/>
     </g>
    </g>
    <g id="line2d_32">
     <path d="M 49.12 119.717188 
L 59.12 119.717188 
L 69.12 119.717188 
" style="fill: none; stroke: #00ffff; stroke-width: 1.5; stroke-linecap: square"/>
    </g>
    <g id="text_21">
     <!-- SCOP40c -->
     <g transform="translate(77.12 123.217188) scale(0.1 -0.1)">
      <use xlink:href="#DejaVuSans-53"/>
      <use xlink:href="#DejaVuSans-43" transform="translate(63.476562 0)"/>
      <use xlink:href="#DejaVuSans-4f" transform="translate(133.300781 0)"/>
      <use xlink:href="#DejaVuSans-50" transform="translate(212.011719 0)"/>
      <use xlink:href="#DejaVuSans-34" transform="translate(272.314453 0)"/>
      <use xlink:href="#DejaVuSans-30" transform="translate(335.9375 0)"/>
      <use xlink:href="#DejaVuSans-63" transform="translate(399.560547 0)"/>
     </g>
    </g>
    <g id="line2d_33">
     <path d="M 49.12 134.395312 
L 59.12 134.395312 
L 69.12 134.395312 
" style="fill: none; stroke: #0000ff; stroke-width: 1.5; stroke-linecap: square"/>
    </g>
    <g id="text_22">
     <!-- SCOP95 -->
     <g transform="translate(77.12 137.895312) scale(0.1 -0.1)">
      <defs>
       <path id="DejaVuSans-39" d="M 703 97 
L 703 672 
Q 941 559 1184 500 
Q 1428 441 1663 441 
Q 2288 441 2617 861 
Q 2947 1281 2994 2138 
Q 2813 1869 2534 1725 
Q 2256 1581 1919 1581 
Q 1219 1581 811 2004 
Q 403 2428 403 3163 
Q 403 3881 828 4315 
Q 1253 4750 1959 4750 
Q 2769 4750 3195 4129 
Q 3622 3509 3622 2328 
Q 3622 1225 3098 567 
Q 2575 -91 1691 -91 
Q 1453 -91 1209 -44 
Q 966 3 703 97 
z
M 1959 2075 
Q 2384 2075 2632 2365 
Q 2881 2656 2881 3163 
Q 2881 3666 2632 3958 
Q 2384 4250 1959 4250 
Q 1534 4250 1286 3958 
Q 1038 3666 1038 3163 
Q 1038 2656 1286 2365 
Q 1534 2075 1959 2075 
z
" transform="scale(0.015625)"/>
      </defs>
      <use xlink:href="#DejaVuSans-53"/>
      <use xlink:href="#DejaVuSans-43" transform="translate(63.476562 0)"/>
      <use xlink:href="#DejaVuSans-4f" transform="translate(133.300781 0)"/>
      <use xlink:href="#DejaVuSans-50" transform="translate(212.011719 0)"/>
      <use xlink:href="#DejaVuSans-39" transform="translate(272.314453 0)"/>
      <use xlink:href="#DejaVuSans-35" transform="translate(335.9375 0)"/>
     </g>
    </g>
    <g id="line2d_34">
     <path d="M 49.12 149.073438 
L 59.12 149.073438 
L 69.12 149.073438 
" style="fill: none; stroke: #ff00ff; stroke-width: 1.5; stroke-linecap: square"/>
    </g>
    <g id="text_23">
     <!-- SCOP40/N4 -->
     <g transform="translate(77.12 152.573438) scale(0.1 -0.1)">
      <defs>
       <path id="DejaVuSans-2f" d="M 1625 4666 
L 2156 4666 
L 531 -594 
L 0 -594 
L 1625 4666 
z
" transform="scale(0.015625)"/>
       <path id="DejaVuSans-4e" d="M 628 4666 
L 1478 4666 
L 3547 763 
L 3547 4666 
L 4159 4666 
L 4159 0 
L 3309 0 
L 1241 3903 
L 1241 0 
L 628 0 
L 628 4666 
z
" transform="scale(0.015625)"/>
      </defs>
      <use xlink:href="#DejaVuSans-53"/>
      <use xlink:href="#DejaVuSans-43" transform="translate(63.476562 0)"/>
      <use xlink:href="#DejaVuSans-4f" transform="translate(133.300781 0)"/>
      <use xlink:href="#DejaVuSans-50" transform="translate(212.011719 0)"/>
      <use xlink:href="#DejaVuSans-34" transform="translate(272.314453 0)"/>
      <use xlink:href="#DejaVuSans-30" transform="translate(335.9375 0)"/>
      <use xlink:href="#DejaVuSans-2f" transform="translate(399.560547 0)"/>
      <use xlink:href="#DejaVuSans-4e" transform="translate(433.251953 0)"/>
      <use xlink:href="#DejaVuSans-34" transform="translate(508.056641 0)"/>
     </g>
    </g>
    <g id="line2d_35">
     <path d="M 49.12 163.751562 
L 59.12 163.751562 
L 69.12 163.751562 
" style="fill: none; stroke-dasharray: 5.55,2.4; stroke-dashoffset: 0; stroke: #ff00ff; stroke-width: 1.5"/>
    </g>
    <g id="text_24">
     <!-- SCOP40/N4 -->
     <g transform="translate(77.12 167.251562) scale(0.1 -0.1)">
      <use xlink:href="#DejaVuSans-53"/>
      <use xlink:href="#DejaVuSans-43" transform="translate(63.476562 0)"/>
      <use xlink:href="#DejaVuSans-4f" transform="translate(133.300781 0)"/>
      <use xlink:href="#DejaVuSans-50" transform="translate(212.011719 0)"/>
      <use xlink:href="#DejaVuSans-34" transform="translate(272.314453 0)"/>
      <use xlink:href="#DejaVuSans-30" transform="translate(335.9375 0)"/>
      <use xlink:href="#DejaVuSans-2f" transform="translate(399.560547 0)"/>
      <use xlink:href="#DejaVuSans-4e" transform="translate(433.251953 0)"/>
      <use xlink:href="#DejaVuSans-34" transform="translate(508.056641 0)"/>
     </g>
    </g>
    <g id="line2d_36">
     <path d="M 49.12 178.429688 
L 59.12 178.429688 
L 69.12 178.429688 
" style="fill: none; stroke-dasharray: 1.5,2.475; stroke-dashoffset: 0; stroke: #ff00ff; stroke-width: 1.5"/>
    </g>
    <g id="text_25">
     <!-- SCOP40/N8 -->
     <g transform="translate(77.12 181.929688) scale(0.1 -0.1)">
      <use xlink:href="#DejaVuSans-53"/>
      <use xlink:href="#DejaVuSans-43" transform="translate(63.476562 0)"/>
      <use xlink:href="#DejaVuSans-4f" transform="translate(133.300781 0)"/>
      <use xlink:href="#DejaVuSans-50" transform="translate(212.011719 0)"/>
      <use xlink:href="#DejaVuSans-34" transform="translate(272.314453 0)"/>
      <use xlink:href="#DejaVuSans-30" transform="translate(335.9375 0)"/>
      <use xlink:href="#DejaVuSans-2f" transform="translate(399.560547 0)"/>
      <use xlink:href="#DejaVuSans-4e" transform="translate(433.251953 0)"/>
      <use xlink:href="#DejaVuSans-38" transform="translate(508.056641 0)"/>
     </g>
    </g>
    <g id="line2d_37">
     <path d="M 49.12 193.107812 
L 59.12 193.107812 
L 69.12 193.107812 
" style="fill: none; stroke: #ffa500; stroke-width: 1.5; stroke-linecap: square"/>
    </g>
    <g id="text_26">
     <!-- SCOP40/SF4 -->
     <g transform="translate(77.12 196.607812) scale(0.1 -0.1)">
      <use xlink:href="#DejaVuSans-53"/>
      <use xlink:href="#DejaVuSans-43" transform="translate(63.476562 0)"/>
      <use xlink:href="#DejaVuSans-4f" transform="translate(133.300781 0)"/>
      <use xlink:href="#DejaVuSans-50" transform="translate(212.011719 0)"/>
      <use xlink:href="#DejaVuSans-34" transform="translate(272.314453 0)"/>
      <use xlink:href="#DejaVuSans-30" transform="translate(335.9375 0)"/>
      <use xlink:href="#DejaVuSans-2f" transform="translate(399.560547 0)"/>
      <use xlink:href="#DejaVuSans-53" transform="translate(433.251953 0)"/>
      <use xlink:href="#DejaVuSans-46" transform="translate(496.728516 0)"/>
      <use xlink:href="#DejaVuSans-34" transform="translate(554.248047 0)"/>
     </g>
    </g>
    <g id="line2d_38">
     <path d="M 49.12 207.785937 
L 59.12 207.785937 
L 69.12 207.785937 
" style="fill: none; stroke-dasharray: 5.55,2.4; stroke-dashoffset: 0; stroke: #ffa500; stroke-width: 1.5"/>
    </g>
    <g id="text_27">
     <!-- SCOP40/SF4 -->
     <g transform="translate(77.12 211.285937) scale(0.1 -0.1)">
      <use xlink:href="#DejaVuSans-53"/>
      <use xlink:href="#DejaVuSans-43" transform="translate(63.476562 0)"/>
      <use xlink:href="#DejaVuSans-4f" transform="translate(133.300781 0)"/>
      <use xlink:href="#DejaVuSans-50" transform="translate(212.011719 0)"/>
      <use xlink:href="#DejaVuSans-34" transform="translate(272.314453 0)"/>
      <use xlink:href="#DejaVuSans-30" transform="translate(335.9375 0)"/>
      <use xlink:href="#DejaVuSans-2f" transform="translate(399.560547 0)"/>
      <use xlink:href="#DejaVuSans-53" transform="translate(433.251953 0)"/>
      <use xlink:href="#DejaVuSans-46" transform="translate(496.728516 0)"/>
      <use xlink:href="#DejaVuSans-34" transform="translate(554.248047 0)"/>
     </g>
    </g>
    <g id="line2d_39">
     <path d="M 49.12 222.464062 
L 59.12 222.464062 
L 69.12 222.464062 
" style="fill: none; stroke-dasharray: 1.5,2.475; stroke-dashoffset: 0; stroke: #008000; stroke-width: 1.5"/>
    </g>
    <g id="text_28">
     <!-- SCOP40/SF8 -->
     <g transform="translate(77.12 225.964062) scale(0.1 -0.1)">
      <use xlink:href="#DejaVuSans-53"/>
      <use xlink:href="#DejaVuSans-43" transform="translate(63.476562 0)"/>
      <use xlink:href="#DejaVuSans-4f" transform="translate(133.300781 0)"/>
      <use xlink:href="#DejaVuSans-50" transform="translate(212.011719 0)"/>
      <use xlink:href="#DejaVuSans-34" transform="translate(272.314453 0)"/>
      <use xlink:href="#DejaVuSans-30" transform="translate(335.9375 0)"/>
      <use xlink:href="#DejaVuSans-2f" transform="translate(399.560547 0)"/>
      <use xlink:href="#DejaVuSans-53" transform="translate(433.251953 0)"/>
      <use xlink:href="#DejaVuSans-46" transform="translate(496.728516 0)"/>
      <use xlink:href="#DejaVuSans-38" transform="translate(554.248047 0)"/>
     </g>
    </g>
   </g>
  </g>
  <g id="axes_2">
   <g id="patch_8">
    <path d="M 407.240576 252.639481 
L 729.230806 252.639481 
L 729.230806 47.90625 
L 407.240576 47.90625 
z
" style="fill: #ffffff"/>
   </g>
   <g id="matplotlib.axis_3">
    <g id="xtick_8">
     <g id="line2d_40">
      <g>
       <use xlink:href="#me59e459702" x="407.240576" y="252.639481" style="stroke: #000000; stroke-width: 0.8"/>
      </g>
     </g>
     <g id="text_29">
      <!-- −4 -->
      <g transform="translate(399.869483 267.237918) scale(0.1 -0.1)">
       <use xlink:href="#DejaVuSans-2212"/>
       <use xlink:href="#DejaVuSans-34" transform="translate(83.789062 0)"/>
      </g>
     </g>
    </g>
    <g id="xtick_9">
     <g id="line2d_41">
      <g>
       <use xlink:href="#me59e459702" x="460.905615" y="252.639481" style="stroke: #000000; stroke-width: 0.8"/>
      </g>
     </g>
     <g id="text_30">
      <!-- −3 -->
      <g transform="translate(453.534521 267.237918) scale(0.1 -0.1)">
       <use xlink:href="#DejaVuSans-2212"/>
       <use xlink:href="#DejaVuSans-33" transform="translate(83.789062 0)"/>
      </g>
     </g>
    </g>
    <g id="xtick_10">
     <g id="line2d_42">
      <g>
       <use xlink:href="#me59e459702" x="514.570653" y="252.639481" style="stroke: #000000; stroke-width: 0.8"/>
      </g>
     </g>
     <g id="text_31">
      <!-- −2 -->
      <g transform="translate(507.199559 267.237918) scale(0.1 -0.1)">
       <use xlink:href="#DejaVuSans-2212"/>
       <use xlink:href="#DejaVuSans-32" transform="translate(83.789062 0)"/>
      </g>
     </g>
    </g>
    <g id="xtick_11">
     <g id="line2d_43">
      <g>
       <use xlink:href="#me59e459702" x="568.235691" y="252.639481" style="stroke: #000000; stroke-width: 0.8"/>
      </g>
     </g>
     <g id="text_32">
      <!-- −1 -->
      <g transform="translate(560.864598 267.237918) scale(0.1 -0.1)">
       <use xlink:href="#DejaVuSans-2212"/>
       <use xlink:href="#DejaVuSans-31" transform="translate(83.789062 0)"/>
      </g>
     </g>
    </g>
    <g id="xtick_12">
     <g id="line2d_44">
      <g>
       <use xlink:href="#me59e459702" x="621.90073" y="252.639481" style="stroke: #000000; stroke-width: 0.8"/>
      </g>
     </g>
     <g id="text_33">
      <!-- 0 -->
      <g transform="translate(618.71948 267.237918) scale(0.1 -0.1)">
       <use xlink:href="#DejaVuSans-30"/>
      </g>
     </g>
    </g>
    <g id="xtick_13">
     <g id="line2d_45">
      <g>
       <use xlink:href="#me59e459702" x="675.565768" y="252.639481" style="stroke: #000000; stroke-width: 0.8"/>
      </g>
     </g>
     <g id="text_34">
      <!-- 1 -->
      <g transform="translate(672.384518 267.237918) scale(0.1 -0.1)">
       <use xlink:href="#DejaVuSans-31"/>
      </g>
     </g>
    </g>
    <g id="xtick_14">
     <g id="line2d_46">
      <g>
       <use xlink:href="#me59e459702" x="729.230806" y="252.639481" style="stroke: #000000; stroke-width: 0.8"/>
      </g>
     </g>
     <g id="text_35">
      <!-- 2 -->
      <g transform="translate(726.049556 267.237918) scale(0.1 -0.1)">
       <use xlink:href="#DejaVuSans-32"/>
      </g>
     </g>
    </g>
   </g>
   <g id="matplotlib.axis_4">
    <g id="ytick_9">
     <g id="line2d_47">
      <g>
       <use xlink:href="#m43f57ea357" x="407.240576" y="252.639481" style="stroke: #000000; stroke-width: 0.8"/>
      </g>
     </g>
     <g id="text_36">
      <!-- $\mathdefault{10^{-4}}$ -->
      <g transform="translate(376.740576 256.438699) scale(0.1 -0.1)">
       <use xlink:href="#DejaVuSans-31" transform="translate(0 0.684375)"/>
       <use xlink:href="#DejaVuSans-30" transform="translate(63.623047 0.684375)"/>
       <use xlink:href="#DejaVuSans-2212" transform="translate(128.203125 38.965625) scale(0.7)"/>
       <use xlink:href="#DejaVuSans-34" transform="translate(186.855469 38.965625) scale(0.7)"/>
      </g>
     </g>
    </g>
    <g id="ytick_10">
     <g id="line2d_48">
      <g>
       <use xlink:href="#m43f57ea357" x="407.240576" y="201.456173" style="stroke: #000000; stroke-width: 0.8"/>
      </g>
     </g>
     <g id="text_37">
      <!-- $\mathdefault{10^{-3}}$ -->
      <g transform="translate(376.740576 205.255392) scale(0.1 -0.1)">
       <use xlink:href="#DejaVuSans-31" transform="translate(0 0.765625)"/>
       <use xlink:href="#DejaVuSans-30" transform="translate(63.623047 0.765625)"/>
       <use xlink:href="#DejaVuSans-2212" transform="translate(128.203125 39.046875) scale(0.7)"/>
       <use xlink:href="#DejaVuSans-33" transform="translate(186.855469 39.046875) scale(0.7)"/>
      </g>
     </g>
    </g>
    <g id="ytick_11">
     <g id="line2d_49">
      <g>
       <use xlink:href="#m43f57ea357" x="407.240576" y="150.272865" style="stroke: #000000; stroke-width: 0.8"/>
      </g>
     </g>
     <g id="text_38">
      <!-- $\mathdefault{10^{-2}}$ -->
      <g transform="translate(376.740576 154.072084) scale(0.1 -0.1)">
       <use xlink:href="#DejaVuSans-31" transform="translate(0 0.765625)"/>
       <use xlink:href="#DejaVuSans-30" transform="translate(63.623047 0.765625)"/>
       <use xlink:href="#DejaVuSans-2212" transform="translate(128.203125 39.046875) scale(0.7)"/>
       <use xlink:href="#DejaVuSans-32" transform="translate(186.855469 39.046875) scale(0.7)"/>
      </g>
     </g>
    </g>
    <g id="ytick_12">
     <g id="line2d_50">
      <g>
       <use xlink:href="#m43f57ea357" x="407.240576" y="99.089558" style="stroke: #000000; stroke-width: 0.8"/>
      </g>
     </g>
     <g id="text_39">
      <!-- $\mathdefault{10^{-1}}$ -->
      <g transform="translate(376.740576 102.888776) scale(0.1 -0.1)">
       <use xlink:href="#DejaVuSans-31" transform="translate(0 0.684375)"/>
       <use xlink:href="#DejaVuSans-30" transform="translate(63.623047 0.684375)"/>
       <use xlink:href="#DejaVuSans-2212" transform="translate(128.203125 38.965625) scale(0.7)"/>
       <use xlink:href="#DejaVuSans-31" transform="translate(186.855469 38.965625) scale(0.7)"/>
      </g>
     </g>
    </g>
    <g id="ytick_13">
     <g id="line2d_51">
      <g>
       <use xlink:href="#m43f57ea357" x="407.240576" y="47.90625" style="stroke: #000000; stroke-width: 0.8"/>
      </g>
     </g>
     <g id="text_40">
      <!-- $\mathdefault{10^{0}}$ -->
      <g transform="translate(382.640576 51.705469) scale(0.1 -0.1)">
       <use xlink:href="#DejaVuSans-31" transform="translate(0 0.765625)"/>
       <use xlink:href="#DejaVuSans-30" transform="translate(63.623047 0.765625)"/>
       <use xlink:href="#DejaVuSans-30" transform="translate(128.203125 39.046875) scale(0.7)"/>
      </g>
     </g>
    </g>
    <g id="ytick_14">
     <g id="line2d_52">
      <defs>
       <path id="mc5201e1a9b" d="M 0 0 
L -2 0 
" style="stroke: #000000; stroke-width: 0.6"/>
      </defs>
      <g>
       <use xlink:href="#mc5201e1a9b" x="407.240576" y="237.23177" style="stroke: #000000; stroke-width: 0.6"/>
      </g>
     </g>
    </g>
    <g id="ytick_15">
     <g id="line2d_53">
      <g>
       <use xlink:href="#mc5201e1a9b" x="407.240576" y="228.218837" style="stroke: #000000; stroke-width: 0.6"/>
      </g>
     </g>
    </g>
    <g id="ytick_16">
     <g id="line2d_54">
      <g>
       <use xlink:href="#mc5201e1a9b" x="407.240576" y="221.824059" style="stroke: #000000; stroke-width: 0.6"/>
      </g>
     </g>
    </g>
    <g id="ytick_17">
     <g id="line2d_55">
      <g>
       <use xlink:href="#mc5201e1a9b" x="407.240576" y="216.863884" style="stroke: #000000; stroke-width: 0.6"/>
      </g>
     </g>
    </g>
    <g id="ytick_18">
     <g id="line2d_56">
      <g>
       <use xlink:href="#mc5201e1a9b" x="407.240576" y="212.811126" style="stroke: #000000; stroke-width: 0.6"/>
      </g>
     </g>
    </g>
    <g id="ytick_19">
     <g id="line2d_57">
      <g>
       <use xlink:href="#mc5201e1a9b" x="407.240576" y="209.384568" style="stroke: #000000; stroke-width: 0.6"/>
      </g>
     </g>
    </g>
    <g id="ytick_20">
     <g id="line2d_58">
      <g>
       <use xlink:href="#mc5201e1a9b" x="407.240576" y="206.416348" style="stroke: #000000; stroke-width: 0.6"/>
      </g>
     </g>
    </g>
    <g id="ytick_21">
     <g id="line2d_59">
      <g>
       <use xlink:href="#mc5201e1a9b" x="407.240576" y="203.798193" style="stroke: #000000; stroke-width: 0.6"/>
      </g>
     </g>
    </g>
    <g id="ytick_22">
     <g id="line2d_60">
      <g>
       <use xlink:href="#mc5201e1a9b" x="407.240576" y="186.048462" style="stroke: #000000; stroke-width: 0.6"/>
      </g>
     </g>
    </g>
    <g id="ytick_23">
     <g id="line2d_61">
      <g>
       <use xlink:href="#mc5201e1a9b" x="407.240576" y="177.035529" style="stroke: #000000; stroke-width: 0.6"/>
      </g>
     </g>
    </g>
    <g id="ytick_24">
     <g id="line2d_62">
      <g>
       <use xlink:href="#mc5201e1a9b" x="407.240576" y="170.640751" style="stroke: #000000; stroke-width: 0.6"/>
      </g>
     </g>
    </g>
    <g id="ytick_25">
     <g id="line2d_63">
      <g>
       <use xlink:href="#mc5201e1a9b" x="407.240576" y="165.680576" style="stroke: #000000; stroke-width: 0.6"/>
      </g>
     </g>
    </g>
    <g id="ytick_26">
     <g id="line2d_64">
      <g>
       <use xlink:href="#mc5201e1a9b" x="407.240576" y="161.627818" style="stroke: #000000; stroke-width: 0.6"/>
      </g>
     </g>
    </g>
    <g id="ytick_27">
     <g id="line2d_65">
      <g>
       <use xlink:href="#mc5201e1a9b" x="407.240576" y="158.20126" style="stroke: #000000; stroke-width: 0.6"/>
      </g>
     </g>
    </g>
    <g id="ytick_28">
     <g id="line2d_66">
      <g>
       <use xlink:href="#mc5201e1a9b" x="407.240576" y="155.23304" style="stroke: #000000; stroke-width: 0.6"/>
      </g>
     </g>
    </g>
    <g id="ytick_29">
     <g id="line2d_67">
      <g>
       <use xlink:href="#mc5201e1a9b" x="407.240576" y="152.614885" style="stroke: #000000; stroke-width: 0.6"/>
      </g>
     </g>
    </g>
    <g id="ytick_30">
     <g id="line2d_68">
      <g>
       <use xlink:href="#mc5201e1a9b" x="407.240576" y="134.865154" style="stroke: #000000; stroke-width: 0.6"/>
      </g>
     </g>
    </g>
    <g id="ytick_31">
     <g id="line2d_69">
      <g>
       <use xlink:href="#mc5201e1a9b" x="407.240576" y="125.852221" style="stroke: #000000; stroke-width: 0.6"/>
      </g>
     </g>
    </g>
    <g id="ytick_32">
     <g id="line2d_70">
      <g>
       <use xlink:href="#mc5201e1a9b" x="407.240576" y="119.457444" style="stroke: #000000; stroke-width: 0.6"/>
      </g>
     </g>
    </g>
    <g id="ytick_33">
     <g id="line2d_71">
      <g>
       <use xlink:href="#mc5201e1a9b" x="407.240576" y="114.497269" style="stroke: #000000; stroke-width: 0.6"/>
      </g>
     </g>
    </g>
    <g id="ytick_34">
     <g id="line2d_72">
      <g>
       <use xlink:href="#mc5201e1a9b" x="407.240576" y="110.44451" style="stroke: #000000; stroke-width: 0.6"/>
      </g>
     </g>
    </g>
    <g id="ytick_35">
     <g id="line2d_73">
      <g>
       <use xlink:href="#mc5201e1a9b" x="407.240576" y="107.017952" style="stroke: #000000; stroke-width: 0.6"/>
      </g>
     </g>
    </g>
    <g id="ytick_36">
     <g id="line2d_74">
      <g>
       <use xlink:href="#mc5201e1a9b" x="407.240576" y="104.049733" style="stroke: #000000; stroke-width: 0.6"/>
      </g>
     </g>
    </g>
    <g id="ytick_37">
     <g id="line2d_75">
      <g>
       <use xlink:href="#mc5201e1a9b" x="407.240576" y="101.431577" style="stroke: #000000; stroke-width: 0.6"/>
      </g>
     </g>
    </g>
    <g id="ytick_38">
     <g id="line2d_76">
      <g>
       <use xlink:href="#mc5201e1a9b" x="407.240576" y="83.681847" style="stroke: #000000; stroke-width: 0.6"/>
      </g>
     </g>
    </g>
    <g id="ytick_39">
     <g id="line2d_77">
      <g>
       <use xlink:href="#mc5201e1a9b" x="407.240576" y="74.668914" style="stroke: #000000; stroke-width: 0.6"/>
      </g>
     </g>
    </g>
    <g id="ytick_40">
     <g id="line2d_78">
      <g>
       <use xlink:href="#mc5201e1a9b" x="407.240576" y="68.274136" style="stroke: #000000; stroke-width: 0.6"/>
      </g>
     </g>
    </g>
    <g id="ytick_41">
     <g id="line2d_79">
      <g>
       <use xlink:href="#mc5201e1a9b" x="407.240576" y="63.313961" style="stroke: #000000; stroke-width: 0.6"/>
      </g>
     </g>
    </g>
    <g id="ytick_42">
     <g id="line2d_80">
      <g>
       <use xlink:href="#mc5201e1a9b" x="407.240576" y="59.261203" style="stroke: #000000; stroke-width: 0.6"/>
      </g>
     </g>
    </g>
    <g id="ytick_43">
     <g id="line2d_81">
      <g>
       <use xlink:href="#mc5201e1a9b" x="407.240576" y="55.834645" style="stroke: #000000; stroke-width: 0.6"/>
      </g>
     </g>
    </g>
    <g id="ytick_44">
     <g id="line2d_82">
      <g>
       <use xlink:href="#mc5201e1a9b" x="407.240576" y="52.866425" style="stroke: #000000; stroke-width: 0.6"/>
      </g>
     </g>
    </g>
    <g id="ytick_45">
     <g id="line2d_83">
      <g>
       <use xlink:href="#mc5201e1a9b" x="407.240576" y="50.24827" style="stroke: #000000; stroke-width: 0.6"/>
      </g>
     </g>
    </g>
   </g>
   <g id="line2d_84">
    <path d="M 563.29924 281.519481 
L 563.352173 73.006252 
L 576.365945 70.933313 
L 589.37435 88.614253 
L 602.388122 103.79831 
L 615.396527 120.417021 
L 628.404932 135.24629 
L 641.413338 150.330735 
L 654.427109 163.887662 
L 667.435515 178.864839 
L 680.449287 190.284246 
L 693.436226 198.759123 
L 706.47683 211.508898 
L 719.463769 225.646833 
L 732.504374 226.480673 
L 744.225806 235.005648 
" clip-path="url(#p3a01eb3b7a)" style="fill: none; stroke-dasharray: 9.6,2.4,1.5,2.4; stroke-dashoffset: 0; stroke: #000000; stroke-width: 1.5"/>
   </g>
   <g id="line2d_85">
    <path d="M 563.29924 281.519481 
L 563.352173 73.006252 
L 576.365945 70.933313 
L 589.37435 88.614253 
L 602.388122 103.79831 
L 615.396527 120.417021 
L 628.404932 135.24629 
L 641.413338 150.330735 
L 654.427109 163.887662 
L 667.435515 178.864839 
L 680.449287 190.284246 
L 693.436226 198.759123 
L 706.47683 211.508898 
L 719.463769 225.646833 
L 732.504374 226.480673 
L 744.225806 235.005648 
" clip-path="url(#p3a01eb3b7a)" style="fill: none; stroke-dasharray: 9.6,2.4,1.5,2.4; stroke-dashoffset: 0; stroke: #008000; stroke-width: 1.5"/>
   </g>
   <g id="line2d_86">
    <path d="M 563.299121 281.519481 
L 563.352173 72.536832 
L 576.365945 70.536031 
L 589.37435 88.907567 
L 602.388122 105.324863 
L 615.396527 122.764843 
L 628.404932 138.166105 
L 641.413338 152.69654 
L 654.427109 164.314152 
L 667.435515 178.051266 
L 680.449287 188.52674 
L 693.436226 198.543595 
L 706.47683 206.979128 
L 719.463769 216.722074 
L 732.504374 223.896042 
L 744.225806 231.592334 
" clip-path="url(#p3a01eb3b7a)" style="fill: none; stroke: #d2691e; stroke-width: 1.5; stroke-linecap: square"/>
   </g>
   <g id="line2d_87">
    <path d="M 563.299245 281.519481 
L 563.352173 73.026887 
L 576.365945 70.933313 
L 589.37435 88.642022 
L 602.388122 103.75988 
L 615.396527 120.37065 
L 628.404932 135.043698 
L 641.413338 150.272866 
L 654.427109 164.027542 
L 667.435515 178.977757 
L 680.449287 189.182426 
L 693.436226 199.601825 
L 706.47683 212.132504 
L 719.463769 225.202507 
L 732.504374 226.881697 
L 744.225806 235.016369 
" clip-path="url(#p3a01eb3b7a)" style="fill: none; stroke: #000000; stroke-width: 1.5; stroke-linecap: square"/>
   </g>
   <g id="line2d_88">
    <path d="M 563.298354 281.519481 
L 563.352173 69.502233 
L 576.365945 69.983095 
L 589.37435 91.610241 
L 602.388122 109.427113 
L 615.396527 130.335919 
L 628.404932 146.650292 
L 641.413338 163.14953 
L 654.427109 177.704958 
L 667.435515 189.25934 
L 680.449287 203.484279 
L 693.436226 216.704411 
L 706.47683 240.442649 
L 719.463769 257.966663 
L 732.504374 257.966663 
L 744.225806 276.347258 
" clip-path="url(#p3a01eb3b7a)" style="fill: none; stroke: #00ffff; stroke-width: 1.5; stroke-linecap: square"/>
   </g>
   <g id="line2d_89">
    <path d="M 563.299861 281.519481 
L 563.352173 75.460857 
L 576.365945 72.584005 
L 589.37435 86.573983 
L 602.388122 100.643031 
L 615.396527 114.882928 
L 628.404932 126.844702 
L 641.413338 141.468373 
L 654.427109 148.582719 
L 667.435515 171.118202 
L 680.449287 175.079168 
L 693.436226 202.391392 
L 706.47683 221.851863 
L 719.463769 257.627459 
L 719.469882 281.519481 
" clip-path="url(#p3a01eb3b7a)" style="fill: none; stroke: #0000ff; stroke-width: 1.5; stroke-linecap: square"/>
   </g>
   <g id="line2d_90">
    <path d="M 563.299245 281.519481 
L 563.352173 73.026887 
L 576.371311 70.927051 
L 589.379716 88.642022 
L 602.388122 103.4467 
L 615.396527 120.307049 
L 628.404932 135.08856 
L 641.418704 150.858456 
L 654.427109 166.587992 
L 667.435515 180.99955 
L 680.449287 193.505562 
L 693.436226 200.371635 
L 706.47683 212.553292 
L 719.463769 221.221026 
L 732.504374 226.714878 
L 744.225806 227.479259 
" clip-path="url(#p3a01eb3b7a)" style="fill: none; stroke: #ff00ff; stroke-width: 1.5; stroke-linecap: square"/>
   </g>
   <g id="line2d_91">
    <path d="M 563.29928 281.519481 
L 563.352173 73.164954 
L 576.371311 71.242356 
L 589.379716 88.365886 
L 602.388122 103.473759 
L 615.396527 120.422823 
L 628.404932 131.758438 
L 641.418704 147.166149 
L 654.427109 162.381403 
L 667.435515 181.719567 
L 680.449287 190.59571 
L 693.436226 200.79912 
L 706.47683 206.639754 
L 719.463769 224.289916 
L 732.504374 233.365027 
L 744.225806 230.032956 
" clip-path="url(#p3a01eb3b7a)" style="fill: none; stroke-dasharray: 5.55,2.4; stroke-dashoffset: 0; stroke: #ff00ff; stroke-width: 1.5"/>
   </g>
   <g id="line2d_92">
    <path d="M 563.299057 281.519481 
L 563.352173 72.282482 
L 576.371311 70.802171 
L 589.379716 88.503525 
L 602.388122 105.10234 
L 615.396527 123.333081 
L 628.404932 138.21774 
L 641.418704 152.223181 
L 654.427109 167.24597 
L 667.435515 186.725529 
L 680.449287 191.008638 
L 693.436226 190.324625 
L 706.47683 201.500674 
L 719.463769 237.455175 
L 732.504374 211.515887 
L 744.225806 223.962461 
" clip-path="url(#p3a01eb3b7a)" style="fill: none; stroke-dasharray: 1.5,2.475; stroke-dashoffset: 0; stroke: #ff00ff; stroke-width: 1.5"/>
   </g>
   <g id="line2d_93">
    <path d="M 563.298974 281.519481 
L 563.352173 71.952184 
L 576.371311 70.370533 
L 589.379716 89.491627 
L 602.388122 105.454718 
L 615.396527 124.838363 
L 628.404932 138.608871 
L 641.418704 155.233039 
L 654.427109 166.084336 
L 667.435515 176.961556 
L 680.449287 187.423867 
L 693.436226 205.199889 
L 706.47683 209.963638 
L 719.463769 231.657747 
L 732.504374 235.521031 
L 744.225806 230.676068 
" clip-path="url(#p3a01eb3b7a)" style="fill: none; stroke: #ffa500; stroke-width: 1.5; stroke-linecap: square"/>
   </g>
   <g id="line2d_94">
    <path d="M 563.298908 281.519481 
L 563.352173 71.691434 
L 576.371311 70.248732 
L 589.379716 88.503525 
L 602.388122 106.391753 
L 615.396527 125.926441 
L 628.404932 143.113391 
L 641.418704 159.95141 
L 654.427109 173.482311 
L 667.435515 188.638848 
L 680.449287 194.458363 
L 693.436226 208.421332 
L 706.47683 227.924414 
L 719.463769 252.975436 
L 732.504374 236.041631 
L 732.515956 281.519481 
" clip-path="url(#p3a01eb3b7a)" style="fill: none; stroke-dasharray: 5.55,2.4; stroke-dashoffset: 0; stroke: #ffa500; stroke-width: 1.5"/>
   </g>
   <g id="line2d_95">
    <path d="M 563.298497 281.519481 
L 563.352173 70.067273 
L 576.371311 71.178935 
L 589.379716 90.83021 
L 602.388122 107.991624 
L 615.396527 124.210196 
L 628.404932 140.674935 
L 641.418704 150.051684 
L 654.427109 170.58525 
L 667.435515 176.163706 
L 680.449287 202.666659 
L 693.436226 215.90673 
L 706.47683 255.329997 
L 719.463769 216.163713 
L 732.504374 202.784333 
L 744.225806 228.688666 
" clip-path="url(#p3a01eb3b7a)" style="fill: none; stroke-dasharray: 1.5,2.475; stroke-dashoffset: 0; stroke: #008000; stroke-width: 1.5"/>
   </g>
   <g id="patch_9">
    <path d="M 407.240576 252.639481 
L 407.240576 47.90625 
" style="fill: none; stroke: #000000; stroke-width: 0.8; stroke-linejoin: miter; stroke-linecap: square"/>
   </g>
   <g id="patch_10">
    <path d="M 729.230806 252.639481 
L 729.230806 47.90625 
" style="fill: none; stroke: #000000; stroke-width: 0.8; stroke-linejoin: miter; stroke-linecap: square"/>
   </g>
   <g id="patch_11">
    <path d="M 407.240576 252.639481 
L 729.230806 252.639481 
" style="fill: none; stroke: #000000; stroke-width: 0.8; stroke-linejoin: miter; stroke-linecap: square"/>
   </g>
   <g id="patch_12">
    <path d="M 407.240576 47.90625 
L 729.230806 47.90625 
" style="fill: none; stroke: #000000; stroke-width: 0.8; stroke-linejoin: miter; stroke-linecap: square"/>
   </g>
   <g id="text_41">
    <!-- Reseek P(score|F) (logscale) -->
    <g transform="translate(483.666629 41.90625) scale(0.12 -0.12)">
     <defs>
      <path id="DejaVuSans-6c" d="M 603 4863 
L 1178 4863 
L 1178 0 
L 603 0 
L 603 4863 
z
" transform="scale(0.015625)"/>
      <path id="DejaVuSans-67" d="M 2906 1791 
Q 2906 2416 2648 2759 
Q 2391 3103 1925 3103 
Q 1463 3103 1205 2759 
Q 947 2416 947 1791 
Q 947 1169 1205 825 
Q 1463 481 1925 481 
Q 2391 481 2648 825 
Q 2906 1169 2906 1791 
z
M 3481 434 
Q 3481 -459 3084 -895 
Q 2688 -1331 1869 -1331 
Q 1566 -1331 1297 -1286 
Q 1028 -1241 775 -1147 
L 775 -588 
Q 1028 -725 1275 -790 
Q 1522 -856 1778 -856 
Q 2344 -856 2625 -561 
Q 2906 -266 2906 331 
L 2906 616 
Q 2728 306 2450 153 
Q 2172 0 1784 0 
Q 1141 0 747 490 
Q 353 981 353 1791 
Q 353 2603 747 3093 
Q 1141 3584 1784 3584 
Q 2172 3584 2450 3431 
Q 2728 3278 2906 2969 
L 2906 3500 
L 3481 3500 
L 3481 434 
z
" transform="scale(0.015625)"/>
      <path id="DejaVuSans-61" d="M 2194 1759 
Q 1497 1759 1228 1600 
Q 959 1441 959 1056 
Q 959 750 1161 570 
Q 1363 391 1709 391 
Q 2188 391 2477 730 
Q 2766 1069 2766 1631 
L 2766 1759 
L 2194 1759 
z
M 3341 1997 
L 3341 0 
L 2766 0 
L 2766 531 
Q 2569 213 2275 61 
Q 1981 -91 1556 -91 
Q 1019 -91 701 211 
Q 384 513 384 1019 
Q 384 1609 779 1909 
Q 1175 2209 1959 2209 
L 2766 2209 
L 2766 2266 
Q 2766 2663 2505 2880 
Q 2244 3097 1772 3097 
Q 1472 3097 1187 3025 
Q 903 2953 641 2809 
L 641 3341 
Q 956 3463 1253 3523 
Q 1550 3584 1831 3584 
Q 2591 3584 2966 3190 
Q 3341 2797 3341 1997 
z
" transform="scale(0.015625)"/>
     </defs>
     <use xlink:href="#DejaVuSans-52"/>
     <use xlink:href="#DejaVuSans-65" transform="translate(64.982422 0)"/>
     <use xlink:href="#DejaVuSans-73" transform="translate(126.505859 0)"/>
     <use xlink:href="#DejaVuSans-65" transform="translate(178.605469 0)"/>
     <use xlink:href="#DejaVuSans-65" transform="translate(240.128906 0)"/>
     <use xlink:href="#DejaVuSans-6b" transform="translate(301.652344 0)"/>
     <use xlink:href="#DejaVuSans-20" transform="translate(359.5625 0)"/>
     <use xlink:href="#DejaVuSans-50" transform="translate(391.349609 0)"/>
     <use xlink:href="#DejaVuSans-28" transform="translate(451.652344 0)"/>
     <use xlink:href="#DejaVuSans-73" transform="translate(490.666016 0)"/>
     <use xlink:href="#DejaVuSans-63" transform="translate(542.765625 0)"/>
     <use xlink:href="#DejaVuSans-6f" transform="translate(597.746094 0)"/>
     <use xlink:href="#DejaVuSans-72" transform="translate(658.927734 0)"/>
     <use xlink:href="#DejaVuSans-65" transform="translate(697.791016 0)"/>
     <use xlink:href="#DejaVuSans-7c" transform="translate(759.314453 0)"/>
     <use xlink:href="#DejaVuSans-46" transform="translate(793.005859 0)"/>
     <use xlink:href="#DejaVuSans-29" transform="translate(850.525391 0)"/>
     <use xlink:href="#DejaVuSans-20" transform="translate(889.539062 0)"/>
     <use xlink:href="#DejaVuSans-28" transform="translate(921.326172 0)"/>
     <use xlink:href="#DejaVuSans-6c" transform="translate(960.339844 0)"/>
     <use xlink:href="#DejaVuSans-6f" transform="translate(988.123047 0)"/>
     <use xlink:href="#DejaVuSans-67" transform="translate(1049.304688 0)"/>
     <use xlink:href="#DejaVuSans-73" transform="translate(1112.78125 0)"/>
     <use xlink:href="#DejaVuSans-63" transform="translate(1164.880859 0)"/>
     <use xlink:href="#DejaVuSans-61" transform="translate(1219.861328 0)"/>
     <use xlink:href="#DejaVuSans-6c" transform="translate(1281.140625 0)"/>
     <use xlink:href="#DejaVuSans-65" transform="translate(1308.923828 0)"/>
     <use xlink:href="#DejaVuSans-29" transform="translate(1370.447266 0)"/>
    </g>
   </g>
   <g id="legend_2">
    <g id="patch_13">
     <path d="M 414.240576 232.04375 
L 508.029639 232.04375 
Q 510.029639 232.04375 510.029639 230.04375 
L 510.029639 54.90625 
Q 510.029639 52.90625 508.029639 52.90625 
L 414.240576 52.90625 
Q 412.240576 52.90625 412.240576 54.90625 
L 412.240576 230.04375 
Q 412.240576 232.04375 414.240576 232.04375 
z
" style="fill: #ffffff; opacity: 0.8; stroke: #cccccc; stroke-linejoin: miter"/>
    </g>
    <g id="line2d_96">
     <path d="M 416.240576 61.004687 
L 426.240576 61.004687 
L 436.240576 61.004687 
" style="fill: none; stroke-dasharray: 9.6,2.4,1.5,2.4; stroke-dashoffset: 0; stroke: #000000; stroke-width: 1.5"/>
    </g>
    <g id="text_42">
     <!-- SCOP40x8 -->
     <g transform="translate(444.240576 64.504687) scale(0.1 -0.1)">
      <use xlink:href="#DejaVuSans-53"/>
      <use xlink:href="#DejaVuSans-43" transform="translate(63.476562 0)"/>
      <use xlink:href="#DejaVuSans-4f" transform="translate(133.300781 0)"/>
      <use xlink:href="#DejaVuSans-50" transform="translate(212.011719 0)"/>
      <use xlink:href="#DejaVuSans-34" transform="translate(272.314453 0)"/>
      <use xlink:href="#DejaVuSans-30" transform="translate(335.9375 0)"/>
      <use xlink:href="#DejaVuSans-78" transform="translate(399.560547 0)"/>
      <use xlink:href="#DejaVuSans-38" transform="translate(458.740234 0)"/>
     </g>
    </g>
    <g id="line2d_97">
     <path d="M 416.240576 75.682813 
L 426.240576 75.682813 
L 436.240576 75.682813 
" style="fill: none; stroke-dasharray: 9.6,2.4,1.5,2.4; stroke-dashoffset: 0; stroke: #008000; stroke-width: 1.5"/>
    </g>
    <g id="text_43">
     <!-- SCOP40x4 -->
     <g transform="translate(444.240576 79.182813) scale(0.1 -0.1)">
      <use xlink:href="#DejaVuSans-53"/>
      <use xlink:href="#DejaVuSans-43" transform="translate(63.476562 0)"/>
      <use xlink:href="#DejaVuSans-4f" transform="translate(133.300781 0)"/>
      <use xlink:href="#DejaVuSans-50" transform="translate(212.011719 0)"/>
      <use xlink:href="#DejaVuSans-34" transform="translate(272.314453 0)"/>
      <use xlink:href="#DejaVuSans-30" transform="translate(335.9375 0)"/>
      <use xlink:href="#DejaVuSans-78" transform="translate(399.560547 0)"/>
      <use xlink:href="#DejaVuSans-34" transform="translate(458.740234 0)"/>
     </g>
    </g>
    <g id="line2d_98">
     <path d="M 416.240576 90.360938 
L 426.240576 90.360938 
L 436.240576 90.360938 
" style="fill: none; stroke: #d2691e; stroke-width: 1.5; stroke-linecap: square"/>
    </g>
    <g id="text_44">
     <!-- CATH40 -->
     <g transform="translate(444.240576 93.860938) scale(0.1 -0.1)">
      <use xlink:href="#DejaVuSans-43"/>
      <use xlink:href="#DejaVuSans-41" transform="translate(69.824219 0)"/>
      <use xlink:href="#DejaVuSans-54" transform="translate(130.482422 0)"/>
      <use xlink:href="#DejaVuSans-48" transform="translate(191.566406 0)"/>
      <use xlink:href="#DejaVuSans-34" transform="translate(266.761719 0)"/>
      <use xlink:href="#DejaVuSans-30" transform="translate(330.384766 0)"/>
     </g>
    </g>
    <g id="line2d_99">
     <path d="M 416.240576 105.039062 
L 426.240576 105.039062 
L 436.240576 105.039062 
" style="fill: none; stroke: #000000; stroke-width: 1.5; stroke-linecap: square"/>
    </g>
    <g id="text_45">
     <!-- SCOP40 -->
     <g transform="translate(444.240576 108.539062) scale(0.1 -0.1)">
      <use xlink:href="#DejaVuSans-53"/>
      <use xlink:href="#DejaVuSans-43" transform="translate(63.476562 0)"/>
      <use xlink:href="#DejaVuSans-4f" transform="translate(133.300781 0)"/>
      <use xlink:href="#DejaVuSans-50" transform="translate(212.011719 0)"/>
      <use xlink:href="#DejaVuSans-34" transform="translate(272.314453 0)"/>
      <use xlink:href="#DejaVuSans-30" transform="translate(335.9375 0)"/>
     </g>
    </g>
    <g id="line2d_100">
     <path d="M 416.240576 119.717188 
L 426.240576 119.717188 
L 436.240576 119.717188 
" style="fill: none; stroke: #00ffff; stroke-width: 1.5; stroke-linecap: square"/>
    </g>
    <g id="text_46">
     <!-- SCOP40c -->
     <g transform="translate(444.240576 123.217188) scale(0.1 -0.1)">
      <use xlink:href="#DejaVuSans-53"/>
      <use xlink:href="#DejaVuSans-43" transform="translate(63.476562 0)"/>
      <use xlink:href="#DejaVuSans-4f" transform="translate(133.300781 0)"/>
      <use xlink:href="#DejaVuSans-50" transform="translate(212.011719 0)"/>
      <use xlink:href="#DejaVuSans-34" transform="translate(272.314453 0)"/>
      <use xlink:href="#DejaVuSans-30" transform="translate(335.9375 0)"/>
      <use xlink:href="#DejaVuSans-63" transform="translate(399.560547 0)"/>
     </g>
    </g>
    <g id="line2d_101">
     <path d="M 416.240576 134.395312 
L 426.240576 134.395312 
L 436.240576 134.395312 
" style="fill: none; stroke: #0000ff; stroke-width: 1.5; stroke-linecap: square"/>
    </g>
    <g id="text_47">
     <!-- SCOP95 -->
     <g transform="translate(444.240576 137.895312) scale(0.1 -0.1)">
      <use xlink:href="#DejaVuSans-53"/>
      <use xlink:href="#DejaVuSans-43" transform="translate(63.476562 0)"/>
      <use xlink:href="#DejaVuSans-4f" transform="translate(133.300781 0)"/>
      <use xlink:href="#DejaVuSans-50" transform="translate(212.011719 0)"/>
      <use xlink:href="#DejaVuSans-39" transform="translate(272.314453 0)"/>
      <use xlink:href="#DejaVuSans-35" transform="translate(335.9375 0)"/>
     </g>
    </g>
    <g id="line2d_102">
     <path d="M 416.240576 149.073438 
L 426.240576 149.073438 
L 436.240576 149.073438 
" style="fill: none; stroke: #ff00ff; stroke-width: 1.5; stroke-linecap: square"/>
    </g>
    <g id="text_48">
     <!-- SCOP40/N4 -->
     <g transform="translate(444.240576 152.573438) scale(0.1 -0.1)">
      <use xlink:href="#DejaVuSans-53"/>
      <use xlink:href="#DejaVuSans-43" transform="translate(63.476562 0)"/>
      <use xlink:href="#DejaVuSans-4f" transform="translate(133.300781 0)"/>
      <use xlink:href="#DejaVuSans-50" transform="translate(212.011719 0)"/>
      <use xlink:href="#DejaVuSans-34" transform="translate(272.314453 0)"/>
      <use xlink:href="#DejaVuSans-30" transform="translate(335.9375 0)"/>
      <use xlink:href="#DejaVuSans-2f" transform="translate(399.560547 0)"/>
      <use xlink:href="#DejaVuSans-4e" transform="translate(433.251953 0)"/>
      <use xlink:href="#DejaVuSans-34" transform="translate(508.056641 0)"/>
     </g>
    </g>
    <g id="line2d_103">
     <path d="M 416.240576 163.751562 
L 426.240576 163.751562 
L 436.240576 163.751562 
" style="fill: none; stroke-dasharray: 5.55,2.4; stroke-dashoffset: 0; stroke: #ff00ff; stroke-width: 1.5"/>
    </g>
    <g id="text_49">
     <!-- SCOP40/N4 -->
     <g transform="translate(444.240576 167.251562) scale(0.1 -0.1)">
      <use xlink:href="#DejaVuSans-53"/>
      <use xlink:href="#DejaVuSans-43" transform="translate(63.476562 0)"/>
      <use xlink:href="#DejaVuSans-4f" transform="translate(133.300781 0)"/>
      <use xlink:href="#DejaVuSans-50" transform="translate(212.011719 0)"/>
      <use xlink:href="#DejaVuSans-34" transform="translate(272.314453 0)"/>
      <use xlink:href="#DejaVuSans-30" transform="translate(335.9375 0)"/>
      <use xlink:href="#DejaVuSans-2f" transform="translate(399.560547 0)"/>
      <use xlink:href="#DejaVuSans-4e" transform="translate(433.251953 0)"/>
      <use xlink:href="#DejaVuSans-34" transform="translate(508.056641 0)"/>
     </g>
    </g>
    <g id="line2d_104">
     <path d="M 416.240576 178.429688 
L 426.240576 178.429688 
L 436.240576 178.429688 
" style="fill: none; stroke-dasharray: 1.5,2.475; stroke-dashoffset: 0; stroke: #ff00ff; stroke-width: 1.5"/>
    </g>
    <g id="text_50">
     <!-- SCOP40/N8 -->
     <g transform="translate(444.240576 181.929688) scale(0.1 -0.1)">
      <use xlink:href="#DejaVuSans-53"/>
      <use xlink:href="#DejaVuSans-43" transform="translate(63.476562 0)"/>
      <use xlink:href="#DejaVuSans-4f" transform="translate(133.300781 0)"/>
      <use xlink:href="#DejaVuSans-50" transform="translate(212.011719 0)"/>
      <use xlink:href="#DejaVuSans-34" transform="translate(272.314453 0)"/>
      <use xlink:href="#DejaVuSans-30" transform="translate(335.9375 0)"/>
      <use xlink:href="#DejaVuSans-2f" transform="translate(399.560547 0)"/>
      <use xlink:href="#DejaVuSans-4e" transform="translate(433.251953 0)"/>
      <use xlink:href="#DejaVuSans-38" transform="translate(508.056641 0)"/>
     </g>
    </g>
    <g id="line2d_105">
     <path d="M 416.240576 193.107812 
L 426.240576 193.107812 
L 436.240576 193.107812 
" style="fill: none; stroke: #ffa500; stroke-width: 1.5; stroke-linecap: square"/>
    </g>
    <g id="text_51">
     <!-- SCOP40/SF4 -->
     <g transform="translate(444.240576 196.607812) scale(0.1 -0.1)">
      <use xlink:href="#DejaVuSans-53"/>
      <use xlink:href="#DejaVuSans-43" transform="translate(63.476562 0)"/>
      <use xlink:href="#DejaVuSans-4f" transform="translate(133.300781 0)"/>
      <use xlink:href="#DejaVuSans-50" transform="translate(212.011719 0)"/>
      <use xlink:href="#DejaVuSans-34" transform="translate(272.314453 0)"/>
      <use xlink:href="#DejaVuSans-30" transform="translate(335.9375 0)"/>
      <use xlink:href="#DejaVuSans-2f" transform="translate(399.560547 0)"/>
      <use xlink:href="#DejaVuSans-53" transform="translate(433.251953 0)"/>
      <use xlink:href="#DejaVuSans-46" transform="translate(496.728516 0)"/>
      <use xlink:href="#DejaVuSans-34" transform="translate(554.248047 0)"/>
     </g>
    </g>
    <g id="line2d_106">
     <path d="M 416.240576 207.785937 
L 426.240576 207.785937 
L 436.240576 207.785937 
" style="fill: none; stroke-dasharray: 5.55,2.4; stroke-dashoffset: 0; stroke: #ffa500; stroke-width: 1.5"/>
    </g>
    <g id="text_52">
     <!-- SCOP40/SF4 -->
     <g transform="translate(444.240576 211.285937) scale(0.1 -0.1)">
      <use xlink:href="#DejaVuSans-53"/>
      <use xlink:href="#DejaVuSans-43" transform="translate(63.476562 0)"/>
      <use xlink:href="#DejaVuSans-4f" transform="translate(133.300781 0)"/>
      <use xlink:href="#DejaVuSans-50" transform="translate(212.011719 0)"/>
      <use xlink:href="#DejaVuSans-34" transform="translate(272.314453 0)"/>
      <use xlink:href="#DejaVuSans-30" transform="translate(335.9375 0)"/>
      <use xlink:href="#DejaVuSans-2f" transform="translate(399.560547 0)"/>
      <use xlink:href="#DejaVuSans-53" transform="translate(433.251953 0)"/>
      <use xlink:href="#DejaVuSans-46" transform="translate(496.728516 0)"/>
      <use xlink:href="#DejaVuSans-34" transform="translate(554.248047 0)"/>
     </g>
    </g>
    <g id="line2d_107">
     <path d="M 416.240576 222.464062 
L 426.240576 222.464062 
L 436.240576 222.464062 
" style="fill: none; stroke-dasharray: 1.5,2.475; stroke-dashoffset: 0; stroke: #008000; stroke-width: 1.5"/>
    </g>
    <g id="text_53">
     <!-- SCOP40/SF8 -->
     <g transform="translate(444.240576 225.964062) scale(0.1 -0.1)">
      <use xlink:href="#DejaVuSans-53"/>
      <use xlink:href="#DejaVuSans-43" transform="translate(63.476562 0)"/>
      <use xlink:href="#DejaVuSans-4f" transform="translate(133.300781 0)"/>
      <use xlink:href="#DejaVuSans-50" transform="translate(212.011719 0)"/>
      <use xlink:href="#DejaVuSans-34" transform="translate(272.314453 0)"/>
      <use xlink:href="#DejaVuSans-30" transform="translate(335.9375 0)"/>
      <use xlink:href="#DejaVuSans-2f" transform="translate(399.560547 0)"/>
      <use xlink:href="#DejaVuSans-53" transform="translate(433.251953 0)"/>
      <use xlink:href="#DejaVuSans-46" transform="translate(496.728516 0)"/>
      <use xlink:href="#DejaVuSans-38" transform="translate(554.248047 0)"/>
     </g>
    </g>
   </g>
  </g>
  <g id="text_54">
   <!-- ../plots/P_score_F.reseek.svg -->
   <g transform="translate(286.604153 14.728515) scale(0.12 -0.12)">
    <defs>
     <path id="DejaVuSans-70" d="M 1159 525 
L 1159 -1331 
L 581 -1331 
L 581 3500 
L 1159 3500 
L 1159 2969 
Q 1341 3281 1617 3432 
Q 1894 3584 2278 3584 
Q 2916 3584 3314 3078 
Q 3713 2572 3713 1747 
Q 3713 922 3314 415 
Q 2916 -91 2278 -91 
Q 1894 -91 1617 61 
Q 1341 213 1159 525 
z
M 3116 1747 
Q 3116 2381 2855 2742 
Q 2594 3103 2138 3103 
Q 1681 3103 1420 2742 
Q 1159 2381 1159 1747 
Q 1159 1113 1420 752 
Q 1681 391 2138 391 
Q 2594 391 2855 752 
Q 3116 1113 3116 1747 
z
" transform="scale(0.015625)"/>
     <path id="DejaVuSans-74" d="M 1172 4494 
L 1172 3500 
L 2356 3500 
L 2356 3053 
L 1172 3053 
L 1172 1153 
Q 1172 725 1289 603 
Q 1406 481 1766 481 
L 2356 481 
L 2356 0 
L 1766 0 
Q 1100 0 847 248 
Q 594 497 594 1153 
L 594 3053 
L 172 3053 
L 172 3500 
L 594 3500 
L 594 4494 
L 1172 4494 
z
" transform="scale(0.015625)"/>
     <path id="DejaVuSans-5f" d="M 3263 -1063 
L 3263 -1509 
L -63 -1509 
L -63 -1063 
L 3263 -1063 
z
" transform="scale(0.015625)"/>
     <path id="DejaVuSans-76" d="M 191 3500 
L 800 3500 
L 1894 563 
L 2988 3500 
L 3597 3500 
L 2284 0 
L 1503 0 
L 191 3500 
z
" transform="scale(0.015625)"/>
    </defs>
    <use xlink:href="#DejaVuSans-2e"/>
    <use xlink:href="#DejaVuSans-2e" transform="translate(31.787109 0)"/>
    <use xlink:href="#DejaVuSans-2f" transform="translate(63.574219 0)"/>
    <use xlink:href="#DejaVuSans-70" transform="translate(97.265625 0)"/>
    <use xlink:href="#DejaVuSans-6c" transform="translate(160.742188 0)"/>
    <use xlink:href="#DejaVuSans-6f" transform="translate(188.525391 0)"/>
    <use xlink:href="#DejaVuSans-74" transform="translate(249.707031 0)"/>
    <use xlink:href="#DejaVuSans-73" transform="translate(288.916016 0)"/>
    <use xlink:href="#DejaVuSans-2f" transform="translate(341.015625 0)"/>
    <use xlink:href="#DejaVuSans-50" transform="translate(374.707031 0)"/>
    <use xlink:href="#DejaVuSans-5f" transform="translate(435.009766 0)"/>
    <use xlink:href="#DejaVuSans-73" transform="translate(485.009766 0)"/>
    <use xlink:href="#DejaVuSans-63" transform="translate(537.109375 0)"/>
    <use xlink:href="#DejaVuSans-6f" transform="translate(592.089844 0)"/>
    <use xlink:href="#DejaVuSans-72" transform="translate(653.271484 0)"/>
    <use xlink:href="#DejaVuSans-65" transform="translate(692.134766 0)"/>
    <use xlink:href="#DejaVuSans-5f" transform="translate(753.658203 0)"/>
    <use xlink:href="#DejaVuSans-46" transform="translate(803.658203 0)"/>
    <use xlink:href="#DejaVuSans-2e" transform="translate(845.052734 0)"/>
    <use xlink:href="#DejaVuSans-72" transform="translate(876.839844 0)"/>
    <use xlink:href="#DejaVuSans-65" transform="translate(915.703125 0)"/>
    <use xlink:href="#DejaVuSans-73" transform="translate(977.226562 0)"/>
    <use xlink:href="#DejaVuSans-65" transform="translate(1029.326172 0)"/>
    <use xlink:href="#DejaVuSans-65" transform="translate(1090.849609 0)"/>
    <use xlink:href="#DejaVuSans-6b" transform="translate(1152.373047 0)"/>
    <use xlink:href="#DejaVuSans-2e" transform="translate(1210.283203 0)"/>
    <use xlink:href="#DejaVuSans-73" transform="translate(1242.070312 0)"/>
    <use xlink:href="#DejaVuSans-76" transform="translate(1294.169922 0)"/>
    <use xlink:href="#DejaVuSans-67" transform="translate(1353.349609 0)"/>
   </g>
  </g>
 </g>
 <defs>
  <clipPath id="pb2f0633887">
   <rect x="40.12" y="47.90625" width="321.99023" height="204.733231"/>
  </clipPath>
  <clipPath id="p3a01eb3b7a">
   <rect x="407.240576" y="47.90625" width="321.99023" height="204.733231"/>
  </clipPath>
 </defs>
</svg>
