<?xml version="1.0" encoding="utf-8" standalone="no"?>
<!DOCTYPE svg PUBLIC "-//W3C//DTD SVG 1.1//EN"
  "http://www.w3.org/Graphics/SVG/1.1/DTD/svg11.dtd">
<svg xmlns:xlink="http://www.w3.org/1999/xlink" width="324pt" height="216pt" viewBox="0 0 324 216" xmlns="http://www.w3.org/2000/svg" version="1.1">
 <metadata>
  <rdf:RDF xmlns:dc="http://purl.org/dc/elements/1.1/" xmlns:cc="http://creativecommons.org/ns#" xmlns:rdf="http://www.w3.org/1999/02/22-rdf-syntax-ns#">
   <cc:Work>
    <dc:type rdf:resource="http://purl.org/dc/dcmitype/StillImage"/>
    <dc:date>2025-06-12T08:43:30.093402</dc:date>
    <dc:format>image/svg+xml</dc:format>
    <dc:creator>
     <cc:Agent>
      <dc:title>Matplotlib v3.10.3, https://matplotlib.org/</dc:title>
     </cc:Agent>
    </dc:creator>
   </cc:Work>
  </rdf:RDF>
 </metadata>
 <defs>
  <style type="text/css">*{stroke-linejoin: round; stroke-linecap: butt}</style>
 </defs>
 <g id="figure_1">
  <g id="patch_1">
   <path d="M 0 216 
L 324 216 
L 324 0 
L 0 0 
z
" style="fill: #ffffff"/>
  </g>
  <g id="axes_1">
   <g id="patch_2">
    <path d="M 55.779096 174.04 
L 313.2 174.04 
L 313.2 25.44 
L 55.779096 25.44 
z
" style="fill: #ffffff"/>
   </g>
   <g id="matplotlib.axis_1">
    <g id="xtick_1">
     <g id="line2d_1">
      <defs>
       <path id="m0479ef0557" d="M 0 0 
L 0 3.5 
" style="stroke: #000000; stroke-width: 0.8"/>
      </defs>
      <g>
       <use xlink:href="#m0479ef0557" x="55.779096" y="174.04" style="stroke: #000000; stroke-width: 0.8"/>
      </g>
     </g>
     <g id="text_1">
      <!-- 1e+01 -->
      <g transform="translate(38.96894 188.638438) scale(0.1 -0.1)">
       <defs>
        <path id="DejaVuSans-31" d="M 794 531 
L 1825 531 
L 1825 4091 
L 703 3866 
L 703 4441 
L 1819 4666 
L 2450 4666 
L 2450 531 
L 3481 531 
L 3481 0 
L 794 0 
L 794 531 
z
" transform="scale(0.015625)"/>
        <path id="DejaVuSans-65" d="M 3597 1894 
L 3597 1613 
L 953 1613 
Q 991 1019 1311 708 
Q 1631 397 2203 397 
Q 2534 397 2845 478 
Q 3156 559 3463 722 
L 3463 178 
Q 3153 47 2828 -22 
Q 2503 -91 2169 -91 
Q 1331 -91 842 396 
Q 353 884 353 1716 
Q 353 2575 817 3079 
Q 1281 3584 2069 3584 
Q 2775 3584 3186 3129 
Q 3597 2675 3597 1894 
z
M 3022 2063 
Q 3016 2534 2758 2815 
Q 2500 3097 2075 3097 
Q 1594 3097 1305 2825 
Q 1016 2553 972 2059 
L 3022 2063 
z
" transform="scale(0.015625)"/>
        <path id="DejaVuSans-2b" d="M 2944 4013 
L 2944 2272 
L 4684 2272 
L 4684 1741 
L 2944 1741 
L 2944 0 
L 2419 0 
L 2419 1741 
L 678 1741 
L 678 2272 
L 2419 2272 
L 2419 4013 
L 2944 4013 
z
" transform="scale(0.015625)"/>
        <path id="DejaVuSans-30" d="M 2034 4250 
Q 1547 4250 1301 3770 
Q 1056 3291 1056 2328 
Q 1056 1369 1301 889 
Q 1547 409 2034 409 
Q 2525 409 2770 889 
Q 3016 1369 3016 2328 
Q 3016 3291 2770 3770 
Q 2525 4250 2034 4250 
z
M 2034 4750 
Q 2819 4750 3233 4129 
Q 3647 3509 3647 2328 
Q 3647 1150 3233 529 
Q 2819 -91 2034 -91 
Q 1250 -91 836 529 
Q 422 1150 422 2328 
Q 422 3509 836 4129 
Q 1250 4750 2034 4750 
z
" transform="scale(0.015625)"/>
       </defs>
       <use xlink:href="#DejaVuSans-31"/>
       <use xlink:href="#DejaVuSans-65" transform="translate(63.623047 0)"/>
       <use xlink:href="#DejaVuSans-2b" transform="translate(125.146484 0)"/>
       <use xlink:href="#DejaVuSans-30" transform="translate(208.935547 0)"/>
       <use xlink:href="#DejaVuSans-31" transform="translate(272.558594 0)"/>
      </g>
     </g>
    </g>
    <g id="xtick_2">
     <g id="line2d_2">
      <g>
       <use xlink:href="#m0479ef0557" x="115.18392" y="174.04" style="stroke: #000000; stroke-width: 0.8"/>
      </g>
     </g>
     <g id="text_2">
      <!-- 0.01 -->
      <g transform="translate(104.051108 188.638438) scale(0.1 -0.1)">
       <defs>
        <path id="DejaVuSans-2e" d="M 684 794 
L 1344 794 
L 1344 0 
L 684 0 
L 684 794 
z
" transform="scale(0.015625)"/>
       </defs>
       <use xlink:href="#DejaVuSans-30"/>
       <use xlink:href="#DejaVuSans-2e" transform="translate(63.623047 0)"/>
       <use xlink:href="#DejaVuSans-30" transform="translate(95.410156 0)"/>
       <use xlink:href="#DejaVuSans-31" transform="translate(159.033203 0)"/>
      </g>
     </g>
    </g>
    <g id="xtick_3">
     <g id="line2d_3">
      <g>
       <use xlink:href="#m0479ef0557" x="174.588744" y="174.04" style="stroke: #000000; stroke-width: 0.8"/>
      </g>
     </g>
     <g id="text_3">
      <!-- 1e-05 -->
      <g transform="translate(160.164525 188.638438) scale(0.1 -0.1)">
       <defs>
        <path id="DejaVuSans-2d" d="M 313 2009 
L 1997 2009 
L 1997 1497 
L 313 1497 
L 313 2009 
z
" transform="scale(0.015625)"/>
        <path id="DejaVuSans-35" d="M 691 4666 
L 3169 4666 
L 3169 4134 
L 1269 4134 
L 1269 2991 
Q 1406 3038 1543 3061 
Q 1681 3084 1819 3084 
Q 2600 3084 3056 2656 
Q 3513 2228 3513 1497 
Q 3513 744 3044 326 
Q 2575 -91 1722 -91 
Q 1428 -91 1123 -41 
Q 819 9 494 109 
L 494 744 
Q 775 591 1075 516 
Q 1375 441 1709 441 
Q 2250 441 2565 725 
Q 2881 1009 2881 1497 
Q 2881 1984 2565 2268 
Q 2250 2553 1709 2553 
Q 1456 2553 1204 2497 
Q 953 2441 691 2322 
L 691 4666 
z
" transform="scale(0.015625)"/>
       </defs>
       <use xlink:href="#DejaVuSans-31"/>
       <use xlink:href="#DejaVuSans-65" transform="translate(63.623047 0)"/>
       <use xlink:href="#DejaVuSans-2d" transform="translate(125.146484 0)"/>
       <use xlink:href="#DejaVuSans-30" transform="translate(161.230469 0)"/>
       <use xlink:href="#DejaVuSans-35" transform="translate(224.853516 0)"/>
      </g>
     </g>
    </g>
    <g id="xtick_4">
     <g id="line2d_4">
      <g>
       <use xlink:href="#m0479ef0557" x="233.993568" y="174.04" style="stroke: #000000; stroke-width: 0.8"/>
      </g>
     </g>
     <g id="text_4">
      <!-- 1e-08 -->
      <g transform="translate(219.569349 188.638438) scale(0.1 -0.1)">
       <defs>
        <path id="DejaVuSans-38" d="M 2034 2216 
Q 1584 2216 1326 1975 
Q 1069 1734 1069 1313 
Q 1069 891 1326 650 
Q 1584 409 2034 409 
Q 2484 409 2743 651 
Q 3003 894 3003 1313 
Q 3003 1734 2745 1975 
Q 2488 2216 2034 2216 
z
M 1403 2484 
Q 997 2584 770 2862 
Q 544 3141 544 3541 
Q 544 4100 942 4425 
Q 1341 4750 2034 4750 
Q 2731 4750 3128 4425 
Q 3525 4100 3525 3541 
Q 3525 3141 3298 2862 
Q 3072 2584 2669 2484 
Q 3125 2378 3379 2068 
Q 3634 1759 3634 1313 
Q 3634 634 3220 271 
Q 2806 -91 2034 -91 
Q 1263 -91 848 271 
Q 434 634 434 1313 
Q 434 1759 690 2068 
Q 947 2378 1403 2484 
z
M 1172 3481 
Q 1172 3119 1398 2916 
Q 1625 2713 2034 2713 
Q 2441 2713 2670 2916 
Q 2900 3119 2900 3481 
Q 2900 3844 2670 4047 
Q 2441 4250 2034 4250 
Q 1625 4250 1398 4047 
Q 1172 3844 1172 3481 
z
" transform="scale(0.015625)"/>
       </defs>
       <use xlink:href="#DejaVuSans-31"/>
       <use xlink:href="#DejaVuSans-65" transform="translate(63.623047 0)"/>
       <use xlink:href="#DejaVuSans-2d" transform="translate(125.146484 0)"/>
       <use xlink:href="#DejaVuSans-30" transform="translate(161.230469 0)"/>
       <use xlink:href="#DejaVuSans-38" transform="translate(224.853516 0)"/>
      </g>
     </g>
    </g>
    <g id="xtick_5">
     <g id="line2d_5">
      <g>
       <use xlink:href="#m0479ef0557" x="293.398392" y="174.04" style="stroke: #000000; stroke-width: 0.8"/>
      </g>
     </g>
     <g id="text_5">
      <!-- 1e-11 -->
      <g transform="translate(278.974173 188.638438) scale(0.1 -0.1)">
       <use xlink:href="#DejaVuSans-31"/>
       <use xlink:href="#DejaVuSans-65" transform="translate(63.623047 0)"/>
       <use xlink:href="#DejaVuSans-2d" transform="translate(125.146484 0)"/>
       <use xlink:href="#DejaVuSans-31" transform="translate(161.230469 0)"/>
       <use xlink:href="#DejaVuSans-31" transform="translate(224.853516 0)"/>
      </g>
     </g>
    </g>
    <g id="text_6">
     <!-- Reported E-value -->
     <g transform="translate(141.584861 202.316563) scale(0.1 -0.1)">
      <defs>
       <path id="DejaVuSans-52" d="M 2841 2188 
Q 3044 2119 3236 1894 
Q 3428 1669 3622 1275 
L 4263 0 
L 3584 0 
L 2988 1197 
Q 2756 1666 2539 1819 
Q 2322 1972 1947 1972 
L 1259 1972 
L 1259 0 
L 628 0 
L 628 4666 
L 2053 4666 
Q 2853 4666 3247 4331 
Q 3641 3997 3641 3322 
Q 3641 2881 3436 2590 
Q 3231 2300 2841 2188 
z
M 1259 4147 
L 1259 2491 
L 2053 2491 
Q 2509 2491 2742 2702 
Q 2975 2913 2975 3322 
Q 2975 3731 2742 3939 
Q 2509 4147 2053 4147 
L 1259 4147 
z
" transform="scale(0.015625)"/>
       <path id="DejaVuSans-70" d="M 1159 525 
L 1159 -1331 
L 581 -1331 
L 581 3500 
L 1159 3500 
L 1159 2969 
Q 1341 3281 1617 3432 
Q 1894 3584 2278 3584 
Q 2916 3584 3314 3078 
Q 3713 2572 3713 1747 
Q 3713 922 3314 415 
Q 2916 -91 2278 -91 
Q 1894 -91 1617 61 
Q 1341 213 1159 525 
z
M 3116 1747 
Q 3116 2381 2855 2742 
Q 2594 3103 2138 3103 
Q 1681 3103 1420 2742 
Q 1159 2381 1159 1747 
Q 1159 1113 1420 752 
Q 1681 391 2138 391 
Q 2594 391 2855 752 
Q 3116 1113 3116 1747 
z
" transform="scale(0.015625)"/>
       <path id="DejaVuSans-6f" d="M 1959 3097 
Q 1497 3097 1228 2736 
Q 959 2375 959 1747 
Q 959 1119 1226 758 
Q 1494 397 1959 397 
Q 2419 397 2687 759 
Q 2956 1122 2956 1747 
Q 2956 2369 2687 2733 
Q 2419 3097 1959 3097 
z
M 1959 3584 
Q 2709 3584 3137 3096 
Q 3566 2609 3566 1747 
Q 3566 888 3137 398 
Q 2709 -91 1959 -91 
Q 1206 -91 779 398 
Q 353 888 353 1747 
Q 353 2609 779 3096 
Q 1206 3584 1959 3584 
z
" transform="scale(0.015625)"/>
       <path id="DejaVuSans-72" d="M 2631 2963 
Q 2534 3019 2420 3045 
Q 2306 3072 2169 3072 
Q 1681 3072 1420 2755 
Q 1159 2438 1159 1844 
L 1159 0 
L 581 0 
L 581 3500 
L 1159 3500 
L 1159 2956 
Q 1341 3275 1631 3429 
Q 1922 3584 2338 3584 
Q 2397 3584 2469 3576 
Q 2541 3569 2628 3553 
L 2631 2963 
z
" transform="scale(0.015625)"/>
       <path id="DejaVuSans-74" d="M 1172 4494 
L 1172 3500 
L 2356 3500 
L 2356 3053 
L 1172 3053 
L 1172 1153 
Q 1172 725 1289 603 
Q 1406 481 1766 481 
L 2356 481 
L 2356 0 
L 1766 0 
Q 1100 0 847 248 
Q 594 497 594 1153 
L 594 3053 
L 172 3053 
L 172 3500 
L 594 3500 
L 594 4494 
L 1172 4494 
z
" transform="scale(0.015625)"/>
       <path id="DejaVuSans-64" d="M 2906 2969 
L 2906 4863 
L 3481 4863 
L 3481 0 
L 2906 0 
L 2906 525 
Q 2725 213 2448 61 
Q 2172 -91 1784 -91 
Q 1150 -91 751 415 
Q 353 922 353 1747 
Q 353 2572 751 3078 
Q 1150 3584 1784 3584 
Q 2172 3584 2448 3432 
Q 2725 3281 2906 2969 
z
M 947 1747 
Q 947 1113 1208 752 
Q 1469 391 1925 391 
Q 2381 391 2643 752 
Q 2906 1113 2906 1747 
Q 2906 2381 2643 2742 
Q 2381 3103 1925 3103 
Q 1469 3103 1208 2742 
Q 947 2381 947 1747 
z
" transform="scale(0.015625)"/>
       <path id="DejaVuSans-20" transform="scale(0.015625)"/>
       <path id="DejaVuSans-45" d="M 628 4666 
L 3578 4666 
L 3578 4134 
L 1259 4134 
L 1259 2753 
L 3481 2753 
L 3481 2222 
L 1259 2222 
L 1259 531 
L 3634 531 
L 3634 0 
L 628 0 
L 628 4666 
z
" transform="scale(0.015625)"/>
       <path id="DejaVuSans-76" d="M 191 3500 
L 800 3500 
L 1894 563 
L 2988 3500 
L 3597 3500 
L 2284 0 
L 1503 0 
L 191 3500 
z
" transform="scale(0.015625)"/>
       <path id="DejaVuSans-61" d="M 2194 1759 
Q 1497 1759 1228 1600 
Q 959 1441 959 1056 
Q 959 750 1161 570 
Q 1363 391 1709 391 
Q 2188 391 2477 730 
Q 2766 1069 2766 1631 
L 2766 1759 
L 2194 1759 
z
M 3341 1997 
L 3341 0 
L 2766 0 
L 2766 531 
Q 2569 213 2275 61 
Q 1981 -91 1556 -91 
Q 1019 -91 701 211 
Q 384 513 384 1019 
Q 384 1609 779 1909 
Q 1175 2209 1959 2209 
L 2766 2209 
L 2766 2266 
Q 2766 2663 2505 2880 
Q 2244 3097 1772 3097 
Q 1472 3097 1187 3025 
Q 903 2953 641 2809 
L 641 3341 
Q 956 3463 1253 3523 
Q 1550 3584 1831 3584 
Q 2591 3584 2966 3190 
Q 3341 2797 3341 1997 
z
" transform="scale(0.015625)"/>
       <path id="DejaVuSans-6c" d="M 603 4863 
L 1178 4863 
L 1178 0 
L 603 0 
L 603 4863 
z
" transform="scale(0.015625)"/>
       <path id="DejaVuSans-75" d="M 544 1381 
L 544 3500 
L 1119 3500 
L 1119 1403 
Q 1119 906 1312 657 
Q 1506 409 1894 409 
Q 2359 409 2629 706 
Q 2900 1003 2900 1516 
L 2900 3500 
L 3475 3500 
L 3475 0 
L 2900 0 
L 2900 538 
Q 2691 219 2414 64 
Q 2138 -91 1772 -91 
Q 1169 -91 856 284 
Q 544 659 544 1381 
z
M 1991 3584 
L 1991 3584 
z
" transform="scale(0.015625)"/>
      </defs>
      <use xlink:href="#DejaVuSans-52"/>
      <use xlink:href="#DejaVuSans-65" transform="translate(64.982422 0)"/>
      <use xlink:href="#DejaVuSans-70" transform="translate(126.505859 0)"/>
      <use xlink:href="#DejaVuSans-6f" transform="translate(189.982422 0)"/>
      <use xlink:href="#DejaVuSans-72" transform="translate(251.164062 0)"/>
      <use xlink:href="#DejaVuSans-74" transform="translate(292.277344 0)"/>
      <use xlink:href="#DejaVuSans-65" transform="translate(331.486328 0)"/>
      <use xlink:href="#DejaVuSans-64" transform="translate(393.009766 0)"/>
      <use xlink:href="#DejaVuSans-20" transform="translate(456.486328 0)"/>
      <use xlink:href="#DejaVuSans-45" transform="translate(488.273438 0)"/>
      <use xlink:href="#DejaVuSans-2d" transform="translate(551.457031 0)"/>
      <use xlink:href="#DejaVuSans-76" transform="translate(584.916016 0)"/>
      <use xlink:href="#DejaVuSans-61" transform="translate(644.095703 0)"/>
      <use xlink:href="#DejaVuSans-6c" transform="translate(705.375 0)"/>
      <use xlink:href="#DejaVuSans-75" transform="translate(733.158203 0)"/>
      <use xlink:href="#DejaVuSans-65" transform="translate(796.537109 0)"/>
     </g>
    </g>
   </g>
   <g id="matplotlib.axis_2">
    <g id="ytick_1">
     <g id="line2d_6">
      <defs>
       <path id="mc6d8f4783d" d="M 0 0 
L -3.5 0 
" style="stroke: #000000; stroke-width: 0.8"/>
      </defs>
      <g>
       <use xlink:href="#mc6d8f4783d" x="55.779096" y="174.04" style="stroke: #000000; stroke-width: 0.8"/>
      </g>
     </g>
     <g id="text_7">
      <!-- $\mathdefault{10^{-2}}$ -->
      <g transform="translate(25.279096 177.839219) scale(0.1 -0.1)">
       <defs>
        <path id="DejaVuSans-2212" d="M 678 2272 
L 4684 2272 
L 4684 1741 
L 678 1741 
L 678 2272 
z
" transform="scale(0.015625)"/>
        <path id="DejaVuSans-32" d="M 1228 531 
L 3431 531 
L 3431 0 
L 469 0 
L 469 531 
Q 828 903 1448 1529 
Q 2069 2156 2228 2338 
Q 2531 2678 2651 2914 
Q 2772 3150 2772 3378 
Q 2772 3750 2511 3984 
Q 2250 4219 1831 4219 
Q 1534 4219 1204 4116 
Q 875 4013 500 3803 
L 500 4441 
Q 881 4594 1212 4672 
Q 1544 4750 1819 4750 
Q 2544 4750 2975 4387 
Q 3406 4025 3406 3419 
Q 3406 3131 3298 2873 
Q 3191 2616 2906 2266 
Q 2828 2175 2409 1742 
Q 1991 1309 1228 531 
z
" transform="scale(0.015625)"/>
       </defs>
       <use xlink:href="#DejaVuSans-31" transform="translate(0 0.765625)"/>
       <use xlink:href="#DejaVuSans-30" transform="translate(63.623047 0.765625)"/>
       <use xlink:href="#DejaVuSans-2212" transform="translate(128.203125 39.046875) scale(0.7)"/>
       <use xlink:href="#DejaVuSans-32" transform="translate(186.855469 39.046875) scale(0.7)"/>
      </g>
     </g>
    </g>
    <g id="ytick_2">
     <g id="line2d_7">
      <g>
       <use xlink:href="#mc6d8f4783d" x="55.779096" y="136.89" style="stroke: #000000; stroke-width: 0.8"/>
      </g>
     </g>
     <g id="text_8">
      <!-- $\mathdefault{10^{-1}}$ -->
      <g transform="translate(25.279096 140.689219) scale(0.1 -0.1)">
       <use xlink:href="#DejaVuSans-31" transform="translate(0 0.684375)"/>
       <use xlink:href="#DejaVuSans-30" transform="translate(63.623047 0.684375)"/>
       <use xlink:href="#DejaVuSans-2212" transform="translate(128.203125 38.965625) scale(0.7)"/>
       <use xlink:href="#DejaVuSans-31" transform="translate(186.855469 38.965625) scale(0.7)"/>
      </g>
     </g>
    </g>
    <g id="ytick_3">
     <g id="line2d_8">
      <g>
       <use xlink:href="#mc6d8f4783d" x="55.779096" y="99.74" style="stroke: #000000; stroke-width: 0.8"/>
      </g>
     </g>
     <g id="text_9">
      <!-- $\mathdefault{10^{0}}$ -->
      <g transform="translate(31.179096 103.539219) scale(0.1 -0.1)">
       <use xlink:href="#DejaVuSans-31" transform="translate(0 0.765625)"/>
       <use xlink:href="#DejaVuSans-30" transform="translate(63.623047 0.765625)"/>
       <use xlink:href="#DejaVuSans-30" transform="translate(128.203125 39.046875) scale(0.7)"/>
      </g>
     </g>
    </g>
    <g id="ytick_4">
     <g id="line2d_9">
      <g>
       <use xlink:href="#mc6d8f4783d" x="55.779096" y="62.59" style="stroke: #000000; stroke-width: 0.8"/>
      </g>
     </g>
     <g id="text_10">
      <!-- $\mathdefault{10^{1}}$ -->
      <g transform="translate(31.179096 66.389219) scale(0.1 -0.1)">
       <use xlink:href="#DejaVuSans-31" transform="translate(0 0.684375)"/>
       <use xlink:href="#DejaVuSans-30" transform="translate(63.623047 0.684375)"/>
       <use xlink:href="#DejaVuSans-31" transform="translate(128.203125 38.965625) scale(0.7)"/>
      </g>
     </g>
    </g>
    <g id="ytick_5">
     <g id="line2d_10">
      <g>
       <use xlink:href="#mc6d8f4783d" x="55.779096" y="25.44" style="stroke: #000000; stroke-width: 0.8"/>
      </g>
     </g>
     <g id="text_11">
      <!-- $\mathdefault{10^{2}}$ -->
      <g transform="translate(31.179096 29.239219) scale(0.1 -0.1)">
       <use xlink:href="#DejaVuSans-31" transform="translate(0 0.765625)"/>
       <use xlink:href="#DejaVuSans-30" transform="translate(63.623047 0.765625)"/>
       <use xlink:href="#DejaVuSans-32" transform="translate(128.203125 39.046875) scale(0.7)"/>
      </g>
     </g>
    </g>
    <g id="ytick_6">
     <g id="line2d_11">
      <defs>
       <path id="me58679349a" d="M 0 0 
L -2 0 
" style="stroke: #000000; stroke-width: 0.6"/>
      </defs>
      <g>
       <use xlink:href="#me58679349a" x="55.779096" y="162.856736" style="stroke: #000000; stroke-width: 0.6"/>
      </g>
     </g>
    </g>
    <g id="ytick_7">
     <g id="line2d_12">
      <g>
       <use xlink:href="#me58679349a" x="55.779096" y="156.314945" style="stroke: #000000; stroke-width: 0.6"/>
      </g>
     </g>
    </g>
    <g id="ytick_8">
     <g id="line2d_13">
      <g>
       <use xlink:href="#me58679349a" x="55.779096" y="151.673471" style="stroke: #000000; stroke-width: 0.6"/>
      </g>
     </g>
    </g>
    <g id="ytick_9">
     <g id="line2d_14">
      <g>
       <use xlink:href="#me58679349a" x="55.779096" y="148.073264" style="stroke: #000000; stroke-width: 0.6"/>
      </g>
     </g>
    </g>
    <g id="ytick_10">
     <g id="line2d_15">
      <g>
       <use xlink:href="#me58679349a" x="55.779096" y="145.131681" style="stroke: #000000; stroke-width: 0.6"/>
      </g>
     </g>
    </g>
    <g id="ytick_11">
     <g id="line2d_16">
      <g>
       <use xlink:href="#me58679349a" x="55.779096" y="142.644608" style="stroke: #000000; stroke-width: 0.6"/>
      </g>
     </g>
    </g>
    <g id="ytick_12">
     <g id="line2d_17">
      <g>
       <use xlink:href="#me58679349a" x="55.779096" y="140.490207" style="stroke: #000000; stroke-width: 0.6"/>
      </g>
     </g>
    </g>
    <g id="ytick_13">
     <g id="line2d_18">
      <g>
       <use xlink:href="#me58679349a" x="55.779096" y="138.589891" style="stroke: #000000; stroke-width: 0.6"/>
      </g>
     </g>
    </g>
    <g id="ytick_14">
     <g id="line2d_19">
      <g>
       <use xlink:href="#me58679349a" x="55.779096" y="125.706736" style="stroke: #000000; stroke-width: 0.6"/>
      </g>
     </g>
    </g>
    <g id="ytick_15">
     <g id="line2d_20">
      <g>
       <use xlink:href="#me58679349a" x="55.779096" y="119.164945" style="stroke: #000000; stroke-width: 0.6"/>
      </g>
     </g>
    </g>
    <g id="ytick_16">
     <g id="line2d_21">
      <g>
       <use xlink:href="#me58679349a" x="55.779096" y="114.523471" style="stroke: #000000; stroke-width: 0.6"/>
      </g>
     </g>
    </g>
    <g id="ytick_17">
     <g id="line2d_22">
      <g>
       <use xlink:href="#me58679349a" x="55.779096" y="110.923264" style="stroke: #000000; stroke-width: 0.6"/>
      </g>
     </g>
    </g>
    <g id="ytick_18">
     <g id="line2d_23">
      <g>
       <use xlink:href="#me58679349a" x="55.779096" y="107.981681" style="stroke: #000000; stroke-width: 0.6"/>
      </g>
     </g>
    </g>
    <g id="ytick_19">
     <g id="line2d_24">
      <g>
       <use xlink:href="#me58679349a" x="55.779096" y="105.494608" style="stroke: #000000; stroke-width: 0.6"/>
      </g>
     </g>
    </g>
    <g id="ytick_20">
     <g id="line2d_25">
      <g>
       <use xlink:href="#me58679349a" x="55.779096" y="103.340207" style="stroke: #000000; stroke-width: 0.6"/>
      </g>
     </g>
    </g>
    <g id="ytick_21">
     <g id="line2d_26">
      <g>
       <use xlink:href="#me58679349a" x="55.779096" y="101.439891" style="stroke: #000000; stroke-width: 0.6"/>
      </g>
     </g>
    </g>
    <g id="ytick_22">
     <g id="line2d_27">
      <g>
       <use xlink:href="#me58679349a" x="55.779096" y="88.556736" style="stroke: #000000; stroke-width: 0.6"/>
      </g>
     </g>
    </g>
    <g id="ytick_23">
     <g id="line2d_28">
      <g>
       <use xlink:href="#me58679349a" x="55.779096" y="82.014945" style="stroke: #000000; stroke-width: 0.6"/>
      </g>
     </g>
    </g>
    <g id="ytick_24">
     <g id="line2d_29">
      <g>
       <use xlink:href="#me58679349a" x="55.779096" y="77.373471" style="stroke: #000000; stroke-width: 0.6"/>
      </g>
     </g>
    </g>
    <g id="ytick_25">
     <g id="line2d_30">
      <g>
       <use xlink:href="#me58679349a" x="55.779096" y="73.773264" style="stroke: #000000; stroke-width: 0.6"/>
      </g>
     </g>
    </g>
    <g id="ytick_26">
     <g id="line2d_31">
      <g>
       <use xlink:href="#me58679349a" x="55.779096" y="70.831681" style="stroke: #000000; stroke-width: 0.6"/>
      </g>
     </g>
    </g>
    <g id="ytick_27">
     <g id="line2d_32">
      <g>
       <use xlink:href="#me58679349a" x="55.779096" y="68.344608" style="stroke: #000000; stroke-width: 0.6"/>
      </g>
     </g>
    </g>
    <g id="ytick_28">
     <g id="line2d_33">
      <g>
       <use xlink:href="#me58679349a" x="55.779096" y="66.190207" style="stroke: #000000; stroke-width: 0.6"/>
      </g>
     </g>
    </g>
    <g id="ytick_29">
     <g id="line2d_34">
      <g>
       <use xlink:href="#me58679349a" x="55.779096" y="64.289891" style="stroke: #000000; stroke-width: 0.6"/>
      </g>
     </g>
    </g>
    <g id="ytick_30">
     <g id="line2d_35">
      <g>
       <use xlink:href="#me58679349a" x="55.779096" y="51.406736" style="stroke: #000000; stroke-width: 0.6"/>
      </g>
     </g>
    </g>
    <g id="ytick_31">
     <g id="line2d_36">
      <g>
       <use xlink:href="#me58679349a" x="55.779096" y="44.864945" style="stroke: #000000; stroke-width: 0.6"/>
      </g>
     </g>
    </g>
    <g id="ytick_32">
     <g id="line2d_37">
      <g>
       <use xlink:href="#me58679349a" x="55.779096" y="40.223471" style="stroke: #000000; stroke-width: 0.6"/>
      </g>
     </g>
    </g>
    <g id="ytick_33">
     <g id="line2d_38">
      <g>
       <use xlink:href="#me58679349a" x="55.779096" y="36.623264" style="stroke: #000000; stroke-width: 0.6"/>
      </g>
     </g>
    </g>
    <g id="ytick_34">
     <g id="line2d_39">
      <g>
       <use xlink:href="#me58679349a" x="55.779096" y="33.681681" style="stroke: #000000; stroke-width: 0.6"/>
      </g>
     </g>
    </g>
    <g id="ytick_35">
     <g id="line2d_40">
      <g>
       <use xlink:href="#me58679349a" x="55.779096" y="31.194608" style="stroke: #000000; stroke-width: 0.6"/>
      </g>
     </g>
    </g>
    <g id="ytick_36">
     <g id="line2d_41">
      <g>
       <use xlink:href="#me58679349a" x="55.779096" y="29.040207" style="stroke: #000000; stroke-width: 0.6"/>
      </g>
     </g>
    </g>
    <g id="ytick_37">
     <g id="line2d_42">
      <g>
       <use xlink:href="#me58679349a" x="55.779096" y="27.139891" style="stroke: #000000; stroke-width: 0.6"/>
      </g>
     </g>
    </g>
    <g id="text_12">
     <!-- FPEPQ -->
     <g transform="translate(19.199409 115.740781) rotate(-90) scale(0.1 -0.1)">
      <defs>
       <path id="DejaVuSans-46" d="M 628 4666 
L 3309 4666 
L 3309 4134 
L 1259 4134 
L 1259 2759 
L 3109 2759 
L 3109 2228 
L 1259 2228 
L 1259 0 
L 628 0 
L 628 4666 
z
" transform="scale(0.015625)"/>
       <path id="DejaVuSans-50" d="M 1259 4147 
L 1259 2394 
L 2053 2394 
Q 2494 2394 2734 2622 
Q 2975 2850 2975 3272 
Q 2975 3691 2734 3919 
Q 2494 4147 2053 4147 
L 1259 4147 
z
M 628 4666 
L 2053 4666 
Q 2838 4666 3239 4311 
Q 3641 3956 3641 3272 
Q 3641 2581 3239 2228 
Q 2838 1875 2053 1875 
L 1259 1875 
L 1259 0 
L 628 0 
L 628 4666 
z
" transform="scale(0.015625)"/>
       <path id="DejaVuSans-51" d="M 2522 4238 
Q 1834 4238 1429 3725 
Q 1025 3213 1025 2328 
Q 1025 1447 1429 934 
Q 1834 422 2522 422 
Q 3209 422 3611 934 
Q 4013 1447 4013 2328 
Q 4013 3213 3611 3725 
Q 3209 4238 2522 4238 
z
M 3406 84 
L 4238 -825 
L 3475 -825 
L 2784 -78 
Q 2681 -84 2626 -87 
Q 2572 -91 2522 -91 
Q 1538 -91 948 567 
Q 359 1225 359 2328 
Q 359 3434 948 4092 
Q 1538 4750 2522 4750 
Q 3503 4750 4090 4092 
Q 4678 3434 4678 2328 
Q 4678 1516 4351 937 
Q 4025 359 3406 84 
z
" transform="scale(0.015625)"/>
      </defs>
      <use xlink:href="#DejaVuSans-46"/>
      <use xlink:href="#DejaVuSans-50" transform="translate(57.519531 0)"/>
      <use xlink:href="#DejaVuSans-45" transform="translate(117.822266 0)"/>
      <use xlink:href="#DejaVuSans-50" transform="translate(181.005859 0)"/>
      <use xlink:href="#DejaVuSans-51" transform="translate(241.308594 0)"/>
     </g>
    </g>
   </g>
   <g id="line2d_43">
    <path d="M 55.779096 17.937816 
L 59.979017 24.916173 
L 64.178938 31.347451 
L 68.380839 37.345878 
L 72.580761 42.95985 
L 76.78088 48.451713 
L 80.980603 53.868283 
L 85.180524 59.263148 
L 89.382425 64.62133 
L 93.582346 69.87889 
L 97.778307 75.153658 
L 101.976248 80.423516 
L 106.174188 85.784097 
L 110.391931 90.785061 
L 114.589872 95.75715 
L 118.787813 100.596465 
L 122.985754 105.229435 
L 127.183695 109.59813 
L 131.381635 113.763202 
L 135.579576 117.779485 
L 139.777517 120.751698 
L 143.99526 123.486923 
L 148.193201 127.228348 
L 152.391142 130.166385 
L 156.589082 133.484573 
L 160.787023 137.369791 
L 164.984964 140.502312 
L 169.182905 143.939862 
L 173.380846 147.078449 
L 177.598588 151.118437 
L 181.796529 155.573926 
L 185.99447 159.269442 
L 190.192411 163.752379 
L 194.390352 166.396553 
L 198.588293 171.396952 
L 202.786234 175.880328 
L 206.984175 177.226082 
L 211.182116 178.692234 
L 215.399858 182.102516 
L 219.597799 183.080968 
L 223.79574 183.080968 
L 227.993681 187.72056 
L 232.191622 189.124746 
L 236.389563 189.124746 
L 240.587504 190.662896 
L 244.785444 190.662896 
L 249.003187 194.264232 
L 253.201128 194.264232 
L 257.399069 196.419442 
L 261.59701 205.441847 
L 265.79495 205.441847 
L 267.963845 217 
" clip-path="url(#p37f2a3c3e4)" style="fill: none; stroke: #440154; stroke-width: 1.5; stroke-linecap: square"/>
   </g>
   <g id="line2d_44">
    <path d="M 55.779096 57.65172 
L 59.979017 60.806678 
L 64.178938 63.961636 
L 68.380839 67.118081 
L 72.580761 70.273039 
L 76.78088 73.428146 
L 80.980603 76.582955 
L 85.180524 79.737912 
L 89.382425 82.894358 
L 93.582346 86.049315 
L 97.778307 89.201298 
L 101.976248 92.354769 
L 106.174188 95.508239 
L 110.391931 98.676584 
L 114.589872 101.830054 
L 118.787813 104.983525 
L 122.985754 108.136995 
L 127.183695 111.290465 
L 131.381635 114.443936 
L 135.579576 117.597406 
L 139.777517 120.750876 
L 143.99526 123.919222 
L 148.193201 127.072692 
L 152.391142 130.226162 
L 156.589082 133.379633 
L 160.787023 136.533103 
L 164.984964 139.686573 
L 169.182905 142.840043 
L 173.380846 145.993514 
L 177.598588 149.161859 
L 181.796529 152.315329 
L 185.99447 155.4688 
L 190.192411 158.62227 
L 194.390352 161.77574 
L 198.588293 164.929211 
L 202.786234 168.082681 
L 206.984175 171.236151 
L 211.182116 174.389622 
L 215.399858 177.557967 
L 219.597799 180.711437 
L 223.79574 183.864907 
L 227.993681 187.018378 
L 232.191622 190.171848 
L 236.389563 193.325318 
L 240.587504 196.478789 
L 244.785444 199.632259 
L 249.003187 202.800604 
L 253.201128 205.954074 
L 257.399069 209.107545 
L 261.59701 212.261015 
L 265.79495 215.414485 
L 267.905608 217 
" clip-path="url(#p37f2a3c3e4)" style="fill: none; stroke-dasharray: 1.5,2.475; stroke-dashoffset: 0; stroke: #440154; stroke-width: 1.5"/>
   </g>
   <g id="line2d_45">
    <path d="M 55.779096 6.714063 
L 59.979017 13.562012 
L 64.178938 19.873641 
L 68.380839 25.775832 
L 72.580761 31.380059 
L 76.78088 36.811514 
L 80.980603 42.130847 
L 85.180524 47.442804 
L 89.382425 52.66457 
L 93.582346 57.91629 
L 97.778307 63.136413 
L 101.976248 68.261846 
L 106.174188 73.315169 
L 110.391931 78.107901 
L 114.589872 82.876515 
L 118.787813 87.480214 
L 122.985754 91.847335 
L 127.183695 96.075386 
L 131.381635 100.047851 
L 135.579576 103.788034 
L 139.777517 107.274084 
L 143.99526 110.833166 
L 148.193201 113.824885 
L 152.391142 116.784246 
L 156.589082 119.717479 
L 160.787023 122.744997 
L 164.984964 125.836327 
L 169.182905 128.635416 
L 173.380846 131.153149 
L 177.598588 134.246953 
L 181.796529 136.761441 
L 185.99447 139.459027 
L 190.192411 142.293507 
L 194.390352 144.673063 
L 198.588293 147.301455 
L 202.786234 149.594877 
L 206.984175 152.34891 
L 211.182116 155.038433 
L 215.399858 156.717909 
L 219.597799 157.943288 
L 223.79574 160.220538 
L 227.993681 163.018888 
L 232.191622 165.187265 
L 236.389563 167.508969 
L 240.587504 168.507957 
L 244.785444 172.679237 
L 249.003187 174.942467 
L 253.201128 177.945593 
L 257.399069 179.891704 
L 261.59701 180.741498 
L 265.79495 181.182537 
L 269.992891 184.125627 
L 274.190832 184.671349 
L 278.34917 184.671349 
L 282.507508 189.877651 
L 286.863861 190.667417 
L 291.022199 192.368313 
L 295.180537 192.368313 
L 299.338874 197.619077 
L 303.695228 200.30801 
L 307.853566 203.546553 
L 312.011904 205.453149 
L 316.170241 207.602706 
L 320.328579 207.602706 
L 324.684933 210.098393 
L 325 210.593592 
" clip-path="url(#p37f2a3c3e4)" style="fill: none; stroke: #3b528b; stroke-width: 1.5; stroke-linecap: square"/>
   </g>
   <g id="line2d_46">
    <path d="M 55.779096 46.465577 
L 59.979017 49.620535 
L 64.178938 52.775493 
L 68.380839 55.931938 
L 72.580761 59.086896 
L 76.78088 62.242002 
L 80.980603 65.396811 
L 85.180524 68.551769 
L 89.382425 71.708215 
L 93.582346 74.863172 
L 97.778307 78.015155 
L 101.976248 81.168626 
L 106.174188 84.322096 
L 110.391931 87.490441 
L 114.589872 90.643911 
L 118.787813 93.797382 
L 122.985754 96.950852 
L 127.183695 100.104322 
L 131.381635 103.257793 
L 135.579576 106.411263 
L 139.777517 109.564733 
L 143.99526 112.733078 
L 148.193201 115.886549 
L 152.391142 119.040019 
L 156.589082 122.193489 
L 160.787023 125.34696 
L 164.984964 128.50043 
L 169.182905 131.6539 
L 173.380846 134.807371 
L 177.598588 137.975716 
L 181.796529 141.129186 
L 185.99447 144.282657 
L 190.192411 147.436127 
L 194.390352 150.589597 
L 198.588293 153.743067 
L 202.786234 156.896538 
L 206.984175 160.050008 
L 211.182116 163.203478 
L 215.399858 166.371824 
L 219.597799 169.525294 
L 223.79574 172.678764 
L 227.993681 175.832235 
L 232.191622 178.985705 
L 236.389563 182.139175 
L 240.587504 185.292646 
L 244.785444 188.446116 
L 249.003187 191.614461 
L 253.201128 194.767931 
L 257.399069 197.921402 
L 261.59701 201.074872 
L 265.79495 204.228342 
L 269.992891 207.381813 
L 274.190832 210.535283 
L 278.34917 213.659004 
L 282.507508 216.782724 
L 282.796748 217 
" clip-path="url(#p37f2a3c3e4)" style="fill: none; stroke-dasharray: 1.5,2.475; stroke-dashoffset: 0; stroke: #3b528b; stroke-width: 1.5"/>
   </g>
   <g id="line2d_47">
    <path d="M 58.037385 -1 
L 59.979017 2.179086 
L 64.178938 8.519885 
L 68.380839 14.443352 
L 72.580761 20.115396 
L 76.78088 25.584236 
L 80.980603 30.938506 
L 85.180524 36.250078 
L 89.382425 41.463873 
L 93.582346 46.618706 
L 97.778307 51.699794 
L 101.976248 56.628594 
L 106.174188 61.453221 
L 110.391931 66.113752 
L 114.589872 70.559707 
L 118.787813 74.81281 
L 122.985754 78.859663 
L 127.183695 82.695993 
L 131.381635 86.386208 
L 135.579576 89.805852 
L 139.777517 93.123093 
L 143.99526 96.360721 
L 148.193201 99.547545 
L 152.391142 102.579937 
L 156.589082 105.591703 
L 160.787023 108.74146 
L 164.984964 111.866734 
L 169.182905 114.857657 
L 173.380846 117.923253 
L 177.598588 121.039065 
L 181.796529 124.059366 
L 185.99447 126.791084 
L 190.192411 129.530325 
L 194.390352 132.240462 
L 198.588293 134.761838 
L 202.786234 137.643014 
L 206.984175 140.044663 
L 211.182116 142.825396 
L 215.399858 145.245017 
L 219.597799 147.549438 
L 223.79574 150.146737 
L 227.993681 152.883411 
L 232.191622 155.173154 
L 236.389563 157.422318 
L 240.587504 159.921877 
L 244.785444 162.945718 
L 249.003187 164.78228 
L 253.201128 167.423093 
L 257.399069 170.221849 
L 261.59701 172.679237 
L 265.79495 174.346207 
L 269.992891 177.230015 
L 274.190832 178.69654 
L 278.34917 179.686642 
L 282.507508 182.834215 
L 286.863861 184.396181 
L 291.022199 187.06721 
L 295.180537 188.06705 
L 299.338874 191.074968 
L 303.695228 192.821818 
L 307.853566 195.308892 
L 312.011904 197.619077 
L 316.170241 198.907591 
L 320.328579 200.316232 
L 324.684933 203.546553 
L 325 203.691011 
" clip-path="url(#p37f2a3c3e4)" style="fill: none; stroke: #21918c; stroke-width: 1.5; stroke-linecap: square"/>
   </g>
   <g id="line2d_48">
    <path d="M 55.779096 35.280874 
L 59.979017 38.435831 
L 64.178938 41.590789 
L 68.380839 44.747235 
L 72.580761 47.902192 
L 76.78088 51.057299 
L 80.980603 54.212108 
L 85.180524 57.367066 
L 89.382425 60.523511 
L 93.582346 63.678469 
L 97.778307 66.830452 
L 101.976248 69.983922 
L 106.174188 73.137392 
L 110.391931 76.305738 
L 114.589872 79.459208 
L 118.787813 82.612678 
L 122.985754 85.766148 
L 127.183695 88.919619 
L 131.381635 92.073089 
L 135.579576 95.226559 
L 139.777517 98.38003 
L 143.99526 101.548375 
L 148.193201 104.701845 
L 152.391142 107.855316 
L 156.589082 111.008786 
L 160.787023 114.162256 
L 164.984964 117.315727 
L 169.182905 120.469197 
L 173.380846 123.622667 
L 177.598588 126.791012 
L 181.796529 129.944483 
L 185.99447 133.097953 
L 190.192411 136.251423 
L 194.390352 139.404894 
L 198.588293 142.558364 
L 202.786234 145.711834 
L 206.984175 148.865305 
L 211.182116 152.018775 
L 215.399858 155.18712 
L 219.597799 158.34059 
L 223.79574 161.494061 
L 227.993681 164.647531 
L 232.191622 167.801001 
L 236.389563 170.954472 
L 240.587504 174.107942 
L 244.785444 177.261412 
L 249.003187 180.429758 
L 253.201128 183.583228 
L 257.399069 186.736698 
L 261.59701 189.890168 
L 265.79495 193.043639 
L 269.992891 196.197109 
L 274.190832 199.350579 
L 278.34917 202.4743 
L 282.507508 205.598021 
L 286.863861 208.87049 
L 291.022199 211.99421 
L 295.180537 215.117931 
L 297.685972 217 
" clip-path="url(#p37f2a3c3e4)" style="fill: none; stroke-dasharray: 1.5,2.475; stroke-dashoffset: 0; stroke: #21918c; stroke-width: 1.5"/>
   </g>
   <g id="line2d_49">
    <path d="M 69.69809 -1 
L 72.580761 2.7698 
L 76.78088 8.139979 
L 80.980603 13.446521 
L 85.180524 18.663296 
L 89.382425 23.829091 
L 93.582346 28.921656 
L 97.778307 33.857421 
L 101.976248 38.700407 
L 106.174188 43.371269 
L 110.391931 47.845297 
L 114.589872 52.10743 
L 118.787813 56.156131 
L 122.985754 60.015579 
L 127.183695 63.736589 
L 131.381635 67.194945 
L 135.579576 70.464801 
L 139.777517 73.734589 
L 143.99526 76.935776 
L 148.193201 79.943444 
L 152.391142 82.996091 
L 156.589082 86.134329 
L 160.787023 89.274289 
L 164.984964 92.258096 
L 169.182905 95.321908 
L 173.380846 98.408923 
L 177.598588 101.411233 
L 181.796529 104.191144 
L 185.99447 106.983327 
L 190.192411 109.633838 
L 194.390352 112.258028 
L 198.588293 115.035707 
L 202.786234 117.384585 
L 206.984175 120.353162 
L 211.182116 122.61127 
L 215.399858 125.019741 
L 219.597799 127.614112 
L 223.79574 130.251694 
L 227.993681 132.669421 
L 232.191622 134.747704 
L 236.389563 137.255512 
L 240.587504 140.148975 
L 244.785444 142.252964 
L 249.003187 144.673063 
L 253.201128 147.524467 
L 257.399069 150.047968 
L 261.59701 151.544912 
L 265.79495 154.343081 
L 269.992891 156.13844 
L 274.190832 157.119885 
L 278.34917 160.469078 
L 282.507508 161.757591 
L 286.863861 164.700681 
L 291.022199 165.698597 
L 295.180537 168.715397 
L 299.338874 170.452706 
L 303.695228 172.948392 
L 307.853566 174.643258 
L 312.011904 176.542947 
L 316.170241 177.947647 
L 320.328579 181.185048 
L 324.684933 183.083795 
L 325 183.24712 
" clip-path="url(#p37f2a3c3e4)" style="fill: none; stroke: #5ec962; stroke-width: 1.5; stroke-linecap: square"/>
   </g>
   <g id="line2d_50">
    <path d="M 55.779096 9.314138 
L 59.979017 12.469096 
L 64.178938 15.624054 
L 68.380839 18.780499 
L 72.580761 21.935457 
L 76.78088 25.090563 
L 80.980603 28.245372 
L 85.180524 31.40033 
L 89.382425 34.556775 
L 93.582346 37.711733 
L 97.778307 40.863716 
L 101.976248 44.017186 
L 106.174188 47.170657 
L 110.391931 50.339002 
L 114.589872 53.492472 
L 118.787813 56.645942 
L 122.985754 59.799413 
L 127.183695 62.952883 
L 131.381635 66.106353 
L 135.579576 69.259824 
L 139.777517 72.413294 
L 143.99526 75.581639 
L 148.193201 78.73511 
L 152.391142 81.88858 
L 156.589082 85.04205 
L 160.787023 88.195521 
L 164.984964 91.348991 
L 169.182905 94.502461 
L 173.380846 97.655932 
L 177.598588 100.824277 
L 181.796529 103.977747 
L 185.99447 107.131217 
L 190.192411 110.284688 
L 194.390352 113.438158 
L 198.588293 116.591628 
L 202.786234 119.745099 
L 206.984175 122.898569 
L 211.182116 126.052039 
L 215.399858 129.220384 
L 219.597799 132.373855 
L 223.79574 135.527325 
L 227.993681 138.680795 
L 232.191622 141.834266 
L 236.389563 144.987736 
L 240.587504 148.141206 
L 244.785444 151.294677 
L 249.003187 154.463022 
L 253.201128 157.616492 
L 257.399069 160.769962 
L 261.59701 163.923433 
L 265.79495 167.076903 
L 269.992891 170.230373 
L 274.190832 173.383844 
L 278.34917 176.507564 
L 282.507508 179.631285 
L 286.863861 182.903754 
L 291.022199 186.027475 
L 295.180537 189.151195 
L 299.338874 192.274916 
L 303.695228 195.547385 
L 307.853566 198.671106 
L 312.011904 201.794826 
L 316.170241 204.918547 
L 320.328579 208.042268 
L 324.684933 211.314737 
L 325 211.551414 
" clip-path="url(#p37f2a3c3e4)" style="fill: none; stroke-dasharray: 1.5,2.475; stroke-dashoffset: 0; stroke: #5ec962; stroke-width: 1.5"/>
   </g>
   <g id="line2d_51">
    <path d="M 76.478901 -1 
L 76.78088 -0.616834 
L 80.980603 4.657257 
L 85.180524 9.857058 
L 89.382425 15.00806 
L 93.582346 20.011343 
L 97.778307 24.916173 
L 101.976248 29.671543 
L 106.174188 34.273219 
L 110.391931 38.66741 
L 114.589872 42.783986 
L 118.787813 46.733026 
L 122.985754 50.573522 
L 127.183695 54.181391 
L 131.381635 57.510831 
L 135.579576 60.790387 
L 139.777517 63.966879 
L 143.99526 67.092248 
L 148.193201 70.242907 
L 152.391142 73.20265 
L 156.589082 76.456205 
L 160.787023 79.532482 
L 164.984964 82.428941 
L 169.182905 85.594997 
L 173.380846 88.597121 
L 177.598588 91.437126 
L 181.796529 94.253825 
L 185.99447 96.974155 
L 190.192411 99.69167 
L 194.390352 102.33743 
L 198.588293 105.102964 
L 202.786234 107.562315 
L 206.984175 110.349534 
L 211.182116 112.691421 
L 215.399858 114.857657 
L 219.597799 117.539442 
L 223.79574 120.168969 
L 227.993681 122.591307 
L 232.191622 124.881184 
L 236.389563 127.815104 
L 240.587504 130.134511 
L 244.785444 132.325346 
L 249.003187 134.649111 
L 253.201128 137.255512 
L 257.399069 139.52728 
L 261.59701 141.70232 
L 265.79495 144.3958 
L 269.992891 145.537401 
L 274.190832 147.412576 
L 278.34917 149.787503 
L 282.507508 151.405464 
L 286.863861 153.517417 
L 291.022199 155.953323 
L 295.180537 158.817263 
L 299.338874 159.741307 
L 303.695228 162.309498 
L 307.853566 165.355913 
L 312.011904 166.048716 
L 316.170241 168.303149 
L 320.328579 171.897704 
L 324.684933 172.948392 
L 325 173.032324 
" clip-path="url(#p37f2a3c3e4)" style="fill: none; stroke: #fde725; stroke-width: 1.5; stroke-linecap: square"/>
   </g>
   <g id="line2d_52">
    <path d="M 55.779096 1.731081 
L 59.979017 4.886038 
L 64.178938 8.040996 
L 68.380839 11.197442 
L 72.580761 14.352399 
L 76.78088 17.507506 
L 80.980603 20.662315 
L 85.180524 23.817273 
L 89.382425 26.973718 
L 93.582346 30.128676 
L 97.778307 33.280659 
L 101.976248 36.434129 
L 106.174188 39.587599 
L 110.391931 42.755944 
L 114.589872 45.909415 
L 118.787813 49.062885 
L 122.985754 52.216355 
L 127.183695 55.369826 
L 131.381635 58.523296 
L 135.579576 61.676766 
L 139.777517 64.830237 
L 143.99526 67.998582 
L 148.193201 71.152052 
L 152.391142 74.305523 
L 156.589082 77.458993 
L 160.787023 80.612463 
L 164.984964 83.765934 
L 169.182905 86.919404 
L 173.380846 90.072874 
L 177.598588 93.241219 
L 181.796529 96.39469 
L 185.99447 99.54816 
L 190.192411 102.70163 
L 194.390352 105.855101 
L 198.588293 109.008571 
L 202.786234 112.162041 
L 206.984175 115.315512 
L 211.182116 118.468982 
L 215.399858 121.637327 
L 219.597799 124.790797 
L 223.79574 127.944268 
L 227.993681 131.097738 
L 232.191622 134.251208 
L 236.389563 137.404679 
L 240.587504 140.558149 
L 244.785444 143.711619 
L 249.003187 146.879964 
L 253.201128 150.033435 
L 257.399069 153.186905 
L 261.59701 156.340375 
L 265.79495 159.493846 
L 269.992891 162.647316 
L 274.190832 165.800786 
L 278.34917 168.924507 
L 282.507508 172.048228 
L 286.863861 175.320697 
L 291.022199 178.444417 
L 295.180537 181.568138 
L 299.338874 184.691859 
L 303.695228 187.964328 
L 307.853566 191.088048 
L 312.011904 194.211769 
L 316.170241 197.33549 
L 320.328579 200.45921 
L 324.684933 203.731679 
L 325 203.968356 
" clip-path="url(#p37f2a3c3e4)" style="fill: none; stroke-dasharray: 1.5,2.475; stroke-dashoffset: 0; stroke: #fde725; stroke-width: 1.5"/>
   </g>
   <g id="patch_3">
    <path d="M 55.779096 174.04 
L 55.779096 25.44 
" style="fill: none; stroke: #000000; stroke-width: 0.8; stroke-linejoin: miter; stroke-linecap: square"/>
   </g>
   <g id="patch_4">
    <path d="M 313.2 174.04 
L 313.2 25.44 
" style="fill: none; stroke: #000000; stroke-width: 0.8; stroke-linejoin: miter; stroke-linecap: square"/>
   </g>
   <g id="patch_5">
    <path d="M 55.779096 174.04 
L 313.2 174.04 
" style="fill: none; stroke: #000000; stroke-width: 0.8; stroke-linejoin: miter; stroke-linecap: square"/>
   </g>
   <g id="patch_6">
    <path d="M 55.779096 25.44 
L 313.2 25.44 
" style="fill: none; stroke: #000000; stroke-width: 0.8; stroke-linejoin: miter; stroke-linecap: square"/>
   </g>
   <g id="text_13">
    <!-- Foldseek -->
    <g transform="translate(158.125173 19.44) scale(0.12 -0.12)">
     <defs>
      <path id="DejaVuSans-73" d="M 2834 3397 
L 2834 2853 
Q 2591 2978 2328 3040 
Q 2066 3103 1784 3103 
Q 1356 3103 1142 2972 
Q 928 2841 928 2578 
Q 928 2378 1081 2264 
Q 1234 2150 1697 2047 
L 1894 2003 
Q 2506 1872 2764 1633 
Q 3022 1394 3022 966 
Q 3022 478 2636 193 
Q 2250 -91 1575 -91 
Q 1294 -91 989 -36 
Q 684 19 347 128 
L 347 722 
Q 666 556 975 473 
Q 1284 391 1588 391 
Q 1994 391 2212 530 
Q 2431 669 2431 922 
Q 2431 1156 2273 1281 
Q 2116 1406 1581 1522 
L 1381 1569 
Q 847 1681 609 1914 
Q 372 2147 372 2553 
Q 372 3047 722 3315 
Q 1072 3584 1716 3584 
Q 2034 3584 2315 3537 
Q 2597 3491 2834 3397 
z
" transform="scale(0.015625)"/>
      <path id="DejaVuSans-6b" d="M 581 4863 
L 1159 4863 
L 1159 1991 
L 2875 3500 
L 3609 3500 
L 1753 1863 
L 3688 0 
L 2938 0 
L 1159 1709 
L 1159 0 
L 581 0 
L 581 4863 
z
" transform="scale(0.015625)"/>
     </defs>
     <use xlink:href="#DejaVuSans-46"/>
     <use xlink:href="#DejaVuSans-6f" transform="translate(53.894531 0)"/>
     <use xlink:href="#DejaVuSans-6c" transform="translate(115.076172 0)"/>
     <use xlink:href="#DejaVuSans-64" transform="translate(142.859375 0)"/>
     <use xlink:href="#DejaVuSans-73" transform="translate(206.335938 0)"/>
     <use xlink:href="#DejaVuSans-65" transform="translate(258.435547 0)"/>
     <use xlink:href="#DejaVuSans-65" transform="translate(319.958984 0)"/>
     <use xlink:href="#DejaVuSans-6b" transform="translate(381.482422 0)"/>
    </g>
   </g>
   <g id="legend_1">
    <g id="patch_7">
     <path d="M 261.91875 106.830625 
L 306.2 106.830625 
Q 308.2 106.830625 308.2 104.830625 
L 308.2 32.44 
Q 308.2 30.44 306.2 30.44 
L 261.91875 30.44 
Q 259.91875 30.44 259.91875 32.44 
L 259.91875 104.830625 
Q 259.91875 106.830625 261.91875 106.830625 
z
" style="fill: #ffffff; opacity: 0.8; stroke: #cccccc; stroke-linejoin: miter"/>
    </g>
    <g id="line2d_53">
     <path d="M 263.91875 38.538438 
L 273.91875 38.538438 
L 283.91875 38.538438 
" style="fill: none; stroke: #440154; stroke-width: 1.5; stroke-linecap: square"/>
    </g>
    <g id="text_14">
     <!-- /4 -->
     <g transform="translate(291.91875 42.038438) scale(0.1 -0.1)">
      <defs>
       <path id="DejaVuSans-2f" d="M 1625 4666 
L 2156 4666 
L 531 -594 
L 0 -594 
L 1625 4666 
z
" transform="scale(0.015625)"/>
       <path id="DejaVuSans-34" d="M 2419 4116 
L 825 1625 
L 2419 1625 
L 2419 4116 
z
M 2253 4666 
L 3047 4666 
L 3047 1625 
L 3713 1625 
L 3713 1100 
L 3047 1100 
L 3047 0 
L 2419 0 
L 2419 1100 
L 313 1100 
L 313 1709 
L 2253 4666 
z
" transform="scale(0.015625)"/>
      </defs>
      <use xlink:href="#DejaVuSans-2f"/>
      <use xlink:href="#DejaVuSans-34" transform="translate(33.691406 0)"/>
     </g>
    </g>
    <g id="line2d_54">
     <path d="M 263.91875 53.216563 
L 273.91875 53.216563 
L 283.91875 53.216563 
" style="fill: none; stroke: #3b528b; stroke-width: 1.5; stroke-linecap: square"/>
    </g>
    <g id="text_15">
     <!-- /2 -->
     <g transform="translate(291.91875 56.716563) scale(0.1 -0.1)">
      <use xlink:href="#DejaVuSans-2f"/>
      <use xlink:href="#DejaVuSans-32" transform="translate(33.691406 0)"/>
     </g>
    </g>
    <g id="line2d_55">
     <path d="M 263.91875 67.894688 
L 273.91875 67.894688 
L 283.91875 67.894688 
" style="fill: none; stroke: #21918c; stroke-width: 1.5; stroke-linecap: square"/>
    </g>
    <g id="text_16">
     <!-- x1 -->
     <g transform="translate(291.91875 71.394688) scale(0.1 -0.1)">
      <defs>
       <path id="DejaVuSans-78" d="M 3513 3500 
L 2247 1797 
L 3578 0 
L 2900 0 
L 1881 1375 
L 863 0 
L 184 0 
L 1544 1831 
L 300 3500 
L 978 3500 
L 1906 2253 
L 2834 3500 
L 3513 3500 
z
" transform="scale(0.015625)"/>
      </defs>
      <use xlink:href="#DejaVuSans-78"/>
      <use xlink:href="#DejaVuSans-31" transform="translate(59.179688 0)"/>
     </g>
    </g>
    <g id="line2d_56">
     <path d="M 263.91875 82.572813 
L 273.91875 82.572813 
L 283.91875 82.572813 
" style="fill: none; stroke: #5ec962; stroke-width: 1.5; stroke-linecap: square"/>
    </g>
    <g id="text_17">
     <!-- x4 -->
     <g transform="translate(291.91875 86.072813) scale(0.1 -0.1)">
      <use xlink:href="#DejaVuSans-78"/>
      <use xlink:href="#DejaVuSans-34" transform="translate(59.179688 0)"/>
     </g>
    </g>
    <g id="line2d_57">
     <path d="M 263.91875 97.250938 
L 273.91875 97.250938 
L 283.91875 97.250938 
" style="fill: none; stroke: #fde725; stroke-width: 1.5; stroke-linecap: square"/>
    </g>
    <g id="text_18">
     <!-- x8 -->
     <g transform="translate(291.91875 100.750938) scale(0.1 -0.1)">
      <use xlink:href="#DejaVuSans-78"/>
      <use xlink:href="#DejaVuSans-38" transform="translate(59.179688 0)"/>
     </g>
    </g>
   </g>
  </g>
 </g>
 <defs>
  <clipPath id="p37f2a3c3e4">
   <rect x="55.779096" y="25.44" width="257.420904" height="148.6"/>
  </clipPath>
 </defs>
</svg>
