<?xml version="1.0" encoding="utf-8" standalone="no"?>
<!DOCTYPE svg PUBLIC "-//W3C//DTD SVG 1.1//EN"
  "http://www.w3.org/Graphics/SVG/1.1/DTD/svg11.dtd">
<svg xmlns:xlink="http://www.w3.org/1999/xlink" width="371.612903pt" height="233.766234pt" viewBox="0 0 371.612903 233.766234" xmlns="http://www.w3.org/2000/svg" version="1.1">
 <metadata>
  <rdf:RDF xmlns:dc="http://purl.org/dc/elements/1.1/" xmlns:cc="http://creativecommons.org/ns#" xmlns:rdf="http://www.w3.org/1999/02/22-rdf-syntax-ns#">
   <cc:Work>
    <dc:type rdf:resource="http://purl.org/dc/dcmitype/StillImage"/>
    <dc:date>2025-07-15T07:51:29.965296</dc:date>
    <dc:format>image/svg+xml</dc:format>
    <dc:creator>
     <cc:Agent>
      <dc:title>Matplotlib v3.9.2, https://matplotlib.org/</dc:title>
     </cc:Agent>
    </dc:creator>
   </cc:Work>
  </rdf:RDF>
 </metadata>
 <defs>
  <style type="text/css">*{stroke-linejoin: round; stroke-linecap: butt}</style>
 </defs>
 <g id="figure_1">
  <g id="patch_1">
   <path d="M 0 233.766234 
L 371.612903 233.766234 
L 371.612903 0 
L 0 0 
z
" style="fill: #ffffff"/>
  </g>
  <g id="axes_1">
   <g id="patch_2">
    <path d="M 89.3 191.806234 
L 360.812903 191.806234 
L 360.812903 10.8 
L 89.3 10.8 
z
" style="fill: #ffffff"/>
   </g>
   <g id="PolyCollection_1">
    <defs>
     <path id="mf14210a3d7" d="M 101.641496 -50.187556 
L 101.641496 -50.187556 
L 104.134478 -50.187556 
L 106.62746 -50.187556 
L 109.120442 -50.187556 
L 111.613424 -50.187874 
L 114.108874 -50.187808 
L 116.601857 -50.188814 
L 119.094839 -50.193222 
L 121.587821 -50.20507 
L 124.080803 -50.234949 
L 126.571317 -50.316404 
L 129.064299 -50.501832 
L 131.557281 -50.856881 
L 134.050263 -51.446776 
L 136.543245 -52.386425 
L 139.036227 -53.884992 
L 141.529209 -56.160643 
L 144.022191 -59.728344 
L 146.515174 -65.398275 
L 149.008156 -74.214932 
L 151.501138 -87.929732 
L 153.99412 -107.707638 
L 156.487102 -133.760463 
L 158.980084 -163.096367 
L 161.473066 -190.247964 
L 163.966048 -209.046241 
L 166.45903 -214.738678 
L 168.952013 -207.325272 
L 171.444995 -189.983199 
L 173.937977 -167.517933 
L 176.430959 -144.96 
L 178.923941 -124.731994 
L 181.416923 -107.826782 
L 183.909905 -94.350271 
L 186.402887 -84.077409 
L 188.89587 -76.213904 
L 191.388852 -70.28318 
L 193.881834 -65.768945 
L 196.374816 -62.313769 
L 198.867798 -59.556247 
L 201.36078 -57.493732 
L 203.853762 -55.860135 
L 206.346744 -54.614418 
L 208.839726 -53.677152 
L 211.332709 -52.98744 
L 213.825691 -52.447321 
L 216.318673 -52.039584 
L 218.811655 -51.727162 
L 221.304637 -51.466766 
L 223.797619 -51.260779 
L 226.315284 -51.09689 
L 228.808266 -50.961065 
L 231.301248 -50.848938 
L 233.79423 -50.752563 
L 236.287213 -50.670222 
L 238.780195 -50.603369 
L 241.273177 -50.525263 
L 243.766159 -50.465294 
L 246.259141 -50.415254 
L 248.752123 -50.362036 
L 251.245105 -50.31647 
L 253.738087 -50.278992 
L 256.23107 -50.258844 
L 258.724052 -50.240761 
L 261.217034 -50.22604 
L 263.710016 -50.214377 
L 266.202998 -50.207334 
L 268.69598 -50.201774 
L 271.188962 -50.197961 
L 273.681944 -50.195817 
L 276.174926 -50.193725 
L 278.667909 -50.192004 
L 281.160891 -50.191422 
L 283.653873 -50.189912 
L 286.146855 -50.189912 
L 288.639837 -50.188906 
L 291.132819 -50.188456 
L 293.625801 -50.188456 
L 296.118783 -50.188086 
L 298.611765 -50.188059 
L 301.104748 -50.187821 
L 303.59773 -50.187688 
L 306.090712 -50.187715 
L 308.583694 -50.187583 
L 311.076676 -50.187609 
L 313.569658 -50.187583 
L 316.06264 -50.187556 
L 318.555622 -50.187583 
L 321.048604 -50.187556 
L 323.541587 -50.187556 
L 326.034569 -50.187556 
L 328.527551 -50.187556 
L 331.020533 -50.187556 
L 333.513515 -50.187556 
L 336.006497 -50.187556 
L 338.499479 -50.187556 
L 340.992461 -50.187556 
L 343.485443 -50.187556 
L 345.978426 -50.187556 
L 348.471408 -50.187556 
L 348.471408 -50.187556 
L 348.471408 -50.187556 
L 345.978426 -50.187556 
L 343.485443 -50.187556 
L 340.992461 -50.187556 
L 338.499479 -50.187556 
L 336.006497 -50.187556 
L 333.513515 -50.187556 
L 331.020533 -50.187556 
L 328.527551 -50.187556 
L 326.034569 -50.187556 
L 323.541587 -50.187556 
L 321.048604 -50.187556 
L 318.555622 -50.187556 
L 316.06264 -50.187556 
L 313.569658 -50.187556 
L 311.076676 -50.187556 
L 308.583694 -50.187556 
L 306.090712 -50.187556 
L 303.59773 -50.187556 
L 301.104748 -50.187556 
L 298.611765 -50.187556 
L 296.118783 -50.187556 
L 293.625801 -50.187556 
L 291.132819 -50.187556 
L 288.639837 -50.187556 
L 286.146855 -50.187556 
L 283.653873 -50.187556 
L 281.160891 -50.187556 
L 278.667909 -50.187556 
L 276.174926 -50.187556 
L 273.681944 -50.187556 
L 271.188962 -50.187556 
L 268.69598 -50.187556 
L 266.202998 -50.187556 
L 263.710016 -50.187556 
L 261.217034 -50.187556 
L 258.724052 -50.187556 
L 256.23107 -50.187556 
L 253.738087 -50.187556 
L 251.245105 -50.187556 
L 248.752123 -50.187556 
L 246.259141 -50.187556 
L 243.766159 -50.187556 
L 241.273177 -50.187556 
L 238.780195 -50.187556 
L 236.287213 -50.187556 
L 233.79423 -50.187556 
L 231.301248 -50.187556 
L 228.808266 -50.187556 
L 226.315284 -50.187556 
L 223.797619 -50.187556 
L 221.304637 -50.187556 
L 218.811655 -50.187556 
L 216.318673 -50.187556 
L 213.825691 -50.187556 
L 211.332709 -50.187556 
L 208.839726 -50.187556 
L 206.346744 -50.187556 
L 203.853762 -50.187556 
L 201.36078 -50.187556 
L 198.867798 -50.187556 
L 196.374816 -50.187556 
L 193.881834 -50.187556 
L 191.388852 -50.187556 
L 188.89587 -50.187556 
L 186.402887 -50.187556 
L 183.909905 -50.187556 
L 181.416923 -50.187556 
L 178.923941 -50.187556 
L 176.430959 -50.187556 
L 173.937977 -50.187556 
L 171.444995 -50.187556 
L 168.952013 -50.187556 
L 166.45903 -50.187556 
L 163.966048 -50.187556 
L 161.473066 -50.187556 
L 158.980084 -50.187556 
L 156.487102 -50.187556 
L 153.99412 -50.187556 
L 151.501138 -50.187556 
L 149.008156 -50.187556 
L 146.515174 -50.187556 
L 144.022191 -50.187556 
L 141.529209 -50.187556 
L 139.036227 -50.187556 
L 136.543245 -50.187556 
L 134.050263 -50.187556 
L 131.557281 -50.187556 
L 129.064299 -50.187556 
L 126.571317 -50.187556 
L 124.080803 -50.187556 
L 121.587821 -50.187556 
L 119.094839 -50.187556 
L 116.601857 -50.187556 
L 114.108874 -50.187556 
L 111.613424 -50.187556 
L 109.120442 -50.187556 
L 106.62746 -50.187556 
L 104.134478 -50.187556 
L 101.641496 -50.187556 
z
" style="stroke: #d3d3d3"/>
    </defs>
    <g clip-path="url(#p3fbec6d703)">
     <use xlink:href="#mf14210a3d7" x="0" y="233.766234" style="fill: #d3d3d3; stroke: #d3d3d3"/>
    </g>
   </g>
   <g id="matplotlib.axis_1">
    <g id="xtick_1">
     <g id="line2d_1">
      <defs>
       <path id="m4b76d2cebd" d="M 0 0 
L 0 3.5 
" style="stroke: #000000; stroke-width: 0.8"/>
      </defs>
      <g>
       <use xlink:href="#m4b76d2cebd" x="101.641496" y="191.806234" style="stroke: #000000; stroke-width: 0.8"/>
      </g>
     </g>
     <g id="text_1">
      <!-- 0.0 -->
      <g transform="translate(93.689933 206.404671) scale(0.1 -0.1)">
       <defs>
        <path id="DejaVuSans-30" d="M 2034 4250 
Q 1547 4250 1301 3770 
Q 1056 3291 1056 2328 
Q 1056 1369 1301 889 
Q 1547 409 2034 409 
Q 2525 409 2770 889 
Q 3016 1369 3016 2328 
Q 3016 3291 2770 3770 
Q 2525 4250 2034 4250 
z
M 2034 4750 
Q 2819 4750 3233 4129 
Q 3647 3509 3647 2328 
Q 3647 1150 3233 529 
Q 2819 -91 2034 -91 
Q 1250 -91 836 529 
Q 422 1150 422 2328 
Q 422 3509 836 4129 
Q 1250 4750 2034 4750 
z
" transform="scale(0.015625)"/>
        <path id="DejaVuSans-2e" d="M 684 794 
L 1344 794 
L 1344 0 
L 684 0 
L 684 794 
z
" transform="scale(0.015625)"/>
       </defs>
       <use xlink:href="#DejaVuSans-30"/>
       <use xlink:href="#DejaVuSans-2e" x="63.623047"/>
       <use xlink:href="#DejaVuSans-30" x="95.410156"/>
      </g>
     </g>
    </g>
    <g id="xtick_2">
     <g id="line2d_2">
      <g>
       <use xlink:href="#m4b76d2cebd" x="151.007478" y="191.806234" style="stroke: #000000; stroke-width: 0.8"/>
      </g>
     </g>
     <g id="text_2">
      <!-- 0.2 -->
      <g transform="translate(143.055916 206.404671) scale(0.1 -0.1)">
       <defs>
        <path id="DejaVuSans-32" d="M 1228 531 
L 3431 531 
L 3431 0 
L 469 0 
L 469 531 
Q 828 903 1448 1529 
Q 2069 2156 2228 2338 
Q 2531 2678 2651 2914 
Q 2772 3150 2772 3378 
Q 2772 3750 2511 3984 
Q 2250 4219 1831 4219 
Q 1534 4219 1204 4116 
Q 875 4013 500 3803 
L 500 4441 
Q 881 4594 1212 4672 
Q 1544 4750 1819 4750 
Q 2544 4750 2975 4387 
Q 3406 4025 3406 3419 
Q 3406 3131 3298 2873 
Q 3191 2616 2906 2266 
Q 2828 2175 2409 1742 
Q 1991 1309 1228 531 
z
" transform="scale(0.015625)"/>
       </defs>
       <use xlink:href="#DejaVuSans-30"/>
       <use xlink:href="#DejaVuSans-2e" x="63.623047"/>
       <use xlink:href="#DejaVuSans-32" x="95.410156"/>
      </g>
     </g>
    </g>
    <g id="xtick_3">
     <g id="line2d_3">
      <g>
       <use xlink:href="#m4b76d2cebd" x="200.37346" y="191.806234" style="stroke: #000000; stroke-width: 0.8"/>
      </g>
     </g>
     <g id="text_3">
      <!-- 0.4 -->
      <g transform="translate(192.421898 206.404671) scale(0.1 -0.1)">
       <defs>
        <path id="DejaVuSans-34" d="M 2419 4116 
L 825 1625 
L 2419 1625 
L 2419 4116 
z
M 2253 4666 
L 3047 4666 
L 3047 1625 
L 3713 1625 
L 3713 1100 
L 3047 1100 
L 3047 0 
L 2419 0 
L 2419 1100 
L 313 1100 
L 313 1709 
L 2253 4666 
z
" transform="scale(0.015625)"/>
       </defs>
       <use xlink:href="#DejaVuSans-30"/>
       <use xlink:href="#DejaVuSans-2e" x="63.623047"/>
       <use xlink:href="#DejaVuSans-34" x="95.410156"/>
      </g>
     </g>
    </g>
    <g id="xtick_4">
     <g id="line2d_4">
      <g>
       <use xlink:href="#m4b76d2cebd" x="249.739443" y="191.806234" style="stroke: #000000; stroke-width: 0.8"/>
      </g>
     </g>
     <g id="text_4">
      <!-- 0.6 -->
      <g transform="translate(241.78788 206.404671) scale(0.1 -0.1)">
       <defs>
        <path id="DejaVuSans-36" d="M 2113 2584 
Q 1688 2584 1439 2293 
Q 1191 2003 1191 1497 
Q 1191 994 1439 701 
Q 1688 409 2113 409 
Q 2538 409 2786 701 
Q 3034 994 3034 1497 
Q 3034 2003 2786 2293 
Q 2538 2584 2113 2584 
z
M 3366 4563 
L 3366 3988 
Q 3128 4100 2886 4159 
Q 2644 4219 2406 4219 
Q 1781 4219 1451 3797 
Q 1122 3375 1075 2522 
Q 1259 2794 1537 2939 
Q 1816 3084 2150 3084 
Q 2853 3084 3261 2657 
Q 3669 2231 3669 1497 
Q 3669 778 3244 343 
Q 2819 -91 2113 -91 
Q 1303 -91 875 529 
Q 447 1150 447 2328 
Q 447 3434 972 4092 
Q 1497 4750 2381 4750 
Q 2619 4750 2861 4703 
Q 3103 4656 3366 4563 
z
" transform="scale(0.015625)"/>
       </defs>
       <use xlink:href="#DejaVuSans-30"/>
       <use xlink:href="#DejaVuSans-2e" x="63.623047"/>
       <use xlink:href="#DejaVuSans-36" x="95.410156"/>
      </g>
     </g>
    </g>
    <g id="xtick_5">
     <g id="line2d_5">
      <g>
       <use xlink:href="#m4b76d2cebd" x="299.105425" y="191.806234" style="stroke: #000000; stroke-width: 0.8"/>
      </g>
     </g>
     <g id="text_5">
      <!-- 0.8 -->
      <g transform="translate(291.153863 206.404671) scale(0.1 -0.1)">
       <defs>
        <path id="DejaVuSans-38" d="M 2034 2216 
Q 1584 2216 1326 1975 
Q 1069 1734 1069 1313 
Q 1069 891 1326 650 
Q 1584 409 2034 409 
Q 2484 409 2743 651 
Q 3003 894 3003 1313 
Q 3003 1734 2745 1975 
Q 2488 2216 2034 2216 
z
M 1403 2484 
Q 997 2584 770 2862 
Q 544 3141 544 3541 
Q 544 4100 942 4425 
Q 1341 4750 2034 4750 
Q 2731 4750 3128 4425 
Q 3525 4100 3525 3541 
Q 3525 3141 3298 2862 
Q 3072 2584 2669 2484 
Q 3125 2378 3379 2068 
Q 3634 1759 3634 1313 
Q 3634 634 3220 271 
Q 2806 -91 2034 -91 
Q 1263 -91 848 271 
Q 434 634 434 1313 
Q 434 1759 690 2068 
Q 947 2378 1403 2484 
z
M 1172 3481 
Q 1172 3119 1398 2916 
Q 1625 2713 2034 2713 
Q 2441 2713 2670 2916 
Q 2900 3119 2900 3481 
Q 2900 3844 2670 4047 
Q 2441 4250 2034 4250 
Q 1625 4250 1398 4047 
Q 1172 3844 1172 3481 
z
" transform="scale(0.015625)"/>
       </defs>
       <use xlink:href="#DejaVuSans-30"/>
       <use xlink:href="#DejaVuSans-2e" x="63.623047"/>
       <use xlink:href="#DejaVuSans-38" x="95.410156"/>
      </g>
     </g>
    </g>
    <g id="xtick_6">
     <g id="line2d_6">
      <g>
       <use xlink:href="#m4b76d2cebd" x="348.471408" y="191.806234" style="stroke: #000000; stroke-width: 0.8"/>
      </g>
     </g>
     <g id="text_6">
      <!-- 1.0 -->
      <g transform="translate(340.519845 206.404671) scale(0.1 -0.1)">
       <defs>
        <path id="DejaVuSans-31" d="M 794 531 
L 1825 531 
L 1825 4091 
L 703 3866 
L 703 4441 
L 1819 4666 
L 2450 4666 
L 2450 531 
L 3481 531 
L 3481 0 
L 794 0 
L 794 531 
z
" transform="scale(0.015625)"/>
       </defs>
       <use xlink:href="#DejaVuSans-31"/>
       <use xlink:href="#DejaVuSans-2e" x="63.623047"/>
       <use xlink:href="#DejaVuSans-30" x="95.410156"/>
      </g>
     </g>
    </g>
    <g id="text_7">
     <!-- TM -->
     <g transform="translate(217.688483 220.082796) scale(0.1 -0.1)">
      <defs>
       <path id="DejaVuSans-54" d="M -19 4666 
L 3928 4666 
L 3928 4134 
L 2272 4134 
L 2272 0 
L 1638 0 
L 1638 4134 
L -19 4134 
L -19 4666 
z
" transform="scale(0.015625)"/>
       <path id="DejaVuSans-4d" d="M 628 4666 
L 1569 4666 
L 2759 1491 
L 3956 4666 
L 4897 4666 
L 4897 0 
L 4281 0 
L 4281 4097 
L 3078 897 
L 2444 897 
L 1241 4097 
L 1241 0 
L 628 0 
L 628 4666 
z
" transform="scale(0.015625)"/>
      </defs>
      <use xlink:href="#DejaVuSans-54"/>
      <use xlink:href="#DejaVuSans-4d" x="61.083984"/>
     </g>
    </g>
   </g>
   <g id="matplotlib.axis_2">
    <g id="ytick_1">
     <g id="line2d_7">
      <defs>
       <path id="m8e7a1a0bb9" d="M 0 0 
L -3.5 0 
" style="stroke: #000000; stroke-width: 0.8"/>
      </defs>
      <g>
       <use xlink:href="#m8e7a1a0bb9" x="89.3" y="183.578678" style="stroke: #000000; stroke-width: 0.8"/>
      </g>
     </g>
     <g id="text_8">
      <!-- 0 -->
      <g transform="translate(75.9375 187.377896) scale(0.1 -0.1)">
       <use xlink:href="#DejaVuSans-30"/>
      </g>
     </g>
    </g>
    <g id="ytick_2">
     <g id="line2d_8">
      <g>
       <use xlink:href="#m8e7a1a0bb9" x="89.3" y="157.10223" style="stroke: #000000; stroke-width: 0.8"/>
      </g>
     </g>
     <g id="text_9">
      <!-- 2,000,000 -->
      <g transform="translate(31.40625 160.901449) scale(0.1 -0.1)">
       <defs>
        <path id="DejaVuSans-2c" d="M 750 794 
L 1409 794 
L 1409 256 
L 897 -744 
L 494 -744 
L 750 256 
L 750 794 
z
" transform="scale(0.015625)"/>
       </defs>
       <use xlink:href="#DejaVuSans-32"/>
       <use xlink:href="#DejaVuSans-2c" x="63.623047"/>
       <use xlink:href="#DejaVuSans-30" x="95.410156"/>
       <use xlink:href="#DejaVuSans-30" x="159.033203"/>
       <use xlink:href="#DejaVuSans-30" x="222.65625"/>
       <use xlink:href="#DejaVuSans-2c" x="286.279297"/>
       <use xlink:href="#DejaVuSans-30" x="318.066406"/>
       <use xlink:href="#DejaVuSans-30" x="381.689453"/>
       <use xlink:href="#DejaVuSans-30" x="445.3125"/>
      </g>
     </g>
    </g>
    <g id="ytick_3">
     <g id="line2d_9">
      <g>
       <use xlink:href="#m8e7a1a0bb9" x="89.3" y="130.625783" style="stroke: #000000; stroke-width: 0.8"/>
      </g>
     </g>
     <g id="text_10">
      <!-- 4,000,000 -->
      <g transform="translate(31.40625 134.425001) scale(0.1 -0.1)">
       <use xlink:href="#DejaVuSans-34"/>
       <use xlink:href="#DejaVuSans-2c" x="63.623047"/>
       <use xlink:href="#DejaVuSans-30" x="95.410156"/>
       <use xlink:href="#DejaVuSans-30" x="159.033203"/>
       <use xlink:href="#DejaVuSans-30" x="222.65625"/>
       <use xlink:href="#DejaVuSans-2c" x="286.279297"/>
       <use xlink:href="#DejaVuSans-30" x="318.066406"/>
       <use xlink:href="#DejaVuSans-30" x="381.689453"/>
       <use xlink:href="#DejaVuSans-30" x="445.3125"/>
      </g>
     </g>
    </g>
    <g id="ytick_4">
     <g id="line2d_10">
      <g>
       <use xlink:href="#m8e7a1a0bb9" x="89.3" y="104.149335" style="stroke: #000000; stroke-width: 0.8"/>
      </g>
     </g>
     <g id="text_11">
      <!-- 6,000,000 -->
      <g transform="translate(31.40625 107.948554) scale(0.1 -0.1)">
       <use xlink:href="#DejaVuSans-36"/>
       <use xlink:href="#DejaVuSans-2c" x="63.623047"/>
       <use xlink:href="#DejaVuSans-30" x="95.410156"/>
       <use xlink:href="#DejaVuSans-30" x="159.033203"/>
       <use xlink:href="#DejaVuSans-30" x="222.65625"/>
       <use xlink:href="#DejaVuSans-2c" x="286.279297"/>
       <use xlink:href="#DejaVuSans-30" x="318.066406"/>
       <use xlink:href="#DejaVuSans-30" x="381.689453"/>
       <use xlink:href="#DejaVuSans-30" x="445.3125"/>
      </g>
     </g>
    </g>
    <g id="ytick_5">
     <g id="line2d_11">
      <g>
       <use xlink:href="#m8e7a1a0bb9" x="89.3" y="77.672887" style="stroke: #000000; stroke-width: 0.8"/>
      </g>
     </g>
     <g id="text_12">
      <!-- 8,000,000 -->
      <g transform="translate(31.40625 81.472106) scale(0.1 -0.1)">
       <use xlink:href="#DejaVuSans-38"/>
       <use xlink:href="#DejaVuSans-2c" x="63.623047"/>
       <use xlink:href="#DejaVuSans-30" x="95.410156"/>
       <use xlink:href="#DejaVuSans-30" x="159.033203"/>
       <use xlink:href="#DejaVuSans-30" x="222.65625"/>
       <use xlink:href="#DejaVuSans-2c" x="286.279297"/>
       <use xlink:href="#DejaVuSans-30" x="318.066406"/>
       <use xlink:href="#DejaVuSans-30" x="381.689453"/>
       <use xlink:href="#DejaVuSans-30" x="445.3125"/>
      </g>
     </g>
    </g>
    <g id="ytick_6">
     <g id="line2d_12">
      <g>
       <use xlink:href="#m8e7a1a0bb9" x="89.3" y="51.19644" style="stroke: #000000; stroke-width: 0.8"/>
      </g>
     </g>
     <g id="text_13">
      <!-- 10,000,000 -->
      <g transform="translate(25.04375 54.995659) scale(0.1 -0.1)">
       <use xlink:href="#DejaVuSans-31"/>
       <use xlink:href="#DejaVuSans-30" x="63.623047"/>
       <use xlink:href="#DejaVuSans-2c" x="127.246094"/>
       <use xlink:href="#DejaVuSans-30" x="159.033203"/>
       <use xlink:href="#DejaVuSans-30" x="222.65625"/>
       <use xlink:href="#DejaVuSans-30" x="286.279297"/>
       <use xlink:href="#DejaVuSans-2c" x="349.902344"/>
       <use xlink:href="#DejaVuSans-30" x="381.689453"/>
       <use xlink:href="#DejaVuSans-30" x="445.3125"/>
       <use xlink:href="#DejaVuSans-30" x="508.935547"/>
      </g>
     </g>
    </g>
    <g id="ytick_7">
     <g id="line2d_13">
      <g>
       <use xlink:href="#m8e7a1a0bb9" x="89.3" y="24.719992" style="stroke: #000000; stroke-width: 0.8"/>
      </g>
     </g>
     <g id="text_14">
      <!-- 12,000,000 -->
      <g transform="translate(25.04375 28.519211) scale(0.1 -0.1)">
       <use xlink:href="#DejaVuSans-31"/>
       <use xlink:href="#DejaVuSans-32" x="63.623047"/>
       <use xlink:href="#DejaVuSans-2c" x="127.246094"/>
       <use xlink:href="#DejaVuSans-30" x="159.033203"/>
       <use xlink:href="#DejaVuSans-30" x="222.65625"/>
       <use xlink:href="#DejaVuSans-30" x="286.279297"/>
       <use xlink:href="#DejaVuSans-2c" x="349.902344"/>
       <use xlink:href="#DejaVuSans-30" x="381.689453"/>
       <use xlink:href="#DejaVuSans-30" x="445.3125"/>
       <use xlink:href="#DejaVuSans-30" x="508.935547"/>
      </g>
     </g>
    </g>
    <g id="text_15">
     <!-- Hits -->
     <g transform="translate(18.964063 111.017179) rotate(-90) scale(0.1 -0.1)">
      <defs>
       <path id="DejaVuSans-48" d="M 628 4666 
L 1259 4666 
L 1259 2753 
L 3553 2753 
L 3553 4666 
L 4184 4666 
L 4184 0 
L 3553 0 
L 3553 2222 
L 1259 2222 
L 1259 0 
L 628 0 
L 628 4666 
z
" transform="scale(0.015625)"/>
       <path id="DejaVuSans-69" d="M 603 3500 
L 1178 3500 
L 1178 0 
L 603 0 
L 603 3500 
z
M 603 4863 
L 1178 4863 
L 1178 4134 
L 603 4134 
L 603 4863 
z
" transform="scale(0.015625)"/>
       <path id="DejaVuSans-74" d="M 1172 4494 
L 1172 3500 
L 2356 3500 
L 2356 3053 
L 1172 3053 
L 1172 1153 
Q 1172 725 1289 603 
Q 1406 481 1766 481 
L 2356 481 
L 2356 0 
L 1766 0 
Q 1100 0 847 248 
Q 594 497 594 1153 
L 594 3053 
L 172 3053 
L 172 3500 
L 594 3500 
L 594 4494 
L 1172 4494 
z
" transform="scale(0.015625)"/>
       <path id="DejaVuSans-73" d="M 2834 3397 
L 2834 2853 
Q 2591 2978 2328 3040 
Q 2066 3103 1784 3103 
Q 1356 3103 1142 2972 
Q 928 2841 928 2578 
Q 928 2378 1081 2264 
Q 1234 2150 1697 2047 
L 1894 2003 
Q 2506 1872 2764 1633 
Q 3022 1394 3022 966 
Q 3022 478 2636 193 
Q 2250 -91 1575 -91 
Q 1294 -91 989 -36 
Q 684 19 347 128 
L 347 722 
Q 666 556 975 473 
Q 1284 391 1588 391 
Q 1994 391 2212 530 
Q 2431 669 2431 922 
Q 2431 1156 2273 1281 
Q 2116 1406 1581 1522 
L 1381 1569 
Q 847 1681 609 1914 
Q 372 2147 372 2553 
Q 372 3047 722 3315 
Q 1072 3584 1716 3584 
Q 2034 3584 2315 3537 
Q 2597 3491 2834 3397 
z
" transform="scale(0.015625)"/>
      </defs>
      <use xlink:href="#DejaVuSans-48"/>
      <use xlink:href="#DejaVuSans-69" x="75.195312"/>
      <use xlink:href="#DejaVuSans-74" x="102.978516"/>
      <use xlink:href="#DejaVuSans-73" x="142.1875"/>
     </g>
    </g>
   </g>
   <g id="line2d_14">
    <path d="M 101.641496 183.578678 
L 104.134478 183.578678 
L 106.62746 183.578678 
L 109.120442 183.578678 
L 111.613424 183.57836 
L 114.108874 183.578426 
L 116.601857 183.57742 
L 119.094839 183.573012 
L 121.587821 183.561164 
L 124.080803 183.531285 
L 126.571317 183.44983 
L 129.064299 183.264402 
L 131.557281 182.909353 
L 134.050263 182.319458 
L 136.543245 181.379809 
L 139.036227 179.881242 
L 141.529209 177.605591 
L 144.022191 174.03789 
L 146.515174 168.367959 
L 149.008156 159.551302 
L 151.501138 145.836502 
L 153.99412 126.058595 
L 156.487102 100.005771 
L 158.980084 70.669867 
L 161.473066 43.51827 
L 163.966048 24.719992 
L 166.45903 19.027556 
L 168.952013 26.440961 
L 171.444995 43.783035 
L 173.937977 66.2483 
L 176.430959 88.806234 
L 178.923941 109.03424 
L 181.416923 125.939451 
L 183.909905 139.415963 
L 186.402887 149.688825 
L 188.89587 157.55233 
L 191.388852 163.483054 
L 193.881834 167.997288 
L 196.374816 171.452465 
L 198.867798 174.209987 
L 201.36078 176.272502 
L 203.853762 177.906099 
L 206.346744 179.151816 
L 208.839726 180.089082 
L 211.332709 180.778793 
L 213.825691 181.318913 
L 216.318673 181.72665 
L 218.811655 182.039072 
L 221.304637 182.299468 
L 223.797619 182.505455 
L 226.315284 182.669344 
L 228.808266 182.805168 
L 231.301248 182.917296 
L 233.79423 183.01367 
L 236.287213 183.096012 
L 238.780195 183.162865 
L 241.273177 183.240971 
L 243.766159 183.30094 
L 246.259141 183.35098 
L 248.752123 183.404198 
L 251.245105 183.449764 
L 253.738087 183.487241 
L 256.23107 183.50739 
L 258.724052 183.525473 
L 261.217034 183.540194 
L 263.710016 183.551857 
L 266.202998 183.5589 
L 268.69598 183.56446 
L 271.188962 183.568272 
L 273.681944 183.570417 
L 276.174926 183.572509 
L 278.667909 183.57423 
L 281.160891 183.574812 
L 283.653873 183.576321 
L 286.146855 183.576321 
L 288.639837 183.577327 
L 291.132819 183.577777 
L 293.625801 183.577777 
L 296.118783 183.578148 
L 298.611765 183.578175 
L 301.104748 183.578413 
L 303.59773 183.578545 
L 306.090712 183.578519 
L 308.583694 183.578651 
L 311.076676 183.578625 
L 313.569658 183.578651 
L 316.06264 183.578678 
L 318.555622 183.578651 
L 321.048604 183.578678 
L 323.541587 183.578678 
L 326.034569 183.578678 
L 328.527551 183.578678 
L 331.020533 183.578678 
L 333.513515 183.578678 
L 336.006497 183.578678 
L 338.499479 183.578678 
L 340.992461 183.578678 
L 343.485443 183.578678 
L 345.978426 183.578678 
L 348.471408 183.578678 
" clip-path="url(#p3fbec6d703)" style="fill: none; stroke: #d3d3d3; stroke-width: 1.5; stroke-linecap: square"/>
   </g>
   <g id="line2d_15">
    <path d="M 101.641496 183.578678 
L 104.134478 183.578678 
L 106.62746 183.578678 
L 109.120442 183.578678 
L 111.613424 183.578678 
L 114.108874 183.578678 
L 116.601857 183.578678 
L 119.094839 183.578678 
L 121.587821 183.578678 
L 124.080803 183.578678 
L 126.571317 183.578651 
L 129.064299 183.578678 
L 131.557281 183.578678 
L 134.050263 183.578598 
L 136.543245 183.578678 
L 139.036227 183.578333 
L 141.529209 183.578281 
L 144.022191 183.577566 
L 146.515174 183.577751 
L 149.008156 183.576639 
L 151.501138 183.575977 
L 153.99412 183.573965 
L 156.487102 183.571145 
L 158.980084 183.566472 
L 161.473066 183.562223 
L 163.966048 183.55473 
L 166.45903 183.548653 
L 168.952013 183.545159 
L 171.444995 183.538884 
L 173.937977 183.533906 
L 176.430959 183.529034 
L 178.923941 183.521594 
L 181.416923 183.517464 
L 183.909905 183.508846 
L 186.402887 183.507456 
L 188.89587 183.504822 
L 191.388852 183.500201 
L 193.881834 183.489982 
L 196.374816 183.480807 
L 198.867798 183.470058 
L 201.36078 183.463042 
L 203.853762 183.455139 
L 206.346744 183.448374 
L 208.839726 183.43875 
L 211.332709 183.432528 
L 213.825691 183.427894 
L 216.318673 183.423658 
L 218.811655 183.418363 
L 221.304637 183.409626 
L 223.797619 183.407772 
L 226.315284 183.399962 
L 228.808266 183.400094 
L 231.301248 183.399432 
L 233.79423 183.399035 
L 236.287213 183.406846 
L 238.780195 183.410949 
L 241.273177 183.419951 
L 243.766159 183.419157 
L 246.259141 183.428159 
L 248.752123 183.434513 
L 251.245105 183.444574 
L 253.738087 183.448718 
L 256.23107 183.456648 
L 258.724052 183.466378 
L 261.217034 183.466047 
L 263.710016 183.471978 
L 266.202998 183.475817 
L 268.69598 183.484117 
L 271.188962 183.490776 
L 273.681944 183.496548 
L 276.174926 183.496865 
L 278.667909 183.504438 
L 281.160891 183.510143 
L 283.653873 183.515889 
L 286.146855 183.521012 
L 288.639837 183.524004 
L 291.132819 183.530252 
L 293.625801 183.535653 
L 296.118783 183.53793 
L 298.611765 183.543543 
L 301.104748 183.545715 
L 303.59773 183.548971 
L 306.090712 183.551645 
L 308.583694 183.552466 
L 311.076676 183.553896 
L 313.569658 183.556226 
L 316.06264 183.559641 
L 318.555622 183.559826 
L 321.048604 183.56258 
L 323.541587 183.565122 
L 326.034569 183.56769 
L 328.527551 183.570126 
L 331.020533 183.573435 
L 333.513515 183.575951 
L 336.006497 183.576957 
L 338.499479 183.578095 
L 340.992461 183.578598 
L 343.485443 183.578651 
L 345.978426 183.578678 
L 348.471408 183.578678 
" clip-path="url(#p3fbec6d703)" style="fill: none; stroke: #000000; stroke-width: 1.5; stroke-linecap: square"/>
   </g>
   <g id="patch_3">
    <path d="M 89.3 191.806234 
L 89.3 10.8 
" style="fill: none; stroke: #000000; stroke-width: 0.8; stroke-linejoin: miter; stroke-linecap: square"/>
   </g>
   <g id="patch_4">
    <path d="M 360.812903 191.806234 
L 360.812903 10.8 
" style="fill: none; stroke: #000000; stroke-width: 0.8; stroke-linejoin: miter; stroke-linecap: square"/>
   </g>
   <g id="patch_5">
    <path d="M 89.3 191.806234 
L 360.812903 191.806234 
" style="fill: none; stroke: #000000; stroke-width: 0.8; stroke-linejoin: miter; stroke-linecap: square"/>
   </g>
   <g id="patch_6">
    <path d="M 89.3 10.8 
L 360.812903 10.8 
" style="fill: none; stroke: #000000; stroke-width: 0.8; stroke-linejoin: miter; stroke-linecap: square"/>
   </g>
   <g id="legend_1">
    <g id="patch_7">
     <path d="M 304.641028 48.15625 
L 353.812903 48.15625 
Q 355.812903 48.15625 355.812903 46.15625 
L 355.812903 17.8 
Q 355.812903 15.8 353.812903 15.8 
L 304.641028 15.8 
Q 302.641028 15.8 302.641028 17.8 
L 302.641028 46.15625 
Q 302.641028 48.15625 304.641028 48.15625 
z
" style="fill: #ffffff; opacity: 0.8; stroke: #cccccc; stroke-linejoin: miter"/>
    </g>
    <g id="line2d_16">
     <path d="M 306.641028 23.898438 
L 316.641028 23.898438 
L 326.641028 23.898438 
" style="fill: none; stroke: #d3d3d3; stroke-width: 1.5; stroke-linecap: square"/>
    </g>
    <g id="text_16">
     <!-- TPs -->
     <g transform="translate(334.641028 27.398438) scale(0.1 -0.1)">
      <defs>
       <path id="DejaVuSans-50" d="M 1259 4147 
L 1259 2394 
L 2053 2394 
Q 2494 2394 2734 2622 
Q 2975 2850 2975 3272 
Q 2975 3691 2734 3919 
Q 2494 4147 2053 4147 
L 1259 4147 
z
M 628 4666 
L 2053 4666 
Q 2838 4666 3239 4311 
Q 3641 3956 3641 3272 
Q 3641 2581 3239 2228 
Q 2838 1875 2053 1875 
L 1259 1875 
L 1259 0 
L 628 0 
L 628 4666 
z
" transform="scale(0.015625)"/>
      </defs>
      <use xlink:href="#DejaVuSans-54"/>
      <use xlink:href="#DejaVuSans-50" x="61.083984"/>
      <use xlink:href="#DejaVuSans-73" x="119.636719"/>
     </g>
    </g>
    <g id="line2d_17">
     <path d="M 306.641028 38.576562 
L 316.641028 38.576562 
L 326.641028 38.576562 
" style="fill: none; stroke: #000000; stroke-width: 1.5; stroke-linecap: square"/>
    </g>
    <g id="text_17">
     <!-- FPs -->
     <g transform="translate(334.641028 42.076562) scale(0.1 -0.1)">
      <defs>
       <path id="DejaVuSans-46" d="M 628 4666 
L 3309 4666 
L 3309 4134 
L 1259 4134 
L 1259 2759 
L 3109 2759 
L 3109 2228 
L 1259 2228 
L 1259 0 
L 628 0 
L 628 4666 
z
" transform="scale(0.015625)"/>
      </defs>
      <use xlink:href="#DejaVuSans-46"/>
      <use xlink:href="#DejaVuSans-50" x="57.519531"/>
      <use xlink:href="#DejaVuSans-73" x="116.072266"/>
     </g>
    </g>
   </g>
  </g>
 </g>
 <defs>
  <clipPath id="p3fbec6d703">
   <rect x="89.3" y="10.8" width="271.512903" height="181.006234"/>
  </clipPath>
 </defs>
</svg>
