<?xml version="1.0" encoding="utf-8" standalone="no"?>
<!DOCTYPE svg PUBLIC "-//W3C//DTD SVG 1.1//EN"
  "http://www.w3.org/Graphics/SVG/1.1/DTD/svg11.dtd">
<svg xmlns:xlink="http://www.w3.org/1999/xlink" width="371.612903pt" height="233.766234pt" viewBox="0 0 371.612903 233.766234" xmlns="http://www.w3.org/2000/svg" version="1.1">
 <metadata>
  <rdf:RDF xmlns:dc="http://purl.org/dc/elements/1.1/" xmlns:cc="http://creativecommons.org/ns#" xmlns:rdf="http://www.w3.org/1999/02/22-rdf-syntax-ns#">
   <cc:Work>
    <dc:type rdf:resource="http://purl.org/dc/dcmitype/StillImage"/>
    <dc:date>2025-07-15T07:51:30.271999</dc:date>
    <dc:format>image/svg+xml</dc:format>
    <dc:creator>
     <cc:Agent>
      <dc:title>Matplotlib v3.9.2, https://matplotlib.org/</dc:title>
     </cc:Agent>
    </dc:creator>
   </cc:Work>
  </rdf:RDF>
 </metadata>
 <defs>
  <style type="text/css">*{stroke-linejoin: round; stroke-linecap: butt}</style>
 </defs>
 <g id="figure_1">
  <g id="patch_1">
   <path d="M 0 233.766234 
L 371.612903 233.766234 
L 371.612903 0 
L 0 0 
z
" style="fill: #ffffff"/>
  </g>
  <g id="axes_1">
   <g id="patch_2">
    <path d="M 73.37 191.806234 
L 360.812903 191.806234 
L 360.812903 14.76 
L 73.37 14.76 
z
" style="fill: #ffffff"/>
   </g>
   <g id="PolyCollection_1">
    <path d="M 86.435587 191.806234 
L 86.435587 191.806234 
L 89.074835 191.806234 
L 91.714083 191.806234 
L 94.353332 191.806234 
L 96.99258 191.763743 
L 99.634442 191.772595 
L 102.27369 191.63804 
L 104.912939 191.048476 
L 107.552187 189.463912 
L 110.191436 185.467979 
L 112.828071 174.574324 
L 115.46732 149.775458 
L 118.106568 102.291658 
L 120.745817 23.399856 
L 123.385065 -102.267561 
L 126.024314 -302.683897 
L 128.663562 -607.026373 
L 131.302811 -1084.165973 
L 133.942059 -1842.454992 
L 136.581308 -3021.582909 
L 139.220556 -4855.781891 
L 141.859804 -7500.852623 
L 144.499053 -10985.122504 
L 147.138301 -14908.467044 
L 149.77755 -18539.685299 
L 152.416798 -21053.741818 
L 155.056047 -21815.040623 
L 157.695295 -20823.581714 
L 160.334544 -18504.276052 
L 162.973792 -15499.801465 
L 165.613041 -12482.933642 
L 168.252289 -9777.66719 
L 170.891538 -7516.786784 
L 173.530786 -5714.456125 
L 176.170035 -4340.577351 
L 178.809283 -3288.922722 
L 181.448532 -2495.755595 
L 184.08778 -1892.027938 
L 186.727029 -1429.937268 
L 189.366277 -1061.149963 
L 192.005526 -785.31193 
L 194.644774 -566.836878 
L 197.284022 -400.236372 
L 199.923271 -274.887638 
L 202.562519 -182.646551 
L 205.201768 -110.411687 
L 207.841016 -55.881447 
L 210.480265 -14.098536 
L 213.119513 20.726458 
L 215.758762 48.274852 
L 218.424141 70.193176 
L 221.06339 88.358119 
L 223.702638 103.353935 
L 226.341887 116.242901 
L 228.981135 127.255177 
L 231.620384 136.196012 
L 234.259632 146.64174 
L 236.898881 154.661934 
L 239.538129 161.354282 
L 242.177378 168.47154 
L 244.816626 174.565472 
L 247.455875 179.57765 
L 250.095123 182.272294 
L 252.734372 184.690746 
L 255.37362 186.6595 
L 258.012869 188.219277 
L 260.652117 189.161163 
L 263.291366 189.904757 
L 265.930614 190.41465 
L 268.569862 190.701465 
L 271.209111 190.981198 
L 273.848359 191.211358 
L 276.487608 191.289259 
L 279.126856 191.491091 
L 281.766105 191.491091 
L 284.405353 191.625647 
L 287.044602 191.685842 
L 289.68385 191.685842 
L 292.323099 191.735415 
L 294.962347 191.738956 
L 297.601596 191.770825 
L 300.240844 191.788529 
L 302.880093 191.784988 
L 305.519341 191.802693 
L 308.15859 191.799152 
L 310.797838 191.802693 
L 313.437087 191.806234 
L 316.076335 191.802693 
L 318.715583 191.806234 
L 321.354832 191.806234 
L 323.99408 191.806234 
L 326.633329 191.806234 
L 329.272577 191.806234 
L 331.911826 191.806234 
L 334.551074 191.806234 
L 337.190323 191.806234 
L 339.829571 191.806234 
L 342.46882 191.806234 
L 345.108068 191.806234 
L 347.747317 191.806234 
L 347.747317 191.806234 
L 347.747317 191.806234 
L 345.108068 191.806234 
L 342.46882 191.806234 
L 339.829571 191.806234 
L 337.190323 191.806234 
L 334.551074 191.806234 
L 331.911826 191.806234 
L 329.272577 191.806234 
L 326.633329 191.806234 
L 323.99408 191.806234 
L 321.354832 191.806234 
L 318.715583 191.806234 
L 316.076335 191.806234 
L 313.437087 191.806234 
L 310.797838 191.806234 
L 308.15859 191.806234 
L 305.519341 191.806234 
L 302.880093 191.806234 
L 300.240844 191.806234 
L 297.601596 191.806234 
L 294.962347 191.806234 
L 292.323099 191.806234 
L 289.68385 191.806234 
L 287.044602 191.806234 
L 284.405353 191.806234 
L 281.766105 191.806234 
L 279.126856 191.806234 
L 276.487608 191.806234 
L 273.848359 191.806234 
L 271.209111 191.806234 
L 268.569862 191.806234 
L 265.930614 191.806234 
L 263.291366 191.806234 
L 260.652117 191.806234 
L 258.012869 191.806234 
L 255.37362 191.806234 
L 252.734372 191.806234 
L 250.095123 191.806234 
L 247.455875 191.806234 
L 244.816626 191.806234 
L 242.177378 191.806234 
L 239.538129 191.806234 
L 236.898881 191.806234 
L 234.259632 191.806234 
L 231.620384 191.806234 
L 228.981135 191.806234 
L 226.341887 191.806234 
L 223.702638 191.806234 
L 221.06339 191.806234 
L 218.424141 191.806234 
L 215.758762 191.806234 
L 213.119513 191.806234 
L 210.480265 191.806234 
L 207.841016 191.806234 
L 205.201768 191.806234 
L 202.562519 191.806234 
L 199.923271 191.806234 
L 197.284022 191.806234 
L 194.644774 191.806234 
L 192.005526 191.806234 
L 189.366277 191.806234 
L 186.727029 191.806234 
L 184.08778 191.806234 
L 181.448532 191.806234 
L 178.809283 191.806234 
L 176.170035 191.806234 
L 173.530786 191.806234 
L 170.891538 191.806234 
L 168.252289 191.806234 
L 165.613041 191.806234 
L 162.973792 191.806234 
L 160.334544 191.806234 
L 157.695295 191.806234 
L 155.056047 191.806234 
L 152.416798 191.806234 
L 149.77755 191.806234 
L 147.138301 191.806234 
L 144.499053 191.806234 
L 141.859804 191.806234 
L 139.220556 191.806234 
L 136.581308 191.806234 
L 133.942059 191.806234 
L 131.302811 191.806234 
L 128.663562 191.806234 
L 126.024314 191.806234 
L 123.385065 191.806234 
L 120.745817 191.806234 
L 118.106568 191.806234 
L 115.46732 191.806234 
L 112.828071 191.806234 
L 110.191436 191.806234 
L 107.552187 191.806234 
L 104.912939 191.806234 
L 102.27369 191.806234 
L 99.634442 191.806234 
L 96.99258 191.806234 
L 94.353332 191.806234 
L 91.714083 191.806234 
L 89.074835 191.806234 
L 86.435587 191.806234 
z
" clip-path="url(#pde8666eb02)" style="fill: #d3d3d3; stroke: #d3d3d3"/>
   </g>
   <g id="matplotlib.axis_1">
    <g id="xtick_1">
     <g id="line2d_1">
      <defs>
       <path id="m2774545a5f" d="M 0 0 
L 0 3.5 
" style="stroke: #000000; stroke-width: 0.8"/>
      </defs>
      <g>
       <use xlink:href="#m2774545a5f" x="86.435587" y="191.806234" style="stroke: #000000; stroke-width: 0.8"/>
      </g>
     </g>
     <g id="text_1">
      <!-- 0.0 -->
      <g transform="translate(78.484024 206.404671) scale(0.1 -0.1)">
       <defs>
        <path id="DejaVuSans-30" d="M 2034 4250 
Q 1547 4250 1301 3770 
Q 1056 3291 1056 2328 
Q 1056 1369 1301 889 
Q 1547 409 2034 409 
Q 2525 409 2770 889 
Q 3016 1369 3016 2328 
Q 3016 3291 2770 3770 
Q 2525 4250 2034 4250 
z
M 2034 4750 
Q 2819 4750 3233 4129 
Q 3647 3509 3647 2328 
Q 3647 1150 3233 529 
Q 2819 -91 2034 -91 
Q 1250 -91 836 529 
Q 422 1150 422 2328 
Q 422 3509 836 4129 
Q 1250 4750 2034 4750 
z
" transform="scale(0.015625)"/>
        <path id="DejaVuSans-2e" d="M 684 794 
L 1344 794 
L 1344 0 
L 684 0 
L 684 794 
z
" transform="scale(0.015625)"/>
       </defs>
       <use xlink:href="#DejaVuSans-30"/>
       <use xlink:href="#DejaVuSans-2e" x="63.623047"/>
       <use xlink:href="#DejaVuSans-30" x="95.410156"/>
      </g>
     </g>
    </g>
    <g id="xtick_2">
     <g id="line2d_2">
      <g>
       <use xlink:href="#m2774545a5f" x="138.697933" y="191.806234" style="stroke: #000000; stroke-width: 0.8"/>
      </g>
     </g>
     <g id="text_2">
      <!-- 0.2 -->
      <g transform="translate(130.74637 206.404671) scale(0.1 -0.1)">
       <defs>
        <path id="DejaVuSans-32" d="M 1228 531 
L 3431 531 
L 3431 0 
L 469 0 
L 469 531 
Q 828 903 1448 1529 
Q 2069 2156 2228 2338 
Q 2531 2678 2651 2914 
Q 2772 3150 2772 3378 
Q 2772 3750 2511 3984 
Q 2250 4219 1831 4219 
Q 1534 4219 1204 4116 
Q 875 4013 500 3803 
L 500 4441 
Q 881 4594 1212 4672 
Q 1544 4750 1819 4750 
Q 2544 4750 2975 4387 
Q 3406 4025 3406 3419 
Q 3406 3131 3298 2873 
Q 3191 2616 2906 2266 
Q 2828 2175 2409 1742 
Q 1991 1309 1228 531 
z
" transform="scale(0.015625)"/>
       </defs>
       <use xlink:href="#DejaVuSans-30"/>
       <use xlink:href="#DejaVuSans-2e" x="63.623047"/>
       <use xlink:href="#DejaVuSans-32" x="95.410156"/>
      </g>
     </g>
    </g>
    <g id="xtick_3">
     <g id="line2d_3">
      <g>
       <use xlink:href="#m2774545a5f" x="190.960279" y="191.806234" style="stroke: #000000; stroke-width: 0.8"/>
      </g>
     </g>
     <g id="text_3">
      <!-- 0.4 -->
      <g transform="translate(183.008716 206.404671) scale(0.1 -0.1)">
       <defs>
        <path id="DejaVuSans-34" d="M 2419 4116 
L 825 1625 
L 2419 1625 
L 2419 4116 
z
M 2253 4666 
L 3047 4666 
L 3047 1625 
L 3713 1625 
L 3713 1100 
L 3047 1100 
L 3047 0 
L 2419 0 
L 2419 1100 
L 313 1100 
L 313 1709 
L 2253 4666 
z
" transform="scale(0.015625)"/>
       </defs>
       <use xlink:href="#DejaVuSans-30"/>
       <use xlink:href="#DejaVuSans-2e" x="63.623047"/>
       <use xlink:href="#DejaVuSans-34" x="95.410156"/>
      </g>
     </g>
    </g>
    <g id="xtick_4">
     <g id="line2d_4">
      <g>
       <use xlink:href="#m2774545a5f" x="243.222625" y="191.806234" style="stroke: #000000; stroke-width: 0.8"/>
      </g>
     </g>
     <g id="text_4">
      <!-- 0.6 -->
      <g transform="translate(235.271062 206.404671) scale(0.1 -0.1)">
       <defs>
        <path id="DejaVuSans-36" d="M 2113 2584 
Q 1688 2584 1439 2293 
Q 1191 2003 1191 1497 
Q 1191 994 1439 701 
Q 1688 409 2113 409 
Q 2538 409 2786 701 
Q 3034 994 3034 1497 
Q 3034 2003 2786 2293 
Q 2538 2584 2113 2584 
z
M 3366 4563 
L 3366 3988 
Q 3128 4100 2886 4159 
Q 2644 4219 2406 4219 
Q 1781 4219 1451 3797 
Q 1122 3375 1075 2522 
Q 1259 2794 1537 2939 
Q 1816 3084 2150 3084 
Q 2853 3084 3261 2657 
Q 3669 2231 3669 1497 
Q 3669 778 3244 343 
Q 2819 -91 2113 -91 
Q 1303 -91 875 529 
Q 447 1150 447 2328 
Q 447 3434 972 4092 
Q 1497 4750 2381 4750 
Q 2619 4750 2861 4703 
Q 3103 4656 3366 4563 
z
" transform="scale(0.015625)"/>
       </defs>
       <use xlink:href="#DejaVuSans-30"/>
       <use xlink:href="#DejaVuSans-2e" x="63.623047"/>
       <use xlink:href="#DejaVuSans-36" x="95.410156"/>
      </g>
     </g>
    </g>
    <g id="xtick_5">
     <g id="line2d_5">
      <g>
       <use xlink:href="#m2774545a5f" x="295.484971" y="191.806234" style="stroke: #000000; stroke-width: 0.8"/>
      </g>
     </g>
     <g id="text_5">
      <!-- 0.8 -->
      <g transform="translate(287.533408 206.404671) scale(0.1 -0.1)">
       <defs>
        <path id="DejaVuSans-38" d="M 2034 2216 
Q 1584 2216 1326 1975 
Q 1069 1734 1069 1313 
Q 1069 891 1326 650 
Q 1584 409 2034 409 
Q 2484 409 2743 651 
Q 3003 894 3003 1313 
Q 3003 1734 2745 1975 
Q 2488 2216 2034 2216 
z
M 1403 2484 
Q 997 2584 770 2862 
Q 544 3141 544 3541 
Q 544 4100 942 4425 
Q 1341 4750 2034 4750 
Q 2731 4750 3128 4425 
Q 3525 4100 3525 3541 
Q 3525 3141 3298 2862 
Q 3072 2584 2669 2484 
Q 3125 2378 3379 2068 
Q 3634 1759 3634 1313 
Q 3634 634 3220 271 
Q 2806 -91 2034 -91 
Q 1263 -91 848 271 
Q 434 634 434 1313 
Q 434 1759 690 2068 
Q 947 2378 1403 2484 
z
M 1172 3481 
Q 1172 3119 1398 2916 
Q 1625 2713 2034 2713 
Q 2441 2713 2670 2916 
Q 2900 3119 2900 3481 
Q 2900 3844 2670 4047 
Q 2441 4250 2034 4250 
Q 1625 4250 1398 4047 
Q 1172 3844 1172 3481 
z
" transform="scale(0.015625)"/>
       </defs>
       <use xlink:href="#DejaVuSans-30"/>
       <use xlink:href="#DejaVuSans-2e" x="63.623047"/>
       <use xlink:href="#DejaVuSans-38" x="95.410156"/>
      </g>
     </g>
    </g>
    <g id="xtick_6">
     <g id="line2d_6">
      <g>
       <use xlink:href="#m2774545a5f" x="347.747317" y="191.806234" style="stroke: #000000; stroke-width: 0.8"/>
      </g>
     </g>
     <g id="text_6">
      <!-- 1.0 -->
      <g transform="translate(339.795754 206.404671) scale(0.1 -0.1)">
       <defs>
        <path id="DejaVuSans-31" d="M 794 531 
L 1825 531 
L 1825 4091 
L 703 3866 
L 703 4441 
L 1819 4666 
L 2450 4666 
L 2450 531 
L 3481 531 
L 3481 0 
L 794 0 
L 794 531 
z
" transform="scale(0.015625)"/>
       </defs>
       <use xlink:href="#DejaVuSans-31"/>
       <use xlink:href="#DejaVuSans-2e" x="63.623047"/>
       <use xlink:href="#DejaVuSans-30" x="95.410156"/>
      </g>
     </g>
    </g>
    <g id="text_7">
     <!-- TM -->
     <g transform="translate(209.723483 220.082796) scale(0.1 -0.1)">
      <defs>
       <path id="DejaVuSans-54" d="M -19 4666 
L 3928 4666 
L 3928 4134 
L 2272 4134 
L 2272 0 
L 1638 0 
L 1638 4134 
L -19 4134 
L -19 4666 
z
" transform="scale(0.015625)"/>
       <path id="DejaVuSans-4d" d="M 628 4666 
L 1569 4666 
L 2759 1491 
L 3956 4666 
L 4897 4666 
L 4897 0 
L 4281 0 
L 4281 4097 
L 3078 897 
L 2444 897 
L 1241 4097 
L 1241 0 
L 628 0 
L 628 4666 
z
" transform="scale(0.015625)"/>
      </defs>
      <use xlink:href="#DejaVuSans-54"/>
      <use xlink:href="#DejaVuSans-4d" x="61.083984"/>
     </g>
    </g>
   </g>
   <g id="matplotlib.axis_2">
    <g id="ytick_1">
     <g id="line2d_7">
      <defs>
       <path id="m0585509107" d="M 0 0 
L -3.5 0 
" style="stroke: #000000; stroke-width: 0.8"/>
      </defs>
      <g>
       <use xlink:href="#m0585509107" x="73.37" y="191.806234" style="stroke: #000000; stroke-width: 0.8"/>
      </g>
     </g>
     <g id="text_8">
      <!-- 0 -->
      <g transform="translate(60.0075 195.605453) scale(0.1 -0.1)">
       <use xlink:href="#DejaVuSans-30"/>
      </g>
     </g>
    </g>
    <g id="ytick_2">
     <g id="line2d_8">
      <g>
       <use xlink:href="#m0585509107" x="73.37" y="156.396987" style="stroke: #000000; stroke-width: 0.8"/>
      </g>
     </g>
     <g id="text_9">
      <!-- 20,000 -->
      <g transform="translate(31.379375 160.196206) scale(0.1 -0.1)">
       <defs>
        <path id="DejaVuSans-2c" d="M 750 794 
L 1409 794 
L 1409 256 
L 897 -744 
L 494 -744 
L 750 256 
L 750 794 
z
" transform="scale(0.015625)"/>
       </defs>
       <use xlink:href="#DejaVuSans-32"/>
       <use xlink:href="#DejaVuSans-30" x="63.623047"/>
       <use xlink:href="#DejaVuSans-2c" x="127.246094"/>
       <use xlink:href="#DejaVuSans-30" x="159.033203"/>
       <use xlink:href="#DejaVuSans-30" x="222.65625"/>
       <use xlink:href="#DejaVuSans-30" x="286.279297"/>
      </g>
     </g>
    </g>
    <g id="ytick_3">
     <g id="line2d_9">
      <g>
       <use xlink:href="#m0585509107" x="73.37" y="120.98774" style="stroke: #000000; stroke-width: 0.8"/>
      </g>
     </g>
     <g id="text_10">
      <!-- 40,000 -->
      <g transform="translate(31.379375 124.786959) scale(0.1 -0.1)">
       <use xlink:href="#DejaVuSans-34"/>
       <use xlink:href="#DejaVuSans-30" x="63.623047"/>
       <use xlink:href="#DejaVuSans-2c" x="127.246094"/>
       <use xlink:href="#DejaVuSans-30" x="159.033203"/>
       <use xlink:href="#DejaVuSans-30" x="222.65625"/>
       <use xlink:href="#DejaVuSans-30" x="286.279297"/>
      </g>
     </g>
    </g>
    <g id="ytick_4">
     <g id="line2d_10">
      <g>
       <use xlink:href="#m0585509107" x="73.37" y="85.578494" style="stroke: #000000; stroke-width: 0.8"/>
      </g>
     </g>
     <g id="text_11">
      <!-- 60,000 -->
      <g transform="translate(31.379375 89.377712) scale(0.1 -0.1)">
       <use xlink:href="#DejaVuSans-36"/>
       <use xlink:href="#DejaVuSans-30" x="63.623047"/>
       <use xlink:href="#DejaVuSans-2c" x="127.246094"/>
       <use xlink:href="#DejaVuSans-30" x="159.033203"/>
       <use xlink:href="#DejaVuSans-30" x="222.65625"/>
       <use xlink:href="#DejaVuSans-30" x="286.279297"/>
      </g>
     </g>
    </g>
    <g id="ytick_5">
     <g id="line2d_11">
      <g>
       <use xlink:href="#m0585509107" x="73.37" y="50.169247" style="stroke: #000000; stroke-width: 0.8"/>
      </g>
     </g>
     <g id="text_12">
      <!-- 80,000 -->
      <g transform="translate(31.379375 53.968466) scale(0.1 -0.1)">
       <use xlink:href="#DejaVuSans-38"/>
       <use xlink:href="#DejaVuSans-30" x="63.623047"/>
       <use xlink:href="#DejaVuSans-2c" x="127.246094"/>
       <use xlink:href="#DejaVuSans-30" x="159.033203"/>
       <use xlink:href="#DejaVuSans-30" x="222.65625"/>
       <use xlink:href="#DejaVuSans-30" x="286.279297"/>
      </g>
     </g>
    </g>
    <g id="ytick_6">
     <g id="line2d_12">
      <g>
       <use xlink:href="#m0585509107" x="73.37" y="14.76" style="stroke: #000000; stroke-width: 0.8"/>
      </g>
     </g>
     <g id="text_13">
      <!-- 100,000 -->
      <g transform="translate(25.016875 18.559219) scale(0.1 -0.1)">
       <use xlink:href="#DejaVuSans-31"/>
       <use xlink:href="#DejaVuSans-30" x="63.623047"/>
       <use xlink:href="#DejaVuSans-30" x="127.246094"/>
       <use xlink:href="#DejaVuSans-2c" x="190.869141"/>
       <use xlink:href="#DejaVuSans-30" x="222.65625"/>
       <use xlink:href="#DejaVuSans-30" x="286.279297"/>
       <use xlink:href="#DejaVuSans-30" x="349.902344"/>
      </g>
     </g>
    </g>
    <g id="text_14">
     <!-- Hits -->
     <g transform="translate(18.937188 112.997179) rotate(-90) scale(0.1 -0.1)">
      <defs>
       <path id="DejaVuSans-48" d="M 628 4666 
L 1259 4666 
L 1259 2753 
L 3553 2753 
L 3553 4666 
L 4184 4666 
L 4184 0 
L 3553 0 
L 3553 2222 
L 1259 2222 
L 1259 0 
L 628 0 
L 628 4666 
z
" transform="scale(0.015625)"/>
       <path id="DejaVuSans-69" d="M 603 3500 
L 1178 3500 
L 1178 0 
L 603 0 
L 603 3500 
z
M 603 4863 
L 1178 4863 
L 1178 4134 
L 603 4134 
L 603 4863 
z
" transform="scale(0.015625)"/>
       <path id="DejaVuSans-74" d="M 1172 4494 
L 1172 3500 
L 2356 3500 
L 2356 3053 
L 1172 3053 
L 1172 1153 
Q 1172 725 1289 603 
Q 1406 481 1766 481 
L 2356 481 
L 2356 0 
L 1766 0 
Q 1100 0 847 248 
Q 594 497 594 1153 
L 594 3053 
L 172 3053 
L 172 3500 
L 594 3500 
L 594 4494 
L 1172 4494 
z
" transform="scale(0.015625)"/>
       <path id="DejaVuSans-73" d="M 2834 3397 
L 2834 2853 
Q 2591 2978 2328 3040 
Q 2066 3103 1784 3103 
Q 1356 3103 1142 2972 
Q 928 2841 928 2578 
Q 928 2378 1081 2264 
Q 1234 2150 1697 2047 
L 1894 2003 
Q 2506 1872 2764 1633 
Q 3022 1394 3022 966 
Q 3022 478 2636 193 
Q 2250 -91 1575 -91 
Q 1294 -91 989 -36 
Q 684 19 347 128 
L 347 722 
Q 666 556 975 473 
Q 1284 391 1588 391 
Q 1994 391 2212 530 
Q 2431 669 2431 922 
Q 2431 1156 2273 1281 
Q 2116 1406 1581 1522 
L 1381 1569 
Q 847 1681 609 1914 
Q 372 2147 372 2553 
Q 372 3047 722 3315 
Q 1072 3584 1716 3584 
Q 2034 3584 2315 3537 
Q 2597 3491 2834 3397 
z
" transform="scale(0.015625)"/>
      </defs>
      <use xlink:href="#DejaVuSans-48"/>
      <use xlink:href="#DejaVuSans-69" x="75.195312"/>
      <use xlink:href="#DejaVuSans-74" x="102.978516"/>
      <use xlink:href="#DejaVuSans-73" x="142.1875"/>
     </g>
    </g>
   </g>
   <g id="line2d_13">
    <path d="M 86.435587 191.806234 
L 89.074835 191.806234 
L 91.714083 191.806234 
L 94.353332 191.806234 
L 96.99258 191.763743 
L 99.634442 191.772595 
L 102.27369 191.63804 
L 104.912939 191.048476 
L 107.552187 189.463912 
L 110.191436 185.467979 
L 112.828071 174.574324 
L 115.46732 149.775458 
L 118.106568 102.291658 
L 120.745817 23.399856 
L 121.258259 -1 
M 211.472951 -1 
L 213.119513 20.726458 
L 215.758762 48.274852 
L 218.424141 70.193176 
L 221.06339 88.358119 
L 223.702638 103.353935 
L 226.341887 116.242901 
L 228.981135 127.255177 
L 231.620384 136.196012 
L 234.259632 146.64174 
L 236.898881 154.661934 
L 239.538129 161.354282 
L 242.177378 168.47154 
L 244.816626 174.565472 
L 247.455875 179.57765 
L 250.095123 182.272294 
L 252.734372 184.690746 
L 255.37362 186.6595 
L 258.012869 188.219277 
L 260.652117 189.161163 
L 263.291366 189.904757 
L 265.930614 190.41465 
L 268.569862 190.701465 
L 271.209111 190.981198 
L 273.848359 191.211358 
L 276.487608 191.289259 
L 279.126856 191.491091 
L 281.766105 191.491091 
L 284.405353 191.625647 
L 287.044602 191.685842 
L 289.68385 191.685842 
L 292.323099 191.735415 
L 294.962347 191.738956 
L 297.601596 191.770825 
L 300.240844 191.788529 
L 302.880093 191.784988 
L 305.519341 191.802693 
L 308.15859 191.799152 
L 310.797838 191.802693 
L 313.437087 191.806234 
L 316.076335 191.802693 
L 318.715583 191.806234 
L 321.354832 191.806234 
L 323.99408 191.806234 
L 326.633329 191.806234 
L 329.272577 191.806234 
L 331.911826 191.806234 
L 334.551074 191.806234 
L 337.190323 191.806234 
L 339.829571 191.806234 
L 342.46882 191.806234 
L 345.108068 191.806234 
L 347.747317 191.806234 
" clip-path="url(#pde8666eb02)" style="fill: none; stroke: #d3d3d3; stroke-width: 1.5; stroke-linecap: square"/>
   </g>
   <g id="line2d_14">
    <path d="M 86.435587 191.806234 
L 89.074835 191.806234 
L 91.714083 191.806234 
L 94.353332 191.806234 
L 96.99258 191.806234 
L 99.634442 191.806234 
L 102.27369 191.806234 
L 104.912939 191.806234 
L 107.552187 191.806234 
L 110.191436 191.806234 
L 112.828071 191.802693 
L 115.46732 191.806234 
L 118.106568 191.806234 
L 120.745817 191.795611 
L 123.385065 191.806234 
L 126.024314 191.760202 
L 128.663562 191.75312 
L 131.302811 191.657515 
L 133.942059 191.682301 
L 136.581308 191.533583 
L 139.220556 191.445059 
L 141.859804 191.175949 
L 144.499053 190.798841 
L 147.138301 190.173867 
L 149.77755 189.605549 
L 152.416798 188.603467 
L 155.056047 187.790825 
L 157.695295 187.323423 
L 160.334544 186.484224 
L 162.973792 185.81853 
L 165.613041 185.167 
L 168.252289 184.172 
L 170.891538 183.619616 
L 173.530786 182.467045 
L 176.170035 182.281146 
L 178.809283 181.928824 
L 181.448532 181.310933 
L 184.08778 179.944136 
L 186.727029 178.717206 
L 189.366277 177.27959 
L 192.005526 176.341245 
L 194.644774 175.284279 
L 197.284022 174.379573 
L 199.923271 173.092447 
L 202.562519 172.26033 
L 205.201768 171.640668 
L 207.841016 171.07412 
L 210.480265 170.365935 
L 213.119513 169.19743 
L 215.758762 168.949565 
L 218.424141 167.904992 
L 221.06339 167.922697 
L 223.702638 167.834174 
L 226.341887 167.78106 
L 228.981135 168.825633 
L 231.620384 169.374476 
L 234.259632 170.57839 
L 236.898881 170.472163 
L 239.538129 171.676077 
L 242.177378 172.525899 
L 244.816626 173.87145 
L 247.455875 174.425605 
L 250.095123 175.486112 
L 252.734372 176.787402 
L 255.37362 176.74314 
L 258.012869 177.536307 
L 260.652117 178.049741 
L 263.291366 179.159821 
L 265.930614 180.050364 
L 268.569862 180.822285 
L 271.209111 180.864777 
L 273.848359 181.877481 
L 276.487608 182.64055 
L 279.126856 183.408931 
L 281.766105 184.0941 
L 284.405353 184.494224 
L 287.044602 185.329883 
L 289.68385 186.052231 
L 292.323099 186.356751 
L 294.962347 187.107427 
L 297.601596 187.397783 
L 300.240844 187.833316 
L 302.880093 188.19095 
L 305.519341 188.300718 
L 308.15859 188.491928 
L 310.797838 188.80353 
L 313.437087 189.260309 
L 316.076335 189.285095 
L 318.715583 189.653352 
L 321.354832 189.99328 
L 323.99408 190.33675 
L 326.633329 190.662515 
L 329.272577 191.105131 
L 331.911826 191.441519 
L 334.551074 191.576074 
L 337.190323 191.728333 
L 339.829571 191.795611 
L 342.46882 191.802693 
L 345.108068 191.806234 
L 347.747317 191.806234 
" clip-path="url(#pde8666eb02)" style="fill: none; stroke: #000000; stroke-width: 1.5; stroke-linecap: square"/>
   </g>
   <g id="patch_3">
    <path d="M 73.37 191.806234 
L 73.37 14.76 
" style="fill: none; stroke: #000000; stroke-width: 0.8; stroke-linejoin: miter; stroke-linecap: square"/>
   </g>
   <g id="patch_4">
    <path d="M 360.812903 191.806234 
L 360.812903 14.76 
" style="fill: none; stroke: #000000; stroke-width: 0.8; stroke-linejoin: miter; stroke-linecap: square"/>
   </g>
   <g id="patch_5">
    <path d="M 73.37 191.806234 
L 360.812903 191.806234 
" style="fill: none; stroke: #000000; stroke-width: 0.8; stroke-linejoin: miter; stroke-linecap: square"/>
   </g>
   <g id="patch_6">
    <path d="M 73.37 14.76 
L 360.812903 14.76 
" style="fill: none; stroke: #000000; stroke-width: 0.8; stroke-linejoin: miter; stroke-linecap: square"/>
   </g>
   <g id="legend_1">
    <g id="patch_7">
     <path d="M 304.641028 52.11625 
L 353.812903 52.11625 
Q 355.812903 52.11625 355.812903 50.11625 
L 355.812903 21.76 
Q 355.812903 19.76 353.812903 19.76 
L 304.641028 19.76 
Q 302.641028 19.76 302.641028 21.76 
L 302.641028 50.11625 
Q 302.641028 52.11625 304.641028 52.11625 
z
" style="fill: #ffffff; opacity: 0.8; stroke: #cccccc; stroke-linejoin: miter"/>
    </g>
    <g id="line2d_15">
     <path d="M 306.641028 27.858437 
L 316.641028 27.858437 
L 326.641028 27.858437 
" style="fill: none; stroke: #d3d3d3; stroke-width: 1.5; stroke-linecap: square"/>
    </g>
    <g id="text_15">
     <!-- TPs -->
     <g transform="translate(334.641028 31.358437) scale(0.1 -0.1)">
      <defs>
       <path id="DejaVuSans-50" d="M 1259 4147 
L 1259 2394 
L 2053 2394 
Q 2494 2394 2734 2622 
Q 2975 2850 2975 3272 
Q 2975 3691 2734 3919 
Q 2494 4147 2053 4147 
L 1259 4147 
z
M 628 4666 
L 2053 4666 
Q 2838 4666 3239 4311 
Q 3641 3956 3641 3272 
Q 3641 2581 3239 2228 
Q 2838 1875 2053 1875 
L 1259 1875 
L 1259 0 
L 628 0 
L 628 4666 
z
" transform="scale(0.015625)"/>
      </defs>
      <use xlink:href="#DejaVuSans-54"/>
      <use xlink:href="#DejaVuSans-50" x="61.083984"/>
      <use xlink:href="#DejaVuSans-73" x="119.636719"/>
     </g>
    </g>
    <g id="line2d_16">
     <path d="M 306.641028 42.536562 
L 316.641028 42.536562 
L 326.641028 42.536562 
" style="fill: none; stroke: #000000; stroke-width: 1.5; stroke-linecap: square"/>
    </g>
    <g id="text_16">
     <!-- FPs -->
     <g transform="translate(334.641028 46.036562) scale(0.1 -0.1)">
      <defs>
       <path id="DejaVuSans-46" d="M 628 4666 
L 3309 4666 
L 3309 4134 
L 1259 4134 
L 1259 2759 
L 3109 2759 
L 3109 2228 
L 1259 2228 
L 1259 0 
L 628 0 
L 628 4666 
z
" transform="scale(0.015625)"/>
      </defs>
      <use xlink:href="#DejaVuSans-46"/>
      <use xlink:href="#DejaVuSans-50" x="57.519531"/>
      <use xlink:href="#DejaVuSans-73" x="116.072266"/>
     </g>
    </g>
   </g>
  </g>
 </g>
 <defs>
  <clipPath id="pde8666eb02">
   <rect x="73.37" y="14.76" width="287.442903" height="177.046234"/>
  </clipPath>
 </defs>
</svg>
