<?xml version="1.0" encoding="utf-8" standalone="no"?>
<!DOCTYPE svg PUBLIC "-//W3C//DTD SVG 1.1//EN"
  "http://www.w3.org/Graphics/SVG/1.1/DTD/svg11.dtd">
<svg xmlns:xlink="http://www.w3.org/1999/xlink" width="371.612903pt" height="233.766234pt" viewBox="0 0 371.612903 233.766234" xmlns="http://www.w3.org/2000/svg" version="1.1">
 <metadata>
  <rdf:RDF xmlns:dc="http://purl.org/dc/elements/1.1/" xmlns:cc="http://creativecommons.org/ns#" xmlns:rdf="http://www.w3.org/1999/02/22-rdf-syntax-ns#">
   <cc:Work>
    <dc:type rdf:resource="http://purl.org/dc/dcmitype/StillImage"/>
    <dc:date>2025-05-26T15:42:15.149426</dc:date>
    <dc:format>image/svg+xml</dc:format>
    <dc:creator>
     <cc:Agent>
      <dc:title>Matplotlib v3.9.2, https://matplotlib.org/</dc:title>
     </cc:Agent>
    </dc:creator>
   </cc:Work>
  </rdf:RDF>
 </metadata>
 <defs>
  <style type="text/css">*{stroke-linejoin: round; stroke-linecap: butt}</style>
 </defs>
 <g id="figure_1">
  <g id="patch_1">
   <path d="M 0 233.766234 
L 371.612903 233.766234 
L 371.612903 0 
L 0 0 
z
" style="fill: #ffffff"/>
  </g>
  <g id="axes_1">
   <g id="patch_2">
    <path d="M 56.240346 191.806234 
L 354.422903 191.806234 
L 354.422903 25.44 
L 56.240346 25.44 
z
" style="fill: #ffffff"/>
   </g>
   <g id="PolyCollection_1">
    <path d="M 5.027492 55480.851255 
L 5.027492 25.473741 
L 11.065689 25.473741 
L 17.079037 25.493043 
L 23.117234 25.536529 
L 29.130582 25.618884 
L 35.156355 25.760025 
L 41.179642 25.965914 
L 47.205415 26.250672 
L 53.228702 26.629757 
L 59.25199 27.130885 
L 65.275278 27.751108 
L 71.30105 28.568049 
L 77.324338 29.550406 
L 83.35011 30.907691 
L 89.363459 32.423181 
L 95.401655 34.345297 
L 101.415004 36.852218 
L 107.4532 39.620338 
L 113.466549 42.444007 
L 119.479897 45.498803 
L 125.518094 49.1588 
L 131.531442 52.419947 
L 137.569639 55.545377 
L 143.582987 58.933688 
L 149.621184 61.91717 
L 155.634532 65.172285 
L 161.64788 66.913741 
L 167.686077 70.606095 
L 173.699425 72.877989 
L 179.737622 75.272047 
L 185.75097 78.338651 
L 191.789167 82.123154 
L 197.802515 83.985097 
L 203.815863 86.590842 
L 209.85406 87.606563 
L 215.867408 92.548666 
L 221.905605 91.779635 
L 227.918953 96.728075 
L 233.95715 99.228423 
L 239.970498 98.91085 
L 245.983847 101.926294 
L 252.022043 107.882743 
L 258.035392 104.230395 
L 264.073588 105.063298 
L 270.086937 115.579163 
L 276.100285 114.99662 
L 282.138482 113.93856 
L 288.15183 122.640218 
L 294.190027 126.393704 
L 300.203375 123.458112 
L 306.216723 142.589292 
L 312.180374 128.075815 
L 318.392511 134.519605 
L 324.356162 143.340442 
L 330.319813 135.475805 
L 336.283464 138.427143 
L 342.495601 145.364425 
L 348.459252 144.420238 
L 354.422903 164.364122 
L 360.386554 152.924445 
L 366.350206 146.035489 
L 372.562342 162.037166 
L 378.525993 176.744028 
L 384.489644 159.819447 
L 390.453296 159.546592 
L 396.665432 174.529546 
L 402.629083 157.537926 
L 408.592734 156.409625 
L 414.556386 154.219144 
L 462.762566 166.246954 
L 480.902005 164.057804 
L 480.902005 55480.851255 
L 480.902005 55480.851255 
L 462.762566 55480.851255 
L 414.556386 55480.851255 
L 408.592734 55480.851255 
L 402.629083 55480.851255 
L 396.665432 55480.851255 
L 390.453296 55480.851255 
L 384.489644 55480.851255 
L 378.525993 55480.851255 
L 372.562342 55480.851255 
L 366.350206 55480.851255 
L 360.386554 55480.851255 
L 354.422903 55480.851255 
L 348.459252 55480.851255 
L 342.495601 55480.851255 
L 336.283464 55480.851255 
L 330.319813 55480.851255 
L 324.356162 55480.851255 
L 318.392511 55480.851255 
L 312.180374 55480.851255 
L 306.216723 55480.851255 
L 300.203375 55480.851255 
L 294.190027 55480.851255 
L 288.15183 55480.851255 
L 282.138482 55480.851255 
L 276.100285 55480.851255 
L 270.086937 55480.851255 
L 264.073588 55480.851255 
L 258.035392 55480.851255 
L 252.022043 55480.851255 
L 245.983847 55480.851255 
L 239.970498 55480.851255 
L 233.95715 55480.851255 
L 227.918953 55480.851255 
L 221.905605 55480.851255 
L 215.867408 55480.851255 
L 209.85406 55480.851255 
L 203.815863 55480.851255 
L 197.802515 55480.851255 
L 191.789167 55480.851255 
L 185.75097 55480.851255 
L 179.737622 55480.851255 
L 173.699425 55480.851255 
L 167.686077 55480.851255 
L 161.64788 55480.851255 
L 155.634532 55480.851255 
L 149.621184 55480.851255 
L 143.582987 55480.851255 
L 137.569639 55480.851255 
L 131.531442 55480.851255 
L 125.518094 55480.851255 
L 119.479897 55480.851255 
L 113.466549 55480.851255 
L 107.4532 55480.851255 
L 101.415004 55480.851255 
L 95.401655 55480.851255 
L 89.363459 55480.851255 
L 83.35011 55480.851255 
L 77.324338 55480.851255 
L 71.30105 55480.851255 
L 65.275278 55480.851255 
L 59.25199 55480.851255 
L 53.228702 55480.851255 
L 47.205415 55480.851255 
L 41.179642 55480.851255 
L 35.156355 55480.851255 
L 29.130582 55480.851255 
L 23.117234 55480.851255 
L 17.079037 55480.851255 
L 11.065689 55480.851255 
L 5.027492 55480.851255 
z
" clip-path="url(#pe4e2540343)" style="fill: #b0e0e6; stroke: #b0e0e6"/>
   </g>
   <g id="matplotlib.axis_1">
    <g id="xtick_1">
     <g id="line2d_1">
      <defs>
       <path id="m3180c52d99" d="M 0 0 
L 0 3.5 
" style="stroke: #000000; stroke-width: 0.8"/>
      </defs>
      <g>
       <use xlink:href="#m3180c52d99" x="56.240346" y="191.806234" style="stroke: #000000; stroke-width: 0.8"/>
      </g>
     </g>
     <g id="text_1">
      <!-- 0 -->
      <g transform="translate(53.059096 206.404671) scale(0.1 -0.1)">
       <defs>
        <path id="DejaVuSans-30" d="M 2034 4250 
Q 1547 4250 1301 3770 
Q 1056 3291 1056 2328 
Q 1056 1369 1301 889 
Q 1547 409 2034 409 
Q 2525 409 2770 889 
Q 3016 1369 3016 2328 
Q 3016 3291 2770 3770 
Q 2525 4250 2034 4250 
z
M 2034 4750 
Q 2819 4750 3233 4129 
Q 3647 3509 3647 2328 
Q 3647 1150 3233 529 
Q 2819 -91 2034 -91 
Q 1250 -91 836 529 
Q 422 1150 422 2328 
Q 422 3509 836 4129 
Q 1250 4750 2034 4750 
z
" transform="scale(0.015625)"/>
       </defs>
       <use xlink:href="#DejaVuSans-30"/>
      </g>
     </g>
    </g>
    <g id="xtick_2">
     <g id="line2d_2">
      <g>
       <use xlink:href="#m3180c52d99" x="105.937439" y="191.806234" style="stroke: #000000; stroke-width: 0.8"/>
      </g>
     </g>
     <g id="text_2">
      <!-- 2 -->
      <g transform="translate(102.756189 206.404671) scale(0.1 -0.1)">
       <defs>
        <path id="DejaVuSans-32" d="M 1228 531 
L 3431 531 
L 3431 0 
L 469 0 
L 469 531 
Q 828 903 1448 1529 
Q 2069 2156 2228 2338 
Q 2531 2678 2651 2914 
Q 2772 3150 2772 3378 
Q 2772 3750 2511 3984 
Q 2250 4219 1831 4219 
Q 1534 4219 1204 4116 
Q 875 4013 500 3803 
L 500 4441 
Q 881 4594 1212 4672 
Q 1544 4750 1819 4750 
Q 2544 4750 2975 4387 
Q 3406 4025 3406 3419 
Q 3406 3131 3298 2873 
Q 3191 2616 2906 2266 
Q 2828 2175 2409 1742 
Q 1991 1309 1228 531 
z
" transform="scale(0.015625)"/>
       </defs>
       <use xlink:href="#DejaVuSans-32"/>
      </g>
     </g>
    </g>
    <g id="xtick_3">
     <g id="line2d_3">
      <g>
       <use xlink:href="#m3180c52d99" x="155.634532" y="191.806234" style="stroke: #000000; stroke-width: 0.8"/>
      </g>
     </g>
     <g id="text_3">
      <!-- 4 -->
      <g transform="translate(152.453282 206.404671) scale(0.1 -0.1)">
       <defs>
        <path id="DejaVuSans-34" d="M 2419 4116 
L 825 1625 
L 2419 1625 
L 2419 4116 
z
M 2253 4666 
L 3047 4666 
L 3047 1625 
L 3713 1625 
L 3713 1100 
L 3047 1100 
L 3047 0 
L 2419 0 
L 2419 1100 
L 313 1100 
L 313 1709 
L 2253 4666 
z
" transform="scale(0.015625)"/>
       </defs>
       <use xlink:href="#DejaVuSans-34"/>
      </g>
     </g>
    </g>
    <g id="xtick_4">
     <g id="line2d_4">
      <g>
       <use xlink:href="#m3180c52d99" x="205.331625" y="191.806234" style="stroke: #000000; stroke-width: 0.8"/>
      </g>
     </g>
     <g id="text_4">
      <!-- 6 -->
      <g transform="translate(202.150375 206.404671) scale(0.1 -0.1)">
       <defs>
        <path id="DejaVuSans-36" d="M 2113 2584 
Q 1688 2584 1439 2293 
Q 1191 2003 1191 1497 
Q 1191 994 1439 701 
Q 1688 409 2113 409 
Q 2538 409 2786 701 
Q 3034 994 3034 1497 
Q 3034 2003 2786 2293 
Q 2538 2584 2113 2584 
z
M 3366 4563 
L 3366 3988 
Q 3128 4100 2886 4159 
Q 2644 4219 2406 4219 
Q 1781 4219 1451 3797 
Q 1122 3375 1075 2522 
Q 1259 2794 1537 2939 
Q 1816 3084 2150 3084 
Q 2853 3084 3261 2657 
Q 3669 2231 3669 1497 
Q 3669 778 3244 343 
Q 2819 -91 2113 -91 
Q 1303 -91 875 529 
Q 447 1150 447 2328 
Q 447 3434 972 4092 
Q 1497 4750 2381 4750 
Q 2619 4750 2861 4703 
Q 3103 4656 3366 4563 
z
" transform="scale(0.015625)"/>
       </defs>
       <use xlink:href="#DejaVuSans-36"/>
      </g>
     </g>
    </g>
    <g id="xtick_5">
     <g id="line2d_5">
      <g>
       <use xlink:href="#m3180c52d99" x="255.028718" y="191.806234" style="stroke: #000000; stroke-width: 0.8"/>
      </g>
     </g>
     <g id="text_5">
      <!-- 8 -->
      <g transform="translate(251.847468 206.404671) scale(0.1 -0.1)">
       <defs>
        <path id="DejaVuSans-38" d="M 2034 2216 
Q 1584 2216 1326 1975 
Q 1069 1734 1069 1313 
Q 1069 891 1326 650 
Q 1584 409 2034 409 
Q 2484 409 2743 651 
Q 3003 894 3003 1313 
Q 3003 1734 2745 1975 
Q 2488 2216 2034 2216 
z
M 1403 2484 
Q 997 2584 770 2862 
Q 544 3141 544 3541 
Q 544 4100 942 4425 
Q 1341 4750 2034 4750 
Q 2731 4750 3128 4425 
Q 3525 4100 3525 3541 
Q 3525 3141 3298 2862 
Q 3072 2584 2669 2484 
Q 3125 2378 3379 2068 
Q 3634 1759 3634 1313 
Q 3634 634 3220 271 
Q 2806 -91 2034 -91 
Q 1263 -91 848 271 
Q 434 634 434 1313 
Q 434 1759 690 2068 
Q 947 2378 1403 2484 
z
M 1172 3481 
Q 1172 3119 1398 2916 
Q 1625 2713 2034 2713 
Q 2441 2713 2670 2916 
Q 2900 3119 2900 3481 
Q 2900 3844 2670 4047 
Q 2441 4250 2034 4250 
Q 1625 4250 1398 4047 
Q 1172 3844 1172 3481 
z
" transform="scale(0.015625)"/>
       </defs>
       <use xlink:href="#DejaVuSans-38"/>
      </g>
     </g>
    </g>
    <g id="xtick_6">
     <g id="line2d_6">
      <g>
       <use xlink:href="#m3180c52d99" x="304.72581" y="191.806234" style="stroke: #000000; stroke-width: 0.8"/>
      </g>
     </g>
     <g id="text_6">
      <!-- 10 -->
      <g transform="translate(298.36331 206.404671) scale(0.1 -0.1)">
       <defs>
        <path id="DejaVuSans-31" d="M 794 531 
L 1825 531 
L 1825 4091 
L 703 3866 
L 703 4441 
L 1819 4666 
L 2450 4666 
L 2450 531 
L 3481 531 
L 3481 0 
L 794 0 
L 794 531 
z
" transform="scale(0.015625)"/>
       </defs>
       <use xlink:href="#DejaVuSans-31"/>
       <use xlink:href="#DejaVuSans-30" x="63.623047"/>
      </g>
     </g>
    </g>
    <g id="xtick_7">
     <g id="line2d_7">
      <g>
       <use xlink:href="#m3180c52d99" x="354.422903" y="191.806234" style="stroke: #000000; stroke-width: 0.8"/>
      </g>
     </g>
     <g id="text_7">
      <!-- 12 -->
      <g transform="translate(348.060403 206.404671) scale(0.1 -0.1)">
       <use xlink:href="#DejaVuSans-31"/>
       <use xlink:href="#DejaVuSans-32" x="63.623047"/>
      </g>
     </g>
    </g>
    <g id="text_8">
     <!-- Foldseek  -log10(E) -->
     <g transform="translate(157.333187 220.082796) scale(0.1 -0.1)">
      <defs>
       <path id="DejaVuSans-46" d="M 628 4666 
L 3309 4666 
L 3309 4134 
L 1259 4134 
L 1259 2759 
L 3109 2759 
L 3109 2228 
L 1259 2228 
L 1259 0 
L 628 0 
L 628 4666 
z
" transform="scale(0.015625)"/>
       <path id="DejaVuSans-6f" d="M 1959 3097 
Q 1497 3097 1228 2736 
Q 959 2375 959 1747 
Q 959 1119 1226 758 
Q 1494 397 1959 397 
Q 2419 397 2687 759 
Q 2956 1122 2956 1747 
Q 2956 2369 2687 2733 
Q 2419 3097 1959 3097 
z
M 1959 3584 
Q 2709 3584 3137 3096 
Q 3566 2609 3566 1747 
Q 3566 888 3137 398 
Q 2709 -91 1959 -91 
Q 1206 -91 779 398 
Q 353 888 353 1747 
Q 353 2609 779 3096 
Q 1206 3584 1959 3584 
z
" transform="scale(0.015625)"/>
       <path id="DejaVuSans-6c" d="M 603 4863 
L 1178 4863 
L 1178 0 
L 603 0 
L 603 4863 
z
" transform="scale(0.015625)"/>
       <path id="DejaVuSans-64" d="M 2906 2969 
L 2906 4863 
L 3481 4863 
L 3481 0 
L 2906 0 
L 2906 525 
Q 2725 213 2448 61 
Q 2172 -91 1784 -91 
Q 1150 -91 751 415 
Q 353 922 353 1747 
Q 353 2572 751 3078 
Q 1150 3584 1784 3584 
Q 2172 3584 2448 3432 
Q 2725 3281 2906 2969 
z
M 947 1747 
Q 947 1113 1208 752 
Q 1469 391 1925 391 
Q 2381 391 2643 752 
Q 2906 1113 2906 1747 
Q 2906 2381 2643 2742 
Q 2381 3103 1925 3103 
Q 1469 3103 1208 2742 
Q 947 2381 947 1747 
z
" transform="scale(0.015625)"/>
       <path id="DejaVuSans-73" d="M 2834 3397 
L 2834 2853 
Q 2591 2978 2328 3040 
Q 2066 3103 1784 3103 
Q 1356 3103 1142 2972 
Q 928 2841 928 2578 
Q 928 2378 1081 2264 
Q 1234 2150 1697 2047 
L 1894 2003 
Q 2506 1872 2764 1633 
Q 3022 1394 3022 966 
Q 3022 478 2636 193 
Q 2250 -91 1575 -91 
Q 1294 -91 989 -36 
Q 684 19 347 128 
L 347 722 
Q 666 556 975 473 
Q 1284 391 1588 391 
Q 1994 391 2212 530 
Q 2431 669 2431 922 
Q 2431 1156 2273 1281 
Q 2116 1406 1581 1522 
L 1381 1569 
Q 847 1681 609 1914 
Q 372 2147 372 2553 
Q 372 3047 722 3315 
Q 1072 3584 1716 3584 
Q 2034 3584 2315 3537 
Q 2597 3491 2834 3397 
z
" transform="scale(0.015625)"/>
       <path id="DejaVuSans-65" d="M 3597 1894 
L 3597 1613 
L 953 1613 
Q 991 1019 1311 708 
Q 1631 397 2203 397 
Q 2534 397 2845 478 
Q 3156 559 3463 722 
L 3463 178 
Q 3153 47 2828 -22 
Q 2503 -91 2169 -91 
Q 1331 -91 842 396 
Q 353 884 353 1716 
Q 353 2575 817 3079 
Q 1281 3584 2069 3584 
Q 2775 3584 3186 3129 
Q 3597 2675 3597 1894 
z
M 3022 2063 
Q 3016 2534 2758 2815 
Q 2500 3097 2075 3097 
Q 1594 3097 1305 2825 
Q 1016 2553 972 2059 
L 3022 2063 
z
" transform="scale(0.015625)"/>
       <path id="DejaVuSans-6b" d="M 581 4863 
L 1159 4863 
L 1159 1991 
L 2875 3500 
L 3609 3500 
L 1753 1863 
L 3688 0 
L 2938 0 
L 1159 1709 
L 1159 0 
L 581 0 
L 581 4863 
z
" transform="scale(0.015625)"/>
       <path id="DejaVuSans-20" transform="scale(0.015625)"/>
       <path id="DejaVuSans-2d" d="M 313 2009 
L 1997 2009 
L 1997 1497 
L 313 1497 
L 313 2009 
z
" transform="scale(0.015625)"/>
       <path id="DejaVuSans-67" d="M 2906 1791 
Q 2906 2416 2648 2759 
Q 2391 3103 1925 3103 
Q 1463 3103 1205 2759 
Q 947 2416 947 1791 
Q 947 1169 1205 825 
Q 1463 481 1925 481 
Q 2391 481 2648 825 
Q 2906 1169 2906 1791 
z
M 3481 434 
Q 3481 -459 3084 -895 
Q 2688 -1331 1869 -1331 
Q 1566 -1331 1297 -1286 
Q 1028 -1241 775 -1147 
L 775 -588 
Q 1028 -725 1275 -790 
Q 1522 -856 1778 -856 
Q 2344 -856 2625 -561 
Q 2906 -266 2906 331 
L 2906 616 
Q 2728 306 2450 153 
Q 2172 0 1784 0 
Q 1141 0 747 490 
Q 353 981 353 1791 
Q 353 2603 747 3093 
Q 1141 3584 1784 3584 
Q 2172 3584 2450 3431 
Q 2728 3278 2906 2969 
L 2906 3500 
L 3481 3500 
L 3481 434 
z
" transform="scale(0.015625)"/>
       <path id="DejaVuSans-28" d="M 1984 4856 
Q 1566 4138 1362 3434 
Q 1159 2731 1159 2009 
Q 1159 1288 1364 580 
Q 1569 -128 1984 -844 
L 1484 -844 
Q 1016 -109 783 600 
Q 550 1309 550 2009 
Q 550 2706 781 3412 
Q 1013 4119 1484 4856 
L 1984 4856 
z
" transform="scale(0.015625)"/>
       <path id="DejaVuSans-45" d="M 628 4666 
L 3578 4666 
L 3578 4134 
L 1259 4134 
L 1259 2753 
L 3481 2753 
L 3481 2222 
L 1259 2222 
L 1259 531 
L 3634 531 
L 3634 0 
L 628 0 
L 628 4666 
z
" transform="scale(0.015625)"/>
       <path id="DejaVuSans-29" d="M 513 4856 
L 1013 4856 
Q 1481 4119 1714 3412 
Q 1947 2706 1947 2009 
Q 1947 1309 1714 600 
Q 1481 -109 1013 -844 
L 513 -844 
Q 928 -128 1133 580 
Q 1338 1288 1338 2009 
Q 1338 2731 1133 3434 
Q 928 4138 513 4856 
z
" transform="scale(0.015625)"/>
      </defs>
      <use xlink:href="#DejaVuSans-46"/>
      <use xlink:href="#DejaVuSans-6f" x="53.894531"/>
      <use xlink:href="#DejaVuSans-6c" x="115.076172"/>
      <use xlink:href="#DejaVuSans-64" x="142.859375"/>
      <use xlink:href="#DejaVuSans-73" x="206.335938"/>
      <use xlink:href="#DejaVuSans-65" x="258.435547"/>
      <use xlink:href="#DejaVuSans-65" x="319.958984"/>
      <use xlink:href="#DejaVuSans-6b" x="381.482422"/>
      <use xlink:href="#DejaVuSans-20" x="439.392578"/>
      <use xlink:href="#DejaVuSans-20" x="471.179688"/>
      <use xlink:href="#DejaVuSans-2d" x="502.966797"/>
      <use xlink:href="#DejaVuSans-6c" x="539.050781"/>
      <use xlink:href="#DejaVuSans-6f" x="566.833984"/>
      <use xlink:href="#DejaVuSans-67" x="628.015625"/>
      <use xlink:href="#DejaVuSans-31" x="691.492188"/>
      <use xlink:href="#DejaVuSans-30" x="755.115234"/>
      <use xlink:href="#DejaVuSans-28" x="818.738281"/>
      <use xlink:href="#DejaVuSans-45" x="857.751953"/>
      <use xlink:href="#DejaVuSans-29" x="920.935547"/>
     </g>
    </g>
   </g>
   <g id="matplotlib.axis_2">
    <g id="ytick_1">
     <g id="line2d_8">
      <defs>
       <path id="m7593c42683" d="M 0 0 
L -3.5 0 
" style="stroke: #000000; stroke-width: 0.8"/>
      </defs>
      <g>
       <use xlink:href="#m7593c42683" x="56.240346" y="191.806234" style="stroke: #000000; stroke-width: 0.8"/>
      </g>
     </g>
     <g id="text_9">
      <!-- $\mathdefault{10^{-3}}$ -->
      <g transform="translate(25.740346 195.605453) scale(0.1 -0.1)">
       <defs>
        <path id="DejaVuSans-2212" d="M 678 2272 
L 4684 2272 
L 4684 1741 
L 678 1741 
L 678 2272 
z
" transform="scale(0.015625)"/>
        <path id="DejaVuSans-33" d="M 2597 2516 
Q 3050 2419 3304 2112 
Q 3559 1806 3559 1356 
Q 3559 666 3084 287 
Q 2609 -91 1734 -91 
Q 1441 -91 1130 -33 
Q 819 25 488 141 
L 488 750 
Q 750 597 1062 519 
Q 1375 441 1716 441 
Q 2309 441 2620 675 
Q 2931 909 2931 1356 
Q 2931 1769 2642 2001 
Q 2353 2234 1838 2234 
L 1294 2234 
L 1294 2753 
L 1863 2753 
Q 2328 2753 2575 2939 
Q 2822 3125 2822 3475 
Q 2822 3834 2567 4026 
Q 2313 4219 1838 4219 
Q 1578 4219 1281 4162 
Q 984 4106 628 3988 
L 628 4550 
Q 988 4650 1302 4700 
Q 1616 4750 1894 4750 
Q 2613 4750 3031 4423 
Q 3450 4097 3450 3541 
Q 3450 3153 3228 2886 
Q 3006 2619 2597 2516 
z
" transform="scale(0.015625)"/>
       </defs>
       <use xlink:href="#DejaVuSans-31" transform="translate(0 0.765625)"/>
       <use xlink:href="#DejaVuSans-30" transform="translate(63.623047 0.765625)"/>
       <use xlink:href="#DejaVuSans-2212" transform="translate(128.203125 39.046875) scale(0.7)"/>
       <use xlink:href="#DejaVuSans-33" transform="translate(186.855469 39.046875) scale(0.7)"/>
      </g>
     </g>
    </g>
    <g id="ytick_2">
     <g id="line2d_9">
      <g>
       <use xlink:href="#m7593c42683" x="56.240346" y="136.350823" style="stroke: #000000; stroke-width: 0.8"/>
      </g>
     </g>
     <g id="text_10">
      <!-- $\mathdefault{10^{-2}}$ -->
      <g transform="translate(25.740346 140.150041) scale(0.1 -0.1)">
       <use xlink:href="#DejaVuSans-31" transform="translate(0 0.765625)"/>
       <use xlink:href="#DejaVuSans-30" transform="translate(63.623047 0.765625)"/>
       <use xlink:href="#DejaVuSans-2212" transform="translate(128.203125 39.046875) scale(0.7)"/>
       <use xlink:href="#DejaVuSans-32" transform="translate(186.855469 39.046875) scale(0.7)"/>
      </g>
     </g>
    </g>
    <g id="ytick_3">
     <g id="line2d_10">
      <g>
       <use xlink:href="#m7593c42683" x="56.240346" y="80.895411" style="stroke: #000000; stroke-width: 0.8"/>
      </g>
     </g>
     <g id="text_11">
      <!-- $\mathdefault{10^{-1}}$ -->
      <g transform="translate(25.740346 84.69463) scale(0.1 -0.1)">
       <use xlink:href="#DejaVuSans-31" transform="translate(0 0.684375)"/>
       <use xlink:href="#DejaVuSans-30" transform="translate(63.623047 0.684375)"/>
       <use xlink:href="#DejaVuSans-2212" transform="translate(128.203125 38.965625) scale(0.7)"/>
       <use xlink:href="#DejaVuSans-31" transform="translate(186.855469 38.965625) scale(0.7)"/>
      </g>
     </g>
    </g>
    <g id="ytick_4">
     <g id="line2d_11">
      <g>
       <use xlink:href="#m7593c42683" x="56.240346" y="25.44" style="stroke: #000000; stroke-width: 0.8"/>
      </g>
     </g>
     <g id="text_12">
      <!-- $\mathdefault{10^{0}}$ -->
      <g transform="translate(31.640346 29.239219) scale(0.1 -0.1)">
       <use xlink:href="#DejaVuSans-31" transform="translate(0 0.765625)"/>
       <use xlink:href="#DejaVuSans-30" transform="translate(63.623047 0.765625)"/>
       <use xlink:href="#DejaVuSans-30" transform="translate(128.203125 39.046875) scale(0.7)"/>
      </g>
     </g>
    </g>
    <g id="ytick_5">
     <g id="line2d_12">
      <defs>
       <path id="m614dbd5aa9" d="M 0 0 
L -2 0 
" style="stroke: #000000; stroke-width: 0.6"/>
      </defs>
      <g>
       <use xlink:href="#m614dbd5aa9" x="56.240346" y="175.112492" style="stroke: #000000; stroke-width: 0.6"/>
      </g>
     </g>
    </g>
    <g id="ytick_6">
     <g id="line2d_13">
      <g>
       <use xlink:href="#m614dbd5aa9" x="56.240346" y="165.347278" style="stroke: #000000; stroke-width: 0.6"/>
      </g>
     </g>
    </g>
    <g id="ytick_7">
     <g id="line2d_14">
      <g>
       <use xlink:href="#m614dbd5aa9" x="56.240346" y="158.418749" style="stroke: #000000; stroke-width: 0.6"/>
      </g>
     </g>
    </g>
    <g id="ytick_8">
     <g id="line2d_15">
      <g>
       <use xlink:href="#m614dbd5aa9" x="56.240346" y="153.044565" style="stroke: #000000; stroke-width: 0.6"/>
      </g>
     </g>
    </g>
    <g id="ytick_9">
     <g id="line2d_16">
      <g>
       <use xlink:href="#m614dbd5aa9" x="56.240346" y="148.653536" style="stroke: #000000; stroke-width: 0.6"/>
      </g>
     </g>
    </g>
    <g id="ytick_10">
     <g id="line2d_17">
      <g>
       <use xlink:href="#m614dbd5aa9" x="56.240346" y="144.940974" style="stroke: #000000; stroke-width: 0.6"/>
      </g>
     </g>
    </g>
    <g id="ytick_11">
     <g id="line2d_18">
      <g>
       <use xlink:href="#m614dbd5aa9" x="56.240346" y="141.725007" style="stroke: #000000; stroke-width: 0.6"/>
      </g>
     </g>
    </g>
    <g id="ytick_12">
     <g id="line2d_19">
      <g>
       <use xlink:href="#m614dbd5aa9" x="56.240346" y="138.888323" style="stroke: #000000; stroke-width: 0.6"/>
      </g>
     </g>
    </g>
    <g id="ytick_13">
     <g id="line2d_20">
      <g>
       <use xlink:href="#m614dbd5aa9" x="56.240346" y="119.65708" style="stroke: #000000; stroke-width: 0.6"/>
      </g>
     </g>
    </g>
    <g id="ytick_14">
     <g id="line2d_21">
      <g>
       <use xlink:href="#m614dbd5aa9" x="56.240346" y="109.891867" style="stroke: #000000; stroke-width: 0.6"/>
      </g>
     </g>
    </g>
    <g id="ytick_15">
     <g id="line2d_22">
      <g>
       <use xlink:href="#m614dbd5aa9" x="56.240346" y="102.963338" style="stroke: #000000; stroke-width: 0.6"/>
      </g>
     </g>
    </g>
    <g id="ytick_16">
     <g id="line2d_23">
      <g>
       <use xlink:href="#m614dbd5aa9" x="56.240346" y="97.589153" style="stroke: #000000; stroke-width: 0.6"/>
      </g>
     </g>
    </g>
    <g id="ytick_17">
     <g id="line2d_24">
      <g>
       <use xlink:href="#m614dbd5aa9" x="56.240346" y="93.198125" style="stroke: #000000; stroke-width: 0.6"/>
      </g>
     </g>
    </g>
    <g id="ytick_18">
     <g id="line2d_25">
      <g>
       <use xlink:href="#m614dbd5aa9" x="56.240346" y="89.485563" style="stroke: #000000; stroke-width: 0.6"/>
      </g>
     </g>
    </g>
    <g id="ytick_19">
     <g id="line2d_26">
      <g>
       <use xlink:href="#m614dbd5aa9" x="56.240346" y="86.269596" style="stroke: #000000; stroke-width: 0.6"/>
      </g>
     </g>
    </g>
    <g id="ytick_20">
     <g id="line2d_27">
      <g>
       <use xlink:href="#m614dbd5aa9" x="56.240346" y="83.432912" style="stroke: #000000; stroke-width: 0.6"/>
      </g>
     </g>
    </g>
    <g id="ytick_21">
     <g id="line2d_28">
      <g>
       <use xlink:href="#m614dbd5aa9" x="56.240346" y="64.201669" style="stroke: #000000; stroke-width: 0.6"/>
      </g>
     </g>
    </g>
    <g id="ytick_22">
     <g id="line2d_29">
      <g>
       <use xlink:href="#m614dbd5aa9" x="56.240346" y="54.436456" style="stroke: #000000; stroke-width: 0.6"/>
      </g>
     </g>
    </g>
    <g id="ytick_23">
     <g id="line2d_30">
      <g>
       <use xlink:href="#m614dbd5aa9" x="56.240346" y="47.507927" style="stroke: #000000; stroke-width: 0.6"/>
      </g>
     </g>
    </g>
    <g id="ytick_24">
     <g id="line2d_31">
      <g>
       <use xlink:href="#m614dbd5aa9" x="56.240346" y="42.133742" style="stroke: #000000; stroke-width: 0.6"/>
      </g>
     </g>
    </g>
    <g id="ytick_25">
     <g id="line2d_32">
      <g>
       <use xlink:href="#m614dbd5aa9" x="56.240346" y="37.742714" style="stroke: #000000; stroke-width: 0.6"/>
      </g>
     </g>
    </g>
    <g id="ytick_26">
     <g id="line2d_33">
      <g>
       <use xlink:href="#m614dbd5aa9" x="56.240346" y="34.030152" style="stroke: #000000; stroke-width: 0.6"/>
      </g>
     </g>
    </g>
    <g id="ytick_27">
     <g id="line2d_34">
      <g>
       <use xlink:href="#m614dbd5aa9" x="56.240346" y="30.814185" style="stroke: #000000; stroke-width: 0.6"/>
      </g>
     </g>
    </g>
    <g id="ytick_28">
     <g id="line2d_35">
      <g>
       <use xlink:href="#m614dbd5aa9" x="56.240346" y="27.9775" style="stroke: #000000; stroke-width: 0.6"/>
      </g>
     </g>
    </g>
    <g id="text_13">
     <!-- P(F|score) -->
     <g transform="translate(19.382534 133.532492) rotate(-90) scale(0.1 -0.1)">
      <defs>
       <path id="DejaVuSans-50" d="M 1259 4147 
L 1259 2394 
L 2053 2394 
Q 2494 2394 2734 2622 
Q 2975 2850 2975 3272 
Q 2975 3691 2734 3919 
Q 2494 4147 2053 4147 
L 1259 4147 
z
M 628 4666 
L 2053 4666 
Q 2838 4666 3239 4311 
Q 3641 3956 3641 3272 
Q 3641 2581 3239 2228 
Q 2838 1875 2053 1875 
L 1259 1875 
L 1259 0 
L 628 0 
L 628 4666 
z
" transform="scale(0.015625)"/>
       <path id="DejaVuSans-7c" d="M 1344 4891 
L 1344 -1509 
L 813 -1509 
L 813 4891 
L 1344 4891 
z
" transform="scale(0.015625)"/>
       <path id="DejaVuSans-63" d="M 3122 3366 
L 3122 2828 
Q 2878 2963 2633 3030 
Q 2388 3097 2138 3097 
Q 1578 3097 1268 2742 
Q 959 2388 959 1747 
Q 959 1106 1268 751 
Q 1578 397 2138 397 
Q 2388 397 2633 464 
Q 2878 531 3122 666 
L 3122 134 
Q 2881 22 2623 -34 
Q 2366 -91 2075 -91 
Q 1284 -91 818 406 
Q 353 903 353 1747 
Q 353 2603 823 3093 
Q 1294 3584 2113 3584 
Q 2378 3584 2631 3529 
Q 2884 3475 3122 3366 
z
" transform="scale(0.015625)"/>
       <path id="DejaVuSans-72" d="M 2631 2963 
Q 2534 3019 2420 3045 
Q 2306 3072 2169 3072 
Q 1681 3072 1420 2755 
Q 1159 2438 1159 1844 
L 1159 0 
L 581 0 
L 581 3500 
L 1159 3500 
L 1159 2956 
Q 1341 3275 1631 3429 
Q 1922 3584 2338 3584 
Q 2397 3584 2469 3576 
Q 2541 3569 2628 3553 
L 2631 2963 
z
" transform="scale(0.015625)"/>
      </defs>
      <use xlink:href="#DejaVuSans-50"/>
      <use xlink:href="#DejaVuSans-28" x="60.302734"/>
      <use xlink:href="#DejaVuSans-46" x="99.316406"/>
      <use xlink:href="#DejaVuSans-7c" x="156.835938"/>
      <use xlink:href="#DejaVuSans-73" x="190.527344"/>
      <use xlink:href="#DejaVuSans-63" x="242.626953"/>
      <use xlink:href="#DejaVuSans-6f" x="297.607422"/>
      <use xlink:href="#DejaVuSans-72" x="358.789062"/>
      <use xlink:href="#DejaVuSans-65" x="397.652344"/>
      <use xlink:href="#DejaVuSans-29" x="459.175781"/>
     </g>
    </g>
   </g>
   <g id="line2d_36">
    <path d="M 5.027492 25.473741 
L 11.065689 25.473741 
L 17.079037 25.493043 
L 23.117234 25.536529 
L 29.130582 25.618884 
L 35.156355 25.760025 
L 41.179642 25.965914 
L 47.205415 26.250672 
L 53.228702 26.629757 
L 59.25199 27.130885 
L 65.275278 27.751108 
L 71.30105 28.568049 
L 77.324338 29.550406 
L 83.35011 30.907691 
L 89.363459 32.423181 
L 95.401655 34.345297 
L 101.415004 36.852218 
L 107.4532 39.620338 
L 113.466549 42.444007 
L 119.479897 45.498803 
L 125.518094 49.1588 
L 131.531442 52.419947 
L 137.569639 55.545377 
L 143.582987 58.933688 
L 149.621184 61.91717 
L 155.634532 65.172285 
L 161.64788 66.913741 
L 167.686077 70.606095 
L 173.699425 72.877989 
L 179.737622 75.272047 
L 185.75097 78.338651 
L 191.789167 82.123154 
L 197.802515 83.985097 
L 203.815863 86.590842 
L 209.85406 87.606563 
L 215.867408 92.548666 
L 221.905605 91.779635 
L 227.918953 96.728075 
L 233.95715 99.228423 
L 239.970498 98.91085 
L 245.983847 101.926294 
L 252.022043 107.882743 
L 258.035392 104.230395 
L 264.073588 105.063298 
L 270.086937 115.579163 
L 276.100285 114.99662 
L 282.138482 113.93856 
L 288.15183 122.640218 
L 294.190027 126.393704 
L 300.203375 123.458112 
L 306.216723 142.589292 
L 312.180374 128.075815 
L 318.392511 134.519605 
L 324.356162 143.340442 
L 330.319813 135.475805 
L 336.283464 138.427143 
L 342.495601 145.364425 
L 348.459252 144.420238 
L 354.422903 164.364122 
L 360.386554 152.924445 
L 366.350206 146.035489 
L 372.562342 162.037166 
L 372.612903 162.161854 
" clip-path="url(#pe4e2540343)" style="fill: none; stroke: #87ceeb; stroke-width: 1.5; stroke-linecap: square"/>
   </g>
   <g id="line2d_37">
    <path d="M 105.937439 42.109831 
L 304.72581 128.307058 
" clip-path="url(#pe4e2540343)" style="fill: none; stroke-dasharray: 7.4,3.2; stroke-dashoffset: 0; stroke: #000000; stroke-width: 2"/>
   </g>
   <g id="patch_3">
    <path d="M 56.240346 191.806234 
L 56.240346 25.44 
" style="fill: none; stroke: #000000; stroke-width: 0.8; stroke-linejoin: miter; stroke-linecap: square"/>
   </g>
   <g id="patch_4">
    <path d="M 354.422903 191.806234 
L 354.422903 25.44 
" style="fill: none; stroke: #000000; stroke-width: 0.8; stroke-linejoin: miter; stroke-linecap: square"/>
   </g>
   <g id="patch_5">
    <path d="M 56.240346 191.806234 
L 354.422903 191.806234 
" style="fill: none; stroke: #000000; stroke-width: 0.8; stroke-linejoin: miter; stroke-linecap: square"/>
   </g>
   <g id="patch_6">
    <path d="M 56.240346 25.44 
L 354.422903 25.44 
" style="fill: none; stroke: #000000; stroke-width: 0.8; stroke-linejoin: miter; stroke-linecap: square"/>
   </g>
   <g id="text_14">
    <g id="patch_7">
     <path d="M 205.331625 78.578735 
L 304.417562 78.578735 
Q 314.417562 78.578735 314.417562 68.578735 
L 314.417562 47.702798 
Q 314.417562 37.702798 304.417562 37.702798 
L 205.331625 37.702798 
Q 195.331625 37.702798 195.331625 47.702798 
L 195.331625 68.578735 
Q 195.331625 78.578735 205.331625 78.578735 
z
" style="fill: #f5f5f5; opacity: 0.8; stroke: #d3d3d3; stroke-linejoin: miter"/>
    </g>
    <!-- log10(n)= -->
    <g transform="translate(205.331625 55.301235) scale(0.1 -0.1)">
     <defs>
      <path id="DejaVuSans-6e" d="M 3513 2113 
L 3513 0 
L 2938 0 
L 2938 2094 
Q 2938 2591 2744 2837 
Q 2550 3084 2163 3084 
Q 1697 3084 1428 2787 
Q 1159 2491 1159 1978 
L 1159 0 
L 581 0 
L 581 3500 
L 1159 3500 
L 1159 2956 
Q 1366 3272 1645 3428 
Q 1925 3584 2291 3584 
Q 2894 3584 3203 3211 
Q 3513 2838 3513 2113 
z
" transform="scale(0.015625)"/>
      <path id="DejaVuSans-3d" d="M 678 2906 
L 4684 2906 
L 4684 2381 
L 678 2381 
L 678 2906 
z
M 678 1631 
L 4684 1631 
L 4684 1100 
L 678 1100 
L 678 1631 
z
" transform="scale(0.015625)"/>
     </defs>
     <use xlink:href="#DejaVuSans-6c"/>
     <use xlink:href="#DejaVuSans-6f" x="27.783203"/>
     <use xlink:href="#DejaVuSans-67" x="88.964844"/>
     <use xlink:href="#DejaVuSans-31" x="152.441406"/>
     <use xlink:href="#DejaVuSans-30" x="216.064453"/>
     <use xlink:href="#DejaVuSans-28" x="279.6875"/>
     <use xlink:href="#DejaVuSans-6e" x="318.701172"/>
     <use xlink:href="#DejaVuSans-29" x="382.080078"/>
     <use xlink:href="#DejaVuSans-3d" x="421.09375"/>
    </g>
    <!-- 0.088 - 0.194*score -->
    <g transform="translate(205.331625 66.499048) scale(0.1 -0.1)">
     <defs>
      <path id="DejaVuSans-2e" d="M 684 794 
L 1344 794 
L 1344 0 
L 684 0 
L 684 794 
z
" transform="scale(0.015625)"/>
      <path id="DejaVuSans-39" d="M 703 97 
L 703 672 
Q 941 559 1184 500 
Q 1428 441 1663 441 
Q 2288 441 2617 861 
Q 2947 1281 2994 2138 
Q 2813 1869 2534 1725 
Q 2256 1581 1919 1581 
Q 1219 1581 811 2004 
Q 403 2428 403 3163 
Q 403 3881 828 4315 
Q 1253 4750 1959 4750 
Q 2769 4750 3195 4129 
Q 3622 3509 3622 2328 
Q 3622 1225 3098 567 
Q 2575 -91 1691 -91 
Q 1453 -91 1209 -44 
Q 966 3 703 97 
z
M 1959 2075 
Q 2384 2075 2632 2365 
Q 2881 2656 2881 3163 
Q 2881 3666 2632 3958 
Q 2384 4250 1959 4250 
Q 1534 4250 1286 3958 
Q 1038 3666 1038 3163 
Q 1038 2656 1286 2365 
Q 1534 2075 1959 2075 
z
" transform="scale(0.015625)"/>
      <path id="DejaVuSans-2a" d="M 3009 3897 
L 1888 3291 
L 3009 2681 
L 2828 2375 
L 1778 3009 
L 1778 1831 
L 1422 1831 
L 1422 3009 
L 372 2375 
L 191 2681 
L 1313 3291 
L 191 3897 
L 372 4206 
L 1422 3572 
L 1422 4750 
L 1778 4750 
L 1778 3572 
L 2828 4206 
L 3009 3897 
z
" transform="scale(0.015625)"/>
     </defs>
     <use xlink:href="#DejaVuSans-30"/>
     <use xlink:href="#DejaVuSans-2e" x="63.623047"/>
     <use xlink:href="#DejaVuSans-30" x="95.410156"/>
     <use xlink:href="#DejaVuSans-38" x="159.033203"/>
     <use xlink:href="#DejaVuSans-38" x="222.65625"/>
     <use xlink:href="#DejaVuSans-20" x="286.279297"/>
     <use xlink:href="#DejaVuSans-2d" x="318.066406"/>
     <use xlink:href="#DejaVuSans-20" x="354.150391"/>
     <use xlink:href="#DejaVuSans-30" x="385.9375"/>
     <use xlink:href="#DejaVuSans-2e" x="449.560547"/>
     <use xlink:href="#DejaVuSans-31" x="481.347656"/>
     <use xlink:href="#DejaVuSans-39" x="544.970703"/>
     <use xlink:href="#DejaVuSans-34" x="608.59375"/>
     <use xlink:href="#DejaVuSans-2a" x="672.216797"/>
     <use xlink:href="#DejaVuSans-73" x="722.216797"/>
     <use xlink:href="#DejaVuSans-63" x="774.316406"/>
     <use xlink:href="#DejaVuSans-6f" x="829.296875"/>
     <use xlink:href="#DejaVuSans-72" x="890.478516"/>
     <use xlink:href="#DejaVuSans-65" x="929.341797"/>
    </g>
   </g>
   <g id="text_15">
    <!-- SCOP40 -->
    <g transform="translate(181.356937 19.44) scale(0.12 -0.12)">
     <defs>
      <path id="DejaVuSans-53" d="M 3425 4513 
L 3425 3897 
Q 3066 4069 2747 4153 
Q 2428 4238 2131 4238 
Q 1616 4238 1336 4038 
Q 1056 3838 1056 3469 
Q 1056 3159 1242 3001 
Q 1428 2844 1947 2747 
L 2328 2669 
Q 3034 2534 3370 2195 
Q 3706 1856 3706 1288 
Q 3706 609 3251 259 
Q 2797 -91 1919 -91 
Q 1588 -91 1214 -16 
Q 841 59 441 206 
L 441 856 
Q 825 641 1194 531 
Q 1563 422 1919 422 
Q 2459 422 2753 634 
Q 3047 847 3047 1241 
Q 3047 1584 2836 1778 
Q 2625 1972 2144 2069 
L 1759 2144 
Q 1053 2284 737 2584 
Q 422 2884 422 3419 
Q 422 4038 858 4394 
Q 1294 4750 2059 4750 
Q 2388 4750 2728 4690 
Q 3069 4631 3425 4513 
z
" transform="scale(0.015625)"/>
      <path id="DejaVuSans-43" d="M 4122 4306 
L 4122 3641 
Q 3803 3938 3442 4084 
Q 3081 4231 2675 4231 
Q 1875 4231 1450 3742 
Q 1025 3253 1025 2328 
Q 1025 1406 1450 917 
Q 1875 428 2675 428 
Q 3081 428 3442 575 
Q 3803 722 4122 1019 
L 4122 359 
Q 3791 134 3420 21 
Q 3050 -91 2638 -91 
Q 1578 -91 968 557 
Q 359 1206 359 2328 
Q 359 3453 968 4101 
Q 1578 4750 2638 4750 
Q 3056 4750 3426 4639 
Q 3797 4528 4122 4306 
z
" transform="scale(0.015625)"/>
      <path id="DejaVuSans-4f" d="M 2522 4238 
Q 1834 4238 1429 3725 
Q 1025 3213 1025 2328 
Q 1025 1447 1429 934 
Q 1834 422 2522 422 
Q 3209 422 3611 934 
Q 4013 1447 4013 2328 
Q 4013 3213 3611 3725 
Q 3209 4238 2522 4238 
z
M 2522 4750 
Q 3503 4750 4090 4092 
Q 4678 3434 4678 2328 
Q 4678 1225 4090 567 
Q 3503 -91 2522 -91 
Q 1538 -91 948 565 
Q 359 1222 359 2328 
Q 359 3434 948 4092 
Q 1538 4750 2522 4750 
z
" transform="scale(0.015625)"/>
     </defs>
     <use xlink:href="#DejaVuSans-53"/>
     <use xlink:href="#DejaVuSans-43" x="63.476562"/>
     <use xlink:href="#DejaVuSans-4f" x="133.300781"/>
     <use xlink:href="#DejaVuSans-50" x="212.011719"/>
     <use xlink:href="#DejaVuSans-34" x="272.314453"/>
     <use xlink:href="#DejaVuSans-30" x="335.9375"/>
    </g>
   </g>
  </g>
 </g>
 <defs>
  <clipPath id="pe4e2540343">
   <rect x="56.240346" y="25.44" width="298.182557" height="166.366234"/>
  </clipPath>
 </defs>
</svg>
