<?xml version="1.0" encoding="utf-8" standalone="no"?>
<!DOCTYPE svg PUBLIC "-//W3C//DTD SVG 1.1//EN"
  "http://www.w3.org/Graphics/SVG/1.1/DTD/svg11.dtd">
<svg xmlns:xlink="http://www.w3.org/1999/xlink" width="650.322581pt" height="233.766234pt" viewBox="0 0 650.322581 233.766234" xmlns="http://www.w3.org/2000/svg" version="1.1">
 <metadata>
  <rdf:RDF xmlns:dc="http://purl.org/dc/elements/1.1/" xmlns:cc="http://creativecommons.org/ns#" xmlns:rdf="http://www.w3.org/1999/02/22-rdf-syntax-ns#">
   <cc:Work>
    <dc:type rdf:resource="http://purl.org/dc/dcmitype/StillImage"/>
    <dc:date>2025-06-17T06:13:40.176915</dc:date>
    <dc:format>image/svg+xml</dc:format>
    <dc:creator>
     <cc:Agent>
      <dc:title>Matplotlib v3.9.2, https://matplotlib.org/</dc:title>
     </cc:Agent>
    </dc:creator>
   </cc:Work>
  </rdf:RDF>
 </metadata>
 <defs>
  <style type="text/css">*{stroke-linejoin: round; stroke-linecap: butt}</style>
 </defs>
 <g id="figure_1">
  <g id="patch_1">
   <path d="M 0 233.766234 
L 650.322581 233.766234 
L 650.322581 0 
L 0 0 
z
" style="fill: #ffffff"/>
  </g>
  <g id="axes_1">
   <g id="patch_2">
    <path d="M 89.3 191.806234 
L 331.348686 191.806234 
L 331.348686 25.44 
L 89.3 25.44 
z
" style="fill: #ffffff"/>
   </g>
   <g id="patch_3">
    <path d="M -67.041447 191.806234 
L -62.420517 191.806234 
L -62.420517 191.806205 
L -67.041447 191.806205 
z
" clip-path="url(#p4c99009a18)" style="fill: #b0e0e6"/>
   </g>
   <g id="patch_4">
    <path d="M -60.440119 191.806234 
L -55.819189 191.806234 
L -55.819189 191.806224 
L -60.440119 191.806224 
z
" clip-path="url(#p4c99009a18)" style="fill: #b0e0e6"/>
   </g>
   <g id="patch_5">
    <path d="M -53.838791 191.806234 
L -49.217862 191.806234 
L -49.217862 191.806215 
L -53.838791 191.806215 
z
" clip-path="url(#p4c99009a18)" style="fill: #b0e0e6"/>
   </g>
   <g id="patch_6">
    <path d="M -47.237463 191.806234 
L -42.616534 191.806234 
L -42.616534 191.806147 
L -47.237463 191.806147 
z
" clip-path="url(#p4c99009a18)" style="fill: #b0e0e6"/>
   </g>
   <g id="patch_7">
    <path d="M -40.636135 191.806234 
L -36.015206 191.806234 
L -36.015206 191.806128 
L -40.636135 191.806128 
z
" clip-path="url(#p4c99009a18)" style="fill: #b0e0e6"/>
   </g>
   <g id="patch_8">
    <path d="M -34.034808 191.806234 
L -29.413878 191.806234 
L -29.413878 191.806109 
L -34.034808 191.806109 
z
" clip-path="url(#p4c99009a18)" style="fill: #b0e0e6"/>
   </g>
   <g id="patch_9">
    <path d="M -27.43348 191.806234 
L -22.81255 191.806234 
L -22.81255 191.806051 
L -27.43348 191.806051 
z
" clip-path="url(#p4c99009a18)" style="fill: #b0e0e6"/>
   </g>
   <g id="patch_10">
    <path d="M -20.832152 191.806234 
L -16.211223 191.806234 
L -16.211223 191.805974 
L -20.832152 191.805974 
z
" clip-path="url(#p4c99009a18)" style="fill: #b0e0e6"/>
   </g>
   <g id="patch_11">
    <path d="M -14.230824 191.806234 
L -9.609895 191.806234 
L -9.609895 191.805744 
L -14.230824 191.805744 
z
" clip-path="url(#p4c99009a18)" style="fill: #b0e0e6"/>
   </g>
   <g id="patch_12">
    <path d="M -7.629496 191.806234 
L -3.008567 191.806234 
L -3.008567 191.805513 
L -7.629496 191.805513 
z
" clip-path="url(#p4c99009a18)" style="fill: #b0e0e6"/>
   </g>
   <g id="patch_13">
    <path d="M -1.028169 191.806234 
L 3.592761 191.806234 
L 3.592761 191.805177 
L -1.028169 191.805177 
z
" clip-path="url(#p4c99009a18)" style="fill: #b0e0e6"/>
   </g>
   <g id="patch_14">
    <path d="M 5.573159 191.806234 
L 10.194089 191.806234 
L 10.194089 191.804495 
L 5.573159 191.804495 
z
" clip-path="url(#p4c99009a18)" style="fill: #b0e0e6"/>
   </g>
   <g id="patch_15">
    <path d="M 12.174487 191.806234 
L 16.795416 191.806234 
L 16.795416 191.803688 
L 12.174487 191.803688 
z
" clip-path="url(#p4c99009a18)" style="fill: #b0e0e6"/>
   </g>
   <g id="patch_16">
    <path d="M 18.775815 191.806234 
L 23.396744 191.806234 
L 23.396744 191.80169 
L 18.775815 191.80169 
z
" clip-path="url(#p4c99009a18)" style="fill: #b0e0e6"/>
   </g>
   <g id="patch_17">
    <path d="M 25.377143 191.806234 
L 29.998072 191.806234 
L 29.998072 191.798674 
L 25.377143 191.798674 
z
" clip-path="url(#p4c99009a18)" style="fill: #b0e0e6"/>
   </g>
   <g id="patch_18">
    <path d="M 31.97847 191.806234 
L 36.5994 191.806234 
L 36.5994 191.793707 
L 31.97847 191.793707 
z
" clip-path="url(#p4c99009a18)" style="fill: #b0e0e6"/>
   </g>
   <g id="patch_19">
    <path d="M 38.579798 191.806234 
L 43.200728 191.806234 
L 43.200728 191.787367 
L 38.579798 191.787367 
z
" clip-path="url(#p4c99009a18)" style="fill: #b0e0e6"/>
   </g>
   <g id="patch_20">
    <path d="M 45.181126 191.806234 
L 49.802055 191.806234 
L 49.802055 191.774985 
L 45.181126 191.774985 
z
" clip-path="url(#p4c99009a18)" style="fill: #b0e0e6"/>
   </g>
   <g id="patch_21">
    <path d="M 51.782454 191.806234 
L 56.403383 191.806234 
L 56.403383 191.754591 
L 51.782454 191.754591 
z
" clip-path="url(#p4c99009a18)" style="fill: #b0e0e6"/>
   </g>
   <g id="patch_22">
    <path d="M 58.383782 191.806234 
L 63.004711 191.806234 
L 63.004711 191.723602 
L 58.383782 191.723602 
z
" clip-path="url(#p4c99009a18)" style="fill: #b0e0e6"/>
   </g>
   <g id="patch_23">
    <path d="M 64.985109 191.806234 
L 69.606039 191.806234 
L 69.606039 191.671008 
L 64.985109 191.671008 
z
" clip-path="url(#p4c99009a18)" style="fill: #b0e0e6"/>
   </g>
   <g id="patch_24">
    <path d="M 71.586437 191.806234 
L 76.207367 191.806234 
L 76.207367 191.582334 
L 71.586437 191.582334 
z
" clip-path="url(#p4c99009a18)" style="fill: #b0e0e6"/>
   </g>
   <g id="patch_25">
    <path d="M 78.187765 191.806234 
L 82.808694 191.806234 
L 82.808694 191.434015 
L 78.187765 191.434015 
z
" clip-path="url(#p4c99009a18)" style="fill: #b0e0e6"/>
   </g>
   <g id="patch_26">
    <path d="M 84.789093 191.806234 
L 89.410022 191.806234 
L 89.410022 191.180383 
L 84.789093 191.180383 
z
" clip-path="url(#p4c99009a18)" style="fill: #b0e0e6"/>
   </g>
   <g id="patch_27">
    <path d="M 91.39042 191.806234 
L 96.01135 191.806234 
L 96.01135 190.74362 
L 91.39042 190.74362 
z
" clip-path="url(#p4c99009a18)" style="fill: #b0e0e6"/>
   </g>
   <g id="patch_28">
    <path d="M 97.991748 191.806234 
L 102.612678 191.806234 
L 102.612678 189.973168 
L 97.991748 189.973168 
z
" clip-path="url(#p4c99009a18)" style="fill: #b0e0e6"/>
   </g>
   <g id="patch_29">
    <path d="M 104.593076 191.806234 
L 109.214006 191.806234 
L 109.214006 188.579469 
L 104.593076 188.579469 
z
" clip-path="url(#p4c99009a18)" style="fill: #b0e0e6"/>
   </g>
   <g id="patch_30">
    <path d="M 111.194404 191.806234 
L 115.815333 191.806234 
L 115.815333 186.073012 
L 111.194404 186.073012 
z
" clip-path="url(#p4c99009a18)" style="fill: #b0e0e6"/>
   </g>
   <g id="patch_31">
    <path d="M 117.795732 191.806234 
L 122.416661 191.806234 
L 122.416661 181.437198 
L 117.795732 181.437198 
z
" clip-path="url(#p4c99009a18)" style="fill: #b0e0e6"/>
   </g>
   <g id="patch_32">
    <path d="M 124.397059 191.806234 
L 129.017989 191.806234 
L 129.017989 172.68116 
L 124.397059 172.68116 
z
" clip-path="url(#p4c99009a18)" style="fill: #b0e0e6"/>
   </g>
   <g id="patch_33">
    <path d="M 130.998387 191.806234 
L 135.619317 191.806234 
L 135.619317 156.469892 
L 130.998387 156.469892 
z
" clip-path="url(#p4c99009a18)" style="fill: #b0e0e6"/>
   </g>
   <g id="patch_34">
    <path d="M 137.599715 191.806234 
L 142.220644 191.806234 
L 142.220644 127.253093 
L 137.599715 127.253093 
z
" clip-path="url(#p4c99009a18)" style="fill: #b0e0e6"/>
   </g>
   <g id="patch_35">
    <path d="M 144.201043 191.806234 
L 148.821972 191.806234 
L 148.821972 81.633047 
L 144.201043 81.633047 
z
" clip-path="url(#p4c99009a18)" style="fill: #b0e0e6"/>
   </g>
   <g id="patch_36">
    <path d="M 150.802371 191.806234 
L 155.4233 191.806234 
L 155.4233 37.443558 
L 150.802371 37.443558 
z
" clip-path="url(#p4c99009a18)" style="fill: #b0e0e6"/>
   </g>
   <g id="patch_37">
    <path d="M 157.403698 191.806234 
L 162.024628 191.806234 
L 162.024628 33.362202 
L 157.403698 33.362202 
z
" clip-path="url(#p4c99009a18)" style="fill: #b0e0e6"/>
   </g>
   <g id="patch_38">
    <path d="M 164.005026 191.806234 
L 168.625956 191.806234 
L 168.625956 58.693782 
L 164.005026 58.693782 
z
" clip-path="url(#p4c99009a18)" style="fill: #b0e0e6"/>
   </g>
   <g id="patch_39">
    <path d="M 170.606354 191.806234 
L 175.227283 191.806234 
L 175.227283 88.086067 
L 170.606354 88.086067 
z
" clip-path="url(#p4c99009a18)" style="fill: #b0e0e6"/>
   </g>
   <g id="patch_40">
    <path d="M 177.207682 191.806234 
L 181.828611 191.806234 
L 181.828611 112.477003 
L 177.207682 112.477003 
z
" clip-path="url(#p4c99009a18)" style="fill: #b0e0e6"/>
   </g>
   <g id="patch_41">
    <path d="M 183.80901 191.806234 
L 188.429939 191.806234 
L 188.429939 131.112413 
L 183.80901 131.112413 
z
" clip-path="url(#p4c99009a18)" style="fill: #b0e0e6"/>
   </g>
   <g id="patch_42">
    <path d="M 190.410337 191.806234 
L 195.031267 191.806234 
L 195.031267 144.957445 
L 190.410337 144.957445 
z
" clip-path="url(#p4c99009a18)" style="fill: #b0e0e6"/>
   </g>
   <g id="patch_43">
    <path d="M 197.011665 191.806234 
L 201.632595 191.806234 
L 201.632595 155.265194 
L 197.011665 155.265194 
z
" clip-path="url(#p4c99009a18)" style="fill: #b0e0e6"/>
   </g>
   <g id="patch_44">
    <path d="M 203.612993 191.806234 
L 208.233922 191.806234 
L 208.233922 162.979464 
L 203.612993 162.979464 
z
" clip-path="url(#p4c99009a18)" style="fill: #b0e0e6"/>
   </g>
   <g id="patch_45">
    <path d="M 210.214321 191.806234 
L 214.83525 191.806234 
L 214.83525 168.860255 
L 210.214321 168.860255 
z
" clip-path="url(#p4c99009a18)" style="fill: #b0e0e6"/>
   </g>
   <g id="patch_46">
    <path d="M 216.815649 191.806234 
L 221.436578 191.806234 
L 221.436578 173.335329 
L 216.815649 173.335329 
z
" clip-path="url(#p4c99009a18)" style="fill: #b0e0e6"/>
   </g>
   <g id="patch_47">
    <path d="M 223.416976 191.806234 
L 228.037906 191.806234 
L 228.037906 176.843545 
L 223.416976 176.843545 
z
" clip-path="url(#p4c99009a18)" style="fill: #b0e0e6"/>
   </g>
   <g id="patch_48">
    <path d="M 230.018304 191.806234 
L 234.639234 191.806234 
L 234.639234 179.593153 
L 230.018304 179.593153 
z
" clip-path="url(#p4c99009a18)" style="fill: #b0e0e6"/>
   </g>
   <g id="patch_49">
    <path d="M 236.619632 191.806234 
L 241.240561 191.806234 
L 241.240561 181.734105 
L 236.619632 181.734105 
z
" clip-path="url(#p4c99009a18)" style="fill: #b0e0e6"/>
   </g>
   <g id="patch_50">
    <path d="M 243.22096 191.806234 
L 247.841889 191.806234 
L 247.841889 183.468208 
L 243.22096 183.468208 
z
" clip-path="url(#p4c99009a18)" style="fill: #b0e0e6"/>
   </g>
   <g id="patch_51">
    <path d="M 249.822287 191.806234 
L 254.443217 191.806234 
L 254.443217 184.862502 
L 249.822287 184.862502 
z
" clip-path="url(#p4c99009a18)" style="fill: #b0e0e6"/>
   </g>
   <g id="patch_52">
    <path d="M 256.423615 191.806234 
L 261.044545 191.806234 
L 261.044545 185.962993 
L 256.423615 185.962993 
z
" clip-path="url(#p4c99009a18)" style="fill: #b0e0e6"/>
   </g>
   <g id="patch_53">
    <path d="M 263.024943 191.806234 
L 267.645873 191.806234 
L 267.645873 186.879737 
L 263.024943 186.879737 
z
" clip-path="url(#p4c99009a18)" style="fill: #b0e0e6"/>
   </g>
   <g id="patch_54">
    <path d="M 269.626271 191.806234 
L 274.2472 191.806234 
L 274.2472 187.62553 
L 269.626271 187.62553 
z
" clip-path="url(#p4c99009a18)" style="fill: #b0e0e6"/>
   </g>
   <g id="patch_55">
    <path d="M 276.227599 191.806234 
L 280.848528 191.806234 
L 280.848528 188.2292 
L 276.227599 188.2292 
z
" clip-path="url(#p4c99009a18)" style="fill: #b0e0e6"/>
   </g>
   <g id="patch_56">
    <path d="M 282.828926 191.806234 
L 287.449856 191.806234 
L 287.449856 188.753513 
L 282.828926 188.753513 
z
" clip-path="url(#p4c99009a18)" style="fill: #b0e0e6"/>
   </g>
   <g id="patch_57">
    <path d="M 289.430254 191.806234 
L 294.051184 191.806234 
L 294.051184 189.169844 
L 289.430254 189.169844 
z
" clip-path="url(#p4c99009a18)" style="fill: #b0e0e6"/>
   </g>
   <g id="patch_58">
    <path d="M 296.031582 191.806234 
L 300.652511 191.806234 
L 300.652511 189.514398 
L 296.031582 189.514398 
z
" clip-path="url(#p4c99009a18)" style="fill: #b0e0e6"/>
   </g>
   <g id="patch_59">
    <path d="M 302.63291 191.806234 
L 307.253839 191.806234 
L 307.253839 189.830382 
L 302.63291 189.830382 
z
" clip-path="url(#p4c99009a18)" style="fill: #b0e0e6"/>
   </g>
   <g id="patch_60">
    <path d="M 309.234238 191.806234 
L 313.855167 191.806234 
L 313.855167 190.083149 
L 309.234238 190.083149 
z
" clip-path="url(#p4c99009a18)" style="fill: #b0e0e6"/>
   </g>
   <g id="patch_61">
    <path d="M 315.835565 191.806234 
L 320.456495 191.806234 
L 320.456495 190.31557 
L 315.835565 190.31557 
z
" clip-path="url(#p4c99009a18)" style="fill: #b0e0e6"/>
   </g>
   <g id="patch_62">
    <path d="M 322.436893 191.806234 
L 327.057823 191.806234 
L 327.057823 190.496079 
L 322.436893 190.496079 
z
" clip-path="url(#p4c99009a18)" style="fill: #b0e0e6"/>
   </g>
   <g id="patch_63">
    <path d="M 329.038221 191.806234 
L 333.65915 191.806234 
L 333.65915 190.659979 
L 329.038221 190.659979 
z
" clip-path="url(#p4c99009a18)" style="fill: #b0e0e6"/>
   </g>
   <g id="patch_64">
    <path d="M 335.639549 191.806234 
L 340.260478 191.806234 
L 340.260478 190.79778 
L 335.639549 190.79778 
z
" clip-path="url(#p4c99009a18)" style="fill: #b0e0e6"/>
   </g>
   <g id="patch_65">
    <path d="M 342.240877 191.806234 
L 346.861806 191.806234 
L 346.861806 190.917203 
L 342.240877 190.917203 
z
" clip-path="url(#p4c99009a18)" style="fill: #b0e0e6"/>
   </g>
   <g id="patch_66">
    <path d="M 348.842204 191.806234 
L 353.463134 191.806234 
L 353.463134 191.023841 
L 348.842204 191.023841 
z
" clip-path="url(#p4c99009a18)" style="fill: #b0e0e6"/>
   </g>
   <g id="patch_67">
    <path d="M 355.443532 191.806234 
L 360.064462 191.806234 
L 360.064462 191.121997 
L 355.443532 191.121997 
z
" clip-path="url(#p4c99009a18)" style="fill: #b0e0e6"/>
   </g>
   <g id="patch_68">
    <path d="M 362.04486 191.806234 
L 366.665789 191.806234 
L 366.665789 191.202439 
L 362.04486 191.202439 
z
" clip-path="url(#p4c99009a18)" style="fill: #b0e0e6"/>
   </g>
   <g id="patch_69">
    <path d="M 368.646188 191.806234 
L 373.267117 191.806234 
L 373.267117 191.2707 
L 368.646188 191.2707 
z
" clip-path="url(#p4c99009a18)" style="fill: #b0e0e6"/>
   </g>
   <g id="patch_70">
    <path d="M 375.247516 191.806234 
L 379.868445 191.806234 
L 379.868445 191.335763 
L 375.247516 191.335763 
z
" clip-path="url(#p4c99009a18)" style="fill: #b0e0e6"/>
   </g>
   <g id="patch_71">
    <path d="M 381.848843 191.806234 
L 386.469773 191.806234 
L 386.469773 191.38876 
L 381.848843 191.38876 
z
" clip-path="url(#p4c99009a18)" style="fill: #b0e0e6"/>
   </g>
   <g id="patch_72">
    <path d="M 388.450171 191.806234 
L 393.071101 191.806234 
L 393.071101 191.441075 
L 388.450171 191.441075 
z
" clip-path="url(#p4c99009a18)" style="fill: #b0e0e6"/>
   </g>
   <g id="patch_73">
    <path d="M 395.051499 191.806234 
L 399.672428 191.806234 
L 399.672428 191.479922 
L 395.051499 191.479922 
z
" clip-path="url(#p4c99009a18)" style="fill: #b0e0e6"/>
   </g>
   <g id="patch_74">
    <path d="M 401.652827 191.806234 
L 406.273756 191.806234 
L 406.273756 191.519298 
L 401.652827 191.519298 
z
" clip-path="url(#p4c99009a18)" style="fill: #b0e0e6"/>
   </g>
   <g id="patch_75">
    <path d="M 408.254155 191.806234 
L 412.875084 191.806234 
L 412.875084 191.551017 
L 408.254155 191.551017 
z
" clip-path="url(#p4c99009a18)" style="fill: #b0e0e6"/>
   </g>
   <g id="patch_76">
    <path d="M 414.855482 191.806234 
L 419.476412 191.806234 
L 419.476412 191.579788 
L 414.855482 191.579788 
z
" clip-path="url(#p4c99009a18)" style="fill: #b0e0e6"/>
   </g>
   <g id="patch_77">
    <path d="M 421.45681 191.806234 
L 426.07774 191.806234 
L 426.07774 191.60608 
L 421.45681 191.60608 
z
" clip-path="url(#p4c99009a18)" style="fill: #b0e0e6"/>
   </g>
   <g id="patch_78">
    <path d="M 428.058138 191.806234 
L 432.679067 191.806234 
L 432.679067 191.62802 
L 428.058138 191.62802 
z
" clip-path="url(#p4c99009a18)" style="fill: #b0e0e6"/>
   </g>
   <g id="patch_79">
    <path d="M 434.659466 191.806234 
L 439.280395 191.806234 
L 439.280395 191.648616 
L 434.659466 191.648616 
z
" clip-path="url(#p4c99009a18)" style="fill: #b0e0e6"/>
   </g>
   <g id="patch_80">
    <path d="M 441.260793 191.806234 
L 445.881723 191.806234 
L 445.881723 191.666666 
L 441.260793 191.666666 
z
" clip-path="url(#p4c99009a18)" style="fill: #b0e0e6"/>
   </g>
   <g id="patch_81">
    <path d="M 447.862121 191.806234 
L 452.483051 191.806234 
L 452.483051 191.682161 
L 447.862121 191.682161 
z
" clip-path="url(#p4c99009a18)" style="fill: #b0e0e6"/>
   </g>
   <g id="patch_82">
    <path d="M 454.463449 191.806234 
L 459.084379 191.806234 
L 459.084379 191.69584 
L 454.463449 191.69584 
z
" clip-path="url(#p4c99009a18)" style="fill: #b0e0e6"/>
   </g>
   <g id="patch_83">
    <path d="M 461.064777 191.806234 
L 465.685706 191.806234 
L 465.685706 191.708991 
L 461.064777 191.708991 
z
" clip-path="url(#p4c99009a18)" style="fill: #b0e0e6"/>
   </g>
   <g id="patch_84">
    <path d="M 467.666105 191.806234 
L 472.287034 191.806234 
L 472.287034 191.719087 
L 467.666105 191.719087 
z
" clip-path="url(#p4c99009a18)" style="fill: #b0e0e6"/>
   </g>
   <g id="patch_85">
    <path d="M 474.267432 191.806234 
L 478.888362 191.806234 
L 478.888362 191.726945 
L 474.267432 191.726945 
z
" clip-path="url(#p4c99009a18)" style="fill: #b0e0e6"/>
   </g>
   <g id="patch_86">
    <path d="M 480.86876 191.806234 
L 485.48969 191.806234 
L 485.48969 191.736224 
L 480.86876 191.736224 
z
" clip-path="url(#p4c99009a18)" style="fill: #b0e0e6"/>
   </g>
   <g id="patch_87">
    <path d="M 487.470088 191.806234 
L 492.091017 191.806234 
L 492.091017 191.744092 
L 487.470088 191.744092 
z
" clip-path="url(#p4c99009a18)" style="fill: #b0e0e6"/>
   </g>
   <g id="patch_88">
    <path d="M 494.071416 191.806234 
L 498.692345 191.806234 
L 498.692345 191.751853 
L 494.071416 191.751853 
z
" clip-path="url(#p4c99009a18)" style="fill: #b0e0e6"/>
   </g>
   <g id="patch_89">
    <path d="M 500.672744 191.806234 
L 505.293673 191.806234 
L 505.293673 191.756676 
L 500.672744 191.756676 
z
" clip-path="url(#p4c99009a18)" style="fill: #b0e0e6"/>
   </g>
   <g id="patch_90">
    <path d="M 507.274071 191.806234 
L 511.895001 191.806234 
L 511.895001 191.761411 
L 507.274071 191.761411 
z
" clip-path="url(#p4c99009a18)" style="fill: #b0e0e6"/>
   </g>
   <g id="patch_91">
    <path d="M 513.875399 191.806234 
L 518.496329 191.806234 
L 518.496329 191.766599 
L 513.875399 191.766599 
z
" clip-path="url(#p4c99009a18)" style="fill: #b0e0e6"/>
   </g>
   <g id="patch_92">
    <path d="M 520.476727 191.806234 
L 525.097656 191.806234 
L 525.097656 191.76998 
L 520.476727 191.76998 
z
" clip-path="url(#p4c99009a18)" style="fill: #b0e0e6"/>
   </g>
   <g id="patch_93">
    <path d="M 527.078055 191.806234 
L 531.698984 191.806234 
L 531.698984 191.774774 
L 527.078055 191.774774 
z
" clip-path="url(#p4c99009a18)" style="fill: #b0e0e6"/>
   </g>
   <g id="patch_94">
    <path d="M 533.679383 191.806234 
L 538.300312 191.806234 
L 538.300312 191.776628 
L 533.679383 191.776628 
z
" clip-path="url(#p4c99009a18)" style="fill: #b0e0e6"/>
   </g>
   <g id="patch_95">
    <path d="M 540.28071 191.806234 
L 544.90164 191.806234 
L 544.90164 191.780912 
L 540.28071 191.780912 
z
" clip-path="url(#p4c99009a18)" style="fill: #b0e0e6"/>
   </g>
   <g id="patch_96">
    <path d="M 546.882038 191.806234 
L 551.502968 191.806234 
L 551.502968 191.783112 
L 546.882038 191.783112 
z
" clip-path="url(#p4c99009a18)" style="fill: #b0e0e6"/>
   </g>
   <g id="patch_97">
    <path d="M 553.483366 191.806234 
L 558.104295 191.806234 
L 558.104295 191.785629 
L 553.483366 191.785629 
z
" clip-path="url(#p4c99009a18)" style="fill: #b0e0e6"/>
   </g>
   <g id="patch_98">
    <path d="M 560.084694 191.806234 
L 564.705623 191.806234 
L 564.705623 191.786301 
L 560.084694 191.786301 
z
" clip-path="url(#p4c99009a18)" style="fill: #b0e0e6"/>
   </g>
   <g id="patch_99">
    <path d="M 566.686022 191.806234 
L 571.306951 191.806234 
L 571.306951 191.78901 
L 566.686022 191.78901 
z
" clip-path="url(#p4c99009a18)" style="fill: #b0e0e6"/>
   </g>
   <g id="patch_100">
    <path d="M 573.287349 191.806234 
L 577.908279 191.806234 
L 577.908279 191.789759 
L 573.287349 191.789759 
z
" clip-path="url(#p4c99009a18)" style="fill: #b0e0e6"/>
   </g>
   <g id="patch_101">
    <path d="M 579.888677 191.806234 
L 584.509607 191.806234 
L 584.509607 191.79144 
L 579.888677 191.79144 
z
" clip-path="url(#p4c99009a18)" style="fill: #b0e0e6"/>
   </g>
   <g id="patch_102">
    <path d="M 586.490005 191.806234 
L 591.110934 191.806234 
L 591.110934 191.610777 
L 586.490005 191.610777 
z
" clip-path="url(#p4c99009a18)" style="fill: #b0e0e6"/>
   </g>
   <g id="matplotlib.axis_1">
    <g id="xtick_1">
     <g id="line2d_1">
      <defs>
       <path id="ma41a774718" d="M 0 0 
L 0 3.5 
" style="stroke: #000000; stroke-width: 0.8"/>
      </defs>
      <g>
       <use xlink:href="#ma41a774718" x="111.304426" y="191.806234" style="stroke: #000000; stroke-width: 0.8"/>
      </g>
     </g>
     <g id="text_1">
      <!-- −20 -->
      <g transform="translate(100.752082 206.404671) scale(0.1 -0.1)">
       <defs>
        <path id="DejaVuSans-2212" d="M 678 2272 
L 4684 2272 
L 4684 1741 
L 678 1741 
L 678 2272 
z
" transform="scale(0.015625)"/>
        <path id="DejaVuSans-32" d="M 1228 531 
L 3431 531 
L 3431 0 
L 469 0 
L 469 531 
Q 828 903 1448 1529 
Q 2069 2156 2228 2338 
Q 2531 2678 2651 2914 
Q 2772 3150 2772 3378 
Q 2772 3750 2511 3984 
Q 2250 4219 1831 4219 
Q 1534 4219 1204 4116 
Q 875 4013 500 3803 
L 500 4441 
Q 881 4594 1212 4672 
Q 1544 4750 1819 4750 
Q 2544 4750 2975 4387 
Q 3406 4025 3406 3419 
Q 3406 3131 3298 2873 
Q 3191 2616 2906 2266 
Q 2828 2175 2409 1742 
Q 1991 1309 1228 531 
z
" transform="scale(0.015625)"/>
        <path id="DejaVuSans-30" d="M 2034 4250 
Q 1547 4250 1301 3770 
Q 1056 3291 1056 2328 
Q 1056 1369 1301 889 
Q 1547 409 2034 409 
Q 2525 409 2770 889 
Q 3016 1369 3016 2328 
Q 3016 3291 2770 3770 
Q 2525 4250 2034 4250 
z
M 2034 4750 
Q 2819 4750 3233 4129 
Q 3647 3509 3647 2328 
Q 3647 1150 3233 529 
Q 2819 -91 2034 -91 
Q 1250 -91 836 529 
Q 422 1150 422 2328 
Q 422 3509 836 4129 
Q 1250 4750 2034 4750 
z
" transform="scale(0.015625)"/>
       </defs>
       <use xlink:href="#DejaVuSans-2212"/>
       <use xlink:href="#DejaVuSans-32" x="83.789062"/>
       <use xlink:href="#DejaVuSans-30" x="147.412109"/>
      </g>
     </g>
    </g>
    <g id="xtick_2">
     <g id="line2d_2">
      <g>
       <use xlink:href="#ma41a774718" x="155.313278" y="191.806234" style="stroke: #000000; stroke-width: 0.8"/>
      </g>
     </g>
     <g id="text_2">
      <!-- 0 -->
      <g transform="translate(152.132028 206.404671) scale(0.1 -0.1)">
       <use xlink:href="#DejaVuSans-30"/>
      </g>
     </g>
    </g>
    <g id="xtick_3">
     <g id="line2d_3">
      <g>
       <use xlink:href="#ma41a774718" x="199.32213" y="191.806234" style="stroke: #000000; stroke-width: 0.8"/>
      </g>
     </g>
     <g id="text_3">
      <!-- 20 -->
      <g transform="translate(192.95963 206.404671) scale(0.1 -0.1)">
       <use xlink:href="#DejaVuSans-32"/>
       <use xlink:href="#DejaVuSans-30" x="63.623047"/>
      </g>
     </g>
    </g>
    <g id="xtick_4">
     <g id="line2d_4">
      <g>
       <use xlink:href="#ma41a774718" x="243.330982" y="191.806234" style="stroke: #000000; stroke-width: 0.8"/>
      </g>
     </g>
     <g id="text_4">
      <!-- 40 -->
      <g transform="translate(236.968482 206.404671) scale(0.1 -0.1)">
       <defs>
        <path id="DejaVuSans-34" d="M 2419 4116 
L 825 1625 
L 2419 1625 
L 2419 4116 
z
M 2253 4666 
L 3047 4666 
L 3047 1625 
L 3713 1625 
L 3713 1100 
L 3047 1100 
L 3047 0 
L 2419 0 
L 2419 1100 
L 313 1100 
L 313 1709 
L 2253 4666 
z
" transform="scale(0.015625)"/>
       </defs>
       <use xlink:href="#DejaVuSans-34"/>
       <use xlink:href="#DejaVuSans-30" x="63.623047"/>
      </g>
     </g>
    </g>
    <g id="xtick_5">
     <g id="line2d_5">
      <g>
       <use xlink:href="#ma41a774718" x="287.339834" y="191.806234" style="stroke: #000000; stroke-width: 0.8"/>
      </g>
     </g>
     <g id="text_5">
      <!-- 60 -->
      <g transform="translate(280.977334 206.404671) scale(0.1 -0.1)">
       <defs>
        <path id="DejaVuSans-36" d="M 2113 2584 
Q 1688 2584 1439 2293 
Q 1191 2003 1191 1497 
Q 1191 994 1439 701 
Q 1688 409 2113 409 
Q 2538 409 2786 701 
Q 3034 994 3034 1497 
Q 3034 2003 2786 2293 
Q 2538 2584 2113 2584 
z
M 3366 4563 
L 3366 3988 
Q 3128 4100 2886 4159 
Q 2644 4219 2406 4219 
Q 1781 4219 1451 3797 
Q 1122 3375 1075 2522 
Q 1259 2794 1537 2939 
Q 1816 3084 2150 3084 
Q 2853 3084 3261 2657 
Q 3669 2231 3669 1497 
Q 3669 778 3244 343 
Q 2819 -91 2113 -91 
Q 1303 -91 875 529 
Q 447 1150 447 2328 
Q 447 3434 972 4092 
Q 1497 4750 2381 4750 
Q 2619 4750 2861 4703 
Q 3103 4656 3366 4563 
z
" transform="scale(0.015625)"/>
       </defs>
       <use xlink:href="#DejaVuSans-36"/>
       <use xlink:href="#DejaVuSans-30" x="63.623047"/>
      </g>
     </g>
    </g>
    <g id="xtick_6">
     <g id="line2d_6">
      <g>
       <use xlink:href="#ma41a774718" x="331.348686" y="191.806234" style="stroke: #000000; stroke-width: 0.8"/>
      </g>
     </g>
     <g id="text_6">
      <!-- 80 -->
      <g transform="translate(324.986186 206.404671) scale(0.1 -0.1)">
       <defs>
        <path id="DejaVuSans-38" d="M 2034 2216 
Q 1584 2216 1326 1975 
Q 1069 1734 1069 1313 
Q 1069 891 1326 650 
Q 1584 409 2034 409 
Q 2484 409 2743 651 
Q 3003 894 3003 1313 
Q 3003 1734 2745 1975 
Q 2488 2216 2034 2216 
z
M 1403 2484 
Q 997 2584 770 2862 
Q 544 3141 544 3541 
Q 544 4100 942 4425 
Q 1341 4750 2034 4750 
Q 2731 4750 3128 4425 
Q 3525 4100 3525 3541 
Q 3525 3141 3298 2862 
Q 3072 2584 2669 2484 
Q 3125 2378 3379 2068 
Q 3634 1759 3634 1313 
Q 3634 634 3220 271 
Q 2806 -91 2034 -91 
Q 1263 -91 848 271 
Q 434 634 434 1313 
Q 434 1759 690 2068 
Q 947 2378 1403 2484 
z
M 1172 3481 
Q 1172 3119 1398 2916 
Q 1625 2713 2034 2713 
Q 2441 2713 2670 2916 
Q 2900 3119 2900 3481 
Q 2900 3844 2670 4047 
Q 2441 4250 2034 4250 
Q 1625 4250 1398 4047 
Q 1172 3844 1172 3481 
z
" transform="scale(0.015625)"/>
       </defs>
       <use xlink:href="#DejaVuSans-38"/>
       <use xlink:href="#DejaVuSans-30" x="63.623047"/>
      </g>
     </g>
    </g>
    <g id="text_7">
     <!-- Diff score -->
     <g transform="translate(186.543093 220.082796) scale(0.1 -0.1)">
      <defs>
       <path id="DejaVuSans-44" d="M 1259 4147 
L 1259 519 
L 2022 519 
Q 2988 519 3436 956 
Q 3884 1394 3884 2338 
Q 3884 3275 3436 3711 
Q 2988 4147 2022 4147 
L 1259 4147 
z
M 628 4666 
L 1925 4666 
Q 3281 4666 3915 4102 
Q 4550 3538 4550 2338 
Q 4550 1131 3912 565 
Q 3275 0 1925 0 
L 628 0 
L 628 4666 
z
" transform="scale(0.015625)"/>
       <path id="DejaVuSans-69" d="M 603 3500 
L 1178 3500 
L 1178 0 
L 603 0 
L 603 3500 
z
M 603 4863 
L 1178 4863 
L 1178 4134 
L 603 4134 
L 603 4863 
z
" transform="scale(0.015625)"/>
       <path id="DejaVuSans-66" d="M 2375 4863 
L 2375 4384 
L 1825 4384 
Q 1516 4384 1395 4259 
Q 1275 4134 1275 3809 
L 1275 3500 
L 2222 3500 
L 2222 3053 
L 1275 3053 
L 1275 0 
L 697 0 
L 697 3053 
L 147 3053 
L 147 3500 
L 697 3500 
L 697 3744 
Q 697 4328 969 4595 
Q 1241 4863 1831 4863 
L 2375 4863 
z
" transform="scale(0.015625)"/>
       <path id="DejaVuSans-20" transform="scale(0.015625)"/>
       <path id="DejaVuSans-73" d="M 2834 3397 
L 2834 2853 
Q 2591 2978 2328 3040 
Q 2066 3103 1784 3103 
Q 1356 3103 1142 2972 
Q 928 2841 928 2578 
Q 928 2378 1081 2264 
Q 1234 2150 1697 2047 
L 1894 2003 
Q 2506 1872 2764 1633 
Q 3022 1394 3022 966 
Q 3022 478 2636 193 
Q 2250 -91 1575 -91 
Q 1294 -91 989 -36 
Q 684 19 347 128 
L 347 722 
Q 666 556 975 473 
Q 1284 391 1588 391 
Q 1994 391 2212 530 
Q 2431 669 2431 922 
Q 2431 1156 2273 1281 
Q 2116 1406 1581 1522 
L 1381 1569 
Q 847 1681 609 1914 
Q 372 2147 372 2553 
Q 372 3047 722 3315 
Q 1072 3584 1716 3584 
Q 2034 3584 2315 3537 
Q 2597 3491 2834 3397 
z
" transform="scale(0.015625)"/>
       <path id="DejaVuSans-63" d="M 3122 3366 
L 3122 2828 
Q 2878 2963 2633 3030 
Q 2388 3097 2138 3097 
Q 1578 3097 1268 2742 
Q 959 2388 959 1747 
Q 959 1106 1268 751 
Q 1578 397 2138 397 
Q 2388 397 2633 464 
Q 2878 531 3122 666 
L 3122 134 
Q 2881 22 2623 -34 
Q 2366 -91 2075 -91 
Q 1284 -91 818 406 
Q 353 903 353 1747 
Q 353 2603 823 3093 
Q 1294 3584 2113 3584 
Q 2378 3584 2631 3529 
Q 2884 3475 3122 3366 
z
" transform="scale(0.015625)"/>
       <path id="DejaVuSans-6f" d="M 1959 3097 
Q 1497 3097 1228 2736 
Q 959 2375 959 1747 
Q 959 1119 1226 758 
Q 1494 397 1959 397 
Q 2419 397 2687 759 
Q 2956 1122 2956 1747 
Q 2956 2369 2687 2733 
Q 2419 3097 1959 3097 
z
M 1959 3584 
Q 2709 3584 3137 3096 
Q 3566 2609 3566 1747 
Q 3566 888 3137 398 
Q 2709 -91 1959 -91 
Q 1206 -91 779 398 
Q 353 888 353 1747 
Q 353 2609 779 3096 
Q 1206 3584 1959 3584 
z
" transform="scale(0.015625)"/>
       <path id="DejaVuSans-72" d="M 2631 2963 
Q 2534 3019 2420 3045 
Q 2306 3072 2169 3072 
Q 1681 3072 1420 2755 
Q 1159 2438 1159 1844 
L 1159 0 
L 581 0 
L 581 3500 
L 1159 3500 
L 1159 2956 
Q 1341 3275 1631 3429 
Q 1922 3584 2338 3584 
Q 2397 3584 2469 3576 
Q 2541 3569 2628 3553 
L 2631 2963 
z
" transform="scale(0.015625)"/>
       <path id="DejaVuSans-65" d="M 3597 1894 
L 3597 1613 
L 953 1613 
Q 991 1019 1311 708 
Q 1631 397 2203 397 
Q 2534 397 2845 478 
Q 3156 559 3463 722 
L 3463 178 
Q 3153 47 2828 -22 
Q 2503 -91 2169 -91 
Q 1331 -91 842 396 
Q 353 884 353 1716 
Q 353 2575 817 3079 
Q 1281 3584 2069 3584 
Q 2775 3584 3186 3129 
Q 3597 2675 3597 1894 
z
M 3022 2063 
Q 3016 2534 2758 2815 
Q 2500 3097 2075 3097 
Q 1594 3097 1305 2825 
Q 1016 2553 972 2059 
L 3022 2063 
z
" transform="scale(0.015625)"/>
      </defs>
      <use xlink:href="#DejaVuSans-44"/>
      <use xlink:href="#DejaVuSans-69" x="77.001953"/>
      <use xlink:href="#DejaVuSans-66" x="104.785156"/>
      <use xlink:href="#DejaVuSans-66" x="139.990234"/>
      <use xlink:href="#DejaVuSans-20" x="175.195312"/>
      <use xlink:href="#DejaVuSans-73" x="206.982422"/>
      <use xlink:href="#DejaVuSans-63" x="259.082031"/>
      <use xlink:href="#DejaVuSans-6f" x="314.0625"/>
      <use xlink:href="#DejaVuSans-72" x="375.244141"/>
      <use xlink:href="#DejaVuSans-65" x="414.107422"/>
     </g>
    </g>
   </g>
   <g id="matplotlib.axis_2">
    <g id="ytick_1">
     <g id="line2d_7">
      <defs>
       <path id="mebb3a88999" d="M 0 0 
L -3.5 0 
" style="stroke: #000000; stroke-width: 0.8"/>
      </defs>
      <g>
       <use xlink:href="#mebb3a88999" x="89.3" y="191.806234" style="stroke: #000000; stroke-width: 0.8"/>
      </g>
     </g>
     <g id="text_8">
      <!-- 0 -->
      <g transform="translate(75.9375 195.605453) scale(0.1 -0.1)">
       <use xlink:href="#DejaVuSans-30"/>
      </g>
     </g>
    </g>
    <g id="ytick_2">
     <g id="line2d_8">
      <g>
       <use xlink:href="#mebb3a88999" x="89.3" y="167.79085" style="stroke: #000000; stroke-width: 0.8"/>
      </g>
     </g>
     <g id="text_9">
      <!-- 2,500,000 -->
      <g transform="translate(31.40625 171.590068) scale(0.1 -0.1)">
       <defs>
        <path id="DejaVuSans-2c" d="M 750 794 
L 1409 794 
L 1409 256 
L 897 -744 
L 494 -744 
L 750 256 
L 750 794 
z
" transform="scale(0.015625)"/>
        <path id="DejaVuSans-35" d="M 691 4666 
L 3169 4666 
L 3169 4134 
L 1269 4134 
L 1269 2991 
Q 1406 3038 1543 3061 
Q 1681 3084 1819 3084 
Q 2600 3084 3056 2656 
Q 3513 2228 3513 1497 
Q 3513 744 3044 326 
Q 2575 -91 1722 -91 
Q 1428 -91 1123 -41 
Q 819 9 494 109 
L 494 744 
Q 775 591 1075 516 
Q 1375 441 1709 441 
Q 2250 441 2565 725 
Q 2881 1009 2881 1497 
Q 2881 1984 2565 2268 
Q 2250 2553 1709 2553 
Q 1456 2553 1204 2497 
Q 953 2441 691 2322 
L 691 4666 
z
" transform="scale(0.015625)"/>
       </defs>
       <use xlink:href="#DejaVuSans-32"/>
       <use xlink:href="#DejaVuSans-2c" x="63.623047"/>
       <use xlink:href="#DejaVuSans-35" x="95.410156"/>
       <use xlink:href="#DejaVuSans-30" x="159.033203"/>
       <use xlink:href="#DejaVuSans-30" x="222.65625"/>
       <use xlink:href="#DejaVuSans-2c" x="286.279297"/>
       <use xlink:href="#DejaVuSans-30" x="318.066406"/>
       <use xlink:href="#DejaVuSans-30" x="381.689453"/>
       <use xlink:href="#DejaVuSans-30" x="445.3125"/>
      </g>
     </g>
    </g>
    <g id="ytick_3">
     <g id="line2d_9">
      <g>
       <use xlink:href="#mebb3a88999" x="89.3" y="143.775466" style="stroke: #000000; stroke-width: 0.8"/>
      </g>
     </g>
     <g id="text_10">
      <!-- 5,000,000 -->
      <g transform="translate(31.40625 147.574684) scale(0.1 -0.1)">
       <use xlink:href="#DejaVuSans-35"/>
       <use xlink:href="#DejaVuSans-2c" x="63.623047"/>
       <use xlink:href="#DejaVuSans-30" x="95.410156"/>
       <use xlink:href="#DejaVuSans-30" x="159.033203"/>
       <use xlink:href="#DejaVuSans-30" x="222.65625"/>
       <use xlink:href="#DejaVuSans-2c" x="286.279297"/>
       <use xlink:href="#DejaVuSans-30" x="318.066406"/>
       <use xlink:href="#DejaVuSans-30" x="381.689453"/>
       <use xlink:href="#DejaVuSans-30" x="445.3125"/>
      </g>
     </g>
    </g>
    <g id="ytick_4">
     <g id="line2d_10">
      <g>
       <use xlink:href="#mebb3a88999" x="89.3" y="119.760082" style="stroke: #000000; stroke-width: 0.8"/>
      </g>
     </g>
     <g id="text_11">
      <!-- 7,500,000 -->
      <g transform="translate(31.40625 123.5593) scale(0.1 -0.1)">
       <defs>
        <path id="DejaVuSans-37" d="M 525 4666 
L 3525 4666 
L 3525 4397 
L 1831 0 
L 1172 0 
L 2766 4134 
L 525 4134 
L 525 4666 
z
" transform="scale(0.015625)"/>
       </defs>
       <use xlink:href="#DejaVuSans-37"/>
       <use xlink:href="#DejaVuSans-2c" x="63.623047"/>
       <use xlink:href="#DejaVuSans-35" x="95.410156"/>
       <use xlink:href="#DejaVuSans-30" x="159.033203"/>
       <use xlink:href="#DejaVuSans-30" x="222.65625"/>
       <use xlink:href="#DejaVuSans-2c" x="286.279297"/>
       <use xlink:href="#DejaVuSans-30" x="318.066406"/>
       <use xlink:href="#DejaVuSans-30" x="381.689453"/>
       <use xlink:href="#DejaVuSans-30" x="445.3125"/>
      </g>
     </g>
    </g>
    <g id="ytick_5">
     <g id="line2d_11">
      <g>
       <use xlink:href="#mebb3a88999" x="89.3" y="95.744698" style="stroke: #000000; stroke-width: 0.8"/>
      </g>
     </g>
     <g id="text_12">
      <!-- 10,000,000 -->
      <g transform="translate(25.04375 99.543916) scale(0.1 -0.1)">
       <defs>
        <path id="DejaVuSans-31" d="M 794 531 
L 1825 531 
L 1825 4091 
L 703 3866 
L 703 4441 
L 1819 4666 
L 2450 4666 
L 2450 531 
L 3481 531 
L 3481 0 
L 794 0 
L 794 531 
z
" transform="scale(0.015625)"/>
       </defs>
       <use xlink:href="#DejaVuSans-31"/>
       <use xlink:href="#DejaVuSans-30" x="63.623047"/>
       <use xlink:href="#DejaVuSans-2c" x="127.246094"/>
       <use xlink:href="#DejaVuSans-30" x="159.033203"/>
       <use xlink:href="#DejaVuSans-30" x="222.65625"/>
       <use xlink:href="#DejaVuSans-30" x="286.279297"/>
       <use xlink:href="#DejaVuSans-2c" x="349.902344"/>
       <use xlink:href="#DejaVuSans-30" x="381.689453"/>
       <use xlink:href="#DejaVuSans-30" x="445.3125"/>
       <use xlink:href="#DejaVuSans-30" x="508.935547"/>
      </g>
     </g>
    </g>
    <g id="ytick_6">
     <g id="line2d_12">
      <g>
       <use xlink:href="#mebb3a88999" x="89.3" y="71.729314" style="stroke: #000000; stroke-width: 0.8"/>
      </g>
     </g>
     <g id="text_13">
      <!-- 12,500,000 -->
      <g transform="translate(25.04375 75.528532) scale(0.1 -0.1)">
       <use xlink:href="#DejaVuSans-31"/>
       <use xlink:href="#DejaVuSans-32" x="63.623047"/>
       <use xlink:href="#DejaVuSans-2c" x="127.246094"/>
       <use xlink:href="#DejaVuSans-35" x="159.033203"/>
       <use xlink:href="#DejaVuSans-30" x="222.65625"/>
       <use xlink:href="#DejaVuSans-30" x="286.279297"/>
       <use xlink:href="#DejaVuSans-2c" x="349.902344"/>
       <use xlink:href="#DejaVuSans-30" x="381.689453"/>
       <use xlink:href="#DejaVuSans-30" x="445.3125"/>
       <use xlink:href="#DejaVuSans-30" x="508.935547"/>
      </g>
     </g>
    </g>
    <g id="ytick_7">
     <g id="line2d_13">
      <g>
       <use xlink:href="#mebb3a88999" x="89.3" y="47.71393" style="stroke: #000000; stroke-width: 0.8"/>
      </g>
     </g>
     <g id="text_14">
      <!-- 15,000,000 -->
      <g transform="translate(25.04375 51.513148) scale(0.1 -0.1)">
       <use xlink:href="#DejaVuSans-31"/>
       <use xlink:href="#DejaVuSans-35" x="63.623047"/>
       <use xlink:href="#DejaVuSans-2c" x="127.246094"/>
       <use xlink:href="#DejaVuSans-30" x="159.033203"/>
       <use xlink:href="#DejaVuSans-30" x="222.65625"/>
       <use xlink:href="#DejaVuSans-30" x="286.279297"/>
       <use xlink:href="#DejaVuSans-2c" x="349.902344"/>
       <use xlink:href="#DejaVuSans-30" x="381.689453"/>
       <use xlink:href="#DejaVuSans-30" x="445.3125"/>
       <use xlink:href="#DejaVuSans-30" x="508.935547"/>
      </g>
     </g>
    </g>
    <g id="text_15">
     <!-- Nr. hits -->
     <g transform="translate(18.964063 126.263742) rotate(-90) scale(0.1 -0.1)">
      <defs>
       <path id="DejaVuSans-4e" d="M 628 4666 
L 1478 4666 
L 3547 763 
L 3547 4666 
L 4159 4666 
L 4159 0 
L 3309 0 
L 1241 3903 
L 1241 0 
L 628 0 
L 628 4666 
z
" transform="scale(0.015625)"/>
       <path id="DejaVuSans-2e" d="M 684 794 
L 1344 794 
L 1344 0 
L 684 0 
L 684 794 
z
" transform="scale(0.015625)"/>
       <path id="DejaVuSans-68" d="M 3513 2113 
L 3513 0 
L 2938 0 
L 2938 2094 
Q 2938 2591 2744 2837 
Q 2550 3084 2163 3084 
Q 1697 3084 1428 2787 
Q 1159 2491 1159 1978 
L 1159 0 
L 581 0 
L 581 4863 
L 1159 4863 
L 1159 2956 
Q 1366 3272 1645 3428 
Q 1925 3584 2291 3584 
Q 2894 3584 3203 3211 
Q 3513 2838 3513 2113 
z
" transform="scale(0.015625)"/>
       <path id="DejaVuSans-74" d="M 1172 4494 
L 1172 3500 
L 2356 3500 
L 2356 3053 
L 1172 3053 
L 1172 1153 
Q 1172 725 1289 603 
Q 1406 481 1766 481 
L 2356 481 
L 2356 0 
L 1766 0 
Q 1100 0 847 248 
Q 594 497 594 1153 
L 594 3053 
L 172 3053 
L 172 3500 
L 594 3500 
L 594 4494 
L 1172 4494 
z
" transform="scale(0.015625)"/>
      </defs>
      <use xlink:href="#DejaVuSans-4e"/>
      <use xlink:href="#DejaVuSans-72" x="74.804688"/>
      <use xlink:href="#DejaVuSans-2e" x="106.792969"/>
      <use xlink:href="#DejaVuSans-20" x="138.580078"/>
      <use xlink:href="#DejaVuSans-68" x="170.367188"/>
      <use xlink:href="#DejaVuSans-69" x="233.746094"/>
      <use xlink:href="#DejaVuSans-74" x="261.529297"/>
      <use xlink:href="#DejaVuSans-73" x="300.738281"/>
     </g>
    </g>
   </g>
   <g id="line2d_14">
    <path d="M -1 191.806234 
L 1.282296 191.806234 
L 7.883624 191.806234 
L 14.484952 191.806234 
L 21.086279 191.806234 
L 27.687607 191.806234 
L 34.288935 191.806234 
L 40.890263 191.806234 
L 47.491591 191.806234 
L 54.092918 191.806234 
L 60.694246 191.806234 
L 67.295574 191.806234 
L 73.896902 191.806234 
L 80.49823 191.806234 
L 87.099557 191.806234 
L 93.700885 191.806234 
L 100.302213 191.806234 
L 106.903541 191.806076 
L 113.504869 191.77935 
L 120.106196 190.989146 
L 126.707524 184.211295 
L 133.308852 160.536061 
L 139.91018 118.243109 
L 146.511508 74.014452 
L 153.112835 47.018079 
L 159.714163 43.411132 
L 166.315491 57.574993 
L 172.916819 80.377314 
L 179.518147 104.607203 
L 186.119474 126.281003 
L 192.720802 143.921534 
L 199.32213 157.477148 
L 205.923458 167.517371 
L 212.524785 174.776016 
L 219.126113 179.939515 
L 225.727441 183.572752 
L 232.328769 186.110369 
L 238.930097 187.873829 
L 245.531424 189.095083 
L 252.132752 189.938847 
L 258.73408 190.520858 
L 265.335408 190.921872 
L 271.936736 191.197965 
L 278.538063 191.387953 
L 285.139391 191.518641 
L 291.740719 191.608517 
L 298.342047 191.670315 
L 304.943375 191.712802 
L 311.544702 191.74201 
L 318.14603 191.762088 
L 324.747358 191.77589 
L 331.348686 191.785377 
L 337.950014 191.791898 
L 344.551341 191.79638 
L 351.152669 191.799461 
L 357.753997 191.801579 
L 364.355325 191.803034 
L 370.956652 191.804034 
L 377.55798 191.804722 
L 384.159308 191.805195 
L 390.760636 191.80552 
L 397.361964 191.805743 
L 403.963291 191.805896 
L 410.564619 191.806002 
L 417.165947 191.806074 
L 423.767275 191.806124 
L 430.368603 191.806158 
L 436.96993 191.806182 
L 443.571258 191.806198 
L 450.172586 191.806209 
L 456.773914 191.806217 
L 463.375242 191.806222 
L 469.976569 191.806226 
L 476.577897 191.806228 
L 483.179225 191.80623 
L 489.780553 191.806231 
L 496.381881 191.806232 
L 502.983208 191.806233 
L 509.584536 191.806233 
L 516.185864 191.806233 
L 522.787192 191.806233 
L 529.38852 191.806233 
L 535.989847 191.806234 
L 542.591175 191.806234 
L 549.192503 191.806234 
L 555.793831 191.806234 
L 562.395158 191.806234 
L 568.996486 191.806234 
L 575.597814 191.806234 
L 582.199142 191.806234 
L 588.80047 191.806234 
" clip-path="url(#p4c99009a18)" style="fill: none; stroke: #000000; stroke-width: 1.5; stroke-linecap: square"/>
   </g>
   <g id="patch_103">
    <path d="M 89.3 191.806234 
L 89.3 25.44 
" style="fill: none; stroke: #000000; stroke-width: 0.8; stroke-linejoin: miter; stroke-linecap: square"/>
   </g>
   <g id="patch_104">
    <path d="M 331.348686 191.806234 
L 331.348686 25.44 
" style="fill: none; stroke: #000000; stroke-width: 0.8; stroke-linejoin: miter; stroke-linecap: square"/>
   </g>
   <g id="patch_105">
    <path d="M 89.3 191.806234 
L 331.348686 191.806234 
" style="fill: none; stroke: #000000; stroke-width: 0.8; stroke-linejoin: miter; stroke-linecap: square"/>
   </g>
   <g id="patch_106">
    <path d="M 89.3 25.44 
L 331.348686 25.44 
" style="fill: none; stroke: #000000; stroke-width: 0.8; stroke-linejoin: miter; stroke-linecap: square"/>
   </g>
   <g id="text_16">
    <!-- Foldseek SCOP40 -->
    <g transform="translate(158.078405 19.44) scale(0.12 -0.12)">
     <defs>
      <path id="DejaVuSans-46" d="M 628 4666 
L 3309 4666 
L 3309 4134 
L 1259 4134 
L 1259 2759 
L 3109 2759 
L 3109 2228 
L 1259 2228 
L 1259 0 
L 628 0 
L 628 4666 
z
" transform="scale(0.015625)"/>
      <path id="DejaVuSans-6c" d="M 603 4863 
L 1178 4863 
L 1178 0 
L 603 0 
L 603 4863 
z
" transform="scale(0.015625)"/>
      <path id="DejaVuSans-64" d="M 2906 2969 
L 2906 4863 
L 3481 4863 
L 3481 0 
L 2906 0 
L 2906 525 
Q 2725 213 2448 61 
Q 2172 -91 1784 -91 
Q 1150 -91 751 415 
Q 353 922 353 1747 
Q 353 2572 751 3078 
Q 1150 3584 1784 3584 
Q 2172 3584 2448 3432 
Q 2725 3281 2906 2969 
z
M 947 1747 
Q 947 1113 1208 752 
Q 1469 391 1925 391 
Q 2381 391 2643 752 
Q 2906 1113 2906 1747 
Q 2906 2381 2643 2742 
Q 2381 3103 1925 3103 
Q 1469 3103 1208 2742 
Q 947 2381 947 1747 
z
" transform="scale(0.015625)"/>
      <path id="DejaVuSans-6b" d="M 581 4863 
L 1159 4863 
L 1159 1991 
L 2875 3500 
L 3609 3500 
L 1753 1863 
L 3688 0 
L 2938 0 
L 1159 1709 
L 1159 0 
L 581 0 
L 581 4863 
z
" transform="scale(0.015625)"/>
      <path id="DejaVuSans-53" d="M 3425 4513 
L 3425 3897 
Q 3066 4069 2747 4153 
Q 2428 4238 2131 4238 
Q 1616 4238 1336 4038 
Q 1056 3838 1056 3469 
Q 1056 3159 1242 3001 
Q 1428 2844 1947 2747 
L 2328 2669 
Q 3034 2534 3370 2195 
Q 3706 1856 3706 1288 
Q 3706 609 3251 259 
Q 2797 -91 1919 -91 
Q 1588 -91 1214 -16 
Q 841 59 441 206 
L 441 856 
Q 825 641 1194 531 
Q 1563 422 1919 422 
Q 2459 422 2753 634 
Q 3047 847 3047 1241 
Q 3047 1584 2836 1778 
Q 2625 1972 2144 2069 
L 1759 2144 
Q 1053 2284 737 2584 
Q 422 2884 422 3419 
Q 422 4038 858 4394 
Q 1294 4750 2059 4750 
Q 2388 4750 2728 4690 
Q 3069 4631 3425 4513 
z
" transform="scale(0.015625)"/>
      <path id="DejaVuSans-43" d="M 4122 4306 
L 4122 3641 
Q 3803 3938 3442 4084 
Q 3081 4231 2675 4231 
Q 1875 4231 1450 3742 
Q 1025 3253 1025 2328 
Q 1025 1406 1450 917 
Q 1875 428 2675 428 
Q 3081 428 3442 575 
Q 3803 722 4122 1019 
L 4122 359 
Q 3791 134 3420 21 
Q 3050 -91 2638 -91 
Q 1578 -91 968 557 
Q 359 1206 359 2328 
Q 359 3453 968 4101 
Q 1578 4750 2638 4750 
Q 3056 4750 3426 4639 
Q 3797 4528 4122 4306 
z
" transform="scale(0.015625)"/>
      <path id="DejaVuSans-4f" d="M 2522 4238 
Q 1834 4238 1429 3725 
Q 1025 3213 1025 2328 
Q 1025 1447 1429 934 
Q 1834 422 2522 422 
Q 3209 422 3611 934 
Q 4013 1447 4013 2328 
Q 4013 3213 3611 3725 
Q 3209 4238 2522 4238 
z
M 2522 4750 
Q 3503 4750 4090 4092 
Q 4678 3434 4678 2328 
Q 4678 1225 4090 567 
Q 3503 -91 2522 -91 
Q 1538 -91 948 565 
Q 359 1222 359 2328 
Q 359 3434 948 4092 
Q 1538 4750 2522 4750 
z
" transform="scale(0.015625)"/>
      <path id="DejaVuSans-50" d="M 1259 4147 
L 1259 2394 
L 2053 2394 
Q 2494 2394 2734 2622 
Q 2975 2850 2975 3272 
Q 2975 3691 2734 3919 
Q 2494 4147 2053 4147 
L 1259 4147 
z
M 628 4666 
L 2053 4666 
Q 2838 4666 3239 4311 
Q 3641 3956 3641 3272 
Q 3641 2581 3239 2228 
Q 2838 1875 2053 1875 
L 1259 1875 
L 1259 0 
L 628 0 
L 628 4666 
z
" transform="scale(0.015625)"/>
     </defs>
     <use xlink:href="#DejaVuSans-46"/>
     <use xlink:href="#DejaVuSans-6f" x="53.894531"/>
     <use xlink:href="#DejaVuSans-6c" x="115.076172"/>
     <use xlink:href="#DejaVuSans-64" x="142.859375"/>
     <use xlink:href="#DejaVuSans-73" x="206.335938"/>
     <use xlink:href="#DejaVuSans-65" x="258.435547"/>
     <use xlink:href="#DejaVuSans-65" x="319.958984"/>
     <use xlink:href="#DejaVuSans-6b" x="381.482422"/>
     <use xlink:href="#DejaVuSans-20" x="439.392578"/>
     <use xlink:href="#DejaVuSans-53" x="471.179688"/>
     <use xlink:href="#DejaVuSans-43" x="534.65625"/>
     <use xlink:href="#DejaVuSans-4f" x="604.480469"/>
     <use xlink:href="#DejaVuSans-50" x="683.191406"/>
     <use xlink:href="#DejaVuSans-34" x="743.494141"/>
     <use xlink:href="#DejaVuSans-30" x="807.117188"/>
    </g>
   </g>
   <g id="legend_1">
    <g id="patch_107">
     <path d="M 243.504936 62.79625 
L 324.348686 62.79625 
Q 326.348686 62.79625 326.348686 60.79625 
L 326.348686 32.44 
Q 326.348686 30.44 324.348686 30.44 
L 243.504936 30.44 
Q 241.504936 30.44 241.504936 32.44 
L 241.504936 60.79625 
Q 241.504936 62.79625 243.504936 62.79625 
z
" style="fill: #ffffff; opacity: 0.8; stroke: #cccccc; stroke-linejoin: miter"/>
    </g>
    <g id="line2d_15">
     <path d="M 245.504936 38.538437 
L 255.504936 38.538437 
L 265.504936 38.538437 
" style="fill: none; stroke: #000000; stroke-width: 1.5; stroke-linecap: square"/>
    </g>
    <g id="text_17">
     <!-- EVD fit -->
     <g transform="translate(273.504936 42.038437) scale(0.1 -0.1)">
      <defs>
       <path id="DejaVuSans-45" d="M 628 4666 
L 3578 4666 
L 3578 4134 
L 1259 4134 
L 1259 2753 
L 3481 2753 
L 3481 2222 
L 1259 2222 
L 1259 531 
L 3634 531 
L 3634 0 
L 628 0 
L 628 4666 
z
" transform="scale(0.015625)"/>
       <path id="DejaVuSans-56" d="M 1831 0 
L 50 4666 
L 709 4666 
L 2188 738 
L 3669 4666 
L 4325 4666 
L 2547 0 
L 1831 0 
z
" transform="scale(0.015625)"/>
      </defs>
      <use xlink:href="#DejaVuSans-45"/>
      <use xlink:href="#DejaVuSans-56" x="63.183594"/>
      <use xlink:href="#DejaVuSans-44" x="131.591797"/>
      <use xlink:href="#DejaVuSans-20" x="208.59375"/>
      <use xlink:href="#DejaVuSans-66" x="240.380859"/>
      <use xlink:href="#DejaVuSans-69" x="275.585938"/>
      <use xlink:href="#DejaVuSans-74" x="303.369141"/>
     </g>
    </g>
    <g id="patch_108">
     <path d="M 245.504936 56.716562 
L 265.504936 56.716562 
L 265.504936 49.716562 
L 245.504936 49.716562 
z
" style="fill: #b0e0e6"/>
    </g>
    <g id="text_18">
     <!-- Measured -->
     <g transform="translate(273.504936 56.716562) scale(0.1 -0.1)">
      <defs>
       <path id="DejaVuSans-4d" d="M 628 4666 
L 1569 4666 
L 2759 1491 
L 3956 4666 
L 4897 4666 
L 4897 0 
L 4281 0 
L 4281 4097 
L 3078 897 
L 2444 897 
L 1241 4097 
L 1241 0 
L 628 0 
L 628 4666 
z
" transform="scale(0.015625)"/>
       <path id="DejaVuSans-61" d="M 2194 1759 
Q 1497 1759 1228 1600 
Q 959 1441 959 1056 
Q 959 750 1161 570 
Q 1363 391 1709 391 
Q 2188 391 2477 730 
Q 2766 1069 2766 1631 
L 2766 1759 
L 2194 1759 
z
M 3341 1997 
L 3341 0 
L 2766 0 
L 2766 531 
Q 2569 213 2275 61 
Q 1981 -91 1556 -91 
Q 1019 -91 701 211 
Q 384 513 384 1019 
Q 384 1609 779 1909 
Q 1175 2209 1959 2209 
L 2766 2209 
L 2766 2266 
Q 2766 2663 2505 2880 
Q 2244 3097 1772 3097 
Q 1472 3097 1187 3025 
Q 903 2953 641 2809 
L 641 3341 
Q 956 3463 1253 3523 
Q 1550 3584 1831 3584 
Q 2591 3584 2966 3190 
Q 3341 2797 3341 1997 
z
" transform="scale(0.015625)"/>
       <path id="DejaVuSans-75" d="M 544 1381 
L 544 3500 
L 1119 3500 
L 1119 1403 
Q 1119 906 1312 657 
Q 1506 409 1894 409 
Q 2359 409 2629 706 
Q 2900 1003 2900 1516 
L 2900 3500 
L 3475 3500 
L 3475 0 
L 2900 0 
L 2900 538 
Q 2691 219 2414 64 
Q 2138 -91 1772 -91 
Q 1169 -91 856 284 
Q 544 659 544 1381 
z
M 1991 3584 
L 1991 3584 
z
" transform="scale(0.015625)"/>
      </defs>
      <use xlink:href="#DejaVuSans-4d"/>
      <use xlink:href="#DejaVuSans-65" x="86.279297"/>
      <use xlink:href="#DejaVuSans-61" x="147.802734"/>
      <use xlink:href="#DejaVuSans-73" x="209.082031"/>
      <use xlink:href="#DejaVuSans-75" x="261.181641"/>
      <use xlink:href="#DejaVuSans-72" x="324.560547"/>
      <use xlink:href="#DejaVuSans-65" x="363.423828"/>
      <use xlink:href="#DejaVuSans-64" x="424.947266"/>
     </g>
    </g>
   </g>
  </g>
  <g id="axes_2">
   <g id="patch_109">
    <path d="M 387.888895 191.806234 
L 629.937581 191.806234 
L 629.937581 25.44 
L 387.888895 25.44 
z
" style="fill: #ffffff"/>
   </g>
   <g id="patch_110">
    <path d="M 387.404798 27974.967273 
L 388.372992 27974.967273 
L 388.372992 234.032167 
L 387.404798 234.032167 
z
" clip-path="url(#pc17594da8e)" style="fill: #b0e0e6"/>
   </g>
   <g id="patch_111">
    <path d="M 389.825284 27974.967273 
L 390.793479 27974.967273 
L 390.793479 247.261645 
L 389.825284 247.261645 
z
" clip-path="url(#pc17594da8e)" style="fill: #b0e0e6"/>
   </g>
   <g id="patch_112">
    <path d="M 392.245771 27974.967273 
L 393.213966 27974.967273 
L 393.213966 238.914774 
L 392.245771 238.914774 
z
" clip-path="url(#pc17594da8e)" style="fill: #b0e0e6"/>
   </g>
   <g id="patch_113">
    <path d="M 394.666258 27974.967273 
L 395.634453 27974.967273 
L 395.634453 220.80269 
L 394.666258 220.80269 
z
" clip-path="url(#pc17594da8e)" style="fill: #b0e0e6"/>
   </g>
   <g id="patch_114">
    <path d="M 397.086745 27974.967273 
L 398.05494 27974.967273 
L 398.05494 218.386215 
L 397.086745 218.386215 
z
" clip-path="url(#pc17594da8e)" style="fill: #b0e0e6"/>
   </g>
   <g id="patch_115">
    <path d="M 399.507232 27974.967273 
L 400.475427 27974.967273 
L 400.475427 216.374552 
L 399.507232 216.374552 
z
" clip-path="url(#pc17594da8e)" style="fill: #b0e0e6"/>
   </g>
   <g id="patch_116">
    <path d="M 401.927719 27974.967273 
L 402.895913 27974.967273 
L 402.895913 211.804742 
L 401.927719 211.804742 
z
" clip-path="url(#pc17594da8e)" style="fill: #b0e0e6"/>
   </g>
   <g id="patch_117">
    <path d="M 404.348206 27974.967273 
L 405.3164 27974.967273 
L 405.3164 207.573212 
L 404.348206 207.573212 
z
" clip-path="url(#pc17594da8e)" style="fill: #b0e0e6"/>
   </g>
   <g id="patch_118">
    <path d="M 406.768692 27974.967273 
L 407.736887 27974.967273 
L 407.736887 199.914642 
L 406.768692 199.914642 
z
" clip-path="url(#pc17594da8e)" style="fill: #b0e0e6"/>
   </g>
   <g id="patch_119">
    <path d="M 409.189179 27974.967273 
L 410.157374 27974.967273 
L 410.157374 195.270498 
L 409.189179 195.270498 
z
" clip-path="url(#pc17594da8e)" style="fill: #b0e0e6"/>
   </g>
   <g id="patch_120">
    <path d="M 411.609666 27974.967273 
L 412.577861 27974.967273 
L 412.577861 190.65851 
L 411.609666 190.65851 
z
" clip-path="url(#pc17594da8e)" style="fill: #b0e0e6"/>
   </g>
   <g id="patch_121">
    <path d="M 414.030153 27974.967273 
L 414.998348 27974.967273 
L 414.998348 184.661398 
L 414.030153 184.661398 
z
" clip-path="url(#pc17594da8e)" style="fill: #b0e0e6"/>
   </g>
   <g id="patch_122">
    <path d="M 416.45064 27974.967273 
L 417.418835 27974.967273 
L 417.418835 180.070597 
L 416.45064 180.070597 
z
" clip-path="url(#pc17594da8e)" style="fill: #b0e0e6"/>
   </g>
   <g id="patch_123">
    <path d="M 418.871127 27974.967273 
L 419.839321 27974.967273 
L 419.839321 173.093883 
L 418.871127 173.093883 
z
" clip-path="url(#pc17594da8e)" style="fill: #b0e0e6"/>
   </g>
   <g id="patch_124">
    <path d="M 421.291614 27974.967273 
L 422.259808 27974.967273 
L 422.259808 166.96291 
L 421.291614 166.96291 
z
" clip-path="url(#pc17594da8e)" style="fill: #b0e0e6"/>
   </g>
   <g id="patch_125">
    <path d="M 423.7121 27974.967273 
L 424.680295 27974.967273 
L 424.680295 160.882145 
L 423.7121 160.882145 
z
" clip-path="url(#pc17594da8e)" style="fill: #b0e0e6"/>
   </g>
   <g id="patch_126">
    <path d="M 426.132587 27974.967273 
L 427.100782 27974.967273 
L 427.100782 155.950387 
L 426.132587 155.950387 
z
" clip-path="url(#pc17594da8e)" style="fill: #b0e0e6"/>
   </g>
   <g id="patch_127">
    <path d="M 428.553074 27974.967273 
L 429.521269 27974.967273 
L 429.521269 149.874066 
L 428.553074 149.874066 
z
" clip-path="url(#pc17594da8e)" style="fill: #b0e0e6"/>
   </g>
   <g id="patch_128">
    <path d="M 430.973561 27974.967273 
L 431.941756 27974.967273 
L 431.941756 143.824569 
L 430.973561 143.824569 
z
" clip-path="url(#pc17594da8e)" style="fill: #b0e0e6"/>
   </g>
   <g id="patch_129">
    <path d="M 433.394048 27974.967273 
L 434.362243 27974.967273 
L 434.362243 138.16423 
L 433.394048 138.16423 
z
" clip-path="url(#pc17594da8e)" style="fill: #b0e0e6"/>
   </g>
   <g id="patch_130">
    <path d="M 435.814535 27974.967273 
L 436.782729 27974.967273 
L 436.782729 132.232978 
L 435.814535 132.232978 
z
" clip-path="url(#pc17594da8e)" style="fill: #b0e0e6"/>
   </g>
   <g id="patch_131">
    <path d="M 438.235022 27974.967273 
L 439.203216 27974.967273 
L 439.203216 126.160752 
L 438.235022 126.160752 
z
" clip-path="url(#pc17594da8e)" style="fill: #b0e0e6"/>
   </g>
   <g id="patch_132">
    <path d="M 440.655508 27974.967273 
L 441.623703 27974.967273 
L 441.623703 120.040019 
L 440.655508 120.040019 
z
" clip-path="url(#pc17594da8e)" style="fill: #b0e0e6"/>
   </g>
   <g id="patch_133">
    <path d="M 443.075995 27974.967273 
L 444.04419 27974.967273 
L 444.04419 113.782658 
L 443.075995 113.782658 
z
" clip-path="url(#pc17594da8e)" style="fill: #b0e0e6"/>
   </g>
   <g id="patch_134">
    <path d="M 445.496482 27974.967273 
L 446.464677 27974.967273 
L 446.464677 107.407928 
L 445.496482 107.407928 
z
" clip-path="url(#pc17594da8e)" style="fill: #b0e0e6"/>
   </g>
   <g id="patch_135">
    <path d="M 447.916969 27974.967273 
L 448.885164 27974.967273 
L 448.885164 100.841934 
L 447.916969 100.841934 
z
" clip-path="url(#pc17594da8e)" style="fill: #b0e0e6"/>
   </g>
   <g id="patch_136">
    <path d="M 450.337456 27974.967273 
L 451.305651 27974.967273 
L 451.305651 94.032306 
L 450.337456 94.032306 
z
" clip-path="url(#pc17594da8e)" style="fill: #b0e0e6"/>
   </g>
   <g id="patch_137">
    <path d="M 452.757943 27974.967273 
L 453.726137 27974.967273 
L 453.726137 87.110599 
L 452.757943 87.110599 
z
" clip-path="url(#pc17594da8e)" style="fill: #b0e0e6"/>
   </g>
   <g id="patch_138">
    <path d="M 455.17843 27974.967273 
L 456.146624 27974.967273 
L 456.146624 79.975161 
L 455.17843 79.975161 
z
" clip-path="url(#pc17594da8e)" style="fill: #b0e0e6"/>
   </g>
   <g id="patch_139">
    <path d="M 457.598916 27974.967273 
L 458.567111 27974.967273 
L 458.567111 72.603341 
L 457.598916 72.603341 
z
" clip-path="url(#pc17594da8e)" style="fill: #b0e0e6"/>
   </g>
   <g id="patch_140">
    <path d="M 460.019403 27974.967273 
L 460.987598 27974.967273 
L 460.987598 65.210623 
L 460.019403 65.210623 
z
" clip-path="url(#pc17594da8e)" style="fill: #b0e0e6"/>
   </g>
   <g id="patch_141">
    <path d="M 462.43989 27974.967273 
L 463.408085 27974.967273 
L 463.408085 57.954399 
L 462.43989 57.954399 
z
" clip-path="url(#pc17594da8e)" style="fill: #b0e0e6"/>
   </g>
   <g id="patch_142">
    <path d="M 464.860377 27974.967273 
L 465.828572 27974.967273 
L 465.828572 51.517176 
L 464.860377 51.517176 
z
" clip-path="url(#pc17594da8e)" style="fill: #b0e0e6"/>
   </g>
   <g id="patch_143">
    <path d="M 467.280864 27974.967273 
L 468.249059 27974.967273 
L 468.249059 47.455999 
L 467.280864 47.455999 
z
" clip-path="url(#pc17594da8e)" style="fill: #b0e0e6"/>
   </g>
   <g id="patch_144">
    <path d="M 469.701351 27974.967273 
L 470.669545 27974.967273 
L 470.669545 47.141744 
L 469.701351 47.141744 
z
" clip-path="url(#pc17594da8e)" style="fill: #b0e0e6"/>
   </g>
   <g id="patch_145">
    <path d="M 472.121838 27974.967273 
L 473.090032 27974.967273 
L 473.090032 49.239545 
L 472.121838 49.239545 
z
" clip-path="url(#pc17594da8e)" style="fill: #b0e0e6"/>
   </g>
   <g id="patch_146">
    <path d="M 474.542324 27974.967273 
L 475.510519 27974.967273 
L 475.510519 52.243994 
L 474.542324 52.243994 
z
" clip-path="url(#pc17594da8e)" style="fill: #b0e0e6"/>
   </g>
   <g id="patch_147">
    <path d="M 476.962811 27974.967273 
L 477.931006 27974.967273 
L 477.931006 55.47233 
L 476.962811 55.47233 
z
" clip-path="url(#pc17594da8e)" style="fill: #b0e0e6"/>
   </g>
   <g id="patch_148">
    <path d="M 479.383298 27974.967273 
L 480.351493 27974.967273 
L 480.351493 58.69675 
L 479.383298 58.69675 
z
" clip-path="url(#pc17594da8e)" style="fill: #b0e0e6"/>
   </g>
   <g id="patch_149">
    <path d="M 481.803785 27974.967273 
L 482.77198 27974.967273 
L 482.77198 61.814623 
L 481.803785 61.814623 
z
" clip-path="url(#pc17594da8e)" style="fill: #b0e0e6"/>
   </g>
   <g id="patch_150">
    <path d="M 484.224272 27974.967273 
L 485.192467 27974.967273 
L 485.192467 64.806927 
L 484.224272 64.806927 
z
" clip-path="url(#pc17594da8e)" style="fill: #b0e0e6"/>
   </g>
   <g id="patch_151">
    <path d="M 486.644759 27974.967273 
L 487.612953 27974.967273 
L 487.612953 67.662462 
L 486.644759 67.662462 
z
" clip-path="url(#pc17594da8e)" style="fill: #b0e0e6"/>
   </g>
   <g id="patch_152">
    <path d="M 489.065246 27974.967273 
L 490.03344 27974.967273 
L 490.03344 70.409983 
L 489.065246 70.409983 
z
" clip-path="url(#pc17594da8e)" style="fill: #b0e0e6"/>
   </g>
   <g id="patch_153">
    <path d="M 491.485732 27974.967273 
L 492.453927 27974.967273 
L 492.453927 73.022444 
L 491.485732 73.022444 
z
" clip-path="url(#pc17594da8e)" style="fill: #b0e0e6"/>
   </g>
   <g id="patch_154">
    <path d="M 493.906219 27974.967273 
L 494.874414 27974.967273 
L 494.874414 75.558934 
L 493.906219 75.558934 
z
" clip-path="url(#pc17594da8e)" style="fill: #b0e0e6"/>
   </g>
   <g id="patch_155">
    <path d="M 496.326706 27974.967273 
L 497.294901 27974.967273 
L 497.294901 78.004085 
L 496.326706 78.004085 
z
" clip-path="url(#pc17594da8e)" style="fill: #b0e0e6"/>
   </g>
   <g id="patch_156">
    <path d="M 498.747193 27974.967273 
L 499.715388 27974.967273 
L 499.715388 80.325004 
L 498.747193 80.325004 
z
" clip-path="url(#pc17594da8e)" style="fill: #b0e0e6"/>
   </g>
   <g id="patch_157">
    <path d="M 501.16768 27974.967273 
L 502.135875 27974.967273 
L 502.135875 82.600285 
L 501.16768 82.600285 
z
" clip-path="url(#pc17594da8e)" style="fill: #b0e0e6"/>
   </g>
   <g id="patch_158">
    <path d="M 503.588167 27974.967273 
L 504.556361 27974.967273 
L 504.556361 84.803815 
L 503.588167 84.803815 
z
" clip-path="url(#pc17594da8e)" style="fill: #b0e0e6"/>
   </g>
   <g id="patch_159">
    <path d="M 506.008654 27974.967273 
L 506.976848 27974.967273 
L 506.976848 86.881705 
L 506.008654 86.881705 
z
" clip-path="url(#pc17594da8e)" style="fill: #b0e0e6"/>
   </g>
   <g id="patch_160">
    <path d="M 508.42914 27974.967273 
L 509.397335 27974.967273 
L 509.397335 88.93676 
L 508.42914 88.93676 
z
" clip-path="url(#pc17594da8e)" style="fill: #b0e0e6"/>
   </g>
   <g id="patch_161">
    <path d="M 510.849627 27974.967273 
L 511.817822 27974.967273 
L 511.817822 90.913435 
L 510.849627 90.913435 
z
" clip-path="url(#pc17594da8e)" style="fill: #b0e0e6"/>
   </g>
   <g id="patch_162">
    <path d="M 513.270114 27974.967273 
L 514.238309 27974.967273 
L 514.238309 92.791331 
L 513.270114 92.791331 
z
" clip-path="url(#pc17594da8e)" style="fill: #b0e0e6"/>
   </g>
   <g id="patch_163">
    <path d="M 515.690601 27974.967273 
L 516.658796 27974.967273 
L 516.658796 94.699996 
L 515.690601 94.699996 
z
" clip-path="url(#pc17594da8e)" style="fill: #b0e0e6"/>
   </g>
   <g id="patch_164">
    <path d="M 518.111088 27974.967273 
L 519.079283 27974.967273 
L 519.079283 96.465625 
L 518.111088 96.465625 
z
" clip-path="url(#pc17594da8e)" style="fill: #b0e0e6"/>
   </g>
   <g id="patch_165">
    <path d="M 520.531575 27974.967273 
L 521.499769 27974.967273 
L 521.499769 98.152192 
L 520.531575 98.152192 
z
" clip-path="url(#pc17594da8e)" style="fill: #b0e0e6"/>
   </g>
   <g id="patch_166">
    <path d="M 522.952062 27974.967273 
L 523.920256 27974.967273 
L 523.920256 99.938668 
L 522.952062 99.938668 
z
" clip-path="url(#pc17594da8e)" style="fill: #b0e0e6"/>
   </g>
   <g id="patch_167">
    <path d="M 525.372548 27974.967273 
L 526.340743 27974.967273 
L 526.340743 101.587015 
L 525.372548 101.587015 
z
" clip-path="url(#pc17594da8e)" style="fill: #b0e0e6"/>
   </g>
   <g id="patch_168">
    <path d="M 527.793035 27974.967273 
L 528.76123 27974.967273 
L 528.76123 103.331835 
L 527.793035 103.331835 
z
" clip-path="url(#pc17594da8e)" style="fill: #b0e0e6"/>
   </g>
   <g id="patch_169">
    <path d="M 530.213522 27974.967273 
L 531.181717 27974.967273 
L 531.181717 104.886171 
L 530.213522 104.886171 
z
" clip-path="url(#pc17594da8e)" style="fill: #b0e0e6"/>
   </g>
   <g id="patch_170">
    <path d="M 532.634009 27974.967273 
L 533.602204 27974.967273 
L 533.602204 106.49553 
L 532.634009 106.49553 
z
" clip-path="url(#pc17594da8e)" style="fill: #b0e0e6"/>
   </g>
   <g id="patch_171">
    <path d="M 535.054496 27974.967273 
L 536.022691 27974.967273 
L 536.022691 108.03788 
L 535.054496 108.03788 
z
" clip-path="url(#pc17594da8e)" style="fill: #b0e0e6"/>
   </g>
   <g id="patch_172">
    <path d="M 537.474983 27974.967273 
L 538.443177 27974.967273 
L 538.443177 109.555682 
L 537.474983 109.555682 
z
" clip-path="url(#pc17594da8e)" style="fill: #b0e0e6"/>
   </g>
   <g id="patch_173">
    <path d="M 539.89547 27974.967273 
L 540.863664 27974.967273 
L 540.863664 111.094346 
L 539.89547 111.094346 
z
" clip-path="url(#pc17594da8e)" style="fill: #b0e0e6"/>
   </g>
   <g id="patch_174">
    <path d="M 542.315956 27974.967273 
L 543.284151 27974.967273 
L 543.284151 112.708604 
L 542.315956 112.708604 
z
" clip-path="url(#pc17594da8e)" style="fill: #b0e0e6"/>
   </g>
   <g id="patch_175">
    <path d="M 544.736443 27974.967273 
L 545.704638 27974.967273 
L 545.704638 114.214691 
L 544.736443 114.214691 
z
" clip-path="url(#pc17594da8e)" style="fill: #b0e0e6"/>
   </g>
   <g id="patch_176">
    <path d="M 547.15693 27974.967273 
L 548.125125 27974.967273 
L 548.125125 115.65938 
L 547.15693 115.65938 
z
" clip-path="url(#pc17594da8e)" style="fill: #b0e0e6"/>
   </g>
   <g id="patch_177">
    <path d="M 549.577417 27974.967273 
L 550.545612 27974.967273 
L 550.545612 117.219168 
L 549.577417 117.219168 
z
" clip-path="url(#pc17594da8e)" style="fill: #b0e0e6"/>
   </g>
   <g id="patch_178">
    <path d="M 551.997904 27974.967273 
L 552.966099 27974.967273 
L 552.966099 118.658336 
L 551.997904 118.658336 
z
" clip-path="url(#pc17594da8e)" style="fill: #b0e0e6"/>
   </g>
   <g id="patch_179">
    <path d="M 554.418391 27974.967273 
L 555.386585 27974.967273 
L 555.386585 120.270635 
L 554.418391 120.270635 
z
" clip-path="url(#pc17594da8e)" style="fill: #b0e0e6"/>
   </g>
   <g id="patch_180">
    <path d="M 556.838878 27974.967273 
L 557.807072 27974.967273 
L 557.807072 121.625116 
L 556.838878 121.625116 
z
" clip-path="url(#pc17594da8e)" style="fill: #b0e0e6"/>
   </g>
   <g id="patch_181">
    <path d="M 559.259364 27974.967273 
L 560.227559 27974.967273 
L 560.227559 123.17364 
L 559.259364 123.17364 
z
" clip-path="url(#pc17594da8e)" style="fill: #b0e0e6"/>
   </g>
   <g id="patch_182">
    <path d="M 561.679851 27974.967273 
L 562.648046 27974.967273 
L 562.648046 124.584325 
L 561.679851 124.584325 
z
" clip-path="url(#pc17594da8e)" style="fill: #b0e0e6"/>
   </g>
   <g id="patch_183">
    <path d="M 564.100338 27974.967273 
L 565.068533 27974.967273 
L 565.068533 126.024613 
L 564.100338 126.024613 
z
" clip-path="url(#pc17594da8e)" style="fill: #b0e0e6"/>
   </g>
   <g id="patch_184">
    <path d="M 566.520825 27974.967273 
L 567.48902 27974.967273 
L 567.48902 127.510832 
L 566.520825 127.510832 
z
" clip-path="url(#pc17594da8e)" style="fill: #b0e0e6"/>
   </g>
   <g id="patch_185">
    <path d="M 568.941312 27974.967273 
L 569.909507 27974.967273 
L 569.909507 128.908963 
L 568.941312 128.908963 
z
" clip-path="url(#pc17594da8e)" style="fill: #b0e0e6"/>
   </g>
   <g id="patch_186">
    <path d="M 571.361799 27974.967273 
L 572.329993 27974.967273 
L 572.329993 130.387823 
L 571.361799 130.387823 
z
" clip-path="url(#pc17594da8e)" style="fill: #b0e0e6"/>
   </g>
   <g id="patch_187">
    <path d="M 573.782286 27974.967273 
L 574.75048 27974.967273 
L 574.75048 131.852398 
L 573.782286 131.852398 
z
" clip-path="url(#pc17594da8e)" style="fill: #b0e0e6"/>
   </g>
   <g id="patch_188">
    <path d="M 576.202772 27974.967273 
L 577.170967 27974.967273 
L 577.170967 133.269497 
L 576.202772 133.269497 
z
" clip-path="url(#pc17594da8e)" style="fill: #b0e0e6"/>
   </g>
   <g id="patch_189">
    <path d="M 578.623259 27974.967273 
L 579.591454 27974.967273 
L 579.591454 134.676191 
L 578.623259 134.676191 
z
" clip-path="url(#pc17594da8e)" style="fill: #b0e0e6"/>
   </g>
   <g id="patch_190">
    <path d="M 581.043746 27974.967273 
L 582.011941 27974.967273 
L 582.011941 136.20361 
L 581.043746 136.20361 
z
" clip-path="url(#pc17594da8e)" style="fill: #b0e0e6"/>
   </g>
   <g id="patch_191">
    <path d="M 583.464233 27974.967273 
L 584.432428 27974.967273 
L 584.432428 137.52362 
L 583.464233 137.52362 
z
" clip-path="url(#pc17594da8e)" style="fill: #b0e0e6"/>
   </g>
   <g id="patch_192">
    <path d="M 585.88472 27974.967273 
L 586.852915 27974.967273 
L 586.852915 138.661526 
L 585.88472 138.661526 
z
" clip-path="url(#pc17594da8e)" style="fill: #b0e0e6"/>
   </g>
   <g id="patch_193">
    <path d="M 588.305207 27974.967273 
L 589.273401 27974.967273 
L 589.273401 140.160377 
L 588.305207 140.160377 
z
" clip-path="url(#pc17594da8e)" style="fill: #b0e0e6"/>
   </g>
   <g id="patch_194">
    <path d="M 590.725694 27974.967273 
L 591.693888 27974.967273 
L 591.693888 141.595874 
L 590.725694 141.595874 
z
" clip-path="url(#pc17594da8e)" style="fill: #b0e0e6"/>
   </g>
   <g id="patch_195">
    <path d="M 593.14618 27974.967273 
L 594.114375 27974.967273 
L 594.114375 143.202528 
L 593.14618 143.202528 
z
" clip-path="url(#pc17594da8e)" style="fill: #b0e0e6"/>
   </g>
   <g id="patch_196">
    <path d="M 595.566667 27974.967273 
L 596.534862 27974.967273 
L 596.534862 144.320721 
L 595.566667 144.320721 
z
" clip-path="url(#pc17594da8e)" style="fill: #b0e0e6"/>
   </g>
   <g id="patch_197">
    <path d="M 597.987154 27974.967273 
L 598.955349 27974.967273 
L 598.955349 145.530225 
L 597.987154 145.530225 
z
" clip-path="url(#pc17594da8e)" style="fill: #b0e0e6"/>
   </g>
   <g id="patch_198">
    <path d="M 600.407641 27974.967273 
L 601.375836 27974.967273 
L 601.375836 147.011315 
L 600.407641 147.011315 
z
" clip-path="url(#pc17594da8e)" style="fill: #b0e0e6"/>
   </g>
   <g id="patch_199">
    <path d="M 602.828128 27974.967273 
L 603.796323 27974.967273 
L 603.796323 148.085135 
L 602.828128 148.085135 
z
" clip-path="url(#pc17594da8e)" style="fill: #b0e0e6"/>
   </g>
   <g id="patch_200">
    <path d="M 605.248615 27974.967273 
L 606.216809 27974.967273 
L 606.216809 149.792901 
L 605.248615 149.792901 
z
" clip-path="url(#pc17594da8e)" style="fill: #b0e0e6"/>
   </g>
   <g id="patch_201">
    <path d="M 607.669102 27974.967273 
L 608.637296 27974.967273 
L 608.637296 150.524321 
L 607.669102 150.524321 
z
" clip-path="url(#pc17594da8e)" style="fill: #b0e0e6"/>
   </g>
   <g id="patch_202">
    <path d="M 610.089588 27974.967273 
L 611.057783 27974.967273 
L 611.057783 152.406678 
L 610.089588 152.406678 
z
" clip-path="url(#pc17594da8e)" style="fill: #b0e0e6"/>
   </g>
   <g id="patch_203">
    <path d="M 612.510075 27974.967273 
L 613.47827 27974.967273 
L 613.47827 153.501071 
L 612.510075 153.501071 
z
" clip-path="url(#pc17594da8e)" style="fill: #b0e0e6"/>
   </g>
   <g id="patch_204">
    <path d="M 614.930562 27974.967273 
L 615.898757 27974.967273 
L 615.898757 154.88881 
L 614.930562 154.88881 
z
" clip-path="url(#pc17594da8e)" style="fill: #b0e0e6"/>
   </g>
   <g id="patch_205">
    <path d="M 617.351049 27974.967273 
L 618.319244 27974.967273 
L 618.319244 155.288344 
L 617.351049 155.288344 
z
" clip-path="url(#pc17594da8e)" style="fill: #b0e0e6"/>
   </g>
   <g id="patch_206">
    <path d="M 619.771536 27974.967273 
L 620.739731 27974.967273 
L 620.739731 157.047329 
L 619.771536 157.047329 
z
" clip-path="url(#pc17594da8e)" style="fill: #b0e0e6"/>
   </g>
   <g id="patch_207">
    <path d="M 622.192023 27974.967273 
L 623.160217 27974.967273 
L 623.160217 157.582921 
L 622.192023 157.582921 
z
" clip-path="url(#pc17594da8e)" style="fill: #b0e0e6"/>
   </g>
   <g id="patch_208">
    <path d="M 624.61251 27974.967273 
L 625.580704 27974.967273 
L 625.580704 158.879009 
L 624.61251 158.879009 
z
" clip-path="url(#pc17594da8e)" style="fill: #b0e0e6"/>
   </g>
   <g id="patch_209">
    <path d="M 627.032996 27974.967273 
L 628.001191 27974.967273 
L 628.001191 127.796815 
L 627.032996 127.796815 
z
" clip-path="url(#pc17594da8e)" style="fill: #b0e0e6"/>
   </g>
   <g id="matplotlib.axis_3">
    <g id="xtick_7">
     <g id="line2d_16">
      <g>
       <use xlink:href="#ma41a774718" x="387.888895" y="191.806234" style="stroke: #000000; stroke-width: 0.8"/>
      </g>
     </g>
     <g id="text_19">
      <!-- −100 -->
      <g transform="translate(374.155301 206.404671) scale(0.1 -0.1)">
       <use xlink:href="#DejaVuSans-2212"/>
       <use xlink:href="#DejaVuSans-31" x="83.789062"/>
       <use xlink:href="#DejaVuSans-30" x="147.412109"/>
       <use xlink:href="#DejaVuSans-30" x="211.035156"/>
      </g>
     </g>
    </g>
    <g id="xtick_8">
     <g id="line2d_17">
      <g>
       <use xlink:href="#ma41a774718" x="428.230343" y="191.806234" style="stroke: #000000; stroke-width: 0.8"/>
      </g>
     </g>
     <g id="text_20">
      <!-- −50 -->
      <g transform="translate(417.677999 206.404671) scale(0.1 -0.1)">
       <use xlink:href="#DejaVuSans-2212"/>
       <use xlink:href="#DejaVuSans-35" x="83.789062"/>
       <use xlink:href="#DejaVuSans-30" x="147.412109"/>
      </g>
     </g>
    </g>
    <g id="xtick_9">
     <g id="line2d_18">
      <g>
       <use xlink:href="#ma41a774718" x="468.57179" y="191.806234" style="stroke: #000000; stroke-width: 0.8"/>
      </g>
     </g>
     <g id="text_21">
      <!-- 0 -->
      <g transform="translate(465.39054 206.404671) scale(0.1 -0.1)">
       <use xlink:href="#DejaVuSans-30"/>
      </g>
     </g>
    </g>
    <g id="xtick_10">
     <g id="line2d_19">
      <g>
       <use xlink:href="#ma41a774718" x="508.913238" y="191.806234" style="stroke: #000000; stroke-width: 0.8"/>
      </g>
     </g>
     <g id="text_22">
      <!-- 50 -->
      <g transform="translate(502.550738 206.404671) scale(0.1 -0.1)">
       <use xlink:href="#DejaVuSans-35"/>
       <use xlink:href="#DejaVuSans-30" x="63.623047"/>
      </g>
     </g>
    </g>
    <g id="xtick_11">
     <g id="line2d_20">
      <g>
       <use xlink:href="#ma41a774718" x="549.254685" y="191.806234" style="stroke: #000000; stroke-width: 0.8"/>
      </g>
     </g>
     <g id="text_23">
      <!-- 100 -->
      <g transform="translate(539.710935 206.404671) scale(0.1 -0.1)">
       <use xlink:href="#DejaVuSans-31"/>
       <use xlink:href="#DejaVuSans-30" x="63.623047"/>
       <use xlink:href="#DejaVuSans-30" x="127.246094"/>
      </g>
     </g>
    </g>
    <g id="xtick_12">
     <g id="line2d_21">
      <g>
       <use xlink:href="#ma41a774718" x="589.596133" y="191.806234" style="stroke: #000000; stroke-width: 0.8"/>
      </g>
     </g>
     <g id="text_24">
      <!-- 150 -->
      <g transform="translate(580.052383 206.404671) scale(0.1 -0.1)">
       <use xlink:href="#DejaVuSans-31"/>
       <use xlink:href="#DejaVuSans-35" x="63.623047"/>
       <use xlink:href="#DejaVuSans-30" x="127.246094"/>
      </g>
     </g>
    </g>
    <g id="xtick_13">
     <g id="line2d_22">
      <g>
       <use xlink:href="#ma41a774718" x="629.937581" y="191.806234" style="stroke: #000000; stroke-width: 0.8"/>
      </g>
     </g>
     <g id="text_25">
      <!-- 200 -->
      <g transform="translate(620.393831 206.404671) scale(0.1 -0.1)">
       <use xlink:href="#DejaVuSans-32"/>
       <use xlink:href="#DejaVuSans-30" x="63.623047"/>
       <use xlink:href="#DejaVuSans-30" x="127.246094"/>
      </g>
     </g>
    </g>
    <g id="text_26">
     <!-- Diff score -->
     <g transform="translate(485.131988 220.082796) scale(0.1 -0.1)">
      <use xlink:href="#DejaVuSans-44"/>
      <use xlink:href="#DejaVuSans-69" x="77.001953"/>
      <use xlink:href="#DejaVuSans-66" x="104.785156"/>
      <use xlink:href="#DejaVuSans-66" x="139.990234"/>
      <use xlink:href="#DejaVuSans-20" x="175.195312"/>
      <use xlink:href="#DejaVuSans-73" x="206.982422"/>
      <use xlink:href="#DejaVuSans-63" x="259.082031"/>
      <use xlink:href="#DejaVuSans-6f" x="314.0625"/>
      <use xlink:href="#DejaVuSans-72" x="375.244141"/>
      <use xlink:href="#DejaVuSans-65" x="414.107422"/>
     </g>
    </g>
   </g>
   <g id="matplotlib.axis_4">
    <g id="ytick_8">
     <g id="line2d_23">
      <g>
       <use xlink:href="#mebb3a88999" x="387.888895" y="191.806234" style="stroke: #000000; stroke-width: 0.8"/>
      </g>
     </g>
     <g id="text_27">
      <!-- $\mathdefault{10^{2}}$ -->
      <g transform="translate(363.288895 195.605453) scale(0.1 -0.1)">
       <use xlink:href="#DejaVuSans-31" transform="translate(0 0.765625)"/>
       <use xlink:href="#DejaVuSans-30" transform="translate(63.623047 0.765625)"/>
       <use xlink:href="#DejaVuSans-32" transform="translate(128.203125 39.046875) scale(0.7)"/>
      </g>
     </g>
    </g>
    <g id="ytick_9">
     <g id="line2d_24">
      <g>
       <use xlink:href="#mebb3a88999" x="387.888895" y="164.078528" style="stroke: #000000; stroke-width: 0.8"/>
      </g>
     </g>
     <g id="text_28">
      <!-- $\mathdefault{10^{3}}$ -->
      <g transform="translate(363.288895 167.877747) scale(0.1 -0.1)">
       <defs>
        <path id="DejaVuSans-33" d="M 2597 2516 
Q 3050 2419 3304 2112 
Q 3559 1806 3559 1356 
Q 3559 666 3084 287 
Q 2609 -91 1734 -91 
Q 1441 -91 1130 -33 
Q 819 25 488 141 
L 488 750 
Q 750 597 1062 519 
Q 1375 441 1716 441 
Q 2309 441 2620 675 
Q 2931 909 2931 1356 
Q 2931 1769 2642 2001 
Q 2353 2234 1838 2234 
L 1294 2234 
L 1294 2753 
L 1863 2753 
Q 2328 2753 2575 2939 
Q 2822 3125 2822 3475 
Q 2822 3834 2567 4026 
Q 2313 4219 1838 4219 
Q 1578 4219 1281 4162 
Q 984 4106 628 3988 
L 628 4550 
Q 988 4650 1302 4700 
Q 1616 4750 1894 4750 
Q 2613 4750 3031 4423 
Q 3450 4097 3450 3541 
Q 3450 3153 3228 2886 
Q 3006 2619 2597 2516 
z
" transform="scale(0.015625)"/>
       </defs>
       <use xlink:href="#DejaVuSans-31" transform="translate(0 0.765625)"/>
       <use xlink:href="#DejaVuSans-30" transform="translate(63.623047 0.765625)"/>
       <use xlink:href="#DejaVuSans-33" transform="translate(128.203125 39.046875) scale(0.7)"/>
      </g>
     </g>
    </g>
    <g id="ytick_10">
     <g id="line2d_25">
      <g>
       <use xlink:href="#mebb3a88999" x="387.888895" y="136.350823" style="stroke: #000000; stroke-width: 0.8"/>
      </g>
     </g>
     <g id="text_29">
      <!-- $\mathdefault{10^{4}}$ -->
      <g transform="translate(363.288895 140.150041) scale(0.1 -0.1)">
       <use xlink:href="#DejaVuSans-31" transform="translate(0 0.684375)"/>
       <use xlink:href="#DejaVuSans-30" transform="translate(63.623047 0.684375)"/>
       <use xlink:href="#DejaVuSans-34" transform="translate(128.203125 38.965625) scale(0.7)"/>
      </g>
     </g>
    </g>
    <g id="ytick_11">
     <g id="line2d_26">
      <g>
       <use xlink:href="#mebb3a88999" x="387.888895" y="108.623117" style="stroke: #000000; stroke-width: 0.8"/>
      </g>
     </g>
     <g id="text_30">
      <!-- $\mathdefault{10^{5}}$ -->
      <g transform="translate(363.288895 112.422336) scale(0.1 -0.1)">
       <use xlink:href="#DejaVuSans-31" transform="translate(0 0.684375)"/>
       <use xlink:href="#DejaVuSans-30" transform="translate(63.623047 0.684375)"/>
       <use xlink:href="#DejaVuSans-35" transform="translate(128.203125 38.965625) scale(0.7)"/>
      </g>
     </g>
    </g>
    <g id="ytick_12">
     <g id="line2d_27">
      <g>
       <use xlink:href="#mebb3a88999" x="387.888895" y="80.895411" style="stroke: #000000; stroke-width: 0.8"/>
      </g>
     </g>
     <g id="text_31">
      <!-- $\mathdefault{10^{6}}$ -->
      <g transform="translate(363.288895 84.69463) scale(0.1 -0.1)">
       <use xlink:href="#DejaVuSans-31" transform="translate(0 0.765625)"/>
       <use xlink:href="#DejaVuSans-30" transform="translate(63.623047 0.765625)"/>
       <use xlink:href="#DejaVuSans-36" transform="translate(128.203125 39.046875) scale(0.7)"/>
      </g>
     </g>
    </g>
    <g id="ytick_13">
     <g id="line2d_28">
      <g>
       <use xlink:href="#mebb3a88999" x="387.888895" y="53.167706" style="stroke: #000000; stroke-width: 0.8"/>
      </g>
     </g>
     <g id="text_32">
      <!-- $\mathdefault{10^{7}}$ -->
      <g transform="translate(363.288895 56.966924) scale(0.1 -0.1)">
       <use xlink:href="#DejaVuSans-31" transform="translate(0 0.684375)"/>
       <use xlink:href="#DejaVuSans-30" transform="translate(63.623047 0.684375)"/>
       <use xlink:href="#DejaVuSans-37" transform="translate(128.203125 38.965625) scale(0.7)"/>
      </g>
     </g>
    </g>
    <g id="ytick_14">
     <g id="line2d_29">
      <g>
       <use xlink:href="#mebb3a88999" x="387.888895" y="25.44" style="stroke: #000000; stroke-width: 0.8"/>
      </g>
     </g>
     <g id="text_33">
      <!-- $\mathdefault{10^{8}}$ -->
      <g transform="translate(363.288895 29.239219) scale(0.1 -0.1)">
       <use xlink:href="#DejaVuSans-31" transform="translate(0 0.765625)"/>
       <use xlink:href="#DejaVuSans-30" transform="translate(63.623047 0.765625)"/>
       <use xlink:href="#DejaVuSans-38" transform="translate(128.203125 39.046875) scale(0.7)"/>
      </g>
     </g>
    </g>
    <g id="ytick_15">
     <g id="line2d_30">
      <defs>
       <path id="m26e716f818" d="M 0 0 
L -2 0 
" style="stroke: #000000; stroke-width: 0.6"/>
      </defs>
      <g>
       <use xlink:href="#m26e716f818" x="387.888895" y="183.459363" style="stroke: #000000; stroke-width: 0.6"/>
      </g>
     </g>
    </g>
    <g id="ytick_16">
     <g id="line2d_31">
      <g>
       <use xlink:href="#m26e716f818" x="387.888895" y="178.576756" style="stroke: #000000; stroke-width: 0.6"/>
      </g>
     </g>
    </g>
    <g id="ytick_17">
     <g id="line2d_32">
      <g>
       <use xlink:href="#m26e716f818" x="387.888895" y="175.112492" style="stroke: #000000; stroke-width: 0.6"/>
      </g>
     </g>
    </g>
    <g id="ytick_18">
     <g id="line2d_33">
      <g>
       <use xlink:href="#m26e716f818" x="387.888895" y="172.425399" style="stroke: #000000; stroke-width: 0.6"/>
      </g>
     </g>
    </g>
    <g id="ytick_19">
     <g id="line2d_34">
      <g>
       <use xlink:href="#m26e716f818" x="387.888895" y="170.229885" style="stroke: #000000; stroke-width: 0.6"/>
      </g>
     </g>
    </g>
    <g id="ytick_20">
     <g id="line2d_35">
      <g>
       <use xlink:href="#m26e716f818" x="387.888895" y="168.373604" style="stroke: #000000; stroke-width: 0.6"/>
      </g>
     </g>
    </g>
    <g id="ytick_21">
     <g id="line2d_36">
      <g>
       <use xlink:href="#m26e716f818" x="387.888895" y="166.76562" style="stroke: #000000; stroke-width: 0.6"/>
      </g>
     </g>
    </g>
    <g id="ytick_22">
     <g id="line2d_37">
      <g>
       <use xlink:href="#m26e716f818" x="387.888895" y="165.347278" style="stroke: #000000; stroke-width: 0.6"/>
      </g>
     </g>
    </g>
    <g id="ytick_23">
     <g id="line2d_38">
      <g>
       <use xlink:href="#m26e716f818" x="387.888895" y="155.731657" style="stroke: #000000; stroke-width: 0.6"/>
      </g>
     </g>
    </g>
    <g id="ytick_24">
     <g id="line2d_39">
      <g>
       <use xlink:href="#m26e716f818" x="387.888895" y="150.84905" style="stroke: #000000; stroke-width: 0.6"/>
      </g>
     </g>
    </g>
    <g id="ytick_25">
     <g id="line2d_40">
      <g>
       <use xlink:href="#m26e716f818" x="387.888895" y="147.384786" style="stroke: #000000; stroke-width: 0.6"/>
      </g>
     </g>
    </g>
    <g id="ytick_26">
     <g id="line2d_41">
      <g>
       <use xlink:href="#m26e716f818" x="387.888895" y="144.697694" style="stroke: #000000; stroke-width: 0.6"/>
      </g>
     </g>
    </g>
    <g id="ytick_27">
     <g id="line2d_42">
      <g>
       <use xlink:href="#m26e716f818" x="387.888895" y="142.502179" style="stroke: #000000; stroke-width: 0.6"/>
      </g>
     </g>
    </g>
    <g id="ytick_28">
     <g id="line2d_43">
      <g>
       <use xlink:href="#m26e716f818" x="387.888895" y="140.645898" style="stroke: #000000; stroke-width: 0.6"/>
      </g>
     </g>
    </g>
    <g id="ytick_29">
     <g id="line2d_44">
      <g>
       <use xlink:href="#m26e716f818" x="387.888895" y="139.037915" style="stroke: #000000; stroke-width: 0.6"/>
      </g>
     </g>
    </g>
    <g id="ytick_30">
     <g id="line2d_45">
      <g>
       <use xlink:href="#m26e716f818" x="387.888895" y="137.619573" style="stroke: #000000; stroke-width: 0.6"/>
      </g>
     </g>
    </g>
    <g id="ytick_31">
     <g id="line2d_46">
      <g>
       <use xlink:href="#m26e716f818" x="387.888895" y="128.003951" style="stroke: #000000; stroke-width: 0.6"/>
      </g>
     </g>
    </g>
    <g id="ytick_32">
     <g id="line2d_47">
      <g>
       <use xlink:href="#m26e716f818" x="387.888895" y="123.121345" style="stroke: #000000; stroke-width: 0.6"/>
      </g>
     </g>
    </g>
    <g id="ytick_33">
     <g id="line2d_48">
      <g>
       <use xlink:href="#m26e716f818" x="387.888895" y="119.65708" style="stroke: #000000; stroke-width: 0.6"/>
      </g>
     </g>
    </g>
    <g id="ytick_34">
     <g id="line2d_49">
      <g>
       <use xlink:href="#m26e716f818" x="387.888895" y="116.969988" style="stroke: #000000; stroke-width: 0.6"/>
      </g>
     </g>
    </g>
    <g id="ytick_35">
     <g id="line2d_50">
      <g>
       <use xlink:href="#m26e716f818" x="387.888895" y="114.774474" style="stroke: #000000; stroke-width: 0.6"/>
      </g>
     </g>
    </g>
    <g id="ytick_36">
     <g id="line2d_51">
      <g>
       <use xlink:href="#m26e716f818" x="387.888895" y="112.918193" style="stroke: #000000; stroke-width: 0.6"/>
      </g>
     </g>
    </g>
    <g id="ytick_37">
     <g id="line2d_52">
      <g>
       <use xlink:href="#m26e716f818" x="387.888895" y="111.310209" style="stroke: #000000; stroke-width: 0.6"/>
      </g>
     </g>
    </g>
    <g id="ytick_38">
     <g id="line2d_53">
      <g>
       <use xlink:href="#m26e716f818" x="387.888895" y="109.891867" style="stroke: #000000; stroke-width: 0.6"/>
      </g>
     </g>
    </g>
    <g id="ytick_39">
     <g id="line2d_54">
      <g>
       <use xlink:href="#m26e716f818" x="387.888895" y="100.276246" style="stroke: #000000; stroke-width: 0.6"/>
      </g>
     </g>
    </g>
    <g id="ytick_40">
     <g id="line2d_55">
      <g>
       <use xlink:href="#m26e716f818" x="387.888895" y="95.393639" style="stroke: #000000; stroke-width: 0.6"/>
      </g>
     </g>
    </g>
    <g id="ytick_41">
     <g id="line2d_56">
      <g>
       <use xlink:href="#m26e716f818" x="387.888895" y="91.929375" style="stroke: #000000; stroke-width: 0.6"/>
      </g>
     </g>
    </g>
    <g id="ytick_42">
     <g id="line2d_57">
      <g>
       <use xlink:href="#m26e716f818" x="387.888895" y="89.242282" style="stroke: #000000; stroke-width: 0.6"/>
      </g>
     </g>
    </g>
    <g id="ytick_43">
     <g id="line2d_58">
      <g>
       <use xlink:href="#m26e716f818" x="387.888895" y="87.046768" style="stroke: #000000; stroke-width: 0.6"/>
      </g>
     </g>
    </g>
    <g id="ytick_44">
     <g id="line2d_59">
      <g>
       <use xlink:href="#m26e716f818" x="387.888895" y="85.190487" style="stroke: #000000; stroke-width: 0.6"/>
      </g>
     </g>
    </g>
    <g id="ytick_45">
     <g id="line2d_60">
      <g>
       <use xlink:href="#m26e716f818" x="387.888895" y="83.582504" style="stroke: #000000; stroke-width: 0.6"/>
      </g>
     </g>
    </g>
    <g id="ytick_46">
     <g id="line2d_61">
      <g>
       <use xlink:href="#m26e716f818" x="387.888895" y="82.164161" style="stroke: #000000; stroke-width: 0.6"/>
      </g>
     </g>
    </g>
    <g id="ytick_47">
     <g id="line2d_62">
      <g>
       <use xlink:href="#m26e716f818" x="387.888895" y="72.54854" style="stroke: #000000; stroke-width: 0.6"/>
      </g>
     </g>
    </g>
    <g id="ytick_48">
     <g id="line2d_63">
      <g>
       <use xlink:href="#m26e716f818" x="387.888895" y="67.665934" style="stroke: #000000; stroke-width: 0.6"/>
      </g>
     </g>
    </g>
    <g id="ytick_49">
     <g id="line2d_64">
      <g>
       <use xlink:href="#m26e716f818" x="387.888895" y="64.201669" style="stroke: #000000; stroke-width: 0.6"/>
      </g>
     </g>
    </g>
    <g id="ytick_50">
     <g id="line2d_65">
      <g>
       <use xlink:href="#m26e716f818" x="387.888895" y="61.514577" style="stroke: #000000; stroke-width: 0.6"/>
      </g>
     </g>
    </g>
    <g id="ytick_51">
     <g id="line2d_66">
      <g>
       <use xlink:href="#m26e716f818" x="387.888895" y="59.319062" style="stroke: #000000; stroke-width: 0.6"/>
      </g>
     </g>
    </g>
    <g id="ytick_52">
     <g id="line2d_67">
      <g>
       <use xlink:href="#m26e716f818" x="387.888895" y="57.462782" style="stroke: #000000; stroke-width: 0.6"/>
      </g>
     </g>
    </g>
    <g id="ytick_53">
     <g id="line2d_68">
      <g>
       <use xlink:href="#m26e716f818" x="387.888895" y="55.854798" style="stroke: #000000; stroke-width: 0.6"/>
      </g>
     </g>
    </g>
    <g id="ytick_54">
     <g id="line2d_69">
      <g>
       <use xlink:href="#m26e716f818" x="387.888895" y="54.436456" style="stroke: #000000; stroke-width: 0.6"/>
      </g>
     </g>
    </g>
    <g id="ytick_55">
     <g id="line2d_70">
      <g>
       <use xlink:href="#m26e716f818" x="387.888895" y="44.820835" style="stroke: #000000; stroke-width: 0.6"/>
      </g>
     </g>
    </g>
    <g id="ytick_56">
     <g id="line2d_71">
      <g>
       <use xlink:href="#m26e716f818" x="387.888895" y="39.938228" style="stroke: #000000; stroke-width: 0.6"/>
      </g>
     </g>
    </g>
    <g id="ytick_57">
     <g id="line2d_72">
      <g>
       <use xlink:href="#m26e716f818" x="387.888895" y="36.473963" style="stroke: #000000; stroke-width: 0.6"/>
      </g>
     </g>
    </g>
    <g id="ytick_58">
     <g id="line2d_73">
      <g>
       <use xlink:href="#m26e716f818" x="387.888895" y="33.786871" style="stroke: #000000; stroke-width: 0.6"/>
      </g>
     </g>
    </g>
    <g id="ytick_59">
     <g id="line2d_74">
      <g>
       <use xlink:href="#m26e716f818" x="387.888895" y="31.591357" style="stroke: #000000; stroke-width: 0.6"/>
      </g>
     </g>
    </g>
    <g id="ytick_60">
     <g id="line2d_75">
      <g>
       <use xlink:href="#m26e716f818" x="387.888895" y="29.735076" style="stroke: #000000; stroke-width: 0.6"/>
      </g>
     </g>
    </g>
    <g id="ytick_61">
     <g id="line2d_76">
      <g>
       <use xlink:href="#m26e716f818" x="387.888895" y="28.127092" style="stroke: #000000; stroke-width: 0.6"/>
      </g>
     </g>
    </g>
    <g id="ytick_62">
     <g id="line2d_77">
      <g>
       <use xlink:href="#m26e716f818" x="387.888895" y="26.70875" style="stroke: #000000; stroke-width: 0.6"/>
      </g>
     </g>
    </g>
    <g id="text_34">
     <!-- Nr. hits -->
     <g transform="translate(357.209207 126.263742) rotate(-90) scale(0.1 -0.1)">
      <use xlink:href="#DejaVuSans-4e"/>
      <use xlink:href="#DejaVuSans-72" x="74.804688"/>
      <use xlink:href="#DejaVuSans-2e" x="106.792969"/>
      <use xlink:href="#DejaVuSans-20" x="138.580078"/>
      <use xlink:href="#DejaVuSans-68" x="170.367188"/>
      <use xlink:href="#DejaVuSans-69" x="233.746094"/>
      <use xlink:href="#DejaVuSans-74" x="261.529297"/>
      <use xlink:href="#DejaVuSans-73" x="300.738281"/>
     </g>
    </g>
   </g>
   <g id="line2d_78">
    <path d="M 450.263935 234.766234 
L 450.821553 213.556059 
L 453.24204 151.685842 
L 455.662527 110.571839 
L 458.083014 83.724338 
L 460.503501 66.682723 
L 462.923987 56.381052 
L 465.344474 50.711988 
L 467.764961 48.227086 
L 470.185448 47.930773 
L 472.605935 49.138757 
L 475.026422 51.3807 
L 477.446909 54.333319 
L 479.867395 57.774413 
L 482.287882 61.551254 
L 484.708369 65.558865 
L 487.128856 69.725093 
L 489.549343 74.000344 
L 491.96983 78.350531 
L 494.390317 82.752224 
L 496.810803 87.189319 
L 499.23129 91.650747 
L 501.651777 96.1289 
L 504.072264 100.618549 
L 506.492751 105.116099 
L 508.913238 109.61908 
L 511.333725 114.125794 
L 513.754211 118.635073 
L 516.174698 123.146116 
L 518.595185 127.658372 
L 521.015672 132.17146 
L 523.436159 136.685121 
L 525.856646 141.199176 
L 528.277133 145.713501 
L 530.697619 150.228013 
L 533.118106 154.742652 
L 535.538593 159.257378 
L 537.95908 163.772166 
L 540.379567 168.286994 
L 542.800054 172.801852 
L 545.220541 177.316728 
L 547.641027 181.831619 
L 550.061514 186.346518 
L 552.482001 190.861424 
L 554.902488 195.376335 
L 557.322975 199.891248 
L 559.743462 204.406164 
L 562.163949 208.92108 
L 564.584435 213.435998 
L 567.004922 217.950917 
L 569.425409 222.465836 
L 571.845896 226.980755 
L 574.266383 231.495675 
L 576.019758 234.766234 
" clip-path="url(#pc17594da8e)" style="fill: none; stroke: #000000; stroke-width: 1.5; stroke-linecap: square"/>
   </g>
   <g id="patch_210">
    <path d="M 387.888895 191.806234 
L 387.888895 25.44 
" style="fill: none; stroke: #000000; stroke-width: 0.8; stroke-linejoin: miter; stroke-linecap: square"/>
   </g>
   <g id="patch_211">
    <path d="M 629.937581 191.806234 
L 629.937581 25.44 
" style="fill: none; stroke: #000000; stroke-width: 0.8; stroke-linejoin: miter; stroke-linecap: square"/>
   </g>
   <g id="patch_212">
    <path d="M 387.888895 191.806234 
L 629.937581 191.806234 
" style="fill: none; stroke: #000000; stroke-width: 0.8; stroke-linejoin: miter; stroke-linecap: square"/>
   </g>
   <g id="patch_213">
    <path d="M 387.888895 25.44 
L 629.937581 25.44 
" style="fill: none; stroke: #000000; stroke-width: 0.8; stroke-linejoin: miter; stroke-linecap: square"/>
   </g>
   <g id="text_35">
    <!-- Foldseek SCOP40 (log scale) -->
    <g transform="translate(423.564175 19.44) scale(0.12 -0.12)">
     <defs>
      <path id="DejaVuSans-28" d="M 1984 4856 
Q 1566 4138 1362 3434 
Q 1159 2731 1159 2009 
Q 1159 1288 1364 580 
Q 1569 -128 1984 -844 
L 1484 -844 
Q 1016 -109 783 600 
Q 550 1309 550 2009 
Q 550 2706 781 3412 
Q 1013 4119 1484 4856 
L 1984 4856 
z
" transform="scale(0.015625)"/>
      <path id="DejaVuSans-67" d="M 2906 1791 
Q 2906 2416 2648 2759 
Q 2391 3103 1925 3103 
Q 1463 3103 1205 2759 
Q 947 2416 947 1791 
Q 947 1169 1205 825 
Q 1463 481 1925 481 
Q 2391 481 2648 825 
Q 2906 1169 2906 1791 
z
M 3481 434 
Q 3481 -459 3084 -895 
Q 2688 -1331 1869 -1331 
Q 1566 -1331 1297 -1286 
Q 1028 -1241 775 -1147 
L 775 -588 
Q 1028 -725 1275 -790 
Q 1522 -856 1778 -856 
Q 2344 -856 2625 -561 
Q 2906 -266 2906 331 
L 2906 616 
Q 2728 306 2450 153 
Q 2172 0 1784 0 
Q 1141 0 747 490 
Q 353 981 353 1791 
Q 353 2603 747 3093 
Q 1141 3584 1784 3584 
Q 2172 3584 2450 3431 
Q 2728 3278 2906 2969 
L 2906 3500 
L 3481 3500 
L 3481 434 
z
" transform="scale(0.015625)"/>
      <path id="DejaVuSans-29" d="M 513 4856 
L 1013 4856 
Q 1481 4119 1714 3412 
Q 1947 2706 1947 2009 
Q 1947 1309 1714 600 
Q 1481 -109 1013 -844 
L 513 -844 
Q 928 -128 1133 580 
Q 1338 1288 1338 2009 
Q 1338 2731 1133 3434 
Q 928 4138 513 4856 
z
" transform="scale(0.015625)"/>
     </defs>
     <use xlink:href="#DejaVuSans-46"/>
     <use xlink:href="#DejaVuSans-6f" x="53.894531"/>
     <use xlink:href="#DejaVuSans-6c" x="115.076172"/>
     <use xlink:href="#DejaVuSans-64" x="142.859375"/>
     <use xlink:href="#DejaVuSans-73" x="206.335938"/>
     <use xlink:href="#DejaVuSans-65" x="258.435547"/>
     <use xlink:href="#DejaVuSans-65" x="319.958984"/>
     <use xlink:href="#DejaVuSans-6b" x="381.482422"/>
     <use xlink:href="#DejaVuSans-20" x="439.392578"/>
     <use xlink:href="#DejaVuSans-53" x="471.179688"/>
     <use xlink:href="#DejaVuSans-43" x="534.65625"/>
     <use xlink:href="#DejaVuSans-4f" x="604.480469"/>
     <use xlink:href="#DejaVuSans-50" x="683.191406"/>
     <use xlink:href="#DejaVuSans-34" x="743.494141"/>
     <use xlink:href="#DejaVuSans-30" x="807.117188"/>
     <use xlink:href="#DejaVuSans-20" x="870.740234"/>
     <use xlink:href="#DejaVuSans-28" x="902.527344"/>
     <use xlink:href="#DejaVuSans-6c" x="941.541016"/>
     <use xlink:href="#DejaVuSans-6f" x="969.324219"/>
     <use xlink:href="#DejaVuSans-67" x="1030.505859"/>
     <use xlink:href="#DejaVuSans-20" x="1093.982422"/>
     <use xlink:href="#DejaVuSans-73" x="1125.769531"/>
     <use xlink:href="#DejaVuSans-63" x="1177.869141"/>
     <use xlink:href="#DejaVuSans-61" x="1232.849609"/>
     <use xlink:href="#DejaVuSans-6c" x="1294.128906"/>
     <use xlink:href="#DejaVuSans-65" x="1321.912109"/>
     <use xlink:href="#DejaVuSans-29" x="1383.435547"/>
    </g>
   </g>
   <g id="legend_2">
    <g id="patch_214">
     <path d="M 542.093831 62.79625 
L 622.937581 62.79625 
Q 624.937581 62.79625 624.937581 60.79625 
L 624.937581 32.44 
Q 624.937581 30.44 622.937581 30.44 
L 542.093831 30.44 
Q 540.093831 30.44 540.093831 32.44 
L 540.093831 60.79625 
Q 540.093831 62.79625 542.093831 62.79625 
z
" style="fill: #ffffff; opacity: 0.8; stroke: #cccccc; stroke-linejoin: miter"/>
    </g>
    <g id="line2d_79">
     <path d="M 544.093831 38.538437 
L 554.093831 38.538437 
L 564.093831 38.538437 
" style="fill: none; stroke: #000000; stroke-width: 1.5; stroke-linecap: square"/>
    </g>
    <g id="text_36">
     <!-- EVD fit -->
     <g transform="translate(572.093831 42.038437) scale(0.1 -0.1)">
      <use xlink:href="#DejaVuSans-45"/>
      <use xlink:href="#DejaVuSans-56" x="63.183594"/>
      <use xlink:href="#DejaVuSans-44" x="131.591797"/>
      <use xlink:href="#DejaVuSans-20" x="208.59375"/>
      <use xlink:href="#DejaVuSans-66" x="240.380859"/>
      <use xlink:href="#DejaVuSans-69" x="275.585938"/>
      <use xlink:href="#DejaVuSans-74" x="303.369141"/>
     </g>
    </g>
    <g id="patch_215">
     <path d="M 544.093831 56.716562 
L 564.093831 56.716562 
L 564.093831 49.716562 
L 544.093831 49.716562 
z
" style="fill: #b0e0e6"/>
    </g>
    <g id="text_37">
     <!-- Measured -->
     <g transform="translate(572.093831 56.716562) scale(0.1 -0.1)">
      <use xlink:href="#DejaVuSans-4d"/>
      <use xlink:href="#DejaVuSans-65" x="86.279297"/>
      <use xlink:href="#DejaVuSans-61" x="147.802734"/>
      <use xlink:href="#DejaVuSans-73" x="209.082031"/>
      <use xlink:href="#DejaVuSans-75" x="261.181641"/>
      <use xlink:href="#DejaVuSans-72" x="324.560547"/>
      <use xlink:href="#DejaVuSans-65" x="363.423828"/>
      <use xlink:href="#DejaVuSans-64" x="424.947266"/>
     </g>
    </g>
   </g>
  </g>
 </g>
 <defs>
  <clipPath id="p4c99009a18">
   <rect x="89.3" y="25.44" width="242.048686" height="166.366234"/>
  </clipPath>
  <clipPath id="pc17594da8e">
   <rect x="387.888895" y="25.44" width="242.048686" height="166.366234"/>
  </clipPath>
 </defs>
</svg>
